<svg width="1278" height="432" viewBox="0 0 1278 432" fill="none" xmlns="http://www.w3.org/2000/svg">
<g clip-path="url(#clip0_6624_23507)">
<path d="M509.872 10.328C509.872 9.336 510.12 8.464 510.616 7.712C511.112 6.96 511.808 6.376 512.704 5.96C513.616 5.544 514.664 5.336 515.848 5.336C516.952 5.336 517.912 5.536 518.728 5.936C519.56 6.32 520.208 6.872 520.672 7.592C521.152 8.312 521.424 9.176 521.488 10.184H519.112C519.048 9.32 518.728 8.648 518.152 8.168C517.576 7.688 516.8 7.448 515.824 7.448C514.736 7.448 513.864 7.704 513.208 8.216C512.552 8.712 512.224 9.392 512.224 10.256C512.224 10.96 512.424 11.528 512.824 11.96C513.224 12.376 513.832 12.68 514.648 12.872L517.504 13.544C518.928 13.864 519.992 14.416 520.696 15.2C521.416 15.968 521.776 16.96 521.776 18.176C521.776 19.216 521.52 20.12 521.008 20.888C520.512 21.656 519.8 22.248 518.872 22.664C517.96 23.08 516.888 23.288 515.656 23.288C514.488 23.288 513.456 23.096 512.56 22.712C511.68 22.312 510.984 21.752 510.472 21.032C509.976 20.296 509.696 19.44 509.632 18.464H512.032C512.048 19.296 512.384 19.96 513.04 20.456C513.696 20.936 514.568 21.176 515.656 21.176C516.808 21.176 517.72 20.92 518.392 20.408C519.08 19.896 519.424 19.216 519.424 18.368C519.424 17.68 519.232 17.12 518.848 16.688C518.464 16.256 517.856 15.944 517.024 15.752L514.168 15.104C512.76 14.784 511.688 14.224 510.952 13.424C510.232 12.608 509.872 11.576 509.872 10.328ZM532.219 11.264H534.451V23H532.435L532.195 21.224C531.859 21.832 531.331 22.328 530.611 22.712C529.891 23.096 529.099 23.288 528.235 23.288C526.875 23.288 525.819 22.864 525.067 22.016C524.331 21.152 523.963 20 523.963 18.56V11.264H526.219V17.816C526.219 19.064 526.467 19.96 526.963 20.504C527.475 21.032 528.163 21.296 529.027 21.296C530.067 21.296 530.859 20.976 531.403 20.336C531.947 19.68 532.219 18.72 532.219 17.456V11.264ZM539.525 23H537.485V5.336H539.741V13.28C540.125 12.512 540.693 11.928 541.445 11.528C542.197 11.128 543.053 10.928 544.013 10.928C545.133 10.928 546.093 11.2 546.893 11.744C547.693 12.272 548.309 13.008 548.741 13.952C549.173 14.896 549.389 15.976 549.389 17.192C549.389 18.36 549.165 19.408 548.717 20.336C548.269 21.264 547.629 21.992 546.797 22.52C545.981 23.032 545.005 23.288 543.869 23.288C542.957 23.288 542.125 23.08 541.373 22.664C540.637 22.248 540.077 21.648 539.693 20.864L539.525 23ZM539.765 17.096C539.765 17.912 539.909 18.632 540.197 19.256C540.501 19.88 540.925 20.368 541.469 20.72C542.029 21.072 542.693 21.248 543.461 21.248C544.229 21.248 544.885 21.072 545.429 20.72C545.973 20.368 546.389 19.88 546.677 19.256C546.981 18.632 547.133 17.912 547.133 17.096C547.133 16.296 546.981 15.592 546.677 14.984C546.389 14.36 545.973 13.872 545.429 13.52C544.885 13.152 544.229 12.968 543.461 12.968C542.693 12.968 542.029 13.144 541.469 13.496C540.925 13.848 540.501 14.336 540.197 14.96C539.909 15.568 539.765 16.28 539.765 17.096ZM550.675 19.592H552.835C552.835 20.184 553.051 20.656 553.483 21.008C553.915 21.344 554.499 21.512 555.235 21.512C556.035 21.512 556.651 21.36 557.083 21.056C557.515 20.736 557.731 20.312 557.731 19.784C557.731 19.4 557.611 19.08 557.371 18.824C557.147 18.568 556.731 18.36 556.123 18.2L554.059 17.72C553.019 17.464 552.243 17.072 551.731 16.544C551.235 16.016 550.987 15.32 550.987 14.456C550.987 13.736 551.171 13.112 551.539 12.584C551.923 12.056 552.443 11.648 553.099 11.36C553.771 11.072 554.539 10.928 555.403 10.928C556.267 10.928 557.011 11.08 557.635 11.384C558.275 11.688 558.771 12.112 559.123 12.656C559.491 13.2 559.683 13.848 559.699 14.6H557.539C557.523 13.992 557.323 13.52 556.939 13.184C556.555 12.848 556.019 12.68 555.331 12.68C554.627 12.68 554.083 12.832 553.699 13.136C553.315 13.44 553.123 13.856 553.123 14.384C553.123 15.168 553.699 15.704 554.851 15.992L556.915 16.496C557.907 16.72 558.651 17.088 559.147 17.6C559.643 18.096 559.891 18.776 559.891 19.64C559.891 20.376 559.691 21.024 559.291 21.584C558.891 22.128 558.339 22.552 557.635 22.856C556.947 23.144 556.131 23.288 555.187 23.288C553.811 23.288 552.715 22.952 551.899 22.28C551.083 21.608 550.675 20.712 550.675 19.592ZM561.385 17.144C561.385 15.912 561.625 14.832 562.105 13.904C562.601 12.976 563.281 12.248 564.145 11.72C565.009 11.192 566.009 10.928 567.145 10.928C568.617 10.928 569.841 11.32 570.817 12.104C571.793 12.888 572.377 13.928 572.569 15.224H570.313C570.121 14.472 569.745 13.904 569.185 13.52C568.625 13.136 567.969 12.944 567.217 12.944C566.513 12.944 565.889 13.12 565.345 13.472C564.801 13.808 564.377 14.288 564.073 14.912C563.769 15.536 563.617 16.272 563.617 17.12C563.617 17.968 563.761 18.704 564.049 19.328C564.337 19.936 564.745 20.416 565.273 20.768C565.801 21.104 566.417 21.272 567.121 21.272C567.921 21.272 568.609 21.072 569.185 20.672C569.761 20.272 570.145 19.728 570.337 19.04H572.593C572.449 19.888 572.121 20.632 571.609 21.272C571.113 21.896 570.473 22.392 569.689 22.76C568.921 23.112 568.065 23.288 567.121 23.288C565.969 23.288 564.961 23.032 564.097 22.52C563.249 22.008 562.585 21.296 562.105 20.384C561.625 19.456 561.385 18.376 561.385 17.144ZM581.453 11.168V13.232H580.445C579.373 13.232 578.525 13.544 577.901 14.168C577.293 14.776 576.989 15.648 576.989 16.784V23H574.733V11.288H576.845L577.037 13.64H576.821C576.981 12.872 577.365 12.248 577.973 11.768C578.581 11.272 579.341 11.024 580.253 11.024C580.461 11.024 580.653 11.04 580.829 11.072C581.021 11.088 581.229 11.12 581.453 11.168ZM583.329 23V11.264H585.585V23H583.329ZM584.433 8.48C584.033 8.48 583.681 8.336 583.377 8.048C583.089 7.744 582.945 7.392 582.945 6.992C582.945 6.576 583.089 6.224 583.377 5.936C583.681 5.648 584.033 5.504 584.433 5.504C584.849 5.504 585.201 5.648 585.489 5.936C585.777 6.224 585.921 6.576 585.921 6.992C585.921 7.392 585.777 7.744 585.489 8.048C585.201 8.336 584.849 8.48 584.433 8.48ZM588.62 28.256V11.264H590.66L590.828 13.376C591.212 12.56 591.78 11.952 592.532 11.552C593.3 11.136 594.148 10.928 595.076 10.928C596.196 10.928 597.164 11.192 597.98 11.72C598.796 12.232 599.42 12.952 599.852 13.88C600.3 14.792 600.524 15.848 600.524 17.048C600.524 18.248 600.308 19.32 599.876 20.264C599.46 21.208 598.844 21.952 598.028 22.496C597.228 23.04 596.244 23.312 595.076 23.312C594.132 23.312 593.292 23.12 592.556 22.736C591.82 22.352 591.26 21.8 590.876 21.08V28.256H588.62ZM590.9 17.144C590.9 17.928 591.044 18.64 591.332 19.28C591.636 19.904 592.06 20.392 592.604 20.744C593.164 21.096 593.828 21.272 594.596 21.272C595.364 21.272 596.02 21.096 596.564 20.744C597.108 20.376 597.524 19.88 597.812 19.256C598.116 18.632 598.268 17.928 598.268 17.144C598.268 16.328 598.116 15.608 597.812 14.984C597.524 14.36 597.108 13.872 596.564 13.52C596.02 13.168 595.364 12.992 594.596 12.992C593.828 12.992 593.164 13.168 592.604 13.52C592.06 13.872 591.636 14.36 591.332 14.984C591.044 15.608 590.9 16.328 590.9 17.144ZM601.406 11.264H608.222V13.16H601.406V11.264ZM608.126 21.032L608.414 22.904C607.806 23.144 607.158 23.264 606.47 23.264C605.782 23.264 605.198 23.136 604.718 22.88C604.238 22.608 603.87 22.208 603.614 21.68C603.358 21.152 603.23 20.496 603.23 19.712V7.592H605.486V19.4C605.486 20.072 605.622 20.552 605.894 20.84C606.182 21.112 606.55 21.248 606.998 21.248C607.35 21.248 607.726 21.176 608.126 21.032ZM610.5 23V11.264H612.756V23H610.5ZM611.604 8.48C611.204 8.48 610.852 8.336 610.548 8.048C610.26 7.744 610.116 7.392 610.116 6.992C610.116 6.576 610.26 6.224 610.548 5.936C610.852 5.648 611.204 5.504 611.604 5.504C612.02 5.504 612.372 5.648 612.66 5.936C612.948 6.224 613.092 6.576 613.092 6.992C613.092 7.392 612.948 7.744 612.66 8.048C612.372 8.336 612.02 8.48 611.604 8.48ZM615.023 17.12C615.023 15.92 615.287 14.856 615.815 13.928C616.343 13 617.063 12.272 617.975 11.744C618.903 11.216 619.959 10.952 621.143 10.952C622.327 10.952 623.375 11.216 624.287 11.744C625.199 12.272 625.919 13 626.447 13.928C626.975 14.856 627.239 15.92 627.239 17.12C627.239 18.32 626.975 19.384 626.447 20.312C625.919 21.24 625.199 21.968 624.287 22.496C623.375 23.024 622.327 23.288 621.143 23.288C619.959 23.288 618.903 23.024 617.975 22.496C617.063 21.968 616.343 21.24 615.815 20.312C615.287 19.384 615.023 18.32 615.023 17.12ZM617.303 17.12C617.303 17.936 617.463 18.656 617.783 19.28C618.119 19.904 618.575 20.392 619.151 20.744C619.727 21.096 620.391 21.272 621.143 21.272C621.895 21.272 622.559 21.096 623.135 20.744C623.711 20.392 624.159 19.904 624.479 19.28C624.815 18.656 624.983 17.936 624.983 17.12C624.983 16.288 624.815 15.568 624.479 14.96C624.159 14.336 623.711 13.848 623.135 13.496C622.559 13.144 621.895 12.968 621.143 12.968C620.391 12.968 619.727 13.144 619.151 13.496C618.575 13.848 618.119 14.336 617.783 14.96C617.463 15.568 617.303 16.288 617.303 17.12ZM631.752 23H629.496V11.264H631.536L631.776 13.064C632.144 12.392 632.672 11.872 633.36 11.504C634.064 11.12 634.832 10.928 635.664 10.928C637.2 10.928 638.336 11.368 639.072 12.248C639.808 13.128 640.176 14.32 640.176 15.824V23H637.92V16.328C637.92 15.144 637.664 14.296 637.152 13.784C636.64 13.256 635.952 12.992 635.088 12.992C634.032 12.992 633.208 13.336 632.616 14.024C632.04 14.712 631.752 15.632 631.752 16.784V23ZM652.12 5.648V23H649.768V5.648H652.12ZM656.584 15.344H651.472V13.304H656.392C657.368 13.304 658.12 13.056 658.648 12.56C659.176 12.064 659.44 11.36 659.44 10.448C659.44 9.584 659.16 8.92 658.6 8.456C658.056 7.976 657.272 7.736 656.248 7.736H651.064V5.648H656.392C658.088 5.648 659.416 6.056 660.376 6.872C661.352 7.688 661.84 8.808 661.84 10.232C661.84 11.304 661.576 12.2 661.048 12.92C660.536 13.624 659.776 14.136 658.768 14.456V14.144C659.888 14.416 660.728 14.912 661.288 15.632C661.864 16.336 662.152 17.248 662.152 18.368C662.152 19.328 661.928 20.16 661.48 20.864C661.048 21.552 660.416 22.08 659.584 22.448C658.752 22.816 657.768 23 656.632 23H651.064V20.912H656.584C657.592 20.912 658.368 20.664 658.912 20.168C659.456 19.672 659.728 18.976 659.728 18.08C659.728 17.216 659.448 16.544 658.888 16.064C658.344 15.584 657.576 15.344 656.584 15.344ZM669.536 23.288C668.4 23.288 667.392 23.032 666.512 22.52C665.632 21.992 664.944 21.272 664.448 20.36C663.952 19.432 663.704 18.36 663.704 17.144C663.704 15.912 663.944 14.832 664.424 13.904C664.92 12.976 665.592 12.248 666.44 11.72C667.304 11.192 668.304 10.928 669.44 10.928C670.56 10.928 671.528 11.168 672.344 11.648C673.176 12.128 673.816 12.8 674.264 13.664C674.728 14.528 674.96 15.544 674.96 16.712V17.552L664.904 17.576L664.952 16.064H672.704C672.704 15.088 672.408 14.304 671.816 13.712C671.224 13.12 670.432 12.824 669.44 12.824C668.688 12.824 668.04 12.992 667.496 13.328C666.968 13.648 666.56 14.128 666.272 14.768C666 15.392 665.864 16.144 665.864 17.024C665.864 18.432 666.184 19.52 666.824 20.288C667.464 21.04 668.384 21.416 669.584 21.416C670.464 21.416 671.184 21.24 671.744 20.888C672.304 20.536 672.68 20.024 672.872 19.352H674.984C674.696 20.6 674.08 21.568 673.136 22.256C672.192 22.944 670.992 23.288 669.536 23.288ZM679.496 23H677.24V11.264H679.28L679.52 13.064C679.888 12.392 680.416 11.872 681.104 11.504C681.808 11.12 682.576 10.928 683.408 10.928C684.944 10.928 686.08 11.368 686.816 12.248C687.552 13.128 687.92 14.32 687.92 15.824V23H685.664V16.328C685.664 15.144 685.408 14.296 684.896 13.784C684.384 13.256 683.696 12.992 682.832 12.992C681.776 12.992 680.952 13.336 680.36 14.024C679.784 14.712 679.496 15.632 679.496 16.784V23ZM690.036 17.144C690.036 15.912 690.276 14.832 690.756 13.904C691.252 12.976 691.932 12.248 692.796 11.72C693.66 11.192 694.66 10.928 695.796 10.928C697.268 10.928 698.492 11.32 699.468 12.104C700.444 12.888 701.028 13.928 701.22 15.224H698.964C698.772 14.472 698.396 13.904 697.836 13.52C697.276 13.136 696.62 12.944 695.868 12.944C695.164 12.944 694.54 13.12 693.996 13.472C693.452 13.808 693.028 14.288 692.724 14.912C692.42 15.536 692.268 16.272 692.268 17.12C692.268 17.968 692.412 18.704 692.7 19.328C692.988 19.936 693.396 20.416 693.924 20.768C694.452 21.104 695.068 21.272 695.772 21.272C696.572 21.272 697.26 21.072 697.836 20.672C698.412 20.272 698.796 19.728 698.988 19.04H701.244C701.1 19.888 700.772 20.632 700.26 21.272C699.764 21.896 699.124 22.392 698.34 22.76C697.572 23.112 696.716 23.288 695.772 23.288C694.62 23.288 693.612 23.032 692.748 22.52C691.9 22.008 691.236 21.296 690.756 20.384C690.276 19.456 690.036 18.376 690.036 17.144ZM705.641 22.976H703.385V5.336H705.641V13.064C706.009 12.424 706.537 11.912 707.225 11.528C707.913 11.128 708.713 10.928 709.625 10.928C711.113 10.928 712.225 11.368 712.961 12.248C713.697 13.128 714.065 14.32 714.065 15.824V23H711.809V16.328C711.809 15.528 711.689 14.888 711.449 14.408C711.225 13.912 710.897 13.552 710.465 13.328C710.049 13.104 709.561 12.992 709.001 12.992C708.281 12.992 707.665 13.152 707.153 13.472C706.657 13.792 706.281 14.224 706.025 14.768C705.769 15.312 705.641 15.92 705.641 16.592V22.976ZM719.205 23H716.949V11.264H718.965L719.277 13.424L718.989 13.232C719.229 12.576 719.669 12.032 720.309 11.6C720.965 11.152 721.757 10.928 722.685 10.928C723.725 10.928 724.589 11.208 725.277 11.768C725.965 12.328 726.413 13.072 726.621 14H726.213C726.373 13.072 726.813 12.328 727.533 11.768C728.253 11.208 729.141 10.928 730.197 10.928C731.541 10.928 732.597 11.32 733.365 12.104C734.133 12.888 734.517 13.96 734.517 15.32V23H732.309V15.872C732.309 14.944 732.069 14.232 731.589 13.736C731.125 13.224 730.493 12.968 729.693 12.968C729.133 12.968 728.637 13.096 728.205 13.352C727.789 13.592 727.461 13.944 727.221 14.408C726.981 14.872 726.861 15.416 726.861 16.04V23H724.629V15.848C724.629 14.92 724.397 14.216 723.933 13.736C723.469 13.24 722.837 12.992 722.037 12.992C721.477 12.992 720.981 13.12 720.549 13.376C720.133 13.616 719.805 13.968 719.565 14.432C719.325 14.88 719.205 15.416 719.205 16.04V23ZM740.837 23.288C739.589 23.288 738.605 22.96 737.885 22.304C737.181 21.648 736.829 20.792 736.829 19.736C736.829 18.664 737.213 17.808 737.981 17.168C738.749 16.512 739.821 16.128 741.197 16.016L744.893 15.728V15.392C744.893 14.736 744.773 14.216 744.533 13.832C744.293 13.432 743.965 13.152 743.549 12.992C743.133 12.816 742.661 12.728 742.133 12.728C741.189 12.728 740.453 12.928 739.925 13.328C739.413 13.712 739.157 14.264 739.157 14.984H737.189C737.189 14.168 737.397 13.456 737.813 12.848C738.229 12.24 738.813 11.768 739.565 11.432C740.333 11.096 741.221 10.928 742.229 10.928C743.205 10.928 744.053 11.104 744.773 11.456C745.509 11.792 746.077 12.312 746.477 13.016C746.893 13.704 747.101 14.576 747.101 15.632V23H745.181L744.941 21.104C744.637 21.776 744.109 22.312 743.357 22.712C742.621 23.096 741.781 23.288 740.837 23.288ZM741.485 21.536C742.557 21.536 743.397 21.216 744.005 20.576C744.613 19.92 744.917 19.04 744.917 17.936V17.312L741.917 17.552C740.925 17.648 740.205 17.88 739.757 18.248C739.325 18.616 739.109 19.088 739.109 19.664C739.109 20.288 739.317 20.76 739.733 21.08C740.165 21.384 740.749 21.536 741.485 21.536ZM756.705 11.168V13.232H755.697C754.625 13.232 753.777 13.544 753.153 14.168C752.545 14.776 752.241 15.648 752.241 16.784V23H749.985V11.288H752.097L752.289 13.64H752.073C752.233 12.872 752.617 12.248 753.225 11.768C753.833 11.272 754.593 11.024 755.505 11.024C755.713 11.024 755.905 11.04 756.081 11.072C756.273 11.088 756.481 11.12 756.705 11.168ZM760.885 23H758.629V5.336H760.885V16.784L766.093 11.264H768.925L764.437 15.944L768.901 23H766.309L762.877 17.576L760.885 19.664V23Z" fill="#0D0D0D"/>
<rect y="223" width="186.167" height="132" rx="12" fill="#D1D1D1"/>
<path d="M78.163 304.968H73.171V301.736H81.651V325H78.163V304.968ZM96.4625 307.304C96.4625 308.477 96.2065 309.523 95.6945 310.44C95.1825 311.357 94.4785 312.072 93.5825 312.584C92.6865 313.096 91.6625 313.352 90.5105 313.352C89.3585 313.352 88.3238 313.096 87.4065 312.584C86.5105 312.072 85.8065 311.357 85.2945 310.44C84.7825 309.523 84.5265 308.477 84.5265 307.304C84.5265 306.131 84.7825 305.096 85.2945 304.2C85.8065 303.283 86.5105 302.568 87.4065 302.056C88.3238 301.544 89.3585 301.288 90.5105 301.288C91.6625 301.288 92.6865 301.544 93.5825 302.056C94.4785 302.568 95.1825 303.283 95.6945 304.2C96.2065 305.096 96.4625 306.131 96.4625 307.304ZM93.6785 307.304C93.6785 306.323 93.3798 305.533 92.7825 304.936C92.2065 304.317 91.4492 304.008 90.5105 304.008C89.5718 304.008 88.8038 304.317 88.2065 304.936C87.6092 305.533 87.3105 306.323 87.3105 307.304C87.3105 308.285 87.6092 309.085 88.2065 309.704C88.8038 310.323 89.5718 310.632 90.5105 310.632C91.4492 310.632 92.2065 310.323 92.7825 309.704C93.3798 309.085 93.6785 308.285 93.6785 307.304ZM108.975 301.768L91.3105 325H87.8545L105.487 301.768H108.975ZM112.367 319.4C112.367 320.573 112.111 321.619 111.599 322.536C111.087 323.432 110.383 324.136 109.487 324.648C108.591 325.16 107.556 325.416 106.383 325.416C105.231 325.416 104.196 325.16 103.279 324.648C102.383 324.136 101.679 323.432 101.167 322.536C100.655 321.619 100.399 320.573 100.399 319.4C100.399 318.227 100.655 317.192 101.167 316.296C101.679 315.379 102.383 314.664 103.279 314.152C104.196 313.64 105.231 313.384 106.383 313.384C107.556 313.384 108.591 313.64 109.487 314.152C110.383 314.664 111.087 315.379 111.599 316.296C112.111 317.192 112.367 318.227 112.367 319.4ZM109.551 319.4C109.551 318.419 109.252 317.619 108.655 317C108.079 316.381 107.321 316.072 106.383 316.072C105.444 316.072 104.676 316.381 104.079 317C103.503 317.619 103.215 318.419 103.215 319.4C103.215 320.36 103.503 321.16 104.079 321.8C104.676 322.419 105.444 322.728 106.383 322.728C107.321 322.728 108.079 322.419 108.655 321.8C109.252 321.16 109.551 320.36 109.551 319.4Z" fill="#0D0D0D"/>
<rect x="206.167" y="157" width="186.167" height="198" rx="12" fill="#AEAEAE"/>
<path d="M271.33 304.968H266.338V301.736H274.818V325H271.33V304.968ZM281.022 325.384C280.339 325.384 279.752 325.149 279.262 324.68C278.792 324.211 278.558 323.656 278.558 323.016C278.558 322.333 278.792 321.757 279.262 321.288C279.752 320.819 280.339 320.584 281.022 320.584C281.683 320.584 282.248 320.819 282.718 321.288C283.208 321.757 283.454 322.333 283.454 323.016C283.454 323.656 283.208 324.211 282.718 324.68C282.248 325.149 281.683 325.384 281.022 325.384ZM293.394 325.384C291.794 325.384 290.386 325.064 289.17 324.424C287.976 323.784 287.048 322.888 286.386 321.736C285.746 320.563 285.426 319.197 285.426 317.64H288.978C288.978 319.048 289.373 320.157 290.162 320.968C290.973 321.757 292.072 322.152 293.458 322.152C294.44 322.152 295.282 321.949 295.986 321.544C296.712 321.139 297.277 320.573 297.682 319.848C298.088 319.101 298.29 318.227 298.29 317.224C298.29 316.264 298.098 315.421 297.714 314.696C297.33 313.971 296.786 313.405 296.082 313C295.378 312.573 294.514 312.36 293.49 312.36C292.573 312.36 291.709 312.563 290.898 312.968C290.088 313.373 289.448 313.896 288.978 314.536L285.842 313.8L288.69 301.736H300.562V305.064H290.226L291.634 303.784L289.618 311.816L288.402 312.2C288.957 311.261 289.746 310.547 290.77 310.056C291.794 309.544 292.946 309.288 294.226 309.288C295.784 309.288 297.138 309.619 298.29 310.28C299.464 310.941 300.37 311.859 301.01 313.032C301.65 314.205 301.97 315.549 301.97 317.064C301.97 318.707 301.608 320.157 300.882 321.416C300.157 322.653 299.154 323.624 297.874 324.328C296.594 325.032 295.101 325.384 293.394 325.384ZM315.241 307.304C315.241 308.477 314.985 309.523 314.473 310.44C313.961 311.357 313.257 312.072 312.361 312.584C311.465 313.096 310.441 313.352 309.289 313.352C308.137 313.352 307.102 313.096 306.185 312.584C305.289 312.072 304.585 311.357 304.073 310.44C303.561 309.523 303.305 308.477 303.305 307.304C303.305 306.131 303.561 305.096 304.073 304.2C304.585 303.283 305.289 302.568 306.185 302.056C307.102 301.544 308.137 301.288 309.289 301.288C310.441 301.288 311.465 301.544 312.361 302.056C313.257 302.568 313.961 303.283 314.473 304.2C314.985 305.096 315.241 306.131 315.241 307.304ZM312.457 307.304C312.457 306.323 312.158 305.533 311.561 304.936C310.985 304.317 310.227 304.008 309.289 304.008C308.35 304.008 307.582 304.317 306.985 304.936C306.387 305.533 306.089 306.323 306.089 307.304C306.089 308.285 306.387 309.085 306.985 309.704C307.582 310.323 308.35 310.632 309.289 310.632C310.227 310.632 310.985 310.323 311.561 309.704C312.158 309.085 312.457 308.285 312.457 307.304ZM327.753 301.768L310.089 325H306.633L324.265 301.768H327.753ZM331.145 319.4C331.145 320.573 330.889 321.619 330.377 322.536C329.865 323.432 329.161 324.136 328.265 324.648C327.369 325.16 326.334 325.416 325.161 325.416C324.009 325.416 322.974 325.16 322.057 324.648C321.161 324.136 320.457 323.432 319.945 322.536C319.433 321.619 319.177 320.573 319.177 319.4C319.177 318.227 319.433 317.192 319.945 316.296C320.457 315.379 321.161 314.664 322.057 314.152C322.974 313.64 324.009 313.384 325.161 313.384C326.334 313.384 327.369 313.64 328.265 314.152C329.161 314.664 329.865 315.379 330.377 316.296C330.889 317.192 331.145 318.227 331.145 319.4ZM328.329 319.4C328.329 318.419 328.03 317.619 327.433 317C326.857 316.381 326.099 316.072 325.161 316.072C324.222 316.072 323.454 316.381 322.857 317C322.281 317.619 321.993 318.419 321.993 319.4C321.993 320.36 322.281 321.16 322.857 321.8C323.454 322.419 324.222 322.728 325.161 322.728C326.099 322.728 326.857 322.419 327.433 321.8C328.03 321.16 328.329 320.36 328.329 319.4Z" fill="#0D0D0D"/>
<rect x="412.333" y="91" width="186.167" height="264" rx="12" fill="#D1D1D1"/>
<path d="M498.792 324.968L482.888 325V322.248L490.44 315.816C491.315 315.091 492.04 314.429 492.616 313.832C493.192 313.235 493.651 312.68 493.992 312.168C494.333 311.656 494.579 311.144 494.728 310.632C494.877 310.099 494.952 309.544 494.952 308.968C494.952 307.581 494.579 306.504 493.832 305.736C493.107 304.947 492.093 304.552 490.792 304.552C489.427 304.552 488.339 305.011 487.528 305.928C486.739 306.824 486.323 308.061 486.28 309.64H482.696C482.717 307.955 483.069 306.493 483.752 305.256C484.435 303.997 485.373 303.027 486.568 302.344C487.784 301.661 489.192 301.32 490.792 301.32C492.413 301.32 493.8 301.619 494.952 302.216C496.125 302.813 497.032 303.667 497.672 304.776C498.312 305.885 498.632 307.208 498.632 308.744C498.632 309.555 498.525 310.333 498.312 311.08C498.099 311.805 497.768 312.52 497.32 313.224C496.872 313.928 496.296 314.653 495.592 315.4C494.909 316.125 494.077 316.904 493.096 317.736L487.24 322.76L485.992 321.608H498.792V324.968ZM512.233 307.304C512.233 308.477 511.977 309.523 511.465 310.44C510.953 311.357 510.249 312.072 509.353 312.584C508.457 313.096 507.433 313.352 506.281 313.352C505.129 313.352 504.094 313.096 503.177 312.584C502.281 312.072 501.577 311.357 501.065 310.44C500.553 309.523 500.297 308.477 500.297 307.304C500.297 306.131 500.553 305.096 501.065 304.2C501.577 303.283 502.281 302.568 503.177 302.056C504.094 301.544 505.129 301.288 506.281 301.288C507.433 301.288 508.457 301.544 509.353 302.056C510.249 302.568 510.953 303.283 511.465 304.2C511.977 305.096 512.233 306.131 512.233 307.304ZM509.449 307.304C509.449 306.323 509.15 305.533 508.553 304.936C507.977 304.317 507.22 304.008 506.281 304.008C505.342 304.008 504.574 304.317 503.977 304.936C503.38 305.533 503.081 306.323 503.081 307.304C503.081 308.285 503.38 309.085 503.977 309.704C504.574 310.323 505.342 310.632 506.281 310.632C507.22 310.632 507.977 310.323 508.553 309.704C509.15 309.085 509.449 308.285 509.449 307.304ZM524.745 301.768L507.081 325H503.625L521.257 301.768H524.745ZM528.137 319.4C528.137 320.573 527.881 321.619 527.369 322.536C526.857 323.432 526.153 324.136 525.257 324.648C524.361 325.16 523.326 325.416 522.153 325.416C521.001 325.416 519.966 325.16 519.049 324.648C518.153 324.136 517.449 323.432 516.937 322.536C516.425 321.619 516.169 320.573 516.169 319.4C516.169 318.227 516.425 317.192 516.937 316.296C517.449 315.379 518.153 314.664 519.049 314.152C519.966 313.64 521.001 313.384 522.153 313.384C523.326 313.384 524.361 313.64 525.257 314.152C526.153 314.664 526.857 315.379 527.369 316.296C527.881 317.192 528.137 318.227 528.137 319.4ZM525.321 319.4C525.321 318.419 525.022 317.619 524.425 317C523.849 316.381 523.092 316.072 522.153 316.072C521.214 316.072 520.446 316.381 519.849 317C519.273 317.619 518.985 318.419 518.985 319.4C518.985 320.36 519.273 321.16 519.849 321.8C520.446 322.419 521.214 322.728 522.153 322.728C523.092 322.728 523.849 322.419 524.425 321.8C525.022 321.16 525.321 320.36 525.321 319.4Z" fill="#0D0D0D"/>
<path d="M234.033 393.22C232.66 393.22 231.46 392.913 230.433 392.3C229.406 391.673 228.606 390.807 228.033 389.7C227.46 388.58 227.173 387.273 227.173 385.78C227.173 384.287 227.466 382.98 228.053 381.86C228.64 380.74 229.453 379.867 230.493 379.24C231.546 378.613 232.76 378.3 234.133 378.3C235.226 378.3 236.213 378.507 237.093 378.92C237.973 379.32 238.706 379.887 239.293 380.62C239.88 381.353 240.26 382.213 240.433 383.2H238.333C238.066 382.253 237.553 381.513 236.793 380.98C236.033 380.447 235.126 380.18 234.073 380.18C233.1 380.18 232.246 380.413 231.513 380.88C230.793 381.333 230.233 381.98 229.833 382.82C229.433 383.647 229.233 384.627 229.233 385.76C229.233 386.88 229.433 387.86 229.833 388.7C230.233 389.54 230.8 390.193 231.533 390.66C232.266 391.113 233.113 391.34 234.073 391.34C235.14 391.34 236.06 391.08 236.833 390.56C237.62 390.027 238.146 389.313 238.413 388.42H240.493C240.293 389.38 239.886 390.22 239.273 390.94C238.673 391.66 237.92 392.22 237.013 392.62C236.12 393.02 235.126 393.22 234.033 393.22ZM241.736 388.1C241.736 387.1 241.956 386.213 242.396 385.44C242.836 384.667 243.436 384.06 244.196 383.62C244.97 383.18 245.85 382.96 246.836 382.96C247.823 382.96 248.696 383.18 249.456 383.62C250.216 384.06 250.816 384.667 251.256 385.44C251.696 386.213 251.916 387.1 251.916 388.1C251.916 389.1 251.696 389.987 251.256 390.76C250.816 391.533 250.216 392.14 249.456 392.58C248.696 393.02 247.823 393.24 246.836 393.24C245.85 393.24 244.97 393.02 244.196 392.58C243.436 392.14 242.836 391.533 242.396 390.76C241.956 389.987 241.736 389.1 241.736 388.1ZM243.636 388.1C243.636 388.78 243.77 389.38 244.036 389.9C244.316 390.42 244.696 390.827 245.176 391.12C245.656 391.413 246.21 391.56 246.836 391.56C247.463 391.56 248.016 391.413 248.496 391.12C248.976 390.827 249.35 390.42 249.616 389.9C249.896 389.38 250.036 388.78 250.036 388.1C250.036 387.407 249.896 386.807 249.616 386.3C249.35 385.78 248.976 385.373 248.496 385.08C248.016 384.787 247.463 384.64 246.836 384.64C246.21 384.64 245.656 384.787 245.176 385.08C244.696 385.373 244.316 385.78 244.036 386.3C243.77 386.807 243.636 387.407 243.636 388.1ZM255.678 393H253.798V383.22H255.498L255.698 384.72C256.004 384.16 256.444 383.727 257.018 383.42C257.604 383.1 258.244 382.94 258.938 382.94C260.218 382.94 261.164 383.307 261.778 384.04C262.391 384.773 262.698 385.767 262.698 387.02V393H260.818V387.44C260.818 386.453 260.604 385.747 260.178 385.32C259.751 384.88 259.178 384.66 258.458 384.66C257.578 384.66 256.891 384.947 256.398 385.52C255.918 386.093 255.678 386.86 255.678 387.82V393ZM267.646 393L263.706 383.22H265.706L267.846 388.68C268.019 389.133 268.173 389.567 268.306 389.98C268.439 390.38 268.546 390.727 268.626 391.02C268.719 390.687 268.833 390.32 268.966 389.92C269.113 389.52 269.273 389.107 269.446 388.68L271.626 383.22H273.586L269.506 393H267.646ZM278.653 393.24C277.706 393.24 276.866 393.027 276.133 392.6C275.399 392.16 274.826 391.56 274.413 390.8C273.999 390.027 273.793 389.133 273.793 388.12C273.793 387.093 273.993 386.193 274.393 385.42C274.806 384.647 275.366 384.04 276.073 383.6C276.793 383.16 277.626 382.94 278.573 382.94C279.506 382.94 280.313 383.14 280.993 383.54C281.686 383.94 282.219 384.5 282.593 385.22C282.979 385.94 283.173 386.787 283.173 387.76V388.46L274.793 388.48L274.833 387.22H281.293C281.293 386.407 281.046 385.753 280.553 385.26C280.059 384.767 279.399 384.52 278.573 384.52C277.946 384.52 277.406 384.66 276.953 384.94C276.513 385.207 276.173 385.607 275.933 386.14C275.706 386.66 275.593 387.287 275.593 388.02C275.593 389.193 275.859 390.1 276.393 390.74C276.926 391.367 277.693 391.68 278.693 391.68C279.426 391.68 280.026 391.533 280.493 391.24C280.959 390.947 281.273 390.52 281.433 389.96H283.193C282.953 391 282.439 391.807 281.653 392.38C280.866 392.953 279.866 393.24 278.653 393.24ZM290.672 383.14V384.86H289.832C288.939 384.86 288.232 385.12 287.712 385.64C287.206 386.147 286.952 386.873 286.952 387.82V393H285.072V383.24H286.832L286.992 385.2H286.812C286.946 384.56 287.266 384.04 287.772 383.64C288.279 383.227 288.912 383.02 289.672 383.02C289.846 383.02 290.006 383.033 290.152 383.06C290.312 383.073 290.486 383.1 290.672 383.14ZM291.436 390.16H293.236C293.236 390.653 293.416 391.047 293.776 391.34C294.136 391.62 294.622 391.76 295.236 391.76C295.902 391.76 296.416 391.633 296.776 391.38C297.136 391.113 297.316 390.76 297.316 390.32C297.316 390 297.216 389.733 297.016 389.52C296.829 389.307 296.482 389.133 295.976 389L294.256 388.6C293.389 388.387 292.742 388.06 292.316 387.62C291.902 387.18 291.696 386.6 291.696 385.88C291.696 385.28 291.849 384.76 292.156 384.32C292.476 383.88 292.909 383.54 293.456 383.3C294.016 383.06 294.656 382.94 295.376 382.94C296.096 382.94 296.716 383.067 297.236 383.32C297.769 383.573 298.182 383.927 298.476 384.38C298.782 384.833 298.942 385.373 298.956 386H297.156C297.142 385.493 296.976 385.1 296.656 384.82C296.336 384.54 295.889 384.4 295.316 384.4C294.729 384.4 294.276 384.527 293.956 384.78C293.636 385.033 293.476 385.38 293.476 385.82C293.476 386.473 293.956 386.92 294.916 387.16L296.636 387.58C297.462 387.767 298.082 388.073 298.496 388.5C298.909 388.913 299.116 389.48 299.116 390.2C299.116 390.813 298.949 391.353 298.616 391.82C298.282 392.273 297.822 392.627 297.236 392.88C296.662 393.12 295.982 393.24 295.196 393.24C294.049 393.24 293.136 392.96 292.456 392.4C291.776 391.84 291.436 391.093 291.436 390.16ZM301.001 393V383.22H302.881V393H301.001ZM301.921 380.9C301.587 380.9 301.294 380.78 301.041 380.54C300.801 380.287 300.681 379.993 300.681 379.66C300.681 379.313 300.801 379.02 301.041 378.78C301.294 378.54 301.587 378.42 301.921 378.42C302.267 378.42 302.561 378.54 302.801 378.78C303.041 379.02 303.161 379.313 303.161 379.66C303.161 379.993 303.041 380.287 302.801 380.54C302.561 380.78 302.267 380.9 301.921 380.9ZM304.77 388.1C304.77 387.1 304.99 386.213 305.43 385.44C305.87 384.667 306.47 384.06 307.23 383.62C308.003 383.18 308.883 382.96 309.87 382.96C310.857 382.96 311.73 383.18 312.49 383.62C313.25 384.06 313.85 384.667 314.29 385.44C314.73 386.213 314.95 387.1 314.95 388.1C314.95 389.1 314.73 389.987 314.29 390.76C313.85 391.533 313.25 392.14 312.49 392.58C311.73 393.02 310.857 393.24 309.87 393.24C308.883 393.24 308.003 393.02 307.23 392.58C306.47 392.14 305.87 391.533 305.43 390.76C304.99 389.987 304.77 389.1 304.77 388.1ZM306.67 388.1C306.67 388.78 306.803 389.38 307.07 389.9C307.35 390.42 307.73 390.827 308.21 391.12C308.69 391.413 309.243 391.56 309.87 391.56C310.497 391.56 311.05 391.413 311.53 391.12C312.01 390.827 312.383 390.42 312.65 389.9C312.93 389.38 313.07 388.78 313.07 388.1C313.07 387.407 312.93 386.807 312.65 386.3C312.383 385.78 312.01 385.373 311.53 385.08C311.05 384.787 310.497 384.64 309.87 384.64C309.243 384.64 308.69 384.787 308.21 385.08C307.73 385.373 307.35 385.78 307.07 386.3C306.803 386.807 306.67 387.407 306.67 388.1ZM318.711 393H316.831V383.22H318.531L318.731 384.72C319.038 384.16 319.478 383.727 320.051 383.42C320.638 383.1 321.278 382.94 321.971 382.94C323.251 382.94 324.198 383.307 324.811 384.04C325.424 384.773 325.731 385.767 325.731 387.02V393H323.851V387.44C323.851 386.453 323.638 385.747 323.211 385.32C322.784 384.88 322.211 384.66 321.491 384.66C320.611 384.66 319.924 384.947 319.431 385.52C318.951 386.093 318.711 386.86 318.711 387.82V393ZM335.684 393H333.724V378.54H339.184C340.73 378.54 341.937 378.927 342.804 379.7C343.684 380.46 344.124 381.52 344.124 382.88C344.124 383.88 343.877 384.727 343.384 385.42C342.904 386.113 342.217 386.607 341.324 386.9L344.264 393H342.084L339.384 387.28H335.684V393ZM335.684 380.3V385.54H339.204C340.11 385.54 340.81 385.307 341.304 384.84C341.81 384.373 342.064 383.727 342.064 382.9C342.064 382.06 341.804 381.42 341.284 380.98C340.777 380.527 340.077 380.3 339.184 380.3H335.684ZM348.759 393.24C347.719 393.24 346.899 392.967 346.299 392.42C345.712 391.873 345.419 391.16 345.419 390.28C345.419 389.387 345.739 388.673 346.379 388.14C347.019 387.593 347.912 387.273 349.059 387.18L352.139 386.94V386.66C352.139 386.113 352.039 385.68 351.839 385.36C351.639 385.027 351.366 384.793 351.019 384.66C350.672 384.513 350.279 384.44 349.839 384.44C349.052 384.44 348.439 384.607 347.999 384.94C347.572 385.26 347.359 385.72 347.359 386.32H345.719C345.719 385.64 345.892 385.047 346.239 384.54C346.586 384.033 347.072 383.64 347.699 383.36C348.339 383.08 349.079 382.94 349.919 382.94C350.732 382.94 351.439 383.087 352.039 383.38C352.652 383.66 353.126 384.093 353.459 384.68C353.806 385.253 353.979 385.98 353.979 386.86V393H352.379L352.179 391.42C351.926 391.98 351.486 392.427 350.859 392.76C350.246 393.08 349.546 393.24 348.759 393.24ZM349.299 391.78C350.192 391.78 350.892 391.513 351.399 390.98C351.906 390.433 352.159 389.7 352.159 388.78V388.26L349.659 388.46C348.832 388.54 348.232 388.733 347.859 389.04C347.499 389.347 347.319 389.74 347.319 390.22C347.319 390.74 347.492 391.133 347.839 391.4C348.199 391.653 348.686 391.78 349.299 391.78ZM355.186 383.22H360.866V384.8H355.186V383.22ZM360.786 391.36L361.026 392.92C360.52 393.12 359.98 393.22 359.406 393.22C358.833 393.22 358.346 393.113 357.946 392.9C357.546 392.673 357.24 392.34 357.026 391.9C356.813 391.46 356.706 390.913 356.706 390.26V380.16H358.586V390C358.586 390.56 358.7 390.96 358.926 391.2C359.166 391.427 359.473 391.54 359.846 391.54C360.14 391.54 360.453 391.48 360.786 391.36ZM366.887 393.24C365.94 393.24 365.1 393.027 364.367 392.6C363.634 392.16 363.06 391.56 362.647 390.8C362.234 390.027 362.027 389.133 362.027 388.12C362.027 387.093 362.227 386.193 362.627 385.42C363.04 384.647 363.6 384.04 364.307 383.6C365.027 383.16 365.86 382.94 366.807 382.94C367.74 382.94 368.547 383.14 369.227 383.54C369.92 383.94 370.454 384.5 370.827 385.22C371.214 385.94 371.407 386.787 371.407 387.76V388.46L363.027 388.48L363.067 387.22H369.527C369.527 386.407 369.28 385.753 368.787 385.26C368.294 384.767 367.634 384.52 366.807 384.52C366.18 384.52 365.64 384.66 365.187 384.94C364.747 385.207 364.407 385.607 364.167 386.14C363.94 386.66 363.827 387.287 363.827 388.02C363.827 389.193 364.094 390.1 364.627 390.74C365.16 391.367 365.927 391.68 366.927 391.68C367.66 391.68 368.26 391.533 368.727 391.24C369.194 390.947 369.507 390.52 369.667 389.96H371.427C371.187 391 370.674 391.807 369.887 392.38C369.1 392.953 368.1 393.24 366.887 393.24Z" fill="#0D0D0D"/>
<rect x="262.75" y="407" width="73" height="25" rx="8" fill="#D0E3D4"/>
<path d="M276.875 416.195V423.71H275.675V416.195H276.875ZM272.525 419.345H280.025V420.545H272.525V419.345ZM283.958 415.475H281.678V414.155H285.368V425H283.958V415.475ZM288.611 425.18C288.321 425.18 288.066 425.08 287.846 424.88C287.636 424.67 287.531 424.42 287.531 424.13C287.531 423.83 287.636 423.58 287.846 423.38C288.066 423.17 288.321 423.065 288.611 423.065C288.901 423.065 289.151 423.17 289.361 423.38C289.571 423.58 289.676 423.83 289.676 424.13C289.676 424.42 289.571 424.67 289.361 424.88C289.151 425.08 288.901 425.18 288.611 425.18ZM292.201 415.475H289.921V414.155H293.611V425H292.201V415.475ZM299.106 425.18C298.366 425.18 297.721 425.035 297.171 424.745C296.631 424.445 296.206 424.03 295.896 423.5C295.596 422.96 295.446 422.33 295.446 421.61H296.901C296.901 422.31 297.101 422.86 297.501 423.26C297.901 423.66 298.446 423.86 299.136 423.86C299.626 423.86 300.051 423.76 300.411 423.56C300.771 423.35 301.051 423.065 301.251 422.705C301.451 422.335 301.551 421.905 301.551 421.415C301.551 420.945 301.456 420.53 301.266 420.17C301.076 419.8 300.801 419.51 300.441 419.3C300.091 419.09 299.661 418.985 299.151 418.985C298.701 418.985 298.276 419.085 297.876 419.285C297.476 419.475 297.151 419.725 296.901 420.035L295.656 419.72L296.976 414.155H302.406V415.505H297.516L298.191 414.905L297.186 418.94L296.691 419.045C296.971 418.615 297.351 418.29 297.831 418.07C298.311 417.84 298.841 417.725 299.421 417.725C300.161 417.725 300.801 417.885 301.341 418.205C301.881 418.515 302.301 418.945 302.601 419.495C302.901 420.045 303.051 420.665 303.051 421.355C303.051 422.105 302.881 422.77 302.541 423.35C302.211 423.92 301.751 424.37 301.161 424.7C300.581 425.02 299.896 425.18 299.106 425.18ZM305.284 425H303.664L306.229 421.37L303.679 417.665H305.314L307.174 420.395L308.989 417.665H310.594L308.044 421.37L310.549 425H308.914L307.084 422.315L305.284 425Z" fill="#009D24"/>
<path d="M319 424.167V424.917H320.5V424.167H319ZM320.5 414.834C320.5 414.419 320.164 414.084 319.75 414.084C319.336 414.084 319 414.419 319 414.834H320.5ZM319.75 424.167H320.5V414.834H319.75H319V424.167H319.75Z" fill="#009D24"/>
<path d="M323.22 419.363L323.75 419.894L324.811 418.833L324.28 418.303L323.22 419.363ZM320.28 414.303C319.987 414.01 319.513 414.01 319.22 414.303C318.927 414.596 318.927 415.07 319.22 415.363L320.28 414.303ZM323.75 418.833L324.28 418.303L320.28 414.303L319.75 414.833L319.22 415.363L323.22 419.363L323.75 418.833Z" fill="#009D24"/>
<path d="M315.22 418.303L314.689 418.833L315.75 419.894L316.28 419.363L315.22 418.303ZM320.28 415.363C320.573 415.07 320.573 414.596 320.28 414.303C319.987 414.01 319.513 414.01 319.22 414.303L320.28 415.363ZM315.75 418.833L316.28 419.363L320.28 415.363L319.75 414.833L319.22 414.303L315.22 418.303L315.75 418.833Z" fill="#009D24"/>
<rect x="638.5" y="91" width="1" height="268" rx="0.5" fill="#D1D1D1"/>
<rect x="679.5" y="122" width="186.167" height="233" rx="12" fill="#D1D1D1"/>
<path d="M740.808 301.736H757.288V305.064H740.808V301.736ZM754.472 303.208L757.288 305.064L748.68 325H744.936L754.472 303.208ZM765.532 325.384C763.932 325.384 762.524 325.064 761.308 324.424C760.113 323.784 759.185 322.888 758.524 321.736C757.884 320.563 757.564 319.197 757.564 317.64H761.116C761.116 319.048 761.511 320.157 762.3 320.968C763.111 321.757 764.209 322.152 765.596 322.152C766.577 322.152 767.42 321.949 768.124 321.544C768.849 321.139 769.415 320.573 769.82 319.848C770.225 319.101 770.428 318.227 770.428 317.224C770.428 316.264 770.236 315.421 769.852 314.696C769.468 313.971 768.924 313.405 768.22 313C767.516 312.573 766.652 312.36 765.628 312.36C764.711 312.36 763.847 312.563 763.036 312.968C762.225 313.373 761.585 313.896 761.116 314.536L757.98 313.8L760.828 301.736H772.7V305.064H762.364L763.772 303.784L761.756 311.816L760.54 312.2C761.095 311.261 761.884 310.547 762.908 310.056C763.932 309.544 765.084 309.288 766.364 309.288C767.921 309.288 769.276 309.619 770.428 310.28C771.601 310.941 772.508 311.859 773.148 313.032C773.788 314.205 774.108 315.549 774.108 317.064C774.108 318.707 773.745 320.157 773.02 321.416C772.295 322.653 771.292 323.624 770.012 324.328C768.732 325.032 767.239 325.384 765.532 325.384ZM787.378 307.304C787.378 308.477 787.122 309.523 786.61 310.44C786.098 311.357 785.394 312.072 784.498 312.584C783.602 313.096 782.578 313.352 781.426 313.352C780.274 313.352 779.24 313.096 778.322 312.584C777.426 312.072 776.722 311.357 776.21 310.44C775.698 309.523 775.442 308.477 775.442 307.304C775.442 306.131 775.698 305.096 776.21 304.2C776.722 303.283 777.426 302.568 778.322 302.056C779.24 301.544 780.274 301.288 781.426 301.288C782.578 301.288 783.602 301.544 784.498 302.056C785.394 302.568 786.098 303.283 786.61 304.2C787.122 305.096 787.378 306.131 787.378 307.304ZM784.594 307.304C784.594 306.323 784.296 305.533 783.698 304.936C783.122 304.317 782.365 304.008 781.426 304.008C780.488 304.008 779.72 304.317 779.122 304.936C778.525 305.533 778.226 306.323 778.226 307.304C778.226 308.285 778.525 309.085 779.122 309.704C779.72 310.323 780.488 310.632 781.426 310.632C782.365 310.632 783.122 310.323 783.698 309.704C784.296 309.085 784.594 308.285 784.594 307.304ZM799.89 301.768L782.226 325H778.77L796.402 301.768H799.89ZM803.282 319.4C803.282 320.573 803.026 321.619 802.514 322.536C802.002 323.432 801.298 324.136 800.402 324.648C799.506 325.16 798.472 325.416 797.298 325.416C796.146 325.416 795.112 325.16 794.194 324.648C793.298 324.136 792.594 323.432 792.082 322.536C791.57 321.619 791.314 320.573 791.314 319.4C791.314 318.227 791.57 317.192 792.082 316.296C792.594 315.379 793.298 314.664 794.194 314.152C795.112 313.64 796.146 313.384 797.298 313.384C798.472 313.384 799.506 313.64 800.402 314.152C801.298 314.664 802.002 315.379 802.514 316.296C803.026 317.192 803.282 318.227 803.282 319.4ZM800.466 319.4C800.466 318.419 800.168 317.619 799.57 317C798.994 316.381 798.237 316.072 797.298 316.072C796.36 316.072 795.592 316.381 794.994 317C794.418 317.619 794.13 318.419 794.13 319.4C794.13 320.36 794.418 321.16 794.994 321.8C795.592 322.419 796.36 322.728 797.298 322.728C798.237 322.728 798.994 322.419 799.57 321.8C800.168 321.16 800.466 320.36 800.466 319.4Z" fill="#0D0D0D"/>
<rect x="885.666" y="100" width="186.167" height="255" rx="12" fill="#AEAEAE"/>
<path d="M946.658 318.472C946.658 316.893 947.138 315.528 948.098 314.376C949.058 313.224 950.327 312.499 951.906 312.2L951.938 312.936C950.53 312.552 949.431 311.891 948.642 310.952C947.874 309.992 947.49 308.84 947.49 307.496C947.49 306.259 947.821 305.181 948.482 304.264C949.165 303.347 950.093 302.632 951.266 302.12C952.461 301.587 953.847 301.32 955.426 301.32C956.983 301.32 958.349 301.576 959.522 302.088C960.695 302.6 961.602 303.325 962.242 304.264C962.903 305.203 963.234 306.301 963.234 307.56C963.234 308.904 962.85 310.045 962.082 310.984C961.314 311.923 960.226 312.563 958.818 312.904L958.786 312.232C959.853 312.403 960.781 312.776 961.57 313.352C962.381 313.928 962.999 314.653 963.426 315.528C963.874 316.403 964.098 317.384 964.098 318.472C964.098 319.859 963.735 321.075 963.01 322.12C962.285 323.144 961.271 323.944 959.97 324.52C958.669 325.096 957.143 325.384 955.394 325.384C953.623 325.384 952.087 325.107 950.786 324.552C949.485 323.976 948.471 323.165 947.746 322.12C947.021 321.075 946.658 319.859 946.658 318.472ZM950.21 318.216C950.21 319.027 950.423 319.731 950.85 320.328C951.277 320.904 951.874 321.363 952.642 321.704C953.431 322.024 954.349 322.184 955.394 322.184C956.439 322.184 957.346 322.024 958.114 321.704C958.882 321.363 959.479 320.904 959.906 320.328C960.333 319.731 960.546 319.027 960.546 318.216C960.546 317.021 960.077 316.072 959.138 315.368C958.199 314.643 956.941 314.28 955.362 314.28C953.783 314.28 952.525 314.643 951.586 315.368C950.669 316.072 950.21 317.021 950.21 318.216ZM950.818 307.784C950.818 308.829 951.223 309.672 952.034 310.312C952.866 310.931 953.975 311.24 955.362 311.24C956.749 311.24 957.847 310.931 958.658 310.312C959.469 309.693 959.874 308.861 959.874 307.816C959.874 306.771 959.469 305.949 958.658 305.352C957.847 304.733 956.749 304.424 955.362 304.424C953.975 304.424 952.866 304.733 952.034 305.352C951.223 305.949 950.818 306.76 950.818 307.784ZM981.416 324.968L965.512 325V322.248L973.064 315.816C973.939 315.091 974.664 314.429 975.24 313.832C975.816 313.235 976.275 312.68 976.616 312.168C976.957 311.656 977.203 311.144 977.352 310.632C977.501 310.099 977.576 309.544 977.576 308.968C977.576 307.581 977.203 306.504 976.456 305.736C975.731 304.947 974.717 304.552 973.416 304.552C972.051 304.552 970.963 305.011 970.152 305.928C969.363 306.824 968.947 308.061 968.904 309.64H965.32C965.341 307.955 965.693 306.493 966.376 305.256C967.059 303.997 967.997 303.027 969.192 302.344C970.408 301.661 971.816 301.32 973.416 301.32C975.037 301.32 976.424 301.619 977.576 302.216C978.749 302.813 979.656 303.667 980.296 304.776C980.936 305.885 981.256 307.208 981.256 308.744C981.256 309.555 981.149 310.333 980.936 311.08C980.723 311.805 980.392 312.52 979.944 313.224C979.496 313.928 978.92 314.653 978.216 315.4C977.533 316.125 976.701 316.904 975.72 317.736L969.864 322.76L968.616 321.608H981.416V324.968ZM994.857 307.304C994.857 308.477 994.601 309.523 994.089 310.44C993.577 311.357 992.873 312.072 991.977 312.584C991.081 313.096 990.057 313.352 988.905 313.352C987.753 313.352 986.718 313.096 985.801 312.584C984.905 312.072 984.201 311.357 983.689 310.44C983.177 309.523 982.921 308.477 982.921 307.304C982.921 306.131 983.177 305.096 983.689 304.2C984.201 303.283 984.905 302.568 985.801 302.056C986.718 301.544 987.753 301.288 988.905 301.288C990.057 301.288 991.081 301.544 991.977 302.056C992.873 302.568 993.577 303.283 994.089 304.2C994.601 305.096 994.857 306.131 994.857 307.304ZM992.073 307.304C992.073 306.323 991.774 305.533 991.177 304.936C990.601 304.317 989.844 304.008 988.905 304.008C987.966 304.008 987.198 304.317 986.601 304.936C986.004 305.533 985.705 306.323 985.705 307.304C985.705 308.285 986.004 309.085 986.601 309.704C987.198 310.323 987.966 310.632 988.905 310.632C989.844 310.632 990.601 310.323 991.177 309.704C991.774 309.085 992.073 308.285 992.073 307.304ZM1007.37 301.768L989.705 325H986.249L1003.88 301.768H1007.37ZM1010.76 319.4C1010.76 320.573 1010.51 321.619 1009.99 322.536C1009.48 323.432 1008.78 324.136 1007.88 324.648C1006.99 325.16 1005.95 325.416 1004.78 325.416C1003.63 325.416 1002.59 325.16 1001.67 324.648C1000.78 324.136 1000.07 323.432 999.561 322.536C999.049 321.619 998.793 320.573 998.793 319.4C998.793 318.227 999.049 317.192 999.561 316.296C1000.07 315.379 1000.78 314.664 1001.67 314.152C1002.59 313.64 1003.63 313.384 1004.78 313.384C1005.95 313.384 1006.99 313.64 1007.88 314.152C1008.78 314.664 1009.48 315.379 1009.99 316.296C1010.51 317.192 1010.76 318.227 1010.76 319.4ZM1007.95 319.4C1007.95 318.419 1007.65 317.619 1007.05 317C1006.47 316.381 1005.72 316.072 1004.78 316.072C1003.84 316.072 1003.07 316.381 1002.47 317C1001.9 317.619 1001.61 318.419 1001.61 319.4C1001.61 320.36 1001.9 321.16 1002.47 321.8C1003.07 322.419 1003.84 322.728 1004.78 322.728C1005.72 322.728 1006.47 322.419 1007.05 321.8C1007.65 321.16 1007.95 320.36 1007.95 319.4Z" fill="#0D0D0D"/>
<rect x="1091.83" y="91" width="186.167" height="264" rx="12" fill="#D1D1D1"/>
<path d="M1152.33 318.472C1152.33 316.893 1152.81 315.528 1153.77 314.376C1154.73 313.224 1156 312.499 1157.57 312.2L1157.61 312.936C1156.2 312.552 1155.1 311.891 1154.31 310.952C1153.54 309.992 1153.16 308.84 1153.16 307.496C1153.16 306.259 1153.49 305.181 1154.15 304.264C1154.83 303.347 1155.76 302.632 1156.93 302.12C1158.13 301.587 1159.52 301.32 1161.09 301.32C1162.65 301.32 1164.02 301.576 1165.19 302.088C1166.36 302.6 1167.27 303.325 1167.91 304.264C1168.57 305.203 1168.9 306.301 1168.9 307.56C1168.9 308.904 1168.52 310.045 1167.75 310.984C1166.98 311.923 1165.89 312.563 1164.49 312.904L1164.45 312.232C1165.52 312.403 1166.45 312.776 1167.24 313.352C1168.05 313.928 1168.67 314.653 1169.09 315.528C1169.54 316.403 1169.77 317.384 1169.77 318.472C1169.77 319.859 1169.4 321.075 1168.68 322.12C1167.95 323.144 1166.94 323.944 1165.64 324.52C1164.34 325.096 1162.81 325.384 1161.06 325.384C1159.29 325.384 1157.76 325.107 1156.45 324.552C1155.15 323.976 1154.14 323.165 1153.41 322.12C1152.69 321.075 1152.33 319.859 1152.33 318.472ZM1155.88 318.216C1155.88 319.027 1156.09 319.731 1156.52 320.328C1156.94 320.904 1157.54 321.363 1158.31 321.704C1159.1 322.024 1160.02 322.184 1161.06 322.184C1162.11 322.184 1163.01 322.024 1163.78 321.704C1164.55 321.363 1165.15 320.904 1165.57 320.328C1166 319.731 1166.21 319.027 1166.21 318.216C1166.21 317.021 1165.74 316.072 1164.81 315.368C1163.87 314.643 1162.61 314.28 1161.03 314.28C1159.45 314.28 1158.19 314.643 1157.25 315.368C1156.34 316.072 1155.88 317.021 1155.88 318.216ZM1156.49 307.784C1156.49 308.829 1156.89 309.672 1157.7 310.312C1158.53 310.931 1159.64 311.24 1161.03 311.24C1162.42 311.24 1163.52 310.931 1164.33 310.312C1165.14 309.693 1165.54 308.861 1165.54 307.816C1165.54 306.771 1165.14 305.949 1164.33 305.352C1163.52 304.733 1162.42 304.424 1161.03 304.424C1159.64 304.424 1158.53 304.733 1157.7 305.352C1156.89 305.949 1156.49 306.76 1156.49 307.784ZM1179.52 325.384C1177.92 325.384 1176.51 325.064 1175.3 324.424C1174.1 323.784 1173.18 322.888 1172.51 321.736C1171.87 320.563 1171.55 319.197 1171.55 317.64H1175.11C1175.11 319.048 1175.5 320.157 1176.29 320.968C1177.1 321.757 1178.2 322.152 1179.59 322.152C1180.57 322.152 1181.41 321.949 1182.11 321.544C1182.84 321.139 1183.4 320.573 1183.81 319.848C1184.22 319.101 1184.42 318.227 1184.42 317.224C1184.42 316.264 1184.23 315.421 1183.84 314.696C1183.46 313.971 1182.91 313.405 1182.21 313C1181.51 312.573 1180.64 312.36 1179.62 312.36C1178.7 312.36 1177.84 312.563 1177.03 312.968C1176.22 313.373 1175.58 313.896 1175.11 314.536L1171.97 313.8L1174.82 301.736H1186.69V305.064H1176.35L1177.76 303.784L1175.75 311.816L1174.53 312.2C1175.08 311.261 1175.87 310.547 1176.9 310.056C1177.92 309.544 1179.07 309.288 1180.35 309.288C1181.91 309.288 1183.27 309.619 1184.42 310.28C1185.59 310.941 1186.5 311.859 1187.14 313.032C1187.78 314.205 1188.1 315.549 1188.1 317.064C1188.1 318.707 1187.74 320.157 1187.01 321.416C1186.28 322.653 1185.28 323.624 1184 324.328C1182.72 325.032 1181.23 325.384 1179.52 325.384ZM1201.37 307.304C1201.37 308.477 1201.11 309.523 1200.6 310.44C1200.09 311.357 1199.38 312.072 1198.49 312.584C1197.59 313.096 1196.57 313.352 1195.42 313.352C1194.26 313.352 1193.23 313.096 1192.31 312.584C1191.42 312.072 1190.71 311.357 1190.2 310.44C1189.69 309.523 1189.43 308.477 1189.43 307.304C1189.43 306.131 1189.69 305.096 1190.2 304.2C1190.71 303.283 1191.42 302.568 1192.31 302.056C1193.23 301.544 1194.26 301.288 1195.42 301.288C1196.57 301.288 1197.59 301.544 1198.49 302.056C1199.38 302.568 1200.09 303.283 1200.6 304.2C1201.11 305.096 1201.37 306.131 1201.37 307.304ZM1198.58 307.304C1198.58 306.323 1198.29 305.533 1197.69 304.936C1197.11 304.317 1196.36 304.008 1195.42 304.008C1194.48 304.008 1193.71 304.317 1193.11 304.936C1192.52 305.533 1192.22 306.323 1192.22 307.304C1192.22 308.285 1192.52 309.085 1193.11 309.704C1193.71 310.323 1194.48 310.632 1195.42 310.632C1196.36 310.632 1197.11 310.323 1197.69 309.704C1198.29 309.085 1198.58 308.285 1198.58 307.304ZM1213.88 301.768L1196.22 325H1192.76L1210.39 301.768H1213.88ZM1217.27 319.4C1217.27 320.573 1217.02 321.619 1216.5 322.536C1215.99 323.432 1215.29 324.136 1214.39 324.648C1213.5 325.16 1212.46 325.416 1211.29 325.416C1210.14 325.416 1209.1 325.16 1208.18 324.648C1207.29 324.136 1206.58 323.432 1206.07 322.536C1205.56 321.619 1205.3 320.573 1205.3 319.4C1205.3 318.227 1205.56 317.192 1206.07 316.296C1206.58 315.379 1207.29 314.664 1208.18 314.152C1209.1 313.64 1210.14 313.384 1211.29 313.384C1212.46 313.384 1213.5 313.64 1214.39 314.152C1215.29 314.664 1215.99 315.379 1216.5 316.296C1217.02 317.192 1217.27 318.227 1217.27 319.4ZM1214.46 319.4C1214.46 318.419 1214.16 317.619 1213.56 317C1212.98 316.381 1212.23 316.072 1211.29 316.072C1210.35 316.072 1209.58 316.381 1208.98 317C1208.41 317.619 1208.12 318.419 1208.12 319.4C1208.12 320.36 1208.41 321.16 1208.98 321.8C1209.58 322.419 1210.35 322.728 1211.29 322.728C1212.23 322.728 1212.98 322.419 1213.56 321.8C1214.16 321.16 1214.46 320.36 1214.46 319.4Z" fill="#0D0D0D"/>
<path d="M917.313 393H915.353V378.54H920.813C922.36 378.54 923.566 378.927 924.433 379.7C925.313 380.46 925.753 381.52 925.753 382.88C925.753 383.88 925.506 384.727 925.013 385.42C924.533 386.113 923.846 386.607 922.953 386.9L925.893 393H923.713L921.013 387.28H917.313V393ZM917.313 380.3V385.54H920.833C921.74 385.54 922.44 385.307 922.933 384.84C923.44 384.373 923.693 383.727 923.693 382.9C923.693 382.06 923.433 381.42 922.913 380.98C922.406 380.527 921.706 380.3 920.813 380.3H917.313ZM931.436 393.24C930.489 393.24 929.649 393.027 928.916 392.6C928.183 392.16 927.609 391.56 927.196 390.8C926.783 390.027 926.576 389.133 926.576 388.12C926.576 387.093 926.776 386.193 927.176 385.42C927.589 384.647 928.149 384.04 928.856 383.6C929.576 383.16 930.409 382.94 931.356 382.94C932.289 382.94 933.096 383.14 933.776 383.54C934.469 383.94 935.003 384.5 935.376 385.22C935.763 385.94 935.956 386.787 935.956 387.76V388.46L927.576 388.48L927.616 387.22H934.076C934.076 386.407 933.829 385.753 933.336 385.26C932.843 384.767 932.183 384.52 931.356 384.52C930.729 384.52 930.189 384.66 929.736 384.94C929.296 385.207 928.956 385.607 928.716 386.14C928.489 386.66 928.376 387.287 928.376 388.02C928.376 389.193 928.643 390.1 929.176 390.74C929.709 391.367 930.476 391.68 931.476 391.68C932.209 391.68 932.809 391.533 933.276 391.24C933.743 390.947 934.056 390.52 934.216 389.96H935.976C935.736 391 935.223 391.807 934.436 392.38C933.649 392.953 932.649 393.24 931.436 393.24ZM936.718 383.22H942.398V384.8H936.718V383.22ZM942.318 391.36L942.558 392.92C942.051 393.12 941.511 393.22 940.938 393.22C940.365 393.22 939.878 393.113 939.478 392.9C939.078 392.673 938.771 392.34 938.558 391.9C938.345 391.46 938.238 390.913 938.238 390.26V380.16H940.118V390C940.118 390.56 940.231 390.96 940.458 391.2C940.698 391.427 941.005 391.54 941.378 391.54C941.671 391.54 941.985 391.48 942.318 391.36ZM948.419 393.24C947.472 393.24 946.632 393.027 945.899 392.6C945.165 392.16 944.592 391.56 944.179 390.8C943.765 390.027 943.559 389.133 943.559 388.12C943.559 387.093 943.759 386.193 944.159 385.42C944.572 384.647 945.132 384.04 945.839 383.6C946.559 383.16 947.392 382.94 948.339 382.94C949.272 382.94 950.079 383.14 950.759 383.54C951.452 383.94 951.985 384.5 952.359 385.22C952.745 385.94 952.939 386.787 952.939 387.76V388.46L944.559 388.48L944.599 387.22H951.059C951.059 386.407 950.812 385.753 950.319 385.26C949.825 384.767 949.165 384.52 948.339 384.52C947.712 384.52 947.172 384.66 946.719 384.94C946.279 385.207 945.939 385.607 945.699 386.14C945.472 386.66 945.359 387.287 945.359 388.02C945.359 389.193 945.625 390.1 946.159 390.74C946.692 391.367 947.459 391.68 948.459 391.68C949.192 391.68 949.792 391.533 950.259 391.24C950.725 390.947 951.039 390.52 951.199 389.96H952.959C952.719 391 952.205 391.807 951.419 392.38C950.632 392.953 949.632 393.24 948.419 393.24ZM956.719 393H954.839V383.22H956.539L956.739 384.72C957.045 384.16 957.485 383.727 958.059 383.42C958.645 383.1 959.285 382.94 959.979 382.94C961.259 382.94 962.205 383.307 962.819 384.04C963.432 384.773 963.739 385.767 963.739 387.02V393H961.859V387.44C961.859 386.453 961.645 385.747 961.219 385.32C960.792 384.88 960.219 384.66 959.499 384.66C958.619 384.66 957.932 384.947 957.439 385.52C956.959 386.093 956.719 386.86 956.719 387.82V393ZM965.102 383.22H970.782V384.8H965.102V383.22ZM970.702 391.36L970.942 392.92C970.436 393.12 969.896 393.22 969.322 393.22C968.749 393.22 968.262 393.113 967.862 392.9C967.462 392.673 967.156 392.34 966.942 391.9C966.729 391.46 966.622 390.913 966.622 390.26V380.16H968.502V390C968.502 390.56 968.616 390.96 968.842 391.2C969.082 391.427 969.389 391.54 969.762 391.54C970.056 391.54 970.369 391.48 970.702 391.36ZM972.681 393V383.22H974.561V393H972.681ZM973.601 380.9C973.267 380.9 972.974 380.78 972.721 380.54C972.481 380.287 972.361 379.993 972.361 379.66C972.361 379.313 972.481 379.02 972.721 378.78C972.974 378.54 973.267 378.42 973.601 378.42C973.947 378.42 974.241 378.54 974.481 378.78C974.721 379.02 974.841 379.313 974.841 379.66C974.841 379.993 974.721 380.287 974.481 380.54C974.241 380.78 973.947 380.9 973.601 380.9ZM976.45 388.1C976.45 387.1 976.67 386.213 977.11 385.44C977.55 384.667 978.15 384.06 978.91 383.62C979.683 383.18 980.563 382.96 981.55 382.96C982.537 382.96 983.41 383.18 984.17 383.62C984.93 384.06 985.53 384.667 985.97 385.44C986.41 386.213 986.63 387.1 986.63 388.1C986.63 389.1 986.41 389.987 985.97 390.76C985.53 391.533 984.93 392.14 984.17 392.58C983.41 393.02 982.537 393.24 981.55 393.24C980.563 393.24 979.683 393.02 978.91 392.58C978.15 392.14 977.55 391.533 977.11 390.76C976.67 389.987 976.45 389.1 976.45 388.1ZM978.35 388.1C978.35 388.78 978.483 389.38 978.75 389.9C979.03 390.42 979.41 390.827 979.89 391.12C980.37 391.413 980.923 391.56 981.55 391.56C982.177 391.56 982.73 391.413 983.21 391.12C983.69 390.827 984.063 390.42 984.33 389.9C984.61 389.38 984.75 388.78 984.75 388.1C984.75 387.407 984.61 386.807 984.33 386.3C984.063 385.78 983.69 385.373 983.21 385.08C982.73 384.787 982.177 384.64 981.55 384.64C980.923 384.64 980.37 384.787 979.89 385.08C979.41 385.373 979.03 385.78 978.75 386.3C978.483 386.807 978.35 387.407 978.35 388.1ZM990.391 393H988.511V383.22H990.211L990.411 384.72C990.718 384.16 991.158 383.727 991.731 383.42C992.318 383.1 992.958 382.94 993.651 382.94C994.931 382.94 995.878 383.307 996.491 384.04C997.105 384.773 997.411 385.767 997.411 387.02V393H995.531V387.44C995.531 386.453 995.318 385.747 994.891 385.32C994.465 384.88 993.891 384.66 993.171 384.66C992.291 384.66 991.605 384.947 991.111 385.52C990.631 386.093 990.391 386.86 990.391 387.82V393ZM1007.36 393H1005.4V378.54H1010.86C1012.41 378.54 1013.62 378.927 1014.48 379.7C1015.36 380.46 1015.8 381.52 1015.8 382.88C1015.8 383.88 1015.56 384.727 1015.06 385.42C1014.58 386.113 1013.9 386.607 1013 386.9L1015.94 393H1013.76L1011.06 387.28H1007.36V393ZM1007.36 380.3V385.54H1010.88C1011.79 385.54 1012.49 385.307 1012.98 384.84C1013.49 384.373 1013.74 383.727 1013.74 382.9C1013.74 382.06 1013.48 381.42 1012.96 380.98C1012.46 380.527 1011.76 380.3 1010.86 380.3H1007.36ZM1020.44 393.24C1019.4 393.24 1018.58 392.967 1017.98 392.42C1017.39 391.873 1017.1 391.16 1017.1 390.28C1017.1 389.387 1017.42 388.673 1018.06 388.14C1018.7 387.593 1019.59 387.273 1020.74 387.18L1023.82 386.94V386.66C1023.82 386.113 1023.72 385.68 1023.52 385.36C1023.32 385.027 1023.05 384.793 1022.7 384.66C1022.35 384.513 1021.96 384.44 1021.52 384.44C1020.73 384.44 1020.12 384.607 1019.68 384.94C1019.25 385.26 1019.04 385.72 1019.04 386.32H1017.4C1017.4 385.64 1017.57 385.047 1017.92 384.54C1018.27 384.033 1018.75 383.64 1019.38 383.36C1020.02 383.08 1020.76 382.94 1021.6 382.94C1022.41 382.94 1023.12 383.087 1023.72 383.38C1024.33 383.66 1024.81 384.093 1025.14 384.68C1025.49 385.253 1025.66 385.98 1025.66 386.86V393H1024.06L1023.86 391.42C1023.61 391.98 1023.17 392.427 1022.54 392.76C1021.93 393.08 1021.23 393.24 1020.44 393.24ZM1020.98 391.78C1021.87 391.78 1022.57 391.513 1023.08 390.98C1023.59 390.433 1023.84 389.7 1023.84 388.78V388.26L1021.34 388.46C1020.51 388.54 1019.91 388.733 1019.54 389.04C1019.18 389.347 1019 389.74 1019 390.22C1019 390.74 1019.17 391.133 1019.52 391.4C1019.88 391.653 1020.37 391.78 1020.98 391.78ZM1026.87 383.22H1032.55V384.8H1026.87V383.22ZM1032.47 391.36L1032.71 392.92C1032.2 393.12 1031.66 393.22 1031.09 393.22C1030.51 393.22 1030.03 393.113 1029.63 392.9C1029.23 392.673 1028.92 392.34 1028.71 391.9C1028.49 391.46 1028.39 390.913 1028.39 390.26V380.16H1030.27V390C1030.27 390.56 1030.38 390.96 1030.61 391.2C1030.85 391.427 1031.15 391.54 1031.53 391.54C1031.82 391.54 1032.13 391.48 1032.47 391.36ZM1038.57 393.24C1037.62 393.24 1036.78 393.027 1036.05 392.6C1035.31 392.16 1034.74 391.56 1034.33 390.8C1033.91 390.027 1033.71 389.133 1033.71 388.12C1033.71 387.093 1033.91 386.193 1034.31 385.42C1034.72 384.647 1035.28 384.04 1035.99 383.6C1036.71 383.16 1037.54 382.94 1038.49 382.94C1039.42 382.94 1040.23 383.14 1040.91 383.54C1041.6 383.94 1042.13 384.5 1042.51 385.22C1042.89 385.94 1043.09 386.787 1043.09 387.76V388.46L1034.71 388.48L1034.75 387.22H1041.21C1041.21 386.407 1040.96 385.753 1040.47 385.26C1039.97 384.767 1039.31 384.52 1038.49 384.52C1037.86 384.52 1037.32 384.66 1036.87 384.94C1036.43 385.207 1036.09 385.607 1035.85 386.14C1035.62 386.66 1035.51 387.287 1035.51 388.02C1035.51 389.193 1035.77 390.1 1036.31 390.74C1036.84 391.367 1037.61 391.68 1038.61 391.68C1039.34 391.68 1039.94 391.533 1040.41 391.24C1040.87 390.947 1041.19 390.52 1041.35 389.96H1043.11C1042.87 391 1042.35 391.807 1041.57 392.38C1040.78 392.953 1039.78 393.24 1038.57 393.24Z" fill="#0D0D0D"/>
<rect x="939.75" y="407" width="78" height="25" rx="8" fill="#D0E3D4"/>
<path d="M954.29 416.195V423.71H953.09V416.195H954.29ZM949.94 419.345H957.44V420.545H949.94V419.345ZM961.373 415.475H959.093V414.155H962.783V425H961.373V415.475ZM966.026 425.18C965.736 425.18 965.481 425.08 965.261 424.88C965.051 424.67 964.946 424.42 964.946 424.13C964.946 423.83 965.051 423.58 965.261 423.38C965.481 423.17 965.736 423.065 966.026 423.065C966.316 423.065 966.566 423.17 966.776 423.38C966.986 423.58 967.091 423.83 967.091 424.13C967.091 424.42 966.986 424.67 966.776 424.88C966.566 425.08 966.316 425.18 966.026 425.18ZM968.571 421.985C968.571 421.245 968.796 420.61 969.246 420.08C969.696 419.54 970.296 419.2 971.046 419.06L971.061 419.375C970.391 419.195 969.871 418.885 969.501 418.445C969.141 417.995 968.961 417.45 968.961 416.81C968.961 416.24 969.111 415.745 969.411 415.325C969.711 414.895 970.131 414.56 970.671 414.32C971.221 414.08 971.856 413.96 972.576 413.96C973.286 413.96 973.906 414.08 974.436 414.32C974.976 414.56 975.396 414.895 975.696 415.325C975.996 415.755 976.146 416.255 976.146 416.825C976.146 417.465 975.961 418.01 975.591 418.46C975.231 418.9 974.716 419.2 974.046 419.36L974.031 419.075C974.531 419.145 974.971 419.32 975.351 419.6C975.731 419.87 976.026 420.21 976.236 420.62C976.446 421.03 976.551 421.49 976.551 422C976.551 422.63 976.381 423.185 976.041 423.665C975.711 424.145 975.246 424.52 974.646 424.79C974.056 425.05 973.361 425.18 972.561 425.18C971.761 425.18 971.061 425.05 970.461 424.79C969.861 424.52 969.396 424.145 969.066 423.665C968.736 423.185 968.571 422.625 968.571 421.985ZM970.011 421.88C970.011 422.28 970.116 422.63 970.326 422.93C970.536 423.23 970.831 423.465 971.211 423.635C971.601 423.795 972.051 423.875 972.561 423.875C973.071 423.875 973.516 423.795 973.896 423.635C974.276 423.465 974.571 423.23 974.781 422.93C974.991 422.63 975.096 422.28 975.096 421.88C975.096 421.28 974.866 420.805 974.406 420.455C973.946 420.095 973.326 419.915 972.546 419.915C971.776 419.915 971.161 420.095 970.701 420.455C970.241 420.805 970.011 421.28 970.011 421.88ZM970.311 416.9C970.311 417.43 970.511 417.855 970.911 418.175C971.321 418.495 971.866 418.655 972.546 418.655C973.226 418.655 973.766 418.5 974.166 418.19C974.566 417.87 974.766 417.45 974.766 416.93C974.766 416.41 974.566 416 974.166 415.7C973.766 415.39 973.226 415.235 972.546 415.235C971.866 415.235 971.321 415.39 970.911 415.7C970.511 416 970.311 416.4 970.311 416.9ZM984.971 424.985L977.651 425V423.875L981.146 420.86C981.586 420.49 981.951 420.155 982.241 419.855C982.531 419.555 982.761 419.28 982.931 419.03C983.101 418.77 983.221 418.515 983.291 418.265C983.361 418.015 983.396 417.745 983.396 417.455C983.396 416.775 983.211 416.245 982.841 415.865C982.481 415.475 981.971 415.28 981.311 415.28C980.641 415.28 980.101 415.51 979.691 415.97C979.291 416.42 979.086 417.03 979.076 417.8H977.606C977.626 417.03 977.791 416.355 978.101 415.775C978.411 415.195 978.841 414.75 979.391 414.44C979.951 414.12 980.596 413.96 981.326 413.96C982.056 413.96 982.686 414.1 983.216 414.38C983.746 414.66 984.156 415.055 984.446 415.565C984.746 416.065 984.896 416.665 984.896 417.365C984.896 417.745 984.846 418.11 984.746 418.46C984.646 418.8 984.486 419.14 984.266 419.48C984.056 419.81 983.781 420.155 983.441 420.515C983.101 420.865 982.691 421.25 982.211 421.67L979.376 424.13L978.881 423.62H984.971V424.985ZM987.284 425H985.664L988.229 421.37L985.679 417.665H987.314L989.174 420.395L990.989 417.665H992.594L990.044 421.37L992.549 425H990.914L989.084 422.315L987.284 425Z" fill="#009D24"/>
<path d="M1001 424.167V424.917H1002.5V424.167H1001ZM1002.5 414.834C1002.5 414.419 1002.16 414.084 1001.75 414.084C1001.34 414.084 1001 414.419 1001 414.834H1002.5ZM1001.75 424.167H1002.5V414.834H1001.75H1001V424.167H1001.75Z" fill="#009D24"/>
<path d="M1005.22 419.363L1005.75 419.894L1006.81 418.833L1006.28 418.303L1005.22 419.363ZM1002.28 414.303C1001.99 414.01 1001.51 414.01 1001.22 414.303C1000.93 414.596 1000.93 415.07 1001.22 415.363L1002.28 414.303ZM1005.75 418.833L1006.28 418.303L1002.28 414.303L1001.75 414.833L1001.22 415.363L1005.22 419.363L1005.75 418.833Z" fill="#009D24"/>
<path d="M997.22 418.303L996.689 418.833L997.75 419.894L998.28 419.363L997.22 418.303ZM1002.28 415.363C1002.57 415.07 1002.57 414.596 1002.28 414.303C1001.99 414.01 1001.51 414.01 1001.22 414.303L1002.28 415.363ZM997.75 418.833L998.28 419.363L1002.28 415.363L1001.75 414.833L1001.22 414.303L997.22 418.303L997.75 418.833Z" fill="#009D24"/>
</g>
<defs>
<clipPath id="clip0_6624_23507">
<rect width="1278" height="432" fill="white"/>
</clipPath>
</defs>
</svg>
