<svg width="1536" height="760" viewBox="0 0 1536 760" fill="none" xmlns="http://www.w3.org/2000/svg">
<g clip-path="url(#clip0_4856_54111)">
<path d="M643.294 187.336C639.142 187.336 636.646 185.248 636.622 181.864H639.094C639.118 183.904 640.702 185.2 643.294 185.2C645.598 185.2 647.062 184 647.062 182.176C647.062 180.712 646.126 179.824 644.206 179.56L641.998 179.248C638.782 178.816 637.174 177.232 637.174 174.712C637.174 171.76 639.55 169.864 643.174 169.864C646.942 169.864 649.246 171.688 649.318 174.616H646.846C646.774 172.984 645.382 171.976 643.174 171.976C641.062 171.976 639.67 172.984 639.67 174.568C639.67 175.936 640.654 176.704 642.718 176.992L644.806 177.28C647.926 177.712 649.558 179.32 649.558 182.032C649.558 185.248 647.182 187.336 643.294 187.336ZM656.588 187.336C653.78 187.336 652.052 185.608 652.052 182.416V175.456H654.38V182.2C654.38 184.264 655.34 185.224 657.02 185.224C658.772 185.224 659.9 183.976 659.9 182.128V175.456H662.228V187H660.164V185.68C659.396 186.808 658.076 187.336 656.588 187.336ZM671.648 187.336C669.848 187.336 668.384 186.616 667.64 185.344V187H665.576V170.2H667.904V176.848C668.648 175.744 669.992 175.12 671.648 175.12C674.936 175.12 677.192 177.568 677.192 181.216C677.192 184.888 674.936 187.336 671.648 187.336ZM667.856 181.216C667.856 183.616 669.224 185.224 671.312 185.224C673.4 185.224 674.792 183.616 674.792 181.216C674.792 178.84 673.4 177.232 671.312 177.232C669.224 177.232 667.856 178.84 667.856 181.216ZM683.922 187.336C680.802 187.336 678.954 186.088 678.834 183.712H681.234C681.354 184.864 682.29 185.44 683.97 185.44C685.506 185.44 686.442 184.792 686.442 183.736C686.442 182.872 685.794 182.368 684.594 182.248L682.746 182.056C680.586 181.84 679.218 180.64 679.218 178.72C679.218 176.512 681.066 175.12 683.898 175.12C686.778 175.12 688.554 176.32 688.698 178.672H686.37C686.298 177.568 685.386 177.016 683.874 177.016C682.434 177.016 681.522 177.616 681.522 178.6C681.522 179.44 682.146 179.896 683.49 180.064L685.362 180.28C687.546 180.52 688.794 181.744 688.794 183.64C688.794 185.896 686.898 187.336 683.922 187.336ZM696.289 187.336C692.833 187.336 690.601 184.768 690.601 181.264C690.601 177.664 692.953 175.12 696.433 175.12C699.361 175.12 701.353 176.824 701.617 179.248H699.241C699.025 178.168 698.065 177.232 696.409 177.232C694.345 177.232 693.001 178.792 693.001 181.216C693.001 183.688 694.369 185.224 696.361 185.224C697.921 185.224 699.049 184.312 699.289 182.968H701.665C701.353 185.272 699.433 187.336 696.289 187.336ZM703.809 187V175.456H705.873V177.328C706.161 176.176 707.025 175.456 708.393 175.456H710.601V177.496H708.177C706.737 177.496 706.137 178.312 706.137 179.872V187H703.809ZM712.335 187V175.456H714.663V187H712.335ZM712.191 173.128V170.368H714.783V173.128H712.191ZM718.165 191.32V175.456H720.229V177.088C720.973 175.84 722.437 175.12 724.237 175.12C727.525 175.12 729.781 177.568 729.781 181.216C729.781 184.888 727.525 187.336 724.237 187.336C722.581 187.336 721.237 186.712 720.493 185.584V191.32H718.165ZM720.445 181.216C720.445 183.616 721.813 185.224 723.901 185.224C725.989 185.224 727.381 183.616 727.381 181.216C727.381 178.84 725.989 177.232 723.901 177.232C721.813 177.232 720.445 178.84 720.445 181.216ZM736.469 187C734.477 187 733.613 186.208 733.613 184.216V177.496H730.589V175.456H733.613V172H735.941V175.456H739.565V177.496H735.941V183.76C735.941 184.6 736.277 184.96 737.165 184.96H739.565V187H736.469ZM741.802 187V175.456H744.13V187H741.802ZM741.658 173.128V170.368H744.25V173.128H741.658ZM752.722 187.336C749.218 187.336 746.77 184.888 746.77 181.216C746.77 177.568 749.218 175.12 752.722 175.12C756.25 175.12 758.674 177.568 758.674 181.216C758.674 184.888 756.25 187.336 752.722 187.336ZM749.17 181.216C749.17 183.616 750.61 185.224 752.722 185.224C754.858 185.224 756.274 183.616 756.274 181.216C756.274 178.84 754.858 177.232 752.722 177.232C750.61 177.232 749.17 178.84 749.17 181.216ZM761.338 187V175.456H763.402V176.968C764.098 175.72 765.49 175.12 767.05 175.12C769.882 175.12 771.658 176.848 771.658 180.04V187H769.33V180.256C769.33 178.192 768.322 177.232 766.618 177.232C764.842 177.232 763.666 178.456 763.666 180.328V187H761.338ZM781.091 187V170.2H788.147C791.195 170.2 793.115 171.808 793.115 174.352C793.115 176.008 792.203 177.424 790.835 178.096C792.491 178.696 793.595 180.16 793.595 182.152C793.595 185.008 791.699 187 788.459 187H781.091ZM783.491 184.792H788.123C790.043 184.792 791.147 183.736 791.147 181.96C791.147 180.184 790.091 179.2 788.123 179.2H783.491V184.792ZM783.491 177.136H787.811C789.635 177.136 790.667 176.248 790.667 174.736C790.667 173.2 789.611 172.408 787.811 172.408H783.491V177.136ZM801.703 187.336C798.247 187.336 795.943 184.912 795.943 181.168C795.943 177.448 798.247 175.12 801.535 175.12C804.967 175.12 807.079 177.352 807.079 180.88C807.079 181.192 807.055 181.504 807.007 181.984H798.247C798.343 184.096 799.639 185.368 801.703 185.368C803.071 185.368 804.031 184.744 804.487 183.712H806.863C806.143 185.944 804.367 187.336 801.703 187.336ZM798.247 180.16H804.727V180.04C804.727 178.264 803.575 176.992 801.535 176.992C799.591 176.992 798.343 178.288 798.247 180.16ZM809.644 187V175.456H811.708V176.968C812.404 175.72 813.796 175.12 815.356 175.12C818.188 175.12 819.964 176.848 819.964 180.04V187H817.636V180.256C817.636 178.192 816.628 177.232 814.924 177.232C813.148 177.232 811.972 178.456 811.972 180.328V187H809.644ZM828.128 187.336C824.672 187.336 822.44 184.768 822.44 181.264C822.44 177.664 824.792 175.12 828.272 175.12C831.2 175.12 833.192 176.824 833.456 179.248H831.08C830.864 178.168 829.904 177.232 828.248 177.232C826.184 177.232 824.84 178.792 824.84 181.216C824.84 183.688 826.208 185.224 828.2 185.224C829.76 185.224 830.888 184.312 831.128 182.968H833.504C833.192 185.272 831.272 187.336 828.128 187.336ZM835.648 187V170.2H837.976V176.584C838.744 175.6 839.968 175.12 841.36 175.12C844.192 175.12 845.968 176.848 845.968 180.04V187H843.64V180.256C843.64 178.192 842.632 177.232 840.928 177.232C839.152 177.232 837.976 178.456 837.976 180.328V187H835.648ZM849.189 187V175.456H851.253V176.872C851.925 175.672 852.981 175.12 854.397 175.12C855.981 175.12 857.157 175.888 857.709 177.184C858.453 175.792 859.653 175.12 861.165 175.12C863.829 175.12 865.293 176.728 865.293 179.608V187H862.989V179.728C862.989 178.12 862.221 177.232 860.757 177.232C859.389 177.232 858.405 178.288 858.405 179.8V187H856.077V179.728C856.077 178.12 855.309 177.232 853.893 177.232C852.501 177.232 851.517 178.288 851.517 179.8V187H849.189ZM871.902 187.336C869.238 187.336 867.558 185.944 867.558 183.736C867.558 181.672 868.95 180.184 871.782 180.016L875.286 179.824V179.176C875.286 177.664 874.542 177.04 872.958 177.04C871.422 177.04 870.654 177.448 870.462 178.672H868.134C868.398 176.296 870.03 175.12 873.126 175.12C875.886 175.12 877.494 176.512 877.494 179.056V184.696C877.494 184.96 877.614 185.08 877.878 185.08H878.862V187H876.99C876.198 187 875.742 186.568 875.742 185.8V185.464C875.07 186.64 873.702 187.336 871.902 187.336ZM869.886 183.664C869.886 184.72 870.75 185.416 872.166 185.416C874.038 185.416 875.286 184.336 875.286 182.368V181.624L872.07 181.864C870.582 181.96 869.886 182.728 869.886 183.664ZM881.076 187V175.456H883.14V177.328C883.428 176.176 884.292 175.456 885.66 175.456H887.868V177.496H885.444C884.004 177.496 883.404 178.312 883.404 179.872V187H881.076ZM897.207 187L893.271 181.816H892.047V187H889.719V170.2H892.047V179.656H893.271L897.159 175.456H900.015L895.311 180.688L900.015 187H897.207Z" fill="#0D0D0D"/>
<rect x="129.5" y="387.5" width="185.167" height="131" rx="15.5" fill="#CECCC9"/>
<rect x="129.5" y="387.5" width="185.167" height="131" rx="15.5" stroke="#BFBDBA"/>
<path d="M201.672 491V488.088H207.528V471.576H203.464V468.6H210.632V488.088H216.392V491H201.672ZM223.129 467.832C224.708 467.832 225.902 468.461 226.713 469.72C227.524 470.957 227.929 472.707 227.929 474.968C227.929 477.229 227.534 479 226.745 480.28C225.977 481.539 224.772 482.168 223.129 482.168C222.126 482.168 221.273 481.88 220.569 481.304C219.865 480.728 219.332 479.907 218.969 478.84C218.628 477.752 218.457 476.461 218.457 474.968C218.457 472.707 218.83 470.957 219.577 469.72C220.324 468.461 221.508 467.832 223.129 467.832ZM223.129 469.816C222.318 469.816 221.721 470.253 221.337 471.128C220.974 471.981 220.793 473.261 220.793 474.968C220.793 476.675 220.974 477.965 221.337 478.84C221.721 479.715 222.318 480.152 223.129 480.152C223.961 480.152 224.58 479.725 224.985 478.872C225.39 477.997 225.593 476.696 225.593 474.968C225.593 473.261 225.39 471.981 224.985 471.128C224.58 470.253 223.961 469.816 223.129 469.816ZM237.753 468.152L225.081 491H222.617L235.289 468.152H237.753ZM237.113 476.984C238.158 476.984 239.033 477.272 239.737 477.848C240.441 478.403 240.974 479.213 241.337 480.28C241.721 481.325 241.913 482.605 241.913 484.12C241.913 486.381 241.518 488.152 240.729 489.432C239.961 490.691 238.756 491.32 237.113 491.32C236.11 491.32 235.257 491.032 234.553 490.456C233.849 489.88 233.316 489.059 232.953 487.992C232.612 486.904 232.441 485.613 232.441 484.12C232.441 481.859 232.814 480.109 233.561 478.872C234.308 477.613 235.492 476.984 237.113 476.984ZM237.113 479C236.302 479 235.705 479.427 235.321 480.28C234.958 481.133 234.777 482.413 234.777 484.12C234.777 485.848 234.958 487.149 235.321 488.024C235.705 488.877 236.302 489.304 237.113 489.304C237.945 489.304 238.564 488.877 238.969 488.024C239.374 487.171 239.577 485.869 239.577 484.12C239.577 482.413 239.374 481.133 238.969 480.28C238.564 479.427 237.945 479 237.113 479Z" fill="#0D0D0D"/>
<rect x="335.166" y="321" width="186.167" height="198" rx="16" fill="#0D0D0D"/>
<path d="M394.338 491V488.088H400.194V471.576H396.13V468.6H403.298V488.088H409.058V491H394.338ZM412.457 491V486.616H416.297V491H412.457ZM420.21 491V488.088H427.25C430.002 488.088 431.89 486.424 431.89 483.96C431.89 481.528 430.162 479.864 427.25 479.864H420.754V468.6H434.13V471.512H423.858V477.048H427.602C432.146 477.048 435.122 479.768 435.122 483.832C435.122 488.088 431.986 491 427.25 491H420.21ZM442.405 467.832C443.984 467.832 445.178 468.461 445.989 469.72C446.8 470.957 447.205 472.707 447.205 474.968C447.205 477.229 446.81 479 446.021 480.28C445.253 481.539 444.048 482.168 442.405 482.168C441.402 482.168 440.549 481.88 439.845 481.304C439.141 480.728 438.608 479.907 438.245 478.84C437.904 477.752 437.733 476.461 437.733 474.968C437.733 472.707 438.106 470.957 438.853 469.72C439.6 468.461 440.784 467.832 442.405 467.832ZM442.405 469.816C441.594 469.816 440.997 470.253 440.613 471.128C440.25 471.981 440.069 473.261 440.069 474.968C440.069 476.675 440.25 477.965 440.613 478.84C440.997 479.715 441.594 480.152 442.405 480.152C443.237 480.152 443.856 479.725 444.261 478.872C444.666 477.997 444.869 476.696 444.869 474.968C444.869 473.261 444.666 471.981 444.261 471.128C443.856 470.253 443.237 469.816 442.405 469.816ZM457.029 468.152L444.357 491H441.893L454.565 468.152H457.029ZM456.389 476.984C457.434 476.984 458.309 477.272 459.013 477.848C459.717 478.403 460.25 479.213 460.613 480.28C460.997 481.325 461.189 482.605 461.189 484.12C461.189 486.381 460.794 488.152 460.005 489.432C459.237 490.691 458.032 491.32 456.389 491.32C455.386 491.32 454.533 491.032 453.829 490.456C453.125 489.88 452.592 489.059 452.229 487.992C451.888 486.904 451.717 485.613 451.717 484.12C451.717 481.859 452.09 480.109 452.837 478.872C453.584 477.613 454.768 476.984 456.389 476.984ZM456.389 479C455.578 479 454.981 479.427 454.597 480.28C454.234 481.133 454.053 482.413 454.053 484.12C454.053 485.848 454.234 487.149 454.597 488.024C454.981 488.877 455.578 489.304 456.389 489.304C457.221 489.304 457.84 488.877 458.245 488.024C458.65 487.171 458.853 485.869 458.853 484.12C458.853 482.413 458.65 481.133 458.245 480.28C457.84 479.427 457.221 479 456.389 479Z" fill="white"/>
<rect x="541.834" y="255.5" width="185.167" height="263" rx="15.5" fill="#CECCC9"/>
<rect x="541.834" y="255.5" width="185.167" height="263" rx="15.5" stroke="#BFBDBA"/>
<path d="M613.39 487.064C613.39 482.936 615.31 481.016 618.894 479.992L622.03 479.096C624.494 478.392 625.646 477.208 625.646 475.192C625.646 472.984 624.078 471.512 621.678 471.512H614.478V468.6H621.678C625.934 468.6 628.878 471.192 628.878 475.192C628.878 478.424 626.702 480.632 623.566 481.592L619.726 482.744C617.518 483.416 616.622 484.504 616.622 486.52V488.088H628.686V491H613.39V487.064ZM636.15 467.832C637.729 467.832 638.924 468.461 639.734 469.72C640.545 470.957 640.95 472.707 640.95 474.968C640.95 477.229 640.556 479 639.766 480.28C638.998 481.539 637.793 482.168 636.15 482.168C635.148 482.168 634.294 481.88 633.59 481.304C632.886 480.728 632.353 479.907 631.99 478.84C631.649 477.752 631.478 476.461 631.478 474.968C631.478 472.707 631.852 470.957 632.598 469.72C633.345 468.461 634.529 467.832 636.15 467.832ZM636.15 469.816C635.34 469.816 634.742 470.253 634.358 471.128C633.996 471.981 633.814 473.261 633.814 474.968C633.814 476.675 633.996 477.965 634.358 478.84C634.742 479.715 635.34 480.152 636.15 480.152C636.982 480.152 637.601 479.725 638.006 478.872C638.412 477.997 638.614 476.696 638.614 474.968C638.614 473.261 638.412 471.981 638.006 471.128C637.601 470.253 636.982 469.816 636.15 469.816ZM650.774 468.152L638.102 491H635.638L648.31 468.152H650.774ZM650.134 476.984C651.18 476.984 652.054 477.272 652.758 477.848C653.462 478.403 653.996 479.213 654.358 480.28C654.742 481.325 654.934 482.605 654.934 484.12C654.934 486.381 654.54 488.152 653.75 489.432C652.982 490.691 651.777 491.32 650.134 491.32C649.132 491.32 648.278 491.032 647.574 490.456C646.87 489.88 646.337 489.059 645.974 487.992C645.633 486.904 645.462 485.613 645.462 484.12C645.462 481.859 645.836 480.109 646.582 478.872C647.329 477.613 648.513 476.984 650.134 476.984ZM650.134 479C649.324 479 648.726 479.427 648.342 480.28C647.98 481.133 647.798 482.413 647.798 484.12C647.798 485.848 647.98 487.149 648.342 488.024C648.726 488.877 649.324 489.304 650.134 489.304C650.966 489.304 651.585 488.877 651.99 488.024C652.396 487.171 652.598 485.869 652.598 484.12C652.598 482.413 652.396 481.133 651.99 480.28C651.585 479.427 650.966 479 650.134 479Z" fill="#0D0D0D"/>
<path d="M361.602 561.28C357.882 561.28 355.322 558.84 355.322 554.02C355.322 549.2 357.782 546.72 361.642 546.72C364.682 546.72 366.762 548.48 367.182 551.48H365.082C364.782 549.64 363.402 548.58 361.642 548.58C359.082 548.58 357.382 550.24 357.382 553.98C357.382 557.68 359.162 559.42 361.602 559.42C363.542 559.42 364.762 558.12 365.082 556.32H367.162C366.682 559.22 364.762 561.28 361.602 561.28ZM373.591 561.28C370.671 561.28 368.631 559.24 368.631 556.18C368.631 553.14 370.671 551.1 373.591 551.1C376.531 551.1 378.551 553.14 378.551 556.18C378.551 559.24 376.531 561.28 373.591 561.28ZM370.631 556.18C370.631 558.18 371.831 559.52 373.591 559.52C375.371 559.52 376.551 558.18 376.551 556.18C376.551 554.2 375.371 552.86 373.591 552.86C371.831 552.86 370.631 554.2 370.631 556.18ZM380.771 561V551.38H382.491V552.64C383.071 551.6 384.231 551.1 385.531 551.1C387.891 551.1 389.371 552.54 389.371 555.2V561H387.431V555.38C387.431 553.66 386.591 552.86 385.171 552.86C383.691 552.86 382.711 553.88 382.711 555.44V561H380.771ZM394.365 561L390.365 551.38H392.525L395.485 558.92L398.425 551.38H400.585L396.565 561H394.365ZM405.995 561.28C403.115 561.28 401.195 559.26 401.195 556.14C401.195 553.04 403.115 551.1 405.855 551.1C408.715 551.1 410.475 552.96 410.475 555.9C410.475 556.16 410.455 556.42 410.415 556.82H403.115C403.195 558.58 404.275 559.64 405.995 559.64C407.135 559.64 407.935 559.12 408.315 558.26H410.295C409.695 560.12 408.215 561.28 405.995 561.28ZM403.115 555.3H408.515V555.2C408.515 553.72 407.555 552.66 405.855 552.66C404.235 552.66 403.195 553.74 403.115 555.3ZM412.612 561V551.38H414.332V552.94C414.572 551.98 415.292 551.38 416.432 551.38H418.272V553.08H416.252C415.052 553.08 414.552 553.76 414.552 555.06V561H412.612ZM423.077 561.28C420.477 561.28 418.937 560.24 418.837 558.26H420.837C420.937 559.22 421.717 559.7 423.117 559.7C424.397 559.7 425.177 559.16 425.177 558.28C425.177 557.56 424.637 557.14 423.637 557.04L422.097 556.88C420.297 556.7 419.157 555.7 419.157 554.1C419.157 552.26 420.697 551.1 423.057 551.1C425.457 551.1 426.937 552.1 427.057 554.06H425.117C425.057 553.14 424.297 552.68 423.037 552.68C421.837 552.68 421.077 553.18 421.077 554C421.077 554.7 421.597 555.08 422.717 555.22L424.277 555.4C426.097 555.6 427.137 556.62 427.137 558.2C427.137 560.08 425.557 561.28 423.077 561.28ZM429.244 561V551.38H431.184V561H429.244ZM429.124 549.44V547.14H431.284V549.44H429.124ZM438.344 561.28C435.424 561.28 433.384 559.24 433.384 556.18C433.384 553.14 435.424 551.1 438.344 551.1C441.284 551.1 443.304 553.14 443.304 556.18C443.304 559.24 441.284 561.28 438.344 561.28ZM435.384 556.18C435.384 558.18 436.584 559.52 438.344 559.52C440.124 559.52 441.304 558.18 441.304 556.18C441.304 554.2 440.124 552.86 438.344 552.86C436.584 552.86 435.384 554.2 435.384 556.18ZM445.523 561V551.38H447.243V552.64C447.823 551.6 448.983 551.1 450.283 551.1C452.643 551.1 454.123 552.54 454.123 555.2V561H452.183V555.38C452.183 553.66 451.343 552.86 449.923 552.86C448.443 552.86 447.463 553.88 447.463 555.44V561H445.523ZM461.984 561V547H467.984C470.904 547 472.624 548.52 472.624 551.02C472.624 553.42 471.064 554.92 468.404 555.06L473.024 561H470.524L465.924 555.04H463.984V561H461.984ZM463.984 553.22H467.984C469.644 553.22 470.584 552.42 470.584 551.02C470.584 549.66 469.644 548.88 467.984 548.88H463.984V553.22ZM477.742 561.28C475.522 561.28 474.122 560.12 474.122 558.28C474.122 556.56 475.282 555.32 477.642 555.18L480.562 555.02V554.48C480.562 553.22 479.942 552.7 478.622 552.7C477.342 552.7 476.702 553.04 476.542 554.06H474.602C474.822 552.08 476.182 551.1 478.762 551.1C481.062 551.1 482.402 552.26 482.402 554.38V559.08C482.402 559.3 482.502 559.4 482.722 559.4H483.542V561H481.982C481.322 561 480.942 560.64 480.942 560V559.72C480.382 560.7 479.242 561.28 477.742 561.28ZM476.062 558.22C476.062 559.1 476.782 559.68 477.962 559.68C479.522 559.68 480.562 558.78 480.562 557.14V556.52L477.882 556.72C476.642 556.8 476.062 557.44 476.062 558.22ZM488.692 561C487.032 561 486.312 560.34 486.312 558.68V553.08H483.792V551.38H486.312V548.5H488.252V551.38H491.272V553.08H488.252V558.3C488.252 559 488.532 559.3 489.272 559.3H491.272V561H488.692ZM497.081 561.28C494.201 561.28 492.281 559.26 492.281 556.14C492.281 553.04 494.201 551.1 496.941 551.1C499.801 551.1 501.561 552.96 501.561 555.9C501.561 556.16 501.541 556.42 501.501 556.82H494.201C494.281 558.58 495.361 559.64 497.081 559.64C498.221 559.64 499.021 559.12 499.401 558.26H501.381C500.781 560.12 499.301 561.28 497.081 561.28ZM494.201 555.3H499.601V555.2C499.601 553.72 498.641 552.66 496.941 552.66C495.321 552.66 494.281 553.74 494.201 555.3Z" fill="#0D0D0D"/>
<rect x="396.75" y="575.5" width="63" height="20" rx="10" stroke="#0B8900"/>
<path d="M406.922 584.568H409.708V585.562H406.922V588.446H405.914V585.562H403.128V584.568H405.914V581.67H406.922V584.568ZM410.915 590V588.726H413.477V581.502H411.699V580.2H414.835V588.726H417.355V590H410.915ZM418.983 590V588.082H420.663V590H418.983ZM422.386 590V588.726H424.948V581.502H423.17V580.2H426.306V588.726H428.826V590H422.386ZM429.911 590V588.726H432.991C434.195 588.726 435.021 587.998 435.021 586.92C435.021 585.856 434.265 585.128 432.991 585.128H430.149V580.2H436.001V581.474H431.507V583.896H433.145C435.133 583.896 436.435 585.086 436.435 586.864C436.435 588.726 435.063 590 432.991 590H429.911ZM437.05 590L439.668 586.528L437.19 583.266H438.842L440.55 585.59L442.244 583.266H443.896L441.418 586.528L444.036 590H442.384L440.55 587.536L438.702 590H437.05Z" fill="#0B8900"/>
<path fill-rule="evenodd" clip-rule="evenodd" d="M447.25 585.625L450.75 580L454.25 585.625H451.356V590H450.144V585.625H447.25Z" fill="#0B8900"/>
<rect x="767.5" y="255" width="1" height="264" rx="0.5" fill="#B5B2B0"/>
<rect x="809" y="286.5" width="185.167" height="232" rx="15.5" fill="#CECCC9"/>
<rect x="809" y="286.5" width="185.167" height="232" rx="15.5" stroke="#BFBDBA"/>
<path d="M876.664 485.848C876.664 480.824 877.464 477.528 881.272 473.88L883.736 471.512H871.672V468.6H887.928V471.512L883.992 475.224C880.984 478.136 879.896 480.6 879.896 485.688V491H876.664V485.848ZM889.989 491V488.088H897.029C899.781 488.088 901.669 486.424 901.669 483.96C901.669 481.528 899.941 479.864 897.029 479.864H890.533V468.6H903.909V471.512H893.637V477.048H897.381C901.925 477.048 904.901 479.768 904.901 483.832C904.901 488.088 901.765 491 897.029 491H889.989ZM912.184 467.832C913.763 467.832 914.957 468.461 915.768 469.72C916.579 470.957 916.984 472.707 916.984 474.968C916.984 477.229 916.589 479 915.8 480.28C915.032 481.539 913.827 482.168 912.184 482.168C911.181 482.168 910.328 481.88 909.624 481.304C908.92 480.728 908.387 479.907 908.024 478.84C907.683 477.752 907.512 476.461 907.512 474.968C907.512 472.707 907.885 470.957 908.632 469.72C909.379 468.461 910.563 467.832 912.184 467.832ZM912.184 469.816C911.373 469.816 910.776 470.253 910.392 471.128C910.029 471.981 909.848 473.261 909.848 474.968C909.848 476.675 910.029 477.965 910.392 478.84C910.776 479.715 911.373 480.152 912.184 480.152C913.016 480.152 913.635 479.725 914.04 478.872C914.445 477.997 914.648 476.696 914.648 474.968C914.648 473.261 914.445 471.981 914.04 471.128C913.635 470.253 913.016 469.816 912.184 469.816ZM926.808 468.152L914.136 491H911.672L924.344 468.152H926.808ZM926.168 476.984C927.213 476.984 928.088 477.272 928.792 477.848C929.496 478.403 930.029 479.213 930.392 480.28C930.776 481.325 930.968 482.605 930.968 484.12C930.968 486.381 930.573 488.152 929.784 489.432C929.016 490.691 927.811 491.32 926.168 491.32C925.165 491.32 924.312 491.032 923.608 490.456C922.904 489.88 922.371 489.059 922.008 487.992C921.667 486.904 921.496 485.613 921.496 484.12C921.496 481.859 921.869 480.109 922.616 478.872C923.363 477.613 924.547 476.984 926.168 476.984ZM926.168 479C925.357 479 924.76 479.427 924.376 480.28C924.013 481.133 923.832 482.413 923.832 484.12C923.832 485.848 924.013 487.149 924.376 488.024C924.76 488.877 925.357 489.304 926.168 489.304C927 489.304 927.619 488.877 928.024 488.024C928.429 487.171 928.632 485.869 928.632 484.12C928.632 482.413 928.429 481.133 928.024 480.28C927.619 479.427 927 479 926.168 479Z" fill="#0D0D0D"/>
<rect x="1014.67" y="264" width="186.167" height="255" rx="16" fill="#0D0D0D"/>
<path d="M1085.43 491.448C1080.02 491.448 1076.91 488.632 1076.91 484.664C1076.91 482.072 1078.55 479.896 1081.04 479.096C1078.8 478.328 1077.55 476.344 1077.55 474.2C1077.55 470.648 1080.66 468.152 1085.43 468.152C1090.23 468.152 1093.33 470.648 1093.33 474.2C1093.33 476.344 1092.08 478.328 1089.84 479.096C1092.34 479.896 1093.97 482.072 1093.97 484.664C1093.97 488.632 1090.87 491.448 1085.43 491.448ZM1080.11 484.568C1080.11 487 1082 488.76 1085.43 488.76C1088.88 488.76 1090.77 487 1090.77 484.568C1090.77 482.104 1088.75 480.472 1085.43 480.472C1082.13 480.472 1080.11 482.104 1080.11 484.568ZM1080.75 474.392C1080.75 476.472 1082.55 477.848 1085.43 477.848C1088.31 477.848 1090.13 476.472 1090.13 474.392C1090.13 472.312 1088.4 470.84 1085.43 470.84C1082.48 470.84 1080.75 472.312 1080.75 474.392ZM1097.06 487.064C1097.06 482.936 1098.98 481.016 1102.56 479.992L1105.7 479.096C1108.16 478.392 1109.31 477.208 1109.31 475.192C1109.31 472.984 1107.75 471.512 1105.35 471.512H1098.15V468.6H1105.35C1109.6 468.6 1112.55 471.192 1112.55 475.192C1112.55 478.424 1110.37 480.632 1107.23 481.592L1103.39 482.744C1101.19 483.416 1100.29 484.504 1100.29 486.52V488.088H1112.35V491H1097.06V487.064ZM1119.82 467.832C1121.4 467.832 1122.59 468.461 1123.4 469.72C1124.21 470.957 1124.62 472.707 1124.62 474.968C1124.62 477.229 1124.22 479 1123.43 480.28C1122.67 481.539 1121.46 482.168 1119.82 482.168C1118.82 482.168 1117.96 481.88 1117.26 481.304C1116.55 480.728 1116.02 479.907 1115.66 478.84C1115.32 477.752 1115.15 476.461 1115.15 474.968C1115.15 472.707 1115.52 470.957 1116.27 469.72C1117.01 468.461 1118.2 467.832 1119.82 467.832ZM1119.82 469.816C1119.01 469.816 1118.41 470.253 1118.03 471.128C1117.66 471.981 1117.48 473.261 1117.48 474.968C1117.48 476.675 1117.66 477.965 1118.03 478.84C1118.41 479.715 1119.01 480.152 1119.82 480.152C1120.65 480.152 1121.27 479.725 1121.67 478.872C1122.08 477.997 1122.28 476.696 1122.28 474.968C1122.28 473.261 1122.08 471.981 1121.67 471.128C1121.27 470.253 1120.65 469.816 1119.82 469.816ZM1134.44 468.152L1121.77 491H1119.31L1131.98 468.152H1134.44ZM1133.8 476.984C1134.85 476.984 1135.72 477.272 1136.43 477.848C1137.13 478.403 1137.66 479.213 1138.03 480.28C1138.41 481.325 1138.6 482.605 1138.6 484.12C1138.6 486.381 1138.21 488.152 1137.42 489.432C1136.65 490.691 1135.45 491.32 1133.8 491.32C1132.8 491.32 1131.95 491.032 1131.24 490.456C1130.54 489.88 1130.01 489.059 1129.64 487.992C1129.3 486.904 1129.13 485.613 1129.13 484.12C1129.13 481.859 1129.5 480.109 1130.25 478.872C1131 477.613 1132.18 476.984 1133.8 476.984ZM1133.8 479C1132.99 479 1132.39 479.427 1132.01 480.28C1131.65 481.133 1131.47 482.413 1131.47 484.12C1131.47 485.848 1131.65 487.149 1132.01 488.024C1132.39 488.877 1132.99 489.304 1133.8 489.304C1134.63 489.304 1135.25 488.877 1135.66 488.024C1136.06 487.171 1136.27 485.869 1136.27 484.12C1136.27 482.413 1136.06 481.133 1135.66 480.28C1135.25 479.427 1134.63 479 1133.8 479Z" fill="white"/>
<rect x="1221.33" y="255.5" width="185.167" height="263" rx="15.5" fill="#CECCC9"/>
<rect x="1221.33" y="255.5" width="185.167" height="263" rx="15.5" stroke="#BFBDBA"/>
<path d="M1291.59 491.448C1286.19 491.448 1283.08 488.632 1283.08 484.664C1283.08 482.072 1284.71 479.896 1287.21 479.096C1284.97 478.328 1283.72 476.344 1283.72 474.2C1283.72 470.648 1286.83 468.152 1291.59 468.152C1296.39 468.152 1299.5 470.648 1299.5 474.2C1299.5 476.344 1298.25 478.328 1296.01 479.096C1298.51 479.896 1300.14 482.072 1300.14 484.664C1300.14 488.632 1297.03 491.448 1291.59 491.448ZM1286.28 484.568C1286.28 487 1288.17 488.76 1291.59 488.76C1295.05 488.76 1296.94 487 1296.94 484.568C1296.94 482.104 1294.92 480.472 1291.59 480.472C1288.3 480.472 1286.28 482.104 1286.28 484.568ZM1286.92 474.392C1286.92 476.472 1288.71 477.848 1291.59 477.848C1294.47 477.848 1296.3 476.472 1296.3 474.392C1296.3 472.312 1294.57 470.84 1291.59 470.84C1288.65 470.84 1286.92 472.312 1286.92 474.392ZM1303.2 491V488.088H1310.24C1312.99 488.088 1314.88 486.424 1314.88 483.96C1314.88 481.528 1313.15 479.864 1310.24 479.864H1303.74V468.6H1317.12V471.512H1306.85V477.048H1310.59C1315.13 477.048 1318.11 479.768 1318.11 483.832C1318.11 488.088 1314.97 491 1310.24 491H1303.2ZM1325.39 467.832C1326.97 467.832 1328.17 468.461 1328.98 469.72C1329.79 470.957 1330.19 472.707 1330.19 474.968C1330.19 477.229 1329.8 479 1329.01 480.28C1328.24 481.539 1327.04 482.168 1325.39 482.168C1324.39 482.168 1323.54 481.88 1322.83 481.304C1322.13 480.728 1321.6 479.907 1321.23 478.84C1320.89 477.752 1320.72 476.461 1320.72 474.968C1320.72 472.707 1321.09 470.957 1321.84 469.72C1322.59 468.461 1323.77 467.832 1325.39 467.832ZM1325.39 469.816C1324.58 469.816 1323.98 470.253 1323.6 471.128C1323.24 471.981 1323.06 473.261 1323.06 474.968C1323.06 476.675 1323.24 477.965 1323.6 478.84C1323.98 479.715 1324.58 480.152 1325.39 480.152C1326.22 480.152 1326.84 479.725 1327.25 478.872C1327.65 477.997 1327.86 476.696 1327.86 474.968C1327.86 473.261 1327.65 471.981 1327.25 471.128C1326.84 470.253 1326.22 469.816 1325.39 469.816ZM1340.02 468.152L1327.34 491H1324.88L1337.55 468.152H1340.02ZM1339.38 476.984C1340.42 476.984 1341.3 477.272 1342 477.848C1342.7 478.403 1343.24 479.213 1343.6 480.28C1343.98 481.325 1344.18 482.605 1344.18 484.12C1344.18 486.381 1343.78 488.152 1342.99 489.432C1342.22 490.691 1341.02 491.32 1339.38 491.32C1338.37 491.32 1337.52 491.032 1336.82 490.456C1336.11 489.88 1335.58 489.059 1335.22 487.992C1334.88 486.904 1334.7 485.613 1334.7 484.12C1334.7 481.859 1335.08 480.109 1335.82 478.872C1336.57 477.613 1337.76 476.984 1339.38 476.984ZM1339.38 479C1338.57 479 1337.97 479.427 1337.58 480.28C1337.22 481.133 1337.04 482.413 1337.04 484.12C1337.04 485.848 1337.22 487.149 1337.58 488.024C1337.97 488.877 1338.57 489.304 1339.38 489.304C1340.21 489.304 1340.83 488.877 1341.23 488.024C1341.64 487.171 1341.84 485.869 1341.84 484.12C1341.84 482.413 1341.64 481.133 1341.23 480.28C1340.83 479.427 1340.21 479 1339.38 479Z" fill="#0D0D0D"/>
<path d="M1041.68 561V547H1047.68C1050.6 547 1052.32 548.52 1052.32 551.02C1052.32 553.42 1050.76 554.92 1048.1 555.06L1052.72 561H1050.22L1045.62 555.04H1043.68V561H1041.68ZM1043.68 553.22H1047.68C1049.34 553.22 1050.28 552.42 1050.28 551.02C1050.28 549.66 1049.34 548.88 1047.68 548.88H1043.68V553.22ZM1058.41 561.28C1055.53 561.28 1053.61 559.26 1053.61 556.14C1053.61 553.04 1055.53 551.1 1058.27 551.1C1061.13 551.1 1062.89 552.96 1062.89 555.9C1062.89 556.16 1062.87 556.42 1062.83 556.82H1055.53C1055.61 558.58 1056.69 559.64 1058.41 559.64C1059.55 559.64 1060.35 559.12 1060.73 558.26H1062.71C1062.11 560.12 1060.63 561.28 1058.41 561.28ZM1055.53 555.3H1060.93V555.2C1060.93 553.72 1059.97 552.66 1058.27 552.66C1056.65 552.66 1055.61 553.74 1055.53 555.3ZM1068.45 561C1066.79 561 1066.07 560.34 1066.07 558.68V553.08H1063.55V551.38H1066.07V548.5H1068.01V551.38H1071.03V553.08H1068.01V558.3C1068.01 559 1068.29 559.3 1069.03 559.3H1071.03V561H1068.45ZM1076.84 561.28C1073.96 561.28 1072.04 559.26 1072.04 556.14C1072.04 553.04 1073.96 551.1 1076.7 551.1C1079.56 551.1 1081.32 552.96 1081.32 555.9C1081.32 556.16 1081.3 556.42 1081.26 556.82H1073.96C1074.04 558.58 1075.12 559.64 1076.84 559.64C1077.98 559.64 1078.78 559.12 1079.16 558.26H1081.14C1080.54 560.12 1079.06 561.28 1076.84 561.28ZM1073.96 555.3H1079.36V555.2C1079.36 553.72 1078.4 552.66 1076.7 552.66C1075.08 552.66 1074.04 553.74 1073.96 555.3ZM1083.45 561V551.38H1085.17V552.64C1085.75 551.6 1086.91 551.1 1088.21 551.1C1090.57 551.1 1092.05 552.54 1092.05 555.2V561H1090.11V555.38C1090.11 553.66 1089.27 552.86 1087.85 552.86C1086.37 552.86 1085.39 553.88 1085.39 555.44V561H1083.45ZM1098.08 561C1096.42 561 1095.7 560.34 1095.7 558.68V553.08H1093.18V551.38H1095.7V548.5H1097.64V551.38H1100.66V553.08H1097.64V558.3C1097.64 559 1097.92 559.3 1098.66 559.3H1100.66V561H1098.08ZM1102.53 561V551.38H1104.47V561H1102.53ZM1102.41 549.44V547.14H1104.57V549.44H1102.41ZM1111.63 561.28C1108.71 561.28 1106.67 559.24 1106.67 556.18C1106.67 553.14 1108.71 551.1 1111.63 551.1C1114.57 551.1 1116.59 553.14 1116.59 556.18C1116.59 559.24 1114.57 561.28 1111.63 561.28ZM1108.67 556.18C1108.67 558.18 1109.87 559.52 1111.63 559.52C1113.41 559.52 1114.59 558.18 1114.59 556.18C1114.59 554.2 1113.41 552.86 1111.63 552.86C1109.87 552.86 1108.67 554.2 1108.67 556.18ZM1118.8 561V551.38H1120.52V552.64C1121.1 551.6 1122.26 551.1 1123.56 551.1C1125.92 551.1 1127.4 552.54 1127.4 555.2V561H1125.46V555.38C1125.46 553.66 1124.62 552.86 1123.2 552.86C1121.72 552.86 1120.74 553.88 1120.74 555.44V561H1118.8ZM1135.27 561V547H1141.27C1144.19 547 1145.91 548.52 1145.91 551.02C1145.91 553.42 1144.35 554.92 1141.69 555.06L1146.31 561H1143.81L1139.21 555.04H1137.27V561H1135.27ZM1137.27 553.22H1141.27C1142.93 553.22 1143.87 552.42 1143.87 551.02C1143.87 549.66 1142.93 548.88 1141.27 548.88H1137.27V553.22ZM1151.02 561.28C1148.8 561.28 1147.4 560.12 1147.4 558.28C1147.4 556.56 1148.56 555.32 1150.92 555.18L1153.84 555.02V554.48C1153.84 553.22 1153.22 552.7 1151.9 552.7C1150.62 552.7 1149.98 553.04 1149.82 554.06H1147.88C1148.1 552.08 1149.46 551.1 1152.04 551.1C1154.34 551.1 1155.68 552.26 1155.68 554.38V559.08C1155.68 559.3 1155.78 559.4 1156 559.4H1156.82V561H1155.26C1154.6 561 1154.22 560.64 1154.22 560V559.72C1153.66 560.7 1152.52 561.28 1151.02 561.28ZM1149.34 558.22C1149.34 559.1 1150.06 559.68 1151.24 559.68C1152.8 559.68 1153.84 558.78 1153.84 557.14V556.52L1151.16 556.72C1149.92 556.8 1149.34 557.44 1149.34 558.22ZM1161.97 561C1160.31 561 1159.59 560.34 1159.59 558.68V553.08H1157.07V551.38H1159.59V548.5H1161.53V551.38H1164.55V553.08H1161.53V558.3C1161.53 559 1161.81 559.3 1162.55 559.3H1164.55V561H1161.97ZM1170.36 561.28C1167.48 561.28 1165.56 559.26 1165.56 556.14C1165.56 553.04 1167.48 551.1 1170.22 551.1C1173.08 551.1 1174.84 552.96 1174.84 555.9C1174.84 556.16 1174.82 556.42 1174.78 556.82H1167.48C1167.56 558.58 1168.64 559.64 1170.36 559.64C1171.5 559.64 1172.3 559.12 1172.68 558.26H1174.66C1174.06 560.12 1172.58 561.28 1170.36 561.28ZM1167.48 555.3H1172.88V555.2C1172.88 553.72 1171.92 552.66 1170.22 552.66C1168.6 552.66 1167.56 553.74 1167.48 555.3Z" fill="#0D0D0D"/>
<rect x="1075.25" y="575.5" width="65" height="20" rx="10" stroke="#0B8900"/>
<path d="M1085.48 584.568H1088.27V585.562H1085.48V588.446H1084.47V585.562H1081.69V584.568H1084.47V581.67H1085.48V584.568ZM1089.47 590V588.726H1092.04V581.502H1090.26V580.2H1093.39V588.726H1095.91V590H1089.47ZM1097.54 590V588.082H1099.22V590H1097.54ZM1104.74 590.196C1102.38 590.196 1101.02 588.964 1101.02 587.228C1101.02 586.094 1101.73 585.142 1102.83 584.792C1101.85 584.456 1101.3 583.588 1101.3 582.65C1101.3 581.096 1102.66 580.004 1104.74 580.004C1106.84 580.004 1108.2 581.096 1108.2 582.65C1108.2 583.588 1107.66 584.456 1106.68 584.792C1107.77 585.142 1108.48 586.094 1108.48 587.228C1108.48 588.964 1107.12 590.196 1104.74 590.196ZM1102.42 587.186C1102.42 588.25 1103.25 589.02 1104.74 589.02C1106.26 589.02 1107.08 588.25 1107.08 587.186C1107.08 586.108 1106.2 585.394 1104.74 585.394C1103.3 585.394 1102.42 586.108 1102.42 587.186ZM1102.7 582.734C1102.7 583.644 1103.48 584.246 1104.74 584.246C1106 584.246 1106.8 583.644 1106.8 582.734C1106.8 581.824 1106.05 581.18 1104.74 581.18C1103.46 581.18 1102.7 581.824 1102.7 582.734ZM1109.97 588.278C1109.97 586.472 1110.81 585.632 1112.38 585.184L1113.75 584.792C1114.83 584.484 1115.33 583.966 1115.33 583.084C1115.33 582.118 1114.65 581.474 1113.6 581.474H1110.45V580.2H1113.6C1115.46 580.2 1116.75 581.334 1116.75 583.084C1116.75 584.498 1115.8 585.464 1114.42 585.884L1112.74 586.388C1111.78 586.682 1111.39 587.158 1111.39 588.04V588.726H1116.66V590H1109.97V588.278ZM1117.55 590L1120.17 586.528L1117.69 583.266H1119.34L1121.05 585.59L1122.74 583.266H1124.4L1121.92 586.528L1124.54 590H1122.88L1121.05 587.536L1119.2 590H1117.55Z" fill="#0B8900"/>
<path fill-rule="evenodd" clip-rule="evenodd" d="M1127.75 585.625L1131.25 580L1134.75 585.625H1131.86V590H1130.64V585.625H1127.75Z" fill="#0B8900"/>
</g>
<defs>
<clipPath id="clip0_4856_54111">
<rect width="1278" height="432" fill="white" transform="translate(129 164)"/>
</clipPath>
</defs>
</svg>
