<svg width="1536" height="760" viewBox="0 0 1536 760" fill="none" xmlns="http://www.w3.org/2000/svg">
<g clip-path="url(#clip0_4638_111190)">
<path d="M233.63 187.336C229.166 187.336 226.094 184.408 226.094 178.624C226.094 172.84 229.046 169.864 233.678 169.864C237.326 169.864 239.822 171.976 240.326 175.576H237.806C237.446 173.368 235.79 172.096 233.678 172.096C230.606 172.096 228.566 174.088 228.566 178.576C228.566 183.016 230.702 185.104 233.63 185.104C235.958 185.104 237.422 183.544 237.806 181.384H240.302C239.726 184.864 237.422 187.336 233.63 187.336ZM246.311 187.336C243.647 187.336 241.967 185.944 241.967 183.736C241.967 181.672 243.359 180.184 246.191 180.016L249.695 179.824V179.176C249.695 177.664 248.951 177.04 247.367 177.04C245.831 177.04 245.063 177.448 244.871 178.672H242.543C242.807 176.296 244.439 175.12 247.535 175.12C250.295 175.12 251.903 176.512 251.903 179.056V184.696C251.903 184.96 252.023 185.08 252.287 185.08H253.271V187H251.399C250.607 187 250.151 186.568 250.151 185.8V185.464C249.479 186.64 248.111 187.336 246.311 187.336ZM244.295 183.664C244.295 184.72 245.159 185.416 246.575 185.416C248.447 185.416 249.695 184.336 249.695 182.368V181.624L246.479 181.864C244.991 181.96 244.295 182.728 244.295 183.664ZM259.493 187.336C256.373 187.336 254.525 186.088 254.405 183.712H256.805C256.925 184.864 257.861 185.44 259.541 185.44C261.077 185.44 262.013 184.792 262.013 183.736C262.013 182.872 261.365 182.368 260.165 182.248L258.317 182.056C256.157 181.84 254.789 180.64 254.789 178.72C254.789 176.512 256.637 175.12 259.469 175.12C262.349 175.12 264.125 176.32 264.269 178.672H261.941C261.869 177.568 260.957 177.016 259.445 177.016C258.005 177.016 257.093 177.616 257.093 178.6C257.093 179.44 257.717 179.896 259.061 180.064L260.933 180.28C263.117 180.52 264.365 181.744 264.365 183.64C264.365 185.896 262.469 187.336 259.493 187.336ZM271.093 187C269.101 187 268.237 186.208 268.237 184.216V177.496H265.213V175.456H268.237V172H270.565V175.456H274.189V177.496H270.565V183.76C270.565 184.6 270.901 184.96 271.789 184.96H274.189V187H271.093ZM276.427 187V175.456H278.755V187H276.427ZM276.283 173.128V170.368H278.875V173.128H276.283ZM282.14 187V175.456H284.204V176.968C284.9 175.72 286.292 175.12 287.852 175.12C290.684 175.12 292.46 176.848 292.46 180.04V187H290.132V180.256C290.132 178.192 289.124 177.232 287.42 177.232C285.644 177.232 284.468 178.456 284.468 180.328V187H282.14ZM298.2 191.32C295.632 191.32 294.48 190.12 294.48 188.44C294.48 187.456 295.008 186.568 295.992 186.088C295.344 185.656 294.936 184.96 294.936 184.216C294.936 183.184 295.584 182.344 296.928 182.008C295.848 181.288 295.392 180.16 295.392 179.08C295.392 176.824 297.12 175.12 300 175.12C301.848 175.12 303.336 176.056 303.816 177.256V176.896C303.816 175.744 304.44 175.456 305.256 175.456H306.96V177.496H305.112C304.752 177.496 304.608 177.64 304.608 178V179.224C304.608 181.624 302.736 183.184 300.12 183.184H298.128C297.456 183.184 297 183.496 297 184.12C297 184.744 297.528 185.056 298.128 185.056H302.328C304.536 185.056 305.952 186.112 305.952 188.008C305.952 189.904 304.824 191.32 302.184 191.32H298.2ZM296.712 188.224C296.712 188.968 297.192 189.544 298.464 189.544H302.04C302.952 189.544 303.72 189.112 303.72 188.08C303.72 187.288 303.096 186.832 302.16 186.832H298.536C297.24 186.832 296.712 187.48 296.712 188.224ZM297.624 179.152C297.624 180.496 298.512 181.36 300 181.36C301.512 181.36 302.376 180.496 302.376 179.152C302.376 177.808 301.488 176.944 300 176.944C298.488 176.944 297.624 177.808 297.624 179.152ZM321.828 187.336C317.364 187.336 314.292 184.408 314.292 178.624C314.292 172.84 317.244 169.864 321.876 169.864C325.524 169.864 328.02 171.976 328.524 175.576H326.004C325.644 173.368 323.988 172.096 321.876 172.096C318.804 172.096 316.764 174.088 316.764 178.576C316.764 183.016 318.9 185.104 321.828 185.104C324.156 185.104 325.62 183.544 326.004 181.384H328.5C327.924 184.864 325.62 187.336 321.828 187.336ZM330.938 187V175.456H333.002V177.328C333.29 176.176 334.154 175.456 335.522 175.456H337.73V177.496H335.306C333.866 177.496 333.266 178.312 333.266 179.872V187H330.938ZM344.056 187.336C340.6 187.336 338.296 184.912 338.296 181.168C338.296 177.448 340.6 175.12 343.888 175.12C347.32 175.12 349.432 177.352 349.432 180.88C349.432 181.192 349.408 181.504 349.36 181.984H340.6C340.696 184.096 341.992 185.368 344.056 185.368C345.424 185.368 346.384 184.744 346.84 183.712H349.216C348.496 185.944 346.72 187.336 344.056 187.336ZM340.6 180.16H347.08V180.04C347.08 178.264 345.928 176.992 343.888 176.992C341.944 176.992 340.696 178.288 340.6 180.16ZM355.333 187.336C352.669 187.336 350.989 185.944 350.989 183.736C350.989 181.672 352.381 180.184 355.213 180.016L358.717 179.824V179.176C358.717 177.664 357.973 177.04 356.389 177.04C354.853 177.04 354.085 177.448 353.893 178.672H351.565C351.829 176.296 353.461 175.12 356.557 175.12C359.317 175.12 360.925 176.512 360.925 179.056V184.696C360.925 184.96 361.045 185.08 361.309 185.08H362.293V187H360.421C359.629 187 359.173 186.568 359.173 185.8V185.464C358.501 186.64 357.133 187.336 355.333 187.336ZM353.317 183.664C353.317 184.72 354.181 185.416 355.597 185.416C357.469 185.416 358.717 184.336 358.717 182.368V181.624L355.501 181.864C354.013 181.96 353.317 182.728 353.317 183.664ZM368.472 187C366.48 187 365.616 186.208 365.616 184.216V177.496H362.592V175.456H365.616V172H367.944V175.456H371.568V177.496H367.944V183.76C367.944 184.6 368.28 184.96 369.168 184.96H371.568V187H368.472ZM373.806 187V175.456H376.134V187H373.806ZM373.662 173.128V170.368H376.254V173.128H373.662ZM384.726 187.336C381.222 187.336 378.774 184.888 378.774 181.216C378.774 177.568 381.222 175.12 384.726 175.12C388.254 175.12 390.678 177.568 390.678 181.216C390.678 184.888 388.254 187.336 384.726 187.336ZM381.174 181.216C381.174 183.616 382.614 185.224 384.726 185.224C386.862 185.224 388.278 183.616 388.278 181.216C388.278 178.84 386.862 177.232 384.726 177.232C382.614 177.232 381.174 178.84 381.174 181.216ZM393.342 187V175.456H395.406V176.968C396.102 175.72 397.494 175.12 399.054 175.12C401.886 175.12 403.662 176.848 403.662 180.04V187H401.334V180.256C401.334 178.192 400.326 177.232 398.622 177.232C396.846 177.232 395.67 178.456 395.67 180.328V187H393.342Z" fill="#0D0D0D"/>
<path d="M706.072 187.336C701.608 187.336 698.536 184.408 698.536 178.624C698.536 172.84 701.488 169.864 706.12 169.864C709.768 169.864 712.264 171.976 712.768 175.576H710.248C709.888 173.368 708.232 172.096 706.12 172.096C703.048 172.096 701.008 174.088 701.008 178.576C701.008 183.016 703.144 185.104 706.072 185.104C708.4 185.104 709.864 183.544 710.248 181.384H712.744C712.168 184.864 709.864 187.336 706.072 187.336ZM718.753 187.336C716.089 187.336 714.409 185.944 714.409 183.736C714.409 181.672 715.801 180.184 718.633 180.016L722.137 179.824V179.176C722.137 177.664 721.393 177.04 719.809 177.04C718.273 177.04 717.505 177.448 717.313 178.672H714.985C715.249 176.296 716.881 175.12 719.977 175.12C722.737 175.12 724.345 176.512 724.345 179.056V184.696C724.345 184.96 724.465 185.08 724.729 185.08H725.713V187H723.841C723.049 187 722.593 186.568 722.593 185.8V185.464C721.921 186.64 720.553 187.336 718.753 187.336ZM716.737 183.664C716.737 184.72 717.601 185.416 719.017 185.416C720.889 185.416 722.137 184.336 722.137 182.368V181.624L718.921 181.864C717.433 181.96 716.737 182.728 716.737 183.664ZM731.935 187.336C728.815 187.336 726.967 186.088 726.847 183.712H729.247C729.367 184.864 730.303 185.44 731.983 185.44C733.519 185.44 734.455 184.792 734.455 183.736C734.455 182.872 733.807 182.368 732.607 182.248L730.759 182.056C728.599 181.84 727.231 180.64 727.231 178.72C727.231 176.512 729.079 175.12 731.911 175.12C734.791 175.12 736.567 176.32 736.711 178.672H734.383C734.311 177.568 733.399 177.016 731.887 177.016C730.447 177.016 729.535 177.616 729.535 178.6C729.535 179.44 730.159 179.896 731.503 180.064L733.375 180.28C735.559 180.52 736.807 181.744 736.807 183.64C736.807 185.896 734.911 187.336 731.935 187.336ZM743.535 187C741.543 187 740.679 186.208 740.679 184.216V177.496H737.655V175.456H740.679V172H743.007V175.456H746.631V177.496H743.007V183.76C743.007 184.6 743.343 184.96 744.231 184.96H746.631V187H743.535ZM748.869 187V175.456H751.197V187H748.869ZM748.725 173.128V170.368H751.317V173.128H748.725ZM754.582 187V175.456H756.646V176.968C757.342 175.72 758.734 175.12 760.294 175.12C763.126 175.12 764.902 176.848 764.902 180.04V187H762.574V180.256C762.574 178.192 761.566 177.232 759.862 177.232C758.086 177.232 756.91 178.456 756.91 180.328V187H754.582ZM770.642 191.32C768.074 191.32 766.922 190.12 766.922 188.44C766.922 187.456 767.45 186.568 768.434 186.088C767.786 185.656 767.378 184.96 767.378 184.216C767.378 183.184 768.026 182.344 769.37 182.008C768.29 181.288 767.834 180.16 767.834 179.08C767.834 176.824 769.562 175.12 772.442 175.12C774.29 175.12 775.778 176.056 776.258 177.256V176.896C776.258 175.744 776.882 175.456 777.698 175.456H779.402V177.496H777.554C777.194 177.496 777.05 177.64 777.05 178V179.224C777.05 181.624 775.178 183.184 772.562 183.184H770.57C769.898 183.184 769.442 183.496 769.442 184.12C769.442 184.744 769.97 185.056 770.57 185.056H774.77C776.978 185.056 778.394 186.112 778.394 188.008C778.394 189.904 777.266 191.32 774.626 191.32H770.642ZM769.154 188.224C769.154 188.968 769.634 189.544 770.906 189.544H774.482C775.394 189.544 776.162 189.112 776.162 188.08C776.162 187.288 775.538 186.832 774.602 186.832H770.978C769.682 186.832 769.154 187.48 769.154 188.224ZM770.066 179.152C770.066 180.496 770.954 181.36 772.442 181.36C773.954 181.36 774.818 180.496 774.818 179.152C774.818 177.808 773.93 176.944 772.442 176.944C770.93 176.944 770.066 177.808 770.066 179.152ZM787.501 187V170.2H794.461C797.965 170.2 800.029 172.072 800.029 175.144C800.029 178.24 797.965 180.136 794.461 180.136H789.901V187H787.501ZM789.901 177.904H794.365C796.429 177.904 797.581 176.896 797.581 175.144C797.581 173.44 796.429 172.456 794.365 172.456H789.901V177.904ZM805.356 187.336C802.692 187.336 801.012 185.944 801.012 183.736C801.012 181.672 802.404 180.184 805.236 180.016L808.74 179.824V179.176C808.74 177.664 807.996 177.04 806.412 177.04C804.876 177.04 804.108 177.448 803.916 178.672H801.588C801.852 176.296 803.484 175.12 806.58 175.12C809.34 175.12 810.948 176.512 810.948 179.056V184.696C810.948 184.96 811.068 185.08 811.332 185.08H812.316V187H810.444C809.652 187 809.196 186.568 809.196 185.8V185.464C808.524 186.64 807.156 187.336 805.356 187.336ZM803.34 183.664C803.34 184.72 804.204 185.416 805.62 185.416C807.492 185.416 808.74 184.336 808.74 182.368V181.624L805.524 181.864C804.036 181.96 803.34 182.728 803.34 183.664ZM817.073 191.32C814.505 191.32 813.353 190.12 813.353 188.44C813.353 187.456 813.881 186.568 814.865 186.088C814.217 185.656 813.809 184.96 813.809 184.216C813.809 183.184 814.457 182.344 815.801 182.008C814.721 181.288 814.265 180.16 814.265 179.08C814.265 176.824 815.993 175.12 818.873 175.12C820.721 175.12 822.209 176.056 822.689 177.256V176.896C822.689 175.744 823.313 175.456 824.129 175.456H825.833V177.496H823.985C823.625 177.496 823.481 177.64 823.481 178V179.224C823.481 181.624 821.609 183.184 818.993 183.184H817.001C816.329 183.184 815.873 183.496 815.873 184.12C815.873 184.744 816.401 185.056 817.001 185.056H821.201C823.409 185.056 824.825 186.112 824.825 188.008C824.825 189.904 823.697 191.32 821.057 191.32H817.073ZM815.585 188.224C815.585 188.968 816.065 189.544 817.337 189.544H820.913C821.825 189.544 822.593 189.112 822.593 188.08C822.593 187.288 821.969 186.832 821.033 186.832H817.409C816.113 186.832 815.585 187.48 815.585 188.224ZM816.497 179.152C816.497 180.496 817.385 181.36 818.873 181.36C820.385 181.36 821.249 180.496 821.249 179.152C821.249 177.808 820.361 176.944 818.873 176.944C817.361 176.944 816.497 177.808 816.497 179.152ZM832.547 187.336C829.091 187.336 826.787 184.912 826.787 181.168C826.787 177.448 829.091 175.12 832.379 175.12C835.811 175.12 837.923 177.352 837.923 180.88C837.923 181.192 837.899 181.504 837.851 181.984H829.091C829.187 184.096 830.483 185.368 832.547 185.368C833.915 185.368 834.875 184.744 835.331 183.712H837.707C836.987 185.944 835.211 187.336 832.547 187.336ZM829.091 180.16H835.571V180.04C835.571 178.264 834.419 176.992 832.379 176.992C830.435 176.992 829.187 178.288 829.091 180.16Z" fill="#0D0D0D"/>
<path d="M1164.42 187V170.2H1171.62C1175.13 170.2 1177.19 172.024 1177.19 175.024C1177.19 177.904 1175.32 179.704 1172.13 179.872L1177.67 187H1174.67L1169.15 179.848H1166.82V187H1164.42ZM1166.82 177.664H1171.62C1173.62 177.664 1174.74 176.704 1174.74 175.024C1174.74 173.392 1173.62 172.456 1171.62 172.456H1166.82V177.664ZM1184.5 187.336C1181.04 187.336 1178.74 184.912 1178.74 181.168C1178.74 177.448 1181.04 175.12 1184.33 175.12C1187.76 175.12 1189.87 177.352 1189.87 180.88C1189.87 181.192 1189.85 181.504 1189.8 181.984H1181.04C1181.14 184.096 1182.43 185.368 1184.5 185.368C1185.87 185.368 1186.83 184.744 1187.28 183.712H1189.66C1188.94 185.944 1187.16 187.336 1184.5 187.336ZM1181.04 180.16H1187.52V180.04C1187.52 178.264 1186.37 176.992 1184.33 176.992C1182.39 176.992 1181.14 178.288 1181.04 180.16ZM1196.45 187.336C1193.33 187.336 1191.48 186.088 1191.36 183.712H1193.76C1193.88 184.864 1194.81 185.44 1196.49 185.44C1198.03 185.44 1198.97 184.792 1198.97 183.736C1198.97 182.872 1198.32 182.368 1197.12 182.248L1195.27 182.056C1193.11 181.84 1191.74 180.64 1191.74 178.72C1191.74 176.512 1193.59 175.12 1196.42 175.12C1199.3 175.12 1201.08 176.32 1201.22 178.672H1198.89C1198.82 177.568 1197.91 177.016 1196.4 177.016C1194.96 177.016 1194.05 177.616 1194.05 178.6C1194.05 179.44 1194.67 179.896 1196.01 180.064L1197.89 180.28C1200.07 180.52 1201.32 181.744 1201.32 183.64C1201.32 185.896 1199.42 187.336 1196.45 187.336ZM1203.85 191.32V175.456H1205.91V177.088C1206.65 175.84 1208.12 175.12 1209.92 175.12C1213.21 175.12 1215.46 177.568 1215.46 181.216C1215.46 184.888 1213.21 187.336 1209.92 187.336C1208.26 187.336 1206.92 186.712 1206.17 185.584V191.32H1203.85ZM1206.13 181.216C1206.13 183.616 1207.49 185.224 1209.58 185.224C1211.67 185.224 1213.06 183.616 1213.06 181.216C1213.06 178.84 1211.67 177.232 1209.58 177.232C1207.49 177.232 1206.13 178.84 1206.13 181.216ZM1223.34 187.336C1219.84 187.336 1217.39 184.888 1217.39 181.216C1217.39 177.568 1219.84 175.12 1223.34 175.12C1226.87 175.12 1229.3 177.568 1229.3 181.216C1229.3 184.888 1226.87 187.336 1223.34 187.336ZM1219.79 181.216C1219.79 183.616 1221.23 185.224 1223.34 185.224C1225.48 185.224 1226.9 183.616 1226.9 181.216C1226.9 178.84 1225.48 177.232 1223.34 177.232C1221.23 177.232 1219.79 178.84 1219.79 181.216ZM1231.96 187V175.456H1234.02V176.968C1234.72 175.72 1236.11 175.12 1237.67 175.12C1240.5 175.12 1242.28 176.848 1242.28 180.04V187H1239.95V180.256C1239.95 178.192 1238.94 177.232 1237.24 177.232C1235.46 177.232 1234.29 178.456 1234.29 180.328V187H1231.96ZM1249.56 187.336C1246.44 187.336 1244.59 186.088 1244.47 183.712H1246.87C1246.99 184.864 1247.92 185.44 1249.6 185.44C1251.14 185.44 1252.08 184.792 1252.08 183.736C1252.08 182.872 1251.43 182.368 1250.23 182.248L1248.38 182.056C1246.22 181.84 1244.85 180.64 1244.85 178.72C1244.85 176.512 1246.7 175.12 1249.53 175.12C1252.41 175.12 1254.19 176.32 1254.33 178.672H1252C1251.93 177.568 1251.02 177.016 1249.51 177.016C1248.07 177.016 1247.16 177.616 1247.16 178.6C1247.16 179.44 1247.78 179.896 1249.12 180.064L1251 180.28C1253.18 180.52 1254.43 181.744 1254.43 183.64C1254.43 185.896 1252.53 187.336 1249.56 187.336ZM1262.02 187.336C1258.56 187.336 1256.26 184.912 1256.26 181.168C1256.26 177.448 1258.56 175.12 1261.85 175.12C1265.28 175.12 1267.39 177.352 1267.39 180.88C1267.39 181.192 1267.37 181.504 1267.32 181.984H1258.56C1258.66 184.096 1259.95 185.368 1262.02 185.368C1263.39 185.368 1264.35 184.744 1264.8 183.712H1267.18C1266.46 185.944 1264.68 187.336 1262.02 187.336ZM1258.56 180.16H1265.04V180.04C1265.04 178.264 1263.89 176.992 1261.85 176.992C1259.91 176.992 1258.66 178.288 1258.56 180.16ZM1273.97 187.336C1270.85 187.336 1269 186.088 1268.88 183.712H1271.28C1271.4 184.864 1272.33 185.44 1274.01 185.44C1275.55 185.44 1276.49 184.792 1276.49 183.736C1276.49 182.872 1275.84 182.368 1274.64 182.248L1272.79 182.056C1270.63 181.84 1269.26 180.64 1269.26 178.72C1269.26 176.512 1271.11 175.12 1273.94 175.12C1276.82 175.12 1278.6 176.32 1278.74 178.672H1276.41C1276.34 177.568 1275.43 177.016 1273.92 177.016C1272.48 177.016 1271.57 177.616 1271.57 178.6C1271.57 179.44 1272.19 179.896 1273.53 180.064L1275.41 180.28C1277.59 180.52 1278.84 181.744 1278.84 183.64C1278.84 185.896 1276.94 187.336 1273.97 187.336Z" fill="#0D0D0D"/>
<rect x="129.5" y="441.5" width="92.6" height="77" rx="15.5" fill="#CECCC9"/>
<rect x="129.5" y="441.5" width="92.6" height="77" rx="15.5" stroke="#BFBDBA"/>
<path d="M145.389 491V488.088H151.245V471.576H147.181V468.6H154.349V488.088H160.109V491H145.389ZM170.501 491.448C165.093 491.448 161.989 488.632 161.989 484.664C161.989 482.072 163.621 479.896 166.117 479.096C163.877 478.328 162.629 476.344 162.629 474.2C162.629 470.648 165.733 468.152 170.501 468.152C175.301 468.152 178.405 470.648 178.405 474.2C178.405 476.344 177.157 478.328 174.917 479.096C177.413 479.896 179.045 482.072 179.045 484.664C179.045 488.632 175.941 491.448 170.501 491.448ZM165.189 484.568C165.189 487 167.077 488.76 170.501 488.76C173.957 488.76 175.845 487 175.845 484.568C175.845 482.104 173.829 480.472 170.501 480.472C167.205 480.472 165.189 482.104 165.189 484.568ZM165.829 474.392C165.829 476.472 167.621 477.848 170.501 477.848C173.381 477.848 175.205 476.472 175.205 474.392C175.205 472.312 173.477 470.84 170.501 470.84C167.557 470.84 165.829 472.312 165.829 474.392ZM186.62 467.832C188.198 467.832 189.393 468.461 190.204 469.72C191.014 470.957 191.42 472.707 191.42 474.968C191.42 477.229 191.025 479 190.236 480.28C189.468 481.539 188.262 482.168 186.62 482.168C185.617 482.168 184.764 481.88 184.06 481.304C183.356 480.728 182.822 479.907 182.46 478.84C182.118 477.752 181.948 476.461 181.948 474.968C181.948 472.707 182.321 470.957 183.068 469.72C183.814 468.461 184.998 467.832 186.62 467.832ZM186.62 469.816C185.809 469.816 185.212 470.253 184.828 471.128C184.465 471.981 184.284 473.261 184.284 474.968C184.284 476.675 184.465 477.965 184.828 478.84C185.212 479.715 185.809 480.152 186.62 480.152C187.452 480.152 188.07 479.725 188.476 478.872C188.881 477.997 189.084 476.696 189.084 474.968C189.084 473.261 188.881 471.981 188.476 471.128C188.07 470.253 187.452 469.816 186.62 469.816ZM201.244 468.152L188.572 491H186.108L198.78 468.152H201.244ZM200.604 476.984C201.649 476.984 202.524 477.272 203.228 477.848C203.932 478.403 204.465 479.213 204.828 480.28C205.212 481.325 205.404 482.605 205.404 484.12C205.404 486.381 205.009 488.152 204.22 489.432C203.452 490.691 202.246 491.32 200.604 491.32C199.601 491.32 198.748 491.032 198.044 490.456C197.34 489.88 196.806 489.059 196.444 487.992C196.102 486.904 195.932 485.613 195.932 484.12C195.932 481.859 196.305 480.109 197.052 478.872C197.798 477.613 198.982 476.984 200.604 476.984ZM200.604 479C199.793 479 199.196 479.427 198.812 480.28C198.449 481.133 198.268 482.413 198.268 484.12C198.268 485.848 198.449 487.149 198.812 488.024C199.196 488.877 199.793 489.304 200.604 489.304C201.436 489.304 202.054 488.877 202.46 488.024C202.865 487.171 203.068 485.869 203.068 484.12C203.068 482.413 202.865 481.133 202.46 480.28C202.054 479.427 201.436 479 200.604 479Z" fill="#0D0D0D"/>
<rect x="242.6" y="255" width="93.6" height="264" rx="16" fill="#0D0D0D"/>
<path d="M268.64 491.448C263.616 491.448 260.096 488.024 260.096 481.112C260.096 473.432 263.072 468.6 270.592 468.6H274.88V471.512H270.592C265.408 471.512 263.52 474.136 263.264 479.064C264.256 477.496 266.304 476.376 269.12 476.376C273.632 476.376 276.8 479.512 276.8 483.832C276.8 488.216 273.472 491.448 268.64 491.448ZM263.552 483.928C263.552 486.712 265.6 488.632 268.544 488.632C271.488 488.632 273.568 486.712 273.568 483.928C273.568 481.144 271.488 479.224 268.544 479.224C265.6 479.224 263.552 481.112 263.552 483.928ZM278.575 491V488.088H284.431V471.576H280.367V468.6H287.535V488.088H293.295V491H278.575ZM300.032 467.832C301.61 467.832 302.805 468.461 303.616 469.72C304.426 470.957 304.832 472.707 304.832 474.968C304.832 477.229 304.437 479 303.648 480.28C302.88 481.539 301.674 482.168 300.032 482.168C299.029 482.168 298.176 481.88 297.472 481.304C296.768 480.728 296.234 479.907 295.872 478.84C295.53 477.752 295.36 476.461 295.36 474.968C295.36 472.707 295.733 470.957 296.48 469.72C297.226 468.461 298.41 467.832 300.032 467.832ZM300.032 469.816C299.221 469.816 298.624 470.253 298.24 471.128C297.877 471.981 297.696 473.261 297.696 474.968C297.696 476.675 297.877 477.965 298.24 478.84C298.624 479.715 299.221 480.152 300.032 480.152C300.864 480.152 301.482 479.725 301.888 478.872C302.293 477.997 302.496 476.696 302.496 474.968C302.496 473.261 302.293 471.981 301.888 471.128C301.482 470.253 300.864 469.816 300.032 469.816ZM314.656 468.152L301.984 491H299.52L312.192 468.152H314.656ZM314.016 476.984C315.061 476.984 315.936 477.272 316.64 477.848C317.344 478.403 317.877 479.213 318.24 480.28C318.624 481.325 318.816 482.605 318.816 484.12C318.816 486.381 318.421 488.152 317.632 489.432C316.864 490.691 315.658 491.32 314.016 491.32C313.013 491.32 312.16 491.032 311.456 490.456C310.752 489.88 310.218 489.059 309.856 487.992C309.514 486.904 309.344 485.613 309.344 484.12C309.344 481.859 309.717 480.109 310.464 478.872C311.21 477.613 312.394 476.984 314.016 476.984ZM314.016 479C313.205 479 312.608 479.427 312.224 480.28C311.861 481.133 311.68 482.413 311.68 484.12C311.68 485.848 311.861 487.149 312.224 488.024C312.608 488.877 313.205 489.304 314.016 489.304C314.848 489.304 315.466 488.877 315.872 488.024C316.277 487.171 316.48 485.869 316.48 484.12C316.48 482.413 316.277 481.133 315.872 480.28C315.466 479.427 314.848 479 314.016 479Z" fill="white"/>
<path d="M165.952 561.28C162.232 561.28 159.672 558.84 159.672 554.02C159.672 549.2 162.132 546.72 165.992 546.72C169.032 546.72 171.112 548.48 171.532 551.48H169.432C169.132 549.64 167.752 548.58 165.992 548.58C163.432 548.58 161.732 550.24 161.732 553.98C161.732 557.68 163.512 559.42 165.952 559.42C167.892 559.42 169.112 558.12 169.432 556.32H171.512C171.032 559.22 169.112 561.28 165.952 561.28ZM177.941 561.28C175.021 561.28 172.981 559.24 172.981 556.18C172.981 553.14 175.021 551.1 177.941 551.1C180.881 551.1 182.901 553.14 182.901 556.18C182.901 559.24 180.881 561.28 177.941 561.28ZM174.981 556.18C174.981 558.18 176.181 559.52 177.941 559.52C179.721 559.52 180.901 558.18 180.901 556.18C180.901 554.2 179.721 552.86 177.941 552.86C176.181 552.86 174.981 554.2 174.981 556.18ZM185.121 561V551.38H186.841V552.64C187.421 551.6 188.581 551.1 189.881 551.1C192.241 551.1 193.721 552.54 193.721 555.2V561H191.781V555.38C191.781 553.66 190.941 552.86 189.521 552.86C188.041 552.86 187.061 553.88 187.061 555.44V561H185.121ZM198.715 561L194.715 551.38H196.875L199.835 558.92L202.775 551.38H204.935L200.915 561H198.715ZM210.345 561.28C207.465 561.28 205.545 559.26 205.545 556.14C205.545 553.04 207.465 551.1 210.205 551.1C213.065 551.1 214.825 552.96 214.825 555.9C214.825 556.16 214.805 556.42 214.765 556.82H207.465C207.545 558.58 208.625 559.64 210.345 559.64C211.485 559.64 212.285 559.12 212.665 558.26H214.645C214.045 560.12 212.565 561.28 210.345 561.28ZM207.465 555.3H212.865V555.2C212.865 553.72 211.905 552.66 210.205 552.66C208.585 552.66 207.545 553.74 207.465 555.3ZM216.962 561V551.38H218.682V552.94C218.922 551.98 219.642 551.38 220.782 551.38H222.622V553.08H220.602C219.402 553.08 218.902 553.76 218.902 555.06V561H216.962ZM227.427 561.28C224.827 561.28 223.287 560.24 223.187 558.26H225.187C225.287 559.22 226.067 559.7 227.467 559.7C228.747 559.7 229.527 559.16 229.527 558.28C229.527 557.56 228.987 557.14 227.987 557.04L226.447 556.88C224.647 556.7 223.507 555.7 223.507 554.1C223.507 552.26 225.047 551.1 227.407 551.1C229.807 551.1 231.287 552.1 231.407 554.06H229.467C229.407 553.14 228.647 552.68 227.387 552.68C226.187 552.68 225.427 553.18 225.427 554C225.427 554.7 225.947 555.08 227.067 555.22L228.627 555.4C230.447 555.6 231.487 556.62 231.487 558.2C231.487 560.08 229.907 561.28 227.427 561.28ZM233.594 561V551.38H235.534V561H233.594ZM233.474 549.44V547.14H235.634V549.44H233.474ZM242.694 561.28C239.774 561.28 237.734 559.24 237.734 556.18C237.734 553.14 239.774 551.1 242.694 551.1C245.634 551.1 247.654 553.14 247.654 556.18C247.654 559.24 245.634 561.28 242.694 561.28ZM239.734 556.18C239.734 558.18 240.934 559.52 242.694 559.52C244.474 559.52 245.654 558.18 245.654 556.18C245.654 554.2 244.474 552.86 242.694 552.86C240.934 552.86 239.734 554.2 239.734 556.18ZM249.873 561V551.38H251.593V552.64C252.173 551.6 253.333 551.1 254.633 551.1C256.993 551.1 258.473 552.54 258.473 555.2V561H256.533V555.38C256.533 553.66 255.693 552.86 254.273 552.86C252.793 552.86 251.813 553.88 251.813 555.44V561H249.873ZM266.334 561V547H272.334C275.254 547 276.974 548.52 276.974 551.02C276.974 553.42 275.414 554.92 272.754 555.06L277.374 561H274.874L270.274 555.04H268.334V561H266.334ZM268.334 553.22H272.334C273.994 553.22 274.934 552.42 274.934 551.02C274.934 549.66 273.994 548.88 272.334 548.88H268.334V553.22ZM282.092 561.28C279.872 561.28 278.472 560.12 278.472 558.28C278.472 556.56 279.632 555.32 281.992 555.18L284.912 555.02V554.48C284.912 553.22 284.292 552.7 282.972 552.7C281.692 552.7 281.052 553.04 280.892 554.06H278.952C279.172 552.08 280.532 551.1 283.112 551.1C285.412 551.1 286.752 552.26 286.752 554.38V559.08C286.752 559.3 286.852 559.4 287.072 559.4H287.892V561H286.332C285.672 561 285.292 560.64 285.292 560V559.72C284.732 560.7 283.592 561.28 282.092 561.28ZM280.412 558.22C280.412 559.1 281.132 559.68 282.312 559.68C283.872 559.68 284.912 558.78 284.912 557.14V556.52L282.232 556.72C280.992 556.8 280.412 557.44 280.412 558.22ZM293.042 561C291.382 561 290.662 560.34 290.662 558.68V553.08H288.142V551.38H290.662V548.5H292.602V551.38H295.622V553.08H292.602V558.3C292.602 559 292.882 559.3 293.622 559.3H295.622V561H293.042ZM301.431 561.28C298.551 561.28 296.631 559.26 296.631 556.14C296.631 553.04 298.551 551.1 301.291 551.1C304.151 551.1 305.911 552.96 305.911 555.9C305.911 556.16 305.891 556.42 305.851 556.82H298.551C298.631 558.58 299.711 559.64 301.431 559.64C302.571 559.64 303.371 559.12 303.751 558.26H305.731C305.131 560.12 303.651 561.28 301.431 561.28ZM298.551 555.3H303.951V555.2C303.951 553.72 302.991 552.66 301.291 552.66C299.671 552.66 298.631 553.74 298.551 555.3Z" fill="#0D0D0D"/>
<rect x="204.6" y="575.5" width="56" height="20" rx="10" stroke="#0B8900"/>
<path d="M214.635 584.568H217.421V585.562H214.635V588.446H213.627V585.562H210.841V584.568H213.627V581.67H214.635V584.568ZM218.74 590V588.726H221.82C223.22 588.726 224.032 588.068 224.032 586.976C224.032 585.968 223.248 585.338 221.89 585.338H220.42V584.204L223.262 581.474H218.6V580.2H225.054V581.474L222.1 584.232H222.282C224.214 584.232 225.446 585.324 225.446 586.962C225.446 588.796 223.99 590 221.82 590H218.74ZM227.065 590V588.082H228.745V590H227.065ZM230.567 590V588.726H233.647C235.047 588.726 235.859 588.068 235.859 586.976C235.859 585.968 235.075 585.338 233.717 585.338H232.247V584.204L235.089 581.474H230.427V580.2H236.881V581.474L233.927 584.232H234.109C236.041 584.232 237.273 585.324 237.273 586.962C237.273 588.796 235.817 590 233.647 590H230.567ZM237.899 590L240.517 586.528L238.039 583.266H239.691L241.399 585.59L243.093 583.266H244.745L242.267 586.528L244.885 590H243.233L241.399 587.536L239.551 590H237.899Z" fill="#0B8900"/>
<path fill-rule="evenodd" clip-rule="evenodd" d="M248.1 585.625L251.6 580L255.1 585.625H252.206V590H250.993V585.625H248.1Z" fill="#0B8900"/>
<rect x="376.699" y="407.5" width="92.6" height="111" rx="15.5" fill="#CECCC9"/>
<rect x="376.699" y="407.5" width="92.6" height="111" rx="15.5" stroke="#BFBDBA"/>
<path d="M391.972 487.064C391.972 482.936 393.892 481.016 397.476 479.992L400.612 479.096C403.076 478.392 404.228 477.208 404.228 475.192C404.228 472.984 402.66 471.512 400.26 471.512H393.06V468.6H400.26C404.516 468.6 407.46 471.192 407.46 475.192C407.46 478.424 405.284 480.632 402.148 481.592L398.308 482.744C396.1 483.416 395.204 484.504 395.204 486.52V488.088H407.268V491H391.972V487.064ZM418.889 491.448C413.865 491.448 410.345 488.024 410.345 481.112C410.345 473.432 413.321 468.6 420.841 468.6H425.129V471.512H420.841C415.657 471.512 413.769 474.136 413.513 479.064C414.505 477.496 416.553 476.376 419.369 476.376C423.881 476.376 427.049 479.512 427.049 483.832C427.049 488.216 423.721 491.448 418.889 491.448ZM413.801 483.928C413.801 486.712 415.849 488.632 418.793 488.632C421.737 488.632 423.817 486.712 423.817 483.928C423.817 481.144 421.737 479.224 418.793 479.224C415.849 479.224 413.801 481.112 413.801 483.928ZM434.194 467.832C435.772 467.832 436.967 468.461 437.778 469.72C438.588 470.957 438.994 472.707 438.994 474.968C438.994 477.229 438.599 479 437.81 480.28C437.042 481.539 435.836 482.168 434.194 482.168C433.191 482.168 432.338 481.88 431.634 481.304C430.93 480.728 430.396 479.907 430.034 478.84C429.692 477.752 429.522 476.461 429.522 474.968C429.522 472.707 429.895 470.957 430.642 469.72C431.388 468.461 432.572 467.832 434.194 467.832ZM434.194 469.816C433.383 469.816 432.786 470.253 432.402 471.128C432.039 471.981 431.858 473.261 431.858 474.968C431.858 476.675 432.039 477.965 432.402 478.84C432.786 479.715 433.383 480.152 434.194 480.152C435.026 480.152 435.644 479.725 436.05 478.872C436.455 477.997 436.658 476.696 436.658 474.968C436.658 473.261 436.455 471.981 436.05 471.128C435.644 470.253 435.026 469.816 434.194 469.816ZM448.818 468.152L436.146 491H433.682L446.354 468.152H448.818ZM448.178 476.984C449.223 476.984 450.098 477.272 450.802 477.848C451.506 478.403 452.039 479.213 452.402 480.28C452.786 481.325 452.978 482.605 452.978 484.12C452.978 486.381 452.583 488.152 451.794 489.432C451.026 490.691 449.82 491.32 448.178 491.32C447.175 491.32 446.322 491.032 445.618 490.456C444.914 489.88 444.38 489.059 444.018 487.992C443.676 486.904 443.506 485.613 443.506 484.12C443.506 481.859 443.879 480.109 444.626 478.872C445.372 477.613 446.556 476.984 448.178 476.984ZM448.178 479C447.367 479 446.77 479.427 446.386 480.28C446.023 481.133 445.842 482.413 445.842 484.12C445.842 485.848 446.023 487.149 446.386 488.024C446.77 488.877 447.367 489.304 448.178 489.304C449.01 489.304 449.628 488.877 450.034 488.024C450.439 487.171 450.642 485.869 450.642 484.12C450.642 482.413 450.439 481.133 450.034 480.28C449.628 479.427 449.01 479 448.178 479Z" fill="#0D0D0D"/>
<rect x="489.799" y="506" width="93.6" height="13" rx="6.5" fill="#0D0D0D"/>
<path d="M502.944 491V488.088H509.984C513.184 488.088 515.04 486.584 515.04 484.088C515.04 481.784 513.248 480.344 510.144 480.344H506.784V477.752L513.28 471.512H502.624V468.6H517.376V471.512L510.624 477.816H511.04C515.456 477.816 518.272 480.312 518.272 484.056C518.272 488.248 514.944 491 509.984 491H502.944ZM521.651 491V486.616H525.491V491H521.651ZM529.11 491V488.088H534.966V471.576H530.902V468.6H538.07V488.088H543.83V491H529.11ZM550.567 467.832C552.146 467.832 553.34 468.461 554.151 469.72C554.962 470.957 555.367 472.707 555.367 474.968C555.367 477.229 554.972 479 554.183 480.28C553.415 481.539 552.21 482.168 550.567 482.168C549.564 482.168 548.711 481.88 548.007 481.304C547.303 480.728 546.77 479.907 546.407 478.84C546.066 477.752 545.895 476.461 545.895 474.968C545.895 472.707 546.268 470.957 547.015 469.72C547.762 468.461 548.946 467.832 550.567 467.832ZM550.567 469.816C549.756 469.816 549.159 470.253 548.775 471.128C548.412 471.981 548.231 473.261 548.231 474.968C548.231 476.675 548.412 477.965 548.775 478.84C549.159 479.715 549.756 480.152 550.567 480.152C551.399 480.152 552.018 479.725 552.423 478.872C552.828 477.997 553.031 476.696 553.031 474.968C553.031 473.261 552.828 471.981 552.423 471.128C552.018 470.253 551.399 469.816 550.567 469.816ZM565.191 468.152L552.519 491H550.055L562.727 468.152H565.191ZM564.551 476.984C565.596 476.984 566.471 477.272 567.175 477.848C567.879 478.403 568.412 479.213 568.775 480.28C569.159 481.325 569.351 482.605 569.351 484.12C569.351 486.381 568.956 488.152 568.167 489.432C567.399 490.691 566.194 491.32 564.551 491.32C563.548 491.32 562.695 491.032 561.991 490.456C561.287 489.88 560.754 489.059 560.391 487.992C560.05 486.904 559.879 485.613 559.879 484.12C559.879 481.859 560.252 480.109 560.999 478.872C561.746 477.613 562.93 476.984 564.551 476.984ZM564.551 479C563.74 479 563.143 479.427 562.759 480.28C562.396 481.133 562.215 482.413 562.215 484.12C562.215 485.848 562.396 487.149 562.759 488.024C563.143 488.877 563.74 489.304 564.551 489.304C565.383 489.304 566.002 488.877 566.407 488.024C566.812 487.171 567.015 485.869 567.015 484.12C567.015 482.413 566.812 481.133 566.407 480.28C566.002 479.427 565.383 479 564.551 479Z" fill="#0D0D0D"/>
<path d="M423.879 561V547H429.759C432.299 547 433.899 548.34 433.899 550.46C433.899 551.84 433.139 553.02 431.999 553.58C433.379 554.08 434.299 555.3 434.299 556.96C434.299 559.34 432.719 561 430.019 561H423.879ZM425.879 559.16H429.739C431.339 559.16 432.259 558.28 432.259 556.8C432.259 555.32 431.379 554.5 429.739 554.5H425.879V559.16ZM425.879 552.78H429.479C430.999 552.78 431.859 552.04 431.859 550.78C431.859 549.5 430.979 548.84 429.479 548.84H425.879V552.78ZM441.215 561.28C438.295 561.28 436.255 559.24 436.255 556.18C436.255 553.14 438.295 551.1 441.215 551.1C444.155 551.1 446.175 553.14 446.175 556.18C446.175 559.24 444.155 561.28 441.215 561.28ZM438.255 556.18C438.255 558.18 439.455 559.52 441.215 559.52C442.995 559.52 444.175 558.18 444.175 556.18C444.175 554.2 442.995 552.86 441.215 552.86C439.455 552.86 438.255 554.2 438.255 556.18ZM451.993 561.28C449.653 561.28 448.213 559.84 448.213 557.18V551.38H450.153V557C450.153 558.72 450.953 559.52 452.353 559.52C453.813 559.52 454.753 558.48 454.753 556.94V551.38H456.693V561H454.973V559.9C454.333 560.84 453.233 561.28 451.993 561.28ZM459.464 561V551.38H461.184V552.64C461.764 551.6 462.924 551.1 464.224 551.1C466.584 551.1 468.064 552.54 468.064 555.2V561H466.124V555.38C466.124 553.66 465.284 552.86 463.864 552.86C462.384 552.86 461.404 553.88 461.404 555.44V561H459.464ZM474.868 561.28C471.988 561.28 470.128 559.14 470.128 556.22C470.128 553.22 472.088 551.1 474.988 551.1C477.428 551.1 479.088 552.52 479.308 554.54H477.328C477.148 553.64 476.348 552.86 474.968 552.86C473.248 552.86 472.128 554.16 472.128 556.18C472.128 558.24 473.268 559.52 474.928 559.52C476.228 559.52 477.168 558.76 477.368 557.64H479.348C479.088 559.56 477.488 561.28 474.868 561.28ZM485.411 561.28C482.531 561.28 480.611 559.26 480.611 556.14C480.611 553.04 482.531 551.1 485.271 551.1C488.131 551.1 489.891 552.96 489.891 555.9C489.891 556.16 489.871 556.42 489.831 556.82H482.531C482.611 558.58 483.691 559.64 485.411 559.64C486.551 559.64 487.351 559.12 487.731 558.26H489.711C489.111 560.12 487.631 561.28 485.411 561.28ZM482.531 555.3H487.931V555.2C487.931 553.72 486.971 552.66 485.271 552.66C483.651 552.66 482.611 553.74 482.531 555.3ZM497.166 561V547H503.166C506.086 547 507.806 548.52 507.806 551.02C507.806 553.42 506.246 554.92 503.586 555.06L508.206 561H505.706L501.106 555.04H499.166V561H497.166ZM499.166 553.22H503.166C504.826 553.22 505.766 552.42 505.766 551.02C505.766 549.66 504.826 548.88 503.166 548.88H499.166V553.22ZM512.924 561.28C510.704 561.28 509.304 560.12 509.304 558.28C509.304 556.56 510.464 555.32 512.824 555.18L515.744 555.02V554.48C515.744 553.22 515.124 552.7 513.804 552.7C512.524 552.7 511.884 553.04 511.724 554.06H509.784C510.004 552.08 511.364 551.1 513.944 551.1C516.244 551.1 517.584 552.26 517.584 554.38V559.08C517.584 559.3 517.684 559.4 517.904 559.4H518.724V561H517.164C516.504 561 516.124 560.64 516.124 560V559.72C515.564 560.7 514.424 561.28 512.924 561.28ZM511.244 558.22C511.244 559.1 511.964 559.68 513.144 559.68C514.704 559.68 515.744 558.78 515.744 557.14V556.52L513.064 556.72C511.824 556.8 511.244 557.44 511.244 558.22ZM523.874 561C522.214 561 521.494 560.34 521.494 558.68V553.08H518.974V551.38H521.494V548.5H523.434V551.38H526.454V553.08H523.434V558.3C523.434 559 523.714 559.3 524.454 559.3H526.454V561H523.874ZM532.263 561.28C529.383 561.28 527.463 559.26 527.463 556.14C527.463 553.04 529.383 551.1 532.123 551.1C534.983 551.1 536.743 552.96 536.743 555.9C536.743 556.16 536.723 556.42 536.683 556.82H529.383C529.463 558.58 530.543 559.64 532.263 559.64C533.403 559.64 534.203 559.12 534.583 558.26H536.563C535.963 560.12 534.483 561.28 532.263 561.28ZM529.383 555.3H534.783V555.2C534.783 553.72 533.823 552.66 532.123 552.66C530.503 552.66 529.463 553.74 529.383 555.3Z" fill="#0D0D0D"/>
<rect x="452.299" y="575.5" width="55" height="20" rx="10" stroke="#0B8900"/>
<path d="M458.594 587.004V585.702H462.85V587.004H458.594ZM467.977 590.196C465.611 590.196 464.253 588.964 464.253 587.228C464.253 586.094 464.967 585.142 466.059 584.792C465.079 584.456 464.533 583.588 464.533 582.65C464.533 581.096 465.891 580.004 467.977 580.004C470.077 580.004 471.435 581.096 471.435 582.65C471.435 583.588 470.889 584.456 469.909 584.792C471.001 585.142 471.715 586.094 471.715 587.228C471.715 588.964 470.357 590.196 467.977 590.196ZM465.653 587.186C465.653 588.25 466.479 589.02 467.977 589.02C469.489 589.02 470.315 588.25 470.315 587.186C470.315 586.108 469.433 585.394 467.977 585.394C466.535 585.394 465.653 586.108 465.653 587.186ZM465.933 582.734C465.933 583.644 466.717 584.246 467.977 584.246C469.237 584.246 470.035 583.644 470.035 582.734C470.035 581.824 469.279 581.18 467.977 581.18C466.689 581.18 465.933 581.824 465.933 582.734ZM473.504 590V588.082H475.184V590H473.504ZM481.595 590V587.088H476.345V585.856L481.063 580.2H482.953V585.856H484.563V587.088H482.953V590H481.595ZM477.857 585.856H481.595V581.376L477.857 585.856ZM484.599 590L487.217 586.528L484.739 583.266H486.391L488.099 585.59L489.793 583.266H491.445L488.967 586.528L491.585 590H489.933L488.099 587.536L486.251 590H484.599Z" fill="#0B8900"/>
<path fill-rule="evenodd" clip-rule="evenodd" d="M501.799 584.875L498.299 590.5L494.799 584.875H497.693V580.5H498.905V584.875H501.799Z" fill="#0B8900"/>
<rect x="623.4" y="255" width="1" height="264" rx="0.5" fill="#B5B2B0"/>
<rect x="664.9" y="499.5" width="92.6" height="19" rx="9.5" fill="#CECCC9"/>
<rect x="664.9" y="499.5" width="92.6" height="19" rx="9.5" stroke="#BFBDBA"/>
<path d="M684.441 491.448C679.417 491.448 675.897 488.024 675.897 481.112C675.897 473.432 678.873 468.6 686.393 468.6H690.681V471.512H686.393C681.209 471.512 679.321 474.136 679.065 479.064C680.057 477.496 682.105 476.376 684.921 476.376C689.433 476.376 692.601 479.512 692.601 483.832C692.601 488.216 689.273 491.448 684.441 491.448ZM679.353 483.928C679.353 486.712 681.401 488.632 684.345 488.632C687.289 488.632 689.369 486.712 689.369 483.928C689.369 481.144 687.289 479.224 684.345 479.224C681.401 479.224 679.353 481.112 679.353 483.928ZM696.002 491V486.616H699.842V491H696.002ZM714.175 491V484.344H702.175V481.528L712.959 468.6H717.279V481.528H720.959V484.344H717.279V491H714.175ZM705.631 481.528H714.175V471.288L705.631 481.528ZM727.419 467.832C728.997 467.832 730.192 468.461 731.003 469.72C731.813 470.957 732.219 472.707 732.219 474.968C732.219 477.229 731.824 479 731.035 480.28C730.267 481.539 729.061 482.168 727.419 482.168C726.416 482.168 725.563 481.88 724.859 481.304C724.155 480.728 723.621 479.907 723.259 478.84C722.917 477.752 722.747 476.461 722.747 474.968C722.747 472.707 723.12 470.957 723.867 469.72C724.613 468.461 725.797 467.832 727.419 467.832ZM727.419 469.816C726.608 469.816 726.011 470.253 725.627 471.128C725.264 471.981 725.083 473.261 725.083 474.968C725.083 476.675 725.264 477.965 725.627 478.84C726.011 479.715 726.608 480.152 727.419 480.152C728.251 480.152 728.869 479.725 729.275 478.872C729.68 477.997 729.883 476.696 729.883 474.968C729.883 473.261 729.68 471.981 729.275 471.128C728.869 470.253 728.251 469.816 727.419 469.816ZM742.043 468.152L729.371 491H726.907L739.579 468.152H742.043ZM741.403 476.984C742.448 476.984 743.323 477.272 744.027 477.848C744.731 478.403 745.264 479.213 745.627 480.28C746.011 481.325 746.203 482.605 746.203 484.12C746.203 486.381 745.808 488.152 745.019 489.432C744.251 490.691 743.045 491.32 741.403 491.32C740.4 491.32 739.547 491.032 738.843 490.456C738.139 489.88 737.605 489.059 737.243 487.992C736.901 486.904 736.731 485.613 736.731 484.12C736.731 481.859 737.104 480.109 737.851 478.872C738.597 477.613 739.781 476.984 741.403 476.984ZM741.403 479C740.592 479 739.995 479.427 739.611 480.28C739.248 481.133 739.067 482.413 739.067 484.12C739.067 485.848 739.248 487.149 739.611 488.024C739.995 488.877 740.592 489.304 741.403 489.304C742.235 489.304 742.853 488.877 743.259 488.024C743.664 487.171 743.867 485.869 743.867 484.12C743.867 482.413 743.664 481.133 743.259 480.28C742.853 479.427 742.235 479 741.403 479Z" fill="#0D0D0D"/>
<rect x="778" y="462" width="93.6" height="57" rx="16" fill="#0D0D0D"/>
<path d="M794.889 491V488.088H800.745V471.576H796.681V468.6H803.849V488.088H809.609V491H794.889ZM811.731 491V488.088H818.771C821.971 488.088 823.827 486.584 823.827 484.088C823.827 481.784 822.035 480.344 818.931 480.344H815.571V477.752L822.067 471.512H811.411V468.6H826.163V471.512L819.411 477.816H819.827C824.243 477.816 827.059 480.312 827.059 484.056C827.059 488.248 823.731 491 818.771 491H811.731ZM834.651 467.832C836.229 467.832 837.424 468.461 838.235 469.72C839.045 470.957 839.451 472.707 839.451 474.968C839.451 477.229 839.056 479 838.267 480.28C837.499 481.539 836.293 482.168 834.651 482.168C833.648 482.168 832.795 481.88 832.091 481.304C831.387 480.728 830.853 479.907 830.491 478.84C830.149 477.752 829.979 476.461 829.979 474.968C829.979 472.707 830.352 470.957 831.099 469.72C831.845 468.461 833.029 467.832 834.651 467.832ZM834.651 469.816C833.84 469.816 833.243 470.253 832.859 471.128C832.496 471.981 832.315 473.261 832.315 474.968C832.315 476.675 832.496 477.965 832.859 478.84C833.243 479.715 833.84 480.152 834.651 480.152C835.483 480.152 836.101 479.725 836.507 478.872C836.912 477.997 837.115 476.696 837.115 474.968C837.115 473.261 836.912 471.981 836.507 471.128C836.101 470.253 835.483 469.816 834.651 469.816ZM849.275 468.152L836.603 491H834.139L846.811 468.152H849.275ZM848.635 476.984C849.68 476.984 850.555 477.272 851.259 477.848C851.963 478.403 852.496 479.213 852.859 480.28C853.243 481.325 853.435 482.605 853.435 484.12C853.435 486.381 853.04 488.152 852.251 489.432C851.483 490.691 850.277 491.32 848.635 491.32C847.632 491.32 846.779 491.032 846.075 490.456C845.371 489.88 844.837 489.059 844.475 487.992C844.133 486.904 843.963 485.613 843.963 484.12C843.963 481.859 844.336 480.109 845.083 478.872C845.829 477.613 847.013 476.984 848.635 476.984ZM848.635 479C847.824 479 847.227 479.427 846.843 480.28C846.48 481.133 846.299 482.413 846.299 484.12C846.299 485.848 846.48 487.149 846.843 488.024C847.227 488.877 847.824 489.304 848.635 489.304C849.467 489.304 850.085 488.877 850.491 488.024C850.896 487.171 851.099 485.869 851.099 484.12C851.099 482.413 850.896 481.133 850.491 480.28C850.085 479.427 849.467 479 848.635 479Z" fill="white"/>
<path d="M701.352 561.28C697.632 561.28 695.072 558.84 695.072 554.02C695.072 549.2 697.532 546.72 701.392 546.72C704.432 546.72 706.512 548.48 706.932 551.48H704.832C704.532 549.64 703.152 548.58 701.392 548.58C698.832 548.58 697.132 550.24 697.132 553.98C697.132 557.68 698.912 559.42 701.352 559.42C703.292 559.42 704.512 558.12 704.832 556.32H706.912C706.432 559.22 704.512 561.28 701.352 561.28ZM713.342 561.28C710.422 561.28 708.382 559.24 708.382 556.18C708.382 553.14 710.422 551.1 713.342 551.1C716.282 551.1 718.302 553.14 718.302 556.18C718.302 559.24 716.282 561.28 713.342 561.28ZM710.382 556.18C710.382 558.18 711.582 559.52 713.342 559.52C715.122 559.52 716.302 558.18 716.302 556.18C716.302 554.2 715.122 552.86 713.342 552.86C711.582 552.86 710.382 554.2 710.382 556.18ZM720.521 561V551.38H722.241V552.64C722.821 551.6 723.981 551.1 725.281 551.1C727.641 551.1 729.121 552.54 729.121 555.2V561H727.181V555.38C727.181 553.66 726.341 552.86 724.921 552.86C723.441 552.86 722.461 553.88 722.461 555.44V561H720.521ZM734.115 561L730.115 551.38H732.275L735.235 558.92L738.175 551.38H740.335L736.315 561H734.115ZM745.746 561.28C742.866 561.28 740.946 559.26 740.946 556.14C740.946 553.04 742.866 551.1 745.606 551.1C748.466 551.1 750.226 552.96 750.226 555.9C750.226 556.16 750.206 556.42 750.166 556.82H742.866C742.946 558.58 744.026 559.64 745.746 559.64C746.886 559.64 747.686 559.12 748.066 558.26H750.046C749.446 560.12 747.966 561.28 745.746 561.28ZM742.866 555.3H748.266V555.2C748.266 553.72 747.306 552.66 745.606 552.66C743.986 552.66 742.946 553.74 742.866 555.3ZM752.363 561V551.38H754.083V552.94C754.323 551.98 755.043 551.38 756.183 551.38H758.023V553.08H756.003C754.803 553.08 754.303 553.76 754.303 555.06V561H752.363ZM762.827 561.28C760.227 561.28 758.687 560.24 758.587 558.26H760.587C760.687 559.22 761.467 559.7 762.867 559.7C764.147 559.7 764.927 559.16 764.927 558.28C764.927 557.56 764.387 557.14 763.387 557.04L761.847 556.88C760.047 556.7 758.907 555.7 758.907 554.1C758.907 552.26 760.447 551.1 762.807 551.1C765.207 551.1 766.687 552.1 766.807 554.06H764.867C764.807 553.14 764.047 552.68 762.787 552.68C761.587 552.68 760.827 553.18 760.827 554C760.827 554.7 761.347 555.08 762.467 555.22L764.027 555.4C765.847 555.6 766.887 556.62 766.887 558.2C766.887 560.08 765.307 561.28 762.827 561.28ZM768.994 561V551.38H770.934V561H768.994ZM768.874 549.44V547.14H771.034V549.44H768.874ZM778.094 561.28C775.174 561.28 773.134 559.24 773.134 556.18C773.134 553.14 775.174 551.1 778.094 551.1C781.034 551.1 783.054 553.14 783.054 556.18C783.054 559.24 781.034 561.28 778.094 561.28ZM775.134 556.18C775.134 558.18 776.334 559.52 778.094 559.52C779.874 559.52 781.054 558.18 781.054 556.18C781.054 554.2 779.874 552.86 778.094 552.86C776.334 552.86 775.134 554.2 775.134 556.18ZM785.274 561V551.38H786.994V552.64C787.574 551.6 788.734 551.1 790.034 551.1C792.394 551.1 793.874 552.54 793.874 555.2V561H791.934V555.38C791.934 553.66 791.094 552.86 789.674 552.86C788.194 552.86 787.214 553.88 787.214 555.44V561H785.274ZM801.735 561V547H807.735C810.655 547 812.375 548.52 812.375 551.02C812.375 553.42 810.815 554.92 808.155 555.06L812.775 561H810.275L805.675 555.04H803.735V561H801.735ZM803.735 553.22H807.735C809.395 553.22 810.335 552.42 810.335 551.02C810.335 549.66 809.395 548.88 807.735 548.88H803.735V553.22ZM817.493 561.28C815.273 561.28 813.873 560.12 813.873 558.28C813.873 556.56 815.033 555.32 817.393 555.18L820.313 555.02V554.48C820.313 553.22 819.693 552.7 818.373 552.7C817.093 552.7 816.453 553.04 816.293 554.06H814.353C814.573 552.08 815.933 551.1 818.513 551.1C820.813 551.1 822.153 552.26 822.153 554.38V559.08C822.153 559.3 822.253 559.4 822.473 559.4H823.293V561H821.733C821.073 561 820.693 560.64 820.693 560V559.72C820.133 560.7 818.993 561.28 817.493 561.28ZM815.813 558.22C815.813 559.1 816.533 559.68 817.713 559.68C819.273 559.68 820.313 558.78 820.313 557.14V556.52L817.633 556.72C816.393 556.8 815.813 557.44 815.813 558.22ZM828.442 561C826.782 561 826.062 560.34 826.062 558.68V553.08H823.542V551.38H826.062V548.5H828.002V551.38H831.022V553.08H828.002V558.3C828.002 559 828.282 559.3 829.022 559.3H831.022V561H828.442ZM836.832 561.28C833.952 561.28 832.032 559.26 832.032 556.14C832.032 553.04 833.952 551.1 836.692 551.1C839.552 551.1 841.312 552.96 841.312 555.9C841.312 556.16 841.292 556.42 841.252 556.82H833.952C834.032 558.58 835.112 559.64 836.832 559.64C837.972 559.64 838.772 559.12 839.152 558.26H841.132C840.532 560.12 839.052 561.28 836.832 561.28ZM833.952 555.3H839.352V555.2C839.352 553.72 838.392 552.66 836.692 552.66C835.072 552.66 834.032 553.74 833.952 555.3Z" fill="#0D0D0D"/>
<rect x="740" y="575.5" width="56" height="20" rx="10" stroke="#0B8900"/>
<path d="M750.199 584.568H752.985V585.562H750.199V588.446H749.191V585.562H746.405V584.568H749.191V581.67H750.199V584.568ZM754.361 588.278C754.361 586.472 755.201 585.632 756.769 585.184L758.141 584.792C759.219 584.484 759.723 583.966 759.723 583.084C759.723 582.118 759.037 581.474 757.987 581.474H754.837V580.2H757.987C759.849 580.2 761.137 581.334 761.137 583.084C761.137 584.498 760.185 585.464 758.813 585.884L757.133 586.388C756.167 586.682 755.775 587.158 755.775 588.04V588.726H761.053V590H754.361V588.278ZM762.889 590V588.082H764.569V590H762.889ZM766.292 590V588.726H768.854V581.502H767.076V580.2H770.212V588.726H772.732V590H766.292ZM773.3 590L775.918 586.528L773.44 583.266H775.092L776.8 585.59L778.494 583.266H780.146L777.668 586.528L780.286 590H778.634L776.8 587.536L774.952 590H773.3Z" fill="#0B8900"/>
<path fill-rule="evenodd" clip-rule="evenodd" d="M783.5 585.625L787 580L790.5 585.625H787.606V590H786.394V585.625H783.5Z" fill="#0B8900"/>
<rect x="911.6" y="255" width="1" height="264" rx="0.5" fill="#B5B2B0"/>
<rect x="953.1" y="446.5" width="92.6" height="72" rx="15.5" fill="#CECCC9"/>
<rect x="953.1" y="446.5" width="92.6" height="72" rx="15.5" stroke="#BFBDBA"/>
<path d="M970.988 491V488.088H976.844V471.576H972.78V468.6H979.948V488.088H985.708V491H970.988ZM990.535 485.848C990.535 480.824 991.335 477.528 995.143 473.88L997.607 471.512H985.543V468.6H1001.8V471.512L997.863 475.224C994.855 478.136 993.767 480.6 993.767 485.688V491H990.535V485.848ZM1008.5 467.832C1010.08 467.832 1011.27 468.461 1012.08 469.72C1012.9 470.957 1013.3 472.707 1013.3 474.968C1013.3 477.229 1012.91 479 1012.12 480.28C1011.35 481.539 1010.14 482.168 1008.5 482.168C1007.5 482.168 1006.64 481.88 1005.94 481.304C1005.24 480.728 1004.7 479.907 1004.34 478.84C1004 477.752 1003.83 476.461 1003.83 474.968C1003.83 472.707 1004.2 470.957 1004.95 469.72C1005.7 468.461 1006.88 467.832 1008.5 467.832ZM1008.5 469.816C1007.69 469.816 1007.09 470.253 1006.71 471.128C1006.35 471.981 1006.16 473.261 1006.16 474.968C1006.16 476.675 1006.35 477.965 1006.71 478.84C1007.09 479.715 1007.69 480.152 1008.5 480.152C1009.33 480.152 1009.95 479.725 1010.36 478.872C1010.76 477.997 1010.96 476.696 1010.96 474.968C1010.96 473.261 1010.76 471.981 1010.36 471.128C1009.95 470.253 1009.33 469.816 1008.5 469.816ZM1023.12 468.152L1010.45 491H1007.99L1020.66 468.152H1023.12ZM1022.48 476.984C1023.53 476.984 1024.4 477.272 1025.11 477.848C1025.81 478.403 1026.35 479.213 1026.71 480.28C1027.09 481.325 1027.28 482.605 1027.28 484.12C1027.28 486.381 1026.89 488.152 1026.1 489.432C1025.33 490.691 1024.13 491.32 1022.48 491.32C1021.48 491.32 1020.63 491.032 1019.92 490.456C1019.22 489.88 1018.69 489.059 1018.32 487.992C1017.98 486.904 1017.81 485.613 1017.81 484.12C1017.81 481.859 1018.19 480.109 1018.93 478.872C1019.68 477.613 1020.86 476.984 1022.48 476.984ZM1022.48 479C1021.67 479 1021.08 479.427 1020.69 480.28C1020.33 481.133 1020.15 482.413 1020.15 484.12C1020.15 485.848 1020.33 487.149 1020.69 488.024C1021.08 488.877 1021.67 489.304 1022.48 489.304C1023.32 489.304 1023.94 488.877 1024.34 488.024C1024.75 487.171 1024.95 485.869 1024.95 484.12C1024.95 482.413 1024.75 481.133 1024.34 480.28C1023.94 479.427 1023.32 479 1022.48 479Z" fill="#0D0D0D"/>
<rect x="1066.2" y="367" width="93.6" height="152" rx="16" fill="#0D0D0D"/>
<path d="M1083.34 491V488.088H1090.38C1093.58 488.088 1095.44 486.584 1095.44 484.088C1095.44 481.784 1093.65 480.344 1090.54 480.344H1087.18V477.752L1093.68 471.512H1083.02V468.6H1097.78V471.512L1091.02 477.816H1091.44C1095.86 477.816 1098.67 480.312 1098.67 484.056C1098.67 488.248 1095.34 491 1090.38 491H1083.34ZM1101.37 491V488.088H1108.41C1111.17 488.088 1113.05 486.424 1113.05 483.96C1113.05 481.528 1111.33 479.864 1108.41 479.864H1101.92V468.6H1115.29V471.512H1105.02V477.048H1108.77C1113.31 477.048 1116.29 479.768 1116.29 483.832C1116.29 488.088 1113.15 491 1108.41 491H1101.37ZM1123.57 467.832C1125.15 467.832 1126.34 468.461 1127.15 469.72C1127.96 470.957 1128.37 472.707 1128.37 474.968C1128.37 477.229 1127.97 479 1127.18 480.28C1126.42 481.539 1125.21 482.168 1123.57 482.168C1122.57 482.168 1121.71 481.88 1121.01 481.304C1120.3 480.728 1119.77 479.907 1119.41 478.84C1119.07 477.752 1118.9 476.461 1118.9 474.968C1118.9 472.707 1119.27 470.957 1120.02 469.72C1120.76 468.461 1121.95 467.832 1123.57 467.832ZM1123.57 469.816C1122.76 469.816 1122.16 470.253 1121.78 471.128C1121.41 471.981 1121.23 473.261 1121.23 474.968C1121.23 476.675 1121.41 477.965 1121.78 478.84C1122.16 479.715 1122.76 480.152 1123.57 480.152C1124.4 480.152 1125.02 479.725 1125.42 478.872C1125.83 477.997 1126.03 476.696 1126.03 474.968C1126.03 473.261 1125.83 471.981 1125.42 471.128C1125.02 470.253 1124.4 469.816 1123.57 469.816ZM1138.19 468.152L1125.52 491H1123.06L1135.73 468.152H1138.19ZM1137.55 476.984C1138.6 476.984 1139.47 477.272 1140.18 477.848C1140.88 478.403 1141.41 479.213 1141.78 480.28C1142.16 481.325 1142.35 482.605 1142.35 484.12C1142.35 486.381 1141.96 488.152 1141.17 489.432C1140.4 490.691 1139.2 491.32 1137.55 491.32C1136.55 491.32 1135.7 491.032 1134.99 490.456C1134.29 489.88 1133.76 489.059 1133.39 487.992C1133.05 486.904 1132.88 485.613 1132.88 484.12C1132.88 481.859 1133.25 480.109 1134 478.872C1134.75 477.613 1135.93 476.984 1137.55 476.984ZM1137.55 479C1136.74 479 1136.14 479.427 1135.76 480.28C1135.4 481.133 1135.22 482.413 1135.22 484.12C1135.22 485.848 1135.4 487.149 1135.76 488.024C1136.14 488.877 1136.74 489.304 1137.55 489.304C1138.38 489.304 1139 488.877 1139.41 488.024C1139.81 487.171 1140.02 485.869 1140.02 484.12C1140.02 482.413 1139.81 481.133 1139.41 480.28C1139 479.427 1138.38 479 1137.55 479Z" fill="white"/>
<path d="M989.551 561.28C985.831 561.28 983.271 558.84 983.271 554.02C983.271 549.2 985.731 546.72 989.591 546.72C992.631 546.72 994.711 548.48 995.131 551.48H993.031C992.731 549.64 991.351 548.58 989.591 548.58C987.031 548.58 985.331 550.24 985.331 553.98C985.331 557.68 987.111 559.42 989.551 559.42C991.491 559.42 992.711 558.12 993.031 556.32H995.111C994.631 559.22 992.711 561.28 989.551 561.28ZM1001.54 561.28C998.621 561.28 996.581 559.24 996.581 556.18C996.581 553.14 998.621 551.1 1001.54 551.1C1004.48 551.1 1006.5 553.14 1006.5 556.18C1006.5 559.24 1004.48 561.28 1001.54 561.28ZM998.581 556.18C998.581 558.18 999.781 559.52 1001.54 559.52C1003.32 559.52 1004.5 558.18 1004.5 556.18C1004.5 554.2 1003.32 552.86 1001.54 552.86C999.781 552.86 998.581 554.2 998.581 556.18ZM1008.72 561V551.38H1010.44V552.64C1011.02 551.6 1012.18 551.1 1013.48 551.1C1015.84 551.1 1017.32 552.54 1017.32 555.2V561H1015.38V555.38C1015.38 553.66 1014.54 552.86 1013.12 552.86C1011.64 552.86 1010.66 553.88 1010.66 555.44V561H1008.72ZM1022.31 561L1018.31 551.38H1020.47L1023.43 558.92L1026.37 551.38H1028.53L1024.51 561H1022.31ZM1033.94 561.28C1031.06 561.28 1029.14 559.26 1029.14 556.14C1029.14 553.04 1031.06 551.1 1033.8 551.1C1036.66 551.1 1038.42 552.96 1038.42 555.9C1038.42 556.16 1038.4 556.42 1038.36 556.82H1031.06C1031.14 558.58 1032.22 559.64 1033.94 559.64C1035.08 559.64 1035.88 559.12 1036.26 558.26H1038.24C1037.64 560.12 1036.16 561.28 1033.94 561.28ZM1031.06 555.3H1036.46V555.2C1036.46 553.72 1035.5 552.66 1033.8 552.66C1032.18 552.66 1031.14 553.74 1031.06 555.3ZM1040.56 561V551.38H1042.28V552.94C1042.52 551.98 1043.24 551.38 1044.38 551.38H1046.22V553.08H1044.2C1043 553.08 1042.5 553.76 1042.5 555.06V561H1040.56ZM1051.03 561.28C1048.43 561.28 1046.89 560.24 1046.79 558.26H1048.79C1048.89 559.22 1049.67 559.7 1051.07 559.7C1052.35 559.7 1053.13 559.16 1053.13 558.28C1053.13 557.56 1052.59 557.14 1051.59 557.04L1050.05 556.88C1048.25 556.7 1047.11 555.7 1047.11 554.1C1047.11 552.26 1048.65 551.1 1051.01 551.1C1053.41 551.1 1054.89 552.1 1055.01 554.06H1053.07C1053.01 553.14 1052.25 552.68 1050.99 552.68C1049.79 552.68 1049.03 553.18 1049.03 554C1049.03 554.7 1049.55 555.08 1050.67 555.22L1052.23 555.4C1054.05 555.6 1055.09 556.62 1055.09 558.2C1055.09 560.08 1053.51 561.28 1051.03 561.28ZM1057.19 561V551.38H1059.13V561H1057.19ZM1057.07 549.44V547.14H1059.23V549.44H1057.07ZM1066.29 561.28C1063.37 561.28 1061.33 559.24 1061.33 556.18C1061.33 553.14 1063.37 551.1 1066.29 551.1C1069.23 551.1 1071.25 553.14 1071.25 556.18C1071.25 559.24 1069.23 561.28 1066.29 561.28ZM1063.33 556.18C1063.33 558.18 1064.53 559.52 1066.29 559.52C1068.07 559.52 1069.25 558.18 1069.25 556.18C1069.25 554.2 1068.07 552.86 1066.29 552.86C1064.53 552.86 1063.33 554.2 1063.33 556.18ZM1073.47 561V551.38H1075.19V552.64C1075.77 551.6 1076.93 551.1 1078.23 551.1C1080.59 551.1 1082.07 552.54 1082.07 555.2V561H1080.13V555.38C1080.13 553.66 1079.29 552.86 1077.87 552.86C1076.39 552.86 1075.41 553.88 1075.41 555.44V561H1073.47ZM1089.93 561V547H1095.93C1098.85 547 1100.57 548.52 1100.57 551.02C1100.57 553.42 1099.01 554.92 1096.35 555.06L1100.97 561H1098.47L1093.87 555.04H1091.93V561H1089.93ZM1091.93 553.22H1095.93C1097.59 553.22 1098.53 552.42 1098.53 551.02C1098.53 549.66 1097.59 548.88 1095.93 548.88H1091.93V553.22ZM1105.69 561.28C1103.47 561.28 1102.07 560.12 1102.07 558.28C1102.07 556.56 1103.23 555.32 1105.59 555.18L1108.51 555.02V554.48C1108.51 553.22 1107.89 552.7 1106.57 552.7C1105.29 552.7 1104.65 553.04 1104.49 554.06H1102.55C1102.77 552.08 1104.13 551.1 1106.71 551.1C1109.01 551.1 1110.35 552.26 1110.35 554.38V559.08C1110.35 559.3 1110.45 559.4 1110.67 559.4H1111.49V561H1109.93C1109.27 561 1108.89 560.64 1108.89 560V559.72C1108.33 560.7 1107.19 561.28 1105.69 561.28ZM1104.01 558.22C1104.01 559.1 1104.73 559.68 1105.91 559.68C1107.47 559.68 1108.51 558.78 1108.51 557.14V556.52L1105.83 556.72C1104.59 556.8 1104.01 557.44 1104.01 558.22ZM1116.64 561C1114.98 561 1114.26 560.34 1114.26 558.68V553.08H1111.74V551.38H1114.26V548.5H1116.2V551.38H1119.22V553.08H1116.2V558.3C1116.2 559 1116.48 559.3 1117.22 559.3H1119.22V561H1116.64ZM1125.03 561.28C1122.15 561.28 1120.23 559.26 1120.23 556.14C1120.23 553.04 1122.15 551.1 1124.89 551.1C1127.75 551.1 1129.51 552.96 1129.51 555.9C1129.51 556.16 1129.49 556.42 1129.45 556.82H1122.15C1122.23 558.58 1123.31 559.64 1125.03 559.64C1126.17 559.64 1126.97 559.12 1127.35 558.26H1129.33C1128.73 560.12 1127.25 561.28 1125.03 561.28ZM1122.15 555.3H1127.55V555.2C1127.55 553.72 1126.59 552.66 1124.89 552.66C1123.27 552.66 1122.23 553.74 1122.15 555.3Z" fill="#0D0D0D"/>
<rect x="1033.7" y="575.5" width="45" height="20" rx="10" stroke="#0B8900"/>
<path d="M1044.26 584.568H1047.05V585.562H1044.26V588.446H1043.25V585.562H1040.47V584.568H1043.25V581.67H1044.26V584.568ZM1048.42 588.278C1048.42 586.472 1049.26 585.632 1050.83 585.184L1052.2 584.792C1053.28 584.484 1053.78 583.966 1053.78 583.084C1053.78 582.118 1053.1 581.474 1052.05 581.474H1048.9V580.2H1052.05C1053.91 580.2 1055.2 581.334 1055.2 583.084C1055.2 584.498 1054.25 585.464 1052.87 585.884L1051.19 586.388C1050.23 586.682 1049.84 587.158 1049.84 588.04V588.726H1055.11V590H1048.42V588.278ZM1056 590L1058.62 586.528L1056.14 583.266H1057.79L1059.5 585.59L1061.19 583.266H1062.85L1060.37 586.528L1062.99 590H1061.33L1059.5 587.536L1057.65 590H1056Z" fill="#0B8900"/>
<path fill-rule="evenodd" clip-rule="evenodd" d="M1066.2 585.625L1069.7 580L1073.2 585.625H1070.31V590H1069.09V585.625H1066.2Z" fill="#0B8900"/>
<rect x="1200.3" y="380.5" width="92.6" height="138" rx="15.5" fill="#CECCC9"/>
<rect x="1200.3" y="380.5" width="92.6" height="138" rx="15.5" stroke="#BFBDBA"/>
<path d="M1216.95 491V488.088H1223.99C1227.19 488.088 1229.04 486.584 1229.04 484.088C1229.04 481.784 1227.25 480.344 1224.15 480.344H1220.79V477.752L1227.28 471.512H1216.63V468.6H1231.38V471.512L1224.63 477.816H1225.04C1229.46 477.816 1232.27 480.312 1232.27 484.056C1232.27 488.248 1228.95 491 1223.99 491H1216.95ZM1235.65 491V486.616H1239.49V491H1235.65ZM1251.55 491.448C1246.52 491.448 1243 488.024 1243 481.112C1243 473.432 1245.98 468.6 1253.5 468.6H1257.79V471.512H1253.5C1248.31 471.512 1246.43 474.136 1246.17 479.064C1247.16 477.496 1249.21 476.376 1252.03 476.376C1256.54 476.376 1259.71 479.512 1259.71 483.832C1259.71 488.216 1256.38 491.448 1251.55 491.448ZM1246.46 483.928C1246.46 486.712 1248.51 488.632 1251.45 488.632C1254.39 488.632 1256.47 486.712 1256.47 483.928C1256.47 481.144 1254.39 479.224 1251.45 479.224C1248.51 479.224 1246.46 481.112 1246.46 483.928ZM1273.09 491L1267.84 484.088H1266.21V491H1263.11V468.6H1266.21V481.208H1267.84L1273.03 475.608H1276.83L1270.56 482.584L1276.83 491H1273.09Z" fill="#0D0D0D"/>
<rect x="1313.4" y="255" width="93.6" height="264" rx="16" fill="#0D0D0D"/>
<path d="M1337.94 491.448C1332.92 491.448 1329.4 488.024 1329.4 481.112C1329.4 473.432 1332.37 468.6 1339.89 468.6H1344.18V471.512H1339.89C1334.71 471.512 1332.82 474.136 1332.57 479.064C1333.56 477.496 1335.61 476.376 1338.42 476.376C1342.93 476.376 1346.1 479.512 1346.1 483.832C1346.1 488.216 1342.77 491.448 1337.94 491.448ZM1332.85 483.928C1332.85 486.712 1334.9 488.632 1337.85 488.632C1340.79 488.632 1342.87 486.712 1342.87 483.928C1342.87 481.144 1340.79 479.224 1337.85 479.224C1334.9 479.224 1332.85 481.112 1332.85 483.928ZM1349.5 491V486.616H1353.34V491H1349.5ZM1365.64 491.448C1360.24 491.448 1357.13 488.632 1357.13 484.664C1357.13 482.072 1358.76 479.896 1361.26 479.096C1359.02 478.328 1357.77 476.344 1357.77 474.2C1357.77 470.648 1360.88 468.152 1365.64 468.152C1370.44 468.152 1373.55 470.648 1373.55 474.2C1373.55 476.344 1372.3 478.328 1370.06 479.096C1372.56 479.896 1374.19 482.072 1374.19 484.664C1374.19 488.632 1371.08 491.448 1365.64 491.448ZM1360.33 484.568C1360.33 487 1362.22 488.76 1365.64 488.76C1369.1 488.76 1370.99 487 1370.99 484.568C1370.99 482.104 1368.97 480.472 1365.64 480.472C1362.35 480.472 1360.33 482.104 1360.33 484.568ZM1360.97 474.392C1360.97 476.472 1362.76 477.848 1365.64 477.848C1368.52 477.848 1370.35 476.472 1370.35 474.392C1370.35 472.312 1368.62 470.84 1365.64 470.84C1362.7 470.84 1360.97 472.312 1360.97 474.392ZM1388 491L1382.75 484.088H1381.12V491H1378.02V468.6H1381.12V481.208H1382.75L1387.94 475.608H1391.75L1385.47 482.584L1391.75 491H1388Z" fill="white"/>
<path d="M1250.79 561.28C1247.47 561.28 1245.47 559.2 1245.47 555.74V547H1247.47V555.62C1247.47 558.06 1248.69 559.4 1250.79 559.4C1252.89 559.4 1254.11 558.06 1254.11 555.62V547H1256.13V555.74C1256.13 559.2 1254.13 561.28 1250.79 561.28ZM1258.94 561V551.38H1260.66V552.64C1261.24 551.6 1262.4 551.1 1263.7 551.1C1266.06 551.1 1267.54 552.54 1267.54 555.2V561H1265.6V555.38C1265.6 553.66 1264.76 552.86 1263.34 552.86C1261.86 552.86 1260.88 553.88 1260.88 555.44V561H1258.94ZM1270.22 561V551.38H1272.16V561H1270.22ZM1270.1 549.44V547.14H1272.26V549.44H1270.1ZM1282.16 564.6V559.8C1281.56 560.76 1280.42 561.28 1279.02 561.28C1276.28 561.28 1274.4 559.24 1274.4 556.18C1274.4 553.14 1276.28 551.1 1279.02 551.1C1280.52 551.1 1281.72 551.7 1282.36 552.72V551.38H1284.08V564.6H1282.16ZM1276.4 556.18C1276.4 558.18 1277.58 559.52 1279.32 559.52C1281.06 559.52 1282.2 558.18 1282.2 556.18C1282.2 554.2 1281.06 552.86 1279.32 552.86C1277.58 552.86 1276.4 554.2 1276.4 556.18ZM1290.55 561.28C1288.21 561.28 1286.77 559.84 1286.77 557.18V551.38H1288.71V557C1288.71 558.72 1289.51 559.52 1290.91 559.52C1292.37 559.52 1293.31 558.48 1293.31 556.94V551.38H1295.25V561H1293.53V559.9C1292.89 560.84 1291.79 561.28 1290.55 561.28ZM1302.2 561.28C1299.32 561.28 1297.4 559.26 1297.4 556.14C1297.4 553.04 1299.32 551.1 1302.06 551.1C1304.92 551.1 1306.68 552.96 1306.68 555.9C1306.68 556.16 1306.66 556.42 1306.62 556.82H1299.32C1299.4 558.58 1300.48 559.64 1302.2 559.64C1303.34 559.64 1304.14 559.12 1304.52 558.26H1306.5C1305.9 560.12 1304.42 561.28 1302.2 561.28ZM1299.32 555.3H1304.72V555.2C1304.72 553.72 1303.76 552.66 1302.06 552.66C1300.44 552.66 1299.4 553.74 1299.32 555.3ZM1319.09 561.28C1315.77 561.28 1313.77 559.2 1313.77 555.74V547H1315.77V555.62C1315.77 558.06 1316.99 559.4 1319.09 559.4C1321.19 559.4 1322.41 558.06 1322.41 555.62V547H1324.43V555.74C1324.43 559.2 1322.43 561.28 1319.09 561.28ZM1330.68 561.28C1328.08 561.28 1326.54 560.24 1326.44 558.26H1328.44C1328.54 559.22 1329.32 559.7 1330.72 559.7C1332 559.7 1332.78 559.16 1332.78 558.28C1332.78 557.56 1332.24 557.14 1331.24 557.04L1329.7 556.88C1327.9 556.7 1326.76 555.7 1326.76 554.1C1326.76 552.26 1328.3 551.1 1330.66 551.1C1333.06 551.1 1334.54 552.1 1334.66 554.06H1332.72C1332.66 553.14 1331.9 552.68 1330.64 552.68C1329.44 552.68 1328.68 553.18 1328.68 554C1328.68 554.7 1329.2 555.08 1330.32 555.22L1331.88 555.4C1333.7 555.6 1334.74 556.62 1334.74 558.2C1334.74 560.08 1333.16 561.28 1330.68 561.28ZM1341.07 561.28C1338.19 561.28 1336.27 559.26 1336.27 556.14C1336.27 553.04 1338.19 551.1 1340.93 551.1C1343.79 551.1 1345.55 552.96 1345.55 555.9C1345.55 556.16 1345.53 556.42 1345.49 556.82H1338.19C1338.27 558.58 1339.35 559.64 1341.07 559.64C1342.21 559.64 1343.01 559.12 1343.39 558.26H1345.37C1344.77 560.12 1343.29 561.28 1341.07 561.28ZM1338.19 555.3H1343.59V555.2C1343.59 553.72 1342.63 552.66 1340.93 552.66C1339.31 552.66 1338.27 553.74 1338.19 555.3ZM1347.68 561V551.38H1349.4V552.94C1349.64 551.98 1350.36 551.38 1351.5 551.38H1353.34V553.08H1351.32C1350.12 553.08 1349.62 553.76 1349.62 555.06V561H1347.68ZM1358.15 561.28C1355.55 561.28 1354.01 560.24 1353.91 558.26H1355.91C1356.01 559.22 1356.79 559.7 1358.19 559.7C1359.47 559.7 1360.25 559.16 1360.25 558.28C1360.25 557.56 1359.71 557.14 1358.71 557.04L1357.17 556.88C1355.37 556.7 1354.23 555.7 1354.23 554.1C1354.23 552.26 1355.77 551.1 1358.13 551.1C1360.53 551.1 1362.01 552.1 1362.13 554.06H1360.19C1360.13 553.14 1359.37 552.68 1358.11 552.68C1356.91 552.68 1356.15 553.18 1356.15 554C1356.15 554.7 1356.67 555.08 1357.79 555.22L1359.35 555.4C1361.17 555.6 1362.21 556.62 1362.21 558.2C1362.21 560.08 1360.63 561.28 1358.15 561.28Z" fill="#0D0D0D"/>
<rect x="1274.9" y="575.5" width="57" height="20" rx="10" stroke="#0B8900"/>
<path d="M1285.8 584.568H1288.58V585.562H1285.8V588.446H1284.79V585.562H1282V584.568H1284.79V581.67H1285.8V584.568ZM1289.79 590V588.726H1292.35V581.502H1290.58V580.2H1293.71V588.726H1296.23V590H1289.79ZM1297.86 590V588.082H1299.54V590H1297.86ZM1304.51 580.004C1306.7 580.004 1308.24 581.502 1308.24 584.526C1308.24 587.886 1306.94 590 1303.65 590H1301.78V588.726H1303.65C1305.92 588.726 1306.75 587.578 1306.86 585.422C1306.42 586.108 1305.53 586.598 1304.3 586.598C1302.32 586.598 1300.94 585.226 1300.94 583.336C1300.94 581.418 1302.39 580.004 1304.51 580.004ZM1302.35 583.294C1302.35 584.512 1303.26 585.352 1304.55 585.352C1305.84 585.352 1306.73 584.526 1306.73 583.294C1306.73 582.076 1305.84 581.236 1304.55 581.236C1303.26 581.236 1302.35 582.076 1302.35 583.294ZM1309.2 590L1311.82 586.528L1309.34 583.266H1310.99L1312.7 585.59L1314.39 583.266H1316.05L1313.57 586.528L1316.19 590H1314.53L1312.7 587.536L1310.85 590H1309.2Z" fill="#0B8900"/>
<path fill-rule="evenodd" clip-rule="evenodd" d="M1319.4 585.625L1322.9 580L1326.4 585.625H1323.51V590H1322.29V585.625H1319.4Z" fill="#0B8900"/>
</g>
<defs>
<clipPath id="clip0_4638_111190">
<rect width="1278" height="432" fill="white" transform="translate(129 164)"/>
</clipPath>
</defs>
</svg>
