<svg width="1536" height="760" viewBox="0 0 1536 760" fill="none" xmlns="http://www.w3.org/2000/svg">
<g clip-path="url(#clip0_4638_110301)">
<path d="M387.08 187.336C382.616 187.336 379.544 184.408 379.544 178.624C379.544 172.84 382.496 169.864 387.128 169.864C390.776 169.864 393.272 171.976 393.776 175.576H391.256C390.896 173.368 389.24 172.096 387.128 172.096C384.056 172.096 382.016 174.088 382.016 178.576C382.016 183.016 384.152 185.104 387.08 185.104C389.408 185.104 390.872 183.544 391.256 181.384H393.752C393.176 184.864 390.872 187.336 387.08 187.336ZM399.761 187.336C397.097 187.336 395.417 185.944 395.417 183.736C395.417 181.672 396.809 180.184 399.641 180.016L403.145 179.824V179.176C403.145 177.664 402.401 177.04 400.817 177.04C399.281 177.04 398.513 177.448 398.321 178.672H395.993C396.257 176.296 397.889 175.12 400.985 175.12C403.745 175.12 405.353 176.512 405.353 179.056V184.696C405.353 184.96 405.473 185.08 405.737 185.08H406.721V187H404.849C404.057 187 403.601 186.568 403.601 185.8V185.464C402.929 186.64 401.561 187.336 399.761 187.336ZM397.745 183.664C397.745 184.72 398.609 185.416 400.025 185.416C401.897 185.416 403.145 184.336 403.145 182.368V181.624L399.929 181.864C398.441 181.96 397.745 182.728 397.745 183.664ZM412.943 187.336C409.823 187.336 407.975 186.088 407.855 183.712H410.255C410.375 184.864 411.311 185.44 412.991 185.44C414.527 185.44 415.463 184.792 415.463 183.736C415.463 182.872 414.815 182.368 413.615 182.248L411.767 182.056C409.607 181.84 408.239 180.64 408.239 178.72C408.239 176.512 410.087 175.12 412.919 175.12C415.799 175.12 417.575 176.32 417.719 178.672H415.391C415.319 177.568 414.407 177.016 412.895 177.016C411.455 177.016 410.543 177.616 410.543 178.6C410.543 179.44 411.167 179.896 412.511 180.064L414.383 180.28C416.567 180.52 417.815 181.744 417.815 183.64C417.815 185.896 415.919 187.336 412.943 187.336ZM424.543 187C422.551 187 421.687 186.208 421.687 184.216V177.496H418.663V175.456H421.687V172H424.015V175.456H427.639V177.496H424.015V183.76C424.015 184.6 424.351 184.96 425.239 184.96H427.639V187H424.543ZM429.877 187V175.456H432.205V187H429.877ZM429.733 173.128V170.368H432.325V173.128H429.733ZM435.59 187V175.456H437.654V176.968C438.35 175.72 439.742 175.12 441.302 175.12C444.134 175.12 445.91 176.848 445.91 180.04V187H443.582V180.256C443.582 178.192 442.574 177.232 440.87 177.232C439.094 177.232 437.918 178.456 437.918 180.328V187H435.59ZM451.65 191.32C449.082 191.32 447.93 190.12 447.93 188.44C447.93 187.456 448.458 186.568 449.442 186.088C448.794 185.656 448.386 184.96 448.386 184.216C448.386 183.184 449.034 182.344 450.378 182.008C449.298 181.288 448.842 180.16 448.842 179.08C448.842 176.824 450.57 175.12 453.45 175.12C455.298 175.12 456.786 176.056 457.266 177.256V176.896C457.266 175.744 457.89 175.456 458.706 175.456H460.41V177.496H458.562C458.202 177.496 458.058 177.64 458.058 178V179.224C458.058 181.624 456.186 183.184 453.57 183.184H451.578C450.906 183.184 450.45 183.496 450.45 184.12C450.45 184.744 450.978 185.056 451.578 185.056H455.778C457.986 185.056 459.402 186.112 459.402 188.008C459.402 189.904 458.274 191.32 455.634 191.32H451.65ZM450.162 188.224C450.162 188.968 450.642 189.544 451.914 189.544H455.49C456.402 189.544 457.17 189.112 457.17 188.08C457.17 187.288 456.546 186.832 455.61 186.832H451.986C450.69 186.832 450.162 187.48 450.162 188.224ZM451.074 179.152C451.074 180.496 451.962 181.36 453.45 181.36C454.962 181.36 455.826 180.496 455.826 179.152C455.826 177.808 454.938 176.944 453.45 176.944C451.938 176.944 451.074 177.808 451.074 179.152ZM468.509 187V170.2H478.589V172.456H470.909V177.28H478.589V179.536H470.909V187H468.509ZM485.77 187.336C482.314 187.336 480.01 184.912 480.01 181.168C480.01 177.448 482.314 175.12 485.602 175.12C489.034 175.12 491.146 177.352 491.146 180.88C491.146 181.192 491.122 181.504 491.074 181.984H482.314C482.41 184.096 483.706 185.368 485.77 185.368C487.138 185.368 488.098 184.744 488.554 183.712H490.93C490.21 185.944 488.434 187.336 485.77 187.336ZM482.314 180.16H488.794V180.04C488.794 178.264 487.642 176.992 485.602 176.992C483.658 176.992 482.41 178.288 482.314 180.16ZM498.678 187.336C495.222 187.336 492.918 184.912 492.918 181.168C492.918 177.448 495.222 175.12 498.51 175.12C501.942 175.12 504.054 177.352 504.054 180.88C504.054 181.192 504.03 181.504 503.982 181.984H495.222C495.318 184.096 496.614 185.368 498.678 185.368C500.046 185.368 501.006 184.744 501.462 183.712H503.838C503.118 185.944 501.342 187.336 498.678 187.336ZM495.222 180.16H501.702V180.04C501.702 178.264 500.55 176.992 498.51 176.992C496.566 176.992 495.318 178.288 495.222 180.16ZM511.394 187.336C508.106 187.336 505.85 184.888 505.85 181.216C505.85 177.568 508.106 175.12 511.394 175.12C513.074 175.12 514.442 175.744 515.162 176.872V170.2H517.466V187H515.402V185.392C514.634 186.616 513.194 187.336 511.394 187.336ZM508.25 181.216C508.25 183.616 509.666 185.224 511.754 185.224C513.842 185.224 515.21 183.616 515.21 181.216C515.21 178.84 513.842 177.232 511.754 177.232C509.666 177.232 508.25 178.84 508.25 181.216Z" fill="#0D0D0D"/>
<path d="M693.834 187V170.2H696.234V184.744H704.13V187H693.834ZM709.486 187.336C706.822 187.336 705.142 185.944 705.142 183.736C705.142 181.672 706.534 180.184 709.366 180.016L712.87 179.824V179.176C712.87 177.664 712.126 177.04 710.542 177.04C709.006 177.04 708.238 177.448 708.046 178.672H705.718C705.982 176.296 707.614 175.12 710.71 175.12C713.47 175.12 715.078 176.512 715.078 179.056V184.696C715.078 184.96 715.198 185.08 715.462 185.08H716.446V187H714.574C713.782 187 713.326 186.568 713.326 185.8V185.464C712.654 186.64 711.286 187.336 709.486 187.336ZM707.47 183.664C707.47 184.72 708.334 185.416 709.75 185.416C711.622 185.416 712.87 184.336 712.87 182.368V181.624L709.654 181.864C708.166 181.96 707.47 182.728 707.47 183.664ZM722.668 187.336C719.548 187.336 717.7 186.088 717.58 183.712H719.98C720.1 184.864 721.036 185.44 722.716 185.44C724.252 185.44 725.188 184.792 725.188 183.736C725.188 182.872 724.54 182.368 723.34 182.248L721.492 182.056C719.332 181.84 717.964 180.64 717.964 178.72C717.964 176.512 719.812 175.12 722.644 175.12C725.524 175.12 727.3 176.32 727.444 178.672H725.116C725.044 177.568 724.132 177.016 722.62 177.016C721.18 177.016 720.268 177.616 720.268 178.6C720.268 179.44 720.892 179.896 722.236 180.064L724.108 180.28C726.292 180.52 727.54 181.744 727.54 183.64C727.54 185.896 725.644 187.336 722.668 187.336ZM734.269 187C732.277 187 731.413 186.208 731.413 184.216V177.496H728.389V175.456H731.413V172H733.741V175.456H737.365V177.496H733.741V183.76C733.741 184.6 734.077 184.96 734.965 184.96H737.365V187H734.269ZM744.662 187V184.816H749.942C752.342 184.816 753.734 183.688 753.734 181.816C753.734 180.088 752.39 179.008 750.062 179.008H747.542V177.064L752.414 172.384H744.422V170.2H755.486V172.384L750.422 177.112H750.734C754.046 177.112 756.158 178.984 756.158 181.792C756.158 184.936 753.662 187 749.942 187H744.662ZM764.921 187V175.456H766.985V176.872C767.657 175.672 768.713 175.12 770.129 175.12C771.713 175.12 772.889 175.888 773.441 177.184C774.185 175.792 775.385 175.12 776.897 175.12C779.561 175.12 781.025 176.728 781.025 179.608V187H778.721V179.728C778.721 178.12 777.953 177.232 776.489 177.232C775.121 177.232 774.137 178.288 774.137 179.8V187H771.809V179.728C771.809 178.12 771.041 177.232 769.625 177.232C768.233 177.232 767.249 178.288 767.249 179.8V187H764.921ZM789.458 187.336C785.954 187.336 783.506 184.888 783.506 181.216C783.506 177.568 785.954 175.12 789.458 175.12C792.986 175.12 795.41 177.568 795.41 181.216C795.41 184.888 792.986 187.336 789.458 187.336ZM785.906 181.216C785.906 183.616 787.346 185.224 789.458 185.224C791.594 185.224 793.01 183.616 793.01 181.216C793.01 178.84 791.594 177.232 789.458 177.232C787.346 177.232 785.906 178.84 785.906 181.216ZM798.074 187V175.456H800.138V176.968C800.834 175.72 802.226 175.12 803.786 175.12C806.618 175.12 808.394 176.848 808.394 180.04V187H806.066V180.256C806.066 178.192 805.058 177.232 803.354 177.232C801.578 177.232 800.402 178.456 800.402 180.328V187H798.074ZM815.628 187C813.636 187 812.772 186.208 812.772 184.216V177.496H809.748V175.456H812.772V172H815.1V175.456H818.724V177.496H815.1V183.76C815.1 184.6 815.436 184.96 816.324 184.96H818.724V187H815.628ZM820.961 187V170.2H823.289V176.584C824.057 175.6 825.281 175.12 826.673 175.12C829.505 175.12 831.281 176.848 831.281 180.04V187H828.953V180.256C828.953 178.192 827.945 177.232 826.241 177.232C824.465 177.232 823.289 178.456 823.289 180.328V187H820.961ZM838.557 187.336C835.437 187.336 833.589 186.088 833.469 183.712H835.869C835.989 184.864 836.925 185.44 838.605 185.44C840.141 185.44 841.077 184.792 841.077 183.736C841.077 182.872 840.429 182.368 839.229 182.248L837.381 182.056C835.221 181.84 833.853 180.64 833.853 178.72C833.853 176.512 835.701 175.12 838.533 175.12C841.413 175.12 843.189 176.32 843.333 178.672H841.005C840.933 177.568 840.021 177.016 838.509 177.016C837.069 177.016 836.157 177.616 836.157 178.6C836.157 179.44 836.781 179.896 838.125 180.064L839.997 180.28C842.181 180.52 843.429 181.744 843.429 183.64C843.429 185.896 841.533 187.336 838.557 187.336Z" fill="#A09E9C"/>
<path d="M999.048 187.336C994.584 187.336 991.512 184.408 991.512 178.624C991.512 172.84 994.464 169.864 999.096 169.864C1002.74 169.864 1005.24 171.976 1005.74 175.576H1003.22C1002.86 173.368 1001.21 172.096 999.096 172.096C996.024 172.096 993.984 174.088 993.984 178.576C993.984 183.016 996.12 185.104 999.048 185.104C1001.38 185.104 1002.84 183.544 1003.22 181.384H1005.72C1005.14 184.864 1002.84 187.336 999.048 187.336ZM1011.73 187.336C1009.06 187.336 1007.38 185.944 1007.38 183.736C1007.38 181.672 1008.78 180.184 1011.61 180.016L1015.11 179.824V179.176C1015.11 177.664 1014.37 177.04 1012.78 177.04C1011.25 177.04 1010.48 177.448 1010.29 178.672H1007.96C1008.22 176.296 1009.86 175.12 1012.95 175.12C1015.71 175.12 1017.32 176.512 1017.32 179.056V184.696C1017.32 184.96 1017.44 185.08 1017.7 185.08H1018.69V187H1016.82C1016.02 187 1015.57 186.568 1015.57 185.8V185.464C1014.9 186.64 1013.53 187.336 1011.73 187.336ZM1009.71 183.664C1009.71 184.72 1010.58 185.416 1011.99 185.416C1013.86 185.416 1015.11 184.336 1015.11 182.368V181.624L1011.9 181.864C1010.41 181.96 1009.71 182.728 1009.71 183.664ZM1024.91 187.336C1021.79 187.336 1019.94 186.088 1019.82 183.712H1022.22C1022.34 184.864 1023.28 185.44 1024.96 185.44C1026.49 185.44 1027.43 184.792 1027.43 183.736C1027.43 182.872 1026.78 182.368 1025.58 182.248L1023.73 182.056C1021.57 181.84 1020.21 180.64 1020.21 178.72C1020.21 176.512 1022.05 175.12 1024.89 175.12C1027.77 175.12 1029.54 176.32 1029.69 178.672H1027.36C1027.29 177.568 1026.37 177.016 1024.86 177.016C1023.42 177.016 1022.51 177.616 1022.51 178.6C1022.51 179.44 1023.13 179.896 1024.48 180.064L1026.35 180.28C1028.53 180.52 1029.78 181.744 1029.78 183.64C1029.78 185.896 1027.89 187.336 1024.91 187.336ZM1036.51 187C1034.52 187 1033.66 186.208 1033.66 184.216V177.496H1030.63V175.456H1033.66V172H1035.98V175.456H1039.61V177.496H1035.98V183.76C1035.98 184.6 1036.32 184.96 1037.21 184.96H1039.61V187H1036.51ZM1041.84 187V175.456H1044.17V187H1041.84ZM1041.7 173.128V170.368H1044.29V173.128H1041.7ZM1047.56 187V175.456H1049.62V176.968C1050.32 175.72 1051.71 175.12 1053.27 175.12C1056.1 175.12 1057.88 176.848 1057.88 180.04V187H1055.55V180.256C1055.55 178.192 1054.54 177.232 1052.84 177.232C1051.06 177.232 1049.89 178.456 1049.89 180.328V187H1047.56ZM1063.62 191.32C1061.05 191.32 1059.9 190.12 1059.9 188.44C1059.9 187.456 1060.43 186.568 1061.41 186.088C1060.76 185.656 1060.35 184.96 1060.35 184.216C1060.35 183.184 1061 182.344 1062.35 182.008C1061.27 181.288 1060.81 180.16 1060.81 179.08C1060.81 176.824 1062.54 175.12 1065.42 175.12C1067.27 175.12 1068.75 176.056 1069.23 177.256V176.896C1069.23 175.744 1069.86 175.456 1070.67 175.456H1072.38V177.496H1070.53C1070.17 177.496 1070.03 177.64 1070.03 178V179.224C1070.03 181.624 1068.15 183.184 1065.54 183.184H1063.55C1062.87 183.184 1062.42 183.496 1062.42 184.12C1062.42 184.744 1062.95 185.056 1063.55 185.056H1067.75C1069.95 185.056 1071.37 186.112 1071.37 188.008C1071.37 189.904 1070.24 191.32 1067.6 191.32H1063.62ZM1062.13 188.224C1062.13 188.968 1062.61 189.544 1063.88 189.544H1067.46C1068.37 189.544 1069.14 189.112 1069.14 188.08C1069.14 187.288 1068.51 186.832 1067.58 186.832H1063.95C1062.66 186.832 1062.13 187.48 1062.13 188.224ZM1063.04 179.152C1063.04 180.496 1063.93 181.36 1065.42 181.36C1066.93 181.36 1067.79 180.496 1067.79 179.152C1067.79 177.808 1066.91 176.944 1065.42 176.944C1063.91 176.944 1063.04 177.808 1063.04 179.152ZM1080.48 187V170.2H1087.68C1091.18 170.2 1093.25 172.024 1093.25 175.024C1093.25 177.904 1091.37 179.704 1088.18 179.872L1093.73 187H1090.73L1085.21 179.848H1082.88V187H1080.48ZM1082.88 177.664H1087.68C1089.67 177.664 1090.8 176.704 1090.8 175.024C1090.8 173.392 1089.67 172.456 1087.68 172.456H1082.88V177.664ZM1100.55 187.336C1097.09 187.336 1094.79 184.912 1094.79 181.168C1094.79 177.448 1097.09 175.12 1100.38 175.12C1103.81 175.12 1105.93 177.352 1105.93 180.88C1105.93 181.192 1105.9 181.504 1105.85 181.984H1097.09C1097.19 184.096 1098.49 185.368 1100.55 185.368C1101.92 185.368 1102.88 184.744 1103.33 183.712H1105.71C1104.99 185.944 1103.21 187.336 1100.55 187.336ZM1097.09 180.16H1103.57V180.04C1103.57 178.264 1102.42 176.992 1100.38 176.992C1098.44 176.992 1097.19 178.288 1097.09 180.16ZM1112.5 187.336C1109.38 187.336 1107.53 186.088 1107.41 183.712H1109.81C1109.93 184.864 1110.87 185.44 1112.55 185.44C1114.08 185.44 1115.02 184.792 1115.02 183.736C1115.02 182.872 1114.37 182.368 1113.17 182.248L1111.32 182.056C1109.16 181.84 1107.79 180.64 1107.79 178.72C1107.79 176.512 1109.64 175.12 1112.47 175.12C1115.35 175.12 1117.13 176.32 1117.27 178.672H1114.95C1114.87 177.568 1113.96 177.016 1112.45 177.016C1111.01 177.016 1110.1 177.616 1110.1 178.6C1110.1 179.44 1110.72 179.896 1112.07 180.064L1113.94 180.28C1116.12 180.52 1117.37 181.744 1117.37 183.64C1117.37 185.896 1115.47 187.336 1112.5 187.336ZM1119.9 191.32V175.456H1121.96V177.088C1122.71 175.84 1124.17 175.12 1125.97 175.12C1129.26 175.12 1131.52 177.568 1131.52 181.216C1131.52 184.888 1129.26 187.336 1125.97 187.336C1124.32 187.336 1122.97 186.712 1122.23 185.584V191.32H1119.9ZM1122.18 181.216C1122.18 183.616 1123.55 185.224 1125.64 185.224C1127.72 185.224 1129.12 183.616 1129.12 181.216C1129.12 178.84 1127.72 177.232 1125.64 177.232C1123.55 177.232 1122.18 178.84 1122.18 181.216ZM1139.4 187.336C1135.89 187.336 1133.45 184.888 1133.45 181.216C1133.45 177.568 1135.89 175.12 1139.4 175.12C1142.93 175.12 1145.35 177.568 1145.35 181.216C1145.35 184.888 1142.93 187.336 1139.4 187.336ZM1135.85 181.216C1135.85 183.616 1137.29 185.224 1139.4 185.224C1141.53 185.224 1142.95 183.616 1142.95 181.216C1142.95 178.84 1141.53 177.232 1139.4 177.232C1137.29 177.232 1135.85 178.84 1135.85 181.216ZM1148.01 187V175.456H1150.08V176.968C1150.77 175.72 1152.16 175.12 1153.72 175.12C1156.56 175.12 1158.33 176.848 1158.33 180.04V187H1156V180.256C1156 178.192 1155 177.232 1153.29 177.232C1151.52 177.232 1150.34 178.456 1150.34 180.328V187H1148.01ZM1165.61 187.336C1162.49 187.336 1160.64 186.088 1160.52 183.712H1162.92C1163.04 184.864 1163.98 185.44 1165.66 185.44C1167.19 185.44 1168.13 184.792 1168.13 183.736C1168.13 182.872 1167.48 182.368 1166.28 182.248L1164.43 182.056C1162.27 181.84 1160.91 180.64 1160.91 178.72C1160.91 176.512 1162.75 175.12 1165.59 175.12C1168.47 175.12 1170.24 176.32 1170.39 178.672H1168.06C1167.99 177.568 1167.07 177.016 1165.56 177.016C1164.12 177.016 1163.21 177.616 1163.21 178.6C1163.21 179.44 1163.83 179.896 1165.18 180.064L1167.05 180.28C1169.23 180.52 1170.48 181.744 1170.48 183.64C1170.48 185.896 1168.59 187.336 1165.61 187.336ZM1178.07 187.336C1174.62 187.336 1172.31 184.912 1172.31 181.168C1172.31 177.448 1174.62 175.12 1177.9 175.12C1181.34 175.12 1183.45 177.352 1183.45 180.88C1183.45 181.192 1183.42 181.504 1183.38 181.984H1174.62C1174.71 184.096 1176.01 185.368 1178.07 185.368C1179.44 185.368 1180.4 184.744 1180.86 183.712H1183.23C1182.51 185.944 1180.74 187.336 1178.07 187.336ZM1174.62 180.16H1181.1V180.04C1181.1 178.264 1179.94 176.992 1177.9 176.992C1175.96 176.992 1174.71 178.288 1174.62 180.16Z" fill="#0D0D0D"/>
<rect x="129.5" y="491.5" width="185.167" height="27" rx="13.5" fill="#CECCC9"/>
<rect x="129.5" y="491.5" width="185.167" height="27" rx="13.5" stroke="#BFBDBA"/>
<path d="M178.172 491V488.088H184.028V471.576H179.964V468.6H187.132V488.088H192.892V491H178.172ZM196.291 491V486.616H200.131V491H196.291ZM205.197 487.064C205.197 482.936 207.117 481.016 210.701 479.992L213.837 479.096C216.301 478.392 217.453 477.208 217.453 475.192C217.453 472.984 215.885 471.512 213.485 471.512H206.285V468.6H213.485C217.741 468.6 220.685 471.192 220.685 475.192C220.685 478.424 218.509 480.632 215.373 481.592L211.533 482.744C209.325 483.416 208.429 484.504 208.429 486.52V488.088H220.493V491H205.197V487.064ZM223.221 487.064C223.221 482.936 225.141 481.016 228.725 479.992L231.861 479.096C234.325 478.392 235.477 477.208 235.477 475.192C235.477 472.984 233.909 471.512 231.509 471.512H224.309V468.6H231.509C235.765 468.6 238.709 471.192 238.709 475.192C238.709 478.424 236.533 480.632 233.397 481.592L229.557 482.744C227.349 483.416 226.453 484.504 226.453 486.52V488.088H238.517V491H223.221V487.064ZM245.981 467.832C247.56 467.832 248.755 468.461 249.565 469.72C250.376 470.957 250.781 472.707 250.781 474.968C250.781 477.229 250.387 479 249.597 480.28C248.829 481.539 247.624 482.168 245.981 482.168C244.979 482.168 244.125 481.88 243.421 481.304C242.717 480.728 242.184 479.907 241.821 478.84C241.48 477.752 241.309 476.461 241.309 474.968C241.309 472.707 241.683 470.957 242.429 469.72C243.176 468.461 244.36 467.832 245.981 467.832ZM245.981 469.816C245.171 469.816 244.573 470.253 244.189 471.128C243.827 471.981 243.645 473.261 243.645 474.968C243.645 476.675 243.827 477.965 244.189 478.84C244.573 479.715 245.171 480.152 245.981 480.152C246.813 480.152 247.432 479.725 247.837 478.872C248.243 477.997 248.445 476.696 248.445 474.968C248.445 473.261 248.243 471.981 247.837 471.128C247.432 470.253 246.813 469.816 245.981 469.816ZM260.605 468.152L247.933 491H245.469L258.141 468.152H260.605ZM259.965 476.984C261.011 476.984 261.885 477.272 262.589 477.848C263.293 478.403 263.827 479.213 264.189 480.28C264.573 481.325 264.765 482.605 264.765 484.12C264.765 486.381 264.371 488.152 263.581 489.432C262.813 490.691 261.608 491.32 259.965 491.32C258.963 491.32 258.109 491.032 257.405 490.456C256.701 489.88 256.168 489.059 255.805 487.992C255.464 486.904 255.293 485.613 255.293 484.12C255.293 481.859 255.667 480.109 256.413 478.872C257.16 477.613 258.344 476.984 259.965 476.984ZM259.965 479C259.155 479 258.557 479.427 258.173 480.28C257.811 481.133 257.629 482.413 257.629 484.12C257.629 485.848 257.811 487.149 258.173 488.024C258.557 488.877 259.155 489.304 259.965 489.304C260.797 489.304 261.416 488.877 261.821 488.024C262.227 487.171 262.429 485.869 262.429 484.12C262.429 482.413 262.227 481.133 261.821 480.28C261.416 479.427 260.797 479 259.965 479Z" fill="#0D0D0D"/>
<rect x="335.666" y="460.5" width="185.167" height="58" rx="15.5" fill="#CECCC9"/>
<rect x="335.666" y="460.5" width="185.167" height="58" rx="15.5" stroke="#BFBDBA"/>
<path d="M385.222 487.064C385.222 482.936 387.142 481.016 390.726 479.992L393.862 479.096C396.326 478.392 397.478 477.208 397.478 475.192C397.478 472.984 395.91 471.512 393.51 471.512H386.31V468.6H393.51C397.766 468.6 400.71 471.192 400.71 475.192C400.71 478.424 398.534 480.632 395.398 481.592L391.558 482.744C389.35 483.416 388.454 484.504 388.454 486.52V488.088H400.518V491H385.222V487.064ZM404.395 491V486.616H408.235V491H404.395ZM422.568 491V484.344H410.568V481.528L421.352 468.6H425.672V481.528H429.352V484.344H425.672V491H422.568ZM414.024 481.528H422.568V471.288L414.024 481.528ZM430.128 491V488.088H435.984V471.576H431.92V468.6H439.088V488.088H444.848V491H430.128ZM451.585 467.832C453.164 467.832 454.358 468.461 455.169 469.72C455.98 470.957 456.385 472.707 456.385 474.968C456.385 477.229 455.99 479 455.201 480.28C454.433 481.539 453.228 482.168 451.585 482.168C450.582 482.168 449.729 481.88 449.025 481.304C448.321 480.728 447.788 479.907 447.425 478.84C447.084 477.752 446.913 476.461 446.913 474.968C446.913 472.707 447.286 470.957 448.033 469.72C448.78 468.461 449.964 467.832 451.585 467.832ZM451.585 469.816C450.774 469.816 450.177 470.253 449.793 471.128C449.43 471.981 449.249 473.261 449.249 474.968C449.249 476.675 449.43 477.965 449.793 478.84C450.177 479.715 450.774 480.152 451.585 480.152C452.417 480.152 453.036 479.725 453.441 478.872C453.846 477.997 454.049 476.696 454.049 474.968C454.049 473.261 453.846 471.981 453.441 471.128C453.036 470.253 452.417 469.816 451.585 469.816ZM466.209 468.152L453.537 491H451.073L463.745 468.152H466.209ZM465.569 476.984C466.614 476.984 467.489 477.272 468.193 477.848C468.897 478.403 469.43 479.213 469.793 480.28C470.177 481.325 470.369 482.605 470.369 484.12C470.369 486.381 469.974 488.152 469.185 489.432C468.417 490.691 467.212 491.32 465.569 491.32C464.566 491.32 463.713 491.032 463.009 490.456C462.305 489.88 461.772 489.059 461.409 487.992C461.068 486.904 460.897 485.613 460.897 484.12C460.897 481.859 461.27 480.109 462.017 478.872C462.764 477.613 463.948 476.984 465.569 476.984ZM465.569 479C464.758 479 464.161 479.427 463.777 480.28C463.414 481.133 463.233 482.413 463.233 484.12C463.233 485.848 463.414 487.149 463.777 488.024C464.161 488.877 464.758 489.304 465.569 489.304C466.401 489.304 467.02 488.877 467.425 488.024C467.83 487.171 468.033 485.869 468.033 484.12C468.033 482.413 467.83 481.133 467.425 480.28C467.02 479.427 466.401 479 465.569 479Z" fill="#0D0D0D"/>
<rect x="541.834" y="319.5" width="185.167" height="199" rx="15.5" fill="#CECCC9"/>
<rect x="541.834" y="319.5" width="185.167" height="199" rx="15.5" stroke="#BFBDBA"/>
<path d="M608.094 491.448C602.686 491.448 599.582 488.632 599.582 484.664C599.582 482.072 601.214 479.896 603.71 479.096C601.47 478.328 600.222 476.344 600.222 474.2C600.222 470.648 603.326 468.152 608.094 468.152C612.894 468.152 615.998 470.648 615.998 474.2C615.998 476.344 614.75 478.328 612.51 479.096C615.006 479.896 616.638 482.072 616.638 484.664C616.638 488.632 613.534 491.448 608.094 491.448ZM602.782 484.568C602.782 487 604.67 488.76 608.094 488.76C611.55 488.76 613.438 487 613.438 484.568C613.438 482.104 611.422 480.472 608.094 480.472C604.798 480.472 602.782 482.104 602.782 484.568ZM603.422 474.392C603.422 476.472 605.214 477.848 608.094 477.848C610.974 477.848 612.798 476.472 612.798 474.392C612.798 472.312 611.07 470.84 608.094 470.84C605.15 470.84 603.422 472.312 603.422 474.392ZM620.406 491V486.616H624.246V491H620.406ZM628.159 491V488.088H635.199C637.951 488.088 639.839 486.424 639.839 483.96C639.839 481.528 638.111 479.864 635.199 479.864H628.703V468.6H642.079V471.512H631.807V477.048H635.551C640.095 477.048 643.071 479.768 643.071 483.832C643.071 488.088 639.935 491 635.199 491H628.159ZM650.354 467.832C651.933 467.832 653.128 468.461 653.938 469.72C654.749 470.957 655.154 472.707 655.154 474.968C655.154 477.229 654.76 479 653.97 480.28C653.202 481.539 651.997 482.168 650.354 482.168C649.352 482.168 648.498 481.88 647.794 481.304C647.09 480.728 646.557 479.907 646.194 478.84C645.853 477.752 645.682 476.461 645.682 474.968C645.682 472.707 646.056 470.957 646.802 469.72C647.549 468.461 648.733 467.832 650.354 467.832ZM650.354 469.816C649.544 469.816 648.946 470.253 648.562 471.128C648.2 471.981 648.018 473.261 648.018 474.968C648.018 476.675 648.2 477.965 648.562 478.84C648.946 479.715 649.544 480.152 650.354 480.152C651.186 480.152 651.805 479.725 652.21 478.872C652.616 477.997 652.818 476.696 652.818 474.968C652.818 473.261 652.616 471.981 652.21 471.128C651.805 470.253 651.186 469.816 650.354 469.816ZM664.978 468.152L652.306 491H649.842L662.514 468.152H664.978ZM664.338 476.984C665.384 476.984 666.258 477.272 666.962 477.848C667.666 478.403 668.2 479.213 668.562 480.28C668.946 481.325 669.138 482.605 669.138 484.12C669.138 486.381 668.744 488.152 667.954 489.432C667.186 490.691 665.981 491.32 664.338 491.32C663.336 491.32 662.482 491.032 661.778 490.456C661.074 489.88 660.541 489.059 660.178 487.992C659.837 486.904 659.666 485.613 659.666 484.12C659.666 481.859 660.04 480.109 660.786 478.872C661.533 477.613 662.717 476.984 664.338 476.984ZM664.338 479C663.528 479 662.93 479.427 662.546 480.28C662.184 481.133 662.002 482.413 662.002 484.12C662.002 485.848 662.184 487.149 662.546 488.024C662.93 488.877 663.528 489.304 664.338 489.304C665.17 489.304 665.789 488.877 666.194 488.024C666.6 487.171 666.802 485.869 666.802 484.12C666.802 482.413 666.6 481.133 666.194 480.28C665.789 479.427 665.17 479 664.338 479Z" fill="#0D0D0D"/>
<path d="M372.371 561V547H378.371C381.291 547 383.011 548.52 383.011 551.02C383.011 553.42 381.451 554.92 378.791 555.06L383.411 561H380.911L376.311 555.04H374.371V561H372.371ZM374.371 553.22H378.371C380.031 553.22 380.971 552.42 380.971 551.02C380.971 549.66 380.031 548.88 378.371 548.88H374.371V553.22ZM389.098 561.28C386.218 561.28 384.298 559.26 384.298 556.14C384.298 553.04 386.218 551.1 388.958 551.1C391.818 551.1 393.578 552.96 393.578 555.9C393.578 556.16 393.558 556.42 393.518 556.82H386.218C386.298 558.58 387.378 559.64 389.098 559.64C390.238 559.64 391.038 559.12 391.418 558.26H393.398C392.798 560.12 391.318 561.28 389.098 561.28ZM386.218 555.3H391.618V555.2C391.618 553.72 390.658 552.66 388.958 552.66C387.338 552.66 386.298 553.74 386.218 555.3ZM396.817 549.62C396.817 547.94 397.797 547 399.457 547H402.577V548.7H399.857C399.157 548.7 398.737 549.06 398.737 549.82V551.38H401.977V553.08H398.737V561H396.817V553.08H394.277V551.38H396.817V549.62ZM407.18 561.28C404.84 561.28 403.4 559.84 403.4 557.18V551.38H405.34V557C405.34 558.72 406.14 559.52 407.54 559.52C409 559.52 409.94 558.48 409.94 556.94V551.38H411.88V561H410.16V559.9C409.52 560.84 408.42 561.28 407.18 561.28ZM418.05 561.28C415.45 561.28 413.91 560.24 413.81 558.26H415.81C415.91 559.22 416.69 559.7 418.09 559.7C419.37 559.7 420.15 559.16 420.15 558.28C420.15 557.56 419.61 557.14 418.61 557.04L417.07 556.88C415.27 556.7 414.13 555.7 414.13 554.1C414.13 552.26 415.67 551.1 418.03 551.1C420.43 551.1 421.91 552.1 422.03 554.06H420.09C420.03 553.14 419.27 552.68 418.01 552.68C416.81 552.68 416.05 553.18 416.05 554C416.05 554.7 416.57 555.08 417.69 555.22L419.25 555.4C421.07 555.6 422.11 556.62 422.11 558.2C422.11 560.08 420.53 561.28 418.05 561.28ZM427.153 561.28C424.933 561.28 423.533 560.12 423.533 558.28C423.533 556.56 424.693 555.32 427.053 555.18L429.973 555.02V554.48C429.973 553.22 429.353 552.7 428.033 552.7C426.753 552.7 426.113 553.04 425.953 554.06H424.013C424.233 552.08 425.593 551.1 428.173 551.1C430.473 551.1 431.813 552.26 431.813 554.38V559.08C431.813 559.3 431.913 559.4 432.133 559.4H432.953V561H431.393C430.733 561 430.353 560.64 430.353 560V559.72C429.793 560.7 428.653 561.28 427.153 561.28ZM425.473 558.22C425.473 559.1 426.193 559.68 427.373 559.68C428.933 559.68 429.973 558.78 429.973 557.14V556.52L427.293 556.72C426.053 556.8 425.473 557.44 425.473 558.22ZM436.738 561C435.378 561 434.798 560.48 434.798 559.18V547H436.738V558.58C436.738 559.08 436.918 559.3 437.418 559.3H438.638V561H436.738ZM445.575 561V547H451.575C454.495 547 456.215 548.52 456.215 551.02C456.215 553.42 454.655 554.92 451.995 555.06L456.615 561H454.115L449.515 555.04H447.575V561H445.575ZM447.575 553.22H451.575C453.235 553.22 454.175 552.42 454.175 551.02C454.175 549.66 453.235 548.88 451.575 548.88H447.575V553.22ZM461.333 561.28C459.113 561.28 457.713 560.12 457.713 558.28C457.713 556.56 458.873 555.32 461.233 555.18L464.153 555.02V554.48C464.153 553.22 463.533 552.7 462.213 552.7C460.933 552.7 460.293 553.04 460.133 554.06H458.193C458.413 552.08 459.773 551.1 462.353 551.1C464.653 551.1 465.993 552.26 465.993 554.38V559.08C465.993 559.3 466.093 559.4 466.313 559.4H467.133V561H465.573C464.913 561 464.533 560.64 464.533 560V559.72C463.973 560.7 462.833 561.28 461.333 561.28ZM459.653 558.22C459.653 559.1 460.373 559.68 461.553 559.68C463.113 559.68 464.153 558.78 464.153 557.14V556.52L461.473 556.72C460.233 556.8 459.653 557.44 459.653 558.22ZM472.283 561C470.623 561 469.903 560.34 469.903 558.68V553.08H467.383V551.38H469.903V548.5H471.843V551.38H474.863V553.08H471.843V558.3C471.843 559 472.123 559.3 472.863 559.3H474.863V561H472.283ZM480.672 561.28C477.792 561.28 475.872 559.26 475.872 556.14C475.872 553.04 477.792 551.1 480.532 551.1C483.392 551.1 485.152 552.96 485.152 555.9C485.152 556.16 485.132 556.42 485.092 556.82H477.792C477.872 558.58 478.952 559.64 480.672 559.64C481.812 559.64 482.612 559.12 482.992 558.26H484.972C484.372 560.12 482.892 561.28 480.672 561.28ZM477.792 555.3H483.192V555.2C483.192 553.72 482.232 552.66 480.532 552.66C478.912 552.66 477.872 553.74 477.792 555.3Z" fill="#0D0D0D"/>
<rect x="399.25" y="575.5" width="58" height="20" rx="10" stroke="#E20B0B"/>
<path d="M410.014 584.568H412.8V585.562H410.014V588.446H409.006V585.562H406.22V584.568H409.006V581.67H410.014V584.568ZM418.011 590.196C415.813 590.196 414.273 588.698 414.273 585.674C414.273 582.314 415.575 580.2 418.865 580.2H420.741V581.474H418.865C416.597 581.474 415.771 582.622 415.659 584.778C416.093 584.092 416.989 583.602 418.221 583.602C420.195 583.602 421.581 584.974 421.581 586.864C421.581 588.782 420.125 590.196 418.011 590.196ZM415.785 586.906C415.785 588.124 416.681 588.964 417.969 588.964C419.257 588.964 420.167 588.124 420.167 586.906C420.167 585.688 419.257 584.848 417.969 584.848C416.681 584.848 415.785 585.674 415.785 586.906ZM423.209 590V588.082H424.889V590H423.209ZM429.856 580.004C432.054 580.004 433.594 581.502 433.594 584.526C433.594 587.886 432.292 590 429.002 590H427.126V588.726H429.002C431.27 588.726 432.096 587.578 432.208 585.422C431.774 586.108 430.878 586.598 429.646 586.598C427.672 586.598 426.286 585.226 426.286 583.336C426.286 581.418 427.742 580.004 429.856 580.004ZM427.7 583.294C427.7 584.512 428.61 585.352 429.898 585.352C431.186 585.352 432.082 584.526 432.082 583.294C432.082 582.076 431.186 581.236 429.898 581.236C428.61 581.236 427.7 582.076 427.7 583.294ZM434.55 590L437.168 586.528L434.69 583.266H436.342L438.05 585.59L439.744 583.266H441.396L438.918 586.528L441.536 590H439.884L438.05 587.536L436.202 590H434.55Z" fill="#E20B0B"/>
<path fill-rule="evenodd" clip-rule="evenodd" d="M444.75 585.625L448.25 580L451.75 585.625H448.856V590H447.644V585.625H444.75Z" fill="#E20B0B"/>
<rect x="767.5" y="255" width="1" height="264" rx="0.5" fill="#B5B2B0"/>
<rect x="809" y="255.5" width="185.167" height="263" rx="15.5" fill="#CECCC9"/>
<rect x="809" y="255.5" width="185.167" height="263" rx="15.5" stroke="#BFBDBA"/>
<path d="M858.172 491V488.088H864.028V471.576H859.964V468.6H867.132V488.088H872.892V491H858.172ZM874.946 491V488.088H880.802V471.576H876.738V468.6H883.906V488.088H889.666V491H874.946ZM893.065 491V486.616H896.905V491H893.065ZM901.971 487.064C901.971 482.936 903.891 481.016 907.475 479.992L910.611 479.096C913.075 478.392 914.227 477.208 914.227 475.192C914.227 472.984 912.659 471.512 910.259 471.512H903.059V468.6H910.259C914.515 468.6 917.459 471.192 917.459 475.192C917.459 478.424 915.283 480.632 912.147 481.592L908.307 482.744C906.099 483.416 905.203 484.504 905.203 486.52V488.088H917.267V491H901.971V487.064ZM924.731 467.832C926.31 467.832 927.505 468.461 928.315 469.72C929.126 470.957 929.531 472.707 929.531 474.968C929.531 477.229 929.137 479 928.347 480.28C927.579 481.539 926.374 482.168 924.731 482.168C923.729 482.168 922.875 481.88 922.171 481.304C921.467 480.728 920.934 479.907 920.571 478.84C920.23 477.752 920.059 476.461 920.059 474.968C920.059 472.707 920.433 470.957 921.179 469.72C921.926 468.461 923.11 467.832 924.731 467.832ZM924.731 469.816C923.921 469.816 923.323 470.253 922.939 471.128C922.577 471.981 922.395 473.261 922.395 474.968C922.395 476.675 922.577 477.965 922.939 478.84C923.323 479.715 923.921 480.152 924.731 480.152C925.563 480.152 926.182 479.725 926.587 478.872C926.993 477.997 927.195 476.696 927.195 474.968C927.195 473.261 926.993 471.981 926.587 471.128C926.182 470.253 925.563 469.816 924.731 469.816ZM939.355 468.152L926.683 491H924.219L936.891 468.152H939.355ZM938.715 476.984C939.761 476.984 940.635 477.272 941.339 477.848C942.043 478.403 942.577 479.213 942.939 480.28C943.323 481.325 943.515 482.605 943.515 484.12C943.515 486.381 943.121 488.152 942.331 489.432C941.563 490.691 940.358 491.32 938.715 491.32C937.713 491.32 936.859 491.032 936.155 490.456C935.451 489.88 934.918 489.059 934.555 487.992C934.214 486.904 934.043 485.613 934.043 484.12C934.043 481.859 934.417 480.109 935.163 478.872C935.91 477.613 937.094 476.984 938.715 476.984ZM938.715 479C937.905 479 937.307 479.427 936.923 480.28C936.561 481.133 936.379 482.413 936.379 484.12C936.379 485.848 936.561 487.149 936.923 488.024C937.307 488.877 937.905 489.304 938.715 489.304C939.547 489.304 940.166 488.877 940.571 488.024C940.977 487.171 941.179 485.869 941.179 484.12C941.179 482.413 940.977 481.133 940.571 480.28C940.166 479.427 939.547 479 938.715 479Z" fill="#0D0D0D"/>
<rect x="1015.17" y="307.5" width="185.167" height="211" rx="15.5" fill="#CECCC9"/>
<rect x="1015.17" y="307.5" width="185.167" height="211" rx="15.5" stroke="#BFBDBA"/>
<path d="M1094.13 468.152C1099.15 468.152 1102.67 471.576 1102.67 478.488C1102.67 486.168 1099.69 491 1092.17 491H1087.89V488.088H1092.17C1097.36 488.088 1099.25 485.464 1099.5 480.536C1098.51 482.104 1096.46 483.224 1093.65 483.224C1089.13 483.224 1085.97 480.088 1085.97 475.768C1085.97 471.384 1089.29 468.152 1094.13 468.152ZM1089.2 475.672C1089.2 478.456 1091.28 480.376 1094.22 480.376C1097.17 480.376 1099.21 478.488 1099.21 475.672C1099.21 472.888 1097.17 470.968 1094.22 470.968C1091.28 470.968 1089.2 472.888 1089.2 475.672ZM1110.3 467.832C1111.87 467.832 1113.07 468.461 1113.88 469.72C1114.69 470.957 1115.1 472.707 1115.1 474.968C1115.1 477.229 1114.7 479 1113.91 480.28C1113.14 481.539 1111.94 482.168 1110.3 482.168C1109.29 482.168 1108.44 481.88 1107.74 481.304C1107.03 480.728 1106.5 479.907 1106.14 478.84C1105.79 477.752 1105.62 476.461 1105.62 474.968C1105.62 472.707 1106 470.957 1106.74 469.72C1107.49 468.461 1108.67 467.832 1110.3 467.832ZM1110.3 469.816C1109.48 469.816 1108.89 470.253 1108.5 471.128C1108.14 471.981 1107.96 473.261 1107.96 474.968C1107.96 476.675 1108.14 477.965 1108.5 478.84C1108.89 479.715 1109.48 480.152 1110.3 480.152C1111.13 480.152 1111.75 479.725 1112.15 478.872C1112.56 477.997 1112.76 476.696 1112.76 474.968C1112.76 473.261 1112.56 471.981 1112.15 471.128C1111.75 470.253 1111.13 469.816 1110.3 469.816ZM1124.92 468.152L1112.25 491H1109.78L1122.46 468.152H1124.92ZM1124.28 476.984C1125.32 476.984 1126.2 477.272 1126.9 477.848C1127.61 478.403 1128.14 479.213 1128.5 480.28C1128.89 481.325 1129.08 482.605 1129.08 484.12C1129.08 486.381 1128.68 488.152 1127.9 489.432C1127.13 490.691 1125.92 491.32 1124.28 491.32C1123.28 491.32 1122.42 491.032 1121.72 490.456C1121.02 489.88 1120.48 489.059 1120.12 487.992C1119.78 486.904 1119.61 485.613 1119.61 484.12C1119.61 481.859 1119.98 480.109 1120.73 478.872C1121.47 477.613 1122.66 476.984 1124.28 476.984ZM1124.28 479C1123.47 479 1122.87 479.427 1122.49 480.28C1122.12 481.133 1121.94 482.413 1121.94 484.12C1121.94 485.848 1122.12 487.149 1122.49 488.024C1122.87 488.877 1123.47 489.304 1124.28 489.304C1125.11 489.304 1125.73 488.877 1126.14 488.024C1126.54 487.171 1126.74 485.869 1126.74 484.12C1126.74 482.413 1126.54 481.133 1126.14 480.28C1125.73 479.427 1125.11 479 1124.28 479Z" fill="#0D0D0D"/>
<rect x="1221.33" y="410.5" width="185.167" height="108" rx="15.5" fill="#CECCC9"/>
<rect x="1221.33" y="410.5" width="185.167" height="108" rx="15.5" stroke="#BFBDBA"/>
<path d="M1279.78 491V484.344H1267.78V481.528L1278.57 468.6H1282.89V481.528H1286.57V484.344H1282.89V491H1279.78ZM1271.24 481.528H1279.78V471.288L1271.24 481.528ZM1289 491V486.616H1292.84V491H1289ZM1304.89 491.448C1299.87 491.448 1296.35 488.024 1296.35 481.112C1296.35 473.432 1299.32 468.6 1306.84 468.6H1311.13V471.512H1306.84C1301.66 471.512 1299.77 474.136 1299.52 479.064C1300.51 477.496 1302.56 476.376 1305.37 476.376C1309.88 476.376 1313.05 479.512 1313.05 483.832C1313.05 488.216 1309.72 491.448 1304.89 491.448ZM1299.8 483.928C1299.8 486.712 1301.85 488.632 1304.8 488.632C1307.74 488.632 1309.82 486.712 1309.82 483.928C1309.82 481.144 1307.74 479.224 1304.8 479.224C1301.85 479.224 1299.8 481.112 1299.8 483.928ZM1327.17 491V484.344H1315.17V481.528L1325.95 468.6H1330.27V481.528H1333.95V484.344H1330.27V491H1327.17ZM1318.62 481.528H1327.17V471.288L1318.62 481.528ZM1340.41 467.832C1341.99 467.832 1343.18 468.461 1343.99 469.72C1344.8 470.957 1345.21 472.707 1345.21 474.968C1345.21 477.229 1344.81 479 1344.03 480.28C1343.26 481.539 1342.05 482.168 1340.41 482.168C1339.41 482.168 1338.55 481.88 1337.85 481.304C1337.15 480.728 1336.61 479.907 1336.25 478.84C1335.91 477.752 1335.74 476.461 1335.74 474.968C1335.74 472.707 1336.11 470.957 1336.86 469.72C1337.6 468.461 1338.79 467.832 1340.41 467.832ZM1340.41 469.816C1339.6 469.816 1339 470.253 1338.62 471.128C1338.25 471.981 1338.07 473.261 1338.07 474.968C1338.07 476.675 1338.25 477.965 1338.62 478.84C1339 479.715 1339.6 480.152 1340.41 480.152C1341.24 480.152 1341.86 479.725 1342.27 478.872C1342.67 477.997 1342.87 476.696 1342.87 474.968C1342.87 473.261 1342.67 471.981 1342.27 471.128C1341.86 470.253 1341.24 469.816 1340.41 469.816ZM1355.03 468.152L1342.36 491H1339.9L1352.57 468.152H1355.03ZM1354.39 476.984C1355.44 476.984 1356.31 477.272 1357.02 477.848C1357.72 478.403 1358.25 479.213 1358.62 480.28C1359 481.325 1359.19 482.605 1359.19 484.12C1359.19 486.381 1358.8 488.152 1358.01 489.432C1357.24 490.691 1356.04 491.32 1354.39 491.32C1353.39 491.32 1352.54 491.032 1351.83 490.456C1351.13 489.88 1350.6 489.059 1350.23 487.992C1349.89 486.904 1349.72 485.613 1349.72 484.12C1349.72 481.859 1350.09 480.109 1350.84 478.872C1351.59 477.613 1352.77 476.984 1354.39 476.984ZM1354.39 479C1353.58 479 1352.99 479.427 1352.6 480.28C1352.24 481.133 1352.06 482.413 1352.06 484.12C1352.06 485.848 1352.24 487.149 1352.6 488.024C1352.99 488.877 1353.58 489.304 1354.39 489.304C1355.23 489.304 1355.84 488.877 1356.25 488.024C1356.65 487.171 1356.86 485.869 1356.86 484.12C1356.86 482.413 1356.65 481.133 1356.25 480.28C1355.84 479.427 1355.23 479 1354.39 479Z" fill="#0D0D0D"/>
<path d="M1041.1 561.28C1037.38 561.28 1034.82 558.84 1034.82 554.02C1034.82 549.2 1037.28 546.72 1041.14 546.72C1044.18 546.72 1046.26 548.48 1046.68 551.48H1044.58C1044.28 549.64 1042.9 548.58 1041.14 548.58C1038.58 548.58 1036.88 550.24 1036.88 553.98C1036.88 557.68 1038.66 559.42 1041.1 559.42C1043.04 559.42 1044.26 558.12 1044.58 556.32H1046.66C1046.18 559.22 1044.26 561.28 1041.1 561.28ZM1053.09 561.28C1050.17 561.28 1048.13 559.24 1048.13 556.18C1048.13 553.14 1050.17 551.1 1053.09 551.1C1056.03 551.1 1058.05 553.14 1058.05 556.18C1058.05 559.24 1056.03 561.28 1053.09 561.28ZM1050.13 556.18C1050.13 558.18 1051.33 559.52 1053.09 559.52C1054.87 559.52 1056.05 558.18 1056.05 556.18C1056.05 554.2 1054.87 552.86 1053.09 552.86C1051.33 552.86 1050.13 554.2 1050.13 556.18ZM1060.27 561V551.38H1061.99V552.64C1062.57 551.6 1063.73 551.1 1065.03 551.1C1067.39 551.1 1068.87 552.54 1068.87 555.2V561H1066.93V555.38C1066.93 553.66 1066.09 552.86 1064.67 552.86C1063.19 552.86 1062.21 553.88 1062.21 555.44V561H1060.27ZM1073.86 561L1069.86 551.38H1072.02L1074.98 558.92L1077.92 551.38H1080.08L1076.06 561H1073.86ZM1085.5 561.28C1082.62 561.28 1080.7 559.26 1080.7 556.14C1080.7 553.04 1082.62 551.1 1085.36 551.1C1088.22 551.1 1089.98 552.96 1089.98 555.9C1089.98 556.16 1089.96 556.42 1089.92 556.82H1082.62C1082.7 558.58 1083.78 559.64 1085.5 559.64C1086.64 559.64 1087.44 559.12 1087.82 558.26H1089.8C1089.2 560.12 1087.72 561.28 1085.5 561.28ZM1082.62 555.3H1088.02V555.2C1088.02 553.72 1087.06 552.66 1085.36 552.66C1083.74 552.66 1082.7 553.74 1082.62 555.3ZM1092.11 561V551.38H1093.83V552.94C1094.07 551.98 1094.79 551.38 1095.93 551.38H1097.77V553.08H1095.75C1094.55 553.08 1094.05 553.76 1094.05 555.06V561H1092.11ZM1102.58 561.28C1099.98 561.28 1098.44 560.24 1098.34 558.26H1100.34C1100.44 559.22 1101.22 559.7 1102.62 559.7C1103.9 559.7 1104.68 559.16 1104.68 558.28C1104.68 557.56 1104.14 557.14 1103.14 557.04L1101.6 556.88C1099.8 556.7 1098.66 555.7 1098.66 554.1C1098.66 552.26 1100.2 551.1 1102.56 551.1C1104.96 551.1 1106.44 552.1 1106.56 554.06H1104.62C1104.56 553.14 1103.8 552.68 1102.54 552.68C1101.34 552.68 1100.58 553.18 1100.58 554C1100.58 554.7 1101.1 555.08 1102.22 555.22L1103.78 555.4C1105.6 555.6 1106.64 556.62 1106.64 558.2C1106.64 560.08 1105.06 561.28 1102.58 561.28ZM1108.74 561V551.38H1110.68V561H1108.74ZM1108.62 549.44V547.14H1110.78V549.44H1108.62ZM1117.84 561.28C1114.92 561.28 1112.88 559.24 1112.88 556.18C1112.88 553.14 1114.92 551.1 1117.84 551.1C1120.78 551.1 1122.8 553.14 1122.8 556.18C1122.8 559.24 1120.78 561.28 1117.84 561.28ZM1114.88 556.18C1114.88 558.18 1116.08 559.52 1117.84 559.52C1119.62 559.52 1120.8 558.18 1120.8 556.18C1120.8 554.2 1119.62 552.86 1117.84 552.86C1116.08 552.86 1114.88 554.2 1114.88 556.18ZM1125.02 561V551.38H1126.74V552.64C1127.32 551.6 1128.48 551.1 1129.78 551.1C1132.14 551.1 1133.62 552.54 1133.62 555.2V561H1131.68V555.38C1131.68 553.66 1130.84 552.86 1129.42 552.86C1127.94 552.86 1126.96 553.88 1126.96 555.44V561H1125.02ZM1141.48 561V547H1147.48C1150.4 547 1152.12 548.52 1152.12 551.02C1152.12 553.42 1150.56 554.92 1147.9 555.06L1152.52 561H1150.02L1145.42 555.04H1143.48V561H1141.48ZM1143.48 553.22H1147.48C1149.14 553.22 1150.08 552.42 1150.08 551.02C1150.08 549.66 1149.14 548.88 1147.48 548.88H1143.48V553.22ZM1157.24 561.28C1155.02 561.28 1153.62 560.12 1153.62 558.28C1153.62 556.56 1154.78 555.32 1157.14 555.18L1160.06 555.02V554.48C1160.06 553.22 1159.44 552.7 1158.12 552.7C1156.84 552.7 1156.2 553.04 1156.04 554.06H1154.1C1154.32 552.08 1155.68 551.1 1158.26 551.1C1160.56 551.1 1161.9 552.26 1161.9 554.38V559.08C1161.9 559.3 1162 559.4 1162.22 559.4H1163.04V561H1161.48C1160.82 561 1160.44 560.64 1160.44 560V559.72C1159.88 560.7 1158.74 561.28 1157.24 561.28ZM1155.56 558.22C1155.56 559.1 1156.28 559.68 1157.46 559.68C1159.02 559.68 1160.06 558.78 1160.06 557.14V556.52L1157.38 556.72C1156.14 556.8 1155.56 557.44 1155.56 558.22ZM1168.19 561C1166.53 561 1165.81 560.34 1165.81 558.68V553.08H1163.29V551.38H1165.81V548.5H1167.75V551.38H1170.77V553.08H1167.75V558.3C1167.75 559 1168.03 559.3 1168.77 559.3H1170.77V561H1168.19ZM1176.58 561.28C1173.7 561.28 1171.78 559.26 1171.78 556.14C1171.78 553.04 1173.7 551.1 1176.44 551.1C1179.3 551.1 1181.06 552.96 1181.06 555.9C1181.06 556.16 1181.04 556.42 1181 556.82H1173.7C1173.78 558.58 1174.86 559.64 1176.58 559.64C1177.72 559.64 1178.52 559.12 1178.9 558.26H1180.88C1180.28 560.12 1178.8 561.28 1176.58 561.28ZM1173.7 555.3H1179.1V555.2C1179.1 553.72 1178.14 552.66 1176.44 552.66C1174.82 552.66 1173.78 553.74 1173.7 555.3Z" fill="#0D0D0D"/>
<rect x="1080.25" y="575.5" width="55" height="20" rx="10" stroke="#E20B0B"/>
<path d="M1087.37 587.004V585.702H1091.62V587.004H1087.37ZM1092.93 588.278C1092.93 586.472 1093.77 585.632 1095.34 585.184L1096.71 584.792C1097.79 584.484 1098.29 583.966 1098.29 583.084C1098.29 582.118 1097.6 581.474 1096.55 581.474H1093.4V580.2H1096.55C1098.42 580.2 1099.7 581.334 1099.7 583.084C1099.7 584.498 1098.75 585.464 1097.38 585.884L1095.7 586.388C1094.73 586.682 1094.34 587.158 1094.34 588.04V588.726H1099.62V590H1092.93V588.278ZM1101.46 590V588.082H1103.14V590H1101.46ZM1109.55 590V587.088H1104.3V585.856L1109.01 580.2H1110.9V585.856H1112.51V587.088H1110.9V590H1109.55ZM1105.81 585.856H1109.55V581.376L1105.81 585.856ZM1112.55 590L1115.17 586.528L1112.69 583.266H1114.34L1116.05 585.59L1117.74 583.266H1119.4L1116.92 586.528L1119.54 590H1117.88L1116.05 587.536L1114.2 590H1112.55Z" fill="#E20B0B"/>
<path fill-rule="evenodd" clip-rule="evenodd" d="M1129.75 584.875L1126.25 590.5L1122.75 584.875H1125.64V580.5H1126.86V584.875H1129.75Z" fill="#E20B0B"/>
</g>
<defs>
<clipPath id="clip0_4638_110301">
<rect width="1278" height="432" fill="white" transform="translate(129 164)"/>
</clipPath>
</defs>
</svg>
