<svg width="1278" height="432" viewBox="0 0 1278 432" fill="none" xmlns="http://www.w3.org/2000/svg">
<g clip-path="url(#clip0_6624_23122)">
<path d="M259.88 23.264C258.232 23.264 256.792 22.896 255.56 22.16C254.328 21.408 253.368 20.368 252.68 19.04C251.992 17.696 251.648 16.128 251.648 14.336C251.648 12.544 252 10.976 252.704 9.632C253.408 8.288 254.384 7.24 255.632 6.488C256.896 5.736 258.352 5.36 260 5.36C261.312 5.36 262.496 5.608 263.552 6.104C264.608 6.584 265.488 7.264 266.192 8.144C266.896 9.024 267.352 10.056 267.56 11.24H265.04C264.72 10.104 264.104 9.216 263.192 8.576C262.28 7.936 261.192 7.616 259.928 7.616C258.76 7.616 257.736 7.896 256.856 8.456C255.992 9 255.32 9.776 254.84 10.784C254.36 11.776 254.12 12.952 254.12 14.312C254.12 15.656 254.36 16.832 254.84 17.84C255.32 18.848 256 19.632 256.88 20.192C257.76 20.736 258.776 21.008 259.928 21.008C261.208 21.008 262.312 20.696 263.24 20.072C264.184 19.432 264.816 18.576 265.136 17.504H267.632C267.392 18.656 266.904 19.664 266.168 20.528C265.448 21.392 264.544 22.064 263.456 22.544C262.384 23.024 261.192 23.264 259.88 23.264ZM273.089 23.288C271.841 23.288 270.857 22.96 270.137 22.304C269.433 21.648 269.081 20.792 269.081 19.736C269.081 18.664 269.465 17.808 270.233 17.168C271.001 16.512 272.073 16.128 273.449 16.016L277.145 15.728V15.392C277.145 14.736 277.025 14.216 276.785 13.832C276.545 13.432 276.217 13.152 275.801 12.992C275.385 12.816 274.913 12.728 274.385 12.728C273.441 12.728 272.705 12.928 272.177 13.328C271.665 13.712 271.409 14.264 271.409 14.984H269.441C269.441 14.168 269.649 13.456 270.065 12.848C270.481 12.24 271.065 11.768 271.817 11.432C272.585 11.096 273.473 10.928 274.481 10.928C275.457 10.928 276.305 11.104 277.025 11.456C277.761 11.792 278.329 12.312 278.729 13.016C279.145 13.704 279.353 14.576 279.353 15.632V23H277.433L277.193 21.104C276.889 21.776 276.361 22.312 275.609 22.712C274.873 23.096 274.033 23.288 273.089 23.288ZM273.737 21.536C274.809 21.536 275.649 21.216 276.257 20.576C276.865 19.92 277.169 19.04 277.169 17.936V17.312L274.169 17.552C273.177 17.648 272.457 17.88 272.009 18.248C271.577 18.616 271.361 19.088 271.361 19.664C271.361 20.288 271.569 20.76 271.985 21.08C272.417 21.384 273.001 21.536 273.737 21.536ZM281.278 19.592H283.438C283.438 20.184 283.654 20.656 284.086 21.008C284.518 21.344 285.102 21.512 285.838 21.512C286.638 21.512 287.254 21.36 287.686 21.056C288.118 20.736 288.334 20.312 288.334 19.784C288.334 19.4 288.214 19.08 287.974 18.824C287.75 18.568 287.334 18.36 286.726 18.2L284.662 17.72C283.622 17.464 282.846 17.072 282.334 16.544C281.838 16.016 281.59 15.32 281.59 14.456C281.59 13.736 281.774 13.112 282.142 12.584C282.526 12.056 283.046 11.648 283.702 11.36C284.374 11.072 285.142 10.928 286.006 10.928C286.87 10.928 287.614 11.08 288.238 11.384C288.878 11.688 289.374 12.112 289.726 12.656C290.094 13.2 290.286 13.848 290.302 14.6H288.142C288.126 13.992 287.926 13.52 287.542 13.184C287.158 12.848 286.622 12.68 285.934 12.68C285.23 12.68 284.686 12.832 284.302 13.136C283.918 13.44 283.726 13.856 283.726 14.384C283.726 15.168 284.302 15.704 285.454 15.992L287.518 16.496C288.51 16.72 289.254 17.088 289.75 17.6C290.246 18.096 290.494 18.776 290.494 19.64C290.494 20.376 290.294 21.024 289.894 21.584C289.494 22.128 288.942 22.552 288.238 22.856C287.55 23.144 286.734 23.288 285.79 23.288C284.414 23.288 283.318 22.952 282.502 22.28C281.686 21.608 281.278 20.712 281.278 19.592ZM291.507 11.264H298.323V13.16H291.507V11.264ZM298.227 21.032L298.515 22.904C297.907 23.144 297.259 23.264 296.571 23.264C295.883 23.264 295.299 23.136 294.819 22.88C294.339 22.608 293.971 22.208 293.715 21.68C293.459 21.152 293.331 20.496 293.331 19.712V7.592H295.587V19.4C295.587 20.072 295.723 20.552 295.995 20.84C296.283 21.112 296.651 21.248 297.099 21.248C297.451 21.248 297.827 21.176 298.227 21.032ZM300.601 23V11.264H302.857V23H300.601ZM301.705 8.48C301.305 8.48 300.953 8.336 300.649 8.048C300.361 7.744 300.217 7.392 300.217 6.992C300.217 6.576 300.361 6.224 300.649 5.936C300.953 5.648 301.305 5.504 301.705 5.504C302.121 5.504 302.473 5.648 302.761 5.936C303.049 6.224 303.193 6.576 303.193 6.992C303.193 7.392 303.049 7.744 302.761 8.048C302.473 8.336 302.121 8.48 301.705 8.48ZM308.149 23H305.893V11.264H307.933L308.173 13.064C308.541 12.392 309.069 11.872 309.757 11.504C310.461 11.12 311.229 10.928 312.061 10.928C313.597 10.928 314.733 11.368 315.469 12.248C316.205 13.128 316.573 14.32 316.573 15.824V23H314.317V16.328C314.317 15.144 314.061 14.296 313.549 13.784C313.037 13.256 312.349 12.992 311.485 12.992C310.429 12.992 309.605 13.336 309.013 14.024C308.437 14.712 308.149 15.632 308.149 16.784V23ZM318.713 16.832C318.713 15.728 318.937 14.736 319.385 13.856C319.833 12.96 320.473 12.248 321.305 11.72C322.137 11.192 323.121 10.928 324.257 10.928C325.313 10.928 326.217 11.184 326.969 11.696C327.721 12.192 328.257 12.888 328.577 13.784L328.289 14.096L328.529 11.264H330.545V22.52C330.545 23.752 330.305 24.816 329.825 25.712C329.345 26.624 328.665 27.328 327.785 27.824C326.905 28.32 325.865 28.568 324.665 28.568C323.065 28.568 321.753 28.144 320.729 27.296C319.705 26.448 319.081 25.28 318.857 23.792H321.113C321.257 24.656 321.641 25.328 322.265 25.808C322.889 26.288 323.689 26.528 324.665 26.528C325.769 26.528 326.649 26.192 327.305 25.52C327.977 24.864 328.313 23.976 328.313 22.856V19.544L328.601 19.856C328.297 20.736 327.745 21.432 326.945 21.944C326.145 22.44 325.217 22.688 324.161 22.688C323.041 22.688 322.073 22.432 321.257 21.92C320.441 21.392 319.809 20.688 319.361 19.808C318.929 18.928 318.713 17.936 318.713 16.832ZM320.969 16.784C320.969 17.52 321.113 18.184 321.401 18.776C321.705 19.368 322.121 19.84 322.649 20.192C323.193 20.544 323.825 20.72 324.545 20.72C325.313 20.72 325.969 20.552 326.513 20.216C327.057 19.88 327.473 19.416 327.761 18.824C328.065 18.232 328.217 17.552 328.217 16.784C328.217 16.016 328.073 15.344 327.785 14.768C327.497 14.192 327.081 13.736 326.537 13.4C325.993 13.064 325.337 12.896 324.569 12.896C323.817 12.896 323.169 13.072 322.625 13.424C322.097 13.776 321.689 14.248 321.401 14.84C321.113 15.416 320.969 16.064 320.969 16.784ZM342.62 5.648V23H340.268V5.648H342.62ZM350.732 7.808H340.436V5.648H350.732V7.808ZM349.436 15.632H340.388V13.496H349.436V15.632ZM357.106 23.288C355.97 23.288 354.962 23.032 354.082 22.52C353.202 21.992 352.514 21.272 352.018 20.36C351.522 19.432 351.274 18.36 351.274 17.144C351.274 15.912 351.514 14.832 351.994 13.904C352.49 12.976 353.162 12.248 354.01 11.72C354.874 11.192 355.874 10.928 357.01 10.928C358.13 10.928 359.098 11.168 359.914 11.648C360.746 12.128 361.386 12.8 361.834 13.664C362.298 14.528 362.53 15.544 362.53 16.712V17.552L352.474 17.576L352.522 16.064H360.274C360.274 15.088 359.978 14.304 359.386 13.712C358.794 13.12 358.002 12.824 357.01 12.824C356.258 12.824 355.61 12.992 355.066 13.328C354.538 13.648 354.13 14.128 353.842 14.768C353.57 15.392 353.434 16.144 353.434 17.024C353.434 18.432 353.754 19.52 354.394 20.288C355.034 21.04 355.954 21.416 357.154 21.416C358.034 21.416 358.754 21.24 359.314 20.888C359.874 20.536 360.25 20.024 360.442 19.352H362.554C362.266 20.6 361.65 21.568 360.706 22.256C359.762 22.944 358.562 23.288 357.106 23.288ZM369.874 23.288C368.738 23.288 367.73 23.032 366.85 22.52C365.97 21.992 365.282 21.272 364.786 20.36C364.29 19.432 364.042 18.36 364.042 17.144C364.042 15.912 364.282 14.832 364.762 13.904C365.258 12.976 365.93 12.248 366.778 11.72C367.642 11.192 368.642 10.928 369.778 10.928C370.898 10.928 371.866 11.168 372.682 11.648C373.514 12.128 374.154 12.8 374.602 13.664C375.066 14.528 375.298 15.544 375.298 16.712V17.552L365.242 17.576L365.29 16.064H373.042C373.042 15.088 372.746 14.304 372.154 13.712C371.562 13.12 370.77 12.824 369.778 12.824C369.026 12.824 368.378 12.992 367.834 13.328C367.306 13.648 366.898 14.128 366.61 14.768C366.338 15.392 366.202 16.144 366.202 17.024C366.202 18.432 366.522 19.52 367.162 20.288C367.802 21.04 368.722 21.416 369.922 21.416C370.802 21.416 371.522 21.24 372.082 20.888C372.642 20.536 373.018 20.024 373.21 19.352H375.322C375.034 20.6 374.418 21.568 373.474 22.256C372.53 22.944 371.33 23.288 369.874 23.288ZM382.282 23.288C381.146 23.288 380.17 23.032 379.354 22.52C378.538 21.992 377.906 21.264 377.458 20.336C377.026 19.408 376.81 18.352 376.81 17.168C376.81 15.968 377.034 14.904 377.482 13.976C377.93 13.032 378.57 12.288 379.402 11.744C380.234 11.2 381.226 10.928 382.378 10.928C383.29 10.928 384.098 11.12 384.802 11.504C385.522 11.872 386.082 12.424 386.482 13.16V5.336H388.714V23H386.698L386.506 20.864C386.122 21.648 385.554 22.248 384.802 22.664C384.066 23.08 383.226 23.288 382.282 23.288ZM382.738 21.248C383.506 21.248 384.162 21.072 384.706 20.72C385.266 20.368 385.698 19.88 386.002 19.256C386.306 18.632 386.458 17.912 386.458 17.096C386.458 16.28 386.306 15.568 386.002 14.96C385.698 14.336 385.266 13.848 384.706 13.496C384.162 13.144 383.506 12.968 382.738 12.968C381.97 12.968 381.314 13.152 380.77 13.52C380.226 13.872 379.81 14.36 379.522 14.984C379.234 15.592 379.09 16.296 379.09 17.096C379.09 17.912 379.234 18.632 379.522 19.256C379.81 19.88 380.226 20.368 380.77 20.72C381.314 21.072 381.97 21.248 382.738 21.248Z" fill="#0D0D0D"/>
<path d="M568.847 5.648V23H566.495V5.648H568.847ZM566.903 23V20.816H576.479V23H566.903ZM581.842 23.288C580.594 23.288 579.61 22.96 578.89 22.304C578.186 21.648 577.834 20.792 577.834 19.736C577.834 18.664 578.218 17.808 578.986 17.168C579.754 16.512 580.826 16.128 582.202 16.016L585.898 15.728V15.392C585.898 14.736 585.778 14.216 585.538 13.832C585.298 13.432 584.97 13.152 584.554 12.992C584.138 12.816 583.666 12.728 583.138 12.728C582.194 12.728 581.458 12.928 580.93 13.328C580.418 13.712 580.162 14.264 580.162 14.984H578.194C578.194 14.168 578.402 13.456 578.818 12.848C579.234 12.24 579.818 11.768 580.57 11.432C581.338 11.096 582.226 10.928 583.234 10.928C584.21 10.928 585.058 11.104 585.778 11.456C586.514 11.792 587.082 12.312 587.482 13.016C587.898 13.704 588.106 14.576 588.106 15.632V23H586.186L585.946 21.104C585.642 21.776 585.114 22.312 584.362 22.712C583.626 23.096 582.786 23.288 581.842 23.288ZM582.49 21.536C583.562 21.536 584.402 21.216 585.01 20.576C585.618 19.92 585.922 19.04 585.922 17.936V17.312L582.922 17.552C581.93 17.648 581.21 17.88 580.762 18.248C580.33 18.616 580.114 19.088 580.114 19.664C580.114 20.288 580.322 20.76 580.738 21.08C581.17 21.384 581.754 21.536 582.49 21.536ZM590.03 19.592H592.19C592.19 20.184 592.406 20.656 592.838 21.008C593.27 21.344 593.854 21.512 594.59 21.512C595.39 21.512 596.006 21.36 596.438 21.056C596.87 20.736 597.086 20.312 597.086 19.784C597.086 19.4 596.966 19.08 596.726 18.824C596.502 18.568 596.086 18.36 595.478 18.2L593.414 17.72C592.374 17.464 591.598 17.072 591.086 16.544C590.59 16.016 590.342 15.32 590.342 14.456C590.342 13.736 590.526 13.112 590.894 12.584C591.278 12.056 591.798 11.648 592.454 11.36C593.126 11.072 593.894 10.928 594.758 10.928C595.622 10.928 596.366 11.08 596.99 11.384C597.63 11.688 598.126 12.112 598.478 12.656C598.846 13.2 599.038 13.848 599.054 14.6H596.894C596.878 13.992 596.678 13.52 596.294 13.184C595.91 12.848 595.374 12.68 594.686 12.68C593.982 12.68 593.438 12.832 593.054 13.136C592.67 13.44 592.478 13.856 592.478 14.384C592.478 15.168 593.054 15.704 594.206 15.992L596.27 16.496C597.262 16.72 598.006 17.088 598.502 17.6C598.998 18.096 599.246 18.776 599.246 19.64C599.246 20.376 599.046 21.024 598.646 21.584C598.246 22.128 597.694 22.552 596.99 22.856C596.302 23.144 595.486 23.288 594.542 23.288C593.166 23.288 592.07 22.952 591.254 22.28C590.438 21.608 590.03 20.712 590.03 19.592ZM600.26 11.264H607.076V13.16H600.26V11.264ZM606.98 21.032L607.268 22.904C606.66 23.144 606.012 23.264 605.324 23.264C604.636 23.264 604.052 23.136 603.572 22.88C603.092 22.608 602.724 22.208 602.468 21.68C602.212 21.152 602.084 20.496 602.084 19.712V7.592H604.34V19.4C604.34 20.072 604.476 20.552 604.748 20.84C605.036 21.112 605.404 21.248 605.852 21.248C606.204 21.248 606.58 21.176 606.98 21.032ZM626.357 7.544L619.997 13.616L618.461 12.464L624.605 6.56L624.485 7.736H615.581V5.648H626.357V7.544ZM620.189 14.024H618.461V12.464C618.733 12.288 619.069 12.176 619.469 12.128C619.885 12.064 620.285 12.032 620.669 12.032C621.517 12.032 622.309 12.16 623.045 12.416C623.781 12.656 624.429 13.016 624.989 13.496C625.565 13.976 626.005 14.56 626.309 15.248C626.629 15.92 626.789 16.688 626.789 17.552C626.789 18.72 626.517 19.736 625.973 20.6C625.445 21.464 624.709 22.128 623.765 22.592C622.837 23.056 621.789 23.288 620.621 23.288C619.485 23.288 618.477 23.064 617.597 22.616C616.717 22.168 616.021 21.52 615.509 20.672C615.013 19.808 614.765 18.784 614.765 17.6H617.093C617.093 18.72 617.413 19.6 618.053 20.24C618.709 20.864 619.581 21.176 620.669 21.176C621.789 21.176 622.685 20.84 623.357 20.168C624.045 19.496 624.389 18.608 624.389 17.504C624.389 16.464 624.037 15.624 623.333 14.984C622.629 14.344 621.581 14.024 620.189 14.024ZM637.656 23H635.4V11.264H637.416L637.728 13.424L637.44 13.232C637.68 12.576 638.12 12.032 638.76 11.6C639.416 11.152 640.208 10.928 641.136 10.928C642.176 10.928 643.04 11.208 643.728 11.768C644.416 12.328 644.864 13.072 645.072 14H644.664C644.824 13.072 645.264 12.328 645.984 11.768C646.704 11.208 647.592 10.928 648.648 10.928C649.992 10.928 651.048 11.32 651.816 12.104C652.584 12.888 652.968 13.96 652.968 15.32V23H650.76V15.872C650.76 14.944 650.52 14.232 650.04 13.736C649.576 13.224 648.944 12.968 648.144 12.968C647.584 12.968 647.088 13.096 646.656 13.352C646.24 13.592 645.912 13.944 645.672 14.408C645.432 14.872 645.312 15.416 645.312 16.04V23H643.08V15.848C643.08 14.92 642.848 14.216 642.384 13.736C641.92 13.24 641.288 12.992 640.488 12.992C639.928 12.992 639.432 13.12 639 13.376C638.584 13.616 638.256 13.968 638.016 14.432C637.776 14.88 637.656 15.416 637.656 16.04V23ZM655.087 17.12C655.087 15.92 655.351 14.856 655.879 13.928C656.407 13 657.127 12.272 658.039 11.744C658.967 11.216 660.023 10.952 661.207 10.952C662.391 10.952 663.439 11.216 664.351 11.744C665.263 12.272 665.983 13 666.511 13.928C667.039 14.856 667.303 15.92 667.303 17.12C667.303 18.32 667.039 19.384 666.511 20.312C665.983 21.24 665.263 21.968 664.351 22.496C663.439 23.024 662.391 23.288 661.207 23.288C660.023 23.288 658.967 23.024 658.039 22.496C657.127 21.968 656.407 21.24 655.879 20.312C655.351 19.384 655.087 18.32 655.087 17.12ZM657.367 17.12C657.367 17.936 657.527 18.656 657.847 19.28C658.183 19.904 658.639 20.392 659.215 20.744C659.791 21.096 660.455 21.272 661.207 21.272C661.959 21.272 662.623 21.096 663.199 20.744C663.775 20.392 664.223 19.904 664.543 19.28C664.879 18.656 665.047 17.936 665.047 17.12C665.047 16.288 664.879 15.568 664.543 14.96C664.223 14.336 663.775 13.848 663.199 13.496C662.623 13.144 661.959 12.968 661.207 12.968C660.455 12.968 659.791 13.144 659.215 13.496C658.639 13.848 658.183 14.336 657.847 14.96C657.527 15.568 657.367 16.288 657.367 17.12ZM671.816 23H669.56V11.264H671.6L671.84 13.064C672.208 12.392 672.736 11.872 673.424 11.504C674.128 11.12 674.896 10.928 675.728 10.928C677.264 10.928 678.4 11.368 679.136 12.248C679.872 13.128 680.24 14.32 680.24 15.824V23H677.984V16.328C677.984 15.144 677.728 14.296 677.216 13.784C676.704 13.256 676.016 12.992 675.152 12.992C674.096 12.992 673.272 13.336 672.68 14.024C672.104 14.712 671.816 15.632 671.816 16.784V23ZM681.877 11.264H688.693V13.16H681.877V11.264ZM688.597 21.032L688.885 22.904C688.277 23.144 687.629 23.264 686.941 23.264C686.253 23.264 685.669 23.136 685.189 22.88C684.709 22.608 684.341 22.208 684.085 21.68C683.829 21.152 683.701 20.496 683.701 19.712V7.592H685.957V19.4C685.957 20.072 686.093 20.552 686.365 20.84C686.653 21.112 687.021 21.248 687.469 21.248C687.821 21.248 688.197 21.176 688.597 21.032ZM693.227 22.976H690.971V5.336H693.227V13.064C693.595 12.424 694.123 11.912 694.811 11.528C695.499 11.128 696.299 10.928 697.211 10.928C698.699 10.928 699.811 11.368 700.547 12.248C701.283 13.128 701.651 14.32 701.651 15.824V23H699.395V16.328C699.395 15.528 699.275 14.888 699.035 14.408C698.811 13.912 698.483 13.552 698.051 13.328C697.635 13.104 697.147 12.992 696.587 12.992C695.867 12.992 695.251 13.152 694.739 13.472C694.243 13.792 693.867 14.224 693.611 14.768C693.355 15.312 693.227 15.92 693.227 16.592V22.976ZM703.435 19.592H705.595C705.595 20.184 705.811 20.656 706.243 21.008C706.675 21.344 707.259 21.512 707.995 21.512C708.795 21.512 709.411 21.36 709.843 21.056C710.275 20.736 710.491 20.312 710.491 19.784C710.491 19.4 710.371 19.08 710.131 18.824C709.907 18.568 709.491 18.36 708.883 18.2L706.819 17.72C705.779 17.464 705.003 17.072 704.491 16.544C703.995 16.016 703.747 15.32 703.747 14.456C703.747 13.736 703.931 13.112 704.299 12.584C704.683 12.056 705.203 11.648 705.859 11.36C706.531 11.072 707.299 10.928 708.163 10.928C709.027 10.928 709.771 11.08 710.395 11.384C711.035 11.688 711.531 12.112 711.883 12.656C712.251 13.2 712.443 13.848 712.459 14.6H710.299C710.283 13.992 710.083 13.52 709.699 13.184C709.315 12.848 708.779 12.68 708.091 12.68C707.387 12.68 706.843 12.832 706.459 13.136C706.075 13.44 705.883 13.856 705.883 14.384C705.883 15.168 706.459 15.704 707.611 15.992L709.675 16.496C710.667 16.72 711.411 17.088 711.907 17.6C712.403 18.096 712.651 18.776 712.651 19.64C712.651 20.376 712.451 21.024 712.051 21.584C711.651 22.128 711.099 22.552 710.395 22.856C709.707 23.144 708.891 23.288 707.947 23.288C706.571 23.288 705.475 22.952 704.659 22.28C703.843 21.608 703.435 20.712 703.435 19.592Z" fill="#9C9C9C"/>
<path d="M871.789 23.264C870.141 23.264 868.701 22.896 867.469 22.16C866.237 21.408 865.277 20.368 864.589 19.04C863.901 17.696 863.557 16.128 863.557 14.336C863.557 12.544 863.909 10.976 864.613 9.632C865.317 8.288 866.293 7.24 867.541 6.488C868.805 5.736 870.261 5.36 871.909 5.36C873.221 5.36 874.405 5.608 875.461 6.104C876.517 6.584 877.397 7.264 878.101 8.144C878.805 9.024 879.261 10.056 879.469 11.24H876.949C876.629 10.104 876.013 9.216 875.101 8.576C874.189 7.936 873.101 7.616 871.837 7.616C870.669 7.616 869.645 7.896 868.765 8.456C867.901 9 867.229 9.776 866.749 10.784C866.269 11.776 866.029 12.952 866.029 14.312C866.029 15.656 866.269 16.832 866.749 17.84C867.229 18.848 867.909 19.632 868.789 20.192C869.669 20.736 870.685 21.008 871.837 21.008C873.117 21.008 874.221 20.696 875.149 20.072C876.093 19.432 876.725 18.576 877.045 17.504H879.541C879.301 18.656 878.813 19.664 878.077 20.528C877.357 21.392 876.453 22.064 875.365 22.544C874.293 23.024 873.101 23.264 871.789 23.264ZM884.999 23.288C883.751 23.288 882.767 22.96 882.047 22.304C881.343 21.648 880.991 20.792 880.991 19.736C880.991 18.664 881.375 17.808 882.143 17.168C882.911 16.512 883.983 16.128 885.359 16.016L889.055 15.728V15.392C889.055 14.736 888.935 14.216 888.695 13.832C888.455 13.432 888.127 13.152 887.711 12.992C887.295 12.816 886.823 12.728 886.295 12.728C885.351 12.728 884.615 12.928 884.087 13.328C883.575 13.712 883.319 14.264 883.319 14.984H881.351C881.351 14.168 881.559 13.456 881.975 12.848C882.391 12.24 882.975 11.768 883.727 11.432C884.495 11.096 885.383 10.928 886.391 10.928C887.367 10.928 888.215 11.104 888.935 11.456C889.671 11.792 890.239 12.312 890.639 13.016C891.055 13.704 891.263 14.576 891.263 15.632V23H889.343L889.103 21.104C888.799 21.776 888.271 22.312 887.519 22.712C886.783 23.096 885.943 23.288 884.999 23.288ZM885.647 21.536C886.719 21.536 887.559 21.216 888.167 20.576C888.775 19.92 889.079 19.04 889.079 17.936V17.312L886.079 17.552C885.087 17.648 884.367 17.88 883.919 18.248C883.487 18.616 883.271 19.088 883.271 19.664C883.271 20.288 883.479 20.76 883.895 21.08C884.327 21.384 884.911 21.536 885.647 21.536ZM893.187 19.592H895.347C895.347 20.184 895.563 20.656 895.995 21.008C896.427 21.344 897.011 21.512 897.747 21.512C898.547 21.512 899.163 21.36 899.595 21.056C900.027 20.736 900.243 20.312 900.243 19.784C900.243 19.4 900.123 19.08 899.883 18.824C899.659 18.568 899.243 18.36 898.635 18.2L896.571 17.72C895.531 17.464 894.755 17.072 894.243 16.544C893.747 16.016 893.499 15.32 893.499 14.456C893.499 13.736 893.683 13.112 894.051 12.584C894.435 12.056 894.955 11.648 895.611 11.36C896.283 11.072 897.051 10.928 897.915 10.928C898.779 10.928 899.523 11.08 900.147 11.384C900.787 11.688 901.283 12.112 901.635 12.656C902.003 13.2 902.195 13.848 902.211 14.6H900.051C900.035 13.992 899.835 13.52 899.451 13.184C899.067 12.848 898.531 12.68 897.843 12.68C897.139 12.68 896.595 12.832 896.211 13.136C895.827 13.44 895.635 13.856 895.635 14.384C895.635 15.168 896.211 15.704 897.363 15.992L899.427 16.496C900.419 16.72 901.163 17.088 901.659 17.6C902.155 18.096 902.403 18.776 902.403 19.64C902.403 20.376 902.203 21.024 901.803 21.584C901.403 22.128 900.851 22.552 900.147 22.856C899.459 23.144 898.643 23.288 897.699 23.288C896.323 23.288 895.227 22.952 894.411 22.28C893.595 21.608 893.187 20.712 893.187 19.592ZM903.417 11.264H910.281V13.16H903.417V11.264ZM907.977 23H905.721V7.592H907.977V23ZM912.066 23V11.264H914.322V23H912.066ZM913.17 8.48C912.77 8.48 912.418 8.336 912.114 8.048C911.826 7.744 911.682 7.392 911.682 6.992C911.682 6.576 911.826 6.224 912.114 5.936C912.418 5.648 912.77 5.504 913.17 5.504C913.586 5.504 913.938 5.648 914.226 5.936C914.514 6.224 914.658 6.576 914.658 6.992C914.658 7.392 914.514 7.744 914.226 8.048C913.938 8.336 913.586 8.48 913.17 8.48ZM919.613 23H917.357V11.264H919.397L919.637 13.064C920.005 12.392 920.533 11.872 921.221 11.504C921.925 11.12 922.693 10.928 923.525 10.928C925.061 10.928 926.197 11.368 926.933 12.248C927.669 13.128 928.037 14.32 928.037 15.824V23H925.781V16.328C925.781 15.144 925.525 14.296 925.013 13.784C924.501 13.256 923.813 12.992 922.949 12.992C921.893 12.992 921.069 13.336 920.477 14.024C919.901 14.712 919.613 15.632 919.613 16.784V23ZM930.178 16.832C930.178 15.728 930.402 14.736 930.85 13.856C931.298 12.96 931.938 12.248 932.77 11.72C933.602 11.192 934.586 10.928 935.722 10.928C936.778 10.928 937.682 11.184 938.434 11.696C939.186 12.192 939.722 12.888 940.042 13.784L939.754 14.096L939.994 11.264H942.01V22.52C942.01 23.752 941.77 24.816 941.29 25.712C940.81 26.624 940.13 27.328 939.25 27.824C938.37 28.32 937.33 28.568 936.13 28.568C934.53 28.568 933.218 28.144 932.194 27.296C931.17 26.448 930.546 25.28 930.322 23.792H932.578C932.722 24.656 933.106 25.328 933.73 25.808C934.354 26.288 935.154 26.528 936.13 26.528C937.234 26.528 938.114 26.192 938.77 25.52C939.442 24.864 939.778 23.976 939.778 22.856V19.544L940.066 19.856C939.762 20.736 939.21 21.432 938.41 21.944C937.61 22.44 936.682 22.688 935.626 22.688C934.506 22.688 933.538 22.432 932.722 21.92C931.906 21.392 931.274 20.688 930.826 19.808C930.394 18.928 930.178 17.936 930.178 16.832ZM932.434 16.784C932.434 17.52 932.578 18.184 932.866 18.776C933.17 19.368 933.586 19.84 934.114 20.192C934.658 20.544 935.29 20.72 936.01 20.72C936.778 20.72 937.434 20.552 937.978 20.216C938.522 19.88 938.938 19.416 939.226 18.824C939.53 18.232 939.682 17.552 939.682 16.784C939.682 16.016 939.538 15.344 939.25 14.768C938.962 14.192 938.546 13.736 938.002 13.4C937.458 13.064 936.802 12.896 936.034 12.896C935.282 12.896 934.634 13.072 934.09 13.424C933.562 13.776 933.154 14.248 932.866 14.84C932.578 15.416 932.434 16.064 932.434 16.784ZM954.084 23H951.732V5.648H958.284C960.14 5.648 961.588 6.112 962.628 7.04C963.684 7.952 964.212 9.224 964.212 10.856C964.212 12.056 963.916 13.072 963.324 13.904C962.748 14.736 961.924 15.328 960.852 15.68L964.38 23H961.764L958.524 16.136H954.084V23ZM954.084 7.76V14.048H958.308C959.396 14.048 960.236 13.768 960.828 13.208C961.436 12.648 961.74 11.872 961.74 10.88C961.74 9.872 961.428 9.104 960.804 8.576C960.196 8.032 959.356 7.76 958.284 7.76H954.084ZM971.031 23.288C969.895 23.288 968.887 23.032 968.007 22.52C967.127 21.992 966.439 21.272 965.943 20.36C965.447 19.432 965.199 18.36 965.199 17.144C965.199 15.912 965.439 14.832 965.919 13.904C966.415 12.976 967.087 12.248 967.935 11.72C968.799 11.192 969.799 10.928 970.935 10.928C972.055 10.928 973.023 11.168 973.839 11.648C974.671 12.128 975.311 12.8 975.759 13.664C976.223 14.528 976.455 15.544 976.455 16.712V17.552L966.399 17.576L966.447 16.064H974.199C974.199 15.088 973.903 14.304 973.311 13.712C972.719 13.12 971.927 12.824 970.935 12.824C970.183 12.824 969.535 12.992 968.991 13.328C968.463 13.648 968.055 14.128 967.767 14.768C967.495 15.392 967.359 16.144 967.359 17.024C967.359 18.432 967.679 19.52 968.319 20.288C968.959 21.04 969.879 21.416 971.079 21.416C971.959 21.416 972.679 21.24 973.239 20.888C973.799 20.536 974.175 20.024 974.367 19.352H976.479C976.191 20.6 975.575 21.568 974.631 22.256C973.687 22.944 972.487 23.288 971.031 23.288ZM977.775 19.592H979.935C979.935 20.184 980.151 20.656 980.583 21.008C981.015 21.344 981.599 21.512 982.335 21.512C983.135 21.512 983.751 21.36 984.183 21.056C984.615 20.736 984.831 20.312 984.831 19.784C984.831 19.4 984.711 19.08 984.471 18.824C984.247 18.568 983.831 18.36 983.223 18.2L981.159 17.72C980.119 17.464 979.343 17.072 978.831 16.544C978.335 16.016 978.087 15.32 978.087 14.456C978.087 13.736 978.271 13.112 978.639 12.584C979.023 12.056 979.543 11.648 980.199 11.36C980.871 11.072 981.639 10.928 982.503 10.928C983.367 10.928 984.111 11.08 984.735 11.384C985.375 11.688 985.871 12.112 986.223 12.656C986.591 13.2 986.783 13.848 986.799 14.6H984.639C984.623 13.992 984.423 13.52 984.039 13.184C983.655 12.848 983.119 12.68 982.431 12.68C981.727 12.68 981.183 12.832 980.799 13.136C980.415 13.44 980.223 13.856 980.223 14.384C980.223 15.168 980.799 15.704 981.951 15.992L984.015 16.496C985.007 16.72 985.751 17.088 986.247 17.6C986.743 18.096 986.991 18.776 986.991 19.64C986.991 20.376 986.791 21.024 986.391 21.584C985.991 22.128 985.439 22.552 984.735 22.856C984.047 23.144 983.231 23.288 982.287 23.288C980.911 23.288 979.815 22.952 978.999 22.28C978.183 21.608 977.775 20.712 977.775 19.592ZM989.253 28.256V11.264H991.293L991.461 13.376C991.845 12.56 992.413 11.952 993.165 11.552C993.933 11.136 994.781 10.928 995.709 10.928C996.829 10.928 997.797 11.192 998.613 11.72C999.429 12.232 1000.05 12.952 1000.48 13.88C1000.93 14.792 1001.16 15.848 1001.16 17.048C1001.16 18.248 1000.94 19.32 1000.51 20.264C1000.09 21.208 999.477 21.952 998.661 22.496C997.861 23.04 996.877 23.312 995.709 23.312C994.765 23.312 993.925 23.12 993.189 22.736C992.453 22.352 991.893 21.8 991.509 21.08V28.256H989.253ZM991.533 17.144C991.533 17.928 991.677 18.64 991.965 19.28C992.269 19.904 992.693 20.392 993.237 20.744C993.797 21.096 994.461 21.272 995.229 21.272C995.997 21.272 996.653 21.096 997.197 20.744C997.741 20.376 998.157 19.88 998.445 19.256C998.749 18.632 998.901 17.928 998.901 17.144C998.901 16.328 998.749 15.608 998.445 14.984C998.157 14.36 997.741 13.872 997.197 13.52C996.653 13.168 995.997 12.992 995.229 12.992C994.461 12.992 993.797 13.168 993.237 13.52C992.693 13.872 992.269 14.36 991.965 14.984C991.677 15.608 991.533 16.328 991.533 17.144ZM1002.64 17.12C1002.64 15.92 1002.9 14.856 1003.43 13.928C1003.96 13 1004.68 12.272 1005.59 11.744C1006.52 11.216 1007.57 10.952 1008.76 10.952C1009.94 10.952 1010.99 11.216 1011.9 11.744C1012.81 12.272 1013.53 13 1014.06 13.928C1014.59 14.856 1014.85 15.92 1014.85 17.12C1014.85 18.32 1014.59 19.384 1014.06 20.312C1013.53 21.24 1012.81 21.968 1011.9 22.496C1010.99 23.024 1009.94 23.288 1008.76 23.288C1007.57 23.288 1006.52 23.024 1005.59 22.496C1004.68 21.968 1003.96 21.24 1003.43 20.312C1002.9 19.384 1002.64 18.32 1002.64 17.12ZM1004.92 17.12C1004.92 17.936 1005.08 18.656 1005.4 19.28C1005.73 19.904 1006.19 20.392 1006.76 20.744C1007.34 21.096 1008 21.272 1008.76 21.272C1009.51 21.272 1010.17 21.096 1010.75 20.744C1011.32 20.392 1011.77 19.904 1012.09 19.28C1012.43 18.656 1012.6 17.936 1012.6 17.12C1012.6 16.288 1012.43 15.568 1012.09 14.96C1011.77 14.336 1011.32 13.848 1010.75 13.496C1010.17 13.144 1009.51 12.968 1008.76 12.968C1008 12.968 1007.34 13.144 1006.76 13.496C1006.19 13.848 1005.73 14.336 1005.4 14.96C1005.08 15.568 1004.92 16.288 1004.92 17.12ZM1019.36 23H1017.11V11.264H1019.15L1019.39 13.064C1019.76 12.392 1020.28 11.872 1020.97 11.504C1021.68 11.12 1022.44 10.928 1023.28 10.928C1024.81 10.928 1025.95 11.368 1026.68 12.248C1027.42 13.128 1027.79 14.32 1027.79 15.824V23H1025.53V16.328C1025.53 15.144 1025.28 14.296 1024.76 13.784C1024.25 13.256 1023.56 12.992 1022.7 12.992C1021.64 12.992 1020.82 13.336 1020.23 14.024C1019.65 14.712 1019.36 15.632 1019.36 16.784V23ZM1029.57 19.592H1031.73C1031.73 20.184 1031.95 20.656 1032.38 21.008C1032.81 21.344 1033.4 21.512 1034.13 21.512C1034.93 21.512 1035.55 21.36 1035.98 21.056C1036.41 20.736 1036.63 20.312 1036.63 19.784C1036.63 19.4 1036.51 19.08 1036.27 18.824C1036.04 18.568 1035.63 18.36 1035.02 18.2L1032.96 17.72C1031.92 17.464 1031.14 17.072 1030.63 16.544C1030.13 16.016 1029.88 15.32 1029.88 14.456C1029.88 13.736 1030.07 13.112 1030.44 12.584C1030.82 12.056 1031.34 11.648 1032 11.36C1032.67 11.072 1033.44 10.928 1034.3 10.928C1035.16 10.928 1035.91 11.08 1036.53 11.384C1037.17 11.688 1037.67 12.112 1038.02 12.656C1038.39 13.2 1038.58 13.848 1038.6 14.6H1036.44C1036.42 13.992 1036.22 13.52 1035.84 13.184C1035.45 12.848 1034.92 12.68 1034.23 12.68C1033.52 12.68 1032.98 12.832 1032.6 13.136C1032.21 13.44 1032.02 13.856 1032.02 14.384C1032.02 15.168 1032.6 15.704 1033.75 15.992L1035.81 16.496C1036.8 16.72 1037.55 17.088 1038.04 17.6C1038.54 18.096 1038.79 18.776 1038.79 19.64C1038.79 20.376 1038.59 21.024 1038.19 21.584C1037.79 22.128 1037.24 22.552 1036.53 22.856C1035.84 23.144 1035.03 23.288 1034.08 23.288C1032.71 23.288 1031.61 22.952 1030.8 22.28C1029.98 21.608 1029.57 20.712 1029.57 19.592ZM1046.11 23.288C1044.98 23.288 1043.97 23.032 1043.09 22.52C1042.21 21.992 1041.52 21.272 1041.03 20.36C1040.53 19.432 1040.28 18.36 1040.28 17.144C1040.28 15.912 1040.52 14.832 1041 13.904C1041.5 12.976 1042.17 12.248 1043.02 11.72C1043.88 11.192 1044.88 10.928 1046.02 10.928C1047.14 10.928 1048.11 11.168 1048.92 11.648C1049.75 12.128 1050.39 12.8 1050.84 13.664C1051.31 14.528 1051.54 15.544 1051.54 16.712V17.552L1041.48 17.576L1041.53 16.064H1049.28C1049.28 15.088 1048.99 14.304 1048.39 13.712C1047.8 13.12 1047.01 12.824 1046.02 12.824C1045.27 12.824 1044.62 12.992 1044.07 13.328C1043.55 13.648 1043.14 14.128 1042.85 14.768C1042.58 15.392 1042.44 16.144 1042.44 17.024C1042.44 18.432 1042.76 19.52 1043.4 20.288C1044.04 21.04 1044.96 21.416 1046.16 21.416C1047.04 21.416 1047.76 21.24 1048.32 20.888C1048.88 20.536 1049.26 20.024 1049.45 19.352H1051.56C1051.27 20.6 1050.66 21.568 1049.71 22.256C1048.77 22.944 1047.57 23.288 1046.11 23.288Z" fill="#0D0D0D"/>
<rect y="327" width="186.167" height="28" rx="12" fill="#D1D1D1"/>
<path d="M56.1635 304.968H51.1715V301.736H59.6515V325H56.1635V304.968ZM65.855 325.384C65.1723 325.384 64.5857 325.149 64.095 324.68C63.6257 324.211 63.391 323.656 63.391 323.016C63.391 322.333 63.6257 321.757 64.095 321.288C64.5857 320.819 65.1723 320.584 65.855 320.584C66.5163 320.584 67.0817 320.819 67.551 321.288C68.0417 321.757 68.287 322.333 68.287 323.016C68.287 323.656 68.0417 324.211 67.551 324.68C67.0817 325.149 66.5163 325.384 65.855 325.384ZM86.7895 324.968L70.8855 325V322.248L78.4375 315.816C79.3122 315.091 80.0375 314.429 80.6135 313.832C81.1895 313.235 81.6482 312.68 81.9895 312.168C82.3308 311.656 82.5762 311.144 82.7255 310.632C82.8748 310.099 82.9495 309.544 82.9495 308.968C82.9495 307.581 82.5762 306.504 81.8295 305.736C81.1042 304.947 80.0908 304.552 78.7895 304.552C77.4242 304.552 76.3362 305.011 75.5255 305.928C74.7362 306.824 74.3202 308.061 74.2775 309.64H70.6935C70.7148 307.955 71.0668 306.493 71.7495 305.256C72.4322 303.997 73.3708 303.027 74.5655 302.344C75.7815 301.661 77.1895 301.32 78.7895 301.32C80.4108 301.32 81.7975 301.619 82.9495 302.216C84.1228 302.813 85.0295 303.667 85.6695 304.776C86.3095 305.885 86.6295 307.208 86.6295 308.744C86.6295 309.555 86.5228 310.333 86.3095 311.08C86.0962 311.805 85.7655 312.52 85.3175 313.224C84.8695 313.928 84.2935 314.653 83.5895 315.4C82.9068 316.125 82.0748 316.904 81.0935 317.736L75.2375 322.76L73.9895 321.608H86.7895V324.968ZM104.642 324.968L88.738 325V322.248L96.29 315.816C97.1647 315.091 97.89 314.429 98.466 313.832C99.042 313.235 99.5007 312.68 99.842 312.168C100.183 311.656 100.429 311.144 100.578 310.632C100.727 310.099 100.802 309.544 100.802 308.968C100.802 307.581 100.429 306.504 99.682 305.736C98.9567 304.947 97.9433 304.552 96.642 304.552C95.2767 304.552 94.1887 305.011 93.378 305.928C92.5887 306.824 92.1727 308.061 92.13 309.64H88.546C88.5673 307.955 88.9193 306.493 89.602 305.256C90.2847 303.997 91.2233 303.027 92.418 302.344C93.634 301.661 95.042 301.32 96.642 301.32C98.2633 301.32 99.65 301.619 100.802 302.216C101.975 302.813 102.882 303.667 103.522 304.776C104.162 305.885 104.482 307.208 104.482 308.744C104.482 309.555 104.375 310.333 104.162 311.08C103.949 311.805 103.618 312.52 103.17 313.224C102.722 313.928 102.146 314.653 101.442 315.4C100.759 316.125 99.9273 316.904 98.946 317.736L93.09 322.76L91.842 321.608H104.642V324.968ZM118.083 307.304C118.083 308.477 117.827 309.523 117.315 310.44C116.803 311.357 116.099 312.072 115.203 312.584C114.307 313.096 113.283 313.352 112.131 313.352C110.979 313.352 109.944 313.096 109.027 312.584C108.131 312.072 107.427 311.357 106.915 310.44C106.403 309.523 106.147 308.477 106.147 307.304C106.147 306.131 106.403 305.096 106.915 304.2C107.427 303.283 108.131 302.568 109.027 302.056C109.944 301.544 110.979 301.288 112.131 301.288C113.283 301.288 114.307 301.544 115.203 302.056C116.099 302.568 116.803 303.283 117.315 304.2C117.827 305.096 118.083 306.131 118.083 307.304ZM115.299 307.304C115.299 306.323 115 305.533 114.403 304.936C113.827 304.317 113.07 304.008 112.131 304.008C111.192 304.008 110.424 304.317 109.827 304.936C109.23 305.533 108.931 306.323 108.931 307.304C108.931 308.285 109.23 309.085 109.827 309.704C110.424 310.323 111.192 310.632 112.131 310.632C113.07 310.632 113.827 310.323 114.403 309.704C115 309.085 115.299 308.285 115.299 307.304ZM130.595 301.768L112.931 325H109.475L127.107 301.768H130.595ZM133.987 319.4C133.987 320.573 133.731 321.619 133.219 322.536C132.707 323.432 132.003 324.136 131.107 324.648C130.211 325.16 129.176 325.416 128.003 325.416C126.851 325.416 125.816 325.16 124.899 324.648C124.003 324.136 123.299 323.432 122.787 322.536C122.275 321.619 122.019 320.573 122.019 319.4C122.019 318.227 122.275 317.192 122.787 316.296C123.299 315.379 124.003 314.664 124.899 314.152C125.816 313.64 126.851 313.384 128.003 313.384C129.176 313.384 130.211 313.64 131.107 314.152C132.003 314.664 132.707 315.379 133.219 316.296C133.731 317.192 133.987 318.227 133.987 319.4ZM131.171 319.4C131.171 318.419 130.872 317.619 130.275 317C129.699 316.381 128.942 316.072 128.003 316.072C127.064 316.072 126.296 316.381 125.699 317C125.123 317.619 124.835 318.419 124.835 319.4C124.835 320.36 125.123 321.16 125.699 321.8C126.296 322.419 127.064 322.728 128.003 322.728C128.942 322.728 129.699 322.419 130.275 321.8C130.872 321.16 131.171 320.36 131.171 319.4Z" fill="#0D0D0D"/>
<rect x="206.167" y="296" width="186.167" height="59" rx="12" fill="#D1D1D1"/>
<path d="M273.626 324.968L257.722 325V322.248L265.274 315.816C266.149 315.091 266.874 314.429 267.45 313.832C268.026 313.235 268.485 312.68 268.826 312.168C269.167 311.656 269.413 311.144 269.562 310.632C269.711 310.099 269.786 309.544 269.786 308.968C269.786 307.581 269.413 306.504 268.666 305.736C267.941 304.947 266.927 304.552 265.626 304.552C264.261 304.552 263.173 305.011 262.362 305.928C261.573 306.824 261.157 308.061 261.114 309.64H257.53C257.551 307.955 257.903 306.493 258.586 305.256C259.269 303.997 260.207 303.027 261.402 302.344C262.618 301.661 264.026 301.32 265.626 301.32C267.247 301.32 268.634 301.619 269.786 302.216C270.959 302.813 271.866 303.667 272.506 304.776C273.146 305.885 273.466 307.208 273.466 308.744C273.466 309.555 273.359 310.333 273.146 311.08C272.933 311.805 272.602 312.52 272.154 313.224C271.706 313.928 271.13 314.653 270.426 315.4C269.743 316.125 268.911 316.904 267.93 317.736L262.074 322.76L260.826 321.608H273.626V324.968ZM278.803 325.384C278.12 325.384 277.533 325.149 277.043 324.68C276.573 324.211 276.339 323.656 276.339 323.016C276.339 322.333 276.573 321.757 277.043 321.288C277.533 320.819 278.12 320.584 278.803 320.584C279.464 320.584 280.029 320.819 280.499 321.288C280.989 321.757 281.235 322.333 281.235 323.016C281.235 323.656 280.989 324.211 280.499 324.68C280.029 325.149 279.464 325.384 278.803 325.384ZM298.307 301.736V325H294.851V301.736H298.307ZM282.947 317.256L293.699 301.736H297.539L286.659 317.48L282.947 317.256ZM301.091 320.456H282.947V317.256H301.091V320.456ZM306.231 304.968H301.239V301.736H309.719V325H306.231V304.968ZM324.531 307.304C324.531 308.477 324.275 309.523 323.763 310.44C323.251 311.357 322.547 312.072 321.651 312.584C320.755 313.096 319.731 313.352 318.579 313.352C317.427 313.352 316.392 313.096 315.475 312.584C314.579 312.072 313.875 311.357 313.363 310.44C312.851 309.523 312.595 308.477 312.595 307.304C312.595 306.131 312.851 305.096 313.363 304.2C313.875 303.283 314.579 302.568 315.475 302.056C316.392 301.544 317.427 301.288 318.579 301.288C319.731 301.288 320.755 301.544 321.651 302.056C322.547 302.568 323.251 303.283 323.763 304.2C324.275 305.096 324.531 306.131 324.531 307.304ZM321.747 307.304C321.747 306.323 321.448 305.533 320.851 304.936C320.275 304.317 319.517 304.008 318.579 304.008C317.64 304.008 316.872 304.317 316.275 304.936C315.677 305.533 315.379 306.323 315.379 307.304C315.379 308.285 315.677 309.085 316.275 309.704C316.872 310.323 317.64 310.632 318.579 310.632C319.517 310.632 320.275 310.323 320.851 309.704C321.448 309.085 321.747 308.285 321.747 307.304ZM337.043 301.768L319.379 325H315.923L333.555 301.768H337.043ZM340.435 319.4C340.435 320.573 340.179 321.619 339.667 322.536C339.155 323.432 338.451 324.136 337.555 324.648C336.659 325.16 335.624 325.416 334.451 325.416C333.299 325.416 332.264 325.16 331.347 324.648C330.451 324.136 329.747 323.432 329.235 322.536C328.723 321.619 328.467 320.573 328.467 319.4C328.467 318.227 328.723 317.192 329.235 316.296C329.747 315.379 330.451 314.664 331.347 314.152C332.264 313.64 333.299 313.384 334.451 313.384C335.624 313.384 336.659 313.64 337.555 314.152C338.451 314.664 339.155 315.379 339.667 316.296C340.179 317.192 340.435 318.227 340.435 319.4ZM337.619 319.4C337.619 318.419 337.32 317.619 336.723 317C336.147 316.381 335.389 316.072 334.451 316.072C333.512 316.072 332.744 316.381 332.147 317C331.571 317.619 331.283 318.419 331.283 319.4C331.283 320.36 331.571 321.16 332.147 321.8C332.744 322.419 333.512 322.728 334.451 322.728C335.389 322.728 336.147 322.419 336.723 321.8C337.32 321.16 337.619 320.36 337.619 319.4Z" fill="#0D0D0D"/>
<rect x="412.333" y="155" width="186.167" height="200" rx="12" fill="#D1D1D1"/>
<path d="M469.324 318.472C469.324 316.893 469.804 315.528 470.764 314.376C471.724 313.224 472.993 312.499 474.572 312.2L474.604 312.936C473.196 312.552 472.097 311.891 471.308 310.952C470.54 309.992 470.156 308.84 470.156 307.496C470.156 306.259 470.487 305.181 471.148 304.264C471.831 303.347 472.759 302.632 473.932 302.12C475.127 301.587 476.513 301.32 478.092 301.32C479.649 301.32 481.015 301.576 482.188 302.088C483.361 302.6 484.268 303.325 484.908 304.264C485.569 305.203 485.9 306.301 485.9 307.56C485.9 308.904 485.516 310.045 484.748 310.984C483.98 311.923 482.892 312.563 481.484 312.904L481.452 312.232C482.519 312.403 483.447 312.776 484.236 313.352C485.047 313.928 485.665 314.653 486.092 315.528C486.54 316.403 486.764 317.384 486.764 318.472C486.764 319.859 486.401 321.075 485.676 322.12C484.951 323.144 483.937 323.944 482.636 324.52C481.335 325.096 479.809 325.384 478.06 325.384C476.289 325.384 474.753 325.107 473.452 324.552C472.151 323.976 471.137 323.165 470.412 322.12C469.687 321.075 469.324 319.859 469.324 318.472ZM472.876 318.216C472.876 319.027 473.089 319.731 473.516 320.328C473.943 320.904 474.54 321.363 475.308 321.704C476.097 322.024 477.015 322.184 478.06 322.184C479.105 322.184 480.012 322.024 480.78 321.704C481.548 321.363 482.145 320.904 482.572 320.328C482.999 319.731 483.212 319.027 483.212 318.216C483.212 317.021 482.743 316.072 481.804 315.368C480.865 314.643 479.607 314.28 478.028 314.28C476.449 314.28 475.191 314.643 474.252 315.368C473.335 316.072 472.876 317.021 472.876 318.216ZM473.484 307.784C473.484 308.829 473.889 309.672 474.7 310.312C475.532 310.931 476.641 311.24 478.028 311.24C479.415 311.24 480.513 310.931 481.324 310.312C482.135 309.693 482.54 308.861 482.54 307.816C482.54 306.771 482.135 305.949 481.324 305.352C480.513 304.733 479.415 304.424 478.028 304.424C476.641 304.424 475.532 304.733 474.7 305.352C473.889 305.949 473.484 306.76 473.484 307.784ZM491.469 325.384C490.786 325.384 490.199 325.149 489.709 324.68C489.239 324.211 489.005 323.656 489.005 323.016C489.005 322.333 489.239 321.757 489.709 321.288C490.199 320.819 490.786 320.584 491.469 320.584C492.13 320.584 492.695 320.819 493.165 321.288C493.655 321.757 493.901 322.333 493.901 323.016C493.901 323.656 493.655 324.211 493.165 324.68C492.695 325.149 492.13 325.384 491.469 325.384ZM503.842 325.384C502.242 325.384 500.834 325.064 499.618 324.424C498.423 323.784 497.495 322.888 496.834 321.736C496.194 320.563 495.874 319.197 495.874 317.64H499.426C499.426 319.048 499.82 320.157 500.61 320.968C501.42 321.757 502.519 322.152 503.906 322.152C504.887 322.152 505.73 321.949 506.434 321.544C507.159 321.139 507.724 320.573 508.13 319.848C508.535 319.101 508.738 318.227 508.738 317.224C508.738 316.264 508.546 315.421 508.162 314.696C507.778 313.971 507.234 313.405 506.53 313C505.826 312.573 504.962 312.36 503.938 312.36C503.02 312.36 502.156 312.563 501.346 312.968C500.535 313.373 499.895 313.896 499.426 314.536L496.29 313.8L499.138 301.736H511.01V305.064H500.674L502.082 303.784L500.066 311.816L498.85 312.2C499.404 311.261 500.194 310.547 501.218 310.056C502.242 309.544 503.394 309.288 504.674 309.288C506.231 309.288 507.586 309.619 508.738 310.28C509.911 310.941 510.818 311.859 511.458 313.032C512.098 314.205 512.418 315.549 512.418 317.064C512.418 318.707 512.055 320.157 511.33 321.416C510.604 322.653 509.602 323.624 508.322 324.328C507.042 325.032 505.548 325.384 503.842 325.384ZM525.688 307.304C525.688 308.477 525.432 309.523 524.92 310.44C524.408 311.357 523.704 312.072 522.808 312.584C521.912 313.096 520.888 313.352 519.736 313.352C518.584 313.352 517.549 313.096 516.632 312.584C515.736 312.072 515.032 311.357 514.52 310.44C514.008 309.523 513.752 308.477 513.752 307.304C513.752 306.131 514.008 305.096 514.52 304.2C515.032 303.283 515.736 302.568 516.632 302.056C517.549 301.544 518.584 301.288 519.736 301.288C520.888 301.288 521.912 301.544 522.808 302.056C523.704 302.568 524.408 303.283 524.92 304.2C525.432 305.096 525.688 306.131 525.688 307.304ZM522.904 307.304C522.904 306.323 522.605 305.533 522.008 304.936C521.432 304.317 520.675 304.008 519.736 304.008C518.797 304.008 518.029 304.317 517.432 304.936C516.835 305.533 516.536 306.323 516.536 307.304C516.536 308.285 516.835 309.085 517.432 309.704C518.029 310.323 518.797 310.632 519.736 310.632C520.675 310.632 521.432 310.323 522.008 309.704C522.605 309.085 522.904 308.285 522.904 307.304ZM538.2 301.768L520.536 325H517.08L534.712 301.768H538.2ZM541.592 319.4C541.592 320.573 541.336 321.619 540.824 322.536C540.312 323.432 539.608 324.136 538.712 324.648C537.816 325.16 536.781 325.416 535.608 325.416C534.456 325.416 533.421 325.16 532.504 324.648C531.608 324.136 530.904 323.432 530.392 322.536C529.88 321.619 529.624 320.573 529.624 319.4C529.624 318.227 529.88 317.192 530.392 316.296C530.904 315.379 531.608 314.664 532.504 314.152C533.421 313.64 534.456 313.384 535.608 313.384C536.781 313.384 537.816 313.64 538.712 314.152C539.608 314.664 540.312 315.379 540.824 316.296C541.336 317.192 541.592 318.227 541.592 319.4ZM538.776 319.4C538.776 318.419 538.477 317.619 537.88 317C537.304 316.381 536.547 316.072 535.608 316.072C534.669 316.072 533.901 316.381 533.304 317C532.728 317.619 532.44 318.419 532.44 319.4C532.44 320.36 532.728 321.16 533.304 321.8C533.901 322.419 534.669 322.728 535.608 322.728C536.547 322.728 537.304 322.419 537.88 321.8C538.477 321.16 538.776 320.36 538.776 319.4Z" fill="#0D0D0D"/>
<path d="M248.375 393H246.415V378.54H251.875C253.421 378.54 254.628 378.927 255.495 379.7C256.375 380.46 256.815 381.52 256.815 382.88C256.815 383.88 256.568 384.727 256.075 385.42C255.595 386.113 254.908 386.607 254.015 386.9L256.955 393H254.775L252.075 387.28H248.375V393ZM248.375 380.3V385.54H251.895C252.801 385.54 253.501 385.307 253.995 384.84C254.501 384.373 254.755 383.727 254.755 382.9C254.755 382.06 254.495 381.42 253.975 380.98C253.468 380.527 252.768 380.3 251.875 380.3H248.375ZM262.498 393.24C261.551 393.24 260.711 393.027 259.978 392.6C259.244 392.16 258.671 391.56 258.258 390.8C257.844 390.027 257.638 389.133 257.638 388.12C257.638 387.093 257.838 386.193 258.238 385.42C258.651 384.647 259.211 384.04 259.918 383.6C260.638 383.16 261.471 382.94 262.418 382.94C263.351 382.94 264.158 383.14 264.838 383.54C265.531 383.94 266.064 384.5 266.438 385.22C266.824 385.94 267.018 386.787 267.018 387.76V388.46L258.638 388.48L258.678 387.22H265.138C265.138 386.407 264.891 385.753 264.398 385.26C263.904 384.767 263.244 384.52 262.418 384.52C261.791 384.52 261.251 384.66 260.798 384.94C260.358 385.207 260.018 385.607 259.778 386.14C259.551 386.66 259.438 387.287 259.438 388.02C259.438 389.193 259.704 390.1 260.238 390.74C260.771 391.367 261.538 391.68 262.538 391.68C263.271 391.68 263.871 391.533 264.338 391.24C264.804 390.947 265.118 390.52 265.278 389.96H267.038C266.798 391 266.284 391.807 265.498 392.38C264.711 392.953 263.711 393.24 262.498 393.24ZM267.877 383.22H273.517V384.8H267.877V383.22ZM273.577 378.36V379.98C273.457 379.98 273.324 379.98 273.177 379.98C273.044 379.98 272.897 379.98 272.737 379.98C272.124 379.98 271.711 380.127 271.497 380.42C271.297 380.713 271.197 381.127 271.197 381.66V393H269.317V381.66C269.317 380.86 269.451 380.213 269.717 379.72C269.997 379.213 270.364 378.847 270.817 378.62C271.284 378.393 271.817 378.28 272.417 378.28C272.604 378.28 272.797 378.287 272.997 378.3C273.197 378.313 273.391 378.333 273.577 378.36ZM281.825 383.22H283.685V393H282.005L281.805 391.52C281.525 392.027 281.085 392.44 280.485 392.76C279.885 393.08 279.225 393.24 278.505 393.24C277.372 393.24 276.492 392.887 275.865 392.18C275.252 391.46 274.945 390.5 274.945 389.3V383.22H276.825V388.68C276.825 389.72 277.032 390.467 277.445 390.92C277.872 391.36 278.445 391.58 279.165 391.58C280.032 391.58 280.692 391.313 281.145 390.78C281.598 390.233 281.825 389.433 281.825 388.38V383.22ZM285.217 390.16H287.017C287.017 390.653 287.197 391.047 287.557 391.34C287.917 391.62 288.404 391.76 289.017 391.76C289.684 391.76 290.197 391.633 290.557 391.38C290.917 391.113 291.097 390.76 291.097 390.32C291.097 390 290.997 389.733 290.797 389.52C290.611 389.307 290.264 389.133 289.757 389L288.037 388.6C287.171 388.387 286.524 388.06 286.097 387.62C285.684 387.18 285.477 386.6 285.477 385.88C285.477 385.28 285.631 384.76 285.937 384.32C286.257 383.88 286.691 383.54 287.237 383.3C287.797 383.06 288.437 382.94 289.157 382.94C289.877 382.94 290.497 383.067 291.017 383.32C291.551 383.573 291.964 383.927 292.257 384.38C292.564 384.833 292.724 385.373 292.737 386H290.937C290.924 385.493 290.757 385.1 290.437 384.82C290.117 384.54 289.671 384.4 289.097 384.4C288.511 384.4 288.057 384.527 287.737 384.78C287.417 385.033 287.257 385.38 287.257 385.82C287.257 386.473 287.737 386.92 288.697 387.16L290.417 387.58C291.244 387.767 291.864 388.073 292.277 388.5C292.691 388.913 292.897 389.48 292.897 390.2C292.897 390.813 292.731 391.353 292.397 391.82C292.064 392.273 291.604 392.627 291.017 392.88C290.444 393.12 289.764 393.24 288.977 393.24C287.831 393.24 286.917 392.96 286.237 392.4C285.557 391.84 285.217 391.093 285.217 390.16ZM297.642 393.24C296.602 393.24 295.782 392.967 295.182 392.42C294.596 391.873 294.302 391.16 294.302 390.28C294.302 389.387 294.622 388.673 295.262 388.14C295.902 387.593 296.796 387.273 297.942 387.18L301.022 386.94V386.66C301.022 386.113 300.922 385.68 300.722 385.36C300.522 385.027 300.249 384.793 299.902 384.66C299.556 384.513 299.162 384.44 298.722 384.44C297.936 384.44 297.322 384.607 296.882 384.94C296.456 385.26 296.242 385.72 296.242 386.32H294.602C294.602 385.64 294.776 385.047 295.122 384.54C295.469 384.033 295.956 383.64 296.582 383.36C297.222 383.08 297.962 382.94 298.802 382.94C299.616 382.94 300.322 383.087 300.922 383.38C301.536 383.66 302.009 384.093 302.342 384.68C302.689 385.253 302.862 385.98 302.862 386.86V393H301.262L301.062 391.42C300.809 391.98 300.369 392.427 299.742 392.76C299.129 393.08 298.429 393.24 297.642 393.24ZM298.182 391.78C299.076 391.78 299.776 391.513 300.282 390.98C300.789 390.433 301.042 389.7 301.042 388.78V388.26L298.542 388.46C297.716 388.54 297.116 388.733 296.742 389.04C296.382 389.347 296.202 389.74 296.202 390.22C296.202 390.74 296.376 391.133 296.722 391.4C297.082 391.653 297.569 391.78 298.182 391.78ZM307.186 393H305.306V378.28H307.186V393ZM317.302 393H315.342V378.54H320.802C322.349 378.54 323.555 378.927 324.422 379.7C325.302 380.46 325.742 381.52 325.742 382.88C325.742 383.88 325.495 384.727 325.002 385.42C324.522 386.113 323.835 386.607 322.942 386.9L325.882 393H323.702L321.002 387.28H317.302V393ZM317.302 380.3V385.54H320.822C321.729 385.54 322.429 385.307 322.922 384.84C323.429 384.373 323.682 383.727 323.682 382.9C323.682 382.06 323.422 381.42 322.902 380.98C322.395 380.527 321.695 380.3 320.802 380.3H317.302ZM330.377 393.24C329.337 393.24 328.517 392.967 327.917 392.42C327.331 391.873 327.037 391.16 327.037 390.28C327.037 389.387 327.357 388.673 327.997 388.14C328.637 387.593 329.531 387.273 330.677 387.18L333.757 386.94V386.66C333.757 386.113 333.657 385.68 333.457 385.36C333.257 385.027 332.984 384.793 332.637 384.66C332.291 384.513 331.897 384.44 331.457 384.44C330.671 384.44 330.057 384.607 329.617 384.94C329.191 385.26 328.977 385.72 328.977 386.32H327.337C327.337 385.64 327.511 385.047 327.857 384.54C328.204 384.033 328.691 383.64 329.317 383.36C329.957 383.08 330.697 382.94 331.537 382.94C332.351 382.94 333.057 383.087 333.657 383.38C334.271 383.66 334.744 384.093 335.077 384.68C335.424 385.253 335.597 385.98 335.597 386.86V393H333.997L333.797 391.42C333.544 391.98 333.104 392.427 332.477 392.76C331.864 393.08 331.164 393.24 330.377 393.24ZM330.917 391.78C331.811 391.78 332.511 391.513 333.017 390.98C333.524 390.433 333.777 389.7 333.777 388.78V388.26L331.277 388.46C330.451 388.54 329.851 388.733 329.477 389.04C329.117 389.347 328.937 389.74 328.937 390.22C328.937 390.74 329.111 391.133 329.457 391.4C329.817 391.653 330.304 391.78 330.917 391.78ZM336.805 383.22H342.485V384.8H336.805V383.22ZM342.405 391.36L342.645 392.92C342.138 393.12 341.598 393.22 341.025 393.22C340.451 393.22 339.965 393.113 339.565 392.9C339.165 392.673 338.858 392.34 338.645 391.9C338.431 391.46 338.325 390.913 338.325 390.26V380.16H340.205V390C340.205 390.56 340.318 390.96 340.545 391.2C340.785 391.427 341.091 391.54 341.465 391.54C341.758 391.54 342.071 391.48 342.405 391.36ZM348.505 393.24C347.559 393.24 346.719 393.027 345.985 392.6C345.252 392.16 344.679 391.56 344.265 390.8C343.852 390.027 343.645 389.133 343.645 388.12C343.645 387.093 343.845 386.193 344.245 385.42C344.659 384.647 345.219 384.04 345.925 383.6C346.645 383.16 347.479 382.94 348.425 382.94C349.359 382.94 350.165 383.14 350.845 383.54C351.539 383.94 352.072 384.5 352.445 385.22C352.832 385.94 353.025 386.787 353.025 387.76V388.46L344.645 388.48L344.685 387.22H351.145C351.145 386.407 350.899 385.753 350.405 385.26C349.912 384.767 349.252 384.52 348.425 384.52C347.799 384.52 347.259 384.66 346.805 384.94C346.365 385.207 346.025 385.607 345.785 386.14C345.559 386.66 345.445 387.287 345.445 388.02C345.445 389.193 345.712 390.1 346.245 390.74C346.779 391.367 347.545 391.68 348.545 391.68C349.279 391.68 349.879 391.533 350.345 391.24C350.812 390.947 351.125 390.52 351.285 389.96H353.045C352.805 391 352.292 391.807 351.505 392.38C350.719 392.953 349.719 393.24 348.505 393.24Z" fill="#0D0D0D"/>
<rect x="263.25" y="407" width="72" height="25" rx="8" fill="#ECD1D6"/>
<path d="M277.164 416.195V423.71H275.964V416.195H277.164ZM272.814 419.345H280.314V420.545H272.814V419.345ZM283.557 417.59L286.092 414.155H287.802L284.697 418.28L284.367 418.175C284.657 417.955 284.957 417.795 285.267 417.695C285.587 417.585 285.907 417.53 286.227 417.53C286.977 417.53 287.632 417.695 288.192 418.025C288.762 418.345 289.202 418.79 289.512 419.36C289.832 419.93 289.992 420.575 289.992 421.295C289.992 422.055 289.817 422.73 289.467 423.32C289.127 423.9 288.657 424.355 288.057 424.685C287.467 425.015 286.797 425.18 286.047 425.18C285.297 425.18 284.617 425.01 284.007 424.67C283.407 424.33 282.932 423.865 282.582 423.275C282.232 422.685 282.057 422.025 282.057 421.295C282.057 420.865 282.102 420.465 282.192 420.095C282.292 419.725 282.452 419.34 282.672 418.94C282.892 418.54 283.187 418.09 283.557 417.59ZM283.557 421.31C283.557 421.81 283.662 422.255 283.872 422.645C284.082 423.025 284.372 423.325 284.742 423.545C285.122 423.755 285.557 423.86 286.047 423.86C286.527 423.86 286.952 423.755 287.322 423.545C287.692 423.325 287.982 423.025 288.192 422.645C288.402 422.255 288.507 421.81 288.507 421.31C288.507 420.81 288.402 420.37 288.192 419.99C287.982 419.61 287.692 419.315 287.322 419.105C286.952 418.885 286.527 418.775 286.047 418.775C285.557 418.775 285.122 418.885 284.742 419.105C284.372 419.315 284.082 419.61 283.872 419.99C283.662 420.37 283.557 420.81 283.557 421.31ZM292.299 425.18C292.009 425.18 291.754 425.08 291.534 424.88C291.324 424.67 291.219 424.42 291.219 424.13C291.219 423.83 291.324 423.58 291.534 423.38C291.754 423.17 292.009 423.065 292.299 423.065C292.589 423.065 292.839 423.17 293.049 423.38C293.259 423.58 293.364 423.83 293.364 424.13C293.364 424.42 293.259 424.67 293.049 424.88C292.839 425.08 292.589 425.18 292.299 425.18ZM300.969 421.565L298.434 425H296.724L299.829 420.875L300.159 420.98C299.869 421.19 299.564 421.35 299.244 421.46C298.934 421.57 298.619 421.625 298.299 421.625C297.549 421.625 296.889 421.46 296.319 421.13C295.759 420.8 295.319 420.35 294.999 419.78C294.689 419.21 294.534 418.565 294.534 417.845C294.534 417.095 294.704 416.43 295.044 415.85C295.394 415.26 295.864 414.8 296.454 414.47C297.054 414.13 297.729 413.96 298.479 413.96C299.229 413.96 299.904 414.135 300.504 414.485C301.114 414.825 301.594 415.29 301.944 415.88C302.294 416.46 302.469 417.12 302.469 417.86C302.469 418.28 302.419 418.68 302.319 419.06C302.229 419.43 302.074 419.815 301.854 420.215C301.634 420.605 301.339 421.055 300.969 421.565ZM300.969 417.845C300.969 417.345 300.864 416.905 300.654 416.525C300.444 416.135 300.149 415.83 299.769 415.61C299.399 415.39 298.969 415.28 298.479 415.28C297.999 415.28 297.574 415.39 297.204 415.61C296.834 415.83 296.544 416.135 296.334 416.525C296.124 416.905 296.019 417.345 296.019 417.845C296.019 418.335 296.124 418.775 296.334 419.165C296.544 419.545 296.834 419.845 297.204 420.065C297.574 420.275 297.999 420.38 298.479 420.38C298.969 420.38 299.399 420.275 299.769 420.065C300.149 419.845 300.444 419.545 300.654 419.165C300.864 418.775 300.969 418.335 300.969 417.845ZM304.784 425H303.164L305.729 421.37L303.179 417.665H304.814L306.674 420.395L308.489 417.665H310.094L307.544 421.37L310.049 425H308.414L306.584 422.315L304.784 425Z" fill="#EF0A38"/>
<path d="M318.5 424.167V424.917H320V424.167H318.5ZM320 414.834C320 414.419 319.664 414.084 319.25 414.084C318.836 414.084 318.5 414.419 318.5 414.834H320ZM319.25 424.167H320V414.834H319.25H318.5V424.167H319.25Z" fill="#EF0A38"/>
<path d="M322.72 419.363L323.25 419.894L324.311 418.833L323.78 418.303L322.72 419.363ZM319.78 414.303C319.487 414.01 319.013 414.01 318.72 414.303C318.427 414.596 318.427 415.07 318.72 415.363L319.78 414.303ZM323.25 418.833L323.78 418.303L319.78 414.303L319.25 414.833L318.72 415.363L322.72 419.363L323.25 418.833Z" fill="#EF0A38"/>
<path d="M314.72 418.303L314.189 418.833L315.25 419.894L315.78 419.363L314.72 418.303ZM319.78 415.363C320.073 415.07 320.073 414.596 319.78 414.303C319.487 414.01 319.013 414.01 318.72 414.303L319.78 415.363ZM315.25 418.833L315.78 419.363L319.78 415.363L319.25 414.833L318.72 414.303L314.72 418.303L315.25 418.833Z" fill="#EF0A38"/>
<rect x="638.5" y="91" width="1" height="268" rx="0.5" fill="#D1D1D1"/>
<rect x="679.5" y="91" width="186.167" height="264" rx="12" fill="#D1D1D1"/>
<path d="M739.163 304.968H734.171V301.736H742.651V325H739.163V304.968ZM750.047 304.968H745.055V301.736H753.535V325H750.047V304.968ZM759.738 325.384C759.056 325.384 758.469 325.149 757.978 324.68C757.509 324.211 757.274 323.656 757.274 323.016C757.274 322.333 757.509 321.757 757.978 321.288C758.469 320.819 759.056 320.584 759.738 320.584C760.4 320.584 760.965 320.819 761.434 321.288C761.925 321.757 762.17 322.333 762.17 323.016C762.17 323.656 761.925 324.211 761.434 324.68C760.965 325.149 760.4 325.384 759.738 325.384ZM780.673 324.968L764.769 325V322.248L772.321 315.816C773.195 315.091 773.921 314.429 774.497 313.832C775.073 313.235 775.531 312.68 775.873 312.168C776.214 311.656 776.459 311.144 776.609 310.632C776.758 310.099 776.833 309.544 776.833 308.968C776.833 307.581 776.459 306.504 775.713 305.736C774.987 304.947 773.974 304.552 772.673 304.552C771.307 304.552 770.219 305.011 769.409 305.928C768.619 306.824 768.203 308.061 768.161 309.64H764.577C764.598 307.955 764.95 306.493 765.633 305.256C766.315 303.997 767.254 303.027 768.449 302.344C769.665 301.661 771.073 301.32 772.673 301.32C774.294 301.32 775.681 301.619 776.833 302.216C778.006 302.813 778.913 303.667 779.553 304.776C780.193 305.885 780.513 307.208 780.513 308.744C780.513 309.555 780.406 310.333 780.193 311.08C779.979 311.805 779.649 312.52 779.201 313.224C778.753 313.928 778.177 314.653 777.473 315.4C776.79 316.125 775.958 316.904 774.977 317.736L769.121 322.76L767.873 321.608H780.673V324.968ZM794.114 307.304C794.114 308.477 793.858 309.523 793.346 310.44C792.834 311.357 792.13 312.072 791.234 312.584C790.338 313.096 789.314 313.352 788.162 313.352C787.01 313.352 785.975 313.096 785.058 312.584C784.162 312.072 783.458 311.357 782.946 310.44C782.434 309.523 782.178 308.477 782.178 307.304C782.178 306.131 782.434 305.096 782.946 304.2C783.458 303.283 784.162 302.568 785.058 302.056C785.975 301.544 787.01 301.288 788.162 301.288C789.314 301.288 790.338 301.544 791.234 302.056C792.13 302.568 792.834 303.283 793.346 304.2C793.858 305.096 794.114 306.131 794.114 307.304ZM791.33 307.304C791.33 306.323 791.031 305.533 790.434 304.936C789.858 304.317 789.1 304.008 788.162 304.008C787.223 304.008 786.455 304.317 785.858 304.936C785.26 305.533 784.962 306.323 784.962 307.304C784.962 308.285 785.26 309.085 785.858 309.704C786.455 310.323 787.223 310.632 788.162 310.632C789.1 310.632 789.858 310.323 790.434 309.704C791.031 309.085 791.33 308.285 791.33 307.304ZM806.626 301.768L788.962 325H785.506L803.138 301.768H806.626ZM810.018 319.4C810.018 320.573 809.762 321.619 809.25 322.536C808.738 323.432 808.034 324.136 807.138 324.648C806.242 325.16 805.207 325.416 804.034 325.416C802.882 325.416 801.847 325.16 800.93 324.648C800.034 324.136 799.33 323.432 798.818 322.536C798.306 321.619 798.05 320.573 798.05 319.4C798.05 318.227 798.306 317.192 798.818 316.296C799.33 315.379 800.034 314.664 800.93 314.152C801.847 313.64 802.882 313.384 804.034 313.384C805.207 313.384 806.242 313.64 807.138 314.152C808.034 314.664 808.738 315.379 809.25 316.296C809.762 317.192 810.018 318.227 810.018 319.4ZM807.202 319.4C807.202 318.419 806.903 317.619 806.306 317C805.73 316.381 804.972 316.072 804.034 316.072C803.095 316.072 802.327 316.381 801.73 317C801.154 317.619 800.866 318.419 800.866 319.4C800.866 320.36 801.154 321.16 801.73 321.8C802.327 322.419 803.095 322.728 804.034 322.728C804.972 322.728 805.73 322.419 806.306 321.8C806.903 321.16 807.202 320.36 807.202 319.4Z" fill="#0D0D0D"/>
<rect x="885.667" y="143" width="186.167" height="212" rx="12" fill="#D1D1D1"/>
<path d="M968.822 317.896L963.606 325H959.446L966.038 316.2L966.934 316.424C966.379 316.872 965.761 317.213 965.078 317.448C964.395 317.683 963.713 317.8 963.03 317.8C961.43 317.8 960.022 317.459 958.806 316.776C957.611 316.072 956.673 315.112 955.99 313.896C955.329 312.659 954.998 311.261 954.998 309.704C954.998 308.083 955.371 306.643 956.118 305.384C956.865 304.104 957.878 303.112 959.158 302.408C960.459 301.683 961.921 301.32 963.542 301.32C965.185 301.32 966.657 301.693 967.958 302.44C969.281 303.187 970.315 304.189 971.062 305.448C971.83 306.707 972.214 308.136 972.214 309.736C972.214 310.653 972.107 311.517 971.894 312.328C971.681 313.139 971.318 313.981 970.806 314.856C970.315 315.731 969.654 316.744 968.822 317.896ZM968.534 309.704C968.534 308.701 968.321 307.816 967.894 307.048C967.467 306.259 966.881 305.651 966.134 305.224C965.387 304.776 964.523 304.552 963.542 304.552C962.582 304.552 961.729 304.776 960.982 305.224C960.257 305.651 959.681 306.259 959.254 307.048C958.849 307.816 958.646 308.701 958.646 309.704C958.646 310.685 958.849 311.571 959.254 312.36C959.681 313.128 960.257 313.725 960.982 314.152C961.729 314.579 962.582 314.792 963.542 314.792C964.545 314.792 965.409 314.579 966.134 314.152C966.881 313.725 967.467 313.128 967.894 312.36C968.321 311.571 968.534 310.685 968.534 309.704ZM985.63 307.304C985.63 308.477 985.374 309.523 984.862 310.44C984.35 311.357 983.646 312.072 982.75 312.584C981.854 313.096 980.83 313.352 979.678 313.352C978.526 313.352 977.491 313.096 976.574 312.584C975.678 312.072 974.974 311.357 974.462 310.44C973.95 309.523 973.694 308.477 973.694 307.304C973.694 306.131 973.95 305.096 974.462 304.2C974.974 303.283 975.678 302.568 976.574 302.056C977.491 301.544 978.526 301.288 979.678 301.288C980.83 301.288 981.854 301.544 982.75 302.056C983.646 302.568 984.35 303.283 984.862 304.2C985.374 305.096 985.63 306.131 985.63 307.304ZM982.846 307.304C982.846 306.323 982.547 305.533 981.95 304.936C981.374 304.317 980.616 304.008 979.678 304.008C978.739 304.008 977.971 304.317 977.374 304.936C976.776 305.533 976.478 306.323 976.478 307.304C976.478 308.285 976.776 309.085 977.374 309.704C977.971 310.323 978.739 310.632 979.678 310.632C980.616 310.632 981.374 310.323 981.95 309.704C982.547 309.085 982.846 308.285 982.846 307.304ZM998.142 301.768L980.478 325H977.022L994.654 301.768H998.142ZM1001.53 319.4C1001.53 320.573 1001.28 321.619 1000.77 322.536C1000.25 323.432 999.55 324.136 998.654 324.648C997.758 325.16 996.723 325.416 995.55 325.416C994.398 325.416 993.363 325.16 992.446 324.648C991.55 324.136 990.846 323.432 990.334 322.536C989.822 321.619 989.566 320.573 989.566 319.4C989.566 318.227 989.822 317.192 990.334 316.296C990.846 315.379 991.55 314.664 992.446 314.152C993.363 313.64 994.398 313.384 995.55 313.384C996.723 313.384 997.758 313.64 998.654 314.152C999.55 314.664 1000.25 315.379 1000.77 316.296C1001.28 317.192 1001.53 318.227 1001.53 319.4ZM998.718 319.4C998.718 318.419 998.419 317.619 997.822 317C997.246 316.381 996.488 316.072 995.55 316.072C994.611 316.072 993.843 316.381 993.246 317C992.67 317.619 992.382 318.419 992.382 319.4C992.382 320.36 992.67 321.16 993.246 321.8C993.843 322.419 994.611 322.728 995.55 322.728C996.488 322.728 997.246 322.419 997.822 321.8C998.419 321.16 998.718 320.36 998.718 319.4Z" fill="#0D0D0D"/>
<rect x="1091.83" y="246" width="186.167" height="109" rx="12" fill="#D1D1D1"/>
<path d="M1153.77 301.736V325H1150.31V301.736H1153.77ZM1138.41 317.256L1149.16 301.736H1153L1142.12 317.48L1138.41 317.256ZM1156.55 320.456H1138.41V317.256H1156.55V320.456ZM1160.91 325.384C1160.22 325.384 1159.64 325.149 1159.15 324.68C1158.68 324.211 1158.44 323.656 1158.44 323.016C1158.44 322.333 1158.68 321.757 1159.15 321.288C1159.64 320.819 1160.22 320.584 1160.91 320.584C1161.57 320.584 1162.13 320.819 1162.6 321.288C1163.09 321.757 1163.34 322.333 1163.34 323.016C1163.34 323.656 1163.09 324.211 1162.6 324.68C1162.13 325.149 1161.57 325.384 1160.91 325.384ZM1168.1 308.84L1173.32 301.736H1177.48L1170.89 310.536L1170.02 310.28C1170.58 309.853 1171.19 309.523 1171.85 309.288C1172.53 309.053 1173.21 308.936 1173.9 308.936C1175.5 308.936 1176.9 309.288 1178.12 309.992C1179.34 310.675 1180.27 311.624 1180.94 312.84C1181.62 314.056 1181.96 315.443 1181.96 317C1181.96 318.643 1181.59 320.093 1180.84 321.352C1180.09 322.611 1179.07 323.603 1177.77 324.328C1176.49 325.053 1175.03 325.416 1173.38 325.416C1171.74 325.416 1170.27 325.043 1168.97 324.296C1167.67 323.549 1166.63 322.547 1165.86 321.288C1165.12 320.008 1164.74 318.579 1164.74 317C1164.74 316.061 1164.85 315.197 1165.06 314.408C1165.28 313.597 1165.63 312.755 1166.12 311.88C1166.61 310.984 1167.27 309.971 1168.1 308.84ZM1168.42 317.032C1168.42 318.035 1168.63 318.931 1169.03 319.72C1169.46 320.488 1170.05 321.096 1170.79 321.544C1171.54 321.971 1172.4 322.184 1173.38 322.184C1174.34 322.184 1175.2 321.971 1175.94 321.544C1176.69 321.096 1177.27 320.488 1177.67 319.72C1178.1 318.931 1178.31 318.035 1178.31 317.032C1178.31 316.029 1178.1 315.144 1177.67 314.376C1177.27 313.608 1176.69 313.011 1175.94 312.584C1175.22 312.157 1174.37 311.944 1173.38 311.944C1172.4 311.944 1171.54 312.157 1170.79 312.584C1170.05 313.011 1169.46 313.608 1169.03 314.376C1168.63 315.144 1168.42 316.029 1168.42 317.032ZM1198.58 301.736V325H1195.12V301.736H1198.58ZM1183.22 317.256L1193.97 301.736H1197.81L1186.93 317.48L1183.22 317.256ZM1201.36 320.456H1183.22V317.256H1201.36V320.456ZM1214.92 307.304C1214.92 308.477 1214.66 309.523 1214.15 310.44C1213.64 311.357 1212.93 312.072 1212.04 312.584C1211.14 313.096 1210.12 313.352 1208.96 313.352C1207.81 313.352 1206.78 313.096 1205.86 312.584C1204.96 312.072 1204.26 311.357 1203.75 310.44C1203.24 309.523 1202.98 308.477 1202.98 307.304C1202.98 306.131 1203.24 305.096 1203.75 304.2C1204.26 303.283 1204.96 302.568 1205.86 302.056C1206.78 301.544 1207.81 301.288 1208.96 301.288C1210.12 301.288 1211.14 301.544 1212.04 302.056C1212.93 302.568 1213.64 303.283 1214.15 304.2C1214.66 305.096 1214.92 306.131 1214.92 307.304ZM1212.13 307.304C1212.13 306.323 1211.83 305.533 1211.24 304.936C1210.66 304.317 1209.9 304.008 1208.96 304.008C1208.02 304.008 1207.26 304.317 1206.66 304.936C1206.06 305.533 1205.76 306.323 1205.76 307.304C1205.76 308.285 1206.06 309.085 1206.66 309.704C1207.26 310.323 1208.02 310.632 1208.96 310.632C1209.9 310.632 1210.66 310.323 1211.24 309.704C1211.83 309.085 1212.13 308.285 1212.13 307.304ZM1227.43 301.768L1209.76 325H1206.31L1223.94 301.768H1227.43ZM1230.82 319.4C1230.82 320.573 1230.56 321.619 1230.05 322.536C1229.54 323.432 1228.84 324.136 1227.94 324.648C1227.04 325.16 1226.01 325.416 1224.84 325.416C1223.68 325.416 1222.65 325.16 1221.73 324.648C1220.84 324.136 1220.13 323.432 1219.62 322.536C1219.11 321.619 1218.85 320.573 1218.85 319.4C1218.85 318.227 1219.11 317.192 1219.62 316.296C1220.13 315.379 1220.84 314.664 1221.73 314.152C1222.65 313.64 1223.68 313.384 1224.84 313.384C1226.01 313.384 1227.04 313.64 1227.94 314.152C1228.84 314.664 1229.54 315.379 1230.05 316.296C1230.56 317.192 1230.82 318.227 1230.82 319.4ZM1228 319.4C1228 318.419 1227.7 317.619 1227.11 317C1226.53 316.381 1225.77 316.072 1224.84 316.072C1223.9 316.072 1223.13 316.381 1222.53 317C1221.96 317.619 1221.67 318.419 1221.67 319.4C1221.67 320.36 1221.96 321.16 1222.53 321.8C1223.13 322.419 1223.9 322.728 1224.84 322.728C1225.77 322.728 1226.53 322.419 1227.11 321.8C1227.7 321.16 1228 320.36 1228 319.4Z" fill="#0D0D0D"/>
<path d="M913.533 393.22C912.16 393.22 910.96 392.913 909.933 392.3C908.906 391.673 908.106 390.807 907.533 389.7C906.96 388.58 906.673 387.273 906.673 385.78C906.673 384.287 906.966 382.98 907.553 381.86C908.14 380.74 908.953 379.867 909.993 379.24C911.046 378.613 912.26 378.3 913.633 378.3C914.726 378.3 915.713 378.507 916.593 378.92C917.473 379.32 918.206 379.887 918.793 380.62C919.38 381.353 919.76 382.213 919.933 383.2H917.833C917.566 382.253 917.053 381.513 916.293 380.98C915.533 380.447 914.626 380.18 913.573 380.18C912.6 380.18 911.746 380.413 911.013 380.88C910.293 381.333 909.733 381.98 909.333 382.82C908.933 383.647 908.733 384.627 908.733 385.76C908.733 386.88 908.933 387.86 909.333 388.7C909.733 389.54 910.3 390.193 911.033 390.66C911.766 391.113 912.613 391.34 913.573 391.34C914.64 391.34 915.56 391.08 916.333 390.56C917.12 390.027 917.646 389.313 917.913 388.42H919.993C919.793 389.38 919.386 390.22 918.773 390.94C918.173 391.66 917.42 392.22 916.513 392.62C915.62 393.02 914.626 393.22 913.533 393.22ZM921.236 388.1C921.236 387.1 921.456 386.213 921.896 385.44C922.336 384.667 922.936 384.06 923.696 383.62C924.47 383.18 925.35 382.96 926.336 382.96C927.323 382.96 928.196 383.18 928.956 383.62C929.716 384.06 930.316 384.667 930.756 385.44C931.196 386.213 931.416 387.1 931.416 388.1C931.416 389.1 931.196 389.987 930.756 390.76C930.316 391.533 929.716 392.14 928.956 392.58C928.196 393.02 927.323 393.24 926.336 393.24C925.35 393.24 924.47 393.02 923.696 392.58C922.936 392.14 922.336 391.533 921.896 390.76C921.456 389.987 921.236 389.1 921.236 388.1ZM923.136 388.1C923.136 388.78 923.27 389.38 923.536 389.9C923.816 390.42 924.196 390.827 924.676 391.12C925.156 391.413 925.71 391.56 926.336 391.56C926.963 391.56 927.516 391.413 927.996 391.12C928.476 390.827 928.85 390.42 929.116 389.9C929.396 389.38 929.536 388.78 929.536 388.1C929.536 387.407 929.396 386.807 929.116 386.3C928.85 385.78 928.476 385.373 927.996 385.08C927.516 384.787 926.963 384.64 926.336 384.64C925.71 384.64 925.156 384.787 924.676 385.08C924.196 385.373 923.816 385.78 923.536 386.3C923.27 386.807 923.136 387.407 923.136 388.1ZM935.178 393H933.298V383.22H934.998L935.198 384.72C935.504 384.16 935.944 383.727 936.518 383.42C937.104 383.1 937.744 382.94 938.438 382.94C939.718 382.94 940.664 383.307 941.278 384.04C941.891 384.773 942.198 385.767 942.198 387.02V393H940.318V387.44C940.318 386.453 940.104 385.747 939.678 385.32C939.251 384.88 938.678 384.66 937.958 384.66C937.078 384.66 936.391 384.947 935.898 385.52C935.418 386.093 935.178 386.86 935.178 387.82V393ZM947.146 393L943.206 383.22H945.206L947.346 388.68C947.519 389.133 947.673 389.567 947.806 389.98C947.939 390.38 948.046 390.727 948.126 391.02C948.219 390.687 948.333 390.32 948.466 389.92C948.613 389.52 948.773 389.107 948.946 388.68L951.126 383.22H953.086L949.006 393H947.146ZM958.153 393.24C957.206 393.24 956.366 393.027 955.633 392.6C954.899 392.16 954.326 391.56 953.913 390.8C953.499 390.027 953.293 389.133 953.293 388.12C953.293 387.093 953.493 386.193 953.893 385.42C954.306 384.647 954.866 384.04 955.573 383.6C956.293 383.16 957.126 382.94 958.073 382.94C959.006 382.94 959.813 383.14 960.493 383.54C961.186 383.94 961.719 384.5 962.093 385.22C962.479 385.94 962.673 386.787 962.673 387.76V388.46L954.293 388.48L954.333 387.22H960.793C960.793 386.407 960.546 385.753 960.053 385.26C959.559 384.767 958.899 384.52 958.073 384.52C957.446 384.52 956.906 384.66 956.453 384.94C956.013 385.207 955.673 385.607 955.433 386.14C955.206 386.66 955.093 387.287 955.093 388.02C955.093 389.193 955.359 390.1 955.893 390.74C956.426 391.367 957.193 391.68 958.193 391.68C958.926 391.68 959.526 391.533 959.993 391.24C960.459 390.947 960.773 390.52 960.933 389.96H962.693C962.453 391 961.939 391.807 961.153 392.38C960.366 392.953 959.366 393.24 958.153 393.24ZM970.172 383.14V384.86H969.332C968.439 384.86 967.732 385.12 967.212 385.64C966.706 386.147 966.452 386.873 966.452 387.82V393H964.572V383.24H966.332L966.492 385.2H966.312C966.446 384.56 966.766 384.04 967.272 383.64C967.779 383.227 968.412 383.02 969.172 383.02C969.346 383.02 969.506 383.033 969.652 383.06C969.812 383.073 969.986 383.1 970.172 383.14ZM970.936 390.16H972.736C972.736 390.653 972.916 391.047 973.276 391.34C973.636 391.62 974.122 391.76 974.736 391.76C975.402 391.76 975.916 391.633 976.276 391.38C976.636 391.113 976.816 390.76 976.816 390.32C976.816 390 976.716 389.733 976.516 389.52C976.329 389.307 975.982 389.133 975.476 389L973.756 388.6C972.889 388.387 972.242 388.06 971.816 387.62C971.402 387.18 971.196 386.6 971.196 385.88C971.196 385.28 971.349 384.76 971.656 384.32C971.976 383.88 972.409 383.54 972.956 383.3C973.516 383.06 974.156 382.94 974.876 382.94C975.596 382.94 976.216 383.067 976.736 383.32C977.269 383.573 977.682 383.927 977.976 384.38C978.282 384.833 978.442 385.373 978.456 386H976.656C976.642 385.493 976.476 385.1 976.156 384.82C975.836 384.54 975.389 384.4 974.816 384.4C974.229 384.4 973.776 384.527 973.456 384.78C973.136 385.033 972.976 385.38 972.976 385.82C972.976 386.473 973.456 386.92 974.416 387.16L976.136 387.58C976.962 387.767 977.582 388.073 977.996 388.5C978.409 388.913 978.616 389.48 978.616 390.2C978.616 390.813 978.449 391.353 978.116 391.82C977.782 392.273 977.322 392.627 976.736 392.88C976.162 393.12 975.482 393.24 974.696 393.24C973.549 393.24 972.636 392.96 971.956 392.4C971.276 391.84 970.936 391.093 970.936 390.16ZM980.501 393V383.22H982.381V393H980.501ZM981.421 380.9C981.087 380.9 980.794 380.78 980.541 380.54C980.301 380.287 980.181 379.993 980.181 379.66C980.181 379.313 980.301 379.02 980.541 378.78C980.794 378.54 981.087 378.42 981.421 378.42C981.767 378.42 982.061 378.54 982.301 378.78C982.541 379.02 982.661 379.313 982.661 379.66C982.661 379.993 982.541 380.287 982.301 380.54C982.061 380.78 981.767 380.9 981.421 380.9ZM984.27 388.1C984.27 387.1 984.49 386.213 984.93 385.44C985.37 384.667 985.97 384.06 986.73 383.62C987.503 383.18 988.383 382.96 989.37 382.96C990.357 382.96 991.23 383.18 991.99 383.62C992.75 384.06 993.35 384.667 993.79 385.44C994.23 386.213 994.45 387.1 994.45 388.1C994.45 389.1 994.23 389.987 993.79 390.76C993.35 391.533 992.75 392.14 991.99 392.58C991.23 393.02 990.357 393.24 989.37 393.24C988.383 393.24 987.503 393.02 986.73 392.58C985.97 392.14 985.37 391.533 984.93 390.76C984.49 389.987 984.27 389.1 984.27 388.1ZM986.17 388.1C986.17 388.78 986.303 389.38 986.57 389.9C986.85 390.42 987.23 390.827 987.71 391.12C988.19 391.413 988.743 391.56 989.37 391.56C989.997 391.56 990.55 391.413 991.03 391.12C991.51 390.827 991.883 390.42 992.15 389.9C992.43 389.38 992.57 388.78 992.57 388.1C992.57 387.407 992.43 386.807 992.15 386.3C991.883 385.78 991.51 385.373 991.03 385.08C990.55 384.787 989.997 384.64 989.37 384.64C988.743 384.64 988.19 384.787 987.71 385.08C987.23 385.373 986.85 385.78 986.57 386.3C986.303 386.807 986.17 387.407 986.17 388.1ZM998.211 393H996.331V383.22H998.031L998.231 384.72C998.538 384.16 998.978 383.727 999.551 383.42C1000.14 383.1 1000.78 382.94 1001.47 382.94C1002.75 382.94 1003.7 383.307 1004.31 384.04C1004.92 384.773 1005.23 385.767 1005.23 387.02V393H1003.35V387.44C1003.35 386.453 1003.14 385.747 1002.71 385.32C1002.28 384.88 1001.71 384.66 1000.99 384.66C1000.11 384.66 999.424 384.947 998.931 385.52C998.451 386.093 998.211 386.86 998.211 387.82V393ZM1015.18 393H1013.22V378.54H1018.68C1020.23 378.54 1021.44 378.927 1022.3 379.7C1023.18 380.46 1023.62 381.52 1023.62 382.88C1023.62 383.88 1023.38 384.727 1022.88 385.42C1022.4 386.113 1021.72 386.607 1020.82 386.9L1023.76 393H1021.58L1018.88 387.28H1015.18V393ZM1015.18 380.3V385.54H1018.7C1019.61 385.54 1020.31 385.307 1020.8 384.84C1021.31 384.373 1021.56 383.727 1021.56 382.9C1021.56 382.06 1021.3 381.42 1020.78 380.98C1020.28 380.527 1019.58 380.3 1018.68 380.3H1015.18ZM1028.26 393.24C1027.22 393.24 1026.4 392.967 1025.8 392.42C1025.21 391.873 1024.92 391.16 1024.92 390.28C1024.92 389.387 1025.24 388.673 1025.88 388.14C1026.52 387.593 1027.41 387.273 1028.56 387.18L1031.64 386.94V386.66C1031.64 386.113 1031.54 385.68 1031.34 385.36C1031.14 385.027 1030.87 384.793 1030.52 384.66C1030.17 384.513 1029.78 384.44 1029.34 384.44C1028.55 384.44 1027.94 384.607 1027.5 384.94C1027.07 385.26 1026.86 385.72 1026.86 386.32H1025.22C1025.22 385.64 1025.39 385.047 1025.74 384.54C1026.09 384.033 1026.57 383.64 1027.2 383.36C1027.84 383.08 1028.58 382.94 1029.42 382.94C1030.23 382.94 1030.94 383.087 1031.54 383.38C1032.15 383.66 1032.63 384.093 1032.96 384.68C1033.31 385.253 1033.48 385.98 1033.48 386.86V393H1031.88L1031.68 391.42C1031.43 391.98 1030.99 392.427 1030.36 392.76C1029.75 393.08 1029.05 393.24 1028.26 393.24ZM1028.8 391.78C1029.69 391.78 1030.39 391.513 1030.9 390.98C1031.41 390.433 1031.66 389.7 1031.66 388.78V388.26L1029.16 388.46C1028.33 388.54 1027.73 388.733 1027.36 389.04C1027 389.347 1026.82 389.74 1026.82 390.22C1026.82 390.74 1026.99 391.133 1027.34 391.4C1027.7 391.653 1028.19 391.78 1028.8 391.78ZM1034.69 383.22H1040.37V384.8H1034.69V383.22ZM1040.29 391.36L1040.53 392.92C1040.02 393.12 1039.48 393.22 1038.91 393.22C1038.33 393.22 1037.85 393.113 1037.45 392.9C1037.05 392.673 1036.74 392.34 1036.53 391.9C1036.31 391.46 1036.21 390.913 1036.21 390.26V380.16H1038.09V390C1038.09 390.56 1038.2 390.96 1038.43 391.2C1038.67 391.427 1038.97 391.54 1039.35 391.54C1039.64 391.54 1039.95 391.48 1040.29 391.36ZM1046.39 393.24C1045.44 393.24 1044.6 393.027 1043.87 392.6C1043.13 392.16 1042.56 391.56 1042.15 390.8C1041.73 390.027 1041.53 389.133 1041.53 388.12C1041.53 387.093 1041.73 386.193 1042.13 385.42C1042.54 384.647 1043.1 384.04 1043.81 383.6C1044.53 383.16 1045.36 382.94 1046.31 382.94C1047.24 382.94 1048.05 383.14 1048.73 383.54C1049.42 383.94 1049.95 384.5 1050.33 385.22C1050.71 385.94 1050.91 386.787 1050.91 387.76V388.46L1042.53 388.48L1042.57 387.22H1049.03C1049.03 386.407 1048.78 385.753 1048.29 385.26C1047.79 384.767 1047.13 384.52 1046.31 384.52C1045.68 384.52 1045.14 384.66 1044.69 384.94C1044.25 385.207 1043.91 385.607 1043.67 386.14C1043.44 386.66 1043.33 387.287 1043.33 388.02C1043.33 389.193 1043.59 390.1 1044.13 390.74C1044.66 391.367 1045.43 391.68 1046.43 391.68C1047.16 391.68 1047.76 391.533 1048.23 391.24C1048.69 390.947 1049.01 390.52 1049.17 389.96H1050.93C1050.69 391 1050.17 391.807 1049.39 392.38C1048.6 392.953 1047.6 393.24 1046.39 393.24Z" fill="#0D0D0D"/>
<rect x="944.75" y="407" width="68" height="25" rx="8" fill="#ECD1D6"/>
<path d="M954 421.655V420.395H958.575V421.655H954ZM966.556 424.985L959.236 425V423.875L962.731 420.86C963.171 420.49 963.536 420.155 963.826 419.855C964.116 419.555 964.346 419.28 964.516 419.03C964.686 418.77 964.806 418.515 964.876 418.265C964.946 418.015 964.981 417.745 964.981 417.455C964.981 416.775 964.796 416.245 964.426 415.865C964.066 415.475 963.556 415.28 962.896 415.28C962.226 415.28 961.686 415.51 961.276 415.97C960.876 416.42 960.671 417.03 960.661 417.8H959.191C959.211 417.03 959.376 416.355 959.686 415.775C959.996 415.195 960.426 414.75 960.976 414.44C961.536 414.12 962.181 413.96 962.911 413.96C963.641 413.96 964.271 414.1 964.801 414.38C965.331 414.66 965.741 415.055 966.031 415.565C966.331 416.065 966.481 416.665 966.481 417.365C966.481 417.745 966.431 418.11 966.331 418.46C966.231 418.8 966.071 419.14 965.851 419.48C965.641 419.81 965.366 420.155 965.026 420.515C964.686 420.865 964.276 421.25 963.796 421.67L960.961 424.13L960.466 423.62H966.556V424.985ZM969.301 425.18C969.011 425.18 968.756 425.08 968.536 424.88C968.326 424.67 968.221 424.42 968.221 424.13C968.221 423.83 968.326 423.58 968.536 423.38C968.756 423.17 969.011 423.065 969.301 423.065C969.591 423.065 969.841 423.17 970.051 423.38C970.261 423.58 970.366 423.83 970.366 424.13C970.366 424.42 970.261 424.67 970.051 424.88C969.841 425.08 969.591 425.18 969.301 425.18ZM978.583 414.155V425H977.173V414.155H978.583ZM971.563 421.505L976.678 414.155H978.253L973.093 421.595L971.563 421.505ZM979.873 422.81H971.563V421.505H979.873V422.81ZM982.284 425H980.664L983.229 421.37L980.679 417.665H982.314L984.174 420.395L985.989 417.665H987.594L985.044 421.37L987.549 425H985.914L984.084 422.315L982.284 425Z" fill="#EF0A38"/>
<path d="M997.5 414.833V414.083H996V414.833H997.5ZM996 424.166C996 424.581 996.336 424.916 996.75 424.916C997.164 424.916 997.5 424.581 997.5 424.166H996ZM996.75 414.833H996V424.166H996.75H997.5V414.833H996.75Z" fill="#EF0A38"/>
<path d="M993.28 419.637L992.75 419.106L991.689 420.167L992.22 420.697L993.28 419.637ZM996.22 424.697C996.513 424.99 996.987 424.99 997.28 424.697C997.573 424.404 997.573 423.93 997.28 423.637L996.22 424.697ZM992.75 420.167L992.22 420.697L996.22 424.697L996.75 424.167L997.28 423.637L993.28 419.637L992.75 420.167Z" fill="#EF0A38"/>
<path d="M1001.28 420.697L1001.81 420.167L1000.75 419.106L1000.22 419.637L1001.28 420.697ZM996.22 423.637C995.927 423.93 995.927 424.404 996.22 424.697C996.513 424.99 996.987 424.99 997.28 424.697L996.22 423.637ZM1000.75 420.167L1000.22 419.637L996.22 423.637L996.75 424.167L997.28 424.697L1001.28 420.697L1000.75 420.167Z" fill="#EF0A38"/>
</g>
<defs>
<clipPath id="clip0_6624_23122">
<rect width="1278" height="432" fill="white"/>
</clipPath>
</defs>
</svg>
