<svg width="143" height="32" viewBox="0 0 143 32" fill="none" xmlns="http://www.w3.org/2000/svg">
<path d="M131.639 13.8928H128.663C128.686 17.5622 131.236 19.5089 135.487 19.5089C139.47 19.5089 141.931 17.7634 141.931 14.6088C141.931 12.0804 140.41 10.6261 136.651 9.8878L135.264 9.61925C132.892 9.127 132.154 8.54534 132.154 7.26995C132.154 6.06179 133.094 5.30104 135.018 5.30104C137.546 5.30104 138.418 6.26331 138.53 7.96368H141.462C141.35 4.96549 139.447 2.8623 134.973 2.8623C131.147 2.8623 129.066 4.71938 129.066 7.35962C129.066 10.246 131.102 11.6106 134.19 12.1925L135.532 12.461C137.971 12.9533 138.799 13.5125 138.799 14.7655C138.799 16.2646 137.658 17.07 135.577 17.07C133.362 17.07 131.684 16.3989 131.639 13.8928Z" fill="white"/>
<path fill-rule="evenodd" clip-rule="evenodd" d="M41.4334 19.1504C46.6245 19.1504 49.4211 16.0409 49.4211 11.1855C49.4211 6.33027 46.6245 3.22021 41.4334 3.22021H35.3475V19.1504H41.4334ZM41.3888 5.81563C44.4765 5.81563 46.2887 7.65027 46.2887 11.1855C46.2887 14.7206 44.4765 16.5553 41.3888 16.5553H38.3681V5.81563H41.3888Z" fill="white"/>
<path d="M24.9897 5.92797V9.6867H32.888V12.2821H24.9897V16.4436H33.6712V19.1511H21.9691V3.2207H33.7161V5.92797H24.9897Z" fill="white"/>
<path d="M6.38234 3.27002V8.67706L1.25275 6.83663L0 10.5571L5.2077 12.3584L1.9183 16.6176L5.09007 19.0016L8.26738 14.7087L11.5618 19.2135L14.8122 16.8242L11.5618 12.3584L16.6919 10.7125L15.517 6.99238L10.3882 8.67706V3.27002H6.38234Z" fill="white"/>
<path fill-rule="evenodd" clip-rule="evenodd" d="M60.1595 15.6383H53.1786L51.948 19.1511H48.838L54.9015 3.2207H58.4367L64.6123 19.1511H61.4123L60.1595 15.6383ZM59.2421 13.0653L58.6156 11.3425C58.0563 9.88824 57.2956 7.76264 56.6467 5.88313C55.998 7.76264 55.237 9.88824 54.7002 11.3425L54.0961 13.0653H59.2421Z" fill="white"/>
<path d="M79.9372 19.1506L84.3446 3.22021H81.2123L79.5341 9.64159C79.0418 11.6105 78.5274 13.7137 78.08 15.7275C77.6775 13.7137 77.2295 11.6105 76.7372 9.61919L75.104 3.22021H71.9945L70.3612 9.61919C69.8911 11.6105 69.4215 13.6913 68.9963 15.705C68.6333 13.986 68.1891 12.218 67.7606 10.5125L67.7587 10.5051C67.6859 10.2153 67.6136 9.92725 67.5421 9.64159L65.8862 3.22021H62.7317L67.1612 19.1506H70.5397L72.2406 12.5277C72.7101 10.6931 73.1575 8.76879 73.5378 6.88953C73.9168 8.76189 74.3849 10.679 74.8314 12.5075L74.8316 12.5087L74.8363 12.5277L76.5366 19.1506H79.9372Z" fill="white"/>
<path fill-rule="evenodd" clip-rule="evenodd" d="M93.7637 15.6383H86.7828L85.552 19.1511H82.4424L88.5052 3.2207H92.0406L98.216 19.1511H95.0166L93.7637 15.6383ZM92.8461 13.0653L92.2191 11.3425C91.6603 9.88824 90.8991 7.76264 90.2504 5.88313C89.6018 7.76264 88.8406 9.88824 88.304 11.3425L87.6997 13.0653H92.8461Z" fill="white"/>
<path fill-rule="evenodd" clip-rule="evenodd" d="M109.156 19.1509H112.265C111.953 18.6811 111.796 17.9876 111.774 17.2936L111.639 14.9219C111.572 13.2663 111.102 12.0804 109.335 11.5211C111.058 10.917 111.997 9.55218 111.997 7.71753C111.997 5.03269 110.05 3.22021 106.381 3.22021H99.1545V19.1506H102.175V12.9084H106.113C107.724 12.9084 108.574 13.4676 108.663 15.5038L108.73 17.249C108.753 18.0319 108.865 18.6811 109.156 19.1509ZM108.887 8.0531C108.887 9.68645 107.836 10.5367 106.202 10.5367H102.175V5.70378H106.09C107.836 5.70378 108.887 6.48695 108.887 8.0531Z" fill="white"/>
<path fill-rule="evenodd" clip-rule="evenodd" d="M127.882 11.1855C127.882 16.0409 125.085 19.1504 119.894 19.1504H113.808V3.22021H119.894C125.085 3.22021 127.882 6.33027 127.882 11.1855ZM124.75 11.1855C124.75 7.65027 122.937 5.81563 119.849 5.81563H116.829V16.5553H119.849C122.937 16.5553 124.75 14.7206 124.75 11.1855Z" fill="white"/>
<path d="M22.9384 25.2808V26.4711H25.439V27.2928H22.9384V28.6107H25.687V29.4679H21.9821V24.4238H25.7011V25.2808H22.9384Z" fill="white"/>
<path d="M26.1193 24.4238V27.5693C26.1193 28.8797 26.9623 29.5742 28.2305 29.5742C29.5268 29.5742 30.3416 28.88 30.3416 27.5693V24.4238H29.3851V27.5763C29.3851 28.3699 28.9529 28.7452 28.2305 28.7452C27.5078 28.7452 27.0756 28.3699 27.0756 27.5763V24.4238H26.1193Z" fill="white"/>
<path fill-rule="evenodd" clip-rule="evenodd" d="M35.1448 29.4676H34.1601C34.068 29.3192 34.0326 29.1135 34.0256 28.8657L34.0044 28.3132C33.9759 27.6684 33.7069 27.4915 33.1966 27.4915H31.9499V29.4676H30.9937V24.4238H33.2817C34.4436 24.4238 35.0597 24.9978 35.0597 25.8477C35.0597 26.4287 34.7623 26.8609 34.2167 27.052C34.7765 27.2292 34.9252 27.6045 34.9466 28.1288L34.9891 28.8797C34.9961 29.0993 35.0457 29.3189 35.1448 29.4676ZM33.225 26.7403C33.7423 26.7403 34.075 26.4711 34.075 25.954C34.075 25.4579 33.7423 25.2102 33.1896 25.2102H31.9499V26.7403H33.225Z" fill="white"/>
<path fill-rule="evenodd" clip-rule="evenodd" d="M37.915 24.3105C36.399 24.3105 35.3929 25.3591 35.3929 26.946C35.3929 28.5328 36.399 29.5812 37.915 29.5814C39.4238 29.5814 40.4299 28.5328 40.4299 26.946C40.4299 25.3591 39.4238 24.3105 37.915 24.3105ZM37.915 25.1535C38.8358 25.1535 39.438 25.8337 39.438 26.946C39.438 28.0579 38.8358 28.7382 37.915 28.7384C36.994 28.7384 36.3918 28.0579 36.3918 26.946C36.3918 25.8335 36.994 25.1535 37.915 25.1535Z" fill="white"/>
<path fill-rule="evenodd" clip-rule="evenodd" d="M44.9499 26.0676C44.9499 27.038 44.3265 27.7041 43.1646 27.7041H41.9036V29.4676H40.9474V24.4238H43.1646C44.3265 24.4241 44.9499 25.0899 44.9499 26.0676ZM43.9863 26.0676C43.9863 25.5433 43.6817 25.2458 43.1222 25.2458H41.9036V26.8824H43.1222C43.6817 26.8824 43.9863 26.5919 43.9863 26.0676Z" fill="white"/>
<path d="M46.3955 26.4711V25.2808H49.1582V24.4238H45.4392V29.4679H49.1442V28.6107H46.3955V27.2928H48.8961V26.4711H46.3955Z" fill="white"/>
<path fill-rule="evenodd" clip-rule="evenodd" d="M52.8067 28.3559H50.5965L50.2067 29.4679H49.222L51.142 24.4238H52.2612L54.2164 29.4679H53.2035L52.8067 28.3559ZM52.5163 27.5409L52.3179 26.9954C52.1407 26.535 51.8999 25.862 51.6945 25.2668C51.4891 25.862 51.2483 26.535 51.0782 26.9954L50.887 27.5409H52.5163Z" fill="white"/>
<path d="M58.7436 29.4679V24.4238H57.8225V25.7414C57.8225 26.4853 57.8295 27.2931 57.8509 28.1857C57.5959 27.7111 57.2418 27.1301 56.9583 26.6697L55.5487 24.4241H54.4858V29.4681H55.4069V28.1503C55.4069 27.4066 55.4069 26.5988 55.3785 25.7062C55.6335 26.1948 55.9594 26.7194 56.2781 27.2225L57.6808 29.4679H58.7436Z" fill="white"/>
<path fill-rule="evenodd" clip-rule="evenodd" d="M65.3606 26.946C65.3606 28.4832 64.4751 29.4679 62.8314 29.4679H60.9046V24.4238H62.8314C64.4751 24.4238 65.3606 25.4085 65.3606 26.946ZM64.3686 26.946C64.3686 25.8265 63.7951 25.2456 62.8172 25.2456H61.8609V28.6459H62.8172C63.7951 28.6459 64.3686 28.0652 64.3686 26.946Z" fill="white"/>
<path d="M66.8345 26.4711V25.2808H69.5969V24.4238H65.8782V29.4679H69.5828V28.6107H66.8345V27.2928H69.3348V26.4711H66.8345Z" fill="white"/>
<path d="M69.8381 27.8029H70.7803C70.7951 28.5965 71.3261 28.8088 72.0271 28.8088C72.6861 28.8088 73.0474 28.5538 73.0474 28.0792C73.0474 27.6824 72.7852 27.5054 72.0129 27.3497L71.5877 27.2646C70.6104 27.0803 69.9655 26.648 69.9655 25.7342C69.9655 24.8985 70.6246 24.3105 71.8357 24.3105C73.2529 24.3105 73.8548 24.9766 73.8898 25.9256H72.9618C72.9268 25.3873 72.6498 25.0826 71.8498 25.0826C71.2406 25.0826 70.9427 25.3235 70.9427 25.706C70.9427 26.1097 71.1766 26.2939 71.928 26.4499L72.3668 26.535C73.5569 26.7688 74.0387 27.2294 74.0387 28.0297C74.0387 29.0287 73.2597 29.5812 71.9987 29.5812C70.6529 29.5809 69.8455 28.965 69.8381 27.8029Z" fill="white"/>
<path d="M74.4929 24.4238H75.4492V29.4679H74.4929V24.4238Z" fill="white"/>
<path d="M80.8474 26.7473V29.4677H80.1533L80.0185 28.8014C79.6646 29.3047 79.0837 29.5807 78.3754 29.5807C76.9231 29.5807 75.9668 28.5323 75.9668 26.9455C75.9668 25.3587 76.9231 24.3101 78.4603 24.3101C79.7354 24.3101 80.621 25.0113 80.7908 26.1026H79.8062C79.6646 25.5144 79.1619 25.1461 78.4671 25.1461C77.5391 25.1461 76.9656 25.8333 76.9656 26.9455C76.9656 28.0575 77.5533 28.7449 78.5028 28.7449C79.2468 28.7449 79.8628 28.2561 79.9126 27.5192H78.5951V26.7471L80.8474 26.7473Z" fill="white"/>
<path d="M85.7569 29.4679V24.4238H84.8363V25.7414C84.8363 26.4853 84.8431 27.2931 84.8652 28.1857C84.6099 27.7111 84.256 27.1301 83.9723 26.6697L82.5625 24.4241H81.4997V29.4681H82.4209V28.1503C82.4209 27.4066 82.4209 26.5988 82.3926 25.7062C82.6474 26.1948 82.9729 26.7194 83.2917 27.2225L84.6948 29.4679H85.7569Z" fill="white"/>
</svg>
