<svg width="117" height="32" viewBox="0 0 117 32" fill="none" xmlns="http://www.w3.org/2000/svg">
<path d="M112.44 4L110.251 6.64313L108.063 4H103.503L107.971 9.3974L103.503 14.7948H108.063L110.251 12.1517L112.44 14.7948H117L112.532 9.3974L117 4H112.44Z" fill="white"/>
<path d="M18.1927 9.39858V9.3952H24.1145V27.9999H18.1927V17.6079L12.1137 24.6815L12.0587 24.7508L5.92166 17.61V27.9999H0V9.3952H5.92166V9.39703L5.92372 9.3952L12.0565 16.5315L18.1891 9.3952L18.1927 9.39858Z" fill="white"/>
<path d="M26.6176 9.3952H32.539V27.9999H26.6176V9.3952Z" fill="white"/>
<path d="M58.1023 9.3952V27.9999H76.7779V22.636H64.0239V21.0451H76.7779V16.3498H64.0239V14.7597H76.7779V9.39525L58.1023 9.3952Z" fill="white"/>
<path fill-rule="evenodd" clip-rule="evenodd" d="M93.114 9.3998C100.586 9.48719 101.001 14.5212 100.999 15.6509L100.999 21.7442C101.001 22.8741 100.587 27.908 93.114 27.9954V27.9997L79.2808 28V9.3952L93.114 9.39544V9.3998ZM95.0702 20.7705V16.6249C95.0702 14.9653 93.5432 14.7762 93.0209 14.7596H81.5885L85.202 15.8665V22.6356H93.0209C93.5432 22.6193 95.0702 22.4299 95.0702 20.7705Z" fill="white"/>
<path d="M48.8493 18.6948L56.8414 9.3952H49.7802L45.3185 14.5866L40.8571 9.3952H33.7957L41.788 18.6948L33.7911 27.9998H40.8525L44.618 23.6186L43.1195 20.2443L49.7839 27.9998H56.8456L48.8493 18.6948Z" fill="white"/>
</svg>
