<svg width="95" height="32" viewBox="0 0 95 32" fill="none" xmlns="http://www.w3.org/2000/svg">
<path d="M53.8541 11.8229C53.8541 9.02213 53.9021 6.41449 54.0459 4L46.7087 5.4004V6.07646L47.4281 6.17304C47.9556 6.22133 48.2913 6.41449 48.4831 6.70423C48.6749 7.04225 48.8188 7.52515 48.9147 8.2495C49.0106 9.6499 49.1065 12.837 49.0586 17.8592C49.0586 22.833 49.0106 25.9718 48.9147 27.1791C51.5522 27.7586 53.6143 28 55.1489 28C58.0262 28 60.2802 27.1791 61.9107 25.4889C63.5411 23.8471 64.4043 21.5292 64.4043 18.6801C64.4043 16.4105 63.7809 14.5272 62.5341 13.0302C61.2872 11.5332 59.7047 10.8089 57.8344 10.8089C56.5876 10.8089 55.2928 11.1469 53.8541 11.8229ZM53.998 26.6962C53.9021 25.1509 53.8062 20.5151 53.8062 12.9336C54.2378 12.7887 54.8132 12.6922 55.5326 12.6922C56.6835 12.6922 57.5946 13.2716 58.266 14.4789C58.9374 15.6861 59.2731 17.1348 59.2731 18.9698C59.2731 21.2394 58.8894 23.0744 58.1222 24.6197C57.3549 26.1167 56.3958 26.8893 55.1969 26.8893C54.8132 26.7928 54.4296 26.7445 53.998 26.6962ZM19.1822 4.4829H0V5.44869L1.00707 5.54527C1.77436 5.69014 2.30187 5.97988 2.63756 6.41449C2.97325 6.89738 3.16507 7.67002 3.21302 8.73239C3.59667 13.9477 3.59667 18.8249 3.21302 23.3159C3.11711 24.3783 2.92529 25.1509 2.63756 25.6338C2.30187 26.1167 1.77436 26.4064 1.00707 26.503L0 26.6479V27.6137H12.3725V26.6479L11.0777 26.5513C10.3104 26.4547 9.78294 26.1167 9.44725 25.6821C9.11156 25.1992 8.91974 24.4266 8.87178 23.3642C8.72791 21.4326 8.632 19.2113 8.632 16.7485L11.2216 16.7968C12.6123 16.8451 13.5714 17.9074 14.051 20.0322H15.0101V12.161H14.051C13.5714 14.2374 12.6603 15.2998 11.2216 15.3481L8.632 15.3964C8.632 11.0503 8.72791 7.95976 8.87178 6.07646H12.6603C15.3458 6.07646 17.1681 7.81489 18.2231 11.2918L19.3741 10.9537L19.1822 4.4829ZM16.9283 19.3561C16.9283 21.8672 17.6477 23.9437 19.0384 25.5855C20.4291 27.2274 22.4912 28 25.0808 28C27.6704 28 29.7804 27.1791 31.315 25.4889C32.8496 23.8471 33.5689 21.7706 33.5689 19.2596C33.5689 16.7485 32.8496 14.672 31.4589 13.0302C30.0681 11.3883 28.0061 10.6157 25.4165 10.6157C22.8269 10.6157 20.7168 11.4366 19.1822 13.1268C17.6477 14.7686 16.9283 16.8451 16.9283 19.3561ZM27.6224 13.8511C28.1979 15.2515 28.4377 17.0865 28.4377 19.3078C28.4377 24.4266 27.3826 26.9376 25.3205 26.9376C24.2655 26.9376 23.4503 26.2133 22.8748 24.7646C22.2993 23.3159 22.0596 21.4809 22.0596 19.3078C22.0596 14.2374 23.1146 11.7264 25.1767 11.7264C26.2317 11.6781 27.0469 12.4024 27.6224 13.8511ZM68.1449 25.5855C69.7274 27.1791 71.7415 28 74.1393 28C75.6259 28 76.9207 27.7103 78.0717 27.0825C79.2226 26.503 80.1338 25.7787 80.7572 24.9095L80.2776 24.33C79.2226 25.1509 78.0237 25.5372 76.633 25.5372C74.7148 25.5372 73.2282 24.9095 72.2211 23.6056C71.1661 22.3018 70.6865 20.66 70.7824 18.5352H81.0449C81.0449 16.2173 80.4695 14.334 79.2706 12.837C78.0717 11.3883 76.3932 10.664 74.2352 10.664C71.5497 10.664 69.4876 11.5332 68.001 13.2233C66.5144 14.9135 65.795 16.9899 65.795 19.4527C65.795 21.9638 66.5623 23.992 68.1449 25.5855ZM71.6936 13.4648C72.2211 12.3058 72.8925 11.7264 73.8036 11.7264C75.2423 11.7264 75.9616 13.5614 75.9616 17.2797L70.8783 17.3763C70.9263 15.9276 71.1661 14.6237 71.6936 13.4648ZM93.945 11.5332C92.6502 10.9537 91.0197 10.6157 89.0535 10.6157C87.0394 10.6157 85.4568 11.1469 84.2579 12.161C83.0591 13.175 82.4356 14.4306 82.4356 15.9276C82.4356 17.2314 82.8193 18.2455 83.5386 18.9698C84.2579 19.6942 85.4089 20.3219 86.8955 20.8531C88.2383 21.336 89.1974 21.8189 89.6769 22.2535C90.1565 22.7364 90.4442 23.2676 90.4442 23.992C90.4442 24.668 90.2044 25.2958 89.6769 25.7787C89.1974 26.3099 88.526 26.5513 87.6628 26.5513C85.5527 26.5513 83.9702 25.006 82.8672 21.9155L82.052 22.1569L82.2438 26.9859C83.9702 27.662 85.8884 28 87.9985 28C90.2044 28 91.8829 27.5171 93.1297 26.503C94.3766 25.5372 95 24.1368 95 22.3984C95 21.2394 94.7123 20.2736 94.0888 19.5493C93.4654 18.8249 92.4584 18.1972 91.0197 17.6177C89.4371 17.0382 88.3342 16.507 87.7587 16.0241C87.1832 15.5412 86.8955 14.9618 86.8955 14.2374C86.8955 13.5131 87.0873 12.9336 87.5189 12.4507C87.9505 11.9678 88.478 11.7746 89.1494 11.7746C91.0676 11.7746 92.4584 13.1751 93.3216 15.9276L94.1368 15.6861L93.945 11.5332ZM47.8117 11.0986C47.1403 10.7606 46.421 10.6157 45.6058 10.6157C44.7905 10.6157 43.9753 10.9537 43.0641 11.6298C42.153 12.3058 41.4816 13.2233 40.9541 14.4789L41.002 10.6157L33.7128 12.0644V12.7404L34.4321 12.7887C35.3433 12.8853 35.8708 13.6097 35.9667 14.9135C36.2544 17.9074 36.2544 21.0946 35.9667 24.4748C35.8708 25.7787 35.3433 26.4547 34.4321 26.5996L33.7128 26.6962V27.6137H43.8794V26.6962L42.5846 26.5996C41.6734 26.503 41.1459 25.7787 41.05 24.4748C40.7622 21.674 40.7143 18.6801 40.9541 15.5895C41.2418 15.1066 41.8652 14.8169 42.8243 14.7203C43.7834 14.6237 44.8864 14.9135 46.0374 15.5895L47.8117 11.0986Z" fill="white"/>
</svg>
