<svg width="75" height="32" viewBox="0 0 75 32" fill="none" xmlns="http://www.w3.org/2000/svg">
<g opacity="0.99">
<path d="M19.2481 1.67175C19.0684 1.16968 18.711 0.949039 18.1764 1.00986C17.835 1.12378 17.6206 1.35739 17.5333 1.71069C17.5072 6.21419 17.5072 10.7177 17.5333 15.2212C17.5969 15.51 17.759 15.7241 18.0205 15.8636C18.6206 16.0414 19.0298 15.8402 19.2481 15.2601C19.2742 10.7307 19.2742 6.20119 19.2481 1.67175Z" fill="white"/>
<path d="M8.82317 4.06598C7.40425 3.35156 5.89725 3.02061 4.30257 3.07314C3.93897 3.13528 3.57537 3.21965 3.21139 3.32621C1.8626 3.76949 1.03759 4.68447 0.73674 6.07114C0.581636 6.97973 0.776491 7.79737 1.3213 8.52405C1.92418 9.1518 2.64514 9.58659 3.48418 9.82838L6.05625 10.6071C6.56209 10.788 7.02974 11.0346 7.4592 11.3468C8.02856 11.8886 8.17821 12.531 7.90736 13.2741C7.57767 13.9666 7.03871 14.4014 6.29007 14.5785C5.58899 14.7036 4.88752 14.7036 4.18565 14.5785C3.08161 14.3174 2.06837 13.8632 1.14593 13.2157C0.963939 13.1898 0.782336 13.1898 0.600342 13.2157C0.00642854 13.5857 -0.0586523 14.0335 0.405487 14.559C1.24609 15.1313 2.15528 15.566 3.13344 15.8633C4.47248 16.2481 5.81074 16.2481 7.14743 15.8633C8.46192 15.4067 9.28654 14.5048 9.62208 13.1573C9.89799 11.8625 9.52777 10.8048 8.51141 9.98412C7.97829 9.64565 7.41984 9.36014 6.83567 9.12754C6.02157 8.86072 5.20318 8.60114 4.38051 8.34884C4.04653 8.22059 3.7219 8.07782 3.40624 7.92056C2.98418 7.70641 2.66579 7.38843 2.45146 6.96665C2.25777 6.1911 2.47211 5.55517 3.09447 5.05883C3.63967 4.69389 4.24372 4.51218 4.90661 4.51374C6.096 4.60492 7.20667 4.94883 8.23861 5.54551C8.59403 5.66832 8.91242 5.60991 9.1934 5.37031C9.49854 4.81747 9.37501 4.38268 8.82317 4.06598Z" fill="white"/>
<path fill-rule="evenodd" clip-rule="evenodd" d="M46.1195 3.07346C48.9429 2.95533 51.0797 4.09745 52.5302 6.49975C53.543 8.57312 53.543 10.6496 52.5302 12.7294C51.1058 15.1123 48.9947 16.2479 46.1974 16.1362C43.4102 15.7777 41.5202 14.2916 40.5272 11.6781C39.7614 8.9395 40.4044 6.59693 42.4562 4.65033C43.5236 3.77339 44.7446 3.24777 46.1195 3.07346ZM46.2754 4.7866C48.8065 4.73638 50.5146 5.89142 51.4 8.25183C51.8817 10.2728 51.3556 11.9664 49.8217 13.3329C48.2184 14.5449 46.4909 14.7526 44.6386 13.9558C42.9095 13.0195 42.0003 11.5659 41.9106 9.59509C42.0088 7.71935 42.8662 6.30472 44.4827 5.35116C45.0509 5.05377 45.6483 4.8656 46.2754 4.7866Z" fill="white"/>
<path d="M37.8569 4.86481C36.408 3.54148 34.6933 2.94449 32.7128 3.07379C31.4634 3.21949 30.3332 3.66724 29.3223 4.41705C27.0741 6.33215 26.3274 8.72666 27.0815 11.6006C28.0628 14.2681 29.9661 15.7801 32.7907 16.1365C34.7954 16.2581 36.5163 15.6286 37.9543 14.2482C38.1219 14.0011 38.1737 13.7286 38.1102 13.4305C37.7957 12.8118 37.3343 12.6756 36.7268 13.0217C35.6707 14.0545 34.3975 14.5217 32.9076 14.4234C30.8422 14.1285 29.4459 13.0058 28.7183 11.0555C28.131 8.5117 28.956 6.58441 31.1929 5.27362C33.0327 4.47316 34.7603 4.66783 36.376 5.85765C36.8059 6.3953 37.3063 6.47968 37.8764 6.11073C38.1679 5.6891 38.1617 5.27378 37.8569 4.86481Z" fill="white"/>
<path d="M61.9013 3.19043C64.5178 3.15079 66.5248 4.22797 67.9223 6.42204C68.4223 7.30431 68.708 8.25172 68.7797 9.2643C68.8058 11.263 68.8058 13.2617 68.7797 15.2603C68.667 15.6899 68.3876 15.9106 67.9418 15.9222C67.5638 15.925 67.2976 15.7563 67.1429 15.416C67.0918 13.328 67.0657 11.2385 67.065 9.1475C66.6616 6.96698 65.395 5.58478 63.2653 5.00091C61.1196 4.65774 59.4243 5.36503 58.1796 7.12287C57.8316 7.68587 57.5978 8.29587 57.4781 8.95282L57.4392 15.2214C57.2385 15.8231 56.8293 16.0372 56.2116 15.8638C55.963 15.7322 55.8004 15.5311 55.7245 15.2603C55.6983 11.5355 55.6983 7.81074 55.7245 4.08594C55.9123 3.53446 56.2954 3.32031 56.8741 3.4435C57.1859 3.56568 57.3741 3.79283 57.4392 4.12487L57.4781 5.25399C58.6851 3.99339 60.1593 3.30552 61.9013 3.19043Z" fill="white"/>
<path d="M14.4168 3.85246C14.169 3.52525 13.8377 3.38248 13.4231 3.42418C13.1405 3.53129 12.9391 3.72596 12.819 4.00821C12.7929 7.78491 12.7929 11.5616 12.819 15.3383C12.9644 15.7233 13.2434 15.918 13.6569 15.9223C14.1027 15.9107 14.3821 15.6901 14.4948 15.2604C14.5209 11.5486 14.5209 7.83681 14.4948 4.12501C14.4835 4.02954 14.4574 3.93871 14.4168 3.85246Z" fill="white"/>
<path d="M22.9321 3.42346C23.4231 3.36326 23.7676 3.55794 23.9648 4.00748C23.991 7.79715 23.991 11.5869 23.9648 15.3765C23.6632 15.9118 23.2279 16.0545 22.6593 15.8048C22.4789 15.6777 22.3553 15.509 22.2891 15.2987C22.263 11.5479 22.263 7.79715 22.2891 4.04642C22.4072 3.73794 22.6215 3.53026 22.9321 3.42346Z" fill="white"/>
<path d="M61.9023 15.844C62.4249 15.8156 62.7561 16.0492 62.896 16.5448C62.9221 21.0613 62.9221 25.5777 62.896 30.0942C62.6455 30.7413 62.1973 30.9231 61.5515 30.6393C61.3579 30.4906 61.2343 30.2959 61.1813 30.0553C61.1552 25.5518 61.1552 21.0483 61.1813 16.5448C61.2897 16.1704 61.5301 15.9368 61.9023 15.844Z" fill="white"/>
<path d="M69.7732 17.9076C71.3048 17.8665 72.7467 18.1975 74.099 18.9005C74.659 19.2029 74.7954 19.6377 74.5082 20.2048C74.2428 20.4448 73.9372 20.5161 73.5924 20.419C72.7143 19.8965 71.7658 19.559 70.7475 19.4066C69.8882 19.2873 69.0959 19.456 68.3703 19.9128C67.6754 20.515 67.5133 21.2353 67.8831 22.0737C68.099 22.36 68.3656 22.5871 68.682 22.7551C69.7085 23.2261 70.774 23.6024 71.8776 23.8842C72.6208 24.1349 73.3094 24.4853 73.9431 24.9354C74.8199 25.723 75.1512 26.7028 74.9368 27.875C74.6329 29.3339 73.7693 30.2878 72.3453 30.7368C69.8745 31.2807 67.6209 30.8068 65.5839 29.3156C65.2526 28.753 65.3761 28.3313 65.9541 28.0502C66.0971 28.0241 66.2397 28.0241 66.3828 28.0502C67.1474 28.5685 67.9658 28.9707 68.8379 29.2572C69.8453 29.594 70.8586 29.6201 71.8776 29.3351C72.9462 28.943 73.4205 28.1838 73.3001 27.0574C73.1921 26.6726 72.9778 26.3611 72.6571 26.1229C72.1785 25.7923 71.6586 25.5392 71.0982 25.3637C70.3009 25.1483 69.5082 24.9147 68.721 24.6629C67.9509 24.3983 67.269 23.9895 66.675 23.4364C66.0605 22.6701 65.8528 21.8005 66.0515 20.8278C66.3208 19.5981 67.0418 18.748 68.2144 18.2775C68.7269 18.1013 69.2463 17.978 69.7732 17.9076Z" fill="white"/>
<path d="M11.1819 19.8541C9.79373 18.4821 8.11137 17.8332 6.13516 17.9073C5.08372 17.9975 4.09621 18.3025 3.17338 18.8223C0.831625 20.3596 -0.213961 22.5335 0.0362303 25.3439C0.485175 27.8942 1.90761 29.6529 4.30353 30.6197C6.73258 31.3976 8.9278 30.9821 10.8896 29.3737C11.381 28.9879 11.4718 28.5273 11.1624 27.9915C10.7937 27.637 10.3912 27.5916 9.95429 27.8553C9.69124 28.1185 9.4052 28.3521 9.09693 28.5561C7.82493 29.3161 6.4742 29.4847 5.04397 29.0622C2.95631 28.2469 1.83941 26.7156 1.69249 24.4679C1.79927 22.41 2.77354 20.9304 4.6153 20.0293C6.66399 19.2715 8.48275 19.6349 10.0712 21.1195C10.164 21.1394 10.2548 21.1654 10.344 21.1974C10.5178 21.2132 10.6869 21.1873 10.8506 21.1195C11.3191 20.7925 11.4293 20.3707 11.1819 19.8541Z" fill="white"/>
<path fill-rule="evenodd" clip-rule="evenodd" d="M19.0334 17.9078C21.0984 17.8403 22.8459 18.5411 24.2749 20.0103L24.3139 18.7255C24.612 18.1416 25.0602 17.9923 25.6584 18.2777C25.8022 18.4027 25.9125 18.552 25.9896 18.7255C26.0158 22.5411 26.0158 26.3567 25.9896 30.1724C25.6872 30.7482 25.2391 30.8973 24.6452 30.6201C24.5014 30.4952 24.3911 30.346 24.3139 30.1724L24.2749 28.8875C23.1767 30.0817 21.8194 30.7763 20.2025 30.9705C17.3093 31.1516 15.1336 30.003 13.6749 27.5248C12.6192 25.3535 12.6714 23.2121 13.8308 21.1005C15.0459 19.1986 16.7801 18.1344 19.0334 17.9078ZM19.1892 19.621C21.2601 19.62 22.7995 20.5155 23.8073 22.3075C24.6502 24.2337 24.4164 26.0117 23.1058 27.6416C21.6993 29.1172 20.0041 29.5907 18.0201 29.0627C16.0373 28.3389 14.9138 26.9309 14.6491 24.8383C14.6063 22.6192 15.5743 21.0164 17.5525 20.0298C18.0817 19.8078 18.6273 19.6715 19.1892 19.621Z" fill="white"/>
<path fill-rule="evenodd" clip-rule="evenodd" d="M55.5889 19.6796C54.2023 18.4234 52.5655 17.8329 50.6785 17.908C48.8761 18.078 47.3629 18.8307 46.1384 20.1662C44.5551 22.1545 44.1654 24.3609 44.9693 26.7852C45.9857 29.2011 47.7978 30.5962 50.4057 30.9707C52.5597 31.1432 54.3847 30.4618 55.8811 28.9266L55.9201 30.0558C55.9961 30.3521 56.1715 30.5662 56.4462 30.6982C57.0491 30.8547 57.4454 30.6406 57.6348 30.0558C57.6609 26.318 57.6609 22.5802 57.6348 18.8424C57.5931 18.6356 57.4957 18.4604 57.3425 18.3168C56.6882 17.9689 56.2139 18.1312 55.9201 18.8035L55.8811 20.0105C55.7981 19.8886 55.7007 19.7783 55.5889 19.6796ZM55.6863 22.9306C54.7997 20.7418 53.1692 19.6387 50.7955 19.6212C50.5297 19.6757 50.2569 19.7211 49.9771 19.7574C47.8232 20.4035 46.5956 21.8376 46.2943 24.0598C46.2191 26.1093 47.057 27.6602 48.8079 28.7125C50.6957 29.6142 52.4755 29.4456 54.1469 28.2063C55.7549 26.7731 56.2681 25.0146 55.6863 22.9306Z" fill="white"/>
<path d="M35.0518 18.0638C37.2957 17.8699 39.1858 18.5837 40.722 20.2053C41.7641 21.3926 42.3097 22.7813 42.3588 24.3713C42.3849 26.2532 42.3849 28.1352 42.3588 30.0169C42.2251 30.613 41.8549 30.8533 41.2481 30.7372C41.1152 30.6808 40.9917 30.6091 40.8779 30.5231C40.7926 30.4043 40.7275 30.2743 40.683 30.1337L40.6441 24.0988C40.3062 21.9575 39.1047 20.5623 37.0393 19.9133C34.8335 19.4622 33.0732 20.1436 31.7587 21.9574C31.4045 22.5485 31.1707 23.1845 31.0573 23.8652C31.0561 25.9817 31.03 28.097 30.9793 30.2116C30.6683 30.7773 30.2202 30.9136 29.6348 30.6204C29.4805 30.4873 29.3702 30.3249 29.3036 30.1337C29.2775 26.383 29.2775 22.6322 29.3036 18.8815C29.6185 18.2284 30.0927 18.0856 30.726 18.4532C30.8344 18.5545 30.9185 18.6713 30.9793 18.8036C31.0241 19.2305 31.0503 19.6587 31.0573 20.0885C32.152 18.9514 33.4836 18.2766 35.0518 18.0638Z" fill="white"/>
</g>
</svg>
