<svg width="142" height="32" viewBox="0 0 142 32" fill="none" xmlns="http://www.w3.org/2000/svg">
<g clip-path="url(#clip0_4126_7802)">
<path d="M32.6536 4.45079H31.219V11.709H29.5795V4.45079H28.3954V2.94436H29.5795V0H31.219V2.94436H32.6536V4.45079Z" fill="white"/>
<path d="M17.4198 4.49643C17.6248 4.42796 17.8297 4.40513 18.0346 4.40513H18.0119V2.69329C17.5337 2.71612 17.1238 2.80742 16.7367 2.96719C16.3496 3.12696 16.0308 3.40086 15.7803 3.74322H15.7575V2.94436H14.2319V11.709H15.8714V6.91583C15.8714 6.43652 15.9397 6.00285 16.0991 5.59201C16.2585 5.18117 16.509 4.90727 16.8505 4.72468C17.0099 4.63338 17.1921 4.5649 17.4198 4.49643Z" fill="white"/>
<path fill-rule="evenodd" clip-rule="evenodd" d="M27.6896 8.03407L20.4484 8.03423C20.5622 8.4679 20.7444 8.87875 21.0176 9.24394C21.2909 9.60913 21.6325 9.90585 22.0196 10.1113C22.4294 10.3167 22.8621 10.4308 23.3175 10.4308C23.8412 10.4308 24.3194 10.2939 24.7749 10.02C25.2303 9.74608 25.5718 9.40371 25.7995 8.94722H27.4391C27.0975 9.8602 26.551 10.5678 25.7995 11.1155C25.0481 11.6633 24.1828 11.9144 23.2492 11.9144C22.6572 11.9144 22.0651 11.8003 21.5186 11.5492C20.9721 11.2981 20.4939 10.9558 20.084 10.5221C19.6741 10.0884 19.3554 9.58631 19.1276 9.03852C18.8999 8.49073 18.7861 7.89729 18.7861 7.30385C18.7861 6.68759 18.8999 6.09415 19.1276 5.54636C19.3554 4.97575 19.6741 4.47361 20.084 4.06277C20.4939 3.6291 20.9721 3.30956 21.5186 3.05849C22.0651 2.83024 22.6572 2.71612 23.272 2.71612C23.8868 2.71612 24.4788 2.83024 25.0026 3.05849C25.5491 3.28673 26.0273 3.6291 26.4144 4.03994C26.8242 4.45078 27.143 4.9301 27.3707 5.50072C27.6212 6.0485 27.7351 6.61912 27.7351 7.21256C27.7351 7.48631 27.7123 7.76032 27.6896 8.03407ZM26.0956 6.77888C26.0728 6.29957 25.9134 5.88873 25.6402 5.47789C25.3669 5.08987 25.0253 4.77033 24.5927 4.54208C24.16 4.31384 23.7274 4.19971 23.2492 4.19971C22.771 4.19971 22.3384 4.31384 21.9057 4.54208C21.4731 4.77033 21.1315 5.08987 20.8582 5.47789C20.585 5.86591 20.4484 6.29957 20.4028 6.77888H26.0956Z" fill="white"/>
<path fill-rule="evenodd" clip-rule="evenodd" d="M40.9423 11.709H42.559V2.94436H40.9195V4.19971H40.8967C40.669 3.88017 40.4185 3.60627 40.0997 3.37803C39.7809 3.14978 39.4394 2.99002 39.0523 2.87589C38.6652 2.76177 38.3008 2.71612 37.9137 2.71612C37.2761 2.71612 36.6613 2.83024 36.092 3.05849C35.5228 3.28673 35.0218 3.6291 34.6119 4.03994C34.202 4.47361 33.8605 4.95292 33.6328 5.52353C33.4051 6.09415 33.2912 6.71041 33.2912 7.37232C33.2912 8.01141 33.4278 8.60485 33.6555 9.17546C33.8833 9.74607 34.202 10.2254 34.6347 10.6362C35.0446 11.0471 35.5455 11.3666 36.1148 11.5949C36.6841 11.8231 37.2989 11.9372 37.9365 11.9372C38.5741 11.9372 39.1434 11.8003 39.6671 11.5264C40.1908 11.2525 40.6235 10.8645 40.9195 10.3395H40.9423V11.709ZM40.7829 6.11697C40.9195 6.50499 40.9878 6.91583 40.9878 7.3495C40.9878 7.89729 40.8512 8.42226 40.5779 8.9244C40.3047 9.38089 39.9403 9.7689 39.4622 10.0428C39.0067 10.3167 38.483 10.4536 37.9365 10.4536C37.39 10.4536 36.889 10.3167 36.4336 10.0428C35.9782 9.7689 35.6139 9.38089 35.3406 8.90157C35.0901 8.42226 34.9535 7.89729 34.9535 7.37232C34.9535 6.80171 35.0901 6.27675 35.3406 5.79743C35.5911 5.31812 35.9554 4.9301 36.4108 4.6562C36.8663 4.35949 37.39 4.22254 37.9593 4.22254C38.4147 4.22254 38.8246 4.29101 39.1889 4.45079C39.576 4.61056 39.8948 4.81598 40.1681 5.1127C40.4413 5.40941 40.6462 5.72896 40.7829 6.11697Z" fill="white"/>
<path d="M44.6995 1.94009H46.339V0H44.6995V1.94009Z" fill="white"/>
<path d="M46.339 11.709H44.6995V2.94436H46.339V11.709Z" fill="white"/>
<path d="M50.0962 0H48.4567V11.7318H50.0962V0Z" fill="white"/>
<path d="M9.22226 12.9415H5.87492V28.0742H3.34734V12.9415H0V10.5906H9.22226V12.9415Z" fill="white"/>
<path d="M37.3217 28.0742H35.0446V26.659H34.999C34.6575 27.2297 34.1337 27.6633 33.4278 27.96C32.6992 28.2568 31.9477 28.3937 31.1735 28.3937C29.6934 28.3937 28.4638 27.96 27.4618 27.0927C26.8015 26.4993 26.3461 25.7917 26.0956 24.9472C25.8451 24.1027 25.7312 23.1441 25.7312 22.0713V14.9729H28.1905V22.0713C28.1905 22.893 28.2816 23.6006 28.4865 24.2168C28.6915 24.8103 29.0103 25.2896 29.5112 25.6319C29.9894 25.9743 30.6498 26.1569 31.4468 26.1569C32.6309 26.1569 33.4962 25.7689 34.0427 24.9928C34.5892 24.2168 34.8624 23.2354 34.8624 22.0028V14.9729H37.3217V28.0742Z" fill="white"/>
<path d="M52.8971 23.7603C52.5783 24.6961 52.1001 25.5178 51.4625 26.2254C50.8477 26.9101 50.0962 27.4579 49.2082 27.8459C48.3429 28.2339 47.4092 28.4165 46.4529 28.4165C45.5192 28.4165 44.6312 28.2339 43.8114 27.8916C42.9917 27.5492 42.2858 27.0471 41.671 26.408C41.0789 25.7689 40.6007 25.0385 40.2592 24.194C39.9176 23.3495 39.7582 22.4593 39.7582 21.5235C39.7582 20.5877 39.9176 19.6976 40.2592 18.8531C40.6007 18.0085 41.0561 17.2782 41.671 16.6391C42.263 16.0228 42.9917 15.5207 43.8114 15.1783C44.6312 14.8131 45.5192 14.6533 46.4756 14.6533C47.1815 14.6533 47.8647 14.7675 48.5478 14.9957C49.2309 15.2239 49.8685 15.5435 50.4606 15.9543C51.0526 16.3652 51.5536 16.8673 51.9634 17.4379C52.3733 18.0085 52.6921 18.6476 52.8743 19.3552H50.1645C49.8002 18.5563 49.2992 17.9629 48.6844 17.5292C48.0696 17.1184 47.3409 16.8901 46.4756 16.8901C45.6103 16.8901 44.8589 17.0956 44.1985 17.5064C43.5382 17.9172 43.0372 18.465 42.6956 19.1726C42.3541 19.8802 42.1719 20.6562 42.1719 21.5235C42.1719 22.117 42.263 22.7104 42.4679 23.281C42.6729 23.8516 42.9461 24.3538 43.3105 24.7874C43.6748 25.2211 44.1302 25.5635 44.654 25.7917C45.1777 26.0428 45.7697 26.1569 46.3845 26.1569C47.2043 26.1569 47.9557 25.9515 48.5933 25.5178C49.2537 25.0841 49.7319 24.5135 50.0734 23.7375H52.8971V23.7603Z" fill="white"/>
<path d="M66.8101 28.0742H64.3509V20.9757C64.3509 19.7204 64.1004 18.7161 63.6222 17.9857C63.144 17.2553 62.3015 16.8901 61.0946 16.8901C59.9561 16.8901 59.0908 17.2782 58.5215 18.0542C57.9522 18.8302 57.6562 19.7889 57.6562 20.9757V28.097H55.1969V10.6134H57.6562V16.4108H57.7017C58.476 15.2468 59.7056 14.6762 61.3679 14.6762C62.0055 14.6762 62.5975 14.7675 63.1668 14.9272C63.7361 15.087 64.2826 15.3609 64.7608 15.7033C65.2389 16.0456 65.6488 16.4793 65.9904 17.0043C66.5369 17.8716 66.8101 18.99 66.8101 20.3595V28.0742Z" fill="white"/>
<path fill-rule="evenodd" clip-rule="evenodd" d="M81.0193 15.8859C81.0193 17.0956 80.746 18.077 80.2223 18.8759C79.6758 19.6747 78.9471 20.2453 78.0362 20.6334C77.1254 20.9986 76.0552 21.1811 74.8711 21.1811H72.3663V28.0742H69.8159V10.5906H74.8483C76.67 10.5906 78.1501 11.0242 79.2886 11.9144C80.4727 12.8045 81.0193 14.1284 81.0193 15.8859ZM78.4917 15.8859C78.4917 15.2011 78.3323 14.6305 78.0135 14.1968C77.6947 13.7632 77.262 13.4436 76.7155 13.2382C76.169 13.0328 75.5542 12.9415 74.8939 12.9415H72.389V18.8531H74.8939C75.9641 18.8531 76.8294 18.6248 77.4897 18.1455C78.1501 17.6433 78.4917 16.913 78.4917 15.8859Z" fill="white"/>
<path d="M103.767 13.4665H101.308V10.5906H103.767V13.4665Z" fill="white"/>
<path d="M101.308 28.0742H103.767V14.9957H101.308V28.0742Z" fill="white"/>
<path d="M116.041 28.0742H118.478V20.3595C118.478 18.99 118.204 17.8716 117.658 17.0043C117.316 16.4793 116.906 16.0456 116.428 15.7033C115.95 15.3609 115.403 15.087 114.834 14.9272C114.265 14.7675 113.673 14.6762 113.035 14.6762C112.261 14.6762 111.555 14.8131 110.895 15.087C110.257 15.3609 109.688 15.7946 109.233 16.4108H109.187V15.0185H106.887V28.097H109.346V20.9757C109.346 19.7889 109.642 18.8302 110.212 18.0542C110.781 17.2782 111.646 16.8901 112.785 16.8901C113.992 16.8901 114.834 17.2553 115.312 17.9857C115.791 18.7161 116.041 19.7204 116.041 20.9757V28.0742Z" fill="white"/>
<path d="M124.375 17.2325H126.516V14.9957H124.375V10.5906H121.916V14.9957H120.14V17.2325H121.916V28.0742H124.375V17.2325Z" fill="white"/>
<path d="M134.827 27.2525C135.647 26.4993 136.057 25.4722 136.057 24.2168C136.057 23.0756 135.692 22.1626 135.055 21.4322C134.349 20.7703 133.393 20.2682 132.163 19.903C131.708 19.766 131.343 19.6519 131.093 19.5378C130.819 19.4237 130.615 19.2639 130.41 19.0585C130.205 18.853 130.114 18.5563 130.114 18.214C130.114 17.8031 130.25 17.4608 130.546 17.2097C130.842 16.9586 131.207 16.8217 131.639 16.8217C132.117 16.8217 132.504 16.9814 132.801 17.2553C133.097 17.5521 133.256 17.9401 133.324 18.4194H135.784C135.784 17.8488 135.67 17.3466 135.465 16.8673C135.26 16.388 134.964 16 134.599 15.6576C134.235 15.3381 133.802 15.0642 133.324 14.8816C132.846 14.699 132.345 14.6077 131.776 14.6077C131.093 14.6077 130.41 14.7675 129.772 15.087C129.134 15.4065 128.633 15.863 128.246 16.4336C127.859 17.0043 127.677 17.6433 127.677 18.3737C127.677 19.4237 127.928 20.1997 128.451 20.7247C128.975 21.2496 129.749 21.7289 130.797 22.117C131.844 22.505 132.573 22.8245 133.005 23.0756C133.438 23.3038 133.643 23.7375 133.643 24.3309C133.643 24.6961 133.552 25.0157 133.393 25.2896C133.233 25.5863 133.005 25.7917 132.732 25.9287C132.436 26.0656 132.117 26.1341 131.753 26.1341C131.07 26.1341 130.546 25.9058 130.182 25.4722C129.795 25.0385 129.59 24.4679 129.544 23.7375H127.085C127.085 24.7874 127.335 25.6776 127.836 26.4308C128.337 27.184 129.066 27.7318 130.022 28.0742C130.615 28.2796 131.184 28.3937 131.685 28.3937C132.96 28.3937 134.007 28.0285 134.827 27.2525Z" fill="white"/>
<path d="M16.213 26.1569H16.5318L17.0555 28.3481C16.7822 28.3709 16.4862 28.3937 16.213 28.3937C14.9606 28.3937 13.7765 28.0742 12.7062 27.4579C11.636 26.8416 10.7707 25.9971 10.1331 24.9244C9.49552 23.8516 9.17673 22.6876 9.17673 21.4322C9.17673 20.4964 9.3589 19.6063 9.72323 18.7617C10.0876 17.9172 10.6113 17.1869 11.2717 16.5706C11.9548 15.9543 12.7062 15.475 13.5488 15.1326C14.3913 14.7903 15.2794 14.6305 16.213 14.6305C17.1466 14.6305 18.0574 14.8131 18.9227 15.1555C19.788 15.4978 20.5395 16 21.1998 16.6162C21.8602 17.2325 22.3611 17.9629 22.7255 18.7846C23.0898 19.6291 23.272 20.5192 23.272 21.4779C23.272 22.4365 23.0443 23.4636 22.5433 24.4907C22.3384 24.9015 22.1107 25.2667 21.8602 25.6091L19.6058 24.6505C19.8336 24.3994 20.0385 24.1255 20.2207 23.806C20.6305 23.0756 20.8355 22.2996 20.8355 21.4779C20.8355 20.8388 20.6989 20.2225 20.4711 19.6747C20.2434 19.1041 19.9019 18.6248 19.492 18.1911C19.0593 17.7803 18.5812 17.4379 18.0119 17.2097C17.4426 16.9814 16.8506 16.8673 16.213 16.8673C15.3932 16.8673 14.619 17.0727 13.9131 17.4836C13.2072 17.8944 12.6379 18.4422 12.228 19.1726C11.8182 19.903 11.6132 20.679 11.6132 21.5007C11.6132 22.3224 11.8182 23.0984 12.228 23.8288C12.6379 24.5592 13.2072 25.1298 13.9131 25.5406C14.619 25.9515 15.3932 26.1569 16.213 26.1569Z" fill="white"/>
<path d="M21.1087 28.2796L23.4769 31.087L22.4067 32L20.0385 29.1926L18.6722 31.3609L17.0327 24.5364L23.4769 27.2753L21.1087 28.2796Z" fill="white"/>
<path fill-rule="evenodd" clip-rule="evenodd" d="M140.588 17.4836H140.975C140.975 17.4647 140.971 17.4497 140.967 17.4321C140.96 17.4073 140.953 17.3773 140.953 17.3238C140.953 17.3154 140.949 17.304 140.946 17.2896C140.939 17.2645 140.93 17.2303 140.93 17.1869V16.9358C140.907 16.776 140.884 16.6619 140.839 16.5706C140.793 16.4793 140.702 16.4336 140.565 16.388C140.702 16.3652 140.793 16.2967 140.861 16.2054C140.93 16.1141 140.953 16 140.953 15.863C140.953 15.6576 140.884 15.4978 140.748 15.4065C140.611 15.3152 140.429 15.2696 140.201 15.2696H139.245V17.5064H139.632V16.6162H140.087C140.201 16.6162 140.292 16.6391 140.36 16.6619C140.429 16.6847 140.474 16.7304 140.497 16.7988C140.52 16.8673 140.543 16.9586 140.543 17.0727V17.301C140.543 17.3041 140.543 17.3076 140.544 17.3114C140.545 17.3153 140.546 17.3196 140.547 17.324C140.548 17.3277 140.549 17.3316 140.55 17.3355C140.552 17.3391 140.553 17.3428 140.554 17.3464C140.56 17.3635 140.565 17.3809 140.565 17.3923C140.565 17.4379 140.565 17.4608 140.588 17.4836ZM140.543 15.7946C140.565 15.8402 140.565 15.863 140.565 15.8859C140.565 16.0228 140.543 16.1141 140.452 16.1597C140.36 16.2054 140.247 16.2282 140.11 16.2282H139.632V15.612H140.133C140.36 15.612 140.497 15.6804 140.543 15.7946Z" fill="white"/>
<path fill-rule="evenodd" clip-rule="evenodd" d="M142 16.3652C142 16.6162 141.954 16.8673 141.841 17.1184C141.75 17.3466 141.613 17.552 141.431 17.7346C141.249 17.9172 141.044 18.0542 140.816 18.1455C140.588 18.2368 140.338 18.3053 140.064 18.3053C139.814 18.3053 139.563 18.2596 139.313 18.1455C139.085 18.0542 138.88 17.9172 138.698 17.7346C138.516 17.552 138.379 17.3466 138.288 17.1184C138.197 16.8901 138.129 16.6391 138.129 16.3652C138.129 16.0913 138.174 15.8402 138.288 15.612C138.379 15.3837 138.539 15.1783 138.698 14.9957C138.88 14.8131 139.085 14.6762 139.313 14.5849C139.541 14.4936 139.791 14.4479 140.064 14.4479C140.338 14.4479 140.565 14.4936 140.816 14.5849C141.044 14.6762 141.249 14.8131 141.431 14.9957C141.613 15.1783 141.75 15.3837 141.841 15.612C141.954 15.8402 142 16.0913 142 16.3652ZM141.59 16.3652C141.59 16.1597 141.545 15.9543 141.476 15.7717C141.408 15.5891 141.294 15.4065 141.157 15.2696C141.021 15.1326 140.861 15.0185 140.679 14.9272C140.497 14.8359 140.292 14.8131 140.087 14.8131C139.882 14.8131 139.677 14.8588 139.495 14.9272C139.313 15.0185 139.154 15.1098 139.017 15.2696C138.88 15.4065 138.767 15.5663 138.698 15.7717C138.63 15.9543 138.584 16.1597 138.584 16.3652C138.584 16.6391 138.653 16.913 138.789 17.1412C138.926 17.3695 139.108 17.5749 139.336 17.7118C139.564 17.8488 139.814 17.9172 140.11 17.9172C140.383 17.9172 140.634 17.8488 140.884 17.7118C141.112 17.5749 141.294 17.3923 141.431 17.1412C141.522 16.8901 141.59 16.6391 141.59 16.3652Z" fill="white"/>
<path d="M88.602 18.9674L88.7386 20.063H87.1674L86.803 18.9674H88.602Z" fill="white"/>
<path d="M89.5128 21.7291L89.3762 20.6335H91.2434L91.084 21.7291H89.5128Z" fill="white"/>
<path d="M93.4295 20.063H91.8583L91.9949 18.9674H93.7938L93.4295 20.063Z" fill="white"/>
<path d="M87.3496 20.6335H88.8069L88.9436 21.7291H87.7367L87.3496 20.6335Z" fill="white"/>
<path d="M89.3079 20.0858L89.1485 18.9674H91.4483L91.3117 20.0858H89.3079Z" fill="white"/>
<path d="M92.5186 23.8974C92.2909 23.8974 92.1087 24.08 92.1087 24.3082C92.1087 24.5365 92.2909 24.7191 92.5186 24.7191C92.7463 24.7191 92.9285 24.5365 92.9285 24.3082C92.9285 24.08 92.7463 23.8974 92.5186 23.8974Z" fill="white"/>
<path d="M87.6684 24.3312C87.6684 24.5594 87.8505 24.742 88.0782 24.742C88.306 24.742 88.4881 24.5594 88.4881 24.3312C88.4881 24.1029 88.306 23.9203 88.0782 23.9203C87.8505 23.8975 87.6684 24.1029 87.6684 24.3312Z" fill="white"/>
<path d="M91.7899 20.6335L91.6533 21.7291H92.8829L93.2473 20.6335H91.7899Z" fill="white"/>
<path fill-rule="evenodd" clip-rule="evenodd" d="M90.6286 11.8232C85.9378 11.8232 82.1123 15.6578 82.1123 20.3596C82.1123 25.0615 85.9378 28.896 90.6286 28.896C95.3194 28.896 99.145 25.0615 99.145 20.3596C99.145 15.6578 95.3194 11.8232 90.6286 11.8232ZM95.8432 17.3239H94.9323L92.8829 23.4637C93.2473 23.6007 93.4977 23.9431 93.4977 24.3539C93.4977 24.9017 93.0651 25.3125 92.5186 25.3125C91.9721 25.3125 91.5394 24.8789 91.5394 24.3539C91.5394 24.2461 91.5602 24.1799 91.5876 24.0921L91.588 24.091C91.6011 24.0491 91.6159 24.0016 91.6305 23.9431H88.9435C89.0118 24.1256 89.0346 24.1941 89.0346 24.3539C89.0346 24.9017 88.602 25.3125 88.0555 25.3125C87.509 25.3125 87.0763 24.8789 87.0763 24.3311C87.0763 23.8061 87.4862 23.3953 87.9872 23.3724H92.2681L92.6324 22.2769H87.4634C87.3496 22.2769 87.2357 22.1856 87.1902 22.0714L86.0744 18.7162C86.0516 18.6249 86.0516 18.5793 86.1199 18.488C86.1655 18.4195 86.2566 18.3967 86.3476 18.3967H93.9076L94.4086 16.9359C94.4541 16.8218 94.5452 16.7533 94.6818 16.7533H95.7976C95.957 16.7533 96.0709 16.8674 96.0709 17.0272C96.1164 17.2098 96.0026 17.3239 95.8432 17.3239Z" fill="white"/>
</g>
<defs>
<clipPath id="clip0_4126_7802">
<rect width="142" height="32" fill="white"/>
</clipPath>
</defs>
</svg>
