<svg width="96" height="32" viewBox="0 0 96 32" fill="none" xmlns="http://www.w3.org/2000/svg">
<g clip-path="url(#clip0_3758_19534)">
<path fill-rule="evenodd" clip-rule="evenodd" d="M13.2514 0.0725207C10.3517 0.429593 7.16031 1.92281 4.43875 4.22754C3.88795 4.682 2.73777 5.80191 2.73777 5.86683C2.73777 5.89929 3.28856 6.48359 3.96895 7.16527L5.20014 8.41503L4.68174 8.99933C2.77017 11.158 1.47418 13.3491 0.696591 15.6701C0.210597 17.1308 0 18.3319 0 19.679C0 20.8963 0.161997 21.8864 0.534593 22.844L0.680391 23.2335L4.29295 26.8529C7.30611 29.8718 7.9865 30.521 8.3591 30.7645C9.13669 31.2839 10.0439 31.641 11.0483 31.852C11.7125 31.998 13.2514 32.0467 13.9804 31.9493C16.864 31.5923 19.8448 30.2289 22.4529 28.054C23.1333 27.4859 24.2835 26.3985 24.2835 26.3336C24.2835 26.3011 23.7165 25.7168 23.0361 25.0189L21.7887 23.7529L22.1775 23.3471C23.1333 22.3408 24.2997 20.734 24.9801 19.468C25.9521 17.6989 26.5839 15.7837 26.7945 14.0308C26.8755 13.268 26.8269 11.6449 26.6973 11.0281C26.4705 9.98939 26.1141 9.1454 25.5795 8.33388C25.3041 7.91188 24.7533 7.34381 21.7077 4.27624L18.1438 0.705514L17.7712 0.559437C17.269 0.34844 16.2322 0.104982 15.6004 0.0400601C14.9686 -0.0248621 13.9804 -0.00863205 13.2514 0.0725207ZM16.3132 1.03013C16.5724 1.09505 16.9936 1.19243 17.2204 1.27358C17.6416 1.41966 17.6578 1.41966 18.322 2.08511C18.9052 2.66941 18.9862 2.75056 18.8404 2.73433C18.0628 2.58826 16.8154 2.5558 15.8434 2.68564C12.733 3.07517 9.52548 4.64954 6.57712 7.24643C6.28552 7.50611 6.02633 7.73334 5.97773 7.76581C5.92913 7.79827 5.66993 7.58727 4.90854 6.82443L3.90415 5.81814L4.55214 5.25007C7.25751 2.88041 10.2383 1.3872 13.1542 0.965201C13.9318 0.851587 15.6652 0.900281 16.3132 1.03013ZM20.5575 6.19144C21.9831 6.40244 23.2305 7.0192 24.1539 7.94434C25.0611 8.85325 25.6443 10.0219 25.9197 11.4826C26.0331 12.1318 26.0331 13.5926 25.9197 14.3554C25.5471 16.7088 24.4617 19.1272 22.7769 21.3346C22.3881 21.8539 21.4647 22.9414 21.3189 23.055C21.2379 23.1199 21.1407 23.0388 20.2983 22.1948C19.78 21.6754 19.3588 21.2372 19.3588 21.2209C19.3588 21.2047 19.5046 21.0262 19.6828 20.8314C22.6149 17.5853 23.9919 13.5277 23.0199 11.0119C22.6311 10.0381 21.8211 9.30771 20.7681 8.9831C20.2336 8.82079 19.294 8.73964 18.5974 8.82079C17.5282 8.91818 16.216 9.34017 14.9524 9.95693C13.6888 10.5737 12.5386 11.3528 11.4209 12.3591L10.9187 12.7973L9.96288 11.8397L9.00709 10.8821L9.41208 10.5088C11.8907 8.1878 15.1792 6.53228 17.998 6.15898C18.565 6.11029 20.023 6.11029 20.5575 6.19144ZM7.16031 11.791C6.80392 12.1967 6.35032 12.7648 6.12352 13.057C3.43436 16.6439 2.20317 20.5393 2.70537 23.899L2.73777 24.11L2.07357 23.4608C1.44178 22.844 1.40938 22.7953 1.27978 22.4058C0.0162 18.7701 1.60378 13.7549 5.34593 9.55117L5.78333 9.06425L6.78772 10.0705L7.7921 11.0768L7.16031 11.791ZM19.8124 9.71347L19.942 9.74593L19.9096 10.4276C19.8772 11.2391 19.7638 11.9046 19.6018 12.4727C19.0834 14.1769 18.1276 15.8811 16.7344 17.4879L16.1998 18.1047L15.1792 17.0821L14.1586 16.0596L14.6284 15.5402C15.6328 14.4366 16.5562 13.1544 17.1232 12.0669C17.431 11.4826 17.836 10.4925 17.9494 10.0381C18.0142 9.76216 18.0142 9.76217 18.2572 9.7297C18.3868 9.71347 18.5326 9.69724 18.5812 9.68101C18.7108 9.68101 19.699 9.68101 19.8124 9.71347ZM16.9126 10.4276C16.6858 11.0606 16.1836 12.0344 15.6976 12.7648C15.163 13.5763 14.7904 14.0633 14.0452 14.9073L13.5268 15.5078L12.5062 14.4853L11.4857 13.4627L11.8259 13.1543C12.8788 12.213 14.11 11.369 15.244 10.7847C15.8596 10.4763 16.864 10.0705 17.0098 10.0543C17.026 10.0543 16.9936 10.2166 16.9126 10.4276ZM32.432 11.0444C32.3834 11.0931 32.3672 12.4402 32.3672 17.3743C32.3672 23.3796 32.3672 23.6393 32.4644 23.7204C32.5454 23.8016 32.8046 23.8016 34.9916 23.8016C36.3199 23.8016 37.7617 23.7691 38.1829 23.7529C39.8839 23.6393 41.1961 23.0874 42.2005 22.0812C42.9943 21.2859 43.4965 20.1822 43.7557 18.7214C43.8691 18.0073 43.8691 16.5141 43.7557 15.8162C43.3345 13.4627 41.9899 11.9371 39.8353 11.3203C38.7823 11.0281 38.7013 11.0119 35.4938 10.9957C33.1124 10.9957 32.4806 10.9957 32.432 11.0444ZM91.4155 11.2554C91.3669 11.3041 91.3507 11.7098 91.3507 12.7486V14.1769H90.7351C90.3301 14.1769 90.1033 14.1931 90.0547 14.2418C89.9737 14.3229 89.9737 16.0109 90.0547 16.1083C90.1033 16.157 90.3301 16.1732 90.7351 16.1732H91.3507L91.3669 19.0623C91.3831 21.8864 91.3831 21.9675 91.4965 22.2922C91.8043 23.1848 92.436 23.6718 93.4566 23.8016C94.1532 23.8827 95.1414 23.8503 95.8218 23.7204L95.9676 23.688L95.9514 22.5032L95.9352 21.3183L95.2872 21.2859C94.5906 21.2534 94.4772 21.2209 94.3962 21.0749C94.3638 21.0099 94.3476 20.0361 94.3476 18.5916V16.2057L95.1738 16.1895L96 16.1732V15.1832V14.1931L95.1738 14.1769L94.3476 14.1606V12.7648C94.3476 11.9046 94.3314 11.3365 94.299 11.2716C94.2504 11.1742 94.1694 11.1742 92.8734 11.1742C91.8529 11.2067 91.4641 11.2229 91.4155 11.2554ZM38.3935 13.9983C39.3817 14.258 40.0297 14.9559 40.2889 15.9785C40.4833 16.7575 40.4833 18.056 40.2727 18.8675C40.0621 19.6628 39.5761 20.2958 38.9281 20.6042C38.3611 20.8801 38.0209 20.9288 36.8545 20.9612L35.8016 20.9937V17.423V13.8523L36.9355 13.8847C37.7617 13.901 38.1667 13.9334 38.3935 13.9983ZM48.2916 14.0633C46.6716 14.3554 45.4242 15.4266 44.8734 16.9848C44.1445 19.0298 44.5009 21.367 45.732 22.6817C46.38 23.3634 46.9956 23.7204 47.9352 23.9639C49.7334 24.4184 51.6612 23.9477 52.9409 22.7466C53.2487 22.4707 54.0425 21.4644 54.0425 21.367C54.0425 21.2534 53.8157 21.1073 52.8923 20.6366C52.3254 20.3445 51.8556 20.101 51.8394 20.101C51.8232 20.101 51.726 20.2471 51.6288 20.4256C51.402 20.8639 50.9322 21.3508 50.592 21.5293C49.5714 22.0325 48.3726 21.7403 47.8542 20.8639C47.7084 20.6042 47.5626 20.1497 47.5626 19.9063V19.7277H50.8026C53.2487 19.7277 54.0425 19.7115 54.0911 19.6628C54.1721 19.5816 54.1721 18.9324 54.0749 18.2832C53.8157 16.5465 53.0867 15.2968 51.9204 14.5989C51.5316 14.3716 50.7864 14.112 50.3004 14.0308C49.8144 13.9496 48.7776 13.9659 48.2916 14.0633ZM58.9349 13.9983C58.4813 14.0633 58.1087 14.1444 57.8171 14.2418C56.1809 14.7612 55.0955 16.1083 54.7553 18.0235C54.6257 18.7539 54.6743 19.9225 54.8525 20.6204C55.0955 21.5618 55.4519 22.1785 56.0999 22.7953C56.6669 23.3309 57.3311 23.7042 58.2221 23.9477C58.4813 24.0288 58.7405 24.0451 59.4047 24.0451C60.1661 24.0451 60.2795 24.0288 60.7006 23.899C61.543 23.6393 62.191 23.2498 62.7742 22.633C63.163 22.2272 63.6004 21.6267 63.6004 21.4969C63.6004 21.4482 63.5194 21.367 63.4384 21.3021C63.0982 21.0911 61.5268 20.312 61.4458 20.312C61.3972 20.312 61.3162 20.4256 61.2352 20.5879C61.0408 21.0099 60.7816 21.2859 60.3767 21.4806C60.0689 21.6267 59.9717 21.6592 59.6315 21.6429C59.1779 21.6429 58.8863 21.5293 58.5137 21.2047C57.5417 20.3445 57.4769 17.9586 58.4003 16.8711C58.9835 16.1895 60.0689 16.1895 60.7654 16.8549C60.8788 16.9685 61.0408 17.1795 61.1218 17.3256C61.2028 17.4717 61.3 17.6015 61.3486 17.6015C61.462 17.634 63.4546 16.4816 63.487 16.368C63.5032 16.2706 63.2926 15.946 62.9848 15.5565C62.4826 14.9397 61.4944 14.3392 60.6359 14.1444C60.1985 14.0308 59.2589 13.9659 58.9349 13.9983ZM84.9193 14.112C84.3847 14.2093 83.8988 14.4041 83.51 14.6963L83.2022 14.9235L83.186 14.5989L83.1698 14.2743L81.9224 14.258C80.8208 14.2418 80.6588 14.258 80.5778 14.3392C80.4806 14.4203 80.4806 14.6638 80.4806 20.6691C80.4806 25.4571 80.4968 26.9179 80.5454 26.9666C80.6426 27.0639 83.3642 27.0639 83.4452 26.9666C83.4938 26.9179 83.51 26.4309 83.51 25.1163V23.3309L84.0122 23.5906C84.6925 23.9314 85.1137 24.0126 85.9075 23.9801C86.8309 23.9314 87.3817 23.7529 87.9811 23.2984C88.8235 22.6655 89.3743 21.6916 89.6821 20.3445C89.8441 19.6303 89.8441 18.3806 89.6821 17.6178C89.4715 16.6115 89.1313 15.9298 88.5157 15.2806C87.6085 14.2743 86.2801 13.8685 84.9193 14.112ZM11.8583 15.0696C12.733 15.946 12.7816 16.0109 12.7168 16.1083C12.6682 16.157 12.4576 16.4005 12.2308 16.6601C11.3237 17.6989 10.4813 18.9649 9.91428 20.1335C9.50928 20.9612 9.26629 21.6429 9.02329 22.5681C8.71549 23.7854 8.71549 25.1325 9.05569 26.0739C9.68748 27.8592 11.3561 28.7032 13.6888 28.4273C15.9406 28.1514 18.5326 26.8529 20.7519 24.889L21.2217 24.467L22.1775 25.4247L23.1333 26.3823L22.7283 26.7556C20.6547 28.687 17.8846 30.2614 15.487 30.8457C14.515 31.0891 13.8346 31.1703 12.9112 31.1703C11.6801 31.1703 10.7729 31.008 9.81708 30.586C8.58589 30.0504 7.45191 28.9954 6.86871 27.8268C6.13972 26.3823 5.92913 24.5969 6.25312 22.6655C6.70672 19.9712 8.2133 17.0821 10.4327 14.5989C10.6595 14.3392 10.8701 14.1282 10.8863 14.1282C10.9025 14.1282 11.3399 14.5502 11.8583 15.0696ZM69.4971 14.1931C68.8653 14.2905 68.0716 14.5826 67.5532 14.9235L67.3912 15.0371V14.6963C67.3912 14.5015 67.3588 14.3392 67.3264 14.2905C67.2778 14.2418 66.9052 14.2256 65.9494 14.2256C64.7506 14.2256 64.621 14.2256 64.5562 14.3229C64.4752 14.4041 64.4752 14.8099 64.4752 19.0298C64.4752 23.4283 64.4752 23.6393 64.5724 23.7204C64.6534 23.8016 64.8316 23.8016 65.998 23.8016C67.0348 23.8016 67.3426 23.7854 67.3912 23.7367C67.4236 23.688 67.456 22.7304 67.456 20.7665C67.4722 18.0397 67.4722 17.845 67.5694 17.6664C67.7638 17.2769 68.104 17.1146 69.0921 16.9523C69.4647 16.8874 69.8373 16.8225 69.9183 16.8062L70.0641 16.7738V15.5078C70.0641 14.2418 70.0479 14.0957 69.8859 14.1282C69.8211 14.1444 69.6591 14.1606 69.4971 14.1931ZM70.8255 14.3067C70.7931 14.3554 70.7769 14.4366 70.7931 14.5177C70.8093 14.5826 71.2467 16.0109 71.7651 17.6664C73.8387 24.3534 73.7253 23.9639 73.5795 24.2236C73.4499 24.4833 73.2231 24.532 72.4131 24.532C71.9109 24.532 71.6517 24.5482 71.6193 24.5969C71.5707 24.6456 71.5545 24.9702 71.5545 25.7655C71.5545 26.5608 71.5707 26.8854 71.6193 26.9341C71.7003 27.0152 73.7577 27.0152 74.2923 26.9503C75.1833 26.8205 75.9123 26.1875 76.3334 25.1812C76.4306 24.9702 77.2568 22.4545 78.1802 19.5979C79.5896 15.2806 79.865 14.3879 79.8002 14.3229C79.7516 14.258 79.5086 14.2418 78.2288 14.2418H76.7222L76.6737 14.469C76.6413 14.5989 76.3335 15.946 75.9771 17.4879C75.6207 19.0298 75.3291 20.312 75.2967 20.3283C75.2805 20.3445 74.9403 18.9811 74.5677 17.3094L73.8711 14.2418H72.3645C71.1171 14.2418 70.8741 14.2418 70.8255 14.3067ZM50.1384 16.3355C50.6244 16.5628 50.9484 17.001 51.0456 17.5366L51.078 17.7314H49.3446H47.6112L47.6436 17.5691C47.7084 17.2769 47.9838 16.8062 48.2106 16.6115C48.5994 16.2706 48.9396 16.157 49.4742 16.1895C49.7334 16.2057 49.9278 16.2544 50.1384 16.3355ZM85.8913 16.4167C86.3449 16.6601 86.6851 17.1633 86.8471 17.845C86.9605 18.3481 86.9605 19.5492 86.8309 20.0523C86.7175 20.4906 86.4907 20.945 86.2477 21.2534C85.8589 21.7241 85.0975 21.8539 84.482 21.5455C83.7692 21.1885 83.429 20.3932 83.429 19.0623C83.429 17.8288 83.753 16.9523 84.3523 16.5141C84.8221 16.1895 85.3891 16.157 85.8913 16.4167ZM15.0334 19.046C13.705 20.2958 12.0041 21.4157 10.5947 21.9838C10.3031 22.0974 10.0439 22.1948 10.0277 22.1948C10.0115 22.1948 10.0763 22.0162 10.1573 21.789C10.7729 20.0848 11.8421 18.3481 13.1218 16.9685L13.4296 16.6439L14.4502 17.6502L15.4708 18.6565L15.0334 19.046ZM17.0746 20.312L18.0628 21.3021L17.755 21.5942C16.135 23.1199 13.6402 24.4995 11.8745 24.8728C11.4371 24.9702 10.4651 25.0676 9.99528 25.0676H9.68748V24.321C9.68748 23.9152 9.70368 23.477 9.71988 23.3796L9.75228 23.1848L10.3841 22.9738C11.9879 22.4545 14.029 21.1722 15.5356 19.744C15.7786 19.5167 16.0054 19.322 16.0378 19.322C16.0702 19.322 16.54 19.7602 17.0746 20.312Z" fill="white"/>
</g>
<defs>
<clipPath id="clip0_3758_19534">
<rect width="96" height="32" fill="white"/>
</clipPath>
</defs>
</svg>
