<svg width="142" height="32" viewBox="0 0 142 32" fill="none" xmlns="http://www.w3.org/2000/svg">
<path d="M131.497 13.8928H128.524C128.546 17.5622 131.094 19.5089 135.341 19.5089C139.319 19.5089 141.777 17.7634 141.777 14.6088C141.777 12.0804 140.258 10.6261 136.503 9.8878L135.118 9.61925C132.749 9.127 132.011 8.54534 132.011 7.26995C132.011 6.06179 132.95 5.30104 134.872 5.30104C137.397 5.30104 138.269 6.26331 138.381 7.96368H141.308C141.197 4.96549 139.296 2.8623 134.827 2.8623C131.005 2.8623 128.926 4.71938 128.926 7.35962C128.926 10.246 130.96 11.6106 134.044 12.1925L135.386 12.461C137.822 12.9533 138.649 13.5125 138.649 14.7655C138.649 16.2646 137.509 17.07 135.431 17.07C133.218 17.07 131.541 16.3989 131.497 13.8928Z" fill="white"/>
<path fill-rule="evenodd" clip-rule="evenodd" d="M41.3885 19.1504C46.574 19.1504 49.3677 16.0409 49.3677 11.1855C49.3677 6.33027 46.574 3.22021 41.3885 3.22021H35.3093V19.1504H41.3885ZM41.344 5.81563C44.4283 5.81563 46.2386 7.65027 46.2386 11.1855C46.2386 14.7206 44.4283 16.5553 41.344 16.5553H38.3266V5.81563H41.344Z" fill="white"/>
<path d="M24.9627 5.92797V9.6867H32.8524V12.2821H24.9627V16.4436H33.6348V19.1511H21.9453V3.2207H33.6796V5.92797H24.9627Z" fill="white"/>
<path d="M6.37543 3.27002V8.67706L1.2514 6.83663L0 10.5571L5.20207 12.3584L1.91622 16.6176L5.08456 19.0016L8.25844 14.7087L11.5493 19.2135L14.7962 16.8242L11.5493 12.3584L16.6739 10.7125L15.5003 6.99238L10.3769 8.67706V3.27002H6.37543Z" fill="white"/>
<path fill-rule="evenodd" clip-rule="evenodd" d="M60.0944 15.6383H53.1211L51.8918 19.1511H48.7852L54.842 3.2207H58.3735L64.5424 19.1511H61.3458L60.0944 15.6383ZM59.178 13.0653L58.5522 11.3425C57.9935 9.88824 57.2336 7.76264 56.5854 5.88313C55.9374 7.76264 55.1772 9.88824 54.641 11.3425L54.0376 13.0653H59.178Z" fill="white"/>
<path d="M79.8507 19.1506L84.2533 3.22021H81.1244L79.4481 9.64159C78.9563 11.6105 78.4424 13.7137 77.9955 15.7275C77.5935 13.7137 77.146 11.6105 76.6542 9.61919L75.0227 3.22021H71.9165L70.2851 9.61919C69.8154 11.6105 69.3464 13.6913 68.9216 15.705C68.559 13.986 68.1153 12.218 67.6873 10.5125L67.6854 10.5051C67.6127 10.2153 67.5404 9.92725 67.4691 9.64159L65.8149 3.22021H62.6638L67.0885 19.1506H70.4634L72.1624 12.5277C72.6315 10.6931 73.0784 8.76879 73.4583 6.88953C73.8368 8.76189 74.3044 10.679 74.7504 12.5075L74.7507 12.5087L74.7553 12.5277L76.4538 19.1506H79.8507Z" fill="white"/>
<path fill-rule="evenodd" clip-rule="evenodd" d="M93.6622 15.6383H86.6888L85.4594 19.1511H82.3532L88.4094 3.2207H91.941L98.1097 19.1511H94.9138L93.6622 15.6383ZM92.7457 13.0653L92.1193 11.3425C91.5611 9.88824 90.8007 7.76264 90.1528 5.88313C89.5049 7.76264 88.7445 9.88824 88.2084 11.3425L87.6048 13.0653H92.7457Z" fill="white"/>
<path fill-rule="evenodd" clip-rule="evenodd" d="M109.038 19.1509H112.144C111.831 18.6811 111.675 17.9876 111.653 17.2936L111.519 14.9219C111.451 13.2663 110.982 12.0804 109.216 11.5211C110.938 10.917 111.876 9.55218 111.876 7.71753C111.876 5.03269 109.931 3.22021 106.266 3.22021H99.0472V19.1506H102.064V12.9084H105.998C107.607 12.9084 108.457 13.4676 108.546 15.5038L108.613 17.249C108.635 18.0319 108.747 18.6811 109.038 19.1509ZM108.77 8.0531C108.77 9.68645 107.719 10.5367 106.088 10.5367H102.064V5.70378H105.976C107.719 5.70378 108.77 6.48695 108.77 8.0531Z" fill="white"/>
<path fill-rule="evenodd" clip-rule="evenodd" d="M127.743 11.1855C127.743 16.0409 124.95 19.1504 119.764 19.1504H113.685V3.22021H119.764C124.95 3.22021 127.743 6.33027 127.743 11.1855ZM124.615 11.1855C124.615 7.65027 122.804 5.81563 119.72 5.81563H116.702V16.5553H119.72C122.804 16.5553 124.615 14.7206 124.615 11.1855Z" fill="white"/>
<path d="M22.9135 25.2808V26.4711H25.4115V27.2928H22.9135V28.6107H25.6592V29.4679H21.9583V24.4238H25.6733V25.2808H22.9135Z" fill="white"/>
<path d="M26.0911 24.4238V27.5693C26.0911 28.8797 26.9331 29.5742 28.1999 29.5742C29.4949 29.5742 30.3088 28.88 30.3088 27.5693V24.4238H29.3533V27.5763C29.3533 28.3699 28.9215 28.7452 28.1999 28.7452C27.478 28.7452 27.0463 28.3699 27.0463 27.5763V24.4238H26.0911Z" fill="white"/>
<path fill-rule="evenodd" clip-rule="evenodd" d="M35.1068 29.4676H34.1231C34.0311 29.3192 33.9958 29.1135 33.9888 28.8657L33.9676 28.3132C33.9392 27.6684 33.6705 27.4915 33.1607 27.4915H31.9153V29.4676H30.9601V24.4238H33.2457C34.4063 24.4238 35.0217 24.9978 35.0217 25.8477C35.0217 26.4287 34.7246 26.8609 34.1797 27.052C34.7388 27.2292 34.8874 27.6045 34.9088 28.1288L34.9512 28.8797C34.9582 29.0993 35.0078 29.3189 35.1068 29.4676ZM33.1891 26.7403C33.7058 26.7403 34.0381 26.4711 34.0381 25.954C34.0381 25.4579 33.7058 25.2102 33.1537 25.2102H31.9153V26.7403H33.1891Z" fill="white"/>
<path fill-rule="evenodd" clip-rule="evenodd" d="M37.874 24.3105C36.3596 24.3105 35.3546 25.3591 35.3546 26.946C35.3546 28.5328 36.3596 29.5812 37.874 29.5814C39.3811 29.5814 40.3862 28.5328 40.3862 26.946C40.3862 25.3591 39.3811 24.3105 37.874 24.3105ZM37.874 25.1535C38.7938 25.1535 39.3953 25.8337 39.3953 26.946C39.3953 28.0579 38.7938 28.7382 37.874 28.7384C36.954 28.7384 36.3525 28.0579 36.3525 26.946C36.3525 25.8335 36.954 25.1535 37.874 25.1535Z" fill="white"/>
<path fill-rule="evenodd" clip-rule="evenodd" d="M44.9012 26.0676C44.9012 27.038 44.2785 27.7041 43.1179 27.7041H41.8583V29.4676H40.9031V24.4238H43.1179C44.2785 24.4241 44.9012 25.0899 44.9012 26.0676ZM43.9387 26.0676C43.9387 25.5433 43.6344 25.2458 43.0755 25.2458H41.8583V26.8824H43.0755C43.6344 26.8824 43.9387 26.5919 43.9387 26.0676Z" fill="white"/>
<path d="M46.3452 26.4711V25.2808H49.105V24.4238H45.39V29.4679H49.091V28.6107H46.3452V27.2928H48.8432V26.4711H46.3452Z" fill="white"/>
<path fill-rule="evenodd" clip-rule="evenodd" d="M52.7496 28.3559H50.5417L50.1524 29.4679H49.1688L51.0867 24.4238H52.2047L54.1578 29.4679H53.1459L52.7496 28.3559ZM52.4594 27.5409L52.2612 26.9954C52.0843 26.535 51.8437 25.862 51.6386 25.2668C51.4334 25.862 51.1929 26.535 51.0229 26.9954L50.8319 27.5409H52.4594Z" fill="white"/>
<path d="M58.68 29.4679V24.4238H57.7599V25.7414C57.7599 26.4853 57.767 27.2931 57.7883 28.1857C57.5336 27.7111 57.1799 27.1301 56.8967 26.6697L55.4886 24.4241H54.4269V29.4681H55.347V28.1503C55.347 27.4066 55.347 26.5988 55.3185 25.7062C55.5733 26.1948 55.8989 26.7194 56.2172 27.2225L57.6184 29.4679H58.68Z" fill="white"/>
<path fill-rule="evenodd" clip-rule="evenodd" d="M65.2899 26.946C65.2899 28.4832 64.4053 29.4679 62.7634 29.4679H60.8387V24.4238H62.7634C64.4053 24.4238 65.2899 25.4085 65.2899 26.946ZM64.2989 26.946C64.2989 25.8265 63.726 25.2456 62.7492 25.2456H61.794V28.6459H62.7492C63.726 28.6459 64.2989 28.0652 64.2989 26.946Z" fill="white"/>
<path d="M66.7622 26.4711V25.2808H69.5216V24.4238H65.8069V29.4679H69.5075V28.6107H66.7622V27.2928H69.2598V26.4711H66.7622Z" fill="white"/>
<path d="M69.7626 27.8029H70.7037C70.7184 28.5965 71.2489 28.8088 71.9491 28.8088C72.6075 28.8088 72.9683 28.5538 72.9683 28.0792C72.9683 27.6824 72.7065 27.5054 71.935 27.3497L71.5102 27.2646C70.534 27.0803 69.8898 26.648 69.8898 25.7342C69.8898 24.8985 70.5482 24.3105 71.7579 24.3105C73.1736 24.3105 73.7748 24.9766 73.8099 25.9256H72.8829C72.8478 25.3873 72.5712 25.0826 71.7721 25.0826C71.1635 25.0826 70.866 25.3235 70.866 25.706C70.866 26.1097 71.0996 26.2939 71.8501 26.4499L72.2884 26.535C73.4773 26.7688 73.9586 27.2294 73.9586 28.0297C73.9586 29.0287 73.1804 29.5812 71.9208 29.5812C70.5764 29.5809 69.7699 28.965 69.7626 27.8029Z" fill="white"/>
<path d="M74.4123 24.4238H75.3676V29.4679H74.4123V24.4238Z" fill="white"/>
<path d="M80.7599 26.7473V29.4677H80.0665L79.9319 28.8014C79.5784 29.3047 78.9981 29.5807 78.2906 29.5807C76.8399 29.5807 75.8846 28.5323 75.8846 26.9455C75.8846 25.3587 76.8399 24.3101 78.3754 24.3101C79.6491 24.3101 80.5337 25.0113 80.7034 26.1026H79.7198C79.5784 25.5144 79.0762 25.1461 78.3822 25.1461C77.4552 25.1461 76.8823 25.8333 76.8823 26.9455C76.8823 28.0575 77.4693 28.7449 78.4178 28.7449C79.161 28.7449 79.7764 28.2561 79.8262 27.5192H78.5101V26.7471L80.7599 26.7473Z" fill="white"/>
<path d="M85.6641 29.4679V24.4238H84.7445V25.7414C84.7445 26.4853 84.7513 27.2931 84.7734 28.1857C84.5183 27.7111 84.1648 27.1301 83.8814 26.6697L82.4731 24.4241H81.4115V29.4681H82.3317V28.1503C82.3317 27.4066 82.3317 26.5988 82.3035 25.7062C82.558 26.1948 82.8831 26.7194 83.2016 27.2225L84.6031 29.4679H85.6641Z" fill="white"/>
</svg>
