<svg width="141" height="32" viewBox="0 0 141 32" fill="none" xmlns="http://www.w3.org/2000/svg">
<path fill-rule="evenodd" clip-rule="evenodd" d="M11.8761 8.64499H12.1204V5.50939H0V5.7193C1.39786 6.859 1.58935 7.19213 1.58935 8.43679V23.6168C1.58935 24.8615 1.39786 25.1935 0 26.3337V26.5448H6.28695V26.3337C4.87204 25.2659 4.6277 24.8615 4.6277 23.6699V16.1489H5.98919C7.77117 16.1489 8.08598 16.2715 9.60373 18.2172H9.81398V13.2751H9.60373C8.08541 15.2191 7.77117 15.3434 5.98919 15.3434H4.6277V6.27888H6.70574C7.54502 6.27888 8.25986 6.55896 11.8767 8.64556L11.8761 8.64499ZM16.6584 17.5675H12.4523L14.4451 11.4537C14.5371 11.6728 14.6298 11.9158 14.7292 12.2033L16.6584 17.5675ZM19.9683 19.3564L16.3208 9.29356H13.0188V9.4875C13.4831 9.92102 13.7814 10.2519 14.0178 10.6169L11.2902 18.9348C10.8021 20.4253 10.4873 20.8988 9.24631 22.055V22.2672H13.0717V22.0556C12.0238 21.4076 11.6749 20.9878 11.6749 20.3728C11.6749 20.0762 11.7625 19.6735 11.9897 18.989L12.2295 18.252H16.9038L17.3317 19.4425C17.5948 20.1983 17.6465 20.5137 17.6465 20.7944C17.6465 21.2313 17.3493 21.5998 16.547 22.055V22.2672H21.8895V22.0556C20.6315 21.0214 20.44 20.6729 19.9683 19.3564ZM27.9958 8.64556H28.2413V5.61377C27.0707 5.40272 25.7609 5.2276 24.5563 5.2276C21.0446 5.2276 19.3171 7.57773 19.3171 10.0836C19.3171 12.9756 21.1861 14.7108 23.5778 16.7107C26.1615 18.884 27.681 20.1983 27.681 22.7042C27.681 24.7731 26.3201 26.0354 24.5045 26.0354C22.9152 26.0354 21.6577 25.4028 18.3199 22.7737H18.0267L19.2467 26.1934C20.7138 26.6079 22.2303 26.8202 23.7545 26.8243C27.7526 26.8243 30.0749 24.3886 30.0749 21.0049C30.0749 17.8847 28.2583 16.2898 25.6728 14.1861C23.2982 12.2558 21.6742 10.6974 21.6742 8.45333C21.6742 6.99818 22.6351 5.99938 24.1198 5.99938C25.1501 5.99938 25.8666 6.40209 27.9958 8.64556ZM43.3813 8.64556H43.6245V5.50767H29.3414V8.64499H29.5846C32.9553 6.50762 33.6372 6.22526 34.4225 6.22526H34.9646V23.6687C34.9646 24.8603 34.7191 25.2648 33.3042 26.3326V26.5437H39.6611V26.3326C38.2462 25.2648 38.0012 24.8603 38.0012 23.6687V6.22641H38.5439C39.3281 6.22641 40.01 6.50876 43.3813 8.64613V8.64556ZM61.5978 8.08598H61.8444V5.3856C60.4295 5.17455 58.6128 5 56.9547 5C49.5319 5 45.1309 9.15552 45.1309 16.0434C45.1309 22.8108 49.3392 27 56.6734 27C58.577 27 60.2885 26.7199 61.6512 26.3509L62.191 23.3544H61.9489C59.2066 25.6857 57.9838 26.2288 55.9938 26.2288C50.5092 26.2288 48.6755 22.0733 48.6755 15.9213C48.6755 9.66262 50.5092 5.84137 55.6961 5.84137C57.3536 5.84137 58.5264 6.22583 61.5978 8.08598ZM60.8903 15.9213C60.8903 19.3929 60.5948 21.6877 58.0963 21.6877C55.5819 21.6877 55.3017 19.3929 55.3017 15.9207C55.3017 12.4497 55.5819 10.1532 58.0963 10.1532C60.6113 10.1532 60.8903 12.4497 60.8903 15.9213ZM63.8588 15.9213C63.8588 12.2558 61.6938 9.50404 58.0969 9.50404C54.4999 9.50404 52.3344 12.2763 52.3344 15.9213C52.3344 19.5492 54.4994 22.3357 58.0963 22.3357C61.6943 22.3357 63.8588 19.5492 63.8588 15.9213ZM76.7037 26.5072L82.9202 26.5437V26.3326C81.5235 25.1929 81.3325 24.8609 81.3325 23.6163V8.43622C81.3325 7.19156 81.5235 6.85843 82.9207 5.73584V5.52593L78.5203 5.49056L73.6341 21.0288L68.6365 5.50825H64.1844V5.71873C65.0236 6.45115 65.5379 6.92802 65.9118 7.41801V22.1258C65.9118 23.8256 65.7027 24.5101 64.1298 26.3332V26.5442H69.1087V26.3332C67.0119 24.5991 66.7164 23.8975 66.7164 22.1258V9.03972C66.7505 9.14012 66.7846 9.23481 66.8187 9.34661L72.4272 26.7194H72.6704L78.2919 8.83893V23.5986C78.2919 24.8438 78.1004 25.1758 76.7037 26.2984V26.5072ZM94.6997 11.9432C94.6997 15.8865 93.7746 17.5339 90.7703 17.5339H89.0412V6.27888H90.2629C93.5814 6.27888 94.6997 7.69923 94.6997 11.9432ZM97.9466 11.8017C97.9466 7.06835 94.6463 5.50882 90.1765 5.50882H84.4146V5.71873C85.8102 6.85843 86.0017 7.19156 86.0017 8.43622V23.6163C86.0017 24.8609 85.8102 25.1929 84.4146 26.3332V26.5442H90.7005V26.3332C89.285 25.2653 89.0412 24.8609 89.0412 23.6693V18.3051H90.6811C94.6292 18.3051 97.9466 16.6212 97.9466 11.8017ZM105.617 18.8664H99.6859L102.607 8.26395C102.669 8.44477 102.73 8.63815 102.792 8.85605L105.616 18.8669L105.617 18.8664ZM140.999 5.71816V5.50939H136.268V5.7193C137.543 6.859 137.926 7.40204 137.926 8.2263C137.926 8.66438 137.822 9.01462 137.471 9.82177L134.755 16.1985L131.204 8.29532C130.923 7.68326 130.835 7.34899 130.835 7.03469C130.835 6.47397 131.151 6.15738 132.005 5.7193V5.50882H121.529V5.71873C123.869 7.45509 124.184 8.13732 124.184 10.0494V22.148L115.436 5.50825H111.086V5.71816C111.993 6.49964 112.52 6.98735 112.972 7.59085V22.1765C112.972 23.7617 112.797 24.4514 111.544 26.3326C110.58 25.1187 110.369 24.5358 109.881 22.8097L104.94 5.50882H100.697V5.71873C101.364 6.30626 101.785 6.71354 102.1 7.19042L97.9903 22.0396C97.3965 24.1958 96.9238 24.8438 95.3526 26.3332V26.5442H100.418V26.3332C98.9677 25.2288 98.5148 24.6681 98.5148 23.7035C98.5148 23.3185 98.6023 22.7737 98.812 22.0396L99.4683 19.6553H105.837L106.722 22.7926C107 23.7748 107.105 24.1958 107.105 24.5808C107.105 25.1239 106.881 25.4924 105.814 26.3332V26.5442H116.431V26.3332C114.089 24.5991 113.776 23.9146 113.776 22.1777V8.8994C113.794 8.93476 113.811 8.961 113.828 8.99751L123.066 26.5437H124.988V10.0494C124.988 8.30388 125.161 7.60968 126.369 5.72957C127.155 6.68502 127.654 7.48818 128.304 8.94503L132.076 17.3114V23.6699C132.076 24.8609 131.83 25.2653 130.417 26.3332V26.5442H136.775V26.3332C135.359 25.2653 135.116 24.8609 135.116 23.6693V17.2167L138.257 9.87368C138.923 8.31358 139.428 7.5783 141 5.7193L140.999 5.71816Z" fill="white"/>
</svg>
