<svg width="72" height="32" viewBox="0 0 72 32" fill="none" xmlns="http://www.w3.org/2000/svg">
<g clip-path="url(#clip0_3758_19539)">
<path d="M0 28.9287H3.88062L4.50421 23.1826H7.43373L7.98106 28.9287H12.5212L9.51985 3.00445H2.96542L0 28.9287ZM4.94386 19.2584L5.97121 9.04009H6.07888L7.02997 19.2584H4.94386ZM12.9339 28.9287H18.3892C21.4668 28.9287 23.7368 27.1826 23.7368 23.8731V7.98441C23.7368 4.82183 21.4668 3.00445 18.461 3.00445H12.9339V28.9287ZM17.4381 24.7461V7.14699H18.0258C18.941 7.14699 19.2326 7.69042 19.2326 8.42094V23.3296C19.2326 24.167 18.9769 24.7461 18.0258 24.7461H17.4381ZM26.7381 29H31.2423L32.7093 13.1826H32.8933L34.3199 29H38.4562L41.5338 3H37.725L36.5899 17.5835H36.4823L35.1633 3.00445H30.6232L29.3043 17.7305H29.2325L28.0212 3.00445H23.5888L26.7381 29ZM41.9645 28.9287H50.7531V24.7461H46.4328V17.7305H49.8379V13.5122H46.4328V7.14699H50.6813V3.00445H41.9645V28.9287ZM51.2735 28.9287H60.0621V24.7461H55.7418V17.7305H59.1469V13.5122H55.7418V7.14699H59.9903V3.00445H51.2735V28.9287ZM60.6094 28.9287H65.1136V19.9844L65.8807 17.441L67.4913 28.9332H72L69.1781 12.9332L71.9237 3.00445H67.424L65.1181 13.6949V3.00445H60.6139V28.9287H60.6094Z" fill="white"/>
</g>
<defs>
<clipPath id="clip0_3758_19539">
<rect width="72" height="32" fill="white"/>
</clipPath>
</defs>
</svg>
