<svg width="92" height="32" viewBox="0 0 92 32" fill="none" xmlns="http://www.w3.org/2000/svg">
<g clip-path="url(#clip0_3758_19538)">
<path d="M26.712 6.72566V4H37.146V6.72566H33.4385V15.0619H30.3842V6.72566H26.712ZM41.9658 6.99115C42.3896 6.77876 42.8839 6.67257 43.4489 6.67257C43.9609 6.67257 44.3846 6.74336 44.7377 6.90265C45.0908 7.04425 45.3733 7.27434 45.5851 7.55752C45.797 7.84071 45.9559 8.19469 46.0441 8.58407C46.1324 8.99115 46.1854 9.43363 46.1854 9.9292V15.0796H43.1311V10.5487C43.1311 10.3717 43.1134 10.2124 43.0958 10.0354C43.0781 9.87611 43.0251 9.71681 42.9722 9.57522C42.9016 9.43363 42.8133 9.32743 42.672 9.23894C42.5308 9.15044 42.3543 9.11504 42.1424 9.11504C41.7716 9.11504 41.4715 9.23894 41.242 9.48673C41.0125 9.73451 40.9065 10.1593 40.9065 10.7611V15.0442H37.8522V4H40.9065V7.9292C41.189 7.52212 41.5421 7.20354 41.9658 6.99115ZM49.4515 14.9558C48.8866 14.7434 48.4099 14.4248 48.0215 14.0354C47.6331 13.646 47.333 13.1681 47.1387 12.6372C46.9269 12.0885 46.8386 11.5044 46.8386 10.8496C46.8386 10.1947 46.9445 9.61062 47.1741 9.06195C47.4036 8.53097 47.7214 8.0708 48.1098 7.69911C48.4982 7.32743 48.9749 7.04425 49.5045 6.83186C50.0342 6.61947 50.6168 6.53097 51.2347 6.53097C51.9586 6.53097 52.5941 6.65487 53.1767 6.92035C53.7417 7.18584 54.2184 7.55752 54.6244 8.0177C55.0129 8.47788 55.313 9.02655 55.4895 9.64602C55.6837 10.2655 55.7544 10.9381 55.7014 11.646H49.787C49.84 12.0708 49.9988 12.3894 50.2813 12.6549C50.5638 12.9027 50.9522 13.0265 51.4289 13.0265C51.729 13.0265 52.0115 12.9558 52.2763 12.8319C52.5412 12.708 52.7177 12.5133 52.8236 12.3009H55.6837C55.5955 12.6018 55.4366 12.9381 55.2247 13.2743C55.0129 13.6283 54.7127 13.9469 54.3596 14.2301C54.0065 14.531 53.5828 14.7788 53.0885 14.9735C52.5941 15.1681 52.0292 15.2743 51.3936 15.2743C50.6697 15.292 50.0165 15.1858 49.4515 14.9558ZM50.9522 8.70796C50.7933 8.76106 50.6344 8.83186 50.4755 8.93805C50.3343 9.04425 50.1931 9.18584 50.0871 9.34513C49.9635 9.50442 49.8929 9.71681 49.84 9.9646H53.0178C53.0002 9.71681 52.9296 9.52212 52.8413 9.34513C52.7354 9.18584 52.6118 9.04425 52.4529 8.93805C52.294 8.83186 52.1351 8.76106 51.9585 8.70796C51.782 8.65487 51.6231 8.63717 51.4466 8.63717C51.2877 8.63717 51.1111 8.67257 50.9522 8.70796ZM33.4562 20.7965V27.8053H30.4018V16.7434H34.3212L37.8699 23.7876V16.7434H40.9242V27.823H36.9871L33.4562 20.7965ZM46.8739 21.823C46.8033 21.6814 46.715 21.5752 46.6091 21.4867C46.5032 21.3982 46.3619 21.3628 46.2207 21.3274C46.0794 21.292 45.9206 21.2743 45.7617 21.2743C45.3733 21.2743 45.0555 21.3628 44.8259 21.5398C44.5788 21.7168 44.4375 21.9823 44.3846 22.3363H41.7716C41.8069 21.9469 41.9129 21.5752 42.1071 21.2035C42.3013 20.8319 42.5661 20.5133 42.9192 20.2301C43.2723 19.9469 43.696 19.7168 44.208 19.5575C44.72 19.3805 45.3026 19.292 45.9912 19.292C46.5738 19.292 47.1211 19.3451 47.6154 19.469C48.1098 19.5929 48.5335 19.7876 48.8866 20.0708C49.2397 20.354 49.5045 20.7257 49.7164 21.1858C49.9106 21.646 50.0165 22.2301 49.9989 22.9204L49.9812 24.4956V25.3097C49.9812 25.5929 49.9812 25.8761 49.9989 26.177C50.0165 26.4779 50.0342 26.7611 50.0518 27.0442C50.0695 27.3274 50.1048 27.5752 50.1224 27.8053H47.28V26.7434C46.9798 27.2035 46.5738 27.5221 46.0971 27.7168C45.6028 27.9115 45.0731 28 44.4905 28C44.1021 28 43.7137 27.9469 43.3606 27.823C43.0075 27.6991 42.6897 27.5398 42.4249 27.3274C42.16 27.115 41.9482 26.8496 41.7893 26.5487C41.6304 26.2478 41.5598 25.9115 41.5598 25.5398C41.5598 25.0619 41.6834 24.6549 41.9129 24.3009C42.16 23.9469 42.4955 23.6637 42.9722 23.4336C43.4312 23.2035 43.9962 23.0088 44.6847 22.885C45.3556 22.7611 46.1324 22.6549 46.9975 22.6018V22.3717C46.9799 22.1416 46.9445 21.9646 46.8739 21.823ZM45.232 24.4425C44.8083 24.6018 44.6141 24.8496 44.6141 25.2212C44.6141 25.3982 44.6847 25.5575 44.8436 25.7168C45.0025 25.8761 45.2497 25.9646 45.6204 25.9646C45.8146 25.9646 45.9912 25.9469 46.1854 25.8938C46.3619 25.8407 46.5208 25.7699 46.6621 25.646C46.8033 25.5221 46.9092 25.3628 46.9799 25.1504C47.0505 24.9381 47.0858 24.6903 47.0858 24.3717V24.1239C46.2737 24.177 45.6557 24.2832 45.232 24.4425ZM54.7304 17.3274V19.5929H56.8137V21.5221H54.7304V25.1858C54.7304 25.4159 54.7833 25.5752 54.8716 25.646C54.9599 25.7168 55.1188 25.7522 55.313 25.7522H56.8137V27.823H54.7127C54.1478 27.823 53.6711 27.8053 53.2827 27.7522C52.8943 27.6991 52.5941 27.5929 52.347 27.4336C52.1174 27.2743 51.9409 27.0088 51.835 26.6903C51.729 26.354 51.6761 25.9115 51.6761 25.3451V21.5221H50.0342V19.5929H51.6761V17.3274H54.7304ZM60.5742 18.9027H57.5199V16.7434H60.5742V18.9027ZM60.5742 27.8053H57.5199V19.5929H60.5742V27.8053ZM63.9816 27.7345C63.4343 27.5575 62.9576 27.292 62.5339 26.9204C62.1278 26.5664 61.7924 26.1062 61.5629 25.5752C61.3157 25.0442 61.2098 24.4071 61.2098 23.6814C61.2098 22.9558 61.3333 22.3186 61.5629 21.7876C61.81 21.2566 62.1278 20.7965 62.5339 20.4425C62.9399 20.0885 63.4166 19.8053 63.9816 19.6283C64.5289 19.4513 65.1115 19.3451 65.7118 19.3451C66.3297 19.3451 66.8946 19.4336 67.442 19.6283C67.9893 19.8053 68.4659 20.0885 68.872 20.4425C69.2781 20.7965 69.6135 21.2566 69.8607 21.7876C70.1079 22.3363 70.2314 22.9558 70.2314 23.6814C70.2314 24.4071 70.1079 25.0442 69.8607 25.5752C69.6135 26.1239 69.2957 26.5664 68.872 26.9204C68.4659 27.2743 67.9893 27.5575 67.442 27.7345C66.8946 27.9115 66.3297 28 65.7118 28C65.1115 28 64.5289 27.9115 63.9816 27.7345ZM64.7584 22.0885C64.4936 22.3894 64.37 22.9204 64.37 23.6991C64.37 24.0885 64.4053 24.4071 64.4759 24.6726C64.5465 24.9381 64.6348 25.1327 64.7584 25.292C64.882 25.4513 65.0232 25.5575 65.1998 25.6283C65.3587 25.6991 65.5529 25.7345 65.7471 25.7345C65.9413 25.7345 66.1178 25.6991 66.2944 25.6283C66.4533 25.5575 66.6122 25.4513 66.7358 25.292C66.8593 25.1327 66.9476 24.9204 67.0182 24.6726C67.0889 24.4071 67.1242 24.0885 67.1242 23.6991C67.1242 22.9381 66.9829 22.4071 66.7358 22.0885C66.4709 21.7876 66.1531 21.6283 65.7647 21.6283C65.3763 21.6283 65.0056 21.7699 64.7584 22.0885ZM74.9806 19.7345C75.4043 19.5221 75.8987 19.4159 76.4636 19.4159C76.9756 19.4159 77.3993 19.4867 77.7524 19.646C78.1055 19.7876 78.388 20.0177 78.5999 20.3009C78.8117 20.5841 78.9706 20.9381 79.0589 21.3274C79.1472 21.7345 79.2002 22.177 79.2002 22.6726V27.823H76.1458V23.292C76.1458 23.115 76.1282 22.9558 76.1105 22.7788C76.0929 22.6018 76.0399 22.4602 75.987 22.3186C75.9163 22.177 75.8281 22.0708 75.6868 21.9823C75.5456 21.8938 75.369 21.8584 75.1572 21.8584C74.7864 21.8584 74.4863 21.9823 74.2568 22.2301C74.0273 22.4779 73.9213 22.9027 73.9213 23.5044V27.8053H70.867V19.5929H73.9213V20.6549C74.2038 20.2478 74.5569 19.9469 74.9806 19.7345ZM85.1675 21.823C85.0969 21.6814 85.0086 21.5752 84.9027 21.4867C84.7968 21.3982 84.6555 21.3628 84.5143 21.3274C84.3731 21.292 84.2142 21.2743 84.0553 21.2743C83.6669 21.2743 83.3491 21.3628 83.1196 21.5398C82.8724 21.7168 82.7311 21.9823 82.6782 22.3363H80.0652C80.1006 21.9469 80.2065 21.5752 80.4007 21.2035C80.5949 20.8319 80.8597 20.5133 81.2128 20.2301C81.5659 19.9469 81.9896 19.7168 82.5016 19.5575C83.0136 19.3805 83.5962 19.292 84.2848 19.292C84.8674 19.292 85.4147 19.3451 85.909 19.469C86.4034 19.5929 86.8271 19.7876 87.1802 20.0708C87.5333 20.354 87.7981 20.7257 88.01 21.1858C88.2042 21.646 88.3101 22.2301 88.2925 22.9204L88.2748 24.4956V25.3097C88.2748 25.5929 88.2748 25.8761 88.2925 26.177C88.3101 26.4779 88.3278 26.7611 88.3454 27.0442C88.3631 27.3274 88.3984 27.5752 88.416 27.8053H85.5736V26.7434C85.2735 27.2035 84.8674 27.5221 84.3907 27.7168C83.8964 27.9115 83.3667 28 82.7841 28C82.3957 28 82.0073 27.9469 81.6542 27.823C81.3011 27.6991 80.9833 27.5398 80.7185 27.3274C80.4537 27.115 80.2418 26.8496 80.0829 26.5487C79.924 26.2478 79.8534 25.9115 79.8534 25.5398C79.8534 25.0619 79.977 24.6549 80.2065 24.3009C80.4537 23.9469 80.7891 23.6637 81.2658 23.4336C81.7248 23.2035 82.2898 23.0088 82.9783 22.885C83.6492 22.7611 84.426 22.6549 85.2911 22.6018V22.3717C85.2735 22.1416 85.2382 21.9646 85.1675 21.823ZM83.5256 24.4425C83.1019 24.6018 82.9077 24.8496 82.9077 25.2212C82.9077 25.3982 82.9783 25.5575 83.1372 25.7168C83.2961 25.8761 83.5433 25.9646 83.914 25.9646C84.1082 25.9646 84.2848 25.9469 84.479 25.8938C84.6555 25.8407 84.8144 25.7699 84.9557 25.646C85.0969 25.5221 85.2028 25.3628 85.2735 25.1504C85.3441 24.9381 85.3794 24.6903 85.3794 24.3717V24.1239C84.5673 24.177 83.9493 24.2832 83.5256 24.4425ZM88.9457 27.8053V16.7434H92V27.823H88.9457V27.8053ZM17.0723 4V7.71681H20.0384V24.0885H17.0723V27.8053H23.7459V4H17.0723ZM0 27.8053H6.67358V24.0885H3.70754V7.71681H6.67358V4H0V27.8053ZM8.15659 4V7.71681L15.5893 15.9115V4H8.15659ZM8.15659 27.8053H15.5893V24.0885L8.15659 15.9115V27.8053Z" fill="white"/>
</g>
<defs>
<clipPath id="clip0_3758_19538">
<rect width="92" height="32" fill="white"/>
</clipPath>
</defs>
</svg>
