<svg width="158" height="32" viewBox="0 0 158 32" fill="none" xmlns="http://www.w3.org/2000/svg">
<path d="M21.6844 6H25.3755V9.01623H21.6844V6Z" fill="white"/>
<path fill-rule="evenodd" clip-rule="evenodd" d="M49.183 25.4895C45.3996 26.696 41.3395 24.6079 40.1399 20.7796C38.9403 16.9513 41.0396 12.891 44.8229 11.6845C46.184 11.2436 47.3605 11.2668 48.4909 11.6381L46.7376 6.06965H50.5671L53.8199 16.3944C55.0425 20.2227 52.9663 24.283 49.183 25.4895ZM43.5772 19.6659C44.2 21.638 46.0917 22.7285 48.0757 22.1021C50.0365 21.4756 51.0285 19.4803 50.4056 17.5081C49.7828 15.5128 47.8219 14.4687 45.861 15.0951C43.8771 15.7216 42.9543 17.6937 43.5772 19.6659Z" fill="white"/>
<path d="M35.2025 25.7446H38.8474V18.3432C38.8474 13.61 36.2637 11.4523 32.688 11.4523C29.0892 11.4523 26.5285 13.61 26.5285 18.3432V25.7446H30.1734V18.3432C30.1734 16.0926 30.8886 15.0253 32.688 15.0253C34.4643 15.0253 35.2025 16.0926 35.2025 18.3432V25.7446Z" fill="white"/>
<path d="M14.7873 20.9415L17.2557 11.684H20.9468L16.5867 25.7443H12.9649L10.4734 17.3221L7.95886 25.7443H4.337L0 11.684H3.69106L6.13639 20.9415L8.65093 11.684H12.2959L14.7873 20.9415Z" fill="white"/>
<path fill-rule="evenodd" clip-rule="evenodd" d="M62.3321 25.9766C66.3462 25.9766 69.5528 22.7283 69.5528 18.7144C69.5528 14.7005 66.3231 11.4755 62.3321 11.4523C58.3412 11.4523 55.1346 14.7005 55.1346 18.7144C55.1346 22.7515 58.3412 25.9766 62.3321 25.9766ZM62.3552 22.4035C60.302 22.4035 58.7564 20.8026 58.7564 18.7144C58.7564 16.6495 60.302 15.0253 62.3552 15.0253C64.4314 15.0253 65.9078 16.6263 65.9078 18.7144C65.9078 20.8026 64.4314 22.4035 62.3552 22.4035Z" fill="white"/>
<path d="M89.6465 11.684L85.2864 25.7443H81.6646L79.1731 17.3221L76.6585 25.7443H73.0136L68.6997 11.684H72.3677L74.8361 20.9415L77.3506 11.684H80.9956L83.4639 20.9415L85.9554 11.684H89.6465Z" fill="white"/>
<path d="M92.8761 21.1972H89.4157C89.4157 24.3295 92.2994 25.9768 95.4368 26C98.828 26 101.458 24.6311 101.435 21.4757C101.406 18.1895 98.2625 17.6547 95.868 17.2473C94.391 16.9961 93.1991 16.7933 93.1991 16.0232C93.1991 15.2808 94.0988 14.7239 95.2984 14.7239C96.498 14.7239 97.5822 15.2808 97.5822 16.0928H101.043C101.043 13.0998 98.5973 11.4757 95.3445 11.4757C92.0918 11.4757 89.5542 13.239 89.5542 15.7216C89.5542 19.0822 92.5789 19.5796 94.9623 19.9715C96.5116 20.2262 97.7898 20.4364 97.7898 21.3596C97.7898 22.0789 97.0055 22.7053 95.506 22.7053C93.9834 22.7053 92.8761 22.1021 92.8761 21.1972Z" fill="white"/>
<path d="M122.219 11.684L117.859 25.7443H114.214L111.723 17.3221L109.208 25.7443H105.587L101.25 11.684H104.941L107.409 20.9415L109.924 11.684H113.545L116.037 20.9415L118.528 11.684H122.219Z" fill="white"/>
<path fill-rule="evenodd" clip-rule="evenodd" d="M135.762 18.4127C135.623 13.958 131.932 11.4754 128.472 11.4754C124.435 11.4754 121.367 14.8396 121.344 18.7607C121.344 22.7514 124.55 25.9765 128.564 25.9765C131.517 25.9765 134.055 24.1668 135.185 21.6146L130.848 21.5914C130.41 21.9626 129.764 22.4034 128.449 22.4034C126.834 22.4034 125.611 21.5682 125.265 20.1528H135.646C135.739 19.6888 135.785 19.0624 135.762 18.4127ZM128.587 15.0253C129.994 15.0253 131.332 15.9069 131.886 17.2294H125.288C125.842 15.9069 126.972 15.0253 128.587 15.0253Z" fill="white"/>
<path fill-rule="evenodd" clip-rule="evenodd" d="M136.615 18.7144C136.615 14.7005 139.868 11.4523 143.836 11.4523C147.803 11.4523 151.01 14.6773 151.01 18.7144V25.7446H147.388V24.2596C146.973 25.1877 145.427 25.9766 143.836 25.9766C139.868 25.9766 136.615 22.7283 136.615 18.7144ZM147.411 18.7144C147.411 16.6263 145.935 15.0253 143.859 15.0253C141.782 15.0253 140.26 16.6263 140.26 18.7144C140.26 20.8026 141.805 22.4035 143.859 22.4035C145.935 22.4035 147.411 20.8026 147.411 18.7144Z" fill="white"/>
<path d="M157.839 11.6147C154.424 11.6147 151.864 13.7028 151.864 18.3432V25.7446H155.485V18.3432C155.485 16.139 156.27 15.1878 157.862 15.1878H158V11.6147H157.839Z" fill="white"/>
<path d="M25.3528 11.684H21.731V25.7443H25.3528V11.684Z" fill="white"/>
</svg>
