<svg width="143" height="32" viewBox="0 0 143 32" fill="none" xmlns="http://www.w3.org/2000/svg">
<g clip-path="url(#clip0_4126_7802)">
<path d="M32.7304 4.45079H31.2924V11.709H29.6491V4.45079H28.4622V2.94436H29.6491V0H31.2924V2.94436H32.7304V4.45079Z" fill="white"/>
<path d="M17.4608 4.49643C17.6662 4.42796 17.8716 4.40513 18.077 4.40513H18.0542V2.69329C17.5749 2.71612 17.1641 2.80742 16.776 2.96719C16.388 3.12696 16.0685 3.40086 15.8174 3.74322H15.7946V2.94436H14.2653V11.709H15.9087V6.91583C15.9087 6.43652 15.9772 6.00285 16.1369 5.59201C16.2967 5.18117 16.5478 4.90727 16.8902 4.72468C17.0499 4.63338 17.2325 4.5649 17.4608 4.49643Z" fill="white"/>
<path fill-rule="evenodd" clip-rule="evenodd" d="M27.7546 8.03407L20.4964 8.03423C20.6106 8.4679 20.7932 8.87875 21.067 9.24394C21.3409 9.60913 21.6833 9.90585 22.0713 10.1113C22.4822 10.3167 22.9158 10.4308 23.3723 10.4308C23.8973 10.4308 24.3766 10.2939 24.8331 10.02C25.2896 9.74608 25.632 9.40371 25.8602 8.94722H27.5036C27.1612 9.8602 26.6134 10.5678 25.8602 11.1155C25.107 11.6633 24.2397 11.9144 23.3039 11.9144C22.7104 11.9144 22.117 11.8003 21.5692 11.5492C21.0214 11.2981 20.5421 10.9558 20.1312 10.5221C19.7204 10.0884 19.4009 9.58631 19.1726 9.03852C18.9444 8.49073 18.8302 7.89729 18.8302 7.30385C18.8302 6.68759 18.9444 6.09415 19.1726 5.54636C19.4009 4.97575 19.7204 4.47361 20.1312 4.06277C20.5421 3.6291 21.0214 3.30956 21.5692 3.05849C22.117 2.83024 22.7104 2.71612 23.3267 2.71612C23.9429 2.71612 24.5364 2.83024 25.0613 3.05849C25.6091 3.28673 26.0884 3.6291 26.4765 4.03994C26.8873 4.45078 27.2069 4.9301 27.4351 5.50072C27.6862 6.0485 27.8003 6.61912 27.8003 7.21256C27.8003 7.48631 27.7775 7.76032 27.7546 8.03407ZM26.1569 6.77888C26.1341 6.29957 25.9743 5.88873 25.7004 5.47789C25.4265 5.08987 25.0842 4.77033 24.6505 4.54208C24.2168 4.31384 23.7832 4.19971 23.3039 4.19971C22.8245 4.19971 22.3909 4.31384 21.9572 4.54208C21.5235 4.77033 21.1812 5.08987 20.9073 5.47789C20.6334 5.86591 20.4964 6.29957 20.4508 6.77888H26.1569Z" fill="white"/>
<path fill-rule="evenodd" clip-rule="evenodd" d="M41.0385 11.709H42.6591V2.94436H41.0157V4.19971H40.9929C40.7646 3.88017 40.5136 3.60627 40.194 3.37803C39.8745 3.14978 39.5321 2.99002 39.1441 2.87589C38.7561 2.76177 38.3909 2.71612 38.0029 2.71612C37.3638 2.71612 36.7475 2.83024 36.1769 3.05849C35.6063 3.28673 35.1041 3.6291 34.6933 4.03994C34.2825 4.47361 33.9401 4.95292 33.7118 5.52353C33.4836 6.09415 33.3695 6.71041 33.3695 7.37232C33.3695 8.01141 33.5064 8.60485 33.7347 9.17546C33.9629 9.74607 34.2825 10.2254 34.7161 10.6362C35.127 11.0471 35.6291 11.3666 36.1997 11.5949C36.7703 11.8231 37.3866 11.9372 38.0257 11.9372C38.6648 11.9372 39.2354 11.8003 39.7603 11.5264C40.2853 11.2525 40.719 10.8645 41.0157 10.3395H41.0385V11.709ZM40.8787 6.11697C41.0157 6.50499 41.0842 6.91583 41.0842 7.3495C41.0842 7.89729 40.9472 8.42226 40.6733 8.9244C40.3994 9.38089 40.0342 9.7689 39.5549 10.0428C39.0984 10.3167 38.5735 10.4536 38.0257 10.4536C37.4779 10.4536 36.9758 10.3167 36.5193 10.0428C36.0628 9.7689 35.6976 9.38089 35.4237 8.90157C35.1726 8.42226 35.0357 7.89729 35.0357 7.37232C35.0357 6.80171 35.1726 6.27675 35.4237 5.79743C35.6748 5.31812 36.0399 4.9301 36.4964 4.6562C36.9529 4.35949 37.4779 4.22254 38.0485 4.22254C38.505 4.22254 38.9158 4.29101 39.281 4.45079C39.669 4.61056 39.9886 4.81598 40.2625 5.1127C40.5364 5.40941 40.7418 5.72896 40.8787 6.11697Z" fill="white"/>
<path d="M44.8046 1.94009H46.4479V0H44.8046V1.94009Z" fill="white"/>
<path d="M46.4479 11.709H44.8046V2.94436H46.4479V11.709Z" fill="white"/>
<path d="M50.214 0H48.5706V11.7318H50.214V0Z" fill="white"/>
<path d="M9.24394 12.9415H5.88873V28.0742H3.35521V12.9415H0V10.5906H9.24394V12.9415Z" fill="white"/>
<path d="M37.4094 28.0742H35.127V26.659H35.0813C34.739 27.2297 34.214 27.6633 33.5064 27.96C32.7761 28.2568 32.0228 28.3937 31.2468 28.3937C29.7632 28.3937 28.5307 27.96 27.5264 27.0927C26.8645 26.4993 26.408 25.7917 26.1569 24.9472C25.9059 24.1027 25.7917 23.1441 25.7917 22.0713V14.9729H28.2568V22.0713C28.2568 22.893 28.3481 23.6006 28.5535 24.2168C28.7589 24.8103 29.0785 25.2896 29.5806 25.6319C30.0599 25.9743 30.7218 26.1569 31.5207 26.1569C32.7076 26.1569 33.5749 25.7689 34.1227 24.9928C34.6705 24.2168 34.9444 23.2354 34.9444 22.0028V14.9729H37.4094V28.0742Z" fill="white"/>
<path d="M53.0214 23.7603C52.7019 24.6961 52.2226 25.5178 51.5835 26.2254C50.9672 26.9101 50.214 27.4579 49.3238 27.8459C48.4565 28.2339 47.5207 28.4165 46.5621 28.4165C45.6263 28.4165 44.7361 28.2339 43.9144 27.8916C43.0927 27.5492 42.3852 27.0471 41.7689 26.408C41.1755 25.7689 40.6962 25.0385 40.3538 24.194C40.0114 23.3495 39.8517 22.4593 39.8517 21.5235C39.8517 20.5877 40.0114 19.6976 40.3538 18.8531C40.6962 18.0085 41.1527 17.2782 41.7689 16.6391C42.3624 16.0228 43.0927 15.5207 43.9144 15.1783C44.7361 14.8131 45.6263 14.6533 46.5849 14.6533C47.2925 14.6533 47.9772 14.7675 48.6619 14.9957C49.3467 15.2239 49.9857 15.5435 50.5792 15.9543C51.1726 16.3652 51.6748 16.8673 52.0856 17.4379C52.4965 18.0085 52.816 18.6476 52.9986 19.3552H50.2825C49.9173 18.5563 49.4151 17.9629 48.7989 17.5292C48.1826 17.1184 47.4522 16.8901 46.5849 16.8901C45.7176 16.8901 44.9643 17.0956 44.3024 17.5064C43.6405 17.9172 43.1384 18.465 42.796 19.1726C42.4537 19.8802 42.2711 20.6562 42.2711 21.5235C42.2711 22.117 42.3624 22.7104 42.5678 23.281C42.7732 23.8516 43.0471 24.3538 43.4123 24.7874C43.7775 25.2211 44.234 25.5635 44.7589 25.7917C45.2839 26.0428 45.8773 26.1569 46.4936 26.1569C47.3153 26.1569 48.0685 25.9515 48.7076 25.5178C49.3695 25.0841 49.8488 24.5135 50.1912 23.7375H53.0214V23.7603Z" fill="white"/>
<path d="M66.9672 28.0742H64.5022V20.9757C64.5022 19.7204 64.2511 18.7161 63.7718 17.9857C63.2925 17.2553 62.4479 16.8901 61.2383 16.8901C60.097 16.8901 59.2297 17.2782 58.6591 18.0542C58.0885 18.8302 57.7917 19.7889 57.7917 20.9757V28.097H55.3267V10.6134H57.7917V16.4108H57.8374C58.6134 15.2468 59.846 14.6762 61.5121 14.6762C62.1512 14.6762 62.7447 14.7675 63.3153 14.9272C63.8859 15.087 64.4337 15.3609 64.913 15.7033C65.3923 16.0456 65.8032 16.4793 66.1455 17.0043C66.6933 17.8716 66.9672 18.99 66.9672 20.3595V28.0742Z" fill="white"/>
<path fill-rule="evenodd" clip-rule="evenodd" d="M81.2097 15.8859C81.2097 17.0956 80.9358 18.077 80.4109 18.8759C79.8631 19.6747 79.1327 20.2453 78.2197 20.6334C77.3067 20.9986 76.234 21.1811 75.0471 21.1811H72.5364V28.0742H69.98V10.5906H75.0243C76.8502 10.5906 78.3338 11.0242 79.4751 11.9144C80.6619 12.8045 81.2097 14.1284 81.2097 15.8859ZM78.6762 15.8859C78.6762 15.2011 78.5164 14.6305 78.1969 14.1968C77.8773 13.7632 77.4437 13.4436 76.8959 13.2382C76.3481 13.0328 75.7318 12.9415 75.0699 12.9415H72.5592V18.8531H75.0699C76.1427 18.8531 77.01 18.6248 77.6719 18.1455C78.3338 17.6433 78.6762 16.913 78.6762 15.8859Z" fill="white"/>
<path d="M104.011 13.4665H101.546V10.5906H104.011V13.4665Z" fill="white"/>
<path d="M101.546 28.0742H104.011V14.9957H101.546V28.0742Z" fill="white"/>
<path d="M116.314 28.0742H118.756V20.3595C118.756 18.99 118.482 17.8716 117.934 17.0043C117.592 16.4793 117.181 16.0456 116.702 15.7033C116.223 15.3609 115.675 15.087 115.104 14.9272C114.534 14.7675 113.94 14.6762 113.301 14.6762C112.525 14.6762 111.817 14.8131 111.156 15.087C110.516 15.3609 109.946 15.7946 109.489 16.4108H109.444V15.0185H107.138V28.097H109.603V20.9757C109.603 19.7889 109.9 18.8302 110.471 18.0542C111.041 17.2782 111.909 16.8901 113.05 16.8901C114.26 16.8901 115.104 17.2553 115.583 17.9857C116.063 18.7161 116.314 19.7204 116.314 20.9757V28.0742Z" fill="white"/>
<path d="M124.668 17.2325H126.813V14.9957H124.668V10.5906H122.203V14.9957H120.422V17.2325H122.203V28.0742H124.668V17.2325Z" fill="white"/>
<path d="M135.144 27.2525C135.966 26.4993 136.377 25.4722 136.377 24.2168C136.377 23.0756 136.011 22.1626 135.372 21.4322C134.665 20.7703 133.706 20.2682 132.474 19.903C132.017 19.766 131.652 19.6519 131.401 19.5378C131.127 19.4237 130.922 19.2639 130.716 19.0585C130.511 18.853 130.419 18.5563 130.419 18.214C130.419 17.8031 130.556 17.4608 130.853 17.2097C131.15 16.9586 131.515 16.8217 131.949 16.8217C132.428 16.8217 132.816 16.9814 133.113 17.2553C133.409 17.5521 133.569 17.9401 133.638 18.4194H136.103C136.103 17.8488 135.989 17.3466 135.783 16.8673C135.578 16.388 135.281 16 134.916 15.6576C134.551 15.3381 134.117 15.0642 133.638 14.8816C133.158 14.699 132.656 14.6077 132.086 14.6077C131.401 14.6077 130.716 14.7675 130.077 15.087C129.438 15.4065 128.936 15.863 128.548 16.4336C128.16 17.0043 127.977 17.6433 127.977 18.3737C127.977 19.4237 128.228 20.1997 128.753 20.7247C129.278 21.2496 130.054 21.7289 131.104 22.117C132.154 22.505 132.884 22.8245 133.318 23.0756C133.752 23.3038 133.957 23.7375 133.957 24.3309C133.957 24.6961 133.866 25.0157 133.706 25.2896C133.546 25.5863 133.318 25.7917 133.044 25.9287C132.748 26.0656 132.428 26.1341 132.063 26.1341C131.378 26.1341 130.853 25.9058 130.488 25.4722C130.1 25.0385 129.894 24.4679 129.849 23.7375H127.384C127.384 24.7874 127.635 25.6776 128.137 26.4308C128.639 27.184 129.37 27.7318 130.328 28.0742C130.922 28.2796 131.492 28.3937 131.994 28.3937C133.272 28.3937 134.322 28.0285 135.144 27.2525Z" fill="white"/>
<path d="M16.2511 26.1569H16.5706L17.0956 28.3481C16.8217 28.3709 16.525 28.3937 16.2511 28.3937C14.9957 28.3937 13.8089 28.0742 12.7361 27.4579C11.6634 26.8416 10.796 25.9971 10.1569 24.9244C9.51784 23.8516 9.1983 22.6876 9.1983 21.4322C9.1983 20.4964 9.3809 19.6063 9.74609 18.7617C10.1113 17.9172 10.6362 17.1869 11.2982 16.5706C11.9829 15.9543 12.7361 15.475 13.5806 15.1326C14.4251 14.7903 15.3153 14.6305 16.2511 14.6305C17.1869 14.6305 18.0999 14.8131 18.9672 15.1555C19.8345 15.4978 20.5877 16 21.2497 16.6162C21.9116 17.2325 22.4137 17.9629 22.7789 18.7846C23.1441 19.6291 23.3267 20.5192 23.3267 21.4779C23.3267 22.4365 23.0984 23.4636 22.5963 24.4907C22.3909 24.9015 22.1626 25.2667 21.9116 25.6091L19.6519 24.6505C19.8802 24.3994 20.0856 24.1255 20.2682 23.806C20.679 23.0756 20.8845 22.2996 20.8845 21.4779C20.8845 20.8388 20.7475 20.2225 20.5193 19.6747C20.291 19.1041 19.9487 18.6248 19.5378 18.1911C19.1042 17.7803 18.6248 17.4379 18.0542 17.2097C17.4836 16.9814 16.8902 16.8673 16.2511 16.8673C15.4294 16.8673 14.6534 17.0727 13.9458 17.4836C13.2382 17.8944 12.6676 18.4422 12.2568 19.1726C11.8459 19.903 11.6405 20.679 11.6405 21.5007C11.6405 22.3224 11.8459 23.0984 12.2568 23.8288C12.6676 24.5592 13.2382 25.1298 13.9458 25.5406C14.6534 25.9515 15.4294 26.1569 16.2511 26.1569Z" fill="white"/>
<path d="M21.1584 28.2796L23.5321 31.087L22.4594 32L20.0856 29.1926L18.7161 31.3609L17.0728 24.5364L23.5321 27.2753L21.1584 28.2796Z" fill="white"/>
<path fill-rule="evenodd" clip-rule="evenodd" d="M140.919 17.4836H141.307C141.307 17.4647 141.303 17.4497 141.298 17.4321C141.292 17.4073 141.284 17.3773 141.284 17.3238C141.284 17.3154 141.281 17.304 141.277 17.2896C141.27 17.2645 141.261 17.2303 141.261 17.1869V16.9358C141.238 16.776 141.215 16.6619 141.17 16.5706C141.124 16.4793 141.033 16.4336 140.896 16.388C141.033 16.3652 141.124 16.2967 141.193 16.2054C141.261 16.1141 141.284 16 141.284 15.863C141.284 15.6576 141.215 15.4978 141.079 15.4065C140.942 15.3152 140.759 15.2696 140.531 15.2696H139.572V17.5064H139.96V16.6162H140.417C140.531 16.6162 140.622 16.6391 140.69 16.6619C140.759 16.6847 140.805 16.7304 140.827 16.7988C140.85 16.8673 140.873 16.9586 140.873 17.0727V17.301C140.873 17.3041 140.874 17.3076 140.874 17.3114C140.875 17.3153 140.876 17.3196 140.877 17.324C140.878 17.3277 140.88 17.3316 140.881 17.3355C140.882 17.3391 140.883 17.3428 140.884 17.3464C140.89 17.3635 140.896 17.3809 140.896 17.3923C140.896 17.4379 140.896 17.4608 140.919 17.4836ZM140.873 15.7946C140.896 15.8402 140.896 15.863 140.896 15.8859C140.896 16.0228 140.873 16.1141 140.782 16.1597C140.69 16.2054 140.576 16.2282 140.439 16.2282H139.96V15.612H140.462C140.69 15.612 140.827 15.6804 140.873 15.7946Z" fill="white"/>
<path fill-rule="evenodd" clip-rule="evenodd" d="M142.334 16.3652C142.334 16.6162 142.288 16.8673 142.174 17.1184C142.083 17.3466 141.946 17.552 141.763 17.7346C141.581 17.9172 141.375 18.0542 141.147 18.1455C140.919 18.2368 140.668 18.3053 140.394 18.3053C140.143 18.3053 139.892 18.2596 139.641 18.1455C139.412 18.0542 139.207 17.9172 139.024 17.7346C138.842 17.552 138.705 17.3466 138.613 17.1184C138.522 16.8901 138.454 16.6391 138.454 16.3652C138.454 16.0913 138.499 15.8402 138.613 15.612C138.705 15.3837 138.865 15.1783 139.024 14.9957C139.207 14.8131 139.412 14.6762 139.641 14.5849C139.869 14.4936 140.12 14.4479 140.394 14.4479C140.668 14.4479 140.896 14.4936 141.147 14.5849C141.375 14.6762 141.581 14.8131 141.763 14.9957C141.946 15.1783 142.083 15.3837 142.174 15.612C142.288 15.8402 142.334 16.0913 142.334 16.3652ZM141.923 16.3652C141.923 16.1597 141.877 15.9543 141.809 15.7717C141.74 15.5891 141.626 15.4065 141.489 15.2696C141.352 15.1326 141.193 15.0185 141.01 14.9272C140.827 14.8359 140.622 14.8131 140.417 14.8131C140.211 14.8131 140.006 14.8588 139.823 14.9272C139.641 15.0185 139.481 15.1098 139.344 15.2696C139.207 15.4065 139.093 15.5663 139.024 15.7717C138.956 15.9543 138.91 16.1597 138.91 16.3652C138.91 16.6391 138.979 16.913 139.116 17.1412C139.253 17.3695 139.435 17.5749 139.663 17.7118C139.892 17.8488 140.143 17.9172 140.439 17.9172C140.713 17.9172 140.964 17.8488 141.215 17.7118C141.444 17.5749 141.626 17.3923 141.763 17.1412C141.855 16.8901 141.923 16.6391 141.923 16.3652Z" fill="white"/>
<path d="M88.8103 18.9674L88.9472 20.063H87.3723L87.0071 18.9674H88.8103Z" fill="white"/>
<path d="M89.7233 21.7291L89.5863 20.6335H91.4579L91.2981 21.7291H89.7233Z" fill="white"/>
<path d="M93.6491 20.063H92.0742L92.2112 18.9674H94.0143L93.6491 20.063Z" fill="white"/>
<path d="M87.5549 20.6335H89.0157L89.1527 21.7291H87.943L87.5549 20.6335Z" fill="white"/>
<path d="M89.5178 20.0858L89.3581 18.9674H91.6633L91.5264 20.0858H89.5178Z" fill="white"/>
<path d="M92.7361 23.8974C92.5079 23.8974 92.3252 24.08 92.3252 24.3082C92.3252 24.5365 92.5079 24.7191 92.7361 24.7191C92.9643 24.7191 93.1469 24.5365 93.1469 24.3082C93.1469 24.08 92.9643 23.8974 92.7361 23.8974Z" fill="white"/>
<path d="M87.8745 24.3312C87.8745 24.5594 88.0571 24.742 88.2853 24.742C88.5136 24.742 88.6962 24.5594 88.6962 24.3312C88.6962 24.1029 88.5136 23.9203 88.2853 23.9203C88.0571 23.8975 87.8745 24.1029 87.8745 24.3312Z" fill="white"/>
<path d="M92.0057 20.6335L91.8688 21.7291H93.1013L93.4665 20.6335H92.0057Z" fill="white"/>
<path fill-rule="evenodd" clip-rule="evenodd" d="M90.8417 11.8232C86.1398 11.8232 82.3053 15.6578 82.3053 20.3596C82.3053 25.0615 86.1398 28.896 90.8417 28.896C95.5435 28.896 99.3781 25.0615 99.3781 20.3596C99.3781 15.6578 95.5435 11.8232 90.8417 11.8232ZM96.0685 17.3239H95.1555L93.1013 23.4637C93.4665 23.6007 93.7175 23.9431 93.7175 24.3539C93.7175 24.9017 93.2839 25.3125 92.7361 25.3125C92.1883 25.3125 91.7546 24.8789 91.7546 24.3539C91.7546 24.2461 91.7754 24.1799 91.8029 24.0921L91.8033 24.091C91.8164 24.0491 91.8313 24.0016 91.8459 23.9431H89.1526C89.2211 24.1256 89.2439 24.1941 89.2439 24.3539C89.2439 24.9017 88.8103 25.3125 88.2625 25.3125C87.7147 25.3125 87.281 24.8789 87.281 24.3311C87.281 23.8061 87.6919 23.3953 88.194 23.3724H92.485L92.8502 22.2769H87.669C87.5549 22.2769 87.4408 22.1856 87.3952 22.0714L86.2767 18.7162C86.2539 18.6249 86.2539 18.5793 86.3224 18.488C86.368 18.4195 86.4593 18.3967 86.5506 18.3967H94.1284L94.6305 16.9359C94.6762 16.8218 94.7675 16.7533 94.9044 16.7533H96.0228C96.1826 16.7533 96.2967 16.8674 96.2967 17.0272C96.3424 17.2098 96.2283 17.3239 96.0685 17.3239Z" fill="white"/>
</g>
<defs>
<clipPath id="clip0_4126_7802">
<rect width="142.334" height="32" fill="white"/>
</clipPath>
</defs>
</svg>
