<svg width="71" height="32" viewBox="0 0 71 32" fill="none" xmlns="http://www.w3.org/2000/svg">
<path d="M38.8714 11.3783V11.7776H40.2776V15.3747C40.2753 18.0614 38.4781 18.6592 37.0683 18.6869C35.5469 18.7111 34.5272 17.9725 33.9499 16.4387C33.3807 14.9431 33.0803 13.4994 33.0803 10.1377C33.0803 8.94096 33.2666 5.01606 34.1583 3.29886C34.497 2.65144 35.1279 1.44777 37.009 1.44777H37.0265C39.3196 1.457 40.6373 3.03111 41.7059 7.25145L41.728 7.33915H41.9876V1H41.7373L41.707 1.07155C41.4626 1.65203 40.8794 1.77898 40.3766 1.76744C40.1367 1.75821 39.9179 1.72358 39.7573 1.69127C39.633 1.66402 39.548 1.63853 39.5256 1.6318L39.5198 1.63011C39.3518 1.57751 39.1986 1.5269 39.056 1.47982L38.9238 1.43623C38.8424 1.40853 38.7632 1.38545 38.684 1.36352C38.1055 1.17311 37.6736 1.05193 37.0044 1.05193C33.9894 1.05193 29.8408 4.08937 29.8408 10.3558C29.8408 15.474 32.9418 19.0885 37.1742 19.0885C37.9623 19.0885 38.613 18.8323 39.2253 18.5507C39.3394 18.5045 39.4523 18.4572 39.5606 18.4064C40.1589 18.1249 40.7258 17.8583 41.3637 17.8248L41.3792 17.8242L41.4004 17.8237L41.4145 17.8234C41.4231 17.8231 41.4318 17.8229 41.4404 17.8225L41.4498 17.8224L41.4817 17.8215L41.494 17.8214C41.8631 17.8214 42.6033 18.0579 42.7466 18.7619L42.7651 18.8542L43.0131 18.8554V11.7799H44.3447V11.3783H38.8714Z" fill="white"/>
<path d="M70.6811 12.4054L70.6764 12.5162C70.596 14.2726 69.9745 15.6818 68.829 16.7043C66.9047 18.4224 64.1156 18.3706 63.1811 18.3533L63.1296 18.3524L63.0496 18.3511H62.9088V10.1678C62.946 10.1678 63.0996 10.1678 63.138 10.1666L63.2728 10.1655C64.6865 10.1529 66.2756 10.1388 66.5475 13.6068L66.5556 13.7129H66.8338V6.25786H66.5592L66.5475 6.36056C66.1794 9.73785 64.4658 9.74196 63.0603 9.74532L63.038 9.74537H62.9088V1.94289C63.095 1.94174 63.4 1.93943 63.5874 1.93597C63.6885 1.93443 63.7896 1.93256 63.8905 1.9307C66.4442 1.88345 68.9229 1.8376 70.0012 7.23187L70.0199 7.32535H70.3027V1.50782H55.02V1.90827H56.3726V14.1849C56.34 15.9484 55.6439 17.0308 55.0328 17.6044C54.2948 18.298 53.2611 18.6615 52.3264 18.6292C48.8785 18.5057 48.7819 15.0679 48.7796 14.919V1.90827H50.3499V1.50782H44.2421V1.90827H45.8624L45.8578 13.481C45.8578 16.6454 47.4794 19.0862 52.2146 19.0862C55.3902 19.0862 56.8476 16.4711 56.8149 14.3026V1.90827H58.2549V1.91058H59.9625V18.3453H58.4213V18.7584H71V12.4054H70.6811Z" fill="white"/>
<path fill-rule="evenodd" clip-rule="evenodd" d="M20.865 1.08887C17.2891 1.08887 13.3709 4.63178 13.3709 10.0408C13.3709 15.4497 17.4183 19.04 20.865 19.04C24.3129 19.04 28.3591 15.4497 28.3591 10.0408C28.3602 4.63178 24.4409 1.08887 20.865 1.08887ZM25.0439 9.37604C25.0451 9.41528 25.0462 9.45452 25.0462 9.4926C25.0474 9.52136 25.0474 9.54897 25.0474 9.57773L25.0477 9.59781L25.0483 9.62451L25.0485 9.64494L25.0487 9.66555L25.0492 9.6986C25.0495 9.71561 25.0498 9.73234 25.0498 9.7488V9.78803C25.0498 9.8066 25.05 9.82459 25.0503 9.84228C25.0506 9.85956 25.0509 9.8772 25.0509 9.8942V10.1366C25.0462 11.1371 24.9613 15.0054 23.9393 16.9339C23.363 18.051 22.2234 18.6419 20.865 18.6419C19.5065 18.6419 18.3669 18.051 17.7896 16.9328C16.7676 15.0054 16.6826 11.136 16.678 10.1366V9.8942C16.678 9.85958 16.678 9.82496 16.6791 9.78803V9.7488C16.6791 9.73234 16.6794 9.71561 16.6797 9.69859C16.68 9.68101 16.6803 9.66312 16.6803 9.64494C16.6803 9.63397 16.6806 9.62272 16.6809 9.61147C16.6812 9.60022 16.6814 9.58896 16.6814 9.578C16.6814 9.56429 16.6817 9.5503 16.682 9.53617C16.6823 9.52175 16.6826 9.50717 16.6826 9.4926C16.6832 9.47426 16.6835 9.45566 16.6837 9.43692C16.684 9.41673 16.6843 9.39639 16.685 9.37604L16.685 9.36897L16.6855 9.35527C16.6858 9.34834 16.6861 9.34142 16.6861 9.33449C16.7257 7.7927 16.9201 4.89606 17.7896 3.19384C18.495 1.7836 19.9047 1.48817 20.8661 1.48817C21.8265 1.48817 23.2361 1.78476 23.9404 3.19615C24.81 4.89721 25.0032 7.79385 25.0428 9.33565C25.0428 9.34181 25.0431 9.34825 25.0433 9.35482C25.0436 9.36174 25.0439 9.36897 25.0439 9.37604Z" fill="white"/>
<path d="M11.4449 1.51026V1.9061H12.8685L9.07138 14.5025L4.48621 1.9061H5.78761V1.67529H5.78882V1.51026H0V1.9061H1.67623L8.09941 18.8521H8.1914L13.3073 1.9061H14.8753V1.51026H11.4449Z" fill="white"/>
<path d="M25.918 28.5846C26.0029 30.0145 26.805 31 28.5685 31C30.3425 31 31.1654 29.8448 31.1643 28.6596C31.1643 27.7167 30.6195 26.9539 29.2728 26.4346L29.0962 26.3661C27.9447 25.9197 27.4883 25.7428 27.4883 25.0567C27.4883 24.4947 27.9585 24.0711 28.5464 24.0711C29.2948 24.0711 29.5405 24.6008 29.6045 25.0036H31.0257C30.9944 24.5905 30.9198 24.1346 30.5345 23.6788C30.0748 23.1387 29.3274 22.8629 28.5895 22.8629C27.3171 22.8629 26.0565 23.6995 26.0565 25.0878C26.0565 26.5589 27.4024 27.0193 28.0296 27.2338L28.0447 27.2389L28.1946 27.2946C29.1079 27.6328 29.7337 27.8645 29.7337 28.6585C29.7337 29.284 29.2099 29.7929 28.558 29.7929C28.0878 29.7929 27.4242 29.5067 27.3497 28.5846H25.918Z" fill="white"/>
<path d="M23.6099 30.0999C23.0756 30.6826 22.3492 31 21.504 31C20.9058 31 19.9757 30.7992 19.3669 30.1102C18.7791 29.4421 18.6405 28.8176 18.6405 27.8529V23.0106H20.0839V27.8425C20.0839 28.3295 20.1049 28.8811 20.4367 29.262C20.7044 29.6117 21.1212 29.7387 21.4948 29.7387C21.9115 29.7387 22.3282 29.6013 22.5959 29.2297C22.8741 28.8476 22.8951 28.3606 22.8951 27.8517V23.0094H24.3385V27.8413C24.3373 28.9123 24.1022 29.5586 23.6099 30.0999Z" fill="white"/>
<path fill-rule="evenodd" clip-rule="evenodd" d="M11.7472 30.8524H14.3977C15.883 30.8524 17.1553 30.1946 17.1553 28.5536C17.1553 28.1081 16.9738 27.1018 15.7876 26.6887V26.6564C16.45 26.2963 16.7282 25.6499 16.7282 25.0568C16.7282 23.732 15.6596 23.0118 14.0346 23.0118H11.7472V30.8524ZM13.1371 24.2605H14.0776C14.6654 24.2605 15.3488 24.4417 15.3499 25.2137C15.3499 26.0723 14.6654 26.1889 14.1742 26.1889H13.1371V24.2605ZM13.1359 27.3972H14.3011C14.9541 27.3972 15.7655 27.5357 15.7655 28.4786C15.755 29.4849 14.8994 29.6014 14.3116 29.6014H13.1359V27.3972Z" fill="white"/>
<path d="M32.833 30.8524V23.0118H34.2647V30.8524H32.833Z" fill="white"/>
<path d="M42.6757 31H42.2695L37.5562 25.7341H37.5131V30.8523H36.1663V22.8629H36.5726L41.2963 28.108H41.3394V23.0117H42.6757V31Z" fill="white"/>
<path d="M44.5766 30.8512V23.0118H48.9475V24.2617H45.9653V26.2536H48.4552V27.5034H45.9653V29.6014H48.9475V30.8512H44.5766Z" fill="white"/>
<path d="M53.2025 31C51.4389 31 50.6369 30.0145 50.5519 28.5846H51.9837C52.0581 29.5067 52.7205 29.7929 53.192 29.7929C53.8438 29.7929 54.3676 29.284 54.3676 28.6585C54.3676 27.8644 53.7418 27.6327 52.8283 27.2945L52.6786 27.2389L52.6619 27.2332C52.0352 27.0185 50.6905 26.5577 50.6905 25.0878C50.6905 23.6995 51.9511 22.8629 53.2234 22.8629C53.9614 22.8629 54.7087 23.1387 55.1685 23.6788C55.5526 24.1346 55.6283 24.5905 55.6597 25.0036H54.2384C54.1745 24.6008 53.9288 24.0711 53.1803 24.0711C52.5924 24.0711 52.1222 24.4947 52.1222 25.0567C52.1222 25.7427 52.5786 25.9197 53.7299 26.366L53.9066 26.4346C55.2534 26.9539 55.7982 27.7167 55.7982 28.6596C55.7994 29.8448 54.9765 31 53.2025 31Z" fill="white"/>
<path d="M59.8494 31C58.0859 31 57.2839 30.0145 57.1989 28.5846H58.6307C58.7052 29.5067 59.3675 29.7929 59.839 29.7929C60.4908 29.7929 61.0147 29.284 61.0147 28.6585C61.0147 27.8645 60.3889 27.6328 59.4756 27.2946L59.3256 27.2389L59.3091 27.2333C58.6823 27.0185 57.3374 26.5578 57.3374 25.0878C57.3374 23.6995 58.5981 22.8629 59.8704 22.8629C60.6084 22.8629 61.3557 23.1387 61.8155 23.6788C62.1997 24.1346 62.2753 24.5905 62.3067 25.0036H60.8855C60.8214 24.6008 60.5758 24.0711 59.8273 24.0711C59.2395 24.0711 58.7691 24.4947 58.7691 25.0567C58.7691 25.7427 59.2256 25.9197 60.377 26.366L60.5537 26.4346C61.9005 26.9539 62.4453 27.7167 62.4453 28.6596C62.4464 29.8448 61.6234 31 59.8494 31Z" fill="white"/>
</svg>
