<svg width="1536" height="760" viewBox="0 0 1536 760" fill="none" xmlns="http://www.w3.org/2000/svg">
<g clip-path="url(#clip0_4638_114958)">
<path d="M357.132 187.336C352.644 187.336 349.572 184.288 349.572 178.6C349.572 172.912 352.644 169.864 357.132 169.864C361.596 169.864 364.668 172.912 364.668 178.6C364.668 184.288 361.596 187.336 357.132 187.336ZM352.044 178.6C352.044 182.944 354.132 185.104 357.132 185.104C360.108 185.104 362.196 182.944 362.196 178.6C362.196 174.256 360.108 172.096 357.132 172.096C354.132 172.096 352.044 174.256 352.044 178.6ZM367.671 187V175.456H369.735V177.328C370.023 176.176 370.887 175.456 372.255 175.456H374.463V177.496H372.039C370.599 177.496 369.999 178.312 369.999 179.872V187H367.671ZM378.364 191.32C375.796 191.32 374.644 190.12 374.644 188.44C374.644 187.456 375.172 186.568 376.156 186.088C375.508 185.656 375.1 184.96 375.1 184.216C375.1 183.184 375.748 182.344 377.092 182.008C376.012 181.288 375.556 180.16 375.556 179.08C375.556 176.824 377.284 175.12 380.164 175.12C382.012 175.12 383.5 176.056 383.98 177.256V176.896C383.98 175.744 384.604 175.456 385.42 175.456H387.124V177.496H385.276C384.916 177.496 384.772 177.64 384.772 178V179.224C384.772 181.624 382.9 183.184 380.284 183.184H378.292C377.62 183.184 377.164 183.496 377.164 184.12C377.164 184.744 377.692 185.056 378.292 185.056H382.492C384.7 185.056 386.116 186.112 386.116 188.008C386.116 189.904 384.988 191.32 382.348 191.32H378.364ZM376.876 188.224C376.876 188.968 377.356 189.544 378.628 189.544H382.204C383.116 189.544 383.884 189.112 383.884 188.08C383.884 187.288 383.26 186.832 382.324 186.832H378.7C377.404 186.832 376.876 187.48 376.876 188.224ZM377.788 179.152C377.788 180.496 378.676 181.36 380.164 181.36C381.676 181.36 382.54 180.496 382.54 179.152C382.54 177.808 381.652 176.944 380.164 176.944C378.652 176.944 377.788 177.808 377.788 179.152ZM392.301 187.336C389.637 187.336 387.957 185.944 387.957 183.736C387.957 181.672 389.349 180.184 392.181 180.016L395.685 179.824V179.176C395.685 177.664 394.941 177.04 393.357 177.04C391.821 177.04 391.053 177.448 390.861 178.672H388.533C388.797 176.296 390.429 175.12 393.525 175.12C396.285 175.12 397.893 176.512 397.893 179.056V184.696C397.893 184.96 398.013 185.08 398.277 185.08H399.261V187H397.389C396.597 187 396.141 186.568 396.141 185.8V185.464C395.469 186.64 394.101 187.336 392.301 187.336ZM390.285 183.664C390.285 184.72 391.149 185.416 392.565 185.416C394.437 185.416 395.685 184.336 395.685 182.368V181.624L392.469 181.864C390.981 181.96 390.285 182.728 390.285 183.664ZM401.475 187V175.456H403.539V176.968C404.235 175.72 405.627 175.12 407.187 175.12C410.019 175.12 411.795 176.848 411.795 180.04V187H409.467V180.256C409.467 178.192 408.459 177.232 406.755 177.232C404.979 177.232 403.803 178.456 403.803 180.328V187H401.475ZM415.016 187V175.456H417.344V187H415.016ZM414.872 173.128V170.368H417.464V173.128H414.872ZM425.672 187.336C422.216 187.336 419.984 184.768 419.984 181.264C419.984 177.664 422.336 175.12 425.816 175.12C428.744 175.12 430.736 176.824 431 179.248H428.624C428.408 178.168 427.448 177.232 425.792 177.232C423.728 177.232 422.384 178.792 422.384 181.216C422.384 183.688 423.752 185.224 425.744 185.224C427.304 185.224 428.432 184.312 428.672 182.968H431.048C430.736 185.272 428.816 187.336 425.672 187.336ZM443.074 187V172.456H437.794V170.2H450.754V172.456H445.474V187H443.074ZM451.017 187V175.456H453.081V177.328C453.369 176.176 454.233 175.456 455.601 175.456H457.809V177.496H455.385C453.945 177.496 453.345 178.312 453.345 179.872V187H451.017ZM462.691 187.336C460.027 187.336 458.347 185.944 458.347 183.736C458.347 181.672 459.739 180.184 462.571 180.016L466.075 179.824V179.176C466.075 177.664 465.331 177.04 463.747 177.04C462.211 177.04 461.443 177.448 461.251 178.672H458.923C459.187 176.296 460.819 175.12 463.915 175.12C466.675 175.12 468.283 176.512 468.283 179.056V184.696C468.283 184.96 468.403 185.08 468.667 185.08H469.651V187H467.779C466.987 187 466.531 186.568 466.531 185.8V185.464C465.859 186.64 464.491 187.336 462.691 187.336ZM460.675 183.664C460.675 184.72 461.539 185.416 462.955 185.416C464.827 185.416 466.075 184.336 466.075 182.368V181.624L462.859 181.864C461.371 181.96 460.675 182.728 460.675 183.664ZM473.117 173.344C473.117 171.328 474.293 170.2 476.285 170.2H480.029V172.24H476.765C475.925 172.24 475.421 172.672 475.421 173.584V175.456H479.309V177.496H475.421V187H473.117V177.496H470.069V175.456H473.117V173.344ZM483.307 173.344C483.307 171.328 484.483 170.2 486.475 170.2H490.219V172.24H486.955C486.115 172.24 485.611 172.672 485.611 173.584V175.456H489.499V177.496H485.611V187H483.307V177.496H480.259V175.456H483.307V173.344ZM491.612 187V175.456H493.94V187H491.612ZM491.468 173.128V170.368H494.06V173.128H491.468ZM502.268 187.336C498.812 187.336 496.58 184.768 496.58 181.264C496.58 177.664 498.932 175.12 502.412 175.12C505.34 175.12 507.332 176.824 507.596 179.248H505.22C505.004 178.168 504.044 177.232 502.388 177.232C500.324 177.232 498.98 178.792 498.98 181.216C498.98 183.688 500.348 185.224 502.34 185.224C503.9 185.224 505.028 184.312 505.268 182.968H507.644C507.332 185.272 505.412 187.336 502.268 187.336Z" fill="#0D0D0D"/>
<path d="M1028.13 187V170.2H1035.09C1038.59 170.2 1040.66 172.072 1040.66 175.144C1040.66 178.24 1038.59 180.136 1035.09 180.136H1030.53V187H1028.13ZM1030.53 177.904H1034.99C1037.06 177.904 1038.21 176.896 1038.21 175.144C1038.21 173.44 1037.06 172.456 1034.99 172.456H1030.53V177.904ZM1042.88 187V175.456H1044.95V177.328C1045.23 176.176 1046.1 175.456 1047.47 175.456H1049.67V177.496H1047.25C1045.81 177.496 1045.21 178.312 1045.21 179.872V187H1042.88ZM1056.15 187.336C1052.64 187.336 1050.19 184.888 1050.19 181.216C1050.19 177.568 1052.64 175.12 1056.15 175.12C1059.67 175.12 1062.1 177.568 1062.1 181.216C1062.1 184.888 1059.67 187.336 1056.15 187.336ZM1052.59 181.216C1052.59 183.616 1054.03 185.224 1056.15 185.224C1058.28 185.224 1059.7 183.616 1059.7 181.216C1059.7 178.84 1058.28 177.232 1056.15 177.232C1054.03 177.232 1052.59 178.84 1052.59 181.216ZM1069.56 187.336C1066.27 187.336 1064.02 184.888 1064.02 181.216C1064.02 177.568 1066.27 175.12 1069.56 175.12C1071.24 175.12 1072.61 175.744 1073.33 176.872V170.2H1075.63V187H1073.57V185.392C1072.8 186.616 1071.36 187.336 1069.56 187.336ZM1066.42 181.216C1066.42 183.616 1067.83 185.224 1069.92 185.224C1072.01 185.224 1073.38 183.616 1073.38 181.216C1073.38 178.84 1072.01 177.232 1069.92 177.232C1067.83 177.232 1066.42 178.84 1066.42 181.216ZM1083.39 187.336C1080.59 187.336 1078.86 185.608 1078.86 182.416V175.456H1081.19V182.2C1081.19 184.264 1082.15 185.224 1083.83 185.224C1085.58 185.224 1086.71 183.976 1086.71 182.128V175.456H1089.03V187H1086.97V185.68C1086.2 186.808 1084.88 187.336 1083.39 187.336ZM1097.3 187.336C1093.85 187.336 1091.61 184.768 1091.61 181.264C1091.61 177.664 1093.97 175.12 1097.45 175.12C1100.37 175.12 1102.37 176.824 1102.63 179.248H1100.25C1100.04 178.168 1099.08 177.232 1097.42 177.232C1095.36 177.232 1094.01 178.792 1094.01 181.216C1094.01 183.688 1095.38 185.224 1097.37 185.224C1098.93 185.224 1100.06 184.312 1100.3 182.968H1102.68C1102.37 185.272 1100.45 187.336 1097.3 187.336ZM1109.19 187C1107.19 187 1106.33 186.208 1106.33 184.216V177.496H1103.31V175.456H1106.33V172H1108.66V175.456H1112.28V177.496H1108.66V183.76C1108.66 184.6 1108.99 184.96 1109.88 184.96H1112.28V187H1109.19ZM1124.28 187V172.456H1119V170.2H1131.96V172.456H1126.68V187H1124.28ZM1132.23 187V175.456H1134.29V177.328C1134.58 176.176 1135.44 175.456 1136.81 175.456H1139.02V177.496H1136.6C1135.16 177.496 1134.56 178.312 1134.56 179.872V187H1132.23ZM1143.9 187.336C1141.24 187.336 1139.56 185.944 1139.56 183.736C1139.56 181.672 1140.95 180.184 1143.78 180.016L1147.29 179.824V179.176C1147.29 177.664 1146.54 177.04 1144.96 177.04C1143.42 177.04 1142.65 177.448 1142.46 178.672H1140.13C1140.4 176.296 1142.03 175.12 1145.13 175.12C1147.89 175.12 1149.49 176.512 1149.49 179.056V184.696C1149.49 184.96 1149.61 185.08 1149.88 185.08H1150.86V187H1148.99C1148.2 187 1147.74 186.568 1147.74 185.8V185.464C1147.07 186.64 1145.7 187.336 1143.9 187.336ZM1141.89 183.664C1141.89 184.72 1142.75 185.416 1144.17 185.416C1146.04 185.416 1147.29 184.336 1147.29 182.368V181.624L1144.07 181.864C1142.58 181.96 1141.89 182.728 1141.89 183.664ZM1154.33 173.344C1154.33 171.328 1155.5 170.2 1157.5 170.2H1161.24V172.24H1157.98C1157.14 172.24 1156.63 172.672 1156.63 173.584V175.456H1160.52V177.496H1156.63V187H1154.33V177.496H1151.28V175.456H1154.33V173.344ZM1164.52 173.344C1164.52 171.328 1165.69 170.2 1167.69 170.2H1171.43V172.24H1168.17C1167.33 172.24 1166.82 172.672 1166.82 173.584V175.456H1170.71V177.496H1166.82V187H1164.52V177.496H1161.47V175.456H1164.52V173.344ZM1172.82 187V175.456H1175.15V187H1172.82ZM1172.68 173.128V170.368H1175.27V173.128H1172.68ZM1183.48 187.336C1180.02 187.336 1177.79 184.768 1177.79 181.264C1177.79 177.664 1180.14 175.12 1183.62 175.12C1186.55 175.12 1188.54 176.824 1188.81 179.248H1186.43C1186.21 178.168 1185.25 177.232 1183.6 177.232C1181.53 177.232 1180.19 178.792 1180.19 181.216C1180.19 183.688 1181.56 185.224 1183.55 185.224C1185.11 185.224 1186.24 184.312 1186.48 182.968H1188.85C1188.54 185.272 1186.62 187.336 1183.48 187.336Z" fill="#0D0D0D"/>
<rect x="129.5" y="473.5" width="128.625" height="45" rx="15.5" fill="#CECCC9"/>
<rect x="129.5" y="473.5" width="128.625" height="45" rx="15.5" stroke="#BFBDBA"/>
<path d="M159.413 491V488.088H166.453C169.205 488.088 171.093 486.424 171.093 483.96C171.093 481.528 169.365 479.864 166.453 479.864H159.957V468.6H173.333V471.512H163.061V477.048H166.805C171.349 477.048 174.325 479.768 174.325 483.832C174.325 488.088 171.189 491 166.453 491H159.413ZM177.551 491V486.616H181.391V491H177.551ZM186.457 487.064C186.457 482.936 188.377 481.016 191.961 479.992L195.097 479.096C197.561 478.392 198.713 477.208 198.713 475.192C198.713 472.984 197.145 471.512 194.745 471.512H187.545V468.6H194.745C199.001 468.6 201.945 471.192 201.945 475.192C201.945 478.424 199.769 480.632 196.633 481.592L192.793 482.744C190.585 483.416 189.689 484.504 189.689 486.52V488.088H201.753V491H186.457V487.064ZM209.218 467.832C210.796 467.832 211.991 468.461 212.802 469.72C213.612 470.957 214.018 472.707 214.018 474.968C214.018 477.229 213.623 479 212.834 480.28C212.066 481.539 210.86 482.168 209.218 482.168C208.215 482.168 207.362 481.88 206.658 481.304C205.954 480.728 205.42 479.907 205.058 478.84C204.716 477.752 204.546 476.461 204.546 474.968C204.546 472.707 204.919 470.957 205.666 469.72C206.412 468.461 207.596 467.832 209.218 467.832ZM209.218 469.816C208.407 469.816 207.81 470.253 207.426 471.128C207.063 471.981 206.882 473.261 206.882 474.968C206.882 476.675 207.063 477.965 207.426 478.84C207.81 479.715 208.407 480.152 209.218 480.152C210.05 480.152 210.668 479.725 211.074 478.872C211.479 477.997 211.682 476.696 211.682 474.968C211.682 473.261 211.479 471.981 211.074 471.128C210.668 470.253 210.05 469.816 209.218 469.816ZM223.842 468.152L211.17 491H208.706L221.378 468.152H223.842ZM223.202 476.984C224.247 476.984 225.122 477.272 225.826 477.848C226.53 478.403 227.063 479.213 227.426 480.28C227.81 481.325 228.002 482.605 228.002 484.12C228.002 486.381 227.607 488.152 226.818 489.432C226.05 490.691 224.844 491.32 223.202 491.32C222.199 491.32 221.346 491.032 220.642 490.456C219.938 489.88 219.404 489.059 219.042 487.992C218.7 486.904 218.53 485.613 218.53 484.12C218.53 481.859 218.903 480.109 219.65 478.872C220.396 477.613 221.58 476.984 223.202 476.984ZM223.202 479C222.391 479 221.794 479.427 221.41 480.28C221.047 481.133 220.866 482.413 220.866 484.12C220.866 485.848 221.047 487.149 221.41 488.024C221.794 488.877 222.391 489.304 223.202 489.304C224.034 489.304 224.652 488.877 225.058 488.024C225.463 487.171 225.666 485.869 225.666 484.12C225.666 482.413 225.463 481.133 225.058 480.28C224.652 479.427 224.034 479 223.202 479Z" fill="#0D0D0D"/>
<rect x="278.625" y="255" width="129.625" height="264" rx="16" fill="#0D0D0D"/>
<path d="M311.782 491V488.088H318.822C322.022 488.088 323.878 486.584 323.878 484.088C323.878 481.784 322.086 480.344 318.982 480.344H315.622V477.752L322.118 471.512H311.462V468.6H326.214V471.512L319.462 477.816H319.878C324.294 477.816 327.11 480.312 327.11 484.056C327.11 488.248 323.782 491 318.822 491H311.782ZM339.306 491.448C333.226 491.448 330.314 487.32 330.314 479.8C330.314 472.28 333.226 468.152 339.306 468.152C345.386 468.152 348.298 472.28 348.298 479.8C348.298 487.32 345.386 491.448 339.306 491.448ZM333.546 479.8C333.546 485.656 335.338 488.696 339.306 488.696C343.242 488.696 345.034 485.656 345.034 479.8C345.034 473.944 343.242 470.904 339.306 470.904C335.338 470.904 333.546 473.944 333.546 479.8ZM355.913 467.832C357.491 467.832 358.686 468.461 359.497 469.72C360.307 470.957 360.713 472.707 360.713 474.968C360.713 477.229 360.318 479 359.529 480.28C358.761 481.539 357.555 482.168 355.913 482.168C354.91 482.168 354.057 481.88 353.353 481.304C352.649 480.728 352.115 479.907 351.753 478.84C351.411 477.752 351.241 476.461 351.241 474.968C351.241 472.707 351.614 470.957 352.361 469.72C353.107 468.461 354.291 467.832 355.913 467.832ZM355.913 469.816C355.102 469.816 354.505 470.253 354.121 471.128C353.758 471.981 353.577 473.261 353.577 474.968C353.577 476.675 353.758 477.965 354.121 478.84C354.505 479.715 355.102 480.152 355.913 480.152C356.745 480.152 357.363 479.725 357.769 478.872C358.174 477.997 358.377 476.696 358.377 474.968C358.377 473.261 358.174 471.981 357.769 471.128C357.363 470.253 356.745 469.816 355.913 469.816ZM370.537 468.152L357.865 491H355.401L368.073 468.152H370.537ZM369.897 476.984C370.942 476.984 371.817 477.272 372.521 477.848C373.225 478.403 373.758 479.213 374.121 480.28C374.505 481.325 374.697 482.605 374.697 484.12C374.697 486.381 374.302 488.152 373.513 489.432C372.745 490.691 371.539 491.32 369.897 491.32C368.894 491.32 368.041 491.032 367.337 490.456C366.633 489.88 366.099 489.059 365.737 487.992C365.395 486.904 365.225 485.613 365.225 484.12C365.225 481.859 365.598 480.109 366.345 478.872C367.091 477.613 368.275 476.984 369.897 476.984ZM369.897 479C369.086 479 368.489 479.427 368.105 480.28C367.742 481.133 367.561 482.413 367.561 484.12C367.561 485.848 367.742 487.149 368.105 488.024C368.489 488.877 369.086 489.304 369.897 489.304C370.729 489.304 371.347 488.877 371.753 488.024C372.158 487.171 372.361 485.869 372.361 484.12C372.361 482.413 372.158 481.133 371.753 480.28C371.347 479.427 370.729 479 369.897 479Z" fill="white"/>
<path d="M250.894 561V548.88H246.494V547H257.294V548.88H252.894V561H250.894ZM261.443 561.28C258.523 561.28 256.483 559.24 256.483 556.18C256.483 553.14 258.523 551.1 261.443 551.1C264.383 551.1 266.403 553.14 266.403 556.18C266.403 559.24 264.383 561.28 261.443 561.28ZM258.483 556.18C258.483 558.18 259.683 559.52 261.443 559.52C263.223 559.52 264.403 558.18 264.403 556.18C264.403 554.2 263.223 552.86 261.443 552.86C259.683 552.86 258.483 554.2 258.483 556.18ZM271.927 561C270.267 561 269.547 560.34 269.547 558.68V553.08H267.027V551.38H269.547V548.5H271.487V551.38H274.507V553.08H271.487V558.3C271.487 559 271.767 559.3 272.507 559.3H274.507V561H271.927ZM279.191 561.28C276.971 561.28 275.571 560.12 275.571 558.28C275.571 556.56 276.731 555.32 279.091 555.18L282.011 555.02V554.48C282.011 553.22 281.391 552.7 280.071 552.7C278.791 552.7 278.151 553.04 277.991 554.06H276.051C276.271 552.08 277.631 551.1 280.211 551.1C282.511 551.1 283.851 552.26 283.851 554.38V559.08C283.851 559.3 283.951 559.4 284.171 559.4H284.991V561H283.431C282.771 561 282.391 560.64 282.391 560V559.72C281.831 560.7 280.691 561.28 279.191 561.28ZM277.511 558.22C277.511 559.1 278.231 559.68 279.411 559.68C280.971 559.68 282.011 558.78 282.011 557.14V556.52L279.331 556.72C278.091 556.8 277.511 557.44 277.511 558.22ZM288.776 561C287.416 561 286.836 560.48 286.836 559.18V547H288.776V558.58C288.776 559.08 288.956 559.3 289.456 559.3H290.676V561H288.776Z" fill="#0D0D0D"/>
<rect x="237.125" y="575.5" width="63" height="20" rx="10" stroke="#0B8900"/>
<path d="M247.119 584.568H249.905V585.562H247.119V588.446H246.111V585.562H243.325V584.568H246.111V581.67H247.119V584.568ZM251.337 590V588.726H254.417C255.621 588.726 256.447 587.998 256.447 586.92C256.447 585.856 255.691 585.128 254.417 585.128H251.575V580.2H257.427V581.474H252.933V583.896H254.571C256.559 583.896 257.861 585.086 257.861 586.864C257.861 588.726 256.489 590 254.417 590H251.337ZM259.412 590V588.082H261.092V590H259.412ZM263.988 587.746C263.988 585.548 264.338 584.106 266.004 582.51L267.082 581.474H261.804V580.2H268.916V581.474L267.194 583.098C265.878 584.372 265.402 585.45 265.402 587.676V590H263.988V587.746ZM270.092 590V588.726H273.172C274.572 588.726 275.384 588.068 275.384 586.976C275.384 585.968 274.6 585.338 273.242 585.338H271.772V584.204L274.614 581.474H269.952V580.2H276.406V581.474L273.452 584.232H273.634C275.566 584.232 276.798 585.324 276.798 586.962C276.798 588.796 275.342 590 273.172 590H270.092ZM277.425 590L280.043 586.528L277.565 583.266H279.217L280.925 585.59L282.619 583.266H284.271L281.793 586.528L284.411 590H282.759L280.925 587.536L279.077 590H277.425Z" fill="#0B8900"/>
<path fill-rule="evenodd" clip-rule="evenodd" d="M287.625 585.625L291.125 580L294.625 585.625H291.731V590H290.519V585.625H287.625Z" fill="#0B8900"/>
<rect x="448.75" y="514.5" width="128.625" height="4" rx="2" fill="#CECCC9"/>
<rect x="448.75" y="514.5" width="128.625" height="4" rx="2" stroke="#BFBDBA"/>
<path d="M483.035 487.064C483.035 482.936 484.955 481.016 488.539 479.992L491.675 479.096C494.139 478.392 495.291 477.208 495.291 475.192C495.291 472.984 493.723 471.512 491.323 471.512H484.123V468.6H491.323C495.579 468.6 498.523 471.192 498.523 475.192C498.523 478.424 496.347 480.632 493.211 481.592L489.371 482.744C487.163 483.416 486.266 484.504 486.266 486.52V488.088H498.331V491H483.035V487.064ZM502.207 491V486.616H506.047V491H502.207ZM517.08 468.152C522.104 468.152 525.624 471.576 525.624 478.488C525.624 486.168 522.648 491 515.128 491H510.84V488.088H515.128C520.312 488.088 522.2 485.464 522.456 480.536C521.464 482.104 519.416 483.224 516.6 483.224C512.088 483.224 508.92 480.088 508.92 475.768C508.92 471.384 512.248 468.152 517.08 468.152ZM512.152 475.672C512.152 478.456 514.232 480.376 517.176 480.376C520.12 480.376 522.168 478.488 522.168 475.672C522.168 472.888 520.12 470.968 517.176 470.968C514.232 470.968 512.152 472.888 512.152 475.672ZM539.583 491L534.335 484.088H532.703V491H529.599V468.6H532.703V481.208H534.335L539.519 475.608H543.327L537.055 482.584L543.327 491H539.583Z" fill="#0D0D0D"/>
<rect x="597.875" y="507" width="129.625" height="12" rx="6" fill="#0D0D0D"/>
<path d="M654.364 491.448C648.956 491.448 645.852 488.632 645.852 484.664C645.852 482.072 647.484 479.896 649.98 479.096C647.74 478.328 646.492 476.344 646.492 474.2C646.492 470.648 649.596 468.152 654.364 468.152C659.164 468.152 662.267 470.648 662.267 474.2C662.267 476.344 661.02 478.328 658.78 479.096C661.276 479.896 662.908 482.072 662.908 484.664C662.908 488.632 659.804 491.448 654.364 491.448ZM649.052 484.568C649.052 487 650.94 488.76 654.364 488.76C657.82 488.76 659.708 487 659.708 484.568C659.708 482.104 657.692 480.472 654.364 480.472C651.068 480.472 649.052 482.104 649.052 484.568ZM649.692 474.392C649.692 476.472 651.484 477.848 654.364 477.848C657.244 477.848 659.068 476.472 659.068 474.392C659.068 472.312 657.34 470.84 654.364 470.84C651.42 470.84 649.692 472.312 649.692 474.392ZM676.723 491L671.475 484.088H669.843V491H666.739V468.6H669.843V481.208H671.475L676.659 475.608H680.467L674.195 482.584L680.467 491H676.723Z" fill="#0D0D0D"/>
<path d="M568.16 561L563.12 547H565.36L569.52 558.82L573.66 547H575.92L570.88 561H568.16ZM577.616 561V551.38H579.556V561H577.616ZM577.496 549.44V547.14H579.656V549.44H577.496ZM585.814 561.28C583.214 561.28 581.674 560.24 581.574 558.26H583.574C583.674 559.22 584.454 559.7 585.854 559.7C587.134 559.7 587.914 559.16 587.914 558.28C587.914 557.56 587.374 557.14 586.374 557.04L584.834 556.88C583.034 556.7 581.894 555.7 581.894 554.1C581.894 552.26 583.434 551.1 585.794 551.1C588.194 551.1 589.674 552.1 589.794 554.06H587.854C587.794 553.14 587.034 552.68 585.774 552.68C584.574 552.68 583.814 553.18 583.814 554C583.814 554.7 584.334 555.08 585.454 555.22L587.014 555.4C588.834 555.6 589.874 556.62 589.874 558.2C589.874 560.08 588.294 561.28 585.814 561.28ZM591.981 561V551.38H593.921V561H591.981ZM591.861 549.44V547.14H594.021V549.44H591.861ZM600.36 561C598.7 561 597.98 560.34 597.98 558.68V553.08H595.46V551.38H597.98V548.5H599.92V551.38H602.94V553.08H599.92V558.3C599.92 559 600.2 559.3 600.94 559.3H602.94V561H600.36ZM608.183 561.28C605.583 561.28 604.043 560.24 603.943 558.26H605.943C606.043 559.22 606.823 559.7 608.223 559.7C609.503 559.7 610.283 559.16 610.283 558.28C610.283 557.56 609.743 557.14 608.743 557.04L607.203 556.88C605.403 556.7 604.263 555.7 604.263 554.1C604.263 552.26 605.803 551.1 608.163 551.1C610.563 551.1 612.043 552.1 612.163 554.06H610.223C610.163 553.14 609.403 552.68 608.143 552.68C606.943 552.68 606.183 553.18 606.183 554C606.183 554.7 606.703 555.08 607.823 555.22L609.383 555.4C611.203 555.6 612.243 556.62 612.243 558.2C612.243 560.08 610.663 561.28 608.183 561.28Z" fill="#0D0D0D"/>
<rect x="555.875" y="575.5" width="64" height="20" rx="10" stroke="#0B8900"/>
<path d="M566.281 584.568H569.067V585.562H566.281V588.446H565.273V585.562H562.487V584.568H565.273V581.67H566.281V584.568ZM570.443 588.278C570.443 586.472 571.283 585.632 572.851 585.184L574.223 584.792C575.301 584.484 575.805 583.966 575.805 583.084C575.805 582.118 575.119 581.474 574.069 581.474H570.919V580.2H574.069C575.931 580.2 577.219 581.334 577.219 583.084C577.219 584.498 576.267 585.464 574.895 585.884L573.215 586.388C572.249 586.682 571.857 587.158 571.857 588.04V588.726H577.135V590H570.443V588.278ZM578.971 590V588.082H580.651V590H578.971ZM583.547 587.746C583.547 585.548 583.897 584.106 585.563 582.51L586.641 581.474H581.363V580.2H588.475V581.474L586.753 583.098C585.437 584.372 584.961 585.45 584.961 587.676V590H583.547V587.746ZM592.996 590.196C590.798 590.196 589.258 588.698 589.258 585.674C589.258 582.314 590.56 580.2 593.85 580.2H595.726V581.474H593.85C591.582 581.474 590.756 582.622 590.644 584.778C591.078 584.092 591.974 583.602 593.206 583.602C595.18 583.602 596.566 584.974 596.566 586.864C596.566 588.782 595.11 590.196 592.996 590.196ZM590.77 586.906C590.77 588.124 591.666 588.964 592.954 588.964C594.242 588.964 595.152 588.124 595.152 586.906C595.152 585.688 594.242 584.848 592.954 584.848C591.666 584.848 590.77 585.674 590.77 586.906ZM597.175 590L599.793 586.528L597.315 583.266H598.967L600.675 585.59L602.369 583.266H604.021L601.543 586.528L604.161 590H602.509L600.675 587.536L598.827 590H597.175Z" fill="#0B8900"/>
<path fill-rule="evenodd" clip-rule="evenodd" d="M607.375 585.625L610.875 580L614.375 585.625H611.481V590H610.269V585.625H607.375Z" fill="#0B8900"/>
<rect x="767.5" y="255" width="1" height="264" rx="0.5" fill="#B5B2B0"/>
<rect x="809" y="505.5" width="128.625" height="13" rx="6.5" fill="#CECCC9"/>
<rect x="809" y="505.5" width="128.625" height="13" rx="6.5" stroke="#BFBDBA"/>
<path d="M864.189 468.152C869.213 468.152 872.733 471.576 872.733 478.488C872.733 486.168 869.757 491 862.237 491H857.949V488.088H862.237C867.421 488.088 869.309 485.464 869.565 480.536C868.573 482.104 866.525 483.224 863.709 483.224C859.197 483.224 856.029 480.088 856.029 475.768C856.029 471.384 859.357 468.152 864.189 468.152ZM859.261 475.672C859.261 478.456 861.341 480.376 864.285 480.376C867.229 480.376 869.277 478.488 869.277 475.672C869.277 472.888 867.229 470.968 864.285 470.968C861.341 470.968 859.261 472.888 859.261 475.672ZM886.691 491L881.443 484.088H879.811V491H876.707V468.6H879.811V481.208H881.443L886.627 475.608H890.435L884.163 482.584L890.435 491H886.691Z" fill="#0D0D0D"/>
<rect x="958.125" y="496" width="129.625" height="23" rx="11.5" fill="#0D0D0D"/>
<path d="M984.026 491V488.088H989.882V471.576H985.818V468.6H992.986V488.088H998.746V491H984.026ZM1011.2 491V484.344H999.2V481.528L1009.98 468.6H1014.3V481.528H1017.98V484.344H1014.3V491H1011.2ZM1002.66 481.528H1011.2V471.288L1002.66 481.528ZM1020.42 491V486.616H1024.26V491H1020.42ZM1035.29 468.152C1040.32 468.152 1043.84 471.576 1043.84 478.488C1043.84 486.168 1040.86 491 1033.34 491H1029.05V488.088H1033.34C1038.52 488.088 1040.41 485.464 1040.67 480.536C1039.68 482.104 1037.63 483.224 1034.81 483.224C1030.3 483.224 1027.13 480.088 1027.13 475.768C1027.13 471.384 1030.46 468.152 1035.29 468.152ZM1030.36 475.672C1030.36 478.456 1032.44 480.376 1035.39 480.376C1038.33 480.376 1040.38 478.488 1040.38 475.672C1040.38 472.888 1038.33 470.968 1035.39 470.968C1032.44 470.968 1030.36 472.888 1030.36 475.672ZM1057.79 491L1052.55 484.088H1050.91V491H1047.81V468.6H1050.91V481.208H1052.55L1057.73 475.608H1061.54L1055.27 482.584L1061.54 491H1057.79Z" fill="#0D0D0D"/>
<path d="M929.664 561.28C926.344 561.28 924.344 559.2 924.344 555.74V547H926.344V555.62C926.344 558.06 927.564 559.4 929.664 559.4C931.764 559.4 932.984 558.06 932.984 555.62V547H935.004V555.74C935.004 559.2 933.004 561.28 929.664 561.28ZM941.252 561.28C938.652 561.28 937.112 560.24 937.012 558.26H939.012C939.112 559.22 939.892 559.7 941.292 559.7C942.572 559.7 943.352 559.16 943.352 558.28C943.352 557.56 942.812 557.14 941.812 557.04L940.272 556.88C938.472 556.7 937.332 555.7 937.332 554.1C937.332 552.26 938.872 551.1 941.232 551.1C943.632 551.1 945.112 552.1 945.232 554.06H943.292C943.232 553.14 942.472 552.68 941.212 552.68C940.012 552.68 939.252 553.18 939.252 554C939.252 554.7 939.772 555.08 940.892 555.22L942.452 555.4C944.272 555.6 945.312 556.62 945.312 558.2C945.312 560.08 943.732 561.28 941.252 561.28ZM951.638 561.28C948.758 561.28 946.838 559.26 946.838 556.14C946.838 553.04 948.758 551.1 951.498 551.1C954.358 551.1 956.118 552.96 956.118 555.9C956.118 556.16 956.098 556.42 956.058 556.82H948.758C948.838 558.58 949.918 559.64 951.638 559.64C952.778 559.64 953.578 559.12 953.958 558.26H955.938C955.338 560.12 953.858 561.28 951.638 561.28ZM948.758 555.3H954.158V555.2C954.158 553.72 953.198 552.66 951.498 552.66C949.878 552.66 948.838 553.74 948.758 555.3ZM958.255 561V551.38H959.975V552.94C960.215 551.98 960.935 551.38 962.075 551.38H963.915V553.08H961.895C960.695 553.08 960.195 553.76 960.195 555.06V561H958.255ZM968.719 561.28C966.119 561.28 964.579 560.24 964.479 558.26H966.479C966.579 559.22 967.359 559.7 968.759 559.7C970.039 559.7 970.819 559.16 970.819 558.28C970.819 557.56 970.279 557.14 969.279 557.04L967.739 556.88C965.939 556.7 964.799 555.7 964.799 554.1C964.799 552.26 966.339 551.1 968.699 551.1C971.099 551.1 972.579 552.1 972.699 554.06H970.759C970.699 553.14 969.939 552.68 968.679 552.68C967.479 552.68 966.719 553.18 966.719 554C966.719 554.7 967.239 555.08 968.359 555.22L969.919 555.4C971.739 555.6 972.779 556.62 972.779 558.2C972.779 560.08 971.199 561.28 968.719 561.28Z" fill="#0D0D0D"/>
<rect x="915.625" y="575.5" width="65" height="20" rx="10" stroke="#0B8900"/>
<path d="M925.814 584.568H928.6V585.562H925.814V588.446H924.806V585.562H922.02V584.568H924.806V581.67H925.814V584.568ZM929.808 590V588.726H932.37V581.502H930.592V580.2H933.728V588.726H936.248V590H929.808ZM937.875 590V588.082H939.555V590H937.875ZM944.968 590.196C942.77 590.196 941.23 588.698 941.23 585.674C941.23 582.314 942.532 580.2 945.822 580.2H947.698V581.474H945.822C943.554 581.474 942.728 582.622 942.616 584.778C943.05 584.092 943.946 583.602 945.178 583.602C947.152 583.602 948.538 584.974 948.538 586.864C948.538 588.782 947.082 590.196 944.968 590.196ZM942.742 586.906C942.742 588.124 943.638 588.964 944.926 588.964C946.214 588.964 947.124 588.124 947.124 586.906C947.124 585.688 946.214 584.848 944.926 584.848C943.638 584.848 942.742 585.674 942.742 586.906ZM953.746 590.196C951.548 590.196 950.008 588.698 950.008 585.674C950.008 582.314 951.31 580.2 954.6 580.2H956.476V581.474H954.6C952.332 581.474 951.506 582.622 951.394 584.778C951.828 584.092 952.724 583.602 953.956 583.602C955.93 583.602 957.316 584.974 957.316 586.864C957.316 588.782 955.86 590.196 953.746 590.196ZM951.52 586.906C951.52 588.124 952.416 588.964 953.704 588.964C954.992 588.964 955.902 588.124 955.902 586.906C955.902 585.688 954.992 584.848 953.704 584.848C952.416 584.848 951.52 585.674 951.52 586.906ZM957.925 590L960.543 586.528L958.065 583.266H959.717L961.425 585.59L963.119 583.266H964.771L962.293 586.528L964.911 590H963.259L961.425 587.536L959.577 590H957.925Z" fill="#0B8900"/>
<path fill-rule="evenodd" clip-rule="evenodd" d="M968.125 585.625L971.625 580L975.125 585.625H972.231V590H971.019V585.625H968.125Z" fill="#0B8900"/>
<rect x="1128.25" y="430.5" width="128.625" height="88" rx="15.5" fill="#CECCC9"/>
<rect x="1128.25" y="430.5" width="128.625" height="88" rx="15.5" stroke="#BFBDBA"/>
<path d="M1156.66 491V488.088H1163.7C1166.45 488.088 1168.34 486.424 1168.34 483.96C1168.34 481.528 1166.61 479.864 1163.7 479.864H1157.21V468.6H1170.58V471.512H1160.31V477.048H1164.05C1168.6 477.048 1171.57 479.768 1171.57 483.832C1171.57 488.088 1168.44 491 1163.7 491H1156.66ZM1178.54 485.848C1178.54 480.824 1179.34 477.528 1183.15 473.88L1185.61 471.512H1173.55V468.6H1189.81V471.512L1185.87 475.224C1182.86 478.136 1181.77 480.6 1181.77 485.688V491H1178.54V485.848ZM1189.29 491V486.616H1193.13V491H1189.29ZM1197.05 491V488.088H1204.09C1206.84 488.088 1208.73 486.424 1208.73 483.96C1208.73 481.528 1207 479.864 1204.09 479.864H1197.59V468.6H1210.97V471.512H1200.69V477.048H1204.44C1208.98 477.048 1211.96 479.768 1211.96 483.832C1211.96 488.088 1208.82 491 1204.09 491H1197.05ZM1225.48 491L1220.23 484.088H1218.6V491H1215.5V468.6H1218.6V481.208H1220.23L1225.42 475.608H1229.23L1222.95 482.584L1229.23 491H1225.48Z" fill="#0D0D0D"/>
<rect x="1277.38" y="255" width="129.625" height="264" rx="16" fill="#0D0D0D"/>
<path d="M1310.78 491V488.088H1316.63V471.576H1312.57V468.6H1319.74V488.088H1325.5V491H1310.78ZM1330.32 485.848C1330.32 480.824 1331.12 477.528 1334.93 473.88L1337.39 471.512H1325.33V468.6H1341.59V471.512L1337.65 475.224C1334.64 478.136 1333.55 480.6 1333.55 485.688V491H1330.32V485.848ZM1342.92 491V488.088H1348.77V471.576H1344.71V468.6H1351.88V488.088H1357.64V491H1342.92ZM1370.33 491L1365.08 484.088H1363.45V491H1360.35V468.6H1363.45V481.208H1365.08L1370.27 475.608H1374.08L1367.8 482.584L1374.08 491H1370.33Z" fill="white"/>
<path d="M1245.83 561L1240.79 547H1243.03L1247.19 558.82L1251.33 547H1253.59L1248.55 561H1245.83ZM1255.29 561V551.38H1257.23V561H1255.29ZM1255.17 549.44V547.14H1257.33V549.44H1255.17ZM1264.23 561.28C1261.35 561.28 1259.43 559.26 1259.43 556.14C1259.43 553.04 1261.35 551.1 1264.09 551.1C1266.95 551.1 1268.71 552.96 1268.71 555.9C1268.71 556.16 1268.69 556.42 1268.65 556.82H1261.35C1261.43 558.58 1262.51 559.64 1264.23 559.64C1265.37 559.64 1266.17 559.12 1266.55 558.26H1268.53C1267.93 560.12 1266.45 561.28 1264.23 561.28ZM1261.35 555.3H1266.75V555.2C1266.75 553.72 1265.79 552.66 1264.09 552.66C1262.47 552.66 1261.43 553.74 1261.35 555.3ZM1272.57 561L1269.59 551.38H1271.61L1273.75 558.84L1275.89 551.38H1278.11L1280.25 558.84L1282.39 551.38H1284.41L1281.43 561H1279.15L1277.01 553.58L1274.85 561H1272.57ZM1289.51 561.28C1286.91 561.28 1285.37 560.24 1285.27 558.26H1287.27C1287.37 559.22 1288.15 559.7 1289.55 559.7C1290.83 559.7 1291.61 559.16 1291.61 558.28C1291.61 557.56 1291.07 557.14 1290.07 557.04L1288.53 556.88C1286.73 556.7 1285.59 555.7 1285.59 554.1C1285.59 552.26 1287.13 551.1 1289.49 551.1C1291.89 551.1 1293.37 552.1 1293.49 554.06H1291.55C1291.49 553.14 1290.73 552.68 1289.47 552.68C1288.27 552.68 1287.51 553.18 1287.51 554C1287.51 554.7 1288.03 555.08 1289.15 555.22L1290.71 555.4C1292.53 555.6 1293.57 556.62 1293.57 558.2C1293.57 560.08 1291.99 561.28 1289.51 561.28Z" fill="#0D0D0D"/>
<rect x="1234.38" y="575.5" width="66" height="20" rx="10" stroke="#0B8900"/>
<path d="M1244.48 584.568H1247.27V585.562H1244.48V588.446H1243.48V585.562H1240.69V584.568H1243.48V581.67H1244.48V584.568ZM1248.65 588.278C1248.65 586.472 1249.49 585.632 1251.05 585.184L1252.43 584.792C1253.5 584.484 1254.01 583.966 1254.01 583.084C1254.01 582.118 1253.32 581.474 1252.27 581.474H1249.12V580.2H1252.27C1254.13 580.2 1255.42 581.334 1255.42 583.084C1255.42 584.498 1254.47 585.464 1253.1 585.884L1251.42 586.388C1250.45 586.682 1250.06 587.158 1250.06 588.04V588.726H1255.34V590H1248.65V588.278ZM1257.17 590V588.082H1258.85V590H1257.17ZM1263.82 580.004C1266.02 580.004 1267.56 581.502 1267.56 584.526C1267.56 587.886 1266.26 590 1262.97 590H1261.09V588.726H1262.97C1265.23 588.726 1266.06 587.578 1266.17 585.422C1265.74 586.108 1264.84 586.598 1263.61 586.598C1261.64 586.598 1260.25 585.226 1260.25 583.336C1260.25 581.418 1261.71 580.004 1263.82 580.004ZM1261.66 583.294C1261.66 584.512 1262.57 585.352 1263.86 585.352C1265.15 585.352 1266.05 584.526 1266.05 583.294C1266.05 582.076 1265.15 581.236 1263.86 581.236C1262.57 581.236 1261.66 582.076 1261.66 583.294ZM1273 590.196C1270.64 590.196 1269.28 588.964 1269.28 587.228C1269.28 586.094 1269.99 585.142 1271.08 584.792C1270.1 584.456 1269.56 583.588 1269.56 582.65C1269.56 581.096 1270.92 580.004 1273 580.004C1275.1 580.004 1276.46 581.096 1276.46 582.65C1276.46 583.588 1275.91 584.456 1274.93 584.792C1276.03 585.142 1276.74 586.094 1276.74 587.228C1276.74 588.964 1275.38 590.196 1273 590.196ZM1270.68 587.186C1270.68 588.25 1271.5 589.02 1273 589.02C1274.51 589.02 1275.34 588.25 1275.34 587.186C1275.34 586.108 1274.46 585.394 1273 585.394C1271.56 585.394 1270.68 586.108 1270.68 587.186ZM1270.96 582.734C1270.96 583.644 1271.74 584.246 1273 584.246C1274.26 584.246 1275.06 583.644 1275.06 582.734C1275.06 581.824 1274.3 581.18 1273 581.18C1271.71 581.18 1270.96 581.824 1270.96 582.734ZM1277.67 590L1280.29 586.528L1277.81 583.266H1279.47L1281.17 585.59L1282.87 583.266H1284.52L1282.04 586.528L1284.66 590H1283.01L1281.17 587.536L1279.33 590H1277.67Z" fill="#0B8900"/>
<path fill-rule="evenodd" clip-rule="evenodd" d="M1287.88 585.625L1291.38 580L1294.88 585.625H1291.98V590H1290.77V585.625H1287.88Z" fill="#0B8900"/>
</g>
<defs>
<clipPath id="clip0_4638_114958">
<rect width="1278" height="432" fill="white" transform="translate(129 164)"/>
</clipPath>
</defs>
</svg>
