<svg width="1278" height="433" viewBox="0 0 1278 433" fill="none" xmlns="http://www.w3.org/2000/svg">
<g clip-path="url(#clip0_6624_23451)">
<path d="M238.374 14.812C238.374 16.572 238.014 18.132 237.294 19.492C236.59 20.836 235.606 21.892 234.342 22.66C233.094 23.412 231.646 23.788 229.998 23.788C228.382 23.788 226.942 23.412 225.678 22.66C224.43 21.892 223.454 20.836 222.75 19.492C222.046 18.148 221.694 16.588 221.694 14.812C221.694 13.052 222.046 11.5 222.75 10.156C223.47 8.812 224.454 7.756 225.702 6.988C226.95 6.22 228.39 5.836 230.022 5.836C231.67 5.836 233.118 6.22 234.366 6.988C235.614 7.756 236.59 8.812 237.294 10.156C238.014 11.5 238.374 13.052 238.374 14.812ZM235.902 14.812C235.902 13.468 235.654 12.292 235.158 11.284C234.678 10.276 233.998 9.5 233.118 8.956C232.238 8.396 231.206 8.116 230.022 8.116C228.854 8.116 227.83 8.396 226.95 8.956C226.07 9.5 225.382 10.276 224.886 11.284C224.406 12.292 224.166 13.468 224.166 14.812C224.166 16.156 224.406 17.332 224.886 18.34C225.382 19.348 226.07 20.132 226.95 20.692C227.83 21.252 228.854 21.532 230.022 21.532C231.206 21.532 232.238 21.252 233.118 20.692C233.998 20.116 234.678 19.324 235.158 18.316C235.654 17.308 235.902 16.14 235.902 14.812ZM247.478 11.668V13.732H246.47C245.398 13.732 244.55 14.044 243.926 14.668C243.318 15.276 243.014 16.148 243.014 17.284V23.5H240.758V11.788H242.87L243.062 14.14H242.846C243.006 13.372 243.39 12.748 243.998 12.268C244.606 11.772 245.366 11.524 246.278 11.524C246.486 11.524 246.678 11.54 246.854 11.572C247.046 11.588 247.254 11.62 247.478 11.668ZM248.352 17.332C248.352 16.228 248.576 15.236 249.024 14.356C249.472 13.46 250.112 12.748 250.944 12.22C251.776 11.692 252.76 11.428 253.896 11.428C254.952 11.428 255.856 11.684 256.608 12.196C257.36 12.692 257.896 13.388 258.216 14.284L257.928 14.596L258.168 11.764H260.184V23.02C260.184 24.252 259.944 25.316 259.464 26.212C258.984 27.124 258.304 27.828 257.424 28.324C256.544 28.82 255.504 29.068 254.304 29.068C252.704 29.068 251.392 28.644 250.368 27.796C249.344 26.948 248.72 25.78 248.496 24.292H250.752C250.896 25.156 251.28 25.828 251.904 26.308C252.528 26.788 253.328 27.028 254.304 27.028C255.408 27.028 256.288 26.692 256.944 26.02C257.616 25.364 257.952 24.476 257.952 23.356V20.044L258.24 20.356C257.936 21.236 257.384 21.932 256.584 22.444C255.784 22.94 254.856 23.188 253.8 23.188C252.68 23.188 251.712 22.932 250.896 22.42C250.08 21.892 249.448 21.188 249 20.308C248.568 19.428 248.352 18.436 248.352 17.332ZM250.608 17.284C250.608 18.02 250.752 18.684 251.04 19.276C251.344 19.868 251.76 20.34 252.288 20.692C252.832 21.044 253.464 21.22 254.184 21.22C254.952 21.22 255.608 21.052 256.152 20.716C256.696 20.38 257.112 19.916 257.4 19.324C257.704 18.732 257.856 18.052 257.856 17.284C257.856 16.516 257.712 15.844 257.424 15.268C257.136 14.692 256.72 14.236 256.176 13.9C255.632 13.564 254.976 13.396 254.208 13.396C253.456 13.396 252.808 13.572 252.264 13.924C251.736 14.276 251.328 14.748 251.04 15.34C250.752 15.916 250.608 16.564 250.608 17.284ZM266.632 23.788C265.384 23.788 264.4 23.46 263.68 22.804C262.976 22.148 262.624 21.292 262.624 20.236C262.624 19.164 263.008 18.308 263.776 17.668C264.544 17.012 265.616 16.628 266.992 16.516L270.688 16.228V15.892C270.688 15.236 270.568 14.716 270.328 14.332C270.088 13.932 269.76 13.652 269.344 13.492C268.928 13.316 268.456 13.228 267.928 13.228C266.984 13.228 266.248 13.428 265.72 13.828C265.208 14.212 264.952 14.764 264.952 15.484H262.984C262.984 14.668 263.192 13.956 263.608 13.348C264.024 12.74 264.608 12.268 265.36 11.932C266.128 11.596 267.016 11.428 268.024 11.428C269 11.428 269.848 11.604 270.568 11.956C271.304 12.292 271.872 12.812 272.272 13.516C272.688 14.204 272.896 15.076 272.896 16.132V23.5H270.976L270.736 21.604C270.432 22.276 269.904 22.812 269.152 23.212C268.416 23.596 267.576 23.788 266.632 23.788ZM267.28 22.036C268.352 22.036 269.192 21.716 269.8 21.076C270.408 20.42 270.712 19.54 270.712 18.436V17.812L267.712 18.052C266.72 18.148 266 18.38 265.552 18.748C265.12 19.116 264.904 19.588 264.904 20.164C264.904 20.788 265.112 21.26 265.528 21.58C265.96 21.884 266.544 22.036 267.28 22.036ZM278.036 23.5H275.78V11.764H277.82L278.06 13.564C278.428 12.892 278.956 12.372 279.644 12.004C280.348 11.62 281.116 11.428 281.948 11.428C283.484 11.428 284.62 11.868 285.356 12.748C286.092 13.628 286.46 14.82 286.46 16.324V23.5H284.204V16.828C284.204 15.644 283.948 14.796 283.436 14.284C282.924 13.756 282.236 13.492 281.372 13.492C280.316 13.492 279.492 13.836 278.9 14.524C278.324 15.212 278.036 16.132 278.036 17.284V23.5ZM289.345 23.5V11.764H291.601V23.5H289.345ZM290.449 8.98C290.049 8.98 289.697 8.836 289.393 8.548C289.105 8.244 288.961 7.892 288.961 7.492C288.961 7.076 289.105 6.724 289.393 6.436C289.697 6.148 290.049 6.004 290.449 6.004C290.865 6.004 291.217 6.148 291.505 6.436C291.793 6.724 291.937 7.076 291.937 7.492C291.937 7.892 291.793 8.244 291.505 8.548C291.217 8.836 290.865 8.98 290.449 8.98ZM293.868 17.644C293.868 16.412 294.108 15.332 294.588 14.404C295.084 13.476 295.764 12.748 296.628 12.22C297.492 11.692 298.492 11.428 299.628 11.428C301.1 11.428 302.324 11.82 303.3 12.604C304.276 13.388 304.86 14.428 305.052 15.724H302.796C302.604 14.972 302.228 14.404 301.668 14.02C301.108 13.636 300.452 13.444 299.7 13.444C298.996 13.444 298.372 13.62 297.828 13.972C297.284 14.308 296.86 14.788 296.556 15.412C296.252 16.036 296.1 16.772 296.1 17.62C296.1 18.468 296.244 19.204 296.532 19.828C296.82 20.436 297.228 20.916 297.756 21.268C298.284 21.604 298.9 21.772 299.604 21.772C300.404 21.772 301.092 21.572 301.668 21.172C302.244 20.772 302.628 20.228 302.82 19.54H305.076C304.932 20.388 304.604 21.132 304.092 21.772C303.596 22.396 302.956 22.892 302.172 23.26C301.404 23.612 300.548 23.788 299.604 23.788C298.452 23.788 297.444 23.532 296.58 23.02C295.732 22.508 295.068 21.796 294.588 20.884C294.108 19.956 293.868 18.876 293.868 17.644ZM319.827 7.228V23.5H317.475V7.228H319.827ZM312.243 8.308V6.148H325.035V8.308H312.243ZM332.066 11.668V13.732H331.058C329.986 13.732 329.138 14.044 328.514 14.668C327.906 15.276 327.602 16.148 327.602 17.284V23.5H325.346V11.788H327.458L327.65 14.14H327.434C327.594 13.372 327.978 12.748 328.586 12.268C329.194 11.772 329.954 11.524 330.866 11.524C331.074 11.524 331.266 11.54 331.442 11.572C331.634 11.588 331.842 11.62 332.066 11.668ZM336.905 23.788C335.657 23.788 334.673 23.46 333.953 22.804C333.249 22.148 332.897 21.292 332.897 20.236C332.897 19.164 333.281 18.308 334.049 17.668C334.817 17.012 335.889 16.628 337.265 16.516L340.961 16.228V15.892C340.961 15.236 340.841 14.716 340.601 14.332C340.361 13.932 340.033 13.652 339.617 13.492C339.201 13.316 338.729 13.228 338.201 13.228C337.257 13.228 336.521 13.428 335.993 13.828C335.481 14.212 335.225 14.764 335.225 15.484H333.257C333.257 14.668 333.465 13.956 333.881 13.348C334.297 12.74 334.881 12.268 335.633 11.932C336.401 11.596 337.289 11.428 338.297 11.428C339.273 11.428 340.121 11.604 340.841 11.956C341.577 12.292 342.145 12.812 342.545 13.516C342.961 14.204 343.169 15.076 343.169 16.132V23.5H341.249L341.009 21.604C340.705 22.276 340.177 22.812 339.425 23.212C338.689 23.596 337.849 23.788 336.905 23.788ZM337.553 22.036C338.625 22.036 339.465 21.716 340.073 21.076C340.681 20.42 340.985 19.54 340.985 18.436V17.812L337.985 18.052C336.993 18.148 336.273 18.38 335.825 18.748C335.393 19.116 335.177 19.588 335.177 20.164C335.177 20.788 335.385 21.26 335.801 21.58C336.233 21.884 336.817 22.036 337.553 22.036ZM344.735 11.764H352.583V13.66H344.735V11.764ZM351.551 5.932V7.876C351.423 7.876 351.271 7.876 351.095 7.876C350.919 7.876 350.735 7.876 350.543 7.876C349.823 7.876 349.335 8.052 349.079 8.404C348.839 8.756 348.719 9.252 348.719 9.892V23.5H346.463V9.892C346.463 8.932 346.623 8.156 346.943 7.564C347.263 6.956 347.703 6.516 348.263 6.244C348.823 5.972 349.463 5.836 350.183 5.836C350.391 5.836 350.615 5.844 350.855 5.86C351.111 5.876 351.343 5.9 351.551 5.932ZM352.247 11.764H363.623V13.66H352.247V11.764ZM358.919 5.932V7.876C358.775 7.876 358.615 7.876 358.439 7.876C358.263 7.876 358.087 7.876 357.911 7.876C357.223 7.876 356.759 8.052 356.519 8.404C356.279 8.756 356.159 9.252 356.159 9.892V23.5H353.927V9.892C353.927 8.932 354.087 8.156 354.407 7.564C354.727 6.956 355.151 6.516 355.679 6.244C356.223 5.972 356.839 5.836 357.527 5.836C357.735 5.836 357.959 5.844 358.199 5.86C358.455 5.876 358.695 5.9 358.919 5.932ZM361.391 23.5V11.764H363.623V23.5H361.391ZM362.495 8.716C362.095 8.716 361.759 8.58 361.487 8.308C361.215 8.036 361.079 7.692 361.079 7.276C361.079 6.876 361.215 6.54 361.487 6.268C361.759 5.98 362.095 5.836 362.495 5.836C362.911 5.836 363.255 5.98 363.527 6.268C363.799 6.54 363.935 6.876 363.935 7.276C363.935 7.692 363.799 8.036 363.527 8.308C363.255 8.58 362.911 8.716 362.495 8.716ZM365.834 17.644C365.834 16.412 366.074 15.332 366.554 14.404C367.05 13.476 367.73 12.748 368.594 12.22C369.458 11.692 370.458 11.428 371.594 11.428C373.066 11.428 374.29 11.82 375.266 12.604C376.242 13.388 376.826 14.428 377.018 15.724H374.762C374.57 14.972 374.194 14.404 373.634 14.02C373.074 13.636 372.418 13.444 371.666 13.444C370.962 13.444 370.338 13.62 369.794 13.972C369.25 14.308 368.826 14.788 368.522 15.412C368.218 16.036 368.066 16.772 368.066 17.62C368.066 18.468 368.21 19.204 368.498 19.828C368.786 20.436 369.194 20.916 369.722 21.268C370.25 21.604 370.866 21.772 371.57 21.772C372.37 21.772 373.058 21.572 373.634 21.172C374.21 20.772 374.594 20.228 374.786 19.54H377.042C376.898 20.388 376.57 21.132 376.058 21.772C375.562 22.396 374.922 22.892 374.138 23.26C373.37 23.612 372.514 23.788 371.57 23.788C370.418 23.788 369.41 23.532 368.546 23.02C367.698 22.508 367.034 21.796 366.554 20.884C366.074 19.956 365.834 18.876 365.834 17.644Z" fill="#0D0D0D"/>
<path d="M904.835 6.148V23.5H902.483V6.148H904.835ZM909.227 17.308H904.307V15.196H908.723C909.891 15.196 910.787 14.884 911.411 14.26C912.035 13.62 912.347 12.764 912.347 11.692C912.347 10.604 912.035 9.764 911.411 9.172C910.787 8.564 909.923 8.26 908.819 8.26H903.779V6.148H909.227C910.363 6.148 911.347 6.38 912.179 6.844C913.011 7.308 913.659 7.956 914.123 8.788C914.587 9.62 914.819 10.596 914.819 11.716C914.819 12.788 914.587 13.748 914.123 14.596C913.659 15.444 913.011 16.108 912.179 16.588C911.347 17.068 910.363 17.308 909.227 17.308ZM923.579 11.668V13.732H922.571C921.499 13.732 920.651 14.044 920.027 14.668C919.419 15.276 919.115 16.148 919.115 17.284V23.5H916.859V11.788H918.971L919.163 14.14H918.947C919.107 13.372 919.491 12.748 920.099 12.268C920.707 11.772 921.467 11.524 922.379 11.524C922.587 11.524 922.779 11.54 922.955 11.572C923.147 11.588 923.355 11.62 923.579 11.668ZM924.265 17.62C924.265 16.42 924.529 15.356 925.057 14.428C925.585 13.5 926.305 12.772 927.217 12.244C928.145 11.716 929.201 11.452 930.385 11.452C931.569 11.452 932.617 11.716 933.529 12.244C934.441 12.772 935.161 13.5 935.689 14.428C936.217 15.356 936.481 16.42 936.481 17.62C936.481 18.82 936.217 19.884 935.689 20.812C935.161 21.74 934.441 22.468 933.529 22.996C932.617 23.524 931.569 23.788 930.385 23.788C929.201 23.788 928.145 23.524 927.217 22.996C926.305 22.468 925.585 21.74 925.057 20.812C924.529 19.884 924.265 18.82 924.265 17.62ZM926.545 17.62C926.545 18.436 926.705 19.156 927.025 19.78C927.361 20.404 927.817 20.892 928.393 21.244C928.969 21.596 929.633 21.772 930.385 21.772C931.137 21.772 931.801 21.596 932.377 21.244C932.953 20.892 933.401 20.404 933.721 19.78C934.057 19.156 934.225 18.436 934.225 17.62C934.225 16.788 934.057 16.068 933.721 15.46C933.401 14.836 932.953 14.348 932.377 13.996C931.801 13.644 931.137 13.468 930.385 13.468C929.633 13.468 928.969 13.644 928.393 13.996C927.817 14.348 927.361 14.836 927.025 15.46C926.705 16.068 926.545 16.788 926.545 17.62ZM943.443 23.788C942.307 23.788 941.331 23.532 940.515 23.02C939.699 22.492 939.067 21.764 938.619 20.836C938.187 19.908 937.971 18.852 937.971 17.668C937.971 16.468 938.195 15.404 938.643 14.476C939.091 13.532 939.731 12.788 940.563 12.244C941.395 11.7 942.387 11.428 943.539 11.428C944.451 11.428 945.259 11.62 945.963 12.004C946.683 12.372 947.243 12.924 947.643 13.66V5.836H949.875V23.5H947.859L947.667 21.364C947.283 22.148 946.715 22.748 945.963 23.164C945.227 23.58 944.387 23.788 943.443 23.788ZM943.899 21.748C944.667 21.748 945.323 21.572 945.867 21.22C946.427 20.868 946.859 20.38 947.163 19.756C947.467 19.132 947.619 18.412 947.619 17.596C947.619 16.78 947.467 16.068 947.163 15.46C946.859 14.836 946.427 14.348 945.867 13.996C945.323 13.644 944.667 13.468 943.899 13.468C943.131 13.468 942.475 13.652 941.931 14.02C941.387 14.372 940.971 14.86 940.683 15.484C940.395 16.092 940.251 16.796 940.251 17.596C940.251 18.412 940.395 19.132 940.683 19.756C940.971 20.38 941.387 20.868 941.931 21.22C942.475 21.572 943.131 21.748 943.899 21.748ZM961.001 11.764H963.233V23.5H961.217L960.977 21.724C960.641 22.332 960.113 22.828 959.393 23.212C958.673 23.596 957.881 23.788 957.017 23.788C955.657 23.788 954.601 23.364 953.849 22.516C953.113 21.652 952.745 20.5 952.745 19.06V11.764H955.001V18.316C955.001 19.564 955.249 20.46 955.745 21.004C956.257 21.532 956.945 21.796 957.809 21.796C958.849 21.796 959.641 21.476 960.185 20.836C960.729 20.18 961.001 19.22 961.001 17.956V11.764ZM965.264 17.644C965.264 16.412 965.504 15.332 965.984 14.404C966.48 13.476 967.16 12.748 968.024 12.22C968.888 11.692 969.888 11.428 971.024 11.428C972.496 11.428 973.72 11.82 974.696 12.604C975.672 13.388 976.256 14.428 976.448 15.724H974.192C974 14.972 973.624 14.404 973.064 14.02C972.504 13.636 971.848 13.444 971.096 13.444C970.392 13.444 969.768 13.62 969.224 13.972C968.68 14.308 968.256 14.788 967.952 15.412C967.648 16.036 967.496 16.772 967.496 17.62C967.496 18.468 967.64 19.204 967.928 19.828C968.216 20.436 968.624 20.916 969.152 21.268C969.68 21.604 970.296 21.772 971 21.772C971.8 21.772 972.488 21.572 973.064 21.172C973.64 20.772 974.024 20.228 974.216 19.54H976.472C976.328 20.388 976 21.132 975.488 21.772C974.992 22.396 974.352 22.892 973.568 23.26C972.8 23.612 971.944 23.788 971 23.788C969.848 23.788 968.84 23.532 967.976 23.02C967.128 22.508 966.464 21.796 965.984 20.884C965.504 19.956 965.264 18.876 965.264 17.644ZM977.364 11.764H984.18V13.66H977.364V11.764ZM984.084 21.532L984.372 23.404C983.764 23.644 983.116 23.764 982.428 23.764C981.74 23.764 981.156 23.636 980.676 23.38C980.196 23.108 979.828 22.708 979.572 22.18C979.316 21.652 979.188 20.996 979.188 20.212V8.092H981.444V19.9C981.444 20.572 981.58 21.052 981.852 21.34C982.14 21.612 982.508 21.748 982.956 21.748C983.308 21.748 983.684 21.676 984.084 21.532ZM999.069 7.228V23.5H996.717V7.228H999.069ZM991.485 8.308V6.148H1004.28V8.308H991.485ZM1011.31 11.668V13.732H1010.3C1009.23 13.732 1008.38 14.044 1007.76 14.668C1007.15 15.276 1006.84 16.148 1006.84 17.284V23.5H1004.59V11.788H1006.7L1006.89 14.14H1006.68C1006.84 13.372 1007.22 12.748 1007.83 12.268C1008.44 11.772 1009.2 11.524 1010.11 11.524C1010.32 11.524 1010.51 11.54 1010.68 11.572C1010.88 11.588 1011.08 11.62 1011.31 11.668ZM1016.15 23.788C1014.9 23.788 1013.91 23.46 1013.19 22.804C1012.49 22.148 1012.14 21.292 1012.14 20.236C1012.14 19.164 1012.52 18.308 1013.29 17.668C1014.06 17.012 1015.13 16.628 1016.51 16.516L1020.2 16.228V15.892C1020.2 15.236 1020.08 14.716 1019.84 14.332C1019.6 13.932 1019.27 13.652 1018.86 13.492C1018.44 13.316 1017.97 13.228 1017.44 13.228C1016.5 13.228 1015.76 13.428 1015.23 13.828C1014.72 14.212 1014.47 14.764 1014.47 15.484H1012.5C1012.5 14.668 1012.71 13.956 1013.12 13.348C1013.54 12.74 1014.12 12.268 1014.87 11.932C1015.64 11.596 1016.53 11.428 1017.54 11.428C1018.51 11.428 1019.36 11.604 1020.08 11.956C1020.82 12.292 1021.39 12.812 1021.79 13.516C1022.2 14.204 1022.41 15.076 1022.41 16.132V23.5H1020.49L1020.25 21.604C1019.95 22.276 1019.42 22.812 1018.67 23.212C1017.93 23.596 1017.09 23.788 1016.15 23.788ZM1016.79 22.036C1017.87 22.036 1018.71 21.716 1019.31 21.076C1019.92 20.42 1020.23 19.54 1020.23 18.436V17.812L1017.23 18.052C1016.23 18.148 1015.51 18.38 1015.07 18.748C1014.63 19.116 1014.42 19.588 1014.42 20.164C1014.42 20.788 1014.63 21.26 1015.04 21.58C1015.47 21.884 1016.06 22.036 1016.79 22.036ZM1023.98 11.764H1031.82V13.66H1023.98V11.764ZM1030.79 5.932V7.876C1030.66 7.876 1030.51 7.876 1030.34 7.876C1030.16 7.876 1029.98 7.876 1029.78 7.876C1029.06 7.876 1028.58 8.052 1028.32 8.404C1028.08 8.756 1027.96 9.252 1027.96 9.892V23.5H1025.7V9.892C1025.7 8.932 1025.86 8.156 1026.18 7.564C1026.5 6.956 1026.94 6.516 1027.5 6.244C1028.06 5.972 1028.7 5.836 1029.42 5.836C1029.63 5.836 1029.86 5.844 1030.1 5.86C1030.35 5.876 1030.58 5.9 1030.79 5.932ZM1031.49 11.764H1042.86V13.66H1031.49V11.764ZM1038.16 5.932V7.876C1038.02 7.876 1037.86 7.876 1037.68 7.876C1037.5 7.876 1037.33 7.876 1037.15 7.876C1036.46 7.876 1036 8.052 1035.76 8.404C1035.52 8.756 1035.4 9.252 1035.4 9.892V23.5H1033.17V9.892C1033.17 8.932 1033.33 8.156 1033.65 7.564C1033.97 6.956 1034.39 6.516 1034.92 6.244C1035.46 5.972 1036.08 5.836 1036.77 5.836C1036.98 5.836 1037.2 5.844 1037.44 5.86C1037.7 5.876 1037.94 5.9 1038.16 5.932ZM1040.63 23.5V11.764H1042.86V23.5H1040.63ZM1041.74 8.716C1041.34 8.716 1041 8.58 1040.73 8.308C1040.46 8.036 1040.32 7.692 1040.32 7.276C1040.32 6.876 1040.46 6.54 1040.73 6.268C1041 5.98 1041.34 5.836 1041.74 5.836C1042.15 5.836 1042.5 5.98 1042.77 6.268C1043.04 6.54 1043.18 6.876 1043.18 7.276C1043.18 7.692 1043.04 8.036 1042.77 8.308C1042.5 8.58 1042.15 8.716 1041.74 8.716ZM1045.08 17.644C1045.08 16.412 1045.32 15.332 1045.8 14.404C1046.29 13.476 1046.97 12.748 1047.84 12.22C1048.7 11.692 1049.7 11.428 1050.84 11.428C1052.31 11.428 1053.53 11.82 1054.51 12.604C1055.48 13.388 1056.07 14.428 1056.26 15.724H1054C1053.81 14.972 1053.44 14.404 1052.88 14.02C1052.32 13.636 1051.66 13.444 1050.91 13.444C1050.2 13.444 1049.58 13.62 1049.04 13.972C1048.49 14.308 1048.07 14.788 1047.76 15.412C1047.46 16.036 1047.31 16.772 1047.31 17.62C1047.31 18.468 1047.45 19.204 1047.74 19.828C1048.03 20.436 1048.44 20.916 1048.96 21.268C1049.49 21.604 1050.11 21.772 1050.81 21.772C1051.61 21.772 1052.3 21.572 1052.88 21.172C1053.45 20.772 1053.84 20.228 1054.03 19.54H1056.28C1056.14 20.388 1055.81 21.132 1055.3 21.772C1054.8 22.396 1054.16 22.892 1053.38 23.26C1052.61 23.612 1051.76 23.788 1050.81 23.788C1049.66 23.788 1048.65 23.532 1047.79 23.02C1046.94 22.508 1046.28 21.796 1045.8 20.884C1045.32 19.956 1045.08 18.876 1045.08 17.644Z" fill="#0D0D0D"/>
<rect y="309.5" width="129.625" height="46" rx="12" fill="#D1D1D1"/>
<path d="M40.5445 326.836C39.1445 326.836 37.9125 326.556 36.8485 325.996C35.8032 325.436 34.9912 324.652 34.4125 323.644C33.8525 322.617 33.5725 321.423 33.5725 320.06H36.6805C36.6805 321.292 37.0258 322.263 37.7165 322.972C38.4258 323.663 39.3872 324.008 40.6005 324.008C41.4592 324.008 42.1965 323.831 42.8125 323.476C43.4472 323.121 43.9418 322.627 44.2965 321.992C44.6512 321.339 44.8285 320.573 44.8285 319.696C44.8285 318.856 44.6605 318.119 44.3245 317.484C43.9885 316.849 43.5125 316.355 42.8965 316C42.2805 315.627 41.5245 315.44 40.6285 315.44C39.8258 315.44 39.0698 315.617 38.3605 315.972C37.6512 316.327 37.0912 316.784 36.6805 317.344L33.9365 316.7L36.4285 306.144H46.8165V309.056H37.7725L39.0045 307.936L37.2405 314.964L36.1765 315.3C36.6618 314.479 37.3525 313.853 38.2485 313.424C39.1445 312.976 40.1525 312.752 41.2725 312.752C42.6352 312.752 43.8205 313.041 44.8285 313.62C45.8552 314.199 46.6485 315.001 47.2085 316.028C47.7685 317.055 48.0485 318.231 48.0485 319.556C48.0485 320.993 47.7312 322.263 47.0965 323.364C46.4618 324.447 45.5845 325.296 44.4645 325.912C43.3445 326.528 42.0378 326.836 40.5445 326.836ZM51.6087 326.836C51.0113 326.836 50.498 326.631 50.0687 326.22C49.658 325.809 49.4527 325.324 49.4527 324.764C49.4527 324.167 49.658 323.663 50.0687 323.252C50.498 322.841 51.0113 322.636 51.6087 322.636C52.1873 322.636 52.682 322.841 53.0927 323.252C53.522 323.663 53.7367 324.167 53.7367 324.764C53.7367 325.324 53.522 325.809 53.0927 326.22C52.682 326.631 52.1873 326.836 51.6087 326.836ZM69.9263 326.472L56.0103 326.5V324.092L62.6183 318.464C63.3837 317.829 64.0183 317.251 64.5223 316.728C65.0263 316.205 65.4277 315.72 65.7263 315.272C66.025 314.824 66.2397 314.376 66.3703 313.928C66.501 313.461 66.5663 312.976 66.5663 312.472C66.5663 311.259 66.2397 310.316 65.5863 309.644C64.9517 308.953 64.065 308.608 62.9263 308.608C61.7317 308.608 60.7797 309.009 60.0703 309.812C59.3797 310.596 59.0157 311.679 58.9783 313.06H55.8423C55.861 311.585 56.169 310.307 56.7663 309.224C57.3637 308.123 58.185 307.273 59.2303 306.676C60.2943 306.079 61.5263 305.78 62.9263 305.78C64.345 305.78 65.5583 306.041 66.5663 306.564C67.593 307.087 68.3863 307.833 68.9463 308.804C69.5063 309.775 69.7863 310.932 69.7863 312.276C69.7863 312.985 69.693 313.667 69.5063 314.32C69.3197 314.955 69.0303 315.58 68.6383 316.196C68.2463 316.812 67.7423 317.447 67.1263 318.1C66.529 318.735 65.801 319.416 64.9423 320.144L59.8183 324.54L58.7263 323.532H69.9263V326.472ZM81.6872 311.016C81.6872 312.043 81.4632 312.957 81.0152 313.76C80.5672 314.563 79.9512 315.188 79.1672 315.636C78.3832 316.084 77.4872 316.308 76.4792 316.308C75.4712 316.308 74.5659 316.084 73.7632 315.636C72.9792 315.188 72.3632 314.563 71.9152 313.76C71.4672 312.957 71.2432 312.043 71.2432 311.016C71.2432 309.989 71.4672 309.084 71.9152 308.3C72.3632 307.497 72.9792 306.872 73.7632 306.424C74.5659 305.976 75.4712 305.752 76.4792 305.752C77.4872 305.752 78.3832 305.976 79.1672 306.424C79.9512 306.872 80.5672 307.497 81.0152 308.3C81.4632 309.084 81.6872 309.989 81.6872 311.016ZM79.2512 311.016C79.2512 310.157 78.9899 309.467 78.4672 308.944C77.9632 308.403 77.3006 308.132 76.4792 308.132C75.6579 308.132 74.9859 308.403 74.4632 308.944C73.9406 309.467 73.6792 310.157 73.6792 311.016C73.6792 311.875 73.9406 312.575 74.4632 313.116C74.9859 313.657 75.6579 313.928 76.4792 313.928C77.3006 313.928 77.9632 313.657 78.4672 313.116C78.9899 312.575 79.2512 311.875 79.2512 311.016ZM92.6352 306.172L77.1792 326.5H74.1552L89.5832 306.172H92.6352ZM95.6032 321.6C95.6032 322.627 95.3792 323.541 94.9312 324.344C94.4832 325.128 93.8672 325.744 93.0832 326.192C92.2992 326.64 91.3939 326.864 90.3672 326.864C89.3592 326.864 88.4539 326.64 87.6512 326.192C86.8672 325.744 86.2512 325.128 85.8032 324.344C85.3552 323.541 85.1312 322.627 85.1312 321.6C85.1312 320.573 85.3552 319.668 85.8032 318.884C86.2512 318.081 86.8672 317.456 87.6512 317.008C88.4539 316.56 89.3592 316.336 90.3672 316.336C91.3939 316.336 92.2992 316.56 93.0832 317.008C93.8672 317.456 94.4832 318.081 94.9312 318.884C95.3792 319.668 95.6032 320.573 95.6032 321.6ZM93.1392 321.6C93.1392 320.741 92.8779 320.041 92.3552 319.5C91.8512 318.959 91.1886 318.688 90.3672 318.688C89.5459 318.688 88.8739 318.959 88.3512 319.5C87.8472 320.041 87.5952 320.741 87.5952 321.6C87.5952 322.44 87.8472 323.14 88.3512 323.7C88.8739 324.241 89.5459 324.512 90.3672 324.512C91.1886 324.512 91.8512 324.241 92.3552 323.7C92.8779 323.14 93.1392 322.44 93.1392 321.6Z" fill="#0D0D0D"/>
<rect x="149.625" y="91.5" width="129.625" height="264" rx="12" fill="#AEAEAE"/>
<path d="M198.358 308.692L190.966 315.636L188.894 314.124L196.062 307.404L195.698 308.944H185.59V306.144H198.358V308.692ZM191.133 316.196H188.894V314.124C189.23 313.881 189.659 313.723 190.182 313.648C190.704 313.555 191.208 313.508 191.694 313.508C192.683 313.508 193.607 313.657 194.466 313.956C195.343 314.236 196.118 314.665 196.79 315.244C197.462 315.804 197.984 316.495 198.358 317.316C198.731 318.119 198.918 319.033 198.918 320.06C198.918 321.441 198.591 322.645 197.938 323.672C197.303 324.68 196.435 325.464 195.334 326.024C194.232 326.584 192.991 326.864 191.61 326.864C190.284 326.864 189.09 326.603 188.026 326.08C186.98 325.539 186.15 324.764 185.534 323.756C184.936 322.729 184.638 321.507 184.638 320.088H187.774C187.774 321.339 188.128 322.309 188.838 323C189.547 323.691 190.49 324.036 191.666 324.036C192.879 324.036 193.85 323.672 194.578 322.944C195.324 322.197 195.698 321.227 195.698 320.032C195.698 318.893 195.315 317.969 194.55 317.26C193.803 316.551 192.664 316.196 191.133 316.196ZM200.327 316.364C200.327 314.236 200.672 312.388 201.363 310.82C202.072 309.233 203.062 307.992 204.331 307.096C205.6 306.2 207.103 305.752 208.839 305.752C210.556 305.752 212.05 306.2 213.319 307.096C214.588 307.992 215.568 309.233 216.259 310.82C216.968 312.388 217.323 314.236 217.323 316.364C217.323 318.455 216.978 320.293 216.287 321.88C215.615 323.448 214.644 324.671 213.375 325.548C212.124 326.425 210.612 326.864 208.839 326.864C207.066 326.864 205.544 326.425 204.275 325.548C203.006 324.671 202.026 323.448 201.335 321.88C200.663 320.293 200.327 318.455 200.327 316.364ZM203.463 316.364C203.463 317.969 203.668 319.351 204.079 320.508C204.508 321.665 205.124 322.552 205.927 323.168C206.73 323.765 207.7 324.064 208.839 324.064C209.978 324.064 210.939 323.765 211.723 323.168C212.526 322.552 213.132 321.665 213.543 320.508C213.972 319.351 214.187 317.969 214.187 316.364C214.187 314.703 213.972 313.293 213.543 312.136C213.132 310.979 212.526 310.101 211.723 309.504C210.939 308.888 209.978 308.58 208.839 308.58C207.7 308.58 206.73 308.888 205.927 309.504C205.124 310.101 204.508 310.979 204.079 312.136C203.668 313.293 203.463 314.703 203.463 316.364ZM229.285 311.016C229.285 312.043 229.061 312.957 228.613 313.76C228.165 314.563 227.549 315.188 226.765 315.636C225.981 316.084 225.085 316.308 224.077 316.308C223.069 316.308 222.164 316.084 221.361 315.636C220.577 315.188 219.961 314.563 219.513 313.76C219.065 312.957 218.841 312.043 218.841 311.016C218.841 309.989 219.065 309.084 219.513 308.3C219.961 307.497 220.577 306.872 221.361 306.424C222.164 305.976 223.069 305.752 224.077 305.752C225.085 305.752 225.981 305.976 226.765 306.424C227.549 306.872 228.165 307.497 228.613 308.3C229.061 309.084 229.285 309.989 229.285 311.016ZM226.849 311.016C226.849 310.157 226.588 309.467 226.065 308.944C225.561 308.403 224.898 308.132 224.077 308.132C223.256 308.132 222.584 308.403 222.061 308.944C221.538 309.467 221.277 310.157 221.277 311.016C221.277 311.875 221.538 312.575 222.061 313.116C222.584 313.657 223.256 313.928 224.077 313.928C224.898 313.928 225.561 313.657 226.065 313.116C226.588 312.575 226.849 311.875 226.849 311.016ZM240.233 306.172L224.777 326.5H221.753L237.181 306.172H240.233ZM243.201 321.6C243.201 322.627 242.977 323.541 242.529 324.344C242.081 325.128 241.465 325.744 240.681 326.192C239.897 326.64 238.992 326.864 237.965 326.864C236.957 326.864 236.052 326.64 235.249 326.192C234.465 325.744 233.849 325.128 233.401 324.344C232.953 323.541 232.729 322.627 232.729 321.6C232.729 320.573 232.953 319.668 233.401 318.884C233.849 318.081 234.465 317.456 235.249 317.008C236.052 316.56 236.957 316.336 237.965 316.336C238.992 316.336 239.897 316.56 240.681 317.008C241.465 317.456 242.081 318.081 242.529 318.884C242.977 319.668 243.201 320.573 243.201 321.6ZM240.737 321.6C240.737 320.741 240.476 320.041 239.953 319.5C239.449 318.959 238.786 318.688 237.965 318.688C237.144 318.688 236.472 318.959 235.949 319.5C235.445 320.041 235.193 320.741 235.193 321.6C235.193 322.44 235.445 323.14 235.949 323.7C236.472 324.241 237.144 324.512 237.965 324.512C238.786 324.512 239.449 324.241 239.953 323.7C240.476 323.14 240.737 322.44 240.737 321.6Z" fill="#0D0D0D"/>
<path d="M125.043 379.94V393.5H123.083V379.94H125.043ZM118.723 380.84V379.04H129.383V380.84H118.723ZM128.611 388.6C128.611 387.6 128.831 386.713 129.271 385.94C129.711 385.167 130.311 384.56 131.071 384.12C131.845 383.68 132.725 383.46 133.711 383.46C134.698 383.46 135.571 383.68 136.331 384.12C137.091 384.56 137.691 385.167 138.131 385.94C138.571 386.713 138.791 387.6 138.791 388.6C138.791 389.6 138.571 390.487 138.131 391.26C137.691 392.033 137.091 392.64 136.331 393.08C135.571 393.52 134.698 393.74 133.711 393.74C132.725 393.74 131.845 393.52 131.071 393.08C130.311 392.64 129.711 392.033 129.271 391.26C128.831 390.487 128.611 389.6 128.611 388.6ZM130.511 388.6C130.511 389.28 130.645 389.88 130.911 390.4C131.191 390.92 131.571 391.327 132.051 391.62C132.531 391.913 133.085 392.06 133.711 392.06C134.338 392.06 134.891 391.913 135.371 391.62C135.851 391.327 136.225 390.92 136.491 390.4C136.771 389.88 136.911 389.28 136.911 388.6C136.911 387.907 136.771 387.307 136.491 386.8C136.225 386.28 135.851 385.873 135.371 385.58C134.891 385.287 134.338 385.14 133.711 385.14C133.085 385.14 132.531 385.287 132.051 385.58C131.571 385.873 131.191 386.28 130.911 386.8C130.645 387.307 130.511 387.907 130.511 388.6ZM139.535 383.72H145.215V385.3H139.535V383.72ZM145.135 391.86L145.375 393.42C144.868 393.62 144.328 393.72 143.755 393.72C143.182 393.72 142.695 393.613 142.295 393.4C141.895 393.173 141.588 392.84 141.375 392.4C141.162 391.96 141.055 391.413 141.055 390.76V380.66H142.935V390.5C142.935 391.06 143.048 391.46 143.275 391.7C143.515 391.927 143.822 392.04 144.195 392.04C144.488 392.04 144.802 391.98 145.135 391.86ZM149.856 393.74C148.816 393.74 147.996 393.467 147.396 392.92C146.809 392.373 146.516 391.66 146.516 390.78C146.516 389.887 146.836 389.173 147.476 388.64C148.116 388.093 149.009 387.773 150.156 387.68L153.236 387.44V387.16C153.236 386.613 153.136 386.18 152.936 385.86C152.736 385.527 152.463 385.293 152.116 385.16C151.769 385.013 151.376 384.94 150.936 384.94C150.149 384.94 149.536 385.107 149.096 385.44C148.669 385.76 148.456 386.22 148.456 386.82H146.816C146.816 386.14 146.989 385.547 147.336 385.04C147.683 384.533 148.169 384.14 148.796 383.86C149.436 383.58 150.176 383.44 151.016 383.44C151.829 383.44 152.536 383.587 153.136 383.88C153.749 384.16 154.223 384.593 154.556 385.18C154.903 385.753 155.076 386.48 155.076 387.36V393.5H153.476L153.276 391.92C153.023 392.48 152.583 392.927 151.956 393.26C151.343 393.58 150.643 393.74 149.856 393.74ZM150.396 392.28C151.289 392.28 151.989 392.013 152.496 391.48C153.003 390.933 153.256 390.2 153.256 389.28V388.76L150.756 388.96C149.929 389.04 149.329 389.233 148.956 389.54C148.596 389.847 148.416 390.24 148.416 390.72C148.416 391.24 148.589 391.633 148.936 391.9C149.296 392.153 149.783 392.28 150.396 392.28ZM159.4 393.5H157.52V378.78H159.4V393.5Z" fill="#0D0D0D"/>
<rect x="100.125" y="407.5" width="79" height="25" rx="8" fill="#D0E3D4"/>
<path d="M114.288 416.695V424.21H113.088V416.695H114.288ZM109.938 419.845H117.438V421.045H109.938V419.845ZM122.946 425.68C122.206 425.68 121.561 425.535 121.011 425.245C120.471 424.945 120.046 424.53 119.736 424C119.436 423.46 119.286 422.83 119.286 422.11H120.741C120.741 422.81 120.941 423.36 121.341 423.76C121.741 424.16 122.286 424.36 122.976 424.36C123.466 424.36 123.891 424.26 124.251 424.06C124.611 423.85 124.891 423.565 125.091 423.205C125.291 422.835 125.391 422.405 125.391 421.915C125.391 421.445 125.296 421.03 125.106 420.67C124.916 420.3 124.641 420.01 124.281 419.8C123.931 419.59 123.501 419.485 122.991 419.485C122.541 419.485 122.116 419.585 121.716 419.785C121.316 419.975 120.991 420.225 120.741 420.535L119.496 420.22L120.816 414.655H126.246V416.005H121.356L122.031 415.405L121.026 419.44L120.531 419.545C120.811 419.115 121.191 418.79 121.671 418.57C122.151 418.34 122.681 418.225 123.261 418.225C124.001 418.225 124.641 418.385 125.181 418.705C125.721 419.015 126.141 419.445 126.441 419.995C126.741 420.545 126.891 421.165 126.891 421.855C126.891 422.605 126.721 423.27 126.381 423.85C126.051 424.42 125.591 424.87 125.001 425.2C124.421 425.52 123.736 425.68 122.946 425.68ZM129.115 425.68C128.825 425.68 128.57 425.58 128.35 425.38C128.14 425.17 128.035 424.92 128.035 424.63C128.035 424.33 128.14 424.08 128.35 423.88C128.57 423.67 128.825 423.565 129.115 423.565C129.405 423.565 129.655 423.67 129.865 423.88C130.075 424.08 130.18 424.33 130.18 424.63C130.18 424.92 130.075 425.17 129.865 425.38C129.655 425.58 129.405 425.68 129.115 425.68ZM130.782 414.655H138.357V416.005H130.782V414.655ZM137.217 415.225L138.357 416.005L134.247 425.5H132.717L137.217 415.225ZM146.133 415.84L142.158 419.635L141.198 418.915L145.038 415.225L144.963 415.96H139.398V414.655H146.133V415.84ZM142.278 419.89H141.198V418.915C141.368 418.805 141.578 418.735 141.828 418.705C142.088 418.665 142.338 418.645 142.578 418.645C143.108 418.645 143.603 418.725 144.063 418.885C144.523 419.035 144.928 419.26 145.278 419.56C145.638 419.86 145.913 420.225 146.103 420.655C146.303 421.075 146.403 421.555 146.403 422.095C146.403 422.825 146.233 423.46 145.893 424C145.563 424.54 145.103 424.955 144.513 425.245C143.933 425.535 143.278 425.68 142.548 425.68C141.838 425.68 141.208 425.54 140.658 425.26C140.108 424.98 139.673 424.575 139.353 424.045C139.043 423.505 138.888 422.865 138.888 422.125H140.343C140.343 422.825 140.543 423.375 140.943 423.775C141.353 424.165 141.898 424.36 142.578 424.36C143.278 424.36 143.838 424.15 144.258 423.73C144.688 423.31 144.903 422.755 144.903 422.065C144.903 421.415 144.683 420.89 144.243 420.49C143.803 420.09 143.148 419.89 142.278 419.89ZM148.659 425.5H147.039L149.604 421.87L147.054 418.165H148.689L150.549 420.895L152.364 418.165H153.969L151.419 421.87L153.924 425.5H152.289L150.459 422.815L148.659 425.5Z" fill="#009D24"/>
<path d="M162.375 424.667V425.417H163.875V424.667H162.375ZM163.875 415.334C163.875 414.919 163.539 414.584 163.125 414.584C162.711 414.584 162.375 414.919 162.375 415.334H163.875ZM163.125 424.667H163.875V415.334H163.125H162.375V424.667H163.125Z" fill="#009D24"/>
<path d="M166.595 419.863L167.125 420.394L168.186 419.333L167.655 418.803L166.595 419.863ZM163.655 414.803C163.362 414.51 162.888 414.51 162.595 414.803C162.302 415.096 162.302 415.57 162.595 415.863L163.655 414.803ZM167.125 419.333L167.655 418.803L163.655 414.803L163.125 415.333L162.595 415.863L166.595 419.863L167.125 419.333Z" fill="#009D24"/>
<path d="M158.595 418.803L158.064 419.333L159.125 420.394L159.655 419.863L158.595 418.803ZM163.655 415.863C163.948 415.57 163.948 415.096 163.655 414.803C163.362 414.51 162.888 414.51 162.595 414.803L163.655 415.863ZM159.125 419.333L159.655 419.863L163.655 415.863L163.125 415.333L162.595 414.803L158.595 418.803L159.125 419.333Z" fill="#009D24"/>
<rect x="319.25" y="350.5" width="129.625" height="5" rx="2.5" fill="#D1D1D1"/>
<path d="M372.267 326.472L358.351 326.5V324.092L364.959 318.464C365.724 317.829 366.359 317.251 366.863 316.728C367.367 316.205 367.768 315.72 368.067 315.272C368.365 314.824 368.58 314.376 368.711 313.928C368.841 313.461 368.907 312.976 368.907 312.472C368.907 311.259 368.58 310.316 367.927 309.644C367.292 308.953 366.405 308.608 365.267 308.608C364.072 308.608 363.12 309.009 362.411 309.812C361.72 310.596 361.356 311.679 361.319 313.06H358.183C358.201 311.585 358.509 310.307 359.107 309.224C359.704 308.123 360.525 307.273 361.571 306.676C362.635 306.079 363.867 305.78 365.267 305.78C366.685 305.78 367.899 306.041 368.907 306.564C369.933 307.087 370.727 307.833 371.287 308.804C371.847 309.775 372.127 310.932 372.127 312.276C372.127 312.985 372.033 313.667 371.846 314.32C371.66 314.955 371.371 315.58 370.979 316.196C370.587 316.812 370.083 317.447 369.467 318.1C368.869 318.735 368.141 319.416 367.283 320.144L362.159 324.54L361.067 323.532H372.267V326.472ZM376.796 326.836C376.199 326.836 375.685 326.631 375.256 326.22C374.845 325.809 374.64 325.324 374.64 324.764C374.64 324.167 374.845 323.663 375.256 323.252C375.685 322.841 376.199 322.636 376.796 322.636C377.375 322.636 377.869 322.841 378.28 323.252C378.709 323.663 378.924 324.167 378.924 324.764C378.924 325.324 378.709 325.809 378.28 326.22C377.869 326.631 377.375 326.836 376.796 326.836ZM392.442 320.284L387.878 326.5H384.238L390.006 318.8L390.79 318.996C390.304 319.388 389.763 319.687 389.166 319.892C388.568 320.097 387.971 320.2 387.374 320.2C385.974 320.2 384.742 319.901 383.678 319.304C382.632 318.688 381.811 317.848 381.214 316.784C380.635 315.701 380.346 314.479 380.346 313.116C380.346 311.697 380.672 310.437 381.326 309.336C381.979 308.216 382.866 307.348 383.986 306.732C385.124 306.097 386.403 305.78 387.822 305.78C389.259 305.78 390.547 306.107 391.686 306.76C392.843 307.413 393.748 308.291 394.402 309.392C395.074 310.493 395.41 311.744 395.41 313.144C395.41 313.947 395.316 314.703 395.13 315.412C394.943 316.121 394.626 316.859 394.178 317.624C393.748 318.389 393.17 319.276 392.442 320.284ZM392.19 313.116C392.19 312.239 392.003 311.464 391.63 310.792C391.256 310.101 390.743 309.569 390.09 309.196C389.436 308.804 388.68 308.608 387.822 308.608C386.982 308.608 386.235 308.804 385.582 309.196C384.947 309.569 384.443 310.101 384.07 310.792C383.715 311.464 383.538 312.239 383.538 313.116C383.538 313.975 383.715 314.749 384.07 315.44C384.443 316.112 384.947 316.635 385.582 317.008C386.235 317.381 386.982 317.568 387.822 317.568C388.699 317.568 389.455 317.381 390.09 317.008C390.743 316.635 391.256 316.112 391.63 315.44C392.003 314.749 392.19 313.975 392.19 313.116ZM400.54 326.5H397.516V305.78H400.54V318.856L406.28 312.752H410.06L404.824 318.212L409.976 326.5H406.504L402.724 320.424L400.54 322.692V326.5Z" fill="#0D0D0D"/>
<rect x="468.875" y="343.5" width="129.625" height="12" rx="6" fill="#AEAEAE"/>
<path d="M518.92 320.788C518.92 319.407 519.34 318.212 520.18 317.204C521.02 316.196 522.13 315.561 523.512 315.3L523.54 315.944C522.308 315.608 521.346 315.029 520.656 314.208C519.984 313.368 519.648 312.36 519.648 311.184C519.648 310.101 519.937 309.159 520.516 308.356C521.113 307.553 521.925 306.928 522.952 306.48C523.997 306.013 525.21 305.78 526.592 305.78C527.954 305.78 529.149 306.004 530.176 306.452C531.202 306.9 531.996 307.535 532.556 308.356C533.134 309.177 533.424 310.139 533.424 311.24C533.424 312.416 533.088 313.415 532.416 314.236C531.744 315.057 530.792 315.617 529.56 315.916L529.532 315.328C530.465 315.477 531.277 315.804 531.968 316.308C532.677 316.812 533.218 317.447 533.592 318.212C533.984 318.977 534.18 319.836 534.18 320.788C534.18 322.001 533.862 323.065 533.228 323.98C532.593 324.876 531.706 325.576 530.568 326.08C529.429 326.584 528.094 326.836 526.564 326.836C525.014 326.836 523.67 326.593 522.532 326.108C521.393 325.604 520.506 324.895 519.872 323.98C519.237 323.065 518.92 322.001 518.92 320.788ZM522.028 320.564C522.028 321.273 522.214 321.889 522.588 322.412C522.961 322.916 523.484 323.317 524.156 323.616C524.846 323.896 525.649 324.036 526.564 324.036C527.478 324.036 528.272 323.896 528.944 323.616C529.616 323.317 530.138 322.916 530.512 322.412C530.885 321.889 531.072 321.273 531.072 320.564C531.072 319.519 530.661 318.688 529.84 318.072C529.018 317.437 527.917 317.12 526.536 317.12C525.154 317.12 524.053 317.437 523.232 318.072C522.429 318.688 522.028 319.519 522.028 320.564ZM522.56 311.436C522.56 312.351 522.914 313.088 523.624 313.648C524.352 314.189 525.322 314.46 526.536 314.46C527.749 314.46 528.71 314.189 529.42 313.648C530.129 313.107 530.484 312.379 530.484 311.464C530.484 310.549 530.129 309.831 529.42 309.308C528.71 308.767 527.749 308.496 526.536 308.496C525.322 308.496 524.352 308.767 523.624 309.308C522.914 309.831 522.56 310.54 522.56 311.436ZM539.466 326.5H536.442V305.78H539.466V318.856L545.206 312.752H548.986L543.75 318.212L548.902 326.5H545.43L541.65 320.424L539.466 322.692V326.5Z" fill="#0D0D0D"/>
<path d="M441.442 393.5L435.942 379.04H438.042L441.562 388.28C441.722 388.68 441.876 389.1 442.022 389.54C442.169 389.967 442.316 390.453 442.462 391C442.636 390.427 442.802 389.907 442.962 389.44C443.122 388.973 443.262 388.58 443.382 388.26L446.882 379.04H448.922L443.482 393.5H441.442ZM450.281 393.5V383.72H452.161V393.5H450.281ZM451.201 381.4C450.868 381.4 450.574 381.28 450.321 381.04C450.081 380.787 449.961 380.493 449.961 380.16C449.961 379.813 450.081 379.52 450.321 379.28C450.574 379.04 450.868 378.92 451.201 378.92C451.548 378.92 451.841 379.04 452.081 379.28C452.321 379.52 452.441 379.813 452.441 380.16C452.441 380.493 452.321 380.787 452.081 381.04C451.841 381.28 451.548 381.4 451.201 381.4ZM453.89 390.66H455.69C455.69 391.153 455.87 391.547 456.23 391.84C456.59 392.12 457.077 392.26 457.69 392.26C458.357 392.26 458.87 392.133 459.23 391.88C459.59 391.613 459.77 391.26 459.77 390.82C459.77 390.5 459.67 390.233 459.47 390.02C459.284 389.807 458.937 389.633 458.43 389.5L456.71 389.1C455.844 388.887 455.197 388.56 454.77 388.12C454.357 387.68 454.15 387.1 454.15 386.38C454.15 385.78 454.304 385.26 454.61 384.82C454.93 384.38 455.364 384.04 455.91 383.8C456.47 383.56 457.11 383.44 457.83 383.44C458.55 383.44 459.17 383.567 459.69 383.82C460.224 384.073 460.637 384.427 460.93 384.88C461.237 385.333 461.397 385.873 461.41 386.5H459.61C459.597 385.993 459.43 385.6 459.11 385.32C458.79 385.04 458.344 384.9 457.77 384.9C457.184 384.9 456.73 385.027 456.41 385.28C456.09 385.533 455.93 385.88 455.93 386.32C455.93 386.973 456.41 387.42 457.37 387.66L459.09 388.08C459.917 388.267 460.537 388.573 460.95 389C461.364 389.413 461.57 389.98 461.57 390.7C461.57 391.313 461.404 391.853 461.07 392.32C460.737 392.773 460.277 393.127 459.69 393.38C459.117 393.62 458.437 393.74 457.65 393.74C456.504 393.74 455.59 393.46 454.91 392.9C454.23 392.34 453.89 391.593 453.89 390.66ZM463.455 393.5V383.72H465.335V393.5H463.455ZM464.375 381.4C464.042 381.4 463.749 381.28 463.495 381.04C463.255 380.787 463.135 380.493 463.135 380.16C463.135 379.813 463.255 379.52 463.495 379.28C463.749 379.04 464.042 378.92 464.375 378.92C464.722 378.92 465.015 379.04 465.255 379.28C465.495 379.52 465.615 379.813 465.615 380.16C465.615 380.493 465.495 380.787 465.255 381.04C465.015 381.28 464.722 381.4 464.375 381.4ZM466.825 383.72H472.505V385.3H466.825V383.72ZM472.425 391.86L472.665 393.42C472.158 393.62 471.618 393.72 471.045 393.72C470.471 393.72 469.985 393.613 469.585 393.4C469.185 393.173 468.878 392.84 468.665 392.4C468.451 391.96 468.345 391.413 468.345 390.76V380.66H470.225V390.5C470.225 391.06 470.338 391.46 470.565 391.7C470.805 391.927 471.111 392.04 471.485 392.04C471.778 392.04 472.091 391.98 472.425 391.86ZM473.603 390.66H475.403C475.403 391.153 475.583 391.547 475.943 391.84C476.303 392.12 476.79 392.26 477.403 392.26C478.07 392.26 478.583 392.133 478.943 391.88C479.303 391.613 479.483 391.26 479.483 390.82C479.483 390.5 479.383 390.233 479.183 390.02C478.996 389.807 478.65 389.633 478.143 389.5L476.423 389.1C475.556 388.887 474.91 388.56 474.483 388.12C474.07 387.68 473.863 387.1 473.863 386.38C473.863 385.78 474.016 385.26 474.323 384.82C474.643 384.38 475.076 384.04 475.623 383.8C476.183 383.56 476.823 383.44 477.543 383.44C478.263 383.44 478.883 383.567 479.403 383.82C479.936 384.073 480.35 384.427 480.643 384.88C480.95 385.333 481.11 385.873 481.123 386.5H479.323C479.31 385.993 479.143 385.6 478.823 385.32C478.503 385.04 478.056 384.9 477.483 384.9C476.896 384.9 476.443 385.027 476.123 385.28C475.803 385.533 475.643 385.88 475.643 386.32C475.643 386.973 476.123 387.42 477.083 387.66L478.803 388.08C479.63 388.267 480.25 388.573 480.663 389C481.076 389.413 481.283 389.98 481.283 390.7C481.283 391.313 481.116 391.853 480.783 392.32C480.45 392.773 479.99 393.127 479.403 393.38C478.83 393.62 478.15 393.74 477.363 393.74C476.216 393.74 475.303 393.46 474.623 392.9C473.943 392.34 473.603 391.593 473.603 390.66Z" fill="#0D0D0D"/>
<rect x="419.375" y="407.5" width="79" height="25" rx="8" fill="#D0E3D4"/>
<path d="M433.128 416.695V424.21H431.928V416.695H433.128ZM428.778 419.845H436.278V421.045H428.778V419.845ZM445.415 425.485L438.095 425.5V424.375L441.59 421.36C442.03 420.99 442.395 420.655 442.685 420.355C442.975 420.055 443.205 419.78 443.375 419.53C443.545 419.27 443.665 419.015 443.735 418.765C443.805 418.515 443.84 418.245 443.84 417.955C443.84 417.275 443.655 416.745 443.285 416.365C442.925 415.975 442.415 415.78 441.755 415.78C441.085 415.78 440.545 416.01 440.135 416.47C439.735 416.92 439.53 417.53 439.52 418.3H438.05C438.07 417.53 438.235 416.855 438.545 416.275C438.855 415.695 439.285 415.25 439.835 414.94C440.395 414.62 441.04 414.46 441.77 414.46C442.5 414.46 443.13 414.6 443.66 414.88C444.19 415.16 444.6 415.555 444.89 416.065C445.19 416.565 445.34 417.165 445.34 417.865C445.34 418.245 445.29 418.61 445.19 418.96C445.09 419.3 444.93 419.64 444.71 419.98C444.5 420.31 444.225 420.655 443.885 421.015C443.545 421.365 443.135 421.75 442.655 422.17L439.82 424.63L439.325 424.12H445.415V425.485ZM448.16 425.68C447.87 425.68 447.615 425.58 447.395 425.38C447.185 425.17 447.08 424.92 447.08 424.63C447.08 424.33 447.185 424.08 447.395 423.88C447.615 423.67 447.87 423.565 448.16 423.565C448.45 423.565 448.7 423.67 448.91 423.88C449.12 424.08 449.225 424.33 449.225 424.63C449.225 424.92 449.12 425.17 448.91 425.38C448.7 425.58 448.45 425.68 448.16 425.68ZM449.827 414.655H457.402V416.005H449.827V414.655ZM456.262 415.225L457.402 416.005L453.292 425.5H451.762L456.262 415.225ZM459.159 418.09L461.694 414.655H463.404L460.299 418.78L459.969 418.675C460.259 418.455 460.559 418.295 460.869 418.195C461.189 418.085 461.509 418.03 461.829 418.03C462.579 418.03 463.234 418.195 463.794 418.525C464.364 418.845 464.804 419.29 465.114 419.86C465.434 420.43 465.594 421.075 465.594 421.795C465.594 422.555 465.419 423.23 465.069 423.82C464.729 424.4 464.259 424.855 463.659 425.185C463.069 425.515 462.399 425.68 461.649 425.68C460.899 425.68 460.219 425.51 459.609 425.17C459.009 424.83 458.534 424.365 458.184 423.775C457.834 423.185 457.659 422.525 457.659 421.795C457.659 421.365 457.704 420.965 457.794 420.595C457.894 420.225 458.054 419.84 458.274 419.44C458.494 419.04 458.789 418.59 459.159 418.09ZM459.159 421.81C459.159 422.31 459.264 422.755 459.474 423.145C459.684 423.525 459.974 423.825 460.344 424.045C460.724 424.255 461.159 424.36 461.649 424.36C462.129 424.36 462.554 424.255 462.924 424.045C463.294 423.825 463.584 423.525 463.794 423.145C464.004 422.755 464.109 422.31 464.109 421.81C464.109 421.31 464.004 420.87 463.794 420.49C463.584 420.11 463.294 419.815 462.924 419.605C462.554 419.385 462.129 419.275 461.649 419.275C461.159 419.275 460.724 419.385 460.344 419.605C459.974 419.815 459.684 420.11 459.474 420.49C459.264 420.87 459.159 421.31 459.159 421.81ZM467.909 425.5H466.289L468.854 421.87L466.304 418.165H467.939L469.799 420.895L471.614 418.165H473.219L470.669 421.87L473.174 425.5H471.539L469.709 422.815L467.909 425.5Z" fill="#009D24"/>
<path d="M481.625 424.667V425.417H483.125V424.667H481.625ZM483.125 415.334C483.125 414.919 482.789 414.584 482.375 414.584C481.961 414.584 481.625 414.919 481.625 415.334H483.125ZM482.375 424.667H483.125V415.334H482.375H481.625V424.667H482.375Z" fill="#009D24"/>
<path d="M485.845 419.863L486.375 420.394L487.436 419.333L486.905 418.803L485.845 419.863ZM482.905 414.803C482.612 414.51 482.138 414.51 481.845 414.803C481.552 415.096 481.552 415.57 481.845 415.863L482.905 414.803ZM486.375 419.333L486.905 418.803L482.905 414.803L482.375 415.333L481.845 415.863L485.845 419.863L486.375 419.333Z" fill="#009D24"/>
<path d="M477.845 418.803L477.314 419.333L478.375 420.394L478.905 419.863L477.845 418.803ZM482.905 415.863C483.198 415.57 483.198 415.096 482.905 414.803C482.612 414.51 482.138 414.51 481.845 414.803L482.905 415.863ZM478.375 419.333L478.905 419.863L482.905 415.863L482.375 415.333L481.845 414.803L477.845 418.803L478.375 419.333Z" fill="#009D24"/>
<rect x="638.5" y="91.5" width="1" height="268" rx="0.5" fill="#D1D1D1"/>
<rect x="679.5" y="341.5" width="129.625" height="14" rx="7" fill="#D1D1D1"/>
<path d="M741.501 320.284L736.937 326.5H733.297L739.065 318.8L739.849 318.996C739.363 319.388 738.822 319.687 738.225 319.892C737.627 320.097 737.03 320.2 736.433 320.2C735.033 320.2 733.801 319.901 732.737 319.304C731.691 318.688 730.87 317.848 730.273 316.784C729.694 315.701 729.405 314.479 729.405 313.116C729.405 311.697 729.731 310.437 730.385 309.336C731.038 308.216 731.925 307.348 733.045 306.732C734.183 306.097 735.462 305.78 736.881 305.78C738.318 305.78 739.606 306.107 740.745 306.76C741.902 307.413 742.807 308.291 743.461 309.392C744.133 310.493 744.469 311.744 744.469 313.144C744.469 313.947 744.375 314.703 744.189 315.412C744.002 316.121 743.685 316.859 743.237 317.624C742.807 318.389 742.229 319.276 741.501 320.284ZM741.249 313.116C741.249 312.239 741.062 311.464 740.689 310.792C740.315 310.101 739.802 309.569 739.149 309.196C738.495 308.804 737.739 308.608 736.881 308.608C736.041 308.608 735.294 308.804 734.641 309.196C734.006 309.569 733.502 310.101 733.129 310.792C732.774 311.464 732.597 312.239 732.597 313.116C732.597 313.975 732.774 314.749 733.129 315.44C733.502 316.112 734.006 316.635 734.641 317.008C735.294 317.381 736.041 317.568 736.881 317.568C737.758 317.568 738.514 317.381 739.149 317.008C739.802 316.635 740.315 316.112 740.689 315.44C741.062 314.749 741.249 313.975 741.249 313.116ZM749.599 326.5H746.575V305.78H749.599V318.856L755.339 312.752H759.119L753.883 318.212L759.035 326.5H755.563L751.783 320.424L749.599 322.692V326.5Z" fill="#0D0D0D"/>
<rect x="829.125" y="332.5" width="129.625" height="23" rx="11.5" fill="#AEAEAE"/>
<path d="M867.258 308.972H862.89V306.144H870.31V326.5H867.258V308.972ZM886.07 306.144V326.5H883.046V306.144H886.07ZM872.63 319.724L882.038 306.144H885.398L875.878 319.92L872.63 319.724ZM888.506 322.524H872.63V319.724H888.506V322.524ZM892.316 326.836C891.718 326.836 891.205 326.631 890.776 326.22C890.365 325.809 890.16 325.324 890.16 324.764C890.16 324.167 890.365 323.663 890.776 323.252C891.205 322.841 891.718 322.636 892.316 322.636C892.894 322.636 893.389 322.841 893.8 323.252C894.229 323.663 894.444 324.167 894.444 324.764C894.444 325.324 894.229 325.809 893.8 326.22C893.389 326.631 892.894 326.836 892.316 326.836ZM907.961 320.284L903.397 326.5H899.757L905.525 318.8L906.309 318.996C905.824 319.388 905.282 319.687 904.685 319.892C904.088 320.097 903.49 320.2 902.893 320.2C901.493 320.2 900.261 319.901 899.197 319.304C898.152 318.688 897.33 317.848 896.733 316.784C896.154 315.701 895.865 314.479 895.865 313.116C895.865 311.697 896.192 310.437 896.845 309.336C897.498 308.216 898.385 307.348 899.505 306.732C900.644 306.097 901.922 305.78 903.341 305.78C904.778 305.78 906.066 306.107 907.205 306.76C908.362 307.413 909.268 308.291 909.921 309.392C910.593 310.493 910.929 311.744 910.929 313.144C910.929 313.947 910.836 314.703 910.649 315.412C910.462 316.121 910.145 316.859 909.697 317.624C909.268 318.389 908.689 319.276 907.961 320.284ZM907.709 313.116C907.709 312.239 907.522 311.464 907.149 310.792C906.776 310.101 906.262 309.569 905.609 309.196C904.956 308.804 904.2 308.608 903.341 308.608C902.501 308.608 901.754 308.804 901.101 309.196C900.466 309.569 899.962 310.101 899.589 310.792C899.234 311.464 899.057 312.239 899.057 313.116C899.057 313.975 899.234 314.749 899.589 315.44C899.962 316.112 900.466 316.635 901.101 317.008C901.754 317.381 902.501 317.568 903.341 317.568C904.218 317.568 904.974 317.381 905.609 317.008C906.262 316.635 906.776 316.112 907.149 315.44C907.522 314.749 907.709 313.975 907.709 313.116ZM916.06 326.5H913.036V305.78H916.06V318.856L921.8 312.752H925.58L920.344 318.212L925.496 326.5H922.024L918.244 320.424L916.06 322.692V326.5Z" fill="#0D0D0D"/>
<path d="M795.968 388.36V379.04H797.928V388.24C797.928 389.4 798.235 390.293 798.848 390.92C799.475 391.533 800.362 391.84 801.508 391.84C802.642 391.84 803.515 391.527 804.128 390.9C804.742 390.273 805.048 389.387 805.048 388.24V379.04H807.028V388.36C807.028 389.467 806.802 390.42 806.348 391.22C805.908 392.02 805.275 392.64 804.448 393.08C803.622 393.52 802.642 393.74 801.508 393.74C800.375 393.74 799.388 393.527 798.548 393.1C797.722 392.66 797.082 392.04 796.628 391.24C796.188 390.427 795.968 389.467 795.968 388.36ZM808.889 390.66H810.689C810.689 391.153 810.869 391.547 811.229 391.84C811.589 392.12 812.076 392.26 812.689 392.26C813.356 392.26 813.869 392.133 814.229 391.88C814.589 391.613 814.769 391.26 814.769 390.82C814.769 390.5 814.669 390.233 814.469 390.02C814.282 389.807 813.936 389.633 813.429 389.5L811.709 389.1C810.842 388.887 810.196 388.56 809.769 388.12C809.356 387.68 809.149 387.1 809.149 386.38C809.149 385.78 809.302 385.26 809.609 384.82C809.929 384.38 810.362 384.04 810.909 383.8C811.469 383.56 812.109 383.44 812.829 383.44C813.549 383.44 814.169 383.567 814.689 383.82C815.222 384.073 815.636 384.427 815.929 384.88C816.236 385.333 816.396 385.873 816.409 386.5H814.609C814.596 385.993 814.429 385.6 814.109 385.32C813.789 385.04 813.342 384.9 812.769 384.9C812.182 384.9 811.729 385.027 811.409 385.28C811.089 385.533 810.929 385.88 810.929 386.32C810.929 386.973 811.409 387.42 812.369 387.66L814.089 388.08C814.916 388.267 815.536 388.573 815.949 389C816.362 389.413 816.569 389.98 816.569 390.7C816.569 391.313 816.402 391.853 816.069 392.32C815.736 392.773 815.276 393.127 814.689 393.38C814.116 393.62 813.436 393.74 812.649 393.74C811.502 393.74 810.589 393.46 809.909 392.9C809.229 392.34 808.889 391.593 808.889 390.66ZM822.674 393.74C821.727 393.74 820.887 393.527 820.154 393.1C819.42 392.66 818.847 392.06 818.434 391.3C818.02 390.527 817.814 389.633 817.814 388.62C817.814 387.593 818.014 386.693 818.414 385.92C818.827 385.147 819.387 384.54 820.094 384.1C820.814 383.66 821.647 383.44 822.594 383.44C823.527 383.44 824.334 383.64 825.014 384.04C825.707 384.44 826.24 385 826.614 385.72C827 386.44 827.194 387.287 827.194 388.26V388.96L818.814 388.98L818.854 387.72H825.314C825.314 386.907 825.067 386.253 824.574 385.76C824.08 385.267 823.42 385.02 822.594 385.02C821.967 385.02 821.427 385.16 820.974 385.44C820.534 385.707 820.194 386.107 819.954 386.64C819.727 387.16 819.614 387.787 819.614 388.52C819.614 389.693 819.88 390.6 820.414 391.24C820.947 391.867 821.714 392.18 822.714 392.18C823.447 392.18 824.047 392.033 824.514 391.74C824.98 391.447 825.294 391.02 825.454 390.46H827.214C826.974 391.5 826.46 392.307 825.674 392.88C824.887 393.453 823.887 393.74 822.674 393.74ZM834.694 383.64V385.36H833.854C832.96 385.36 832.254 385.62 831.734 386.14C831.227 386.647 830.974 387.373 830.974 388.32V393.5H829.094V383.74H830.854L831.014 385.7H830.834C830.967 385.06 831.287 384.54 831.794 384.14C832.3 383.727 832.934 383.52 833.694 383.52C833.867 383.52 834.027 383.533 834.174 383.56C834.334 383.573 834.507 383.6 834.694 383.64ZM835.457 390.66H837.257C837.257 391.153 837.437 391.547 837.797 391.84C838.157 392.12 838.644 392.26 839.257 392.26C839.924 392.26 840.437 392.133 840.797 391.88C841.157 391.613 841.337 391.26 841.337 390.82C841.337 390.5 841.237 390.233 841.037 390.02C840.85 389.807 840.504 389.633 839.997 389.5L838.277 389.1C837.41 388.887 836.764 388.56 836.337 388.12C835.924 387.68 835.717 387.1 835.717 386.38C835.717 385.78 835.87 385.26 836.177 384.82C836.497 384.38 836.93 384.04 837.477 383.8C838.037 383.56 838.677 383.44 839.397 383.44C840.117 383.44 840.737 383.567 841.257 383.82C841.79 384.073 842.204 384.427 842.497 384.88C842.804 385.333 842.964 385.873 842.977 386.5H841.177C841.164 385.993 840.997 385.6 840.677 385.32C840.357 385.04 839.91 384.9 839.337 384.9C838.75 384.9 838.297 385.027 837.977 385.28C837.657 385.533 837.497 385.88 837.497 386.32C837.497 386.973 837.977 387.42 838.937 387.66L840.657 388.08C841.484 388.267 842.104 388.573 842.517 389C842.93 389.413 843.137 389.98 843.137 390.7C843.137 391.313 842.97 391.853 842.637 392.32C842.304 392.773 841.844 393.127 841.257 393.38C840.684 393.62 840.004 393.74 839.217 393.74C838.07 393.74 837.157 393.46 836.477 392.9C835.797 392.34 835.457 391.593 835.457 390.66Z" fill="#0D0D0D"/>
<rect x="780.125" y="407.5" width="78" height="25" rx="8" fill="#D0E3D4"/>
<path d="M794.416 416.695V424.21H793.216V416.695H794.416ZM790.066 419.845H797.566V421.045H790.066V419.845ZM801.499 415.975H799.219V414.655H802.909V425.5H801.499V415.975ZM806.152 425.68C805.862 425.68 805.607 425.58 805.387 425.38C805.177 425.17 805.072 424.92 805.072 424.63C805.072 424.33 805.177 424.08 805.387 423.88C805.607 423.67 805.862 423.565 806.152 423.565C806.442 423.565 806.692 423.67 806.902 423.88C807.112 424.08 807.217 424.33 807.217 424.63C807.217 424.92 807.112 425.17 806.902 425.38C806.692 425.58 806.442 425.68 806.152 425.68ZM809.814 418.09L812.349 414.655H814.059L810.954 418.78L810.624 418.675C810.914 418.455 811.214 418.295 811.524 418.195C811.844 418.085 812.164 418.03 812.484 418.03C813.234 418.03 813.889 418.195 814.449 418.525C815.019 418.845 815.459 419.29 815.769 419.86C816.089 420.43 816.249 421.075 816.249 421.795C816.249 422.555 816.074 423.23 815.724 423.82C815.384 424.4 814.914 424.855 814.314 425.185C813.724 425.515 813.054 425.68 812.304 425.68C811.554 425.68 810.874 425.51 810.264 425.17C809.664 424.83 809.189 424.365 808.839 423.775C808.489 423.185 808.314 422.525 808.314 421.795C808.314 421.365 808.359 420.965 808.449 420.595C808.549 420.225 808.709 419.84 808.929 419.44C809.149 419.04 809.444 418.59 809.814 418.09ZM809.814 421.81C809.814 422.31 809.919 422.755 810.129 423.145C810.339 423.525 810.629 423.825 810.999 424.045C811.379 424.255 811.814 424.36 812.304 424.36C812.784 424.36 813.209 424.255 813.579 424.045C813.949 423.825 814.239 423.525 814.449 423.145C814.659 422.755 814.764 422.31 814.764 421.81C814.764 421.31 814.659 420.87 814.449 420.49C814.239 420.11 813.949 419.815 813.579 419.605C813.209 419.385 812.784 419.275 812.304 419.275C811.814 419.275 811.379 419.385 810.999 419.605C810.629 419.815 810.339 420.11 810.129 420.49C809.919 420.87 809.814 421.31 809.814 421.81ZM818.909 418.09L821.444 414.655H823.154L820.049 418.78L819.719 418.675C820.009 418.455 820.309 418.295 820.619 418.195C820.939 418.085 821.259 418.03 821.579 418.03C822.329 418.03 822.984 418.195 823.544 418.525C824.114 418.845 824.554 419.29 824.864 419.86C825.184 420.43 825.344 421.075 825.344 421.795C825.344 422.555 825.169 423.23 824.819 423.82C824.479 424.4 824.009 424.855 823.409 425.185C822.819 425.515 822.149 425.68 821.399 425.68C820.649 425.68 819.969 425.51 819.359 425.17C818.759 424.83 818.284 424.365 817.934 423.775C817.584 423.185 817.409 422.525 817.409 421.795C817.409 421.365 817.454 420.965 817.544 420.595C817.644 420.225 817.804 419.84 818.024 419.44C818.244 419.04 818.539 418.59 818.909 418.09ZM818.909 421.81C818.909 422.31 819.014 422.755 819.224 423.145C819.434 423.525 819.724 423.825 820.094 424.045C820.474 424.255 820.909 424.36 821.399 424.36C821.879 424.36 822.304 424.255 822.674 424.045C823.044 423.825 823.334 423.525 823.544 423.145C823.754 422.755 823.859 422.31 823.859 421.81C823.859 421.31 823.754 420.87 823.544 420.49C823.334 420.11 823.044 419.815 822.674 419.605C822.304 419.385 821.879 419.275 821.399 419.275C820.909 419.275 820.474 419.385 820.094 419.605C819.724 419.815 819.434 420.11 819.224 420.49C819.014 420.87 818.909 421.31 818.909 421.81ZM827.659 425.5H826.039L828.604 421.87L826.054 418.165H827.689L829.549 420.895L831.364 418.165H832.969L830.419 421.87L832.924 425.5H831.289L829.459 422.815L827.659 425.5Z" fill="#009D24"/>
<path d="M841.375 424.667V425.417H842.875V424.667H841.375ZM842.875 415.334C842.875 414.919 842.539 414.584 842.125 414.584C841.711 414.584 841.375 414.919 841.375 415.334H842.875ZM842.125 424.667H842.875V415.334H842.125H841.375V424.667H842.125Z" fill="#009D24"/>
<path d="M845.595 419.863L846.125 420.394L847.186 419.333L846.655 418.803L845.595 419.863ZM842.655 414.803C842.362 414.51 841.888 414.51 841.595 414.803C841.302 415.096 841.302 415.57 841.595 415.863L842.655 414.803ZM846.125 419.333L846.655 418.803L842.655 414.803L842.125 415.333L841.595 415.863L845.595 419.863L846.125 419.333Z" fill="#009D24"/>
<path d="M837.595 418.803L837.064 419.333L838.125 420.394L838.655 419.863L837.595 418.803ZM842.655 415.863C842.948 415.57 842.948 415.096 842.655 414.803C842.362 414.51 841.888 414.51 841.595 414.803L842.655 415.863ZM838.125 419.333L838.655 419.863L842.655 415.863L842.125 415.333L841.595 414.803L837.595 418.803L838.125 419.333Z" fill="#009D24"/>
<rect x="998.75" y="266.5" width="129.625" height="89" rx="12" fill="#D1D1D1"/>
<path d="M1039.79 326.836C1038.39 326.836 1037.16 326.556 1036.1 325.996C1035.05 325.436 1034.24 324.652 1033.66 323.644C1033.1 322.617 1032.82 321.423 1032.82 320.06H1035.93C1035.93 321.292 1036.28 322.263 1036.97 322.972C1037.68 323.663 1038.64 324.008 1039.85 324.008C1040.71 324.008 1041.45 323.831 1042.06 323.476C1042.7 323.121 1043.19 322.627 1043.55 321.992C1043.9 321.339 1044.08 320.573 1044.08 319.696C1044.08 318.856 1043.91 318.119 1043.57 317.484C1043.24 316.849 1042.76 316.355 1042.15 316C1041.53 315.627 1040.77 315.44 1039.88 315.44C1039.08 315.44 1038.32 315.617 1037.61 315.972C1036.9 316.327 1036.34 316.784 1035.93 317.344L1033.19 316.7L1035.68 306.144H1046.07V309.056H1037.02L1038.25 307.936L1036.49 314.964L1035.43 315.3C1035.91 314.479 1036.6 313.853 1037.5 313.424C1038.39 312.976 1039.4 312.752 1040.52 312.752C1041.89 312.752 1043.07 313.041 1044.08 313.62C1045.11 314.199 1045.9 315.001 1046.46 316.028C1047.02 317.055 1047.3 318.231 1047.3 319.556C1047.3 320.993 1046.98 322.263 1046.35 323.364C1045.71 324.447 1044.83 325.296 1043.71 325.912C1042.59 326.528 1041.29 326.836 1039.79 326.836ZM1047.43 306.144H1061.85V309.056H1047.43V306.144ZM1059.39 307.432L1061.85 309.056L1054.32 326.5H1051.05L1059.39 307.432ZM1062.35 326.836C1061.75 326.836 1061.24 326.631 1060.81 326.22C1060.4 325.809 1060.19 325.324 1060.19 324.764C1060.19 324.167 1060.4 323.663 1060.81 323.252C1061.24 322.841 1061.75 322.636 1062.35 322.636C1062.93 322.636 1063.42 322.841 1063.83 323.252C1064.26 323.663 1064.48 324.167 1064.48 324.764C1064.48 325.324 1064.26 325.809 1063.83 326.22C1063.42 326.631 1062.93 326.836 1062.35 326.836ZM1073.18 326.836C1071.78 326.836 1070.54 326.556 1069.48 325.996C1068.44 325.436 1067.62 324.652 1067.04 323.644C1066.48 322.617 1066.2 321.423 1066.2 320.06H1069.31C1069.31 321.292 1069.66 322.263 1070.35 322.972C1071.06 323.663 1072.02 324.008 1073.23 324.008C1074.09 324.008 1074.83 323.831 1075.44 323.476C1076.08 323.121 1076.57 322.627 1076.93 321.992C1077.28 321.339 1077.46 320.573 1077.46 319.696C1077.46 318.856 1077.29 318.119 1076.96 317.484C1076.62 316.849 1076.14 316.355 1075.53 316C1074.91 315.627 1074.16 315.44 1073.26 315.44C1072.46 315.44 1071.7 315.617 1070.99 315.972C1070.28 316.327 1069.72 316.784 1069.31 317.344L1066.57 316.7L1069.06 306.144H1079.45V309.056H1070.4L1071.64 307.936L1069.87 314.964L1068.81 315.3C1069.29 314.479 1069.98 313.853 1070.88 313.424C1071.78 312.976 1072.78 312.752 1073.9 312.752C1075.27 312.752 1076.45 313.041 1077.46 313.62C1078.49 314.199 1079.28 315.001 1079.84 316.028C1080.4 317.055 1080.68 318.231 1080.68 319.556C1080.68 320.993 1080.36 322.263 1079.73 323.364C1079.09 324.447 1078.22 325.296 1077.1 325.912C1075.98 326.528 1074.67 326.836 1073.18 326.836ZM1085.68 326.5H1082.66V305.78H1085.68V318.856L1091.42 312.752H1095.2L1089.97 318.212L1095.12 326.5H1091.65L1087.87 320.424L1085.68 322.692V326.5Z" fill="#0D0D0D"/>
<rect x="1148.38" y="91.5" width="129.625" height="264" rx="12" fill="#AEAEAE"/>
<path d="M1193.51 308.972H1189.14V306.144H1196.56V326.5H1193.51V308.972ZM1198.56 306.144H1212.98V309.056H1198.56V306.144ZM1210.52 307.432L1212.98 309.056L1205.45 326.5H1202.18L1210.52 307.432ZM1218.1 308.972H1213.74V306.144H1221.16V326.5H1218.1V308.972ZM1227.51 326.5H1224.48V305.78H1227.51V318.856L1233.25 312.752H1237.03L1231.79 318.212L1236.94 326.5H1233.47L1229.69 320.424L1227.51 322.692V326.5Z" fill="#0D0D0D"/>
<path d="M1118.13 393.5L1112.63 379.04H1114.73L1118.25 388.28C1118.41 388.68 1118.56 389.1 1118.71 389.54C1118.85 389.967 1119 390.453 1119.15 391C1119.32 390.427 1119.49 389.907 1119.65 389.44C1119.81 388.973 1119.95 388.58 1120.07 388.26L1123.57 379.04H1125.61L1120.17 393.5H1118.13ZM1126.97 393.5V383.72H1128.85V393.5H1126.97ZM1127.89 381.4C1127.55 381.4 1127.26 381.28 1127.01 381.04C1126.77 380.787 1126.65 380.493 1126.65 380.16C1126.65 379.813 1126.77 379.52 1127.01 379.28C1127.26 379.04 1127.55 378.92 1127.89 378.92C1128.23 378.92 1128.53 379.04 1128.77 379.28C1129.01 379.52 1129.13 379.813 1129.13 380.16C1129.13 380.493 1129.01 380.787 1128.77 381.04C1128.53 381.28 1128.23 381.4 1127.89 381.4ZM1135.6 393.74C1134.65 393.74 1133.81 393.527 1133.08 393.1C1132.34 392.66 1131.77 392.06 1131.36 391.3C1130.94 390.527 1130.74 389.633 1130.74 388.62C1130.74 387.593 1130.94 386.693 1131.34 385.92C1131.75 385.147 1132.31 384.54 1133.02 384.1C1133.74 383.66 1134.57 383.44 1135.52 383.44C1136.45 383.44 1137.26 383.64 1137.94 384.04C1138.63 384.44 1139.16 385 1139.54 385.72C1139.92 386.44 1140.12 387.287 1140.12 388.26V388.96L1131.74 388.98L1131.78 387.72H1138.24C1138.24 386.907 1137.99 386.253 1137.5 385.76C1137 385.267 1136.34 385.02 1135.52 385.02C1134.89 385.02 1134.35 385.16 1133.9 385.44C1133.46 385.707 1133.12 386.107 1132.88 386.64C1132.65 387.16 1132.54 387.787 1132.54 388.52C1132.54 389.693 1132.8 390.6 1133.34 391.24C1133.87 391.867 1134.64 392.18 1135.64 392.18C1136.37 392.18 1136.97 392.033 1137.44 391.74C1137.9 391.447 1138.22 391.02 1138.38 390.46H1140.14C1139.9 391.5 1139.38 392.307 1138.6 392.88C1137.81 393.453 1136.81 393.74 1135.6 393.74ZM1143.78 393.5L1140.58 383.72H1142.52L1144.14 388.8C1144.26 389.16 1144.37 389.533 1144.46 389.92C1144.56 390.293 1144.65 390.693 1144.74 391.12C1144.8 390.827 1144.86 390.547 1144.92 390.28C1145 390 1145.08 389.74 1145.16 389.5C1145.24 389.247 1145.32 389.013 1145.38 388.8L1147.02 383.72H1148.94L1150.56 388.8C1150.62 388.92 1150.66 389.08 1150.7 389.28C1150.76 389.467 1150.82 389.667 1150.88 389.88C1150.95 390.093 1151.01 390.307 1151.06 390.52C1151.12 390.733 1151.16 390.933 1151.2 391.12C1151.26 390.853 1151.31 390.6 1151.36 390.36C1151.43 390.107 1151.5 389.86 1151.56 389.62C1151.64 389.367 1151.73 389.093 1151.82 388.8L1153.46 383.72H1155.42L1152.08 393.5H1150.3L1148.6 388.26C1148.44 387.767 1148.31 387.333 1148.2 386.96C1148.11 386.573 1148.04 386.247 1147.98 385.98C1147.93 386.22 1147.85 386.52 1147.74 386.88C1147.65 387.227 1147.52 387.693 1147.34 388.28L1145.64 393.5H1143.78ZM1155.92 390.66H1157.72C1157.72 391.153 1157.9 391.547 1158.26 391.84C1158.62 392.12 1159.1 392.26 1159.72 392.26C1160.38 392.26 1160.9 392.133 1161.26 391.88C1161.62 391.613 1161.8 391.26 1161.8 390.82C1161.8 390.5 1161.7 390.233 1161.5 390.02C1161.31 389.807 1160.96 389.633 1160.46 389.5L1158.74 389.1C1157.87 388.887 1157.22 388.56 1156.8 388.12C1156.38 387.68 1156.18 387.1 1156.18 386.38C1156.18 385.78 1156.33 385.26 1156.64 384.82C1156.96 384.38 1157.39 384.04 1157.94 383.8C1158.5 383.56 1159.14 383.44 1159.86 383.44C1160.58 383.44 1161.2 383.567 1161.72 383.82C1162.25 384.073 1162.66 384.427 1162.96 384.88C1163.26 385.333 1163.42 385.873 1163.44 386.5H1161.64C1161.62 385.993 1161.46 385.6 1161.14 385.32C1160.82 385.04 1160.37 384.9 1159.8 384.9C1159.21 384.9 1158.76 385.027 1158.44 385.28C1158.12 385.533 1157.96 385.88 1157.96 386.32C1157.96 386.973 1158.44 387.42 1159.4 387.66L1161.12 388.08C1161.94 388.267 1162.56 388.573 1162.98 389C1163.39 389.413 1163.6 389.98 1163.6 390.7C1163.6 391.313 1163.43 391.853 1163.1 392.32C1162.76 392.773 1162.3 393.127 1161.72 393.38C1161.14 393.62 1160.46 393.74 1159.68 393.74C1158.53 393.74 1157.62 393.46 1156.94 392.9C1156.26 392.34 1155.92 391.593 1155.92 390.66Z" fill="#0D0D0D"/>
<rect x="1097.88" y="407.5" width="81" height="25" rx="8" fill="#D0E3D4"/>
<path d="M1111.72 416.695V424.21H1110.52V416.695H1111.72ZM1107.37 419.845H1114.87V421.045H1107.37V419.845ZM1124.01 425.485L1116.69 425.5V424.375L1120.19 421.36C1120.63 420.99 1120.99 420.655 1121.28 420.355C1121.57 420.055 1121.8 419.78 1121.97 419.53C1122.14 419.27 1122.26 419.015 1122.33 418.765C1122.4 418.515 1122.44 418.245 1122.44 417.955C1122.44 417.275 1122.25 416.745 1121.88 416.365C1121.52 415.975 1121.01 415.78 1120.35 415.78C1119.68 415.78 1119.14 416.01 1118.73 416.47C1118.33 416.92 1118.13 417.53 1118.12 418.3H1116.65C1116.67 417.53 1116.83 416.855 1117.14 416.275C1117.45 415.695 1117.88 415.25 1118.43 414.94C1118.99 414.62 1119.64 414.46 1120.37 414.46C1121.1 414.46 1121.73 414.6 1122.26 414.88C1122.79 415.16 1123.2 415.555 1123.49 416.065C1123.79 416.565 1123.94 417.165 1123.94 417.865C1123.94 418.245 1123.89 418.61 1123.79 418.96C1123.69 419.3 1123.53 419.64 1123.31 419.98C1123.1 420.31 1122.82 420.655 1122.48 421.015C1122.14 421.365 1121.73 421.75 1121.25 422.17L1118.42 424.63L1117.92 424.12H1124.01V425.485ZM1126.76 425.68C1126.47 425.68 1126.21 425.58 1125.99 425.38C1125.78 425.17 1125.68 424.92 1125.68 424.63C1125.68 424.33 1125.78 424.08 1125.99 423.88C1126.21 423.67 1126.47 423.565 1126.76 423.565C1127.05 423.565 1127.3 423.67 1127.51 423.88C1127.72 424.08 1127.82 424.33 1127.82 424.63C1127.82 424.92 1127.72 425.17 1127.51 425.38C1127.3 425.58 1127.05 425.68 1126.76 425.68ZM1135.43 422.065L1132.89 425.5H1131.18L1134.29 421.375L1134.62 421.48C1134.33 421.69 1134.02 421.85 1133.7 421.96C1133.39 422.07 1133.08 422.125 1132.76 422.125C1132.01 422.125 1131.35 421.96 1130.78 421.63C1130.22 421.3 1129.78 420.85 1129.46 420.28C1129.15 419.71 1128.99 419.065 1128.99 418.345C1128.99 417.595 1129.16 416.93 1129.5 416.35C1129.85 415.76 1130.32 415.3 1130.91 414.97C1131.51 414.63 1132.19 414.46 1132.94 414.46C1133.69 414.46 1134.36 414.635 1134.96 414.985C1135.57 415.325 1136.05 415.79 1136.4 416.38C1136.75 416.96 1136.93 417.62 1136.93 418.36C1136.93 418.78 1136.88 419.18 1136.78 419.56C1136.69 419.93 1136.53 420.315 1136.31 420.715C1136.09 421.105 1135.8 421.555 1135.43 422.065ZM1135.43 418.345C1135.43 417.845 1135.32 417.405 1135.11 417.025C1134.9 416.635 1134.61 416.33 1134.23 416.11C1133.86 415.89 1133.43 415.78 1132.94 415.78C1132.46 415.78 1132.03 415.89 1131.66 416.11C1131.29 416.33 1131 416.635 1130.79 417.025C1130.58 417.405 1130.48 417.845 1130.48 418.345C1130.48 418.835 1130.58 419.275 1130.79 419.665C1131 420.045 1131.29 420.345 1131.66 420.565C1132.03 420.775 1132.46 420.88 1132.94 420.88C1133.43 420.88 1133.86 420.775 1134.23 420.565C1134.61 420.345 1134.9 420.045 1135.11 419.665C1135.32 419.275 1135.43 418.835 1135.43 418.345ZM1138.04 422.485C1138.04 421.745 1138.27 421.11 1138.72 420.58C1139.17 420.04 1139.77 419.7 1140.52 419.56L1140.53 419.875C1139.86 419.695 1139.34 419.385 1138.97 418.945C1138.61 418.495 1138.43 417.95 1138.43 417.31C1138.43 416.74 1138.58 416.245 1138.88 415.825C1139.18 415.395 1139.6 415.06 1140.14 414.82C1140.69 414.58 1141.33 414.46 1142.05 414.46C1142.76 414.46 1143.38 414.58 1143.91 414.82C1144.45 415.06 1144.87 415.395 1145.17 415.825C1145.47 416.255 1145.62 416.755 1145.62 417.325C1145.62 417.965 1145.43 418.51 1145.06 418.96C1144.7 419.4 1144.19 419.7 1143.52 419.86L1143.5 419.575C1144 419.645 1144.44 419.82 1144.82 420.1C1145.2 420.37 1145.5 420.71 1145.71 421.12C1145.92 421.53 1146.02 421.99 1146.02 422.5C1146.02 423.13 1145.85 423.685 1145.51 424.165C1145.18 424.645 1144.72 425.02 1144.12 425.29C1143.53 425.55 1142.83 425.68 1142.03 425.68C1141.23 425.68 1140.53 425.55 1139.93 425.29C1139.33 425.02 1138.87 424.645 1138.54 424.165C1138.21 423.685 1138.04 423.125 1138.04 422.485ZM1139.48 422.38C1139.48 422.78 1139.59 423.13 1139.8 423.43C1140.01 423.73 1140.3 423.965 1140.68 424.135C1141.07 424.295 1141.52 424.375 1142.03 424.375C1142.54 424.375 1142.99 424.295 1143.37 424.135C1143.75 423.965 1144.04 423.73 1144.25 423.43C1144.46 423.13 1144.57 422.78 1144.57 422.38C1144.57 421.78 1144.34 421.305 1143.88 420.955C1143.42 420.595 1142.8 420.415 1142.02 420.415C1141.25 420.415 1140.63 420.595 1140.17 420.955C1139.71 421.305 1139.48 421.78 1139.48 422.38ZM1139.78 417.4C1139.78 417.93 1139.98 418.355 1140.38 418.675C1140.79 418.995 1141.34 419.155 1142.02 419.155C1142.7 419.155 1143.24 419 1143.64 418.69C1144.04 418.37 1144.24 417.95 1144.24 417.43C1144.24 416.91 1144.04 416.5 1143.64 416.2C1143.24 415.89 1142.7 415.735 1142.02 415.735C1141.34 415.735 1140.79 415.89 1140.38 416.2C1139.98 416.5 1139.78 416.9 1139.78 417.4ZM1148.41 425.5H1146.79L1149.35 421.87L1146.8 418.165H1148.44L1150.3 420.895L1152.11 418.165H1153.72L1151.17 421.87L1153.67 425.5H1152.04L1150.21 422.815L1148.41 425.5Z" fill="#009D24"/>
<path d="M1162.12 424.667V425.417H1163.62V424.667H1162.12ZM1163.62 415.334C1163.62 414.919 1163.29 414.584 1162.88 414.584C1162.46 414.584 1162.12 414.919 1162.12 415.334H1163.62ZM1162.88 424.667H1163.62V415.334H1162.88H1162.12V424.667H1162.88Z" fill="#009D24"/>
<path d="M1166.34 419.863L1166.88 420.394L1167.94 419.333L1167.41 418.803L1166.34 419.863ZM1163.41 414.803C1163.11 414.51 1162.64 414.51 1162.34 414.803C1162.05 415.096 1162.05 415.57 1162.34 415.863L1163.41 414.803ZM1166.88 419.333L1167.41 418.803L1163.41 414.803L1162.88 415.333L1162.34 415.863L1166.34 419.863L1166.88 419.333Z" fill="#009D24"/>
<path d="M1158.34 418.803L1157.81 419.333L1158.88 420.394L1159.41 419.863L1158.34 418.803ZM1163.41 415.863C1163.7 415.57 1163.7 415.096 1163.41 414.803C1163.11 414.51 1162.64 414.51 1162.34 414.803L1163.41 415.863ZM1158.88 419.333L1159.41 419.863L1163.41 415.863L1162.88 415.333L1162.34 414.803L1158.34 418.803L1158.88 419.333Z" fill="#009D24"/>
</g>
<defs>
<clipPath id="clip0_6624_23451">
<rect width="1278" height="432" fill="white" transform="translate(0 0.5)"/>
</clipPath>
</defs>
</svg>
