<svg width="1536" height="760" viewBox="0 0 1536 760" fill="none" xmlns="http://www.w3.org/2000/svg">
<path d="M656.881 187V170.2H663.841C667.345 170.2 669.409 172.072 669.409 175.144C669.409 178.24 667.345 180.136 663.841 180.136H659.281V187H656.881ZM659.281 177.904H663.745C665.809 177.904 666.961 176.896 666.961 175.144C666.961 173.44 665.809 172.456 663.745 172.456H659.281V177.904ZM676.023 187.336C673.215 187.336 671.487 185.608 671.487 182.416V175.456H673.815V182.2C673.815 184.264 674.775 185.224 676.455 185.224C678.207 185.224 679.335 183.976 679.335 182.128V175.456H681.663V187H679.599V185.68C678.831 186.808 677.511 187.336 676.023 187.336ZM684.988 187V175.456H687.052V177.328C687.34 176.176 688.204 175.456 689.572 175.456H691.78V177.496H689.356C687.916 177.496 687.316 178.312 687.316 179.872V187H684.988ZM698.012 187.336C694.556 187.336 692.324 184.768 692.324 181.264C692.324 177.664 694.676 175.12 698.156 175.12C701.084 175.12 703.076 176.824 703.34 179.248H700.964C700.748 178.168 699.788 177.232 698.132 177.232C696.068 177.232 694.724 178.792 694.724 181.216C694.724 183.688 696.092 185.224 698.084 185.224C699.644 185.224 700.772 184.312 701.012 182.968H703.388C703.076 185.272 701.156 187.336 698.012 187.336ZM705.532 187V170.2H707.86V176.584C708.628 175.6 709.852 175.12 711.244 175.12C714.076 175.12 715.852 176.848 715.852 180.04V187H713.524V180.256C713.524 178.192 712.516 177.232 710.812 177.232C709.036 177.232 707.86 178.456 707.86 180.328V187H705.532ZM722.456 187.336C719.792 187.336 718.112 185.944 718.112 183.736C718.112 181.672 719.504 180.184 722.336 180.016L725.84 179.824V179.176C725.84 177.664 725.096 177.04 723.512 177.04C721.976 177.04 721.208 177.448 721.016 178.672H718.688C718.952 176.296 720.584 175.12 723.68 175.12C726.44 175.12 728.048 176.512 728.048 179.056V184.696C728.048 184.96 728.168 185.08 728.432 185.08H729.416V187H727.544C726.752 187 726.296 186.568 726.296 185.8V185.464C725.624 186.64 724.256 187.336 722.456 187.336ZM720.44 183.664C720.44 184.72 721.304 185.416 722.72 185.416C724.592 185.416 725.84 184.336 725.84 182.368V181.624L722.624 181.864C721.136 181.96 720.44 182.728 720.44 183.664ZM735.638 187.336C732.518 187.336 730.67 186.088 730.55 183.712H732.95C733.07 184.864 734.006 185.44 735.686 185.44C737.222 185.44 738.158 184.792 738.158 183.736C738.158 182.872 737.51 182.368 736.31 182.248L734.462 182.056C732.302 181.84 730.934 180.64 730.934 178.72C730.934 176.512 732.782 175.12 735.614 175.12C738.494 175.12 740.27 176.32 740.414 178.672H738.086C738.014 177.568 737.102 177.016 735.59 177.016C734.15 177.016 733.238 177.616 733.238 178.6C733.238 179.44 733.862 179.896 735.206 180.064L737.078 180.28C739.262 180.52 740.51 181.744 740.51 183.64C740.51 185.896 738.614 187.336 735.638 187.336ZM748.1 187.336C744.644 187.336 742.34 184.912 742.34 181.168C742.34 177.448 744.644 175.12 747.932 175.12C751.364 175.12 753.476 177.352 753.476 180.88C753.476 181.192 753.452 181.504 753.404 181.984H744.644C744.74 184.096 746.036 185.368 748.1 185.368C749.468 185.368 750.428 184.744 750.884 183.712H753.26C752.54 185.944 750.764 187.336 748.1 187.336ZM744.644 180.16H751.124V180.04C751.124 178.264 749.972 176.992 747.932 176.992C745.988 176.992 744.74 178.288 744.644 180.16ZM767.078 187.336C763.574 187.336 761.126 184.888 761.126 181.216C761.126 177.568 763.574 175.12 767.078 175.12C770.606 175.12 773.03 177.568 773.03 181.216C773.03 184.888 770.606 187.336 767.078 187.336ZM763.526 181.216C763.526 183.616 764.966 185.224 767.078 185.224C769.214 185.224 770.63 183.616 770.63 181.216C770.63 178.84 769.214 177.232 767.078 177.232C764.966 177.232 763.526 178.84 763.526 181.216ZM776.805 173.344C776.805 171.328 777.981 170.2 779.973 170.2H783.717V172.24H780.453C779.613 172.24 779.109 172.672 779.109 173.584V175.456H782.997V177.496H779.109V187H776.805V177.496H773.757V175.456H776.805V173.344ZM796.819 187.336C792.667 187.336 790.171 185.248 790.147 181.864H792.619C792.643 183.904 794.227 185.2 796.819 185.2C799.123 185.2 800.587 184 800.587 182.176C800.587 180.712 799.651 179.824 797.731 179.56L795.523 179.248C792.307 178.816 790.699 177.232 790.699 174.712C790.699 171.76 793.075 169.864 796.699 169.864C800.467 169.864 802.771 171.688 802.843 174.616H800.371C800.299 172.984 798.907 171.976 796.699 171.976C794.587 171.976 793.195 172.984 793.195 174.568C793.195 175.936 794.179 176.704 796.243 176.992L798.331 177.28C801.451 177.712 803.083 179.32 803.083 182.032C803.083 185.248 800.707 187.336 796.819 187.336ZM810.832 187.336C807.376 187.336 805.072 184.912 805.072 181.168C805.072 177.448 807.376 175.12 810.664 175.12C814.096 175.12 816.208 177.352 816.208 180.88C816.208 181.192 816.184 181.504 816.136 181.984H807.376C807.472 184.096 808.768 185.368 810.832 185.368C812.2 185.368 813.16 184.744 813.616 183.712H815.992C815.272 185.944 813.496 187.336 810.832 187.336ZM807.376 180.16H813.856V180.04C813.856 178.264 812.704 176.992 810.664 176.992C808.72 176.992 807.472 178.288 807.376 180.16ZM818.773 187V175.456H820.837V177.328C821.125 176.176 821.989 175.456 823.357 175.456H825.565V177.496H823.141C821.701 177.496 821.101 178.312 821.101 179.872V187H818.773ZM830.96 187L826.16 175.456H828.752L832.304 184.504L835.832 175.456H838.424L833.6 187H830.96ZM840.253 187V175.456H842.581V187H840.253ZM840.109 173.128V170.368H842.701V173.128H840.109ZM850.909 187.336C847.453 187.336 845.221 184.768 845.221 181.264C845.221 177.664 847.573 175.12 851.053 175.12C853.981 175.12 855.973 176.824 856.237 179.248H853.861C853.645 178.168 852.685 177.232 851.029 177.232C848.965 177.232 847.621 178.792 847.621 181.216C847.621 183.688 848.989 185.224 850.981 185.224C852.541 185.224 853.669 184.312 853.909 182.968H856.285C855.973 185.272 854.053 187.336 850.909 187.336ZM863.562 187.336C860.106 187.336 857.802 184.912 857.802 181.168C857.802 177.448 860.106 175.12 863.394 175.12C866.826 175.12 868.938 177.352 868.938 180.88C868.938 181.192 868.914 181.504 868.866 181.984H860.106C860.202 184.096 861.498 185.368 863.562 185.368C864.93 185.368 865.89 184.744 866.346 183.712H868.722C868.002 185.944 866.226 187.336 863.562 187.336ZM860.106 180.16H866.586V180.04C866.586 178.264 865.434 176.992 863.394 176.992C861.45 176.992 860.202 178.288 860.106 180.16ZM875.51 187.336C872.39 187.336 870.542 186.088 870.422 183.712H872.822C872.942 184.864 873.878 185.44 875.558 185.44C877.094 185.44 878.03 184.792 878.03 183.736C878.03 182.872 877.382 182.368 876.182 182.248L874.334 182.056C872.174 181.84 870.806 180.64 870.806 178.72C870.806 176.512 872.654 175.12 875.486 175.12C878.366 175.12 880.142 176.32 880.286 178.672H877.958C877.886 177.568 876.974 177.016 875.462 177.016C874.022 177.016 873.11 177.616 873.11 178.6C873.11 179.44 873.734 179.896 875.078 180.064L876.95 180.28C879.134 180.52 880.382 181.744 880.382 183.64C880.382 185.896 878.486 187.336 875.51 187.336Z" fill="#0D0D0D"/>
<path d="M1407 538L1402 535.113V540.887L1407 538ZM129 538.5L1402.5 538.5V537.5L129 537.5V538.5Z" fill="#0D0D0D"/>
<path d="M188 418H357" stroke="#0D0D0D"/>
<path d="M381 418L1407 418" stroke="#0D0D0D"/>
<path d="M129.84 297V295.18H134.24C136.24 295.18 137.4 294.24 137.4 292.68C137.4 291.24 136.28 290.34 134.34 290.34H132.24V288.72L136.3 284.82H129.64V283H138.86V284.82L134.64 288.76H134.9C137.66 288.76 139.42 290.32 139.42 292.66C139.42 295.28 137.34 297 134.24 297H129.84ZM147.043 297.28C143.243 297.28 141.423 294.7 141.423 290C141.423 285.3 143.243 282.72 147.043 282.72C150.843 282.72 152.663 285.3 152.663 290C152.663 294.7 150.843 297.28 147.043 297.28ZM143.443 290C143.443 293.66 144.563 295.56 147.043 295.56C149.503 295.56 150.623 293.66 150.623 290C150.623 286.34 149.503 284.44 147.043 284.44C144.563 284.44 143.443 286.34 143.443 290Z" fill="#0D0D0D"/>
<path d="M164 289H180" stroke="#0D0D0D"/>
<path d="M129.92 337.54C129.92 334.96 131.12 333.76 133.36 333.12L135.32 332.56C136.86 332.12 137.58 331.38 137.58 330.12C137.58 328.74 136.6 327.82 135.1 327.82H130.6V326H135.1C137.76 326 139.6 327.62 139.6 330.12C139.6 332.14 138.24 333.52 136.28 334.12L133.88 334.84C132.5 335.26 131.94 335.94 131.94 337.2V338.18H139.48V340H129.92V337.54ZM141.773 340V338.18H146.173C147.893 338.18 149.073 337.14 149.073 335.6C149.073 334.08 147.993 333.04 146.173 333.04H142.113V326H150.473V327.82H144.053V331.28H146.393C149.233 331.28 151.093 332.98 151.093 335.52C151.093 338.18 149.133 340 146.173 340H141.773Z" fill="#0D0D0D"/>
<path d="M164 332H180" stroke="#0D0D0D"/>
<path d="M129.92 380.54C129.92 377.96 131.12 376.76 133.36 376.12L135.32 375.56C136.86 375.12 137.58 374.38 137.58 373.12C137.58 371.74 136.6 370.82 135.1 370.82H130.6V369H135.1C137.76 369 139.6 370.62 139.6 373.12C139.6 375.14 138.24 376.52 136.28 377.12L133.88 377.84C132.5 378.26 131.94 378.94 131.94 380.2V381.18H139.48V383H129.92V380.54ZM147.14 383.28C143.34 383.28 141.52 380.7 141.52 376C141.52 371.3 143.34 368.72 147.14 368.72C150.94 368.72 152.76 371.3 152.76 376C152.76 380.7 150.94 383.28 147.14 383.28ZM143.54 376C143.54 379.66 144.66 381.56 147.14 381.56C149.6 381.56 150.72 379.66 150.72 376C150.72 372.34 149.6 370.44 147.14 370.44C144.66 370.44 143.54 372.34 143.54 376Z" fill="#0D0D0D"/>
<path d="M164 375H180" stroke="#0D0D0D"/>
<path d="M129.68 426V424.18H133.34V413.86H130.8V412H135.28V424.18H138.88V426H129.68ZM140.23 426V424.18H144.63C146.35 424.18 147.53 423.14 147.53 421.6C147.53 420.08 146.45 419.04 144.63 419.04H140.57V412H148.93V413.82H142.51V417.28H144.85C147.69 417.28 149.55 418.98 149.55 421.52C149.55 424.18 147.59 426 144.63 426H140.23Z" fill="#0D0D0D"/>
<path d="M164 418H180" stroke="#0D0D0D"/>
<path d="M129.68 469V467.18H133.34V456.86H130.8V455H135.28V467.18H138.88V469H129.68ZM145.48 469.28C141.68 469.28 139.86 466.7 139.86 462C139.86 457.3 141.68 454.72 145.48 454.72C149.28 454.72 151.1 457.3 151.1 462C151.1 466.7 149.28 469.28 145.48 469.28ZM141.88 462C141.88 465.66 143 467.56 145.48 467.56C147.94 467.56 149.06 465.66 149.06 462C149.06 458.34 147.94 456.44 145.48 456.44C143 456.44 141.88 458.34 141.88 462Z" fill="#0D0D0D"/>
<path d="M164 461H180" stroke="#0D0D0D"/>
<path d="M130 512V510.18H134.4C136.12 510.18 137.3 509.14 137.3 507.6C137.3 506.08 136.22 505.04 134.4 505.04H130.34V498H138.7V499.82H132.28V503.28H134.62C137.46 503.28 139.32 504.98 139.32 507.52C139.32 510.18 137.36 512 134.4 512H130Z" fill="#0D0D0D"/>
<path d="M164 504H180" stroke="#0D0D0D"/>
<path d="M172 255L169.113 260L174.887 260L172 255ZM172.5 596L172.5 259.5L171.5 259.5L171.5 596L172.5 596Z" fill="#0D0D0D"/>
<path fill-rule="evenodd" clip-rule="evenodd" d="M264.5 517.917L264.5 522L263.5 522L263.5 517.917L264.5 517.917ZM264.5 501.583L264.5 509.75L263.5 509.75L263.5 501.583L264.5 501.583ZM264.5 485.25L264.5 493.417L263.5 493.417L263.5 485.25L264.5 485.25ZM264.5 473L264.5 477.083L263.5 477.083L263.5 473L264.5 473Z" fill="#8B8A88"/>
<path fill-rule="evenodd" clip-rule="evenodd" d="M369.5 518.167L369.5 522L368.5 522L368.5 518.167L369.5 518.167ZM369.5 502.833L369.5 510.5L368.5 510.5L368.5 502.833L369.5 502.833ZM369.5 487.5L369.5 495.167L368.5 495.167L368.5 487.5L369.5 487.5ZM369.5 472.167L369.5 479.833L368.5 479.833L368.5 472.167L369.5 472.167ZM369.5 456.833L369.5 464.5L368.5 464.5L368.5 456.833L369.5 456.833ZM369.5 441.5L369.5 449.167L368.5 449.167L368.5 441.5L369.5 441.5ZM369.5 430L369.5 433.833L368.5 433.833L368.5 430L369.5 430Z" fill="#8B8A88"/>
<path fill-rule="evenodd" clip-rule="evenodd" d="M474.5 517.806L474.5 522L473.5 522L473.5 517.806L474.5 517.806ZM474.5 501.028L474.5 509.417L473.5 509.417L473.5 501.028L474.5 501.028ZM474.5 484.25L474.5 492.639L473.5 492.639L473.5 484.25L474.5 484.25ZM474.5 467.472L474.5 475.861L473.5 475.861L473.5 467.472L474.5 467.472ZM474.5 450.694L474.5 459.083L473.5 459.083L473.5 450.694L474.5 450.694ZM474.5 433.917L474.5 442.306L473.5 442.306L473.5 433.917L474.5 433.917ZM474.5 417.139L474.5 425.528L473.5 425.528L473.5 417.139L474.5 417.139ZM474.5 400.361L474.5 408.75L473.5 408.75L473.5 400.361L474.5 400.361ZM474.5 383.583L474.5 391.972L473.5 391.972L473.5 383.583L474.5 383.583ZM474.5 371L474.5 375.194L473.5 375.194L473.5 371L474.5 371Z" fill="#8B8A88"/>
<path fill-rule="evenodd" clip-rule="evenodd" d="M579.5 517.979L579.5 522L578.5 522L578.5 517.979L579.5 517.979ZM579.5 501.896L579.5 509.938L578.5 509.938L578.5 501.896L579.5 501.896ZM579.5 485.812L579.5 493.854L578.5 493.854L578.5 485.812L579.5 485.812ZM579.5 469.729L579.5 477.771L578.5 477.771L578.5 469.729L579.5 469.729ZM579.5 453.646L579.5 461.687L578.5 461.687L578.5 453.646L579.5 453.646ZM579.5 437.563L579.5 445.604L578.5 445.604L578.5 437.562L579.5 437.563ZM579.5 421.479L579.5 429.521L578.5 429.521L578.5 421.479L579.5 421.479ZM579.5 405.396L579.5 413.438L578.5 413.438L578.5 405.396L579.5 405.396ZM579.5 389.313L579.5 397.354L578.5 397.354L578.5 389.313L579.5 389.313ZM579.5 373.229L579.5 381.271L578.5 381.271L578.5 373.229L579.5 373.229ZM579.5 357.146L579.5 365.188L578.5 365.188L578.5 357.146L579.5 357.146ZM579.5 341.062L579.5 349.104L578.5 349.104L578.5 341.062L579.5 341.062ZM579.5 329L579.5 333.021L578.5 333.021L578.5 329L579.5 329Z" fill="#8B8A88"/>
<path fill-rule="evenodd" clip-rule="evenodd" d="M684.5 518.125L684.5 522L683.5 522L683.5 518.125L684.5 518.125ZM684.5 502.625L684.5 510.375L683.5 510.375L683.5 502.625L684.5 502.625ZM684.5 487.125L684.5 494.875L683.5 494.875L683.5 487.125L684.5 487.125ZM684.5 471.625L684.5 479.375L683.5 479.375L683.5 471.625L684.5 471.625ZM684.5 456.125L684.5 463.875L683.5 463.875L683.5 456.125L684.5 456.125ZM684.5 440.625L684.5 448.375L683.5 448.375L683.5 440.625L684.5 440.625ZM684.5 425.125L684.5 432.875L683.5 432.875L683.5 425.125L684.5 425.125ZM684.5 409.625L684.5 417.375L683.5 417.375L683.5 409.625L684.5 409.625ZM684.5 394.125L684.5 401.875L683.5 401.875L683.5 394.125L684.5 394.125ZM684.5 378.625L684.5 386.375L683.5 386.375L683.5 378.625L684.5 378.625ZM684.5 363.125L684.5 370.875L683.5 370.875L683.5 363.125L684.5 363.125ZM684.5 347.625L684.5 355.375L683.5 355.375L683.5 347.625L684.5 347.625ZM684.5 336L684.5 339.875L683.5 339.875L683.5 336L684.5 336Z" fill="#8B8A88"/>
<path fill-rule="evenodd" clip-rule="evenodd" d="M790.5 517.955L790.5 522L789.5 522L789.5 517.955L790.5 517.955ZM790.5 501.773L790.5 509.864L789.5 509.864L789.5 501.773L790.5 501.773ZM790.5 485.591L790.5 493.682L789.5 493.682L789.5 485.591L790.5 485.591ZM790.5 469.409L790.5 477.5L789.5 477.5L789.5 469.409L790.5 469.409ZM790.5 453.227L790.5 461.318L789.5 461.318L789.5 453.227L790.5 453.227ZM790.5 437.045L790.5 445.136L789.5 445.136L789.5 437.045L790.5 437.045ZM790.5 420.864L790.5 428.955L789.5 428.955L789.5 420.864L790.5 420.864ZM790.5 404.682L790.5 412.773L789.5 412.773L789.5 404.682L790.5 404.682ZM790.5 388.5L790.5 396.591L789.5 396.591L789.5 388.5L790.5 388.5ZM790.5 372.318L790.5 380.409L789.5 380.409L789.5 372.318L790.5 372.318ZM790.5 356.136L790.5 364.227L789.5 364.227L789.5 356.136L790.5 356.136ZM790.5 344L790.5 348.045L789.5 348.045L789.5 344L790.5 344Z" fill="#8B8A88"/>
<path fill-rule="evenodd" clip-rule="evenodd" d="M895.5 517.781L895.5 522L894.5 522L894.5 517.781L895.5 517.781ZM895.5 500.906L895.5 509.344L894.5 509.344L894.5 500.906L895.5 500.906ZM895.5 484.031L895.5 492.469L894.5 492.469L894.5 484.031L895.5 484.031ZM895.5 467.156L895.5 475.594L894.5 475.594L894.5 467.156L895.5 467.156ZM895.5 450.281L895.5 458.719L894.5 458.719L894.5 450.281L895.5 450.281ZM895.5 433.406L895.5 441.844L894.5 441.844L894.5 433.406L895.5 433.406ZM895.5 416.531L895.5 424.969L894.5 424.969L894.5 416.531L895.5 416.531ZM895.5 399.656L895.5 408.094L894.5 408.094L894.5 399.656L895.5 399.656ZM895.5 387L895.5 391.219L894.5 391.219L894.5 387L895.5 387Z" fill="#8B8A88"/>
<path fill-rule="evenodd" clip-rule="evenodd" d="M1000.5 518.188L1000.5 522L999.5 522L999.5 518.188L1000.5 518.188ZM1000.5 502.938L1000.5 510.563L999.5 510.562L999.5 502.938L1000.5 502.938ZM1000.5 487.688L1000.5 495.313L999.5 495.312L999.5 487.688L1000.5 487.688ZM1000.5 472.438L1000.5 480.063L999.5 480.062L999.5 472.438L1000.5 472.438ZM1000.5 457.188L1000.5 464.813L999.5 464.812L999.5 457.188L1000.5 457.188ZM1000.5 441.938L1000.5 449.563L999.5 449.562L999.5 441.938L1000.5 441.938ZM1000.5 426.688L1000.5 434.313L999.5 434.312L999.5 426.688L1000.5 426.688ZM1000.5 411.438L1000.5 419.063L999.5 419.062L999.5 411.438L1000.5 411.438ZM1000.5 400L1000.5 403.813L999.5 403.812L999.5 400L1000.5 400Z" fill="#8B8A88"/>
<path fill-rule="evenodd" clip-rule="evenodd" d="M1105.5 518.15L1105.5 522L1104.5 522L1104.5 518.15L1105.5 518.15ZM1105.5 502.75L1105.5 510.45L1104.5 510.45L1104.5 502.75L1105.5 502.75ZM1105.5 487.35L1105.5 495.05L1104.5 495.05L1104.5 487.35L1105.5 487.35ZM1105.5 471.95L1105.5 479.65L1104.5 479.65L1104.5 471.95L1105.5 471.95ZM1105.5 456.55L1105.5 464.25L1104.5 464.25L1104.5 456.55L1105.5 456.55ZM1105.5 441.15L1105.5 448.85L1104.5 448.85L1104.5 441.15L1105.5 441.15ZM1105.5 425.75L1105.5 433.45L1104.5 433.45L1104.5 425.75L1105.5 425.75ZM1105.5 410.35L1105.5 418.05L1104.5 418.05L1104.5 410.35L1105.5 410.35ZM1105.5 394.95L1105.5 402.65L1104.5 402.65L1104.5 394.95L1105.5 394.95ZM1105.5 379.55L1105.5 387.25L1104.5 387.25L1104.5 379.55L1105.5 379.55ZM1105.5 368L1105.5 371.85L1104.5 371.85L1104.5 368L1105.5 368Z" fill="#8B8A88"/>
<path fill-rule="evenodd" clip-rule="evenodd" d="M1210.5 517.875L1210.5 522L1209.5 522L1209.5 517.875L1210.5 517.875ZM1210.5 501.375L1210.5 509.625L1209.5 509.625L1209.5 501.375L1210.5 501.375ZM1210.5 484.875L1210.5 493.125L1209.5 493.125L1209.5 484.875L1210.5 484.875ZM1210.5 468.375L1210.5 476.625L1209.5 476.625L1209.5 468.375L1210.5 468.375ZM1210.5 451.875L1210.5 460.125L1209.5 460.125L1209.5 451.875L1210.5 451.875ZM1210.5 435.375L1210.5 443.625L1209.5 443.625L1209.5 435.375L1210.5 435.375ZM1210.5 418.875L1210.5 427.125L1209.5 427.125L1209.5 418.875L1210.5 418.875ZM1210.5 402.375L1210.5 410.625L1209.5 410.625L1209.5 402.375L1210.5 402.375ZM1210.5 385.875L1210.5 394.125L1209.5 394.125L1209.5 385.875L1210.5 385.875ZM1210.5 369.375L1210.5 377.625L1209.5 377.625L1209.5 369.375L1210.5 369.375ZM1210.5 352.875L1210.5 361.125L1209.5 361.125L1209.5 352.875L1210.5 352.875ZM1210.5 336.375L1210.5 344.625L1209.5 344.625L1209.5 336.375L1210.5 336.375ZM1210.5 324L1210.5 328.125L1209.5 328.125L1209.5 324L1210.5 324Z" fill="#8B8A88"/>
<path fill-rule="evenodd" clip-rule="evenodd" d="M1315.5 517.923L1315.5 522L1314.5 522L1314.5 517.923L1315.5 517.923ZM1315.5 501.615L1315.5 509.769L1314.5 509.769L1314.5 501.615L1315.5 501.615ZM1315.5 485.308L1315.5 493.462L1314.5 493.462L1314.5 485.308L1315.5 485.308ZM1315.5 469L1315.5 477.154L1314.5 477.154L1314.5 469L1315.5 469ZM1315.5 452.692L1315.5 460.846L1314.5 460.846L1314.5 452.692L1315.5 452.692ZM1315.5 436.385L1315.5 444.538L1314.5 444.538L1314.5 436.385L1315.5 436.385ZM1315.5 420.077L1315.5 428.231L1314.5 428.231L1314.5 420.077L1315.5 420.077ZM1315.5 403.769L1315.5 411.923L1314.5 411.923L1314.5 403.769L1315.5 403.769ZM1315.5 387.462L1315.5 395.615L1314.5 395.615L1314.5 387.462L1315.5 387.462ZM1315.5 371.154L1315.5 379.308L1314.5 379.308L1314.5 371.154L1315.5 371.154ZM1315.5 354.846L1315.5 363L1314.5 363L1314.5 354.846L1315.5 354.846ZM1315.5 338.538L1315.5 346.692L1314.5 346.692L1314.5 338.538L1315.5 338.538ZM1315.5 322.231L1315.5 330.385L1314.5 330.385L1314.5 322.231L1315.5 322.231ZM1315.5 310L1315.5 314.077L1314.5 314.077L1314.5 310L1315.5 310Z" fill="#8B8A88"/>
<path d="M264 546L264 530" stroke="#0D0D0D"/>
<path d="M259.485 568V566.18H263.145V555.86H260.605V554H265.085V566.18H268.685V568H259.485Z" fill="#0D0D0D"/>
<path d="M369.1 546L369.1 530" stroke="#0D0D0D"/>
<path d="M364.297 565.54C364.297 562.96 365.497 561.76 367.737 561.12L369.697 560.56C371.237 560.12 371.957 559.38 371.957 558.12C371.957 556.74 370.977 555.82 369.477 555.82H364.977V554H369.477C372.137 554 373.977 555.62 373.977 558.12C373.977 560.14 372.617 561.52 370.657 562.12L368.257 562.84C366.877 563.26 366.317 563.94 366.317 565.2V566.18H373.857V568H364.297V565.54Z" fill="#0D0D0D"/>
<path d="M474.199 546L474.199 530" stroke="#0D0D0D"/>
<path d="M469.307 568V566.18H473.707C475.707 566.18 476.867 565.24 476.867 563.68C476.867 562.24 475.747 561.34 473.807 561.34H471.707V559.72L475.767 555.82H469.107V554H478.327V555.82L474.107 559.76H474.367C477.127 559.76 478.887 561.32 478.887 563.66C478.887 566.28 476.807 568 473.707 568H469.307Z" fill="#0D0D0D"/>
<path d="M579.301 546L579.301 530" stroke="#0D0D0D"/>
<path d="M581.032 568V563.84H573.532V562.08L580.272 554H582.972V562.08H585.272V563.84H582.972V568H581.032ZM575.692 562.08H581.032V555.68L575.692 562.08Z" fill="#0D0D0D"/>
<path d="M684.4 546L684.4 530" stroke="#0D0D0D"/>
<path d="M679.814 568V566.18H684.214C685.934 566.18 687.114 565.14 687.114 563.6C687.114 562.08 686.034 561.04 684.214 561.04H680.154V554H688.514V555.82H682.094V559.28H684.434C687.274 559.28 689.134 560.98 689.134 563.52C689.134 566.18 687.174 568 684.214 568H679.814Z" fill="#0D0D0D"/>
<path d="M789.5 546L789.5 530" stroke="#0D0D0D"/>
<path d="M789.767 568.28C786.627 568.28 784.427 566.14 784.427 561.82C784.427 557.02 786.287 554 790.987 554H793.667V555.82H790.987C787.747 555.82 786.567 557.46 786.407 560.54C787.027 559.56 788.307 558.86 790.067 558.86C792.887 558.86 794.867 560.82 794.867 563.52C794.867 566.26 792.787 568.28 789.767 568.28ZM786.587 563.58C786.587 565.32 787.867 566.52 789.707 566.52C791.547 566.52 792.847 565.32 792.847 563.58C792.847 561.84 791.547 560.64 789.707 560.64C787.867 560.64 786.587 561.82 786.587 563.58Z" fill="#0D0D0D"/>
<path d="M894.6 546L894.6 530" stroke="#0D0D0D"/>
<path d="M892.736 564.78C892.736 561.64 893.236 559.58 895.616 557.3L897.156 555.82H889.616V554H899.776V555.82L897.316 558.14C895.436 559.96 894.756 561.5 894.756 564.68V568H892.736V564.78Z" fill="#0D0D0D"/>
<path d="M999.699 546L999.699 530" stroke="#0D0D0D"/>
<path d="M999.692 568.28C996.312 568.28 994.372 566.52 994.372 564.04C994.372 562.42 995.392 561.06 996.952 560.56C995.552 560.08 994.772 558.84 994.772 557.5C994.772 555.28 996.712 553.72 999.692 553.72C1002.69 553.72 1004.63 555.28 1004.63 557.5C1004.63 558.84 1003.85 560.08 1002.45 560.56C1004.01 561.06 1005.03 562.42 1005.03 564.04C1005.03 566.52 1003.09 568.28 999.692 568.28ZM996.372 563.98C996.372 565.5 997.552 566.6 999.692 566.6C1001.85 566.6 1003.03 565.5 1003.03 563.98C1003.03 562.44 1001.77 561.42 999.692 561.42C997.632 561.42 996.372 562.44 996.372 563.98ZM996.772 557.62C996.772 558.92 997.892 559.78 999.692 559.78C1001.49 559.78 1002.63 558.92 1002.63 557.62C1002.63 556.32 1001.55 555.4 999.692 555.4C997.852 555.4 996.772 556.32 996.772 557.62Z" fill="#0D0D0D"/>
<path d="M1104.8 546L1104.8 530" stroke="#0D0D0D"/>
<path d="M1104.53 553.72C1107.67 553.72 1109.87 555.86 1109.87 560.18C1109.87 564.98 1108.01 568 1103.31 568H1100.63V566.18H1103.31C1106.55 566.18 1107.73 564.54 1107.89 561.46C1107.27 562.44 1105.99 563.14 1104.23 563.14C1101.41 563.14 1099.43 561.18 1099.43 558.48C1099.43 555.74 1101.51 553.72 1104.53 553.72ZM1101.45 558.42C1101.45 560.16 1102.75 561.36 1104.59 561.36C1106.43 561.36 1107.71 560.18 1107.71 558.42C1107.71 556.68 1106.43 555.48 1104.59 555.48C1102.75 555.48 1101.45 556.68 1101.45 558.42Z" fill="#0D0D0D"/>
<path d="M1209.9 546L1209.9 530" stroke="#0D0D0D"/>
<path d="M1199 568V566.18H1202.66V555.86H1200.12V554H1204.6V566.18H1208.2V568H1199ZM1214.8 568.28C1211 568.28 1209.18 565.7 1209.18 561C1209.18 556.3 1211 553.72 1214.8 553.72C1218.6 553.72 1220.42 556.3 1220.42 561C1220.42 565.7 1218.6 568.28 1214.8 568.28ZM1211.2 561C1211.2 564.66 1212.32 566.56 1214.8 566.56C1217.26 566.56 1218.38 564.66 1218.38 561C1218.38 557.34 1217.26 555.44 1214.8 555.44C1212.32 555.44 1211.2 557.34 1211.2 561Z" fill="#0D0D0D"/>
<path d="M1315 546L1315 530" stroke="#0D0D0D"/>
<path d="M1305.24 568V566.18H1308.9V555.86H1306.36V554H1310.84V566.18H1314.44V568H1305.24ZM1315.73 568V566.18H1319.39V555.86H1316.85V554H1321.33V566.18H1324.93V568H1315.73Z" fill="#0D0D0D"/>
<path d="M185.28 594V584.2H186.988L191.566 591.83V584.2H192.966V594H191.258L186.68 586.356V594H185.28ZM197.775 594.196C196.137 594.196 195.129 593.188 195.129 591.326V587.266H196.487V591.2C196.487 592.404 197.047 592.964 198.027 592.964C199.049 592.964 199.707 592.236 199.707 591.158V587.266H201.065V594H199.861V593.23C199.413 593.888 198.643 594.196 197.775 594.196ZM203.145 594V587.266H204.349V588.092C204.741 587.392 205.357 587.07 206.183 587.07C207.107 587.07 207.793 587.518 208.115 588.274C208.549 587.462 209.249 587.07 210.131 587.07C211.685 587.07 212.539 588.008 212.539 589.688V594H211.195V589.758C211.195 588.82 210.747 588.302 209.893 588.302C209.095 588.302 208.521 588.918 208.521 589.8V594H207.163V589.758C207.163 588.82 206.715 588.302 205.889 588.302C205.077 588.302 204.503 588.918 204.503 589.8V594H203.145ZM218.116 594.196C217.066 594.196 216.212 593.776 215.778 593.034V594H214.574V584.2H215.932V588.078C216.366 587.434 217.15 587.07 218.116 587.07C220.034 587.07 221.35 588.498 221.35 590.626C221.35 592.768 220.034 594.196 218.116 594.196ZM215.904 590.626C215.904 592.026 216.702 592.964 217.92 592.964C219.138 592.964 219.95 592.026 219.95 590.626C219.95 589.24 219.138 588.302 217.92 588.302C216.702 588.302 215.904 589.24 215.904 590.626ZM225.99 594.196C223.974 594.196 222.63 592.782 222.63 590.598C222.63 588.428 223.974 587.07 225.892 587.07C227.894 587.07 229.126 588.372 229.126 590.43C229.126 590.612 229.112 590.794 229.084 591.074H223.974C224.03 592.306 224.786 593.048 225.99 593.048C226.788 593.048 227.348 592.684 227.614 592.082H229C228.58 593.384 227.544 594.196 225.99 594.196ZM223.974 590.01H227.754V589.94C227.754 588.904 227.082 588.162 225.892 588.162C224.758 588.162 224.03 588.918 223.974 590.01ZM230.762 594V587.266H231.966V588.358C232.134 587.686 232.638 587.266 233.436 587.266H234.724V588.456H233.31C232.47 588.456 232.12 588.932 232.12 589.842V594H230.762ZM242.604 594.196C240.56 594.196 239.132 592.768 239.132 590.626C239.132 588.498 240.56 587.07 242.604 587.07C244.662 587.07 246.076 588.498 246.076 590.626C246.076 592.768 244.662 594.196 242.604 594.196ZM240.532 590.626C240.532 592.026 241.372 592.964 242.604 592.964C243.85 592.964 244.676 592.026 244.676 590.626C244.676 589.24 243.85 588.302 242.604 588.302C241.372 588.302 240.532 589.24 240.532 590.626ZM248.418 586.034C248.418 584.858 249.104 584.2 250.266 584.2H252.45V585.39H250.546C250.056 585.39 249.762 585.642 249.762 586.174V587.266H252.03V588.456H249.762V594H248.418V588.456H246.64V587.266H248.418V586.034ZM260.737 594.196C258.413 594.196 257.013 592.74 257.013 590.318V584.2H258.413V590.234C258.413 591.942 259.267 592.88 260.737 592.88C262.207 592.88 263.061 591.942 263.061 590.234V584.2H264.475V590.318C264.475 592.74 263.075 594.196 260.737 594.196ZM268.989 594.196C267.169 594.196 266.091 593.468 266.021 592.082H267.421C267.491 592.754 268.037 593.09 269.017 593.09C269.913 593.09 270.459 592.712 270.459 592.096C270.459 591.592 270.081 591.298 269.381 591.228L268.303 591.116C267.043 590.99 266.245 590.29 266.245 589.17C266.245 587.882 267.323 587.07 268.975 587.07C270.655 587.07 271.691 587.77 271.775 589.142H270.417C270.375 588.498 269.843 588.176 268.961 588.176C268.121 588.176 267.589 588.526 267.589 589.1C267.589 589.59 267.953 589.856 268.737 589.954L269.829 590.08C271.103 590.22 271.831 590.934 271.831 592.04C271.831 593.356 270.725 594.196 268.989 594.196ZM276.398 594.196C274.382 594.196 273.038 592.782 273.038 590.598C273.038 588.428 274.382 587.07 276.3 587.07C278.302 587.07 279.534 588.372 279.534 590.43C279.534 590.612 279.52 590.794 279.492 591.074H274.382C274.438 592.306 275.194 593.048 276.398 593.048C277.196 593.048 277.756 592.684 278.022 592.082H279.408C278.988 593.384 277.952 594.196 276.398 594.196ZM274.382 590.01H278.162V589.94C278.162 588.904 277.49 588.162 276.3 588.162C275.166 588.162 274.438 588.918 274.382 590.01ZM281.17 594V587.266H282.374V588.358C282.542 587.686 283.046 587.266 283.844 587.266H285.132V588.456H283.718C282.878 588.456 282.528 588.932 282.528 589.842V594H281.17ZM288.635 594.196C286.815 594.196 285.737 593.468 285.667 592.082H287.067C287.137 592.754 287.683 593.09 288.663 593.09C289.559 593.09 290.105 592.712 290.105 592.096C290.105 591.592 289.727 591.298 289.027 591.228L287.949 591.116C286.689 590.99 285.891 590.29 285.891 589.17C285.891 587.882 286.969 587.07 288.621 587.07C290.301 587.07 291.337 587.77 291.421 589.142H290.063C290.021 588.498 289.489 588.176 288.607 588.176C287.767 588.176 287.235 588.526 287.235 589.1C287.235 589.59 287.599 589.856 288.383 589.954L289.475 590.08C290.749 590.22 291.477 590.934 291.477 592.04C291.477 593.356 290.371 594.196 288.635 594.196Z" fill="#0D0D0D"/>
<path d="M132.332 562V553.516H129.252V552.2H136.812V553.516H133.732V562H132.332ZM138.063 562V555.266H139.421V562H138.063ZM137.979 553.908V552.298H139.491V553.908H137.979ZM141.535 562V555.266H142.739V556.092C143.131 555.392 143.747 555.07 144.573 555.07C145.497 555.07 146.183 555.518 146.505 556.274C146.939 555.462 147.639 555.07 148.521 555.07C150.075 555.07 150.929 556.008 150.929 557.688V562H149.585V557.758C149.585 556.82 149.137 556.302 148.283 556.302C147.485 556.302 146.911 556.918 146.911 557.8V562H145.553V557.758C145.553 556.82 145.105 556.302 144.279 556.302C143.467 556.302 142.893 556.918 142.893 557.8V562H141.535ZM155.877 562.196C153.861 562.196 152.517 560.782 152.517 558.598C152.517 556.428 153.861 555.07 155.779 555.07C157.781 555.07 159.013 556.372 159.013 558.43C159.013 558.612 158.999 558.794 158.971 559.074H153.861C153.917 560.306 154.673 561.048 155.877 561.048C156.675 561.048 157.235 560.684 157.501 560.082H158.887C158.467 561.384 157.431 562.196 155.877 562.196ZM153.861 558.01H157.641V557.94C157.641 556.904 156.969 556.162 155.779 556.162C154.645 556.162 153.917 556.918 153.861 558.01Z" fill="#0D0D0D"/>
<rect x="258.5" y="455.5" width="11" height="11" rx="5.5" stroke="#0D0D0D"/>
<rect x="363.5" y="412.5" width="11" height="11" rx="5.5" stroke="#0D0D0D"/>
<circle cx="369" cy="418" r="3.5" fill="#0D0D0D"/>
<rect x="468.5" y="353.5" width="11" height="11" rx="5.5" stroke="#0D0D0D"/>
<circle cx="474" cy="359" r="3.5" fill="#0D0D0D"/>
<rect x="573.5" y="311.5" width="11" height="11" rx="5.5" stroke="#0D0D0D"/>
<circle cx="579" cy="317" r="3.5" fill="#0D0D0D"/>
<rect x="678.5" y="318.5" width="11" height="11" rx="5.5" stroke="#0D0D0D"/>
<circle cx="684" cy="324" r="3.5" fill="#0D0D0D"/>
<rect x="784.5" y="326.5" width="11" height="11" rx="5.5" stroke="#0D0D0D"/>
<circle cx="790" cy="332" r="3.5" fill="#0D0D0D"/>
<rect x="889.5" y="369.5" width="11" height="11" rx="5.5" stroke="#0D0D0D"/>
<circle cx="895" cy="375" r="3.5" fill="#0D0D0D"/>
<rect x="994.5" y="382.5" width="11" height="11" rx="5.5" stroke="#0D0D0D"/>
<circle cx="1000" cy="388" r="3.5" fill="#0D0D0D"/>
<rect x="1099.5" y="350.5" width="11" height="11" rx="5.5" stroke="#0D0D0D"/>
<circle cx="1105" cy="356" r="3.5" fill="#0D0D0D"/>
<rect x="1204.5" y="306.5" width="11" height="11" rx="5.5" stroke="#0D0D0D"/>
<circle cx="1210" cy="312" r="3.5" fill="#0D0D0D"/>
<rect x="1309.5" y="292.5" width="11" height="11" rx="5.5" stroke="#0D0D0D"/>
<circle cx="1315" cy="298" r="3.5" fill="#0D0D0D"/>
<path fill-rule="evenodd" clip-rule="evenodd" d="M1303.18 300.08L1221.95 310.911C1221.92 310.576 1221.88 310.245 1221.82 309.919L1303.05 299.089C1303.08 299.423 1303.12 299.754 1303.18 300.08ZM1198.75 316.174L1115.87 350.904C1116.01 351.205 1116.14 351.512 1116.25 351.826L1199.13 317.096C1198.99 316.795 1198.86 316.488 1198.75 316.174ZM1093.67 359.974C1093.56 359.661 1093.47 359.342 1093.38 359.018L1011.33 384.025C1011.44 384.339 1011.53 384.658 1011.62 384.982L1093.67 359.974ZM988.039 387.023C988.066 386.688 988.107 386.357 988.161 386.03L906.961 375.977C906.934 376.312 906.893 376.643 906.839 376.969L988.039 387.023ZM883.712 370.917C883.826 370.602 883.953 370.294 884.092 369.992L801.288 336.082C801.174 336.397 801.048 336.705 800.909 337.007L883.712 370.917ZM778.007 331.596C778.018 331.26 778.043 330.927 778.081 330.599L695.993 324.403C695.982 324.739 695.957 325.072 695.919 325.401L778.007 331.596ZM672.004 323.701C672.012 323.365 672.034 323.032 672.069 322.703L590.996 317.298C590.988 317.635 590.966 317.967 590.931 318.296L672.004 323.701ZM568.051 321.918C567.915 321.615 567.79 321.305 567.679 320.99L484.949 354.082C485.085 354.385 485.209 354.694 485.321 355.01L568.051 321.918ZM463.791 365.31C463.616 365.027 463.452 364.737 463.3 364.439L379.209 411.69C379.384 411.973 379.548 412.264 379.7 412.561L463.791 365.31ZM358.091 423.008C357.953 422.706 357.826 422.397 357.712 422.082L274.908 455.992C275.047 456.294 275.174 456.603 275.288 456.918L358.091 423.008ZM255.127 469.079C254.902 468.833 254.688 468.577 254.484 468.312L171.68 537.616L172.322 538.383L255.127 469.079Z" fill="black"/>
<path fill-rule="evenodd" clip-rule="evenodd" d="M1326.88 299.664L1334.11 300.372L1334.21 299.377L1326.98 298.669C1326.96 299.005 1326.93 299.337 1326.88 299.664ZM1341.78 301.122L1349.44 301.872L1349.54 300.877L1341.87 300.127L1341.78 301.122ZM1357.1 302.622L1364.76 303.372L1364.86 302.377L1357.2 301.627L1357.1 302.622ZM1372.43 304.122L1380.09 304.872L1380.19 303.877L1372.52 303.127L1372.43 304.122ZM1387.75 305.622L1395.41 306.372L1395.51 305.377L1387.85 304.627L1387.75 305.622ZM1403.08 307.122L1406.91 307.497L1407 306.502L1403.17 306.127L1403.08 307.122Z" fill="black"/>
</svg>
