<svg width="1278" height="432" viewBox="0 0 1278 432" fill="none" xmlns="http://www.w3.org/2000/svg">
<g clip-path="url(#clip0_6624_23338)">
<path d="M533.028 5.648V23H530.676V5.648H533.028ZM537.42 16.808H532.5V14.696H536.916C538.084 14.696 538.98 14.384 539.604 13.76C540.228 13.12 540.54 12.264 540.54 11.192C540.54 10.104 540.228 9.264 539.604 8.672C538.98 8.064 538.116 7.76 537.012 7.76H531.972V5.648H537.42C538.556 5.648 539.54 5.88 540.372 6.344C541.204 6.808 541.852 7.456 542.316 8.288C542.78 9.12 543.012 10.096 543.012 11.216C543.012 12.288 542.78 13.248 542.316 14.096C541.852 14.944 541.204 15.608 540.372 16.088C539.54 16.568 538.556 16.808 537.42 16.808ZM553.164 11.264H555.396V23H553.38L553.14 21.224C552.804 21.832 552.276 22.328 551.556 22.712C550.836 23.096 550.044 23.288 549.18 23.288C547.82 23.288 546.764 22.864 546.012 22.016C545.276 21.152 544.908 20 544.908 18.56V11.264H547.164V17.816C547.164 19.064 547.412 19.96 547.908 20.504C548.42 21.032 549.108 21.296 549.972 21.296C551.012 21.296 551.804 20.976 552.348 20.336C552.892 19.68 553.164 18.72 553.164 17.456V11.264ZM565.149 11.168V13.232H564.141C563.069 13.232 562.221 13.544 561.597 14.168C560.989 14.776 560.685 15.648 560.685 16.784V23H558.429V11.288H560.541L560.733 13.64H560.517C560.677 12.872 561.061 12.248 561.669 11.768C562.277 11.272 563.037 11.024 563.949 11.024C564.157 11.024 564.349 11.04 564.525 11.072C564.717 11.088 564.925 11.12 565.149 11.168ZM565.835 17.144C565.835 15.912 566.075 14.832 566.555 13.904C567.051 12.976 567.731 12.248 568.595 11.72C569.459 11.192 570.459 10.928 571.595 10.928C573.067 10.928 574.291 11.32 575.267 12.104C576.243 12.888 576.827 13.928 577.019 15.224H574.763C574.571 14.472 574.195 13.904 573.635 13.52C573.075 13.136 572.419 12.944 571.667 12.944C570.963 12.944 570.339 13.12 569.795 13.472C569.251 13.808 568.827 14.288 568.523 14.912C568.219 15.536 568.067 16.272 568.067 17.12C568.067 17.968 568.211 18.704 568.499 19.328C568.787 19.936 569.195 20.416 569.723 20.768C570.251 21.104 570.867 21.272 571.571 21.272C572.371 21.272 573.059 21.072 573.635 20.672C574.211 20.272 574.595 19.728 574.787 19.04H577.043C576.899 19.888 576.571 20.632 576.059 21.272C575.563 21.896 574.923 22.392 574.139 22.76C573.371 23.112 572.515 23.288 571.571 23.288C570.419 23.288 569.411 23.032 568.547 22.52C567.699 22.008 567.035 21.296 566.555 20.384C566.075 19.456 565.835 18.376 565.835 17.144ZM581.439 22.976H579.183V5.336H581.439V13.064C581.807 12.424 582.335 11.912 583.023 11.528C583.711 11.128 584.511 10.928 585.423 10.928C586.911 10.928 588.023 11.368 588.759 12.248C589.495 13.128 589.863 14.32 589.863 15.824V23H587.607V16.328C587.607 15.528 587.487 14.888 587.247 14.408C587.023 13.912 586.695 13.552 586.263 13.328C585.847 13.104 585.359 12.992 584.799 12.992C584.079 12.992 583.463 13.152 582.951 13.472C582.455 13.792 582.079 14.224 581.823 14.768C581.567 15.312 581.439 15.92 581.439 16.592V22.976ZM596.18 23.288C594.932 23.288 593.948 22.96 593.228 22.304C592.524 21.648 592.172 20.792 592.172 19.736C592.172 18.664 592.556 17.808 593.324 17.168C594.092 16.512 595.164 16.128 596.54 16.016L600.236 15.728V15.392C600.236 14.736 600.116 14.216 599.876 13.832C599.636 13.432 599.308 13.152 598.892 12.992C598.476 12.816 598.004 12.728 597.476 12.728C596.532 12.728 595.796 12.928 595.268 13.328C594.756 13.712 594.5 14.264 594.5 14.984H592.532C592.532 14.168 592.74 13.456 593.156 12.848C593.572 12.24 594.156 11.768 594.908 11.432C595.676 11.096 596.564 10.928 597.572 10.928C598.548 10.928 599.396 11.104 600.116 11.456C600.852 11.792 601.42 12.312 601.82 13.016C602.236 13.704 602.444 14.576 602.444 15.632V23H600.524L600.284 21.104C599.98 21.776 599.452 22.312 598.7 22.712C597.964 23.096 597.124 23.288 596.18 23.288ZM596.828 21.536C597.9 21.536 598.74 21.216 599.348 20.576C599.956 19.92 600.26 19.04 600.26 17.936V17.312L597.26 17.552C596.268 17.648 595.548 17.88 595.1 18.248C594.668 18.616 594.452 19.088 594.452 19.664C594.452 20.288 594.66 20.76 595.076 21.08C595.508 21.384 596.092 21.536 596.828 21.536ZM604.368 19.592H606.528C606.528 20.184 606.744 20.656 607.176 21.008C607.608 21.344 608.192 21.512 608.928 21.512C609.728 21.512 610.344 21.36 610.776 21.056C611.208 20.736 611.424 20.312 611.424 19.784C611.424 19.4 611.304 19.08 611.064 18.824C610.84 18.568 610.424 18.36 609.816 18.2L607.752 17.72C606.712 17.464 605.936 17.072 605.424 16.544C604.928 16.016 604.68 15.32 604.68 14.456C604.68 13.736 604.864 13.112 605.232 12.584C605.616 12.056 606.136 11.648 606.792 11.36C607.464 11.072 608.232 10.928 609.096 10.928C609.96 10.928 610.704 11.08 611.328 11.384C611.968 11.688 612.464 12.112 612.816 12.656C613.184 13.2 613.376 13.848 613.392 14.6H611.232C611.216 13.992 611.016 13.52 610.632 13.184C610.248 12.848 609.712 12.68 609.024 12.68C608.32 12.68 607.776 12.832 607.392 13.136C607.008 13.44 606.816 13.856 606.816 14.384C606.816 15.168 607.392 15.704 608.544 15.992L610.608 16.496C611.6 16.72 612.344 17.088 612.84 17.6C613.336 18.096 613.584 18.776 613.584 19.64C613.584 20.376 613.384 21.024 612.984 21.584C612.584 22.128 612.032 22.552 611.328 22.856C610.64 23.144 609.824 23.288 608.88 23.288C607.504 23.288 606.408 22.952 605.592 22.28C604.776 21.608 604.368 20.712 604.368 19.592ZM620.91 23.288C619.774 23.288 618.766 23.032 617.886 22.52C617.006 21.992 616.318 21.272 615.822 20.36C615.326 19.432 615.078 18.36 615.078 17.144C615.078 15.912 615.318 14.832 615.798 13.904C616.294 12.976 616.966 12.248 617.814 11.72C618.678 11.192 619.678 10.928 620.814 10.928C621.934 10.928 622.902 11.168 623.718 11.648C624.55 12.128 625.19 12.8 625.638 13.664C626.102 14.528 626.334 15.544 626.334 16.712V17.552L616.278 17.576L616.326 16.064H624.078C624.078 15.088 623.782 14.304 623.19 13.712C622.598 13.12 621.806 12.824 620.814 12.824C620.062 12.824 619.414 12.992 618.87 13.328C618.342 13.648 617.934 14.128 617.646 14.768C617.374 15.392 617.238 16.144 617.238 17.024C617.238 18.432 617.558 19.52 618.198 20.288C618.838 21.04 619.758 21.416 620.958 21.416C621.838 21.416 622.558 21.24 623.118 20.888C623.678 20.536 624.054 20.024 624.246 19.352H626.358C626.07 20.6 625.454 21.568 624.51 22.256C623.566 22.944 622.366 23.288 620.91 23.288ZM634.169 17.12C634.169 15.92 634.433 14.856 634.961 13.928C635.489 13 636.209 12.272 637.121 11.744C638.049 11.216 639.105 10.952 640.289 10.952C641.473 10.952 642.521 11.216 643.433 11.744C644.345 12.272 645.065 13 645.593 13.928C646.121 14.856 646.385 15.92 646.385 17.12C646.385 18.32 646.121 19.384 645.593 20.312C645.065 21.24 644.345 21.968 643.433 22.496C642.521 23.024 641.473 23.288 640.289 23.288C639.105 23.288 638.049 23.024 637.121 22.496C636.209 21.968 635.489 21.24 634.961 20.312C634.433 19.384 634.169 18.32 634.169 17.12ZM636.449 17.12C636.449 17.936 636.609 18.656 636.929 19.28C637.265 19.904 637.721 20.392 638.297 20.744C638.873 21.096 639.537 21.272 640.289 21.272C641.041 21.272 641.705 21.096 642.281 20.744C642.857 20.392 643.305 19.904 643.625 19.28C643.961 18.656 644.129 17.936 644.129 17.12C644.129 16.288 643.961 15.568 643.625 14.96C643.305 14.336 642.857 13.848 642.281 13.496C641.705 13.144 641.041 12.968 640.289 12.968C639.537 12.968 638.873 13.144 638.297 13.496C637.721 13.848 637.265 14.336 636.929 14.96C636.609 15.568 636.449 16.288 636.449 17.12ZM647.324 11.264H654.092V13.16H647.324V11.264ZM654.164 5.432V7.376C654.02 7.376 653.86 7.376 653.684 7.376C653.524 7.376 653.348 7.376 653.156 7.376C652.42 7.376 651.924 7.552 651.668 7.904C651.428 8.256 651.308 8.752 651.308 9.392V23H649.052V9.392C649.052 8.432 649.212 7.656 649.532 7.064C649.868 6.456 650.308 6.016 650.852 5.744C651.412 5.472 652.052 5.336 652.772 5.336C652.996 5.336 653.228 5.344 653.468 5.36C653.708 5.376 653.94 5.4 654.164 5.432ZM661.647 10.328C661.647 9.336 661.895 8.464 662.391 7.712C662.887 6.96 663.583 6.376 664.479 5.96C665.391 5.544 666.439 5.336 667.623 5.336C668.727 5.336 669.687 5.536 670.503 5.936C671.335 6.32 671.983 6.872 672.447 7.592C672.927 8.312 673.199 9.176 673.263 10.184H670.887C670.823 9.32 670.503 8.648 669.927 8.168C669.351 7.688 668.575 7.448 667.599 7.448C666.511 7.448 665.639 7.704 664.983 8.216C664.327 8.712 663.999 9.392 663.999 10.256C663.999 10.96 664.199 11.528 664.599 11.96C664.999 12.376 665.607 12.68 666.423 12.872L669.279 13.544C670.703 13.864 671.767 14.416 672.471 15.2C673.191 15.968 673.551 16.96 673.551 18.176C673.551 19.216 673.295 20.12 672.783 20.888C672.287 21.656 671.575 22.248 670.647 22.664C669.735 23.08 668.663 23.288 667.431 23.288C666.263 23.288 665.231 23.096 664.335 22.712C663.455 22.312 662.759 21.752 662.247 21.032C661.751 20.296 661.471 19.44 661.407 18.464H663.807C663.823 19.296 664.159 19.96 664.815 20.456C665.471 20.936 666.343 21.176 667.431 21.176C668.583 21.176 669.495 20.92 670.167 20.408C670.855 19.896 671.199 19.216 671.199 18.368C671.199 17.68 671.007 17.12 670.623 16.688C670.239 16.256 669.631 15.944 668.799 15.752L665.943 15.104C664.535 14.784 663.463 14.224 662.727 13.424C662.007 12.608 661.647 11.576 661.647 10.328ZM680.947 23.288C679.811 23.288 678.803 23.032 677.923 22.52C677.043 21.992 676.355 21.272 675.859 20.36C675.363 19.432 675.115 18.36 675.115 17.144C675.115 15.912 675.355 14.832 675.835 13.904C676.331 12.976 677.003 12.248 677.851 11.72C678.715 11.192 679.715 10.928 680.851 10.928C681.971 10.928 682.939 11.168 683.755 11.648C684.587 12.128 685.227 12.8 685.675 13.664C686.139 14.528 686.371 15.544 686.371 16.712V17.552L676.315 17.576L676.363 16.064H684.115C684.115 15.088 683.819 14.304 683.227 13.712C682.635 13.12 681.843 12.824 680.851 12.824C680.099 12.824 679.451 12.992 678.907 13.328C678.379 13.648 677.971 14.128 677.683 14.768C677.411 15.392 677.275 16.144 677.275 17.024C677.275 18.432 677.595 19.52 678.235 20.288C678.875 21.04 679.795 21.416 680.995 21.416C681.875 21.416 682.595 21.24 683.155 20.888C683.715 20.536 684.091 20.024 684.283 19.352H686.395C686.107 20.6 685.491 21.568 684.547 22.256C683.603 22.944 682.403 23.288 680.947 23.288ZM695.371 11.168V13.232H694.363C693.291 13.232 692.443 13.544 691.819 14.168C691.211 14.776 690.907 15.648 690.907 16.784V23H688.651V11.288H690.763L690.955 13.64H690.739C690.899 12.872 691.283 12.248 691.891 11.768C692.499 11.272 693.259 11.024 694.171 11.024C694.379 11.024 694.571 11.04 694.747 11.072C694.939 11.088 695.147 11.12 695.371 11.168ZM700.886 23L696.158 11.264H698.558L701.126 17.816C701.334 18.36 701.518 18.88 701.678 19.376C701.838 19.856 701.966 20.272 702.062 20.624C702.174 20.224 702.31 19.784 702.47 19.304C702.646 18.824 702.838 18.328 703.046 17.816L705.662 11.264H708.014L703.118 23H700.886ZM709.569 23V11.264H711.825V23H709.569ZM710.673 8.48C710.273 8.48 709.921 8.336 709.617 8.048C709.329 7.744 709.185 7.392 709.185 6.992C709.185 6.576 709.329 6.224 709.617 5.936C709.921 5.648 710.273 5.504 710.673 5.504C711.089 5.504 711.441 5.648 711.729 5.936C712.017 6.224 712.161 6.576 712.161 6.992C712.161 7.392 712.017 7.744 711.729 8.048C711.441 8.336 711.089 8.48 710.673 8.48ZM714.092 17.144C714.092 15.912 714.332 14.832 714.812 13.904C715.308 12.976 715.988 12.248 716.852 11.72C717.716 11.192 718.716 10.928 719.852 10.928C721.324 10.928 722.548 11.32 723.524 12.104C724.5 12.888 725.084 13.928 725.276 15.224H723.02C722.828 14.472 722.452 13.904 721.892 13.52C721.332 13.136 720.676 12.944 719.924 12.944C719.22 12.944 718.596 13.12 718.052 13.472C717.508 13.808 717.084 14.288 716.78 14.912C716.476 15.536 716.324 16.272 716.324 17.12C716.324 17.968 716.468 18.704 716.756 19.328C717.044 19.936 717.452 20.416 717.98 20.768C718.508 21.104 719.124 21.272 719.828 21.272C720.628 21.272 721.316 21.072 721.892 20.672C722.468 20.272 722.852 19.728 723.044 19.04H725.3C725.156 19.888 724.828 20.632 724.316 21.272C723.82 21.896 723.18 22.392 722.396 22.76C721.628 23.112 720.772 23.288 719.828 23.288C718.676 23.288 717.668 23.032 716.804 22.52C715.956 22.008 715.292 21.296 714.812 20.384C714.332 19.456 714.092 18.376 714.092 17.144ZM732.505 23.288C731.369 23.288 730.361 23.032 729.481 22.52C728.601 21.992 727.913 21.272 727.417 20.36C726.921 19.432 726.673 18.36 726.673 17.144C726.673 15.912 726.913 14.832 727.393 13.904C727.889 12.976 728.561 12.248 729.409 11.72C730.273 11.192 731.273 10.928 732.409 10.928C733.529 10.928 734.497 11.168 735.313 11.648C736.145 12.128 736.785 12.8 737.233 13.664C737.697 14.528 737.929 15.544 737.929 16.712V17.552L727.873 17.576L727.921 16.064H735.673C735.673 15.088 735.377 14.304 734.785 13.712C734.193 13.12 733.401 12.824 732.409 12.824C731.657 12.824 731.009 12.992 730.465 13.328C729.937 13.648 729.529 14.128 729.241 14.768C728.969 15.392 728.833 16.144 728.833 17.024C728.833 18.432 729.153 19.52 729.793 20.288C730.433 21.04 731.353 21.416 732.553 21.416C733.433 21.416 734.153 21.24 734.713 20.888C735.273 20.536 735.649 20.024 735.841 19.352H737.953C737.665 20.6 737.049 21.568 736.105 22.256C735.161 22.944 733.961 23.288 732.505 23.288ZM739.248 19.592H741.408C741.408 20.184 741.624 20.656 742.056 21.008C742.488 21.344 743.072 21.512 743.808 21.512C744.608 21.512 745.224 21.36 745.656 21.056C746.088 20.736 746.304 20.312 746.304 19.784C746.304 19.4 746.184 19.08 745.944 18.824C745.72 18.568 745.304 18.36 744.696 18.2L742.632 17.72C741.592 17.464 740.816 17.072 740.304 16.544C739.808 16.016 739.56 15.32 739.56 14.456C739.56 13.736 739.744 13.112 740.112 12.584C740.496 12.056 741.016 11.648 741.672 11.36C742.344 11.072 743.112 10.928 743.976 10.928C744.84 10.928 745.584 11.08 746.208 11.384C746.848 11.688 747.344 12.112 747.696 12.656C748.064 13.2 748.256 13.848 748.272 14.6H746.112C746.096 13.992 745.896 13.52 745.512 13.184C745.128 12.848 744.592 12.68 743.904 12.68C743.2 12.68 742.656 12.832 742.272 13.136C741.888 13.44 741.696 13.856 741.696 14.384C741.696 15.168 742.272 15.704 743.424 15.992L745.488 16.496C746.48 16.72 747.224 17.088 747.72 17.6C748.216 18.096 748.464 18.776 748.464 19.64C748.464 20.376 748.264 21.024 747.864 21.584C747.464 22.128 746.912 22.552 746.208 22.856C745.52 23.144 744.704 23.288 743.76 23.288C742.384 23.288 741.288 22.952 740.472 22.28C739.656 21.608 739.248 20.712 739.248 19.592Z" fill="#0D0D0D"/>
<path d="M1277.99 374L1272.99 371.113V376.887L1277.99 374ZM0 374L0 374.5L1273.49 374.5V374V373.5L0 373.5L0 374Z" fill="#0D0D0D"/>
<path d="M59 254H228" stroke="#0D0D0D"/>
<path d="M251.999 254L1277.99 254" stroke="#0D0D0D"/>
<path d="M10.26 120.12L4.96 125.18L3.68 124.22L8.8 119.3L8.7 120.28H1.28V118.54H10.26V120.12ZM5.12 125.52H3.68V124.22C3.90667 124.073 4.18667 123.98 4.52 123.94C4.86667 123.887 5.2 123.86 5.52 123.86C6.22667 123.86 6.88667 123.967 7.5 124.18C8.11333 124.38 8.65333 124.68 9.12 125.08C9.6 125.48 9.96667 125.967 10.22 126.54C10.4867 127.1 10.62 127.74 10.62 128.46C10.62 129.433 10.3933 130.28 9.94 131C9.5 131.72 8.88667 132.273 8.1 132.66C7.32667 133.047 6.45333 133.24 5.48 133.24C4.53333 133.24 3.69333 133.053 2.96 132.68C2.22667 132.307 1.64667 131.767 1.22 131.06C0.806667 130.34 0.6 129.487 0.6 128.5H2.54C2.54 129.433 2.80667 130.167 3.34 130.7C3.88667 131.22 4.61333 131.48 5.52 131.48C6.45333 131.48 7.2 131.2 7.76 130.64C8.33333 130.08 8.62 129.34 8.62 128.42C8.62 127.553 8.32667 126.853 7.74 126.32C7.15333 125.787 6.28 125.52 5.12 125.52ZM12.1472 125.78C12.1472 124.287 12.3872 122.98 12.8672 121.86C13.3605 120.727 14.0539 119.847 14.9472 119.22C15.8405 118.58 16.8939 118.26 18.1072 118.26C19.3205 118.26 20.3672 118.58 21.2472 119.22C22.1405 119.847 22.8272 120.727 23.3072 121.86C23.8005 122.98 24.0472 124.287 24.0472 125.78C24.0472 127.287 23.8072 128.6 23.3272 129.72C22.8605 130.84 22.1805 131.713 21.2872 132.34C20.4072 132.953 19.3472 133.26 18.1072 133.26C16.8672 133.26 15.8005 132.953 14.9072 132.34C14.0139 131.713 13.3272 130.84 12.8472 129.72C12.3805 128.6 12.1472 127.287 12.1472 125.78ZM14.0872 125.78C14.0872 126.967 14.2472 127.993 14.5672 128.86C14.8872 129.713 15.3405 130.367 15.9272 130.82C16.5272 131.273 17.2539 131.5 18.1072 131.5C18.9472 131.5 19.6672 131.273 20.2672 130.82C20.8672 130.367 21.3205 129.713 21.6272 128.86C21.9472 127.993 22.1072 126.967 22.1072 125.78C22.1072 124.58 21.9472 123.553 21.6272 122.7C21.3205 121.833 20.8672 121.173 20.2672 120.72C19.6672 120.253 18.9472 120.02 18.1072 120.02C17.2539 120.02 16.5272 120.253 15.9272 120.72C15.3405 121.173 14.8872 121.833 14.5672 122.7C14.2472 123.553 14.0872 124.58 14.0872 125.78Z" fill="#0D0D0D"/>
<path d="M35 125H51" stroke="#0D0D0D"/>
<path d="M10.68 175.98L0.92 176V174.5L5.58 170.48C6.16667 169.987 6.65333 169.54 7.04 169.14C7.42667 168.74 7.73333 168.373 7.96 168.04C8.18667 167.693 8.34667 167.353 8.44 167.02C8.53333 166.687 8.58 166.327 8.58 165.94C8.58 165.033 8.33333 164.327 7.84 163.82C7.36 163.3 6.68 163.04 5.8 163.04C4.90667 163.04 4.18667 163.347 3.64 163.96C3.10667 164.56 2.83333 165.373 2.82 166.4H0.86C0.886667 165.373 1.10667 164.473 1.52 163.7C1.93333 162.927 2.50667 162.333 3.24 161.92C3.98667 161.493 4.84667 161.28 5.82 161.28C6.79333 161.28 7.63333 161.467 8.34 161.84C9.04667 162.213 9.59333 162.74 9.98 163.42C10.38 164.087 10.58 164.887 10.58 165.82C10.58 166.327 10.5133 166.813 10.38 167.28C10.2467 167.733 10.0333 168.187 9.74 168.64C9.46 169.08 9.09333 169.54 8.64 170.02C8.18667 170.487 7.64 171 7 171.56L3.22 174.84L2.56 174.16H10.68V175.98ZM17.0072 176.24C16.0205 176.24 15.1605 176.047 14.4272 175.66C13.7072 175.26 13.1405 174.707 12.7272 174C12.3272 173.28 12.1272 172.44 12.1272 171.48H14.0672C14.0672 172.413 14.3339 173.147 14.8672 173.68C15.4005 174.213 16.1272 174.48 17.0472 174.48C17.7005 174.48 18.2672 174.347 18.7472 174.08C19.2272 173.8 19.6005 173.42 19.8672 172.94C20.1339 172.447 20.2672 171.873 20.2672 171.22C20.2672 170.593 20.1405 170.04 19.8872 169.56C19.6339 169.067 19.2672 168.68 18.7872 168.4C18.3205 168.12 17.7472 167.98 17.0672 167.98C16.4672 167.98 15.9005 168.113 15.3672 168.38C14.8339 168.633 14.4005 168.967 14.0672 169.38L12.4072 168.96L14.1672 161.54H21.4072V163.34H14.8872L15.7872 162.54L14.4472 167.92L13.7872 168.06C14.1605 167.487 14.6672 167.053 15.3072 166.76C15.9472 166.453 16.6539 166.3 17.4272 166.3C18.4139 166.3 19.2672 166.513 19.9872 166.94C20.7072 167.353 21.2672 167.927 21.6672 168.66C22.0672 169.393 22.2672 170.22 22.2672 171.14C22.2672 172.14 22.0405 173.027 21.5872 173.8C21.1472 174.56 20.5339 175.16 19.7472 175.6C18.9739 176.027 18.0605 176.24 17.0072 176.24Z" fill="#0D0D0D"/>
<path d="M35 168H51" stroke="#0D0D0D"/>
<path d="M10.68 218.98L0.92 219V217.5L5.58 213.48C6.16667 212.987 6.65333 212.54 7.04 212.14C7.42667 211.74 7.73333 211.373 7.96 211.04C8.18667 210.693 8.34667 210.353 8.44 210.02C8.53333 209.687 8.58 209.327 8.58 208.94C8.58 208.033 8.33333 207.327 7.84 206.82C7.36 206.3 6.68 206.04 5.8 206.04C4.90667 206.04 4.18667 206.347 3.64 206.96C3.10667 207.56 2.83333 208.373 2.82 209.4H0.86C0.886667 208.373 1.10667 207.473 1.52 206.7C1.93333 205.927 2.50667 205.333 3.24 204.92C3.98667 204.493 4.84667 204.28 5.82 204.28C6.79333 204.28 7.63333 204.467 8.34 204.84C9.04667 205.213 9.59333 205.74 9.98 206.42C10.38 207.087 10.58 207.887 10.58 208.82C10.58 209.327 10.5133 209.813 10.38 210.28C10.2467 210.733 10.0333 211.187 9.74 211.64C9.46 212.08 9.09333 212.54 8.64 213.02C8.18667 213.487 7.64 214 7 214.56L3.22 217.84L2.56 217.16H10.68V218.98ZM12.2839 211.78C12.2839 210.287 12.5239 208.98 13.0039 207.86C13.4972 206.727 14.1906 205.847 15.0839 205.22C15.9772 204.58 17.0306 204.26 18.2439 204.26C19.4572 204.26 20.5039 204.58 21.3839 205.22C22.2772 205.847 22.9639 206.727 23.4439 207.86C23.9372 208.98 24.1839 210.287 24.1839 211.78C24.1839 213.287 23.9439 214.6 23.4639 215.72C22.9972 216.84 22.3172 217.713 21.4239 218.34C20.5439 218.953 19.4839 219.26 18.2439 219.26C17.0039 219.26 15.9372 218.953 15.0439 218.34C14.1506 217.713 13.4639 216.84 12.9839 215.72C12.5172 214.6 12.2839 213.287 12.2839 211.78ZM14.2239 211.78C14.2239 212.967 14.3839 213.993 14.7039 214.86C15.0239 215.713 15.4772 216.367 16.0639 216.82C16.6639 217.273 17.3906 217.5 18.2439 217.5C19.0839 217.5 19.8039 217.273 20.4039 216.82C21.0039 216.367 21.4572 215.713 21.7639 214.86C22.0839 213.993 22.2439 212.967 22.2439 211.78C22.2439 210.58 22.0839 209.553 21.7639 208.7C21.4572 207.833 21.0039 207.173 20.4039 206.72C19.8039 206.253 19.0839 206.02 18.2439 206.02C17.3906 206.02 16.6639 206.253 16.0639 206.72C15.4772 207.173 15.0239 207.833 14.7039 208.7C14.3839 209.553 14.2239 210.58 14.2239 211.78Z" fill="#0D0D0D"/>
<path d="M35 211H51" stroke="#0D0D0D"/>
<path d="M3.74 249.3H0.7V247.54H5.62V262H3.74V249.3ZM12.847 262.24C11.8604 262.24 11.0004 262.047 10.267 261.66C9.54703 261.26 8.98036 260.707 8.56703 260C8.16703 259.28 7.96703 258.44 7.96703 257.48H9.90703C9.90703 258.413 10.1737 259.147 10.707 259.68C11.2404 260.213 11.967 260.48 12.887 260.48C13.5404 260.48 14.107 260.347 14.587 260.08C15.067 259.8 15.4404 259.42 15.707 258.94C15.9737 258.447 16.107 257.873 16.107 257.22C16.107 256.593 15.9804 256.04 15.727 255.56C15.4737 255.067 15.107 254.68 14.627 254.4C14.1604 254.12 13.587 253.98 12.907 253.98C12.307 253.98 11.7404 254.113 11.207 254.38C10.6737 254.633 10.2404 254.967 9.90703 255.38L8.24703 254.96L10.007 247.54H17.247V249.34H10.727L11.627 248.54L10.287 253.92L9.62703 254.06C10.0004 253.487 10.507 253.053 11.147 252.76C11.787 252.453 12.4937 252.3 13.267 252.3C14.2537 252.3 15.107 252.513 15.827 252.94C16.547 253.353 17.107 253.927 17.507 254.66C17.907 255.393 18.107 256.22 18.107 257.14C18.107 258.14 17.8804 259.027 17.427 259.8C16.987 260.56 16.3737 261.16 15.587 261.6C14.8137 262.027 13.9004 262.24 12.847 262.24Z" fill="#0D0D0D"/>
<path d="M35 254H51" stroke="#0D0D0D"/>
<path d="M3.74 292.3H0.7V290.54H5.62V305H3.74V292.3ZM8.06516 297.78C8.06516 296.287 8.30516 294.98 8.78516 293.86C9.27849 292.727 9.97182 291.847 10.8652 291.22C11.7585 290.58 12.8118 290.26 14.0252 290.26C15.2385 290.26 16.2852 290.58 17.1652 291.22C18.0585 291.847 18.7452 292.727 19.2252 293.86C19.7185 294.98 19.9652 296.287 19.9652 297.78C19.9652 299.287 19.7252 300.6 19.2452 301.72C18.7785 302.84 18.0985 303.713 17.2052 304.34C16.3252 304.953 15.2652 305.26 14.0252 305.26C12.7852 305.26 11.7185 304.953 10.8252 304.34C9.93182 303.713 9.24516 302.84 8.76516 301.72C8.29849 300.6 8.06516 299.287 8.06516 297.78ZM10.0052 297.78C10.0052 298.967 10.1652 299.993 10.4852 300.86C10.8052 301.713 11.2585 302.367 11.8452 302.82C12.4452 303.273 13.1718 303.5 14.0252 303.5C14.8652 303.5 15.5852 303.273 16.1852 302.82C16.7852 302.367 17.2385 301.713 17.5452 300.86C17.8652 299.993 18.0252 298.967 18.0252 297.78C18.0252 296.58 17.8652 295.553 17.5452 294.7C17.2385 293.833 16.7852 293.173 16.1852 292.72C15.5852 292.253 14.8652 292.02 14.0252 292.02C13.1718 292.02 12.4452 292.253 11.8452 292.72C11.2585 293.173 10.8052 293.833 10.4852 294.7C10.1652 295.553 10.0052 296.58 10.0052 297.78Z" fill="#0D0D0D"/>
<path d="M35 297H51" stroke="#0D0D0D"/>
<path d="M5.84 348.24C4.85333 348.24 3.99333 348.047 3.26 347.66C2.54 347.26 1.97333 346.707 1.56 346C1.16 345.28 0.96 344.44 0.96 343.48H2.9C2.9 344.413 3.16667 345.147 3.7 345.68C4.23333 346.213 4.96 346.48 5.88 346.48C6.53333 346.48 7.1 346.347 7.58 346.08C8.06 345.8 8.43333 345.42 8.7 344.94C8.96667 344.447 9.1 343.873 9.1 343.22C9.1 342.593 8.97333 342.04 8.72 341.56C8.46667 341.067 8.1 340.68 7.62 340.4C7.15333 340.12 6.58 339.98 5.9 339.98C5.3 339.98 4.73333 340.113 4.2 340.38C3.66667 340.633 3.23333 340.967 2.9 341.38L1.24 340.96L3 333.54H10.24V335.34H3.72L4.62 334.54L3.28 339.92L2.62 340.06C2.99333 339.487 3.5 339.053 4.14 338.76C4.78 338.453 5.48667 338.3 6.26 338.3C7.24667 338.3 8.1 338.513 8.82 338.94C9.54 339.353 10.1 339.927 10.5 340.66C10.9 341.393 11.1 342.22 11.1 343.14C11.1 344.14 10.8733 345.027 10.42 345.8C9.98 346.56 9.36667 347.16 8.58 347.6C7.80667 348.027 6.89333 348.24 5.84 348.24Z" fill="#0D0D0D"/>
<path d="M35 340H51" stroke="#0D0D0D"/>
<path d="M43 91L40.1133 96L45.8868 96L43 91ZM43 432L43.5 432L43.5 95.5L43 95.5L42.5 95.5L42.5 432L43 432Z" fill="#0D0D0D"/>
<path fill-rule="evenodd" clip-rule="evenodd" d="M135.499 353.917L135.499 358L134.499 358L134.499 353.917L135.499 353.917ZM135.499 337.583L135.499 345.75L134.499 345.75L134.499 337.583L135.499 337.583ZM135.499 321.25L135.499 329.417L134.499 329.417L134.499 321.25L135.499 321.25ZM135.499 309L135.499 313.083L134.499 313.083L134.499 309L135.499 309Z" fill="#9C9C9C"/>
<path fill-rule="evenodd" clip-rule="evenodd" d="M240.499 354.167L240.499 358L239.499 358L239.499 354.167L240.499 354.167ZM240.499 338.833L240.499 346.5L239.499 346.5L239.499 338.833L240.499 338.833ZM240.499 323.5L240.499 331.167L239.499 331.167L239.499 323.5L240.499 323.5ZM240.499 308.167L240.499 315.833L239.499 315.833L239.499 308.167L240.499 308.167ZM240.499 292.833L240.499 300.5L239.499 300.5L239.499 292.833L240.499 292.833ZM240.499 277.5L240.499 285.167L239.499 285.167L239.499 277.5L240.499 277.5ZM240.499 266L240.499 269.833L239.499 269.833L239.499 266L240.499 266Z" fill="#9C9C9C"/>
<path fill-rule="evenodd" clip-rule="evenodd" d="M345.498 353.806L345.498 358L344.498 358L344.498 353.806L345.498 353.806ZM345.498 337.028L345.498 345.417L344.498 345.417L344.498 337.028L345.498 337.028ZM345.498 320.25L345.498 328.639L344.498 328.639L344.498 320.25L345.498 320.25ZM345.498 303.472L345.498 311.861L344.498 311.861L344.498 303.472L345.498 303.472ZM345.498 286.694L345.498 295.083L344.498 295.083L344.498 286.694L345.498 286.694ZM345.498 269.917L345.498 278.306L344.498 278.306L344.498 269.917L345.498 269.917ZM345.498 253.139L345.498 261.528L344.498 261.528L344.498 253.139L345.498 253.139ZM345.498 236.361L345.498 244.75L344.498 244.75L344.498 236.361L345.498 236.361ZM345.498 219.583L345.498 227.972L344.498 227.972L344.498 219.583L345.498 219.583ZM345.498 207L345.498 211.194L344.498 211.194L344.498 207L345.498 207Z" fill="#9C9C9C"/>
<path fill-rule="evenodd" clip-rule="evenodd" d="M450.498 353.979L450.498 358L449.498 358L449.498 353.979L450.498 353.979ZM450.498 337.896L450.498 345.938L449.498 345.938L449.498 337.896L450.498 337.896ZM450.498 321.812L450.498 329.854L449.498 329.854L449.498 321.812L450.498 321.812ZM450.498 305.729L450.498 313.771L449.498 313.771L449.498 305.729L450.498 305.729ZM450.498 289.646L450.498 297.687L449.498 297.687L449.498 289.646L450.498 289.646ZM450.498 273.563L450.498 281.604L449.498 281.604L449.498 273.562L450.498 273.563ZM450.498 257.479L450.498 265.521L449.498 265.521L449.498 257.479L450.498 257.479ZM450.498 241.396L450.498 249.438L449.498 249.438L449.498 241.396L450.498 241.396ZM450.498 225.313L450.498 233.354L449.498 233.354L449.498 225.313L450.498 225.313ZM450.498 209.229L450.498 217.271L449.498 217.271L449.498 209.229L450.498 209.229ZM450.498 193.146L450.498 201.188L449.498 201.188L449.498 193.146L450.498 193.146ZM450.498 177.062L450.498 185.104L449.498 185.104L449.498 177.062L450.498 177.062ZM450.498 165L450.498 169.021L449.498 169.021L449.498 165L450.498 165Z" fill="#9C9C9C"/>
<path fill-rule="evenodd" clip-rule="evenodd" d="M555.497 354.125L555.497 358L554.497 358L554.497 354.125L555.497 354.125ZM555.497 338.625L555.497 346.375L554.497 346.375L554.497 338.625L555.497 338.625ZM555.497 323.125L555.497 330.875L554.497 330.875L554.497 323.125L555.497 323.125ZM555.497 307.625L555.497 315.375L554.497 315.375L554.497 307.625L555.497 307.625ZM555.497 292.125L555.497 299.875L554.497 299.875L554.497 292.125L555.497 292.125ZM555.497 276.625L555.497 284.375L554.497 284.375L554.497 276.625L555.497 276.625ZM555.497 261.125L555.497 268.875L554.497 268.875L554.497 261.125L555.497 261.125ZM555.497 245.625L555.497 253.375L554.497 253.375L554.497 245.625L555.497 245.625ZM555.497 230.125L555.497 237.875L554.497 237.875L554.497 230.125L555.497 230.125ZM555.497 214.625L555.497 222.375L554.497 222.375L554.497 214.625L555.497 214.625ZM555.497 199.125L555.497 206.875L554.497 206.875L554.497 199.125L555.497 199.125ZM555.497 183.625L555.497 191.375L554.497 191.375L554.497 183.625L555.497 183.625ZM555.497 172L555.497 175.875L554.497 175.875L554.497 172L555.497 172Z" fill="#9C9C9C"/>
<path fill-rule="evenodd" clip-rule="evenodd" d="M661.497 353.955L661.497 358L660.497 358L660.497 353.955L661.497 353.955ZM661.497 337.773L661.497 345.864L660.497 345.864L660.497 337.773L661.497 337.773ZM661.497 321.591L661.497 329.682L660.497 329.682L660.497 321.591L661.497 321.591ZM661.497 305.409L661.497 313.5L660.497 313.5L660.497 305.409L661.497 305.409ZM661.497 289.227L661.497 297.318L660.497 297.318L660.497 289.227L661.497 289.227ZM661.497 273.045L661.497 281.136L660.497 281.136L660.497 273.045L661.497 273.045ZM661.497 256.864L661.497 264.955L660.497 264.955L660.497 256.864L661.497 256.864ZM661.497 240.682L661.497 248.773L660.497 248.773L660.497 240.682L661.497 240.682ZM661.497 224.5L661.497 232.591L660.497 232.591L660.497 224.5L661.497 224.5ZM661.497 208.318L661.497 216.409L660.497 216.409L660.497 208.318L661.497 208.318ZM661.497 192.136L661.497 200.227L660.497 200.227L660.497 192.136L661.497 192.136ZM661.497 180L661.497 184.045L660.497 184.045L660.497 180L661.497 180Z" fill="#9C9C9C"/>
<path fill-rule="evenodd" clip-rule="evenodd" d="M766.496 353.781L766.496 358L765.496 358L765.496 353.781L766.496 353.781ZM766.496 336.906L766.496 345.344L765.496 345.344L765.496 336.906L766.496 336.906ZM766.496 320.031L766.496 328.469L765.496 328.469L765.496 320.031L766.496 320.031ZM766.496 303.156L766.496 311.594L765.496 311.594L765.496 303.156L766.496 303.156ZM766.496 286.281L766.496 294.719L765.496 294.719L765.496 286.281L766.496 286.281ZM766.496 269.406L766.496 277.844L765.496 277.844L765.496 269.406L766.496 269.406ZM766.496 252.531L766.496 260.969L765.496 260.969L765.496 252.531L766.496 252.531ZM766.496 235.656L766.496 244.094L765.496 244.094L765.496 235.656L766.496 235.656ZM766.496 223L766.496 227.219L765.496 227.219L765.496 223L766.496 223Z" fill="#9C9C9C"/>
<path fill-rule="evenodd" clip-rule="evenodd" d="M871.496 354.188L871.496 358L870.496 358L870.496 354.188L871.496 354.188ZM871.496 338.938L871.496 346.563L870.496 346.562L870.496 338.938L871.496 338.938ZM871.496 323.688L871.496 331.313L870.496 331.312L870.496 323.688L871.496 323.688ZM871.496 308.438L871.496 316.063L870.496 316.062L870.496 308.438L871.496 308.438ZM871.496 293.188L871.496 300.813L870.496 300.812L870.496 293.188L871.496 293.188ZM871.496 277.938L871.496 285.563L870.496 285.562L870.496 277.938L871.496 277.938ZM871.496 262.688L871.496 270.313L870.496 270.312L870.496 262.688L871.496 262.688ZM871.496 247.438L871.496 255.063L870.496 255.062L870.496 247.438L871.496 247.438ZM871.496 236L871.496 239.813L870.496 239.812L870.496 236L871.496 236Z" fill="#9C9C9C"/>
<path fill-rule="evenodd" clip-rule="evenodd" d="M976.496 354.15L976.496 358L975.496 358L975.496 354.15L976.496 354.15ZM976.496 338.75L976.496 346.45L975.496 346.45L975.496 338.75L976.496 338.75ZM976.496 323.35L976.496 331.05L975.496 331.05L975.496 323.35L976.496 323.35ZM976.496 307.95L976.496 315.65L975.496 315.65L975.496 307.95L976.496 307.95ZM976.496 292.55L976.496 300.25L975.496 300.25L975.496 292.55L976.496 292.55ZM976.496 277.15L976.496 284.85L975.496 284.85L975.496 277.15L976.496 277.15ZM976.496 261.75L976.496 269.45L975.496 269.45L975.496 261.75L976.496 261.75ZM976.496 246.35L976.496 254.05L975.496 254.05L975.496 246.35L976.496 246.35ZM976.496 230.95L976.496 238.65L975.496 238.65L975.496 230.95L976.496 230.95ZM976.496 215.55L976.496 223.25L975.496 223.25L975.496 215.55L976.496 215.55ZM976.496 204L976.496 207.85L975.496 207.85L975.496 204L976.496 204Z" fill="#9C9C9C"/>
<path fill-rule="evenodd" clip-rule="evenodd" d="M1081.5 353.875L1081.5 358L1080.5 358L1080.5 353.875L1081.5 353.875ZM1081.5 337.375L1081.5 345.625L1080.5 345.625L1080.5 337.375L1081.5 337.375ZM1081.5 320.875L1081.5 329.125L1080.5 329.125L1080.5 320.875L1081.5 320.875ZM1081.5 304.375L1081.5 312.625L1080.5 312.625L1080.5 304.375L1081.5 304.375ZM1081.5 287.875L1081.5 296.125L1080.5 296.125L1080.5 287.875L1081.5 287.875ZM1081.5 271.375L1081.5 279.625L1080.5 279.625L1080.5 271.375L1081.5 271.375ZM1081.5 254.875L1081.5 263.125L1080.5 263.125L1080.5 254.875L1081.5 254.875ZM1081.5 238.375L1081.5 246.625L1080.5 246.625L1080.5 238.375L1081.5 238.375ZM1081.5 221.875L1081.5 230.125L1080.5 230.125L1080.5 221.875L1081.5 221.875ZM1081.5 205.375L1081.5 213.625L1080.5 213.625L1080.5 205.375L1081.5 205.375ZM1081.5 188.875L1081.5 197.125L1080.5 197.125L1080.5 188.875L1081.5 188.875ZM1081.5 172.375L1081.5 180.625L1080.5 180.625L1080.5 172.375L1081.5 172.375ZM1081.5 160L1081.5 164.125L1080.5 164.125L1080.5 160L1081.5 160Z" fill="#9C9C9C"/>
<path fill-rule="evenodd" clip-rule="evenodd" d="M1186.49 353.923L1186.49 358L1185.49 358L1185.49 353.923L1186.49 353.923ZM1186.49 337.615L1186.49 345.769L1185.49 345.769L1185.49 337.615L1186.49 337.615ZM1186.49 321.308L1186.49 329.462L1185.49 329.462L1185.49 321.308L1186.49 321.308ZM1186.49 305L1186.49 313.154L1185.49 313.154L1185.49 305L1186.49 305ZM1186.49 288.692L1186.49 296.846L1185.49 296.846L1185.49 288.692L1186.49 288.692ZM1186.49 272.385L1186.49 280.538L1185.49 280.538L1185.49 272.385L1186.49 272.385ZM1186.49 256.077L1186.49 264.231L1185.49 264.231L1185.49 256.077L1186.49 256.077ZM1186.49 239.769L1186.49 247.923L1185.49 247.923L1185.49 239.769L1186.49 239.769ZM1186.49 223.462L1186.49 231.615L1185.49 231.615L1185.49 223.462L1186.49 223.462ZM1186.49 207.154L1186.49 215.308L1185.49 215.308L1185.49 207.154L1186.49 207.154ZM1186.49 190.846L1186.49 199L1185.49 199L1185.49 190.846L1186.49 190.846ZM1186.49 174.538L1186.49 182.692L1185.49 182.692L1185.49 174.538L1186.49 174.538ZM1186.49 158.231L1186.49 166.385L1185.49 166.385L1185.49 158.231L1186.49 158.231ZM1186.49 146L1186.49 150.077L1185.49 150.077L1185.49 146L1186.49 146Z" fill="#9C9C9C"/>
<path d="M134.999 382L134.999 366" stroke="#0D0D0D"/>
<path d="M135.096 391.3H132.056V389.54H136.976V404H135.096V391.3Z" fill="#0D0D0D"/>
<path d="M240.099 382L240.099 366" stroke="#0D0D0D"/>
<path d="M245.027 403.98L235.267 404V402.5L239.927 398.48C240.513 397.987 241 397.54 241.387 397.14C241.773 396.74 242.08 396.373 242.307 396.04C242.533 395.693 242.693 395.353 242.787 395.02C242.88 394.687 242.927 394.327 242.927 393.94C242.927 393.033 242.68 392.327 242.187 391.82C241.707 391.3 241.027 391.04 240.147 391.04C239.253 391.04 238.533 391.347 237.987 391.96C237.453 392.56 237.18 393.373 237.167 394.4H235.207C235.233 393.373 235.453 392.473 235.867 391.7C236.28 390.927 236.853 390.333 237.587 389.92C238.333 389.493 239.193 389.28 240.167 389.28C241.14 389.28 241.98 389.467 242.687 389.84C243.393 390.213 243.94 390.74 244.327 391.42C244.727 392.087 244.927 392.887 244.927 393.82C244.927 394.327 244.86 394.813 244.727 395.28C244.593 395.733 244.38 396.187 244.087 396.64C243.807 397.08 243.44 397.54 242.987 398.02C242.533 398.487 241.987 399 241.347 399.56L237.567 402.84L236.907 402.16H245.027V403.98Z" fill="#0D0D0D"/>
<path d="M345.198 382L345.198 366" stroke="#0D0D0D"/>
<path d="M349.775 391.12L344.475 396.18L343.195 395.22L348.315 390.3L348.215 391.28H340.795V389.54H349.775V391.12ZM344.635 396.52H343.195V395.22C343.421 395.073 343.701 394.98 344.035 394.94C344.381 394.887 344.715 394.86 345.035 394.86C345.741 394.86 346.401 394.967 347.015 395.18C347.628 395.38 348.168 395.68 348.635 396.08C349.115 396.48 349.481 396.967 349.735 397.54C350.001 398.1 350.135 398.74 350.135 399.46C350.135 400.433 349.908 401.28 349.455 402C349.015 402.72 348.401 403.273 347.615 403.66C346.841 404.047 345.968 404.24 344.995 404.24C344.048 404.24 343.208 404.053 342.475 403.68C341.741 403.307 341.161 402.767 340.735 402.06C340.321 401.34 340.115 400.487 340.115 399.5H342.055C342.055 400.433 342.321 401.167 342.855 401.7C343.401 402.22 344.128 402.48 345.035 402.48C345.968 402.48 346.715 402.2 347.275 401.64C347.848 401.08 348.135 400.34 348.135 399.42C348.135 398.553 347.841 397.853 347.255 397.32C346.668 396.787 345.795 396.52 344.635 396.52Z" fill="#0D0D0D"/>
<path d="M450.298 382L450.298 366" stroke="#0D0D0D"/>
<path d="M453.98 389.54V404H452.1V389.54H453.98ZM444.62 399.34L451.44 389.54H453.54L446.66 399.46L444.62 399.34ZM455.7 401.08H444.62V399.34H455.7V401.08Z" fill="#0D0D0D"/>
<path d="M555.397 382L555.397 366" stroke="#0D0D0D"/>
<path d="M555.329 404.24C554.343 404.24 553.483 404.047 552.749 403.66C552.029 403.26 551.463 402.707 551.049 402C550.649 401.28 550.449 400.44 550.449 399.48H552.389C552.389 400.413 552.656 401.147 553.189 401.68C553.723 402.213 554.449 402.48 555.369 402.48C556.023 402.48 556.589 402.347 557.069 402.08C557.549 401.8 557.923 401.42 558.189 400.94C558.456 400.447 558.589 399.873 558.589 399.22C558.589 398.593 558.463 398.04 558.209 397.56C557.956 397.067 557.589 396.68 557.109 396.4C556.643 396.12 556.069 395.98 555.389 395.98C554.789 395.98 554.223 396.113 553.689 396.38C553.156 396.633 552.723 396.967 552.389 397.38L550.729 396.96L552.489 389.54H559.729V391.34H553.209L554.109 390.54L552.769 395.92L552.109 396.06C552.483 395.487 552.989 395.053 553.629 394.76C554.269 394.453 554.976 394.3 555.749 394.3C556.736 394.3 557.589 394.513 558.309 394.94C559.029 395.353 559.589 395.927 559.989 396.66C560.389 397.393 560.589 398.22 560.589 399.14C560.589 400.14 560.363 401.027 559.909 401.8C559.469 402.56 558.856 403.16 558.069 403.6C557.296 404.027 556.383 404.24 555.329 404.24Z" fill="#0D0D0D"/>
<path d="M660.496 382L660.496 366" stroke="#0D0D0D"/>
<path d="M657.203 394.12L660.583 389.54H662.863L658.723 395.04L658.283 394.9C658.669 394.607 659.069 394.393 659.483 394.26C659.909 394.113 660.336 394.04 660.763 394.04C661.763 394.04 662.636 394.26 663.383 394.7C664.143 395.127 664.729 395.72 665.143 396.48C665.569 397.24 665.783 398.1 665.783 399.06C665.783 400.073 665.549 400.973 665.083 401.76C664.629 402.533 664.003 403.14 663.203 403.58C662.416 404.02 661.523 404.24 660.523 404.24C659.523 404.24 658.616 404.013 657.803 403.56C657.003 403.107 656.369 402.487 655.903 401.7C655.436 400.913 655.203 400.033 655.203 399.06C655.203 398.487 655.263 397.953 655.383 397.46C655.516 396.967 655.729 396.453 656.023 395.92C656.316 395.387 656.709 394.787 657.203 394.12ZM657.203 399.08C657.203 399.747 657.343 400.34 657.623 400.86C657.903 401.367 658.289 401.767 658.783 402.06C659.289 402.34 659.869 402.48 660.523 402.48C661.163 402.48 661.729 402.34 662.223 402.06C662.716 401.767 663.103 401.367 663.383 400.86C663.663 400.34 663.803 399.747 663.803 399.08C663.803 398.413 663.663 397.827 663.383 397.32C663.103 396.813 662.716 396.42 662.223 396.14C661.729 395.847 661.163 395.7 660.523 395.7C659.869 395.7 659.289 395.847 658.783 396.14C658.289 396.42 657.903 396.813 657.623 397.32C657.343 397.827 657.203 398.413 657.203 399.08Z" fill="#0D0D0D"/>
<path d="M765.596 382L765.596 366" stroke="#0D0D0D"/>
<path d="M760.56 389.54H770.66V391.34H760.56V389.54ZM769.14 390.3L770.66 391.34L765.18 404H763.14L769.14 390.3Z" fill="#0D0D0D"/>
<path d="M870.695 382L870.695 366" stroke="#0D0D0D"/>
<path d="M865.385 399.98C865.385 398.993 865.685 398.147 866.285 397.44C866.885 396.72 867.685 396.267 868.685 396.08L868.705 396.5C867.812 396.26 867.119 395.847 866.625 395.26C866.145 394.66 865.905 393.933 865.905 393.08C865.905 392.32 866.105 391.66 866.505 391.1C866.905 390.527 867.465 390.08 868.185 389.76C868.919 389.44 869.765 389.28 870.725 389.28C871.672 389.28 872.499 389.44 873.205 389.76C873.925 390.08 874.485 390.527 874.885 391.1C875.285 391.673 875.485 392.34 875.485 393.1C875.485 393.953 875.239 394.68 874.745 395.28C874.265 395.867 873.579 396.267 872.685 396.48L872.665 396.1C873.332 396.193 873.919 396.427 874.425 396.8C874.932 397.16 875.325 397.613 875.605 398.16C875.885 398.707 876.025 399.32 876.025 400C876.025 400.84 875.799 401.58 875.345 402.22C874.905 402.86 874.285 403.36 873.485 403.72C872.699 404.067 871.772 404.24 870.705 404.24C869.639 404.24 868.705 404.067 867.905 403.72C867.105 403.36 866.485 402.86 866.045 402.22C865.605 401.58 865.385 400.833 865.385 399.98ZM867.305 399.84C867.305 400.373 867.445 400.84 867.725 401.24C868.005 401.64 868.399 401.953 868.905 402.18C869.425 402.393 870.025 402.5 870.705 402.5C871.385 402.5 871.979 402.393 872.485 402.18C872.992 401.953 873.385 401.64 873.665 401.24C873.945 400.84 874.085 400.373 874.085 399.84C874.085 399.04 873.779 398.407 873.165 397.94C872.552 397.46 871.725 397.22 870.685 397.22C869.659 397.22 868.839 397.46 868.225 397.94C867.612 398.407 867.305 399.04 867.305 399.84ZM867.705 393.2C867.705 393.907 867.972 394.473 868.505 394.9C869.052 395.327 869.779 395.54 870.685 395.54C871.592 395.54 872.312 395.333 872.845 394.92C873.379 394.493 873.645 393.933 873.645 393.24C873.645 392.547 873.379 392 872.845 391.6C872.312 391.187 871.592 390.98 870.685 390.98C869.779 390.98 869.052 391.187 868.505 391.6C867.972 392 867.705 392.533 867.705 393.2Z" fill="#0D0D0D"/>
<path d="M975.795 382L975.795 366" stroke="#0D0D0D"/>
<path d="M979.082 399.42L975.702 404H973.422L977.562 398.5L978.002 398.64C977.615 398.92 977.208 399.133 976.782 399.28C976.368 399.427 975.948 399.5 975.522 399.5C974.522 399.5 973.642 399.28 972.882 398.84C972.135 398.4 971.548 397.8 971.122 397.04C970.708 396.28 970.502 395.42 970.502 394.46C970.502 393.46 970.728 392.573 971.182 391.8C971.648 391.013 972.275 390.4 973.062 389.96C973.862 389.507 974.762 389.28 975.762 389.28C976.762 389.28 977.662 389.513 978.462 389.98C979.275 390.433 979.915 391.053 980.382 391.84C980.848 392.613 981.082 393.493 981.082 394.48C981.082 395.04 981.015 395.573 980.882 396.08C980.762 396.573 980.555 397.087 980.262 397.62C979.968 398.14 979.575 398.74 979.082 399.42ZM979.082 394.46C979.082 393.793 978.942 393.207 978.662 392.7C978.382 392.18 977.988 391.773 977.482 391.48C976.988 391.187 976.415 391.04 975.762 391.04C975.122 391.04 974.555 391.187 974.062 391.48C973.568 391.773 973.182 392.18 972.902 392.7C972.622 393.207 972.482 393.793 972.482 394.46C972.482 395.113 972.622 395.7 972.902 396.22C973.182 396.727 973.568 397.127 974.062 397.42C974.555 397.7 975.122 397.84 975.762 397.84C976.415 397.84 976.988 397.7 977.482 397.42C977.988 397.127 978.382 396.727 978.662 396.22C978.942 395.7 979.082 395.113 979.082 394.46Z" fill="#0D0D0D"/>
<path d="M1080.89 382L1080.89 366" stroke="#0D0D0D"/>
<path d="M1074.16 391.3H1071.12V389.54H1076.04V404H1074.16V391.3ZM1078.48 396.78C1078.48 395.287 1078.72 393.98 1079.2 392.86C1079.7 391.727 1080.39 390.847 1081.28 390.22C1082.18 389.58 1083.23 389.26 1084.44 389.26C1085.66 389.26 1086.7 389.58 1087.58 390.22C1088.48 390.847 1089.16 391.727 1089.64 392.86C1090.14 393.98 1090.38 395.287 1090.38 396.78C1090.38 398.287 1090.14 399.6 1089.66 400.72C1089.2 401.84 1088.52 402.713 1087.62 403.34C1086.74 403.953 1085.68 404.26 1084.44 404.26C1083.2 404.26 1082.14 403.953 1081.24 403.34C1080.35 402.713 1079.66 401.84 1079.18 400.72C1078.72 399.6 1078.48 398.287 1078.48 396.78ZM1080.42 396.78C1080.42 397.967 1080.58 398.993 1080.9 399.86C1081.22 400.713 1081.68 401.367 1082.26 401.82C1082.86 402.273 1083.59 402.5 1084.44 402.5C1085.28 402.5 1086 402.273 1086.6 401.82C1087.2 401.367 1087.66 400.713 1087.96 399.86C1088.28 398.993 1088.44 397.967 1088.44 396.78C1088.44 395.58 1088.28 394.553 1087.96 393.7C1087.66 392.833 1087.2 392.173 1086.6 391.72C1086 391.253 1085.28 391.02 1084.44 391.02C1083.59 391.02 1082.86 391.253 1082.26 391.72C1081.68 392.173 1081.22 392.833 1080.9 393.7C1080.58 394.553 1080.42 395.58 1080.42 396.78Z" fill="#0D0D0D"/>
<path d="M1185.99 382L1185.99 366" stroke="#0D0D0D"/>
<path d="M1182.64 391.3H1179.6V389.54H1184.52V404H1182.64V391.3ZM1189.55 391.3H1186.51V389.54H1191.43V404H1189.55V391.3Z" fill="#0D0D0D"/>
<path d="M57.73 431H56.26V420.155H57.73L63.685 429.155H63.28V420.155H64.75V431H63.28L57.325 422H57.73V431ZM72.0306 423.665H73.4256V431H72.1656L72.0156 429.89C71.8056 430.27 71.4756 430.58 71.0256 430.82C70.5756 431.06 70.0806 431.18 69.5406 431.18C68.6906 431.18 68.0306 430.915 67.5606 430.385C67.1006 429.845 66.8706 429.125 66.8706 428.225V423.665H68.2806V427.76C68.2806 428.54 68.4356 429.1 68.7456 429.44C69.0656 429.77 69.4956 429.935 70.0356 429.935C70.6856 429.935 71.1806 429.735 71.5206 429.335C71.8606 428.925 72.0306 428.325 72.0306 427.535V423.665ZM76.8064 431H75.3964V423.665H76.6564L76.8514 425.015L76.6714 424.895C76.8214 424.485 77.0964 424.145 77.4964 423.875C77.9064 423.595 78.4014 423.455 78.9814 423.455C79.6314 423.455 80.1714 423.63 80.6014 423.98C81.0314 424.33 81.3114 424.795 81.4414 425.375H81.1864C81.2864 424.795 81.5614 424.33 82.0114 423.98C82.4614 423.63 83.0164 423.455 83.6764 423.455C84.5164 423.455 85.1764 423.7 85.6564 424.19C86.1364 424.68 86.3764 425.35 86.3764 426.2V431H84.9964V426.545C84.9964 425.965 84.8464 425.52 84.5464 425.21C84.2564 424.89 83.8614 424.73 83.3614 424.73C83.0114 424.73 82.7014 424.81 82.4314 424.97C82.1714 425.12 81.9664 425.34 81.8164 425.63C81.6664 425.92 81.5914 426.26 81.5914 426.65V431H80.1964V426.53C80.1964 425.95 80.0514 425.51 79.7614 425.21C79.4714 424.9 79.0764 424.745 78.5764 424.745C78.2264 424.745 77.9164 424.825 77.6464 424.985C77.3864 425.135 77.1814 425.355 77.0314 425.645C76.8814 425.925 76.8064 426.26 76.8064 426.65V431ZM89.5309 431H88.2559V419.96H89.6659V424.925C89.9059 424.445 90.2609 424.08 90.7309 423.83C91.2009 423.58 91.7359 423.455 92.3359 423.455C93.0359 423.455 93.6359 423.625 94.1359 423.965C94.6359 424.295 95.0209 424.755 95.2909 425.345C95.5609 425.935 95.6959 426.61 95.6959 427.37C95.6959 428.1 95.5559 428.755 95.2759 429.335C94.9959 429.915 94.5959 430.37 94.0759 430.7C93.5659 431.02 92.9559 431.18 92.2459 431.18C91.6759 431.18 91.1559 431.05 90.6859 430.79C90.2259 430.53 89.8759 430.155 89.6359 429.665L89.5309 431ZM89.6809 427.31C89.6809 427.82 89.7709 428.27 89.9509 428.66C90.1409 429.05 90.4059 429.355 90.7459 429.575C91.0959 429.795 91.5109 429.905 91.9909 429.905C92.4709 429.905 92.8809 429.795 93.2209 429.575C93.5609 429.355 93.8209 429.05 94.0009 428.66C94.1909 428.27 94.2859 427.82 94.2859 427.31C94.2859 426.81 94.1909 426.37 94.0009 425.99C93.8209 425.6 93.5609 425.295 93.2209 425.075C92.8809 424.845 92.4709 424.73 91.9909 424.73C91.5109 424.73 91.0959 424.84 90.7459 425.06C90.4059 425.28 90.1409 425.585 89.9509 425.975C89.7709 426.355 89.6809 426.8 89.6809 427.31ZM100.34 431.18C99.6301 431.18 99.0001 431.02 98.4501 430.7C97.9001 430.37 97.4701 429.92 97.1601 429.35C96.8501 428.77 96.6951 428.1 96.6951 427.34C96.6951 426.57 96.8451 425.895 97.1451 425.315C97.4551 424.735 97.8751 424.28 98.4051 423.95C98.9451 423.62 99.5701 423.455 100.28 423.455C100.98 423.455 101.585 423.605 102.095 423.905C102.615 424.205 103.015 424.625 103.295 425.165C103.585 425.705 103.73 426.34 103.73 427.07V427.595L97.4451 427.61L97.4751 426.665H102.32C102.32 426.055 102.135 425.565 101.765 425.195C101.395 424.825 100.9 424.64 100.28 424.64C99.8101 424.64 99.4051 424.745 99.0651 424.955C98.7351 425.155 98.4801 425.455 98.3001 425.855C98.1301 426.245 98.0451 426.715 98.0451 427.265C98.0451 428.145 98.2451 428.825 98.6451 429.305C99.0451 429.775 99.6201 430.01 100.37 430.01C100.92 430.01 101.37 429.9 101.72 429.68C102.07 429.46 102.305 429.14 102.425 428.72H103.745C103.565 429.5 103.18 430.105 102.59 430.535C102 430.965 101.25 431.18 100.34 431.18ZM109.43 423.605V424.895H108.8C108.13 424.895 107.6 425.09 107.21 425.48C106.83 425.86 106.64 426.405 106.64 427.115V431H105.23V423.68H106.55L106.67 425.15H106.535C106.635 424.67 106.875 424.28 107.255 423.98C107.635 423.67 108.11 423.515 108.68 423.515C108.81 423.515 108.93 423.525 109.04 423.545C109.16 423.555 109.29 423.575 109.43 423.605ZM114.224 427.325C114.224 426.575 114.389 425.91 114.719 425.33C115.049 424.75 115.499 424.295 116.069 423.965C116.649 423.635 117.309 423.47 118.049 423.47C118.789 423.47 119.444 423.635 120.014 423.965C120.584 424.295 121.034 424.75 121.364 425.33C121.694 425.91 121.859 426.575 121.859 427.325C121.859 428.075 121.694 428.74 121.364 429.32C121.034 429.9 120.584 430.355 120.014 430.685C119.444 431.015 118.789 431.18 118.049 431.18C117.309 431.18 116.649 431.015 116.069 430.685C115.499 430.355 115.049 429.9 114.719 429.32C114.389 428.74 114.224 428.075 114.224 427.325ZM115.649 427.325C115.649 427.835 115.749 428.285 115.949 428.675C116.159 429.065 116.444 429.37 116.804 429.59C117.164 429.81 117.579 429.92 118.049 429.92C118.519 429.92 118.934 429.81 119.294 429.59C119.654 429.37 119.934 429.065 120.134 428.675C120.344 428.285 120.449 427.835 120.449 427.325C120.449 426.805 120.344 426.355 120.134 425.975C119.934 425.585 119.654 425.28 119.294 425.06C118.934 424.84 118.519 424.73 118.049 424.73C117.579 424.73 117.164 424.84 116.804 425.06C116.444 425.28 116.159 425.585 115.949 425.975C115.749 426.355 115.649 426.805 115.649 427.325ZM122.521 423.665H126.751V424.85H122.521V423.665ZM126.796 420.02V421.235C126.706 421.235 126.606 421.235 126.496 421.235C126.396 421.235 126.286 421.235 126.166 421.235C125.706 421.235 125.396 421.345 125.236 421.565C125.086 421.785 125.011 422.095 125.011 422.495V431H123.601V422.495C123.601 421.895 123.701 421.41 123.901 421.04C124.111 420.66 124.386 420.385 124.726 420.215C125.076 420.045 125.476 419.96 125.926 419.96C126.066 419.96 126.211 419.965 126.361 419.975C126.511 419.985 126.656 420 126.796 420.02ZM132.178 427.145V420.155H133.648V427.055C133.648 427.925 133.878 428.595 134.338 429.065C134.808 429.525 135.473 429.755 136.333 429.755C137.183 429.755 137.838 429.52 138.298 429.05C138.758 428.58 138.988 427.915 138.988 427.055V420.155H140.473V427.145C140.473 427.975 140.303 428.69 139.963 429.29C139.633 429.89 139.158 430.355 138.538 430.685C137.918 431.015 137.183 431.18 136.333 431.18C135.483 431.18 134.743 431.02 134.113 430.7C133.493 430.37 133.013 429.905 132.673 429.305C132.343 428.695 132.178 427.975 132.178 427.145ZM141.944 428.87H143.294C143.294 429.24 143.429 429.535 143.699 429.755C143.969 429.965 144.334 430.07 144.794 430.07C145.294 430.07 145.679 429.975 145.949 429.785C146.219 429.585 146.354 429.32 146.354 428.99C146.354 428.75 146.279 428.55 146.129 428.39C145.989 428.23 145.729 428.1 145.349 428L144.059 427.7C143.409 427.54 142.924 427.295 142.604 426.965C142.294 426.635 142.139 426.2 142.139 425.66C142.139 425.21 142.254 424.82 142.484 424.49C142.724 424.16 143.049 423.905 143.459 423.725C143.879 423.545 144.359 423.455 144.899 423.455C145.439 423.455 145.904 423.55 146.294 423.74C146.694 423.93 147.004 424.195 147.224 424.535C147.454 424.875 147.574 425.28 147.584 425.75H146.234C146.224 425.37 146.099 425.075 145.859 424.865C145.619 424.655 145.284 424.55 144.854 424.55C144.414 424.55 144.074 424.645 143.834 424.835C143.594 425.025 143.474 425.285 143.474 425.615C143.474 426.105 143.834 426.44 144.554 426.62L145.844 426.935C146.464 427.075 146.929 427.305 147.239 427.625C147.549 427.935 147.704 428.36 147.704 428.9C147.704 429.36 147.579 429.765 147.329 430.115C147.079 430.455 146.734 430.72 146.294 430.91C145.864 431.09 145.354 431.18 144.764 431.18C143.904 431.18 143.219 430.97 142.709 430.55C142.199 430.13 141.944 429.57 141.944 428.87ZM152.357 431.18C151.647 431.18 151.017 431.02 150.467 430.7C149.917 430.37 149.487 429.92 149.177 429.35C148.867 428.77 148.712 428.1 148.712 427.34C148.712 426.57 148.862 425.895 149.162 425.315C149.472 424.735 149.892 424.28 150.422 423.95C150.962 423.62 151.587 423.455 152.297 423.455C152.997 423.455 153.602 423.605 154.112 423.905C154.632 424.205 155.032 424.625 155.312 425.165C155.602 425.705 155.747 426.34 155.747 427.07V427.595L149.462 427.61L149.492 426.665H154.337C154.337 426.055 154.152 425.565 153.782 425.195C153.412 424.825 152.917 424.64 152.297 424.64C151.827 424.64 151.422 424.745 151.082 424.955C150.752 425.155 150.497 425.455 150.317 425.855C150.147 426.245 150.062 426.715 150.062 427.265C150.062 428.145 150.262 428.825 150.662 429.305C151.062 429.775 151.637 430.01 152.387 430.01C152.937 430.01 153.387 429.9 153.737 429.68C154.087 429.46 154.322 429.14 154.442 428.72H155.762C155.582 429.5 155.197 430.105 154.607 430.535C154.017 430.965 153.267 431.18 152.357 431.18ZM161.447 423.605V424.895H160.817C160.147 424.895 159.617 425.09 159.227 425.48C158.847 425.86 158.657 426.405 158.657 427.115V431H157.247V423.68H158.567L158.687 425.15H158.552C158.652 424.67 158.892 424.28 159.272 423.98C159.652 423.67 160.127 423.515 160.697 423.515C160.827 423.515 160.947 423.525 161.057 423.545C161.177 423.555 161.307 423.575 161.447 423.605ZM162.095 428.87H163.445C163.445 429.24 163.58 429.535 163.85 429.755C164.12 429.965 164.485 430.07 164.945 430.07C165.445 430.07 165.83 429.975 166.1 429.785C166.37 429.585 166.505 429.32 166.505 428.99C166.505 428.75 166.43 428.55 166.28 428.39C166.14 428.23 165.88 428.1 165.5 428L164.21 427.7C163.56 427.54 163.075 427.295 162.755 426.965C162.445 426.635 162.29 426.2 162.29 425.66C162.29 425.21 162.405 424.82 162.635 424.49C162.875 424.16 163.2 423.905 163.61 423.725C164.03 423.545 164.51 423.455 165.05 423.455C165.59 423.455 166.055 423.55 166.445 423.74C166.845 423.93 167.155 424.195 167.375 424.535C167.605 424.875 167.725 425.28 167.735 425.75H166.385C166.375 425.37 166.25 425.075 166.01 424.865C165.77 424.655 165.435 424.55 165.005 424.55C164.565 424.55 164.225 424.645 163.985 424.835C163.745 425.025 163.625 425.285 163.625 425.615C163.625 426.105 163.985 426.44 164.705 426.62L165.995 426.935C166.615 427.075 167.08 427.305 167.39 427.625C167.7 427.935 167.855 428.36 167.855 428.9C167.855 429.36 167.73 429.765 167.48 430.115C167.23 430.455 166.885 430.72 166.445 430.91C166.015 431.09 165.505 431.18 164.915 431.18C164.055 431.18 163.37 430.97 162.86 430.55C162.35 430.13 162.095 429.57 162.095 428.87Z" fill="#0D0D0D"/>
<path d="M4.95 389.83V400H3.48V389.83H4.95ZM0.21 390.505V389.155H8.205V390.505H0.21ZM9.36785 400V392.665H10.7779V400H9.36785ZM10.0579 390.925C9.80785 390.925 9.58785 390.835 9.39785 390.655C9.21785 390.465 9.12785 390.245 9.12785 389.995C9.12785 389.735 9.21785 389.515 9.39785 389.335C9.58785 389.155 9.80785 389.065 10.0579 389.065C10.3179 389.065 10.5379 389.155 10.7179 389.335C10.8979 389.515 10.9879 389.735 10.9879 389.995C10.9879 390.245 10.8979 390.465 10.7179 390.655C10.5379 390.835 10.3179 390.925 10.0579 390.925ZM14.1599 400H12.7499V392.665H14.0099L14.2049 394.015L14.0249 393.895C14.1749 393.485 14.4499 393.145 14.8499 392.875C15.2599 392.595 15.7549 392.455 16.3349 392.455C16.9849 392.455 17.5249 392.63 17.9549 392.98C18.3849 393.33 18.6649 393.795 18.7949 394.375H18.5399C18.6399 393.795 18.9149 393.33 19.3649 392.98C19.8149 392.63 20.3699 392.455 21.0299 392.455C21.8699 392.455 22.5299 392.7 23.0099 393.19C23.4899 393.68 23.7299 394.35 23.7299 395.2V400H22.3499V395.545C22.3499 394.965 22.1999 394.52 21.8999 394.21C21.6099 393.89 21.2149 393.73 20.7149 393.73C20.3649 393.73 20.0549 393.81 19.7849 393.97C19.5249 394.12 19.3199 394.34 19.1699 394.63C19.0199 394.92 18.9449 395.26 18.9449 395.65V400H17.5499V395.53C17.5499 394.95 17.4049 394.51 17.1149 394.21C16.8249 393.9 16.4299 393.745 15.9299 393.745C15.5799 393.745 15.2699 393.825 14.9999 393.985C14.7399 394.135 14.5349 394.355 14.3849 394.645C14.2349 394.925 14.1599 395.26 14.1599 395.65V400ZM28.7745 400.18C28.0645 400.18 27.4345 400.02 26.8845 399.7C26.3345 399.37 25.9045 398.92 25.5945 398.35C25.2845 397.77 25.1295 397.1 25.1295 396.34C25.1295 395.57 25.2795 394.895 25.5795 394.315C25.8895 393.735 26.3095 393.28 26.8395 392.95C27.3795 392.62 28.0045 392.455 28.7145 392.455C29.4145 392.455 30.0195 392.605 30.5295 392.905C31.0495 393.205 31.4495 393.625 31.7295 394.165C32.0195 394.705 32.1645 395.34 32.1645 396.07V396.595L25.8795 396.61L25.9095 395.665H30.7545C30.7545 395.055 30.5695 394.565 30.1995 394.195C29.8295 393.825 29.3345 393.64 28.7145 393.64C28.2445 393.64 27.8395 393.745 27.4995 393.955C27.1695 394.155 26.9145 394.455 26.7345 394.855C26.5645 395.245 26.4795 395.715 26.4795 396.265C26.4795 397.145 26.6795 397.825 27.0795 398.305C27.4795 398.775 28.0545 399.01 28.8045 399.01C29.3545 399.01 29.8045 398.9 30.1545 398.68C30.5045 398.46 30.7395 398.14 30.8595 397.72H32.1795C31.9995 398.5 31.6145 399.105 31.0245 399.535C30.4345 399.965 29.6845 400.18 28.7745 400.18Z" fill="#0D0D0D"/>
<rect x="129.499" y="291.5" width="11" height="11" rx="5.5" stroke="#0D0D0D"/>
<rect x="234.499" y="248.5" width="11" height="11" rx="5.5" stroke="#0D0D0D"/>
<circle cx="239.999" cy="254" r="3.5" fill="#0D0D0D"/>
<rect x="339.498" y="189.5" width="11" height="11" rx="5.5" stroke="#0D0D0D"/>
<circle cx="344.998" cy="195" r="3.5" fill="#0D0D0D"/>
<rect x="444.498" y="147.5" width="11" height="11" rx="5.5" stroke="#0D0D0D"/>
<circle cx="449.998" cy="153" r="3.5" fill="#0D0D0D"/>
<rect x="549.498" y="154.5" width="11" height="11" rx="5.5" stroke="#0D0D0D"/>
<circle cx="554.998" cy="160" r="3.5" fill="#0D0D0D"/>
<rect x="655.497" y="162.5" width="11" height="11" rx="5.5" stroke="#0D0D0D"/>
<circle cx="660.997" cy="168" r="3.5" fill="#0D0D0D"/>
<rect x="760.496" y="205.5" width="11" height="11" rx="5.5" stroke="#0D0D0D"/>
<circle cx="765.996" cy="211" r="3.5" fill="#0D0D0D"/>
<rect x="865.496" y="218.5" width="11" height="11" rx="5.5" stroke="#0D0D0D"/>
<circle cx="870.996" cy="224" r="3.5" fill="#0D0D0D"/>
<rect x="970.496" y="186.5" width="11" height="11" rx="5.5" stroke="#0D0D0D"/>
<circle cx="975.996" cy="192" r="3.5" fill="#0D0D0D"/>
<rect x="1075.5" y="142.5" width="11" height="11" rx="5.5" stroke="#0D0D0D"/>
<circle cx="1081" cy="148" r="3.5" fill="#0D0D0D"/>
<rect x="1180.5" y="128.5" width="11" height="11" rx="5.5" stroke="#0D0D0D"/>
<circle cx="1186" cy="134" r="3.5" fill="#0D0D0D"/>
<path d="M125.485 304.31C125.689 304.574 125.901 304.832 126.126 305.078L43.3213 374.383L42.6797 373.616L125.485 304.31ZM228.712 258.081C228.826 258.396 228.955 258.704 229.094 259.006L146.286 292.917C146.172 292.602 146.043 292.295 145.904 291.993L228.712 258.081ZM334.302 200.437C334.454 200.735 334.616 201.026 334.791 201.31L250.695 248.562C250.544 248.265 250.381 247.973 250.206 247.69L334.302 200.437ZM859.157 222.03C859.103 222.357 859.063 222.688 859.036 223.022L777.836 212.969C777.89 212.642 777.931 212.311 777.958 211.976L859.157 222.03ZM964.379 195.017C964.463 195.341 964.563 195.659 964.673 195.973L882.613 220.981C882.529 220.657 882.429 220.339 882.319 220.025L964.379 195.017ZM755.092 205.993C754.953 206.295 754.824 206.602 754.71 206.917L671.903 173.005C672.042 172.703 672.17 172.396 672.284 172.081L755.092 205.993ZM438.68 156.988C438.791 157.304 438.916 157.613 439.052 157.916L356.316 191.011C356.205 190.695 356.081 190.386 355.944 190.083L438.68 156.988ZM1069.74 152.173C1069.86 152.487 1069.99 152.794 1070.13 153.095L987.249 187.825C987.133 187.511 987.003 187.204 986.861 186.903L1069.74 152.173ZM649.079 166.598C649.041 166.926 649.015 167.259 649.004 167.595L566.916 161.4C566.954 161.072 566.979 160.739 566.99 160.402L649.079 166.598ZM543.068 158.703C543.033 159.032 543.009 159.364 543.001 159.7L461.929 154.295C461.964 153.966 461.986 153.634 461.994 153.298L543.068 158.703ZM1174.04 135.089C1174.07 135.423 1174.12 135.753 1174.17 136.079L1092.95 146.91C1092.92 146.576 1092.87 146.245 1092.82 145.919L1174.04 135.089Z" fill="#0D0D0D"/>
<path d="M1278 142.502L1277.9 143.497L1274.07 143.122L1274.17 142.127L1278 142.502ZM1266.51 141.377L1266.41 142.372L1258.75 141.622L1258.84 140.627L1266.51 141.377ZM1251.18 139.877L1251.08 140.872L1243.42 140.122L1243.52 139.127L1251.18 139.877ZM1235.86 138.377L1235.76 139.372L1228.1 138.622L1228.19 137.627L1235.86 138.377ZM1220.53 136.877L1220.43 137.872L1212.77 137.122L1212.87 136.127L1220.53 136.877ZM1205.21 135.377L1205.11 136.372L1197.88 135.664C1197.92 135.336 1197.96 135.005 1197.97 134.669L1205.21 135.377Z" fill="#0D0D0D"/>
</g>
<defs>
<clipPath id="clip0_6624_23338">
<rect width="1278" height="432" fill="white"/>
</clipPath>
</defs>
</svg>
