<svg width="1536" height="760" viewBox="0 0 1536 760" fill="none" xmlns="http://www.w3.org/2000/svg">
<g clip-path="url(#clip0_4638_119375)">
<path d="M341.038 187V170.2H343.438V184.744H351.334V187H341.038ZM353.665 187V170.2H356.065V184.744H363.961V187H353.665ZM372.521 187.336C368.057 187.336 364.985 184.408 364.985 178.624C364.985 172.84 367.937 169.864 372.569 169.864C376.217 169.864 378.713 171.976 379.217 175.576H376.697C376.337 173.368 374.681 172.096 372.569 172.096C369.497 172.096 367.457 174.088 367.457 178.576C367.457 183.016 369.593 185.104 372.521 185.104C374.849 185.104 376.313 183.544 376.697 181.384H379.193C378.617 184.864 376.313 187.336 372.521 187.336ZM388.031 187V170.2H395.231C398.735 170.2 400.799 172.024 400.799 175.024C400.799 177.904 398.927 179.704 395.735 179.872L401.279 187H398.279L392.759 179.848H390.431V187H388.031ZM390.431 177.664H395.231C397.223 177.664 398.351 176.704 398.351 175.024C398.351 173.392 397.223 172.456 395.231 172.456H390.431V177.664ZM408.104 187.336C404.648 187.336 402.344 184.912 402.344 181.168C402.344 177.448 404.648 175.12 407.936 175.12C411.368 175.12 413.48 177.352 413.48 180.88C413.48 181.192 413.456 181.504 413.408 181.984H404.648C404.744 184.096 406.04 185.368 408.104 185.368C409.472 185.368 410.432 184.744 410.888 183.712H413.264C412.544 185.944 410.768 187.336 408.104 187.336ZM404.648 180.16H411.128V180.04C411.128 178.264 409.976 176.992 407.936 176.992C405.992 176.992 404.744 178.288 404.648 180.16ZM418.516 191.32C415.948 191.32 414.796 190.12 414.796 188.44C414.796 187.456 415.324 186.568 416.308 186.088C415.66 185.656 415.252 184.96 415.252 184.216C415.252 183.184 415.9 182.344 417.244 182.008C416.164 181.288 415.708 180.16 415.708 179.08C415.708 176.824 417.436 175.12 420.316 175.12C422.164 175.12 423.652 176.056 424.132 177.256V176.896C424.132 175.744 424.756 175.456 425.572 175.456H427.276V177.496H425.428C425.068 177.496 424.924 177.64 424.924 178V179.224C424.924 181.624 423.052 183.184 420.436 183.184H418.444C417.772 183.184 417.316 183.496 417.316 184.12C417.316 184.744 417.844 185.056 418.444 185.056H422.644C424.852 185.056 426.268 186.112 426.268 188.008C426.268 189.904 425.14 191.32 422.5 191.32H418.516ZM417.028 188.224C417.028 188.968 417.508 189.544 418.78 189.544H422.356C423.268 189.544 424.036 189.112 424.036 188.08C424.036 187.288 423.412 186.832 422.476 186.832H418.852C417.556 186.832 417.028 187.48 417.028 188.224ZM417.94 179.152C417.94 180.496 418.828 181.36 420.316 181.36C421.828 181.36 422.692 180.496 422.692 179.152C422.692 177.808 421.804 176.944 420.316 176.944C418.804 176.944 417.94 177.808 417.94 179.152ZM429.211 187V175.456H431.539V187H429.211ZM429.067 173.128V170.368H431.659V173.128H429.067ZM439.049 187.336C435.929 187.336 434.081 186.088 433.961 183.712H436.361C436.481 184.864 437.417 185.44 439.097 185.44C440.633 185.44 441.569 184.792 441.569 183.736C441.569 182.872 440.921 182.368 439.721 182.248L437.873 182.056C435.713 181.84 434.345 180.64 434.345 178.72C434.345 176.512 436.193 175.12 439.025 175.12C441.905 175.12 443.681 176.32 443.825 178.672H441.497C441.425 177.568 440.513 177.016 439.001 177.016C437.561 177.016 436.649 177.616 436.649 178.6C436.649 179.44 437.273 179.896 438.617 180.064L440.489 180.28C442.673 180.52 443.921 181.744 443.921 183.64C443.921 185.896 442.025 187.336 439.049 187.336ZM450.65 187C448.658 187 447.794 186.208 447.794 184.216V177.496H444.77V175.456H447.794V172H450.122V175.456H453.746V177.496H450.122V183.76C450.122 184.6 450.458 184.96 451.346 184.96H453.746V187H450.65ZM455.983 187V175.456H458.047V177.328C458.335 176.176 459.199 175.456 460.567 175.456H462.775V177.496H460.351C458.911 177.496 458.311 178.312 458.311 179.872V187H455.983ZM467.657 187.336C464.993 187.336 463.313 185.944 463.313 183.736C463.313 181.672 464.705 180.184 467.537 180.016L471.041 179.824V179.176C471.041 177.664 470.297 177.04 468.713 177.04C467.177 177.04 466.409 177.448 466.217 178.672H463.889C464.153 176.296 465.785 175.12 468.881 175.12C471.641 175.12 473.249 176.512 473.249 179.056V184.696C473.249 184.96 473.369 185.08 473.633 185.08H474.617V187H472.745C471.953 187 471.497 186.568 471.497 185.8V185.464C470.825 186.64 469.457 187.336 467.657 187.336ZM465.641 183.664C465.641 184.72 466.505 185.416 467.921 185.416C469.793 185.416 471.041 184.336 471.041 182.368V181.624L467.825 181.864C466.337 181.96 465.641 182.728 465.641 183.664ZM480.797 187C478.805 187 477.941 186.208 477.941 184.216V177.496H474.917V175.456H477.941V172H480.269V175.456H483.893V177.496H480.269V183.76C480.269 184.6 480.605 184.96 481.493 184.96H483.893V187H480.797ZM486.13 187V175.456H488.458V187H486.13ZM485.986 173.128V170.368H488.578V173.128H485.986ZM497.05 187.336C493.546 187.336 491.098 184.888 491.098 181.216C491.098 177.568 493.546 175.12 497.05 175.12C500.578 175.12 503.002 177.568 503.002 181.216C503.002 184.888 500.578 187.336 497.05 187.336ZM493.498 181.216C493.498 183.616 494.938 185.224 497.05 185.224C499.186 185.224 500.602 183.616 500.602 181.216C500.602 178.84 499.186 177.232 497.05 177.232C494.938 177.232 493.498 178.84 493.498 181.216ZM505.666 187V175.456H507.73V176.968C508.426 175.72 509.818 175.12 511.378 175.12C514.21 175.12 515.986 176.848 515.986 180.04V187H513.658V180.256C513.658 178.192 512.65 177.232 510.946 177.232C509.17 177.232 507.994 178.456 507.994 180.328V187H505.666Z" fill="#0D0D0D"/>
<path d="M1030.88 187V170.2H1033.28V187H1030.88ZM1037.39 187V170.2H1047.76V172.456H1039.79V177.04H1047.76V179.296H1039.79V184.744H1047.76V187H1037.39ZM1057.19 187V170.2H1064.39C1067.89 170.2 1069.95 172.024 1069.95 175.024C1069.95 177.904 1068.08 179.704 1064.89 179.872L1070.43 187H1067.43L1061.91 179.848H1059.59V187H1057.19ZM1059.59 177.664H1064.39C1066.38 177.664 1067.51 176.704 1067.51 175.024C1067.51 173.392 1066.38 172.456 1064.39 172.456H1059.59V177.664ZM1077.26 187.336C1073.8 187.336 1071.5 184.912 1071.5 181.168C1071.5 177.448 1073.8 175.12 1077.09 175.12C1080.52 175.12 1082.64 177.352 1082.64 180.88C1082.64 181.192 1082.61 181.504 1082.56 181.984H1073.8C1073.9 184.096 1075.2 185.368 1077.26 185.368C1078.63 185.368 1079.59 184.744 1080.04 183.712H1082.42C1081.7 185.944 1079.92 187.336 1077.26 187.336ZM1073.8 180.16H1080.28V180.04C1080.28 178.264 1079.13 176.992 1077.09 176.992C1075.15 176.992 1073.9 178.288 1073.8 180.16ZM1087.67 191.32C1085.1 191.32 1083.95 190.12 1083.95 188.44C1083.95 187.456 1084.48 186.568 1085.46 186.088C1084.82 185.656 1084.41 184.96 1084.41 184.216C1084.41 183.184 1085.06 182.344 1086.4 182.008C1085.32 181.288 1084.86 180.16 1084.86 179.08C1084.86 176.824 1086.59 175.12 1089.47 175.12C1091.32 175.12 1092.81 176.056 1093.29 177.256V176.896C1093.29 175.744 1093.91 175.456 1094.73 175.456H1096.43V177.496H1094.58C1094.22 177.496 1094.08 177.64 1094.08 178V179.224C1094.08 181.624 1092.21 183.184 1089.59 183.184H1087.6C1086.93 183.184 1086.47 183.496 1086.47 184.12C1086.47 184.744 1087 185.056 1087.6 185.056H1091.8C1094.01 185.056 1095.42 186.112 1095.42 188.008C1095.42 189.904 1094.3 191.32 1091.66 191.32H1087.67ZM1086.18 188.224C1086.18 188.968 1086.66 189.544 1087.94 189.544H1091.51C1092.42 189.544 1093.19 189.112 1093.19 188.08C1093.19 187.288 1092.57 186.832 1091.63 186.832H1088.01C1086.71 186.832 1086.18 187.48 1086.18 188.224ZM1087.1 179.152C1087.1 180.496 1087.98 181.36 1089.47 181.36C1090.98 181.36 1091.85 180.496 1091.85 179.152C1091.85 177.808 1090.96 176.944 1089.47 176.944C1087.96 176.944 1087.1 177.808 1087.1 179.152ZM1098.37 187V175.456H1100.69V187H1098.37ZM1098.22 173.128V170.368H1100.81V173.128H1098.22ZM1108.2 187.336C1105.08 187.336 1103.24 186.088 1103.12 183.712H1105.52C1105.64 184.864 1106.57 185.44 1108.25 185.44C1109.79 185.44 1110.72 184.792 1110.72 183.736C1110.72 182.872 1110.08 182.368 1108.88 182.248L1107.03 182.056C1104.87 181.84 1103.5 180.64 1103.5 178.72C1103.5 176.512 1105.35 175.12 1108.18 175.12C1111.06 175.12 1112.84 176.32 1112.98 178.672H1110.65C1110.58 177.568 1109.67 177.016 1108.16 177.016C1106.72 177.016 1105.8 177.616 1105.8 178.6C1105.8 179.44 1106.43 179.896 1107.77 180.064L1109.64 180.28C1111.83 180.52 1113.08 181.744 1113.08 183.64C1113.08 185.896 1111.18 187.336 1108.2 187.336ZM1119.8 187C1117.81 187 1116.95 186.208 1116.95 184.216V177.496H1113.92V175.456H1116.95V172H1119.28V175.456H1122.9V177.496H1119.28V183.76C1119.28 184.6 1119.61 184.96 1120.5 184.96H1122.9V187H1119.8ZM1125.14 187V175.456H1127.2V177.328C1127.49 176.176 1128.35 175.456 1129.72 175.456H1131.93V177.496H1129.51C1128.07 177.496 1127.47 178.312 1127.47 179.872V187H1125.14ZM1136.81 187.336C1134.15 187.336 1132.47 185.944 1132.47 183.736C1132.47 181.672 1133.86 180.184 1136.69 180.016L1140.2 179.824V179.176C1140.2 177.664 1139.45 177.04 1137.87 177.04C1136.33 177.04 1135.56 177.448 1135.37 178.672H1133.04C1133.31 176.296 1134.94 175.12 1138.04 175.12C1140.8 175.12 1142.4 176.512 1142.4 179.056V184.696C1142.4 184.96 1142.52 185.08 1142.79 185.08H1143.77V187H1141.9C1141.11 187 1140.65 186.568 1140.65 185.8V185.464C1139.98 186.64 1138.61 187.336 1136.81 187.336ZM1134.8 183.664C1134.8 184.72 1135.66 185.416 1137.08 185.416C1138.95 185.416 1140.2 184.336 1140.2 182.368V181.624L1136.98 181.864C1135.49 181.96 1134.8 182.728 1134.8 183.664ZM1149.95 187C1147.96 187 1147.1 186.208 1147.1 184.216V177.496H1144.07V175.456H1147.1V172H1149.42V175.456H1153.05V177.496H1149.42V183.76C1149.42 184.6 1149.76 184.96 1150.65 184.96H1153.05V187H1149.95ZM1155.29 187V175.456H1157.61V187H1155.29ZM1155.14 173.128V170.368H1157.73V173.128H1155.14ZM1166.21 187.336C1162.7 187.336 1160.25 184.888 1160.25 181.216C1160.25 177.568 1162.7 175.12 1166.21 175.12C1169.73 175.12 1172.16 177.568 1172.16 181.216C1172.16 184.888 1169.73 187.336 1166.21 187.336ZM1162.65 181.216C1162.65 183.616 1164.09 185.224 1166.21 185.224C1168.34 185.224 1169.76 183.616 1169.76 181.216C1169.76 178.84 1168.34 177.232 1166.21 177.232C1164.09 177.232 1162.65 178.84 1162.65 181.216ZM1174.82 187V175.456H1176.88V176.968C1177.58 175.72 1178.97 175.12 1180.53 175.12C1183.36 175.12 1185.14 176.848 1185.14 180.04V187H1182.81V180.256C1182.81 178.192 1181.8 177.232 1180.1 177.232C1178.32 177.232 1177.15 178.456 1177.15 180.328V187H1174.82Z" fill="#0D0D0D"/>
<rect x="129.5" y="494.5" width="128.625" height="24" rx="12" fill="#CECCC9"/>
<rect x="129.5" y="494.5" width="128.625" height="24" rx="12" stroke="#BFBDBA"/>
<path d="M162.921 480.792C162.153 480.451 161.513 480.227 161.001 480.12C160.51 479.992 160.03 479.928 159.561 479.928C158.963 479.928 158.334 480.109 157.673 480.472C157.011 480.835 156.425 481.283 155.913 481.816V479.32C156.425 478.765 157.001 478.349 157.641 478.072C158.281 477.773 158.985 477.624 159.753 477.624C160.371 477.624 160.979 477.688 161.577 477.816C162.195 477.944 162.995 478.221 163.977 478.648C164.745 478.989 165.374 479.224 165.865 479.352C166.377 479.459 166.857 479.512 167.305 479.512C167.923 479.512 168.563 479.331 169.225 478.968C169.886 478.605 170.473 478.157 170.985 477.624V480.088C170.473 480.643 169.897 481.069 169.257 481.368C168.617 481.667 167.913 481.816 167.145 481.816C166.547 481.816 165.929 481.752 165.289 481.624C164.67 481.475 163.881 481.197 162.921 480.792ZM173.393 491V488.088H179.249V471.576H175.185V468.6H182.353V488.088H188.113V491H173.393ZM191.512 491V486.616H195.352V491H191.512ZM199.197 491V488.088H206.237C209.437 488.088 211.293 486.584 211.293 484.088C211.293 481.784 209.501 480.344 206.397 480.344H203.037V477.752L209.533 471.512H198.877V468.6H213.629V471.512L206.877 477.816H207.293C211.709 477.816 214.525 480.312 214.525 484.056C214.525 488.248 211.197 491 206.237 491H199.197ZM228.356 491L223.108 484.088H221.476V491H218.372V468.6H221.476V481.208H223.108L228.292 475.608H232.1L225.828 482.584L232.1 491H228.356Z" fill="#0D0D0D"/>
<rect x="278.625" y="419" width="129.625" height="100" rx="16" fill="#0D0D0D"/>
<path d="M312.546 480.792C311.778 480.451 311.138 480.227 310.626 480.12C310.135 479.992 309.655 479.928 309.186 479.928C308.588 479.928 307.959 480.109 307.298 480.472C306.636 480.835 306.05 481.283 305.538 481.816V479.32C306.05 478.765 306.626 478.349 307.266 478.072C307.906 477.773 308.61 477.624 309.378 477.624C309.996 477.624 310.604 477.688 311.202 477.816C311.82 477.944 312.62 478.221 313.602 478.648C314.37 478.989 314.999 479.224 315.49 479.352C316.002 479.459 316.482 479.512 316.93 479.512C317.548 479.512 318.188 479.331 318.85 478.968C319.511 478.605 320.098 478.157 320.61 477.624V480.088C320.098 480.643 319.522 481.069 318.882 481.368C318.242 481.667 317.538 481.816 316.77 481.816C316.172 481.816 315.554 481.752 314.914 481.624C314.295 481.475 313.506 481.197 312.546 480.792ZM323.53 491V488.088H330.57C333.322 488.088 335.21 486.424 335.21 483.96C335.21 481.528 333.482 479.864 330.57 479.864H324.074V468.6H337.45V471.512H327.178V477.048H330.922C335.466 477.048 338.442 479.768 338.442 483.832C338.442 488.088 335.306 491 330.57 491H323.53ZM341.669 491V486.616H345.509V491H341.669ZM349.353 491V488.088H356.393C359.593 488.088 361.449 486.584 361.449 484.088C361.449 481.784 359.657 480.344 356.553 480.344H353.193V477.752L359.689 471.512H349.033V468.6H363.785V471.512L357.033 477.816H357.449C361.865 477.816 364.681 480.312 364.681 484.056C364.681 488.248 361.353 491 356.393 491H349.353ZM378.513 491L373.265 484.088H371.633V491H368.529V468.6H371.633V481.208H373.265L378.449 475.608H382.257L375.985 482.584L382.257 491H378.513Z" fill="white"/>
<path d="M208.691 561.28C204.971 561.28 202.411 558.84 202.411 554.02C202.411 549.2 204.871 546.72 208.731 546.72C211.771 546.72 213.851 548.48 214.271 551.48H212.171C211.871 549.64 210.491 548.58 208.731 548.58C206.171 548.58 204.471 550.24 204.471 553.98C204.471 557.68 206.251 559.42 208.691 559.42C210.631 559.42 211.851 558.12 212.171 556.32H214.251C213.771 559.22 211.851 561.28 208.691 561.28ZM220.68 561.28C217.76 561.28 215.72 559.24 215.72 556.18C215.72 553.14 217.76 551.1 220.68 551.1C223.62 551.1 225.64 553.14 225.64 556.18C225.64 559.24 223.62 561.28 220.68 561.28ZM217.72 556.18C217.72 558.18 218.92 559.52 220.68 559.52C222.46 559.52 223.64 558.18 223.64 556.18C223.64 554.2 222.46 552.86 220.68 552.86C218.92 552.86 217.72 554.2 217.72 556.18ZM227.86 561V551.38H229.58V552.56C230.14 551.56 231.02 551.1 232.2 551.1C233.52 551.1 234.5 551.74 234.96 552.82C235.58 551.66 236.58 551.1 237.84 551.1C240.06 551.1 241.28 552.44 241.28 554.84V561H239.36V554.94C239.36 553.6 238.72 552.86 237.5 552.86C236.36 552.86 235.54 553.74 235.54 555V561H233.6V554.94C233.6 553.6 232.96 552.86 231.78 552.86C230.62 552.86 229.8 553.74 229.8 555V561H227.86ZM243.988 564.6V551.38H245.708V552.74C246.328 551.7 247.548 551.1 249.048 551.1C251.788 551.1 253.668 553.14 253.668 556.18C253.668 559.24 251.788 561.28 249.048 561.28C247.668 561.28 246.548 560.76 245.928 559.82V564.6H243.988ZM245.888 556.18C245.888 558.18 247.028 559.52 248.768 559.52C250.508 559.52 251.668 558.18 251.668 556.18C251.668 554.2 250.508 552.86 248.768 552.86C247.028 552.86 245.888 554.2 245.888 556.18ZM257.837 561C256.477 561 255.897 560.48 255.897 559.18V547H257.837V558.58C257.837 559.08 258.017 559.3 258.517 559.3H259.737V561H257.837ZM265.462 561.28C262.582 561.28 260.662 559.26 260.662 556.14C260.662 553.04 262.582 551.1 265.322 551.1C268.182 551.1 269.942 552.96 269.942 555.9C269.942 556.16 269.922 556.42 269.882 556.82H262.582C262.662 558.58 263.742 559.64 265.462 559.64C266.602 559.64 267.402 559.12 267.782 558.26H269.762C269.162 560.12 267.682 561.28 265.462 561.28ZM262.582 555.3H267.982V555.2C267.982 553.72 267.022 552.66 265.322 552.66C263.702 552.66 262.662 553.74 262.582 555.3ZM275.501 561C273.841 561 273.121 560.34 273.121 558.68V553.08H270.601V551.38H273.121V548.5H275.061V551.38H278.081V553.08H275.061V558.3C275.061 559 275.341 559.3 276.081 559.3H278.081V561H275.501ZM283.891 561.28C281.011 561.28 279.091 559.26 279.091 556.14C279.091 553.04 281.011 551.1 283.751 551.1C286.611 551.1 288.371 552.96 288.371 555.9C288.371 556.16 288.351 556.42 288.311 556.82H281.011C281.091 558.58 282.171 559.64 283.891 559.64C285.031 559.64 285.831 559.12 286.211 558.26H288.191C287.591 560.12 286.111 561.28 283.891 561.28ZM281.011 555.3H286.411V555.2C286.411 553.72 285.451 552.66 283.751 552.66C282.131 552.66 281.091 553.74 281.011 555.3ZM295.645 561V547H301.645C304.565 547 306.285 548.52 306.285 551.02C306.285 553.42 304.725 554.92 302.065 555.06L306.685 561H304.185L299.585 555.04H297.645V561H295.645ZM297.645 553.22H301.645C303.305 553.22 304.245 552.42 304.245 551.02C304.245 549.66 303.305 548.88 301.645 548.88H297.645V553.22ZM311.403 561.28C309.183 561.28 307.783 560.12 307.783 558.28C307.783 556.56 308.943 555.32 311.303 555.18L314.223 555.02V554.48C314.223 553.22 313.603 552.7 312.283 552.7C311.003 552.7 310.363 553.04 310.203 554.06H308.263C308.483 552.08 309.843 551.1 312.423 551.1C314.723 551.1 316.063 552.26 316.063 554.38V559.08C316.063 559.3 316.163 559.4 316.383 559.4H317.203V561H315.643C314.983 561 314.603 560.64 314.603 560V559.72C314.043 560.7 312.903 561.28 311.403 561.28ZM309.723 558.22C309.723 559.1 310.443 559.68 311.623 559.68C313.183 559.68 314.223 558.78 314.223 557.14V556.52L311.543 556.72C310.303 556.8 309.723 557.44 309.723 558.22ZM322.353 561C320.693 561 319.973 560.34 319.973 558.68V553.08H317.453V551.38H319.973V548.5H321.913V551.38H324.933V553.08H321.913V558.3C321.913 559 322.193 559.3 322.933 559.3H324.933V561H322.353ZM330.742 561.28C327.862 561.28 325.942 559.26 325.942 556.14C325.942 553.04 327.862 551.1 330.602 551.1C333.462 551.1 335.222 552.96 335.222 555.9C335.222 556.16 335.202 556.42 335.162 556.82H327.862C327.942 558.58 329.022 559.64 330.742 559.64C331.882 559.64 332.682 559.12 333.062 558.26H335.042C334.442 560.12 332.962 561.28 330.742 561.28ZM327.862 555.3H333.262V555.2C333.262 553.72 332.302 552.66 330.602 552.66C328.982 552.66 327.942 553.74 327.862 555.3Z" fill="#0D0D0D"/>
<rect x="240.125" y="575.5" width="57" height="20" rx="10" stroke="#0B8900"/>
<path d="M250.654 584.568H253.44V585.562H250.654V588.446H249.646V585.562H246.86V584.568H249.646V581.67H250.654V584.568ZM254.76 590V588.726H257.84C259.24 588.726 260.052 588.068 260.052 586.976C260.052 585.968 259.268 585.338 257.91 585.338H256.44V584.204L259.282 581.474H254.62V580.2H261.074V581.474L258.12 584.232H258.302C260.234 584.232 261.466 585.324 261.466 586.962C261.466 588.796 260.01 590 257.84 590H254.76ZM263.084 590V588.082H264.764V590H263.084ZM269.731 580.004C271.929 580.004 273.469 581.502 273.469 584.526C273.469 587.886 272.167 590 268.877 590H267.001V588.726H268.877C271.145 588.726 271.971 587.578 272.083 585.422C271.649 586.108 270.753 586.598 269.521 586.598C267.547 586.598 266.161 585.226 266.161 583.336C266.161 581.418 267.617 580.004 269.731 580.004ZM267.575 583.294C267.575 584.512 268.485 585.352 269.773 585.352C271.061 585.352 271.957 584.526 271.957 583.294C271.957 582.076 271.061 581.236 269.773 581.236C268.485 581.236 267.575 582.076 267.575 583.294ZM274.425 590L277.043 586.528L274.565 583.266H276.217L277.925 585.59L279.619 583.266H281.271L278.793 586.528L281.411 590H279.759L277.925 587.536L276.077 590H274.425Z" fill="#0B8900"/>
<path fill-rule="evenodd" clip-rule="evenodd" d="M284.625 585.625L288.125 580L291.625 585.625H288.731V590H287.519V585.625H284.625Z" fill="#0B8900"/>
<rect x="448.75" y="462.5" width="128.625" height="56" rx="15.5" fill="#CECCC9"/>
<rect x="448.75" y="462.5" width="128.625" height="56" rx="15.5" stroke="#BFBDBA"/>
<path d="M495.171 480.792C494.403 480.451 493.763 480.227 493.251 480.12C492.76 479.992 492.28 479.928 491.811 479.928C491.213 479.928 490.584 480.109 489.923 480.472C489.261 480.835 488.675 481.283 488.163 481.816V479.32C488.675 478.765 489.251 478.349 489.891 478.072C490.531 477.773 491.235 477.624 492.003 477.624C492.621 477.624 493.229 477.688 493.827 477.816C494.445 477.944 495.245 478.221 496.227 478.648C496.995 478.989 497.624 479.224 498.115 479.352C498.627 479.459 499.107 479.512 499.555 479.512C500.173 479.512 500.813 479.331 501.475 478.968C502.136 478.605 502.723 478.157 503.235 477.624V480.088C502.723 480.643 502.147 481.069 501.507 481.368C500.867 481.667 500.163 481.816 499.395 481.816C498.797 481.816 498.179 481.752 497.539 481.624C496.92 481.475 496.131 481.197 495.171 480.792ZM505.899 491V488.088H512.939C516.139 488.088 517.995 486.584 517.995 484.088C517.995 481.784 516.203 480.344 513.099 480.344H509.739V477.752L516.235 471.512H505.579V468.6H520.331V471.512L513.579 477.816H513.995C518.411 477.816 521.227 480.312 521.227 484.056C521.227 488.248 517.899 491 512.939 491H505.899ZM535.059 491L529.811 484.088H528.179V491H525.075V468.6H528.179V481.208H529.811L534.995 475.608H538.803L532.531 482.584L538.803 491H535.059Z" fill="#0D0D0D"/>
<rect x="597.875" y="483" width="129.625" height="36" rx="16" fill="#0D0D0D"/>
<path d="M632.296 480.792C631.528 480.451 630.888 480.227 630.376 480.12C629.885 479.992 629.405 479.928 628.936 479.928C628.338 479.928 627.709 480.109 627.048 480.472C626.386 480.835 625.8 481.283 625.288 481.816V479.32C625.8 478.765 626.376 478.349 627.016 478.072C627.656 477.773 628.36 477.624 629.128 477.624C629.746 477.624 630.354 477.688 630.952 477.816C631.57 477.944 632.37 478.221 633.352 478.648C634.12 478.989 634.749 479.224 635.24 479.352C635.752 479.459 636.232 479.512 636.68 479.512C637.298 479.512 637.938 479.331 638.6 478.968C639.261 478.605 639.848 478.157 640.36 477.624V480.088C639.848 480.643 639.272 481.069 638.632 481.368C637.992 481.667 637.288 481.816 636.52 481.816C635.922 481.816 635.304 481.752 634.664 481.624C634.045 481.475 633.256 481.197 632.296 480.792ZM643.152 487.064C643.152 482.936 645.072 481.016 648.656 479.992L651.792 479.096C654.256 478.392 655.408 477.208 655.408 475.192C655.408 472.984 653.84 471.512 651.44 471.512H644.24V468.6H651.44C655.696 468.6 658.64 471.192 658.64 475.192C658.64 478.424 656.464 480.632 653.328 481.592L649.488 482.744C647.28 483.416 646.384 484.504 646.384 486.52V488.088H658.448V491H643.152V487.064ZM662.325 491V486.616H666.165V491H662.325ZM669.784 491V488.088H675.64V471.576H671.576V468.6H678.744V488.088H684.504V491H669.784ZM697.2 491L691.952 484.088H690.32V491H687.216V468.6H690.32V481.208H691.952L697.136 475.608H700.944L694.672 482.584L700.944 491H697.2Z" fill="white"/>
<path d="M515.567 561V547H517.567V561H515.567ZM520.557 561V551.38H522.277V552.64C522.857 551.6 524.017 551.1 525.317 551.1C527.677 551.1 529.157 552.54 529.157 555.2V561H527.217V555.38C527.217 553.66 526.377 552.86 524.957 552.86C523.477 552.86 522.497 553.88 522.497 555.44V561H520.557ZM535.96 561.28C533.08 561.28 531.22 559.14 531.22 556.22C531.22 553.22 533.18 551.1 536.08 551.1C538.52 551.1 540.18 552.52 540.4 554.54H538.42C538.24 553.64 537.44 552.86 536.06 552.86C534.34 552.86 533.22 554.16 533.22 556.18C533.22 558.24 534.36 559.52 536.02 559.52C537.32 559.52 538.26 558.76 538.46 557.64H540.44C540.18 559.56 538.58 561.28 535.96 561.28ZM546.664 561.28C543.744 561.28 541.704 559.24 541.704 556.18C541.704 553.14 543.744 551.1 546.664 551.1C549.604 551.1 551.624 553.14 551.624 556.18C551.624 559.24 549.604 561.28 546.664 561.28ZM543.704 556.18C543.704 558.18 544.904 559.52 546.664 559.52C548.444 559.52 549.624 558.18 549.624 556.18C549.624 554.2 548.444 552.86 546.664 552.86C544.904 552.86 543.704 554.2 543.704 556.18ZM553.844 561V551.38H555.564V552.56C556.124 551.56 557.004 551.1 558.184 551.1C559.504 551.1 560.484 551.74 560.944 552.82C561.564 551.66 562.564 551.1 563.824 551.1C566.044 551.1 567.264 552.44 567.264 554.84V561H565.344V554.94C565.344 553.6 564.704 552.86 563.484 552.86C562.344 552.86 561.524 553.74 561.524 555V561H559.584V554.94C559.584 553.6 558.944 552.86 557.764 552.86C556.604 552.86 555.784 553.74 555.784 555V561H553.844ZM569.972 564.6V551.38H571.692V552.74C572.312 551.7 573.532 551.1 575.032 551.1C577.772 551.1 579.652 553.14 579.652 556.18C579.652 559.24 577.772 561.28 575.032 561.28C573.652 561.28 572.532 560.76 571.912 559.82V564.6H569.972ZM571.872 556.18C571.872 558.18 573.012 559.52 574.752 559.52C576.492 559.52 577.652 558.18 577.652 556.18C577.652 554.2 576.492 552.86 574.752 552.86C573.012 552.86 571.872 554.2 571.872 556.18ZM583.821 561C582.461 561 581.881 560.48 581.881 559.18V547H583.821V558.58C583.821 559.08 584.001 559.3 584.501 559.3H585.721V561H583.821ZM591.446 561.28C588.566 561.28 586.646 559.26 586.646 556.14C586.646 553.04 588.566 551.1 591.306 551.1C594.166 551.1 595.926 552.96 595.926 555.9C595.926 556.16 595.906 556.42 595.866 556.82H588.566C588.646 558.58 589.726 559.64 591.446 559.64C592.586 559.64 593.386 559.12 593.766 558.26H595.746C595.146 560.12 593.666 561.28 591.446 561.28ZM588.566 555.3H593.966V555.2C593.966 553.72 593.006 552.66 591.306 552.66C589.686 552.66 588.646 553.74 588.566 555.3ZM601.485 561C599.825 561 599.105 560.34 599.105 558.68V553.08H596.585V551.38H599.105V548.5H601.045V551.38H604.065V553.08H601.045V558.3C601.045 559 601.325 559.3 602.065 559.3H604.065V561H601.485ZM609.874 561.28C606.994 561.28 605.074 559.26 605.074 556.14C605.074 553.04 606.994 551.1 609.734 551.1C612.594 551.1 614.354 552.96 614.354 555.9C614.354 556.16 614.334 556.42 614.294 556.82H606.994C607.074 558.58 608.154 559.64 609.874 559.64C611.014 559.64 611.814 559.12 612.194 558.26H614.174C613.574 560.12 612.094 561.28 609.874 561.28ZM606.994 555.3H612.394V555.2C612.394 553.72 611.434 552.66 609.734 552.66C608.114 552.66 607.074 553.74 606.994 555.3ZM621.629 561V547H627.629C630.549 547 632.269 548.52 632.269 551.02C632.269 553.42 630.709 554.92 628.049 555.06L632.669 561H630.169L625.569 555.04H623.629V561H621.629ZM623.629 553.22H627.629C629.289 553.22 630.229 552.42 630.229 551.02C630.229 549.66 629.289 548.88 627.629 548.88H623.629V553.22ZM637.387 561.28C635.167 561.28 633.767 560.12 633.767 558.28C633.767 556.56 634.927 555.32 637.287 555.18L640.207 555.02V554.48C640.207 553.22 639.587 552.7 638.267 552.7C636.987 552.7 636.347 553.04 636.187 554.06H634.247C634.467 552.08 635.827 551.1 638.407 551.1C640.707 551.1 642.047 552.26 642.047 554.38V559.08C642.047 559.3 642.147 559.4 642.367 559.4H643.187V561H641.627C640.967 561 640.587 560.64 640.587 560V559.72C640.027 560.7 638.887 561.28 637.387 561.28ZM635.707 558.22C635.707 559.1 636.427 559.68 637.607 559.68C639.167 559.68 640.207 558.78 640.207 557.14V556.52L637.527 556.72C636.287 556.8 635.707 557.44 635.707 558.22ZM648.337 561C646.677 561 645.957 560.34 645.957 558.68V553.08H643.437V551.38H645.957V548.5H647.897V551.38H650.917V553.08H647.897V558.3C647.897 559 648.177 559.3 648.917 559.3H650.917V561H648.337ZM656.726 561.28C653.846 561.28 651.926 559.26 651.926 556.14C651.926 553.04 653.846 551.1 656.586 551.1C659.446 551.1 661.206 552.96 661.206 555.9C661.206 556.16 661.186 556.42 661.146 556.82H653.846C653.926 558.58 655.006 559.64 656.726 559.64C657.866 559.64 658.666 559.12 659.046 558.26H661.026C660.426 560.12 658.946 561.28 656.726 561.28ZM653.846 555.3H659.246V555.2C659.246 553.72 658.286 552.66 656.586 552.66C654.966 552.66 653.926 553.74 653.846 555.3Z" fill="#0D0D0D"/>
<rect x="561.375" y="575.5" width="53" height="20" rx="10" stroke="#0B8900"/>
<path d="M568.186 587.004V585.702H572.442V587.004H568.186ZM572.937 590V588.726H575.499V581.502H573.721V580.2H576.857V588.726H579.377V590H572.937ZM581.004 590V588.082H582.684V590H581.004ZM584.536 590V588.726H587.616C588.82 588.726 589.646 587.998 589.646 586.92C589.646 585.856 588.89 585.128 587.616 585.128H584.774V580.2H590.626V581.474H586.132V583.896H587.77C589.758 583.896 591.06 585.086 591.06 586.864C591.06 588.726 589.688 590 587.616 590H584.536ZM591.675 590L594.293 586.528L591.815 583.266H593.467L595.175 585.59L596.869 583.266H598.521L596.043 586.528L598.661 590H597.009L595.175 587.536L593.327 590H591.675Z" fill="#0B8900"/>
<path fill-rule="evenodd" clip-rule="evenodd" d="M608.875 584.875L605.375 590.5L601.875 584.875H604.769V580.5H605.981V584.875H608.875Z" fill="#0B8900"/>
<rect x="767.5" y="255" width="1" height="264" rx="0.5" fill="#B5B2B0"/>
<rect x="809" y="472.5" width="128.625" height="46" rx="15.5" fill="#CECCC9"/>
<rect x="809" y="472.5" width="128.625" height="46" rx="15.5" stroke="#BFBDBA"/>
<path d="M841.921 480.792C841.153 480.451 840.513 480.227 840.001 480.12C839.51 479.992 839.03 479.928 838.561 479.928C837.963 479.928 837.334 480.109 836.673 480.472C836.011 480.835 835.425 481.283 834.913 481.816V479.32C835.425 478.765 836.001 478.349 836.641 478.072C837.281 477.773 837.985 477.624 838.753 477.624C839.371 477.624 839.979 477.688 840.577 477.816C841.195 477.944 841.995 478.221 842.977 478.648C843.745 478.989 844.374 479.224 844.865 479.352C845.377 479.459 845.857 479.512 846.305 479.512C846.923 479.512 847.563 479.331 848.225 478.968C848.886 478.605 849.473 478.157 849.985 477.624V480.088C849.473 480.643 848.897 481.069 848.257 481.368C847.617 481.667 846.913 481.816 846.145 481.816C845.547 481.816 844.929 481.752 844.289 481.624C843.67 481.475 842.881 481.197 841.921 480.792ZM852.777 487.064C852.777 482.936 854.697 481.016 858.281 479.992L861.417 479.096C863.881 478.392 865.033 477.208 865.033 475.192C865.033 472.984 863.465 471.512 861.065 471.512H853.865V468.6H861.065C865.321 468.6 868.265 471.192 868.265 475.192C868.265 478.424 866.089 480.632 862.953 481.592L859.113 482.744C856.905 483.416 856.009 484.504 856.009 486.52V488.088H868.073V491H852.777V487.064ZM871.95 491V486.616H875.79V491H871.95ZM879.703 491V488.088H886.743C889.495 488.088 891.383 486.424 891.383 483.96C891.383 481.528 889.655 479.864 886.743 479.864H880.247V468.6H893.623V471.512H883.351V477.048H887.095C891.639 477.048 894.615 479.768 894.615 483.832C894.615 488.088 891.479 491 886.743 491H879.703ZM908.138 491L902.89 484.088H901.258V491H898.154V468.6H901.258V481.208H902.89L908.074 475.608H911.882L905.61 482.584L911.882 491H908.138Z" fill="#0D0D0D"/>
<rect x="958.125" y="255" width="129.625" height="264" rx="16" fill="#0D0D0D"/>
<path d="M996.046 480.792C995.278 480.451 994.638 480.227 994.126 480.12C993.635 479.992 993.155 479.928 992.686 479.928C992.088 479.928 991.459 480.109 990.798 480.472C990.136 480.835 989.55 481.283 989.038 481.816V479.32C989.55 478.765 990.126 478.349 990.766 478.072C991.406 477.773 992.11 477.624 992.878 477.624C993.496 477.624 994.104 477.688 994.702 477.816C995.32 477.944 996.12 478.221 997.102 478.648C997.87 478.989 998.499 479.224 998.99 479.352C999.502 479.459 999.982 479.512 1000.43 479.512C1001.05 479.512 1001.69 479.331 1002.35 478.968C1003.01 478.605 1003.6 478.157 1004.11 477.624V480.088C1003.6 480.643 1003.02 481.069 1002.38 481.368C1001.74 481.667 1001.04 481.816 1000.27 481.816C999.672 481.816 999.054 481.752 998.414 481.624C997.795 481.475 997.006 481.197 996.046 480.792ZM1006.52 491V488.088H1012.37V471.576H1008.31V468.6H1015.48V488.088H1021.24V491H1006.52ZM1033.69 491V484.344H1021.69V481.528L1032.48 468.6H1036.8V481.528H1040.48V484.344H1036.8V491H1033.69ZM1025.15 481.528H1033.69V471.288L1025.15 481.528ZM1053.21 491L1047.96 484.088H1046.33V491H1043.22V468.6H1046.33V481.208H1047.96L1053.14 475.608H1056.95L1050.68 482.584L1056.95 491H1053.21Z" fill="white"/>
<path d="M888.191 561.28C884.471 561.28 881.911 558.84 881.911 554.02C881.911 549.2 884.371 546.72 888.231 546.72C891.271 546.72 893.351 548.48 893.771 551.48H891.671C891.371 549.64 889.991 548.58 888.231 548.58C885.671 548.58 883.971 550.24 883.971 553.98C883.971 557.68 885.751 559.42 888.191 559.42C890.131 559.42 891.351 558.12 891.671 556.32H893.751C893.271 559.22 891.351 561.28 888.191 561.28ZM900.18 561.28C897.26 561.28 895.22 559.24 895.22 556.18C895.22 553.14 897.26 551.1 900.18 551.1C903.12 551.1 905.14 553.14 905.14 556.18C905.14 559.24 903.12 561.28 900.18 561.28ZM897.22 556.18C897.22 558.18 898.42 559.52 900.18 559.52C901.96 559.52 903.14 558.18 903.14 556.18C903.14 554.2 901.96 552.86 900.18 552.86C898.42 552.86 897.22 554.2 897.22 556.18ZM907.36 561V551.38H909.08V552.56C909.64 551.56 910.52 551.1 911.7 551.1C913.02 551.1 914 551.74 914.46 552.82C915.08 551.66 916.08 551.1 917.34 551.1C919.56 551.1 920.78 552.44 920.78 554.84V561H918.86V554.94C918.86 553.6 918.22 552.86 917 552.86C915.86 552.86 915.04 553.74 915.04 555V561H913.1V554.94C913.1 553.6 912.46 552.86 911.28 552.86C910.12 552.86 909.3 553.74 909.3 555V561H907.36ZM923.488 564.6V551.38H925.208V552.74C925.828 551.7 927.048 551.1 928.548 551.1C931.288 551.1 933.168 553.14 933.168 556.18C933.168 559.24 931.288 561.28 928.548 561.28C927.168 561.28 926.048 560.76 925.428 559.82V564.6H923.488ZM925.388 556.18C925.388 558.18 926.528 559.52 928.268 559.52C930.008 559.52 931.168 558.18 931.168 556.18C931.168 554.2 930.008 552.86 928.268 552.86C926.528 552.86 925.388 554.2 925.388 556.18ZM937.337 561C935.977 561 935.397 560.48 935.397 559.18V547H937.337V558.58C937.337 559.08 937.517 559.3 938.017 559.3H939.237V561H937.337ZM944.962 561.28C942.082 561.28 940.162 559.26 940.162 556.14C940.162 553.04 942.082 551.1 944.822 551.1C947.682 551.1 949.442 552.96 949.442 555.9C949.442 556.16 949.422 556.42 949.382 556.82H942.082C942.162 558.58 943.242 559.64 944.962 559.64C946.102 559.64 946.902 559.12 947.282 558.26H949.262C948.662 560.12 947.182 561.28 944.962 561.28ZM942.082 555.3H947.482V555.2C947.482 553.72 946.522 552.66 944.822 552.66C943.202 552.66 942.162 553.74 942.082 555.3ZM955.001 561C953.341 561 952.621 560.34 952.621 558.68V553.08H950.101V551.38H952.621V548.5H954.561V551.38H957.581V553.08H954.561V558.3C954.561 559 954.841 559.3 955.581 559.3H957.581V561H955.001ZM963.391 561.28C960.511 561.28 958.591 559.26 958.591 556.14C958.591 553.04 960.511 551.1 963.251 551.1C966.111 551.1 967.871 552.96 967.871 555.9C967.871 556.16 967.851 556.42 967.811 556.82H960.511C960.591 558.58 961.671 559.64 963.391 559.64C964.531 559.64 965.331 559.12 965.711 558.26H967.691C967.091 560.12 965.611 561.28 963.391 561.28ZM960.511 555.3H965.911V555.2C965.911 553.72 964.951 552.66 963.251 552.66C961.631 552.66 960.591 553.74 960.511 555.3ZM975.145 561V547H981.145C984.065 547 985.785 548.52 985.785 551.02C985.785 553.42 984.225 554.92 981.565 555.06L986.185 561H983.685L979.085 555.04H977.145V561H975.145ZM977.145 553.22H981.145C982.805 553.22 983.745 552.42 983.745 551.02C983.745 549.66 982.805 548.88 981.145 548.88H977.145V553.22ZM990.903 561.28C988.683 561.28 987.283 560.12 987.283 558.28C987.283 556.56 988.443 555.32 990.803 555.18L993.723 555.02V554.48C993.723 553.22 993.103 552.7 991.783 552.7C990.503 552.7 989.863 553.04 989.703 554.06H987.763C987.983 552.08 989.343 551.1 991.923 551.1C994.223 551.1 995.563 552.26 995.563 554.38V559.08C995.563 559.3 995.663 559.4 995.883 559.4H996.703V561H995.143C994.483 561 994.103 560.64 994.103 560V559.72C993.543 560.7 992.403 561.28 990.903 561.28ZM989.223 558.22C989.223 559.1 989.943 559.68 991.123 559.68C992.683 559.68 993.723 558.78 993.723 557.14V556.52L991.043 556.72C989.803 556.8 989.223 557.44 989.223 558.22ZM1001.85 561C1000.19 561 999.473 560.34 999.473 558.68V553.08H996.953V551.38H999.473V548.5H1001.41V551.38H1004.43V553.08H1001.41V558.3C1001.41 559 1001.69 559.3 1002.43 559.3H1004.43V561H1001.85ZM1010.24 561.28C1007.36 561.28 1005.44 559.26 1005.44 556.14C1005.44 553.04 1007.36 551.1 1010.1 551.1C1012.96 551.1 1014.72 552.96 1014.72 555.9C1014.72 556.16 1014.7 556.42 1014.66 556.82H1007.36C1007.44 558.58 1008.52 559.64 1010.24 559.64C1011.38 559.64 1012.18 559.12 1012.56 558.26H1014.54C1013.94 560.12 1012.46 561.28 1010.24 561.28ZM1007.36 555.3H1012.76V555.2C1012.76 553.72 1011.8 552.66 1010.1 552.66C1008.48 552.66 1007.44 553.74 1007.36 555.3Z" fill="#0D0D0D"/>
<rect x="919.625" y="575.5" width="57" height="20" rx="10" stroke="#0B8900"/>
<path d="M930.359 584.568H933.145V585.562H930.359V588.446H929.351V585.562H926.565V584.568H929.351V581.67H930.359V584.568ZM934.577 590V588.726H937.657C938.861 588.726 939.687 587.998 939.687 586.92C939.687 585.856 938.931 585.128 937.657 585.128H934.815V580.2H940.667V581.474H936.173V583.896H937.811C939.799 583.896 941.101 585.086 941.101 586.864C941.101 588.726 939.729 590 937.657 590H934.577ZM942.653 590V588.082H944.333V590H942.653ZM949.746 590.196C947.548 590.196 946.008 588.698 946.008 585.674C946.008 582.314 947.31 580.2 950.6 580.2H952.476V581.474H950.6C948.332 581.474 947.506 582.622 947.394 584.778C947.828 584.092 948.724 583.602 949.956 583.602C951.93 583.602 953.316 584.974 953.316 586.864C953.316 588.782 951.86 590.196 949.746 590.196ZM947.52 586.906C947.52 588.124 948.416 588.964 949.704 588.964C950.992 588.964 951.902 588.124 951.902 586.906C951.902 585.688 950.992 584.848 949.704 584.848C948.416 584.848 947.52 585.674 947.52 586.906ZM953.925 590L956.543 586.528L954.065 583.266H955.717L957.425 585.59L959.119 583.266H960.771L958.293 586.528L960.911 590H959.259L957.425 587.536L955.577 590H953.925Z" fill="#0B8900"/>
<path fill-rule="evenodd" clip-rule="evenodd" d="M964.125 585.625L967.625 580L971.125 585.625H968.231V590H967.019V585.625H964.125Z" fill="#0B8900"/>
<rect x="1128.25" y="445.5" width="128.625" height="73" rx="15.5" fill="#CECCC9"/>
<rect x="1128.25" y="445.5" width="128.625" height="73" rx="15.5" stroke="#BFBDBA"/>
<path d="M1161.17 480.792C1160.4 480.451 1159.76 480.227 1159.25 480.12C1158.76 479.992 1158.28 479.928 1157.81 479.928C1157.21 479.928 1156.58 480.109 1155.92 480.472C1155.26 480.835 1154.67 481.283 1154.16 481.816V479.32C1154.67 478.765 1155.25 478.349 1155.89 478.072C1156.53 477.773 1157.23 477.624 1158 477.624C1158.62 477.624 1159.23 477.688 1159.83 477.816C1160.45 477.944 1161.25 478.221 1162.23 478.648C1162.99 478.989 1163.62 479.224 1164.11 479.352C1164.63 479.459 1165.11 479.512 1165.55 479.512C1166.17 479.512 1166.81 479.331 1167.47 478.968C1168.14 478.605 1168.72 478.157 1169.23 477.624V480.088C1168.72 480.643 1168.15 481.069 1167.51 481.368C1166.87 481.667 1166.16 481.816 1165.39 481.816C1164.8 481.816 1164.18 481.752 1163.54 481.624C1162.92 481.475 1162.13 481.197 1161.17 480.792ZM1183.42 491V484.344H1171.42V481.528L1182.2 468.6H1186.52V481.528H1190.2V484.344H1186.52V491H1183.42ZM1174.88 481.528H1183.42V471.288L1174.88 481.528ZM1192.64 491V486.616H1196.48V491H1192.64ZM1200.1 491V488.088H1205.95V471.576H1201.89V468.6H1209.06V488.088H1214.82V491H1200.1ZM1227.51 491L1222.26 484.088H1220.63V491H1217.53V468.6H1220.63V481.208H1222.26L1227.45 475.608H1231.26L1224.98 482.584L1231.26 491H1227.51Z" fill="#0D0D0D"/>
<rect x="1277.38" y="475" width="129.625" height="44" rx="16" fill="#0D0D0D"/>
<path d="M1310.8 480.792C1310.03 480.451 1309.39 480.227 1308.88 480.12C1308.38 479.992 1307.9 479.928 1307.44 479.928C1306.84 479.928 1306.21 480.109 1305.55 480.472C1304.89 480.835 1304.3 481.283 1303.79 481.816V479.32C1304.3 478.765 1304.88 478.349 1305.52 478.072C1306.16 477.773 1306.86 477.624 1307.63 477.624C1308.25 477.624 1308.85 477.688 1309.45 477.816C1310.07 477.944 1310.87 478.221 1311.85 478.648C1312.62 478.989 1313.25 479.224 1313.74 479.352C1314.25 479.459 1314.73 479.512 1315.18 479.512C1315.8 479.512 1316.44 479.331 1317.1 478.968C1317.76 478.605 1318.35 478.157 1318.86 477.624V480.088C1318.35 480.643 1317.77 481.069 1317.13 481.368C1316.49 481.667 1315.79 481.816 1315.02 481.816C1314.42 481.816 1313.8 481.752 1313.16 481.624C1312.54 481.475 1311.76 481.197 1310.8 480.792ZM1321.65 487.064C1321.65 482.936 1323.57 481.016 1327.16 479.992L1330.29 479.096C1332.76 478.392 1333.91 477.208 1333.91 475.192C1333.91 472.984 1332.34 471.512 1329.94 471.512H1322.74V468.6H1329.94C1334.2 468.6 1337.14 471.192 1337.14 475.192C1337.14 478.424 1334.96 480.632 1331.83 481.592L1327.99 482.744C1325.78 483.416 1324.88 484.504 1324.88 486.52V488.088H1336.95V491H1321.65V487.064ZM1340.82 491V486.616H1344.66V491H1340.82ZM1348.51 491V488.088H1355.55C1358.75 488.088 1360.61 486.584 1360.61 484.088C1360.61 481.784 1358.81 480.344 1355.71 480.344H1352.35V477.752L1358.85 471.512H1348.19V468.6H1362.94V471.512L1356.19 477.816H1356.61C1361.02 477.816 1363.84 480.312 1363.84 484.056C1363.84 488.248 1360.51 491 1355.55 491H1348.51ZM1377.67 491L1372.42 484.088H1370.79V491H1367.68V468.6H1370.79V481.208H1372.42L1377.6 475.608H1381.41L1375.14 482.584L1381.41 491H1377.67Z" fill="white"/>
<path d="M1195.07 561V547H1197.07V561H1195.07ZM1200.06 561V551.38H1201.78V552.64C1202.36 551.6 1203.52 551.1 1204.82 551.1C1207.18 551.1 1208.66 552.54 1208.66 555.2V561H1206.72V555.38C1206.72 553.66 1205.88 552.86 1204.46 552.86C1202.98 552.86 1202 553.88 1202 555.44V561H1200.06ZM1215.46 561.28C1212.58 561.28 1210.72 559.14 1210.72 556.22C1210.72 553.22 1212.68 551.1 1215.58 551.1C1218.02 551.1 1219.68 552.52 1219.9 554.54H1217.92C1217.74 553.64 1216.94 552.86 1215.56 552.86C1213.84 552.86 1212.72 554.16 1212.72 556.18C1212.72 558.24 1213.86 559.52 1215.52 559.52C1216.82 559.52 1217.76 558.76 1217.96 557.64H1219.94C1219.68 559.56 1218.08 561.28 1215.46 561.28ZM1226.16 561.28C1223.24 561.28 1221.2 559.24 1221.2 556.18C1221.2 553.14 1223.24 551.1 1226.16 551.1C1229.1 551.1 1231.12 553.14 1231.12 556.18C1231.12 559.24 1229.1 561.28 1226.16 561.28ZM1223.2 556.18C1223.2 558.18 1224.4 559.52 1226.16 559.52C1227.94 559.52 1229.12 558.18 1229.12 556.18C1229.12 554.2 1227.94 552.86 1226.16 552.86C1224.4 552.86 1223.2 554.2 1223.2 556.18ZM1233.34 561V551.38H1235.06V552.56C1235.62 551.56 1236.5 551.1 1237.68 551.1C1239 551.1 1239.98 551.74 1240.44 552.82C1241.06 551.66 1242.06 551.1 1243.32 551.1C1245.54 551.1 1246.76 552.44 1246.76 554.84V561H1244.84V554.94C1244.84 553.6 1244.2 552.86 1242.98 552.86C1241.84 552.86 1241.02 553.74 1241.02 555V561H1239.08V554.94C1239.08 553.6 1238.44 552.86 1237.26 552.86C1236.1 552.86 1235.28 553.74 1235.28 555V561H1233.34ZM1249.47 564.6V551.38H1251.19V552.74C1251.81 551.7 1253.03 551.1 1254.53 551.1C1257.27 551.1 1259.15 553.14 1259.15 556.18C1259.15 559.24 1257.27 561.28 1254.53 561.28C1253.15 561.28 1252.03 560.76 1251.41 559.82V564.6H1249.47ZM1251.37 556.18C1251.37 558.18 1252.51 559.52 1254.25 559.52C1255.99 559.52 1257.15 558.18 1257.15 556.18C1257.15 554.2 1255.99 552.86 1254.25 552.86C1252.51 552.86 1251.37 554.2 1251.37 556.18ZM1263.32 561C1261.96 561 1261.38 560.48 1261.38 559.18V547H1263.32V558.58C1263.32 559.08 1263.5 559.3 1264 559.3H1265.22V561H1263.32ZM1270.95 561.28C1268.07 561.28 1266.15 559.26 1266.15 556.14C1266.15 553.04 1268.07 551.1 1270.81 551.1C1273.67 551.1 1275.43 552.96 1275.43 555.9C1275.43 556.16 1275.41 556.42 1275.37 556.82H1268.07C1268.15 558.58 1269.23 559.64 1270.95 559.64C1272.09 559.64 1272.89 559.12 1273.27 558.26H1275.25C1274.65 560.12 1273.17 561.28 1270.95 561.28ZM1268.07 555.3H1273.47V555.2C1273.47 553.72 1272.51 552.66 1270.81 552.66C1269.19 552.66 1268.15 553.74 1268.07 555.3ZM1280.99 561C1279.33 561 1278.61 560.34 1278.61 558.68V553.08H1276.09V551.38H1278.61V548.5H1280.55V551.38H1283.57V553.08H1280.55V558.3C1280.55 559 1280.83 559.3 1281.57 559.3H1283.57V561H1280.99ZM1289.37 561.28C1286.49 561.28 1284.57 559.26 1284.57 556.14C1284.57 553.04 1286.49 551.1 1289.23 551.1C1292.09 551.1 1293.85 552.96 1293.85 555.9C1293.85 556.16 1293.83 556.42 1293.79 556.82H1286.49C1286.57 558.58 1287.65 559.64 1289.37 559.64C1290.51 559.64 1291.31 559.12 1291.69 558.26H1293.67C1293.07 560.12 1291.59 561.28 1289.37 561.28ZM1286.49 555.3H1291.89V555.2C1291.89 553.72 1290.93 552.66 1289.23 552.66C1287.61 552.66 1286.57 553.74 1286.49 555.3ZM1301.13 561V547H1307.13C1310.05 547 1311.77 548.52 1311.77 551.02C1311.77 553.42 1310.21 554.92 1307.55 555.06L1312.17 561H1309.67L1305.07 555.04H1303.13V561H1301.13ZM1303.13 553.22H1307.13C1308.79 553.22 1309.73 552.42 1309.73 551.02C1309.73 549.66 1308.79 548.88 1307.13 548.88H1303.13V553.22ZM1316.89 561.28C1314.67 561.28 1313.27 560.12 1313.27 558.28C1313.27 556.56 1314.43 555.32 1316.79 555.18L1319.71 555.02V554.48C1319.71 553.22 1319.09 552.7 1317.77 552.7C1316.49 552.7 1315.85 553.04 1315.69 554.06H1313.75C1313.97 552.08 1315.33 551.1 1317.91 551.1C1320.21 551.1 1321.55 552.26 1321.55 554.38V559.08C1321.55 559.3 1321.65 559.4 1321.87 559.4H1322.69V561H1321.13C1320.47 561 1320.09 560.64 1320.09 560V559.72C1319.53 560.7 1318.39 561.28 1316.89 561.28ZM1315.21 558.22C1315.21 559.1 1315.93 559.68 1317.11 559.68C1318.67 559.68 1319.71 558.78 1319.71 557.14V556.52L1317.03 556.72C1315.79 556.8 1315.21 557.44 1315.21 558.22ZM1327.84 561C1326.18 561 1325.46 560.34 1325.46 558.68V553.08H1322.94V551.38H1325.46V548.5H1327.4V551.38H1330.42V553.08H1327.4V558.3C1327.4 559 1327.68 559.3 1328.42 559.3H1330.42V561H1327.84ZM1336.23 561.28C1333.35 561.28 1331.43 559.26 1331.43 556.14C1331.43 553.04 1333.35 551.1 1336.09 551.1C1338.95 551.1 1340.71 552.96 1340.71 555.9C1340.71 556.16 1340.69 556.42 1340.65 556.82H1333.35C1333.43 558.58 1334.51 559.64 1336.23 559.64C1337.37 559.64 1338.17 559.12 1338.55 558.26H1340.53C1339.93 560.12 1338.45 561.28 1336.23 561.28ZM1333.35 555.3H1338.75V555.2C1338.75 553.72 1337.79 552.66 1336.09 552.66C1334.47 552.66 1333.43 553.74 1333.35 555.3Z" fill="#0D0D0D"/>
<rect x="1240.38" y="575.5" width="54" height="20" rx="10" stroke="#0B8900"/>
<path d="M1246.98 587.004V585.702H1251.24V587.004H1246.98ZM1251.73 590V588.726H1254.3V581.502H1252.52V580.2H1255.65V588.726H1258.17V590H1251.73ZM1259.8 590V588.082H1261.48V590H1259.8ZM1267 590.196C1264.64 590.196 1263.28 588.964 1263.28 587.228C1263.28 586.094 1263.99 585.142 1265.08 584.792C1264.1 584.456 1263.56 583.588 1263.56 582.65C1263.56 581.096 1264.92 580.004 1267 580.004C1269.1 580.004 1270.46 581.096 1270.46 582.65C1270.46 583.588 1269.91 584.456 1268.93 584.792C1270.03 585.142 1270.74 586.094 1270.74 587.228C1270.74 588.964 1269.38 590.196 1267 590.196ZM1264.68 587.186C1264.68 588.25 1265.5 589.02 1267 589.02C1268.51 589.02 1269.34 588.25 1269.34 587.186C1269.34 586.108 1268.46 585.394 1267 585.394C1265.56 585.394 1264.68 586.108 1264.68 587.186ZM1264.96 582.734C1264.96 583.644 1265.74 584.246 1267 584.246C1268.26 584.246 1269.06 583.644 1269.06 582.734C1269.06 581.824 1268.3 581.18 1267 581.18C1265.71 581.18 1264.96 581.824 1264.96 582.734ZM1271.67 590L1274.29 586.528L1271.81 583.266H1273.47L1275.17 585.59L1276.87 583.266H1278.52L1276.04 586.528L1278.66 590H1277.01L1275.17 587.536L1273.33 590H1271.67Z" fill="#0B8900"/>
<path fill-rule="evenodd" clip-rule="evenodd" d="M1288.88 584.875L1285.38 590.5L1281.88 584.875H1284.77V580.5H1285.98V584.875H1288.88Z" fill="#0B8900"/>
</g>
<defs>
<clipPath id="clip0_4638_119375">
<rect width="1278" height="432" fill="white" transform="translate(129 164)"/>
</clipPath>
</defs>
</svg>
