<svg width="1278" height="432" viewBox="0 0 1278 432" fill="none" xmlns="http://www.w3.org/2000/svg">
<g clip-path="url(#clip0_6624_23716)">
<path d="M216.625 5.648V23H214.273V5.648H216.625ZM214.681 23V20.816H224.257V23H214.681ZM228.924 5.648V23H226.572V5.648H228.924ZM226.98 23V20.816H236.556V23H226.98ZM245.227 23.264C243.579 23.264 242.139 22.896 240.907 22.16C239.675 21.408 238.715 20.368 238.027 19.04C237.339 17.696 236.995 16.128 236.995 14.336C236.995 12.544 237.347 10.976 238.051 9.632C238.755 8.288 239.731 7.24 240.979 6.488C242.243 5.736 243.699 5.36 245.347 5.36C246.659 5.36 247.843 5.608 248.899 6.104C249.955 6.584 250.835 7.264 251.539 8.144C252.243 9.024 252.699 10.056 252.907 11.24H250.387C250.067 10.104 249.451 9.216 248.539 8.576C247.627 7.936 246.539 7.616 245.275 7.616C244.107 7.616 243.083 7.896 242.203 8.456C241.339 9 240.667 9.776 240.187 10.784C239.707 11.776 239.467 12.952 239.467 14.312C239.467 15.656 239.707 16.832 240.187 17.84C240.667 18.848 241.347 19.632 242.227 20.192C243.107 20.736 244.123 21.008 245.275 21.008C246.555 21.008 247.659 20.696 248.587 20.072C249.531 19.432 250.163 18.576 250.483 17.504H252.979C252.739 18.656 252.251 19.664 251.515 20.528C250.795 21.392 249.891 22.064 248.803 22.544C247.731 23.024 246.539 23.264 245.227 23.264ZM264.298 23H261.946V5.648H268.498C270.354 5.648 271.802 6.112 272.842 7.04C273.898 7.952 274.426 9.224 274.426 10.856C274.426 12.056 274.13 13.072 273.538 13.904C272.962 14.736 272.138 15.328 271.066 15.68L274.594 23H271.978L268.738 16.136H264.298V23ZM264.298 7.76V14.048H268.522C269.61 14.048 270.45 13.768 271.042 13.208C271.65 12.648 271.954 11.872 271.954 10.88C271.954 9.872 271.642 9.104 271.018 8.576C270.41 8.032 269.57 7.76 268.498 7.76H264.298ZM281.245 23.288C280.109 23.288 279.101 23.032 278.221 22.52C277.341 21.992 276.653 21.272 276.157 20.36C275.661 19.432 275.413 18.36 275.413 17.144C275.413 15.912 275.653 14.832 276.133 13.904C276.629 12.976 277.301 12.248 278.149 11.72C279.013 11.192 280.013 10.928 281.149 10.928C282.269 10.928 283.237 11.168 284.053 11.648C284.885 12.128 285.525 12.8 285.973 13.664C286.437 14.528 286.669 15.544 286.669 16.712V17.552L276.613 17.576L276.661 16.064H284.413C284.413 15.088 284.117 14.304 283.525 13.712C282.933 13.12 282.141 12.824 281.149 12.824C280.397 12.824 279.749 12.992 279.205 13.328C278.677 13.648 278.269 14.128 277.981 14.768C277.709 15.392 277.573 16.144 277.573 17.024C277.573 18.432 277.893 19.52 278.533 20.288C279.173 21.04 280.093 21.416 281.293 21.416C282.173 21.416 282.893 21.24 283.453 20.888C284.013 20.536 284.389 20.024 284.581 19.352H286.693C286.405 20.6 285.789 21.568 284.845 22.256C283.901 22.944 282.701 23.288 281.245 23.288ZM288.205 16.832C288.205 15.728 288.429 14.736 288.877 13.856C289.325 12.96 289.965 12.248 290.797 11.72C291.629 11.192 292.613 10.928 293.749 10.928C294.805 10.928 295.709 11.184 296.461 11.696C297.213 12.192 297.749 12.888 298.069 13.784L297.781 14.096L298.021 11.264H300.037V22.52C300.037 23.752 299.797 24.816 299.317 25.712C298.837 26.624 298.157 27.328 297.277 27.824C296.397 28.32 295.357 28.568 294.157 28.568C292.557 28.568 291.245 28.144 290.221 27.296C289.197 26.448 288.573 25.28 288.349 23.792H290.605C290.749 24.656 291.133 25.328 291.757 25.808C292.381 26.288 293.181 26.528 294.157 26.528C295.261 26.528 296.141 26.192 296.797 25.52C297.469 24.864 297.805 23.976 297.805 22.856V19.544L298.093 19.856C297.789 20.736 297.237 21.432 296.437 21.944C295.637 22.44 294.709 22.688 293.653 22.688C292.533 22.688 291.565 22.432 290.749 21.92C289.933 21.392 289.301 20.688 288.853 19.808C288.421 18.928 288.205 17.936 288.205 16.832ZM290.461 16.784C290.461 17.52 290.605 18.184 290.893 18.776C291.197 19.368 291.613 19.84 292.141 20.192C292.685 20.544 293.317 20.72 294.037 20.72C294.805 20.72 295.461 20.552 296.005 20.216C296.549 19.88 296.965 19.416 297.253 18.824C297.557 18.232 297.709 17.552 297.709 16.784C297.709 16.016 297.565 15.344 297.277 14.768C296.989 14.192 296.573 13.736 296.029 13.4C295.485 13.064 294.829 12.896 294.061 12.896C293.309 12.896 292.661 13.072 292.117 13.424C291.589 13.776 291.181 14.248 290.893 14.84C290.605 15.416 290.461 16.064 290.461 16.784ZM303.053 23V11.264H305.309V23H303.053ZM304.157 8.48C303.757 8.48 303.405 8.336 303.101 8.048C302.813 7.744 302.669 7.392 302.669 6.992C302.669 6.576 302.813 6.224 303.101 5.936C303.405 5.648 303.757 5.504 304.157 5.504C304.573 5.504 304.925 5.648 305.213 5.936C305.501 6.224 305.645 6.576 305.645 6.992C305.645 7.392 305.501 7.744 305.213 8.048C304.925 8.336 304.573 8.48 304.157 8.48ZM307.384 19.592H309.544C309.544 20.184 309.76 20.656 310.192 21.008C310.624 21.344 311.208 21.512 311.944 21.512C312.744 21.512 313.36 21.36 313.792 21.056C314.224 20.736 314.44 20.312 314.44 19.784C314.44 19.4 314.32 19.08 314.08 18.824C313.856 18.568 313.44 18.36 312.832 18.2L310.768 17.72C309.728 17.464 308.952 17.072 308.44 16.544C307.944 16.016 307.696 15.32 307.696 14.456C307.696 13.736 307.88 13.112 308.248 12.584C308.632 12.056 309.152 11.648 309.808 11.36C310.48 11.072 311.248 10.928 312.112 10.928C312.976 10.928 313.72 11.08 314.344 11.384C314.984 11.688 315.48 12.112 315.832 12.656C316.2 13.2 316.392 13.848 316.408 14.6H314.248C314.232 13.992 314.032 13.52 313.648 13.184C313.264 12.848 312.728 12.68 312.04 12.68C311.336 12.68 310.792 12.832 310.408 13.136C310.024 13.44 309.832 13.856 309.832 14.384C309.832 15.168 310.408 15.704 311.56 15.992L313.624 16.496C314.616 16.72 315.36 17.088 315.856 17.6C316.352 18.096 316.6 18.776 316.6 19.64C316.6 20.376 316.4 21.024 316 21.584C315.6 22.128 315.048 22.552 314.344 22.856C313.656 23.144 312.84 23.288 311.896 23.288C310.52 23.288 309.424 22.952 308.608 22.28C307.792 21.608 307.384 20.712 307.384 19.592ZM317.614 11.264H324.43V13.16H317.614V11.264ZM324.334 21.032L324.622 22.904C324.014 23.144 323.366 23.264 322.678 23.264C321.99 23.264 321.406 23.136 320.926 22.88C320.446 22.608 320.078 22.208 319.822 21.68C319.566 21.152 319.438 20.496 319.438 19.712V7.592H321.694V19.4C321.694 20.072 321.83 20.552 322.102 20.84C322.39 21.112 322.758 21.248 323.206 21.248C323.558 21.248 323.934 21.176 324.334 21.032ZM333.428 11.168V13.232H332.42C331.348 13.232 330.5 13.544 329.876 14.168C329.268 14.776 328.964 15.648 328.964 16.784V23H326.708V11.288H328.82L329.012 13.64H328.796C328.956 12.872 329.34 12.248 329.948 11.768C330.556 11.272 331.316 11.024 332.228 11.024C332.436 11.024 332.628 11.04 332.804 11.072C332.996 11.088 333.204 11.12 333.428 11.168ZM338.267 23.288C337.019 23.288 336.035 22.96 335.315 22.304C334.611 21.648 334.259 20.792 334.259 19.736C334.259 18.664 334.643 17.808 335.411 17.168C336.179 16.512 337.251 16.128 338.627 16.016L342.323 15.728V15.392C342.323 14.736 342.203 14.216 341.963 13.832C341.723 13.432 341.395 13.152 340.979 12.992C340.563 12.816 340.091 12.728 339.563 12.728C338.619 12.728 337.883 12.928 337.355 13.328C336.843 13.712 336.587 14.264 336.587 14.984H334.619C334.619 14.168 334.827 13.456 335.243 12.848C335.659 12.24 336.243 11.768 336.995 11.432C337.763 11.096 338.651 10.928 339.659 10.928C340.635 10.928 341.483 11.104 342.203 11.456C342.939 11.792 343.507 12.312 343.907 13.016C344.323 13.704 344.531 14.576 344.531 15.632V23H342.611L342.371 21.104C342.067 21.776 341.539 22.312 340.787 22.712C340.051 23.096 339.211 23.288 338.267 23.288ZM338.915 21.536C339.987 21.536 340.827 21.216 341.435 20.576C342.043 19.92 342.347 19.04 342.347 17.936V17.312L339.347 17.552C338.355 17.648 337.635 17.88 337.187 18.248C336.755 18.616 336.539 19.088 336.539 19.664C336.539 20.288 336.747 20.76 337.163 21.08C337.595 21.384 338.179 21.536 338.915 21.536ZM345.98 11.264H352.796V13.16H345.98V11.264ZM352.7 21.032L352.988 22.904C352.38 23.144 351.732 23.264 351.044 23.264C350.356 23.264 349.772 23.136 349.292 22.88C348.812 22.608 348.444 22.208 348.188 21.68C347.932 21.152 347.804 20.496 347.804 19.712V7.592H350.06V19.4C350.06 20.072 350.196 20.552 350.468 20.84C350.756 21.112 351.124 21.248 351.572 21.248C351.924 21.248 352.3 21.176 352.7 21.032ZM355.074 23V11.264H357.33V23H355.074ZM356.178 8.48C355.778 8.48 355.426 8.336 355.122 8.048C354.834 7.744 354.69 7.392 354.69 6.992C354.69 6.576 354.834 6.224 355.122 5.936C355.426 5.648 355.778 5.504 356.178 5.504C356.594 5.504 356.946 5.648 357.234 5.936C357.522 6.224 357.666 6.576 357.666 6.992C357.666 7.392 357.522 7.744 357.234 8.048C356.946 8.336 356.594 8.48 356.178 8.48ZM359.597 17.12C359.597 15.92 359.861 14.856 360.389 13.928C360.917 13 361.637 12.272 362.549 11.744C363.477 11.216 364.533 10.952 365.717 10.952C366.901 10.952 367.949 11.216 368.861 11.744C369.773 12.272 370.493 13 371.021 13.928C371.549 14.856 371.813 15.92 371.813 17.12C371.813 18.32 371.549 19.384 371.021 20.312C370.493 21.24 369.773 21.968 368.861 22.496C367.949 23.024 366.901 23.288 365.717 23.288C364.533 23.288 363.477 23.024 362.549 22.496C361.637 21.968 360.917 21.24 360.389 20.312C359.861 19.384 359.597 18.32 359.597 17.12ZM361.877 17.12C361.877 17.936 362.037 18.656 362.357 19.28C362.693 19.904 363.149 20.392 363.725 20.744C364.301 21.096 364.965 21.272 365.717 21.272C366.469 21.272 367.133 21.096 367.709 20.744C368.285 20.392 368.733 19.904 369.053 19.28C369.389 18.656 369.557 17.936 369.557 17.12C369.557 16.288 369.389 15.568 369.053 14.96C368.733 14.336 368.285 13.848 367.709 13.496C367.133 13.144 366.469 12.968 365.717 12.968C364.965 12.968 364.301 13.144 363.725 13.496C363.149 13.848 362.693 14.336 362.357 14.96C362.037 15.568 361.877 16.288 361.877 17.12ZM376.326 23H374.07V11.264H376.11L376.35 13.064C376.718 12.392 377.246 11.872 377.934 11.504C378.638 11.12 379.406 10.928 380.238 10.928C381.774 10.928 382.91 11.368 383.646 12.248C384.382 13.128 384.75 14.32 384.75 15.824V23H382.494V16.328C382.494 15.144 382.238 14.296 381.726 13.784C381.214 13.256 380.526 12.992 379.662 12.992C378.606 12.992 377.782 13.336 377.19 14.024C376.614 14.712 376.326 15.632 376.326 16.784V23Z" fill="#0D0D0D"/>
<path d="M906.845 5.648V23H904.493V5.648H906.845ZM921.235 23H910.651V5.648H921.235V7.808H911.923L913.003 6.872V13.232H920.419V15.32H913.003V21.8L911.923 20.816H921.235V23ZM933.078 23H930.726V5.648H937.278C939.134 5.648 940.582 6.112 941.622 7.04C942.678 7.952 943.206 9.224 943.206 10.856C943.206 12.056 942.91 13.072 942.318 13.904C941.742 14.736 940.918 15.328 939.846 15.68L943.374 23H940.758L937.518 16.136H933.078V23ZM933.078 7.76V14.048H937.302C938.39 14.048 939.23 13.768 939.822 13.208C940.43 12.648 940.734 11.872 940.734 10.88C940.734 9.872 940.422 9.104 939.798 8.576C939.19 8.032 938.35 7.76 937.278 7.76H933.078ZM950.025 23.288C948.889 23.288 947.881 23.032 947.001 22.52C946.121 21.992 945.433 21.272 944.937 20.36C944.441 19.432 944.193 18.36 944.193 17.144C944.193 15.912 944.433 14.832 944.913 13.904C945.409 12.976 946.081 12.248 946.929 11.72C947.793 11.192 948.793 10.928 949.929 10.928C951.049 10.928 952.017 11.168 952.833 11.648C953.665 12.128 954.305 12.8 954.753 13.664C955.217 14.528 955.449 15.544 955.449 16.712V17.552L945.393 17.576L945.441 16.064H953.193C953.193 15.088 952.897 14.304 952.305 13.712C951.713 13.12 950.921 12.824 949.929 12.824C949.177 12.824 948.529 12.992 947.985 13.328C947.457 13.648 947.049 14.128 946.761 14.768C946.489 15.392 946.353 16.144 946.353 17.024C946.353 18.432 946.673 19.52 947.313 20.288C947.953 21.04 948.873 21.416 950.073 21.416C950.953 21.416 951.673 21.24 952.233 20.888C952.793 20.536 953.169 20.024 953.361 19.352H955.473C955.185 20.6 954.569 21.568 953.625 22.256C952.681 22.944 951.481 23.288 950.025 23.288ZM956.985 16.832C956.985 15.728 957.209 14.736 957.657 13.856C958.105 12.96 958.745 12.248 959.577 11.72C960.409 11.192 961.393 10.928 962.529 10.928C963.585 10.928 964.489 11.184 965.241 11.696C965.993 12.192 966.529 12.888 966.849 13.784L966.561 14.096L966.801 11.264H968.817V22.52C968.817 23.752 968.577 24.816 968.097 25.712C967.617 26.624 966.937 27.328 966.057 27.824C965.177 28.32 964.137 28.568 962.937 28.568C961.337 28.568 960.025 28.144 959.001 27.296C957.977 26.448 957.353 25.28 957.129 23.792H959.385C959.529 24.656 959.913 25.328 960.537 25.808C961.161 26.288 961.961 26.528 962.937 26.528C964.041 26.528 964.921 26.192 965.577 25.52C966.249 24.864 966.585 23.976 966.585 22.856V19.544L966.873 19.856C966.569 20.736 966.017 21.432 965.217 21.944C964.417 22.44 963.489 22.688 962.433 22.688C961.313 22.688 960.345 22.432 959.529 21.92C958.713 21.392 958.081 20.688 957.633 19.808C957.201 18.928 956.985 17.936 956.985 16.832ZM959.241 16.784C959.241 17.52 959.385 18.184 959.673 18.776C959.977 19.368 960.393 19.84 960.921 20.192C961.465 20.544 962.097 20.72 962.817 20.72C963.585 20.72 964.241 20.552 964.785 20.216C965.329 19.88 965.745 19.416 966.033 18.824C966.337 18.232 966.489 17.552 966.489 16.784C966.489 16.016 966.345 15.344 966.057 14.768C965.769 14.192 965.353 13.736 964.809 13.4C964.265 13.064 963.609 12.896 962.841 12.896C962.089 12.896 961.441 13.072 960.897 13.424C960.369 13.776 959.961 14.248 959.673 14.84C959.385 15.416 959.241 16.064 959.241 16.784ZM971.833 23V11.264H974.089V23H971.833ZM972.937 8.48C972.537 8.48 972.185 8.336 971.881 8.048C971.593 7.744 971.449 7.392 971.449 6.992C971.449 6.576 971.593 6.224 971.881 5.936C972.185 5.648 972.537 5.504 972.937 5.504C973.353 5.504 973.705 5.648 973.993 5.936C974.281 6.224 974.425 6.576 974.425 6.992C974.425 7.392 974.281 7.744 973.993 8.048C973.705 8.336 973.353 8.48 972.937 8.48ZM976.164 19.592H978.324C978.324 20.184 978.54 20.656 978.972 21.008C979.404 21.344 979.988 21.512 980.724 21.512C981.524 21.512 982.14 21.36 982.572 21.056C983.004 20.736 983.22 20.312 983.22 19.784C983.22 19.4 983.1 19.08 982.86 18.824C982.636 18.568 982.22 18.36 981.612 18.2L979.548 17.72C978.508 17.464 977.732 17.072 977.22 16.544C976.724 16.016 976.476 15.32 976.476 14.456C976.476 13.736 976.66 13.112 977.028 12.584C977.412 12.056 977.932 11.648 978.588 11.36C979.26 11.072 980.028 10.928 980.892 10.928C981.756 10.928 982.5 11.08 983.124 11.384C983.764 11.688 984.26 12.112 984.612 12.656C984.98 13.2 985.172 13.848 985.188 14.6H983.028C983.012 13.992 982.812 13.52 982.428 13.184C982.044 12.848 981.508 12.68 980.82 12.68C980.116 12.68 979.572 12.832 979.188 13.136C978.804 13.44 978.612 13.856 978.612 14.384C978.612 15.168 979.188 15.704 980.34 15.992L982.404 16.496C983.396 16.72 984.14 17.088 984.636 17.6C985.132 18.096 985.38 18.776 985.38 19.64C985.38 20.376 985.18 21.024 984.78 21.584C984.38 22.128 983.828 22.552 983.124 22.856C982.436 23.144 981.62 23.288 980.676 23.288C979.3 23.288 978.204 22.952 977.388 22.28C976.572 21.608 976.164 20.712 976.164 19.592ZM986.394 11.264H993.21V13.16H986.394V11.264ZM993.114 21.032L993.402 22.904C992.794 23.144 992.146 23.264 991.458 23.264C990.77 23.264 990.186 23.136 989.706 22.88C989.226 22.608 988.858 22.208 988.602 21.68C988.346 21.152 988.218 20.496 988.218 19.712V7.592H990.474V19.4C990.474 20.072 990.61 20.552 990.882 20.84C991.17 21.112 991.538 21.248 991.986 21.248C992.338 21.248 992.714 21.176 993.114 21.032ZM1002.21 11.168V13.232H1001.2C1000.13 13.232 999.28 13.544 998.656 14.168C998.048 14.776 997.744 15.648 997.744 16.784V23H995.488V11.288H997.6L997.792 13.64H997.576C997.736 12.872 998.12 12.248 998.728 11.768C999.336 11.272 1000.1 11.024 1001.01 11.024C1001.22 11.024 1001.41 11.04 1001.58 11.072C1001.78 11.088 1001.98 11.12 1002.21 11.168ZM1007.05 23.288C1005.8 23.288 1004.82 22.96 1004.1 22.304C1003.39 21.648 1003.04 20.792 1003.04 19.736C1003.04 18.664 1003.42 17.808 1004.19 17.168C1004.96 16.512 1006.03 16.128 1007.41 16.016L1011.1 15.728V15.392C1011.1 14.736 1010.98 14.216 1010.74 13.832C1010.5 13.432 1010.18 13.152 1009.76 12.992C1009.34 12.816 1008.87 12.728 1008.34 12.728C1007.4 12.728 1006.66 12.928 1006.14 13.328C1005.62 13.712 1005.37 14.264 1005.37 14.984H1003.4C1003.4 14.168 1003.61 13.456 1004.02 12.848C1004.44 12.24 1005.02 11.768 1005.78 11.432C1006.54 11.096 1007.43 10.928 1008.44 10.928C1009.42 10.928 1010.26 11.104 1010.98 11.456C1011.72 11.792 1012.29 12.312 1012.69 13.016C1013.1 13.704 1013.31 14.576 1013.31 15.632V23H1011.39L1011.15 21.104C1010.85 21.776 1010.32 22.312 1009.57 22.712C1008.83 23.096 1007.99 23.288 1007.05 23.288ZM1007.7 21.536C1008.77 21.536 1009.61 21.216 1010.22 20.576C1010.82 19.92 1011.13 19.04 1011.13 17.936V17.312L1008.13 17.552C1007.14 17.648 1006.42 17.88 1005.97 18.248C1005.54 18.616 1005.32 19.088 1005.32 19.664C1005.32 20.288 1005.53 20.76 1005.94 21.08C1006.38 21.384 1006.96 21.536 1007.7 21.536ZM1014.76 11.264H1021.58V13.16H1014.76V11.264ZM1021.48 21.032L1021.77 22.904C1021.16 23.144 1020.51 23.264 1019.82 23.264C1019.14 23.264 1018.55 23.136 1018.07 22.88C1017.59 22.608 1017.22 22.208 1016.97 21.68C1016.71 21.152 1016.58 20.496 1016.58 19.712V7.592H1018.84V19.4C1018.84 20.072 1018.98 20.552 1019.25 20.84C1019.54 21.112 1019.9 21.248 1020.35 21.248C1020.7 21.248 1021.08 21.176 1021.48 21.032ZM1023.85 23V11.264H1026.11V23H1023.85ZM1024.96 8.48C1024.56 8.48 1024.21 8.336 1023.9 8.048C1023.61 7.744 1023.47 7.392 1023.47 6.992C1023.47 6.576 1023.61 6.224 1023.9 5.936C1024.21 5.648 1024.56 5.504 1024.96 5.504C1025.37 5.504 1025.73 5.648 1026.01 5.936C1026.3 6.224 1026.45 6.576 1026.45 6.992C1026.45 7.392 1026.3 7.744 1026.01 8.048C1025.73 8.336 1025.37 8.48 1024.96 8.48ZM1028.38 17.12C1028.38 15.92 1028.64 14.856 1029.17 13.928C1029.7 13 1030.42 12.272 1031.33 11.744C1032.26 11.216 1033.31 10.952 1034.5 10.952C1035.68 10.952 1036.73 11.216 1037.64 11.744C1038.55 12.272 1039.27 13 1039.8 13.928C1040.33 14.856 1040.59 15.92 1040.59 17.12C1040.59 18.32 1040.33 19.384 1039.8 20.312C1039.27 21.24 1038.55 21.968 1037.64 22.496C1036.73 23.024 1035.68 23.288 1034.5 23.288C1033.31 23.288 1032.26 23.024 1031.33 22.496C1030.42 21.968 1029.7 21.24 1029.17 20.312C1028.64 19.384 1028.38 18.32 1028.38 17.12ZM1030.66 17.12C1030.66 17.936 1030.82 18.656 1031.14 19.28C1031.47 19.904 1031.93 20.392 1032.51 20.744C1033.08 21.096 1033.75 21.272 1034.5 21.272C1035.25 21.272 1035.91 21.096 1036.49 20.744C1037.07 20.392 1037.51 19.904 1037.83 19.28C1038.17 18.656 1038.34 17.936 1038.34 17.12C1038.34 16.288 1038.17 15.568 1037.83 14.96C1037.51 14.336 1037.07 13.848 1036.49 13.496C1035.91 13.144 1035.25 12.968 1034.5 12.968C1033.75 12.968 1033.08 13.144 1032.51 13.496C1031.93 13.848 1031.47 14.336 1031.14 14.96C1030.82 15.568 1030.66 16.288 1030.66 17.12ZM1045.11 23H1042.85V11.264H1044.89L1045.13 13.064C1045.5 12.392 1046.03 11.872 1046.71 11.504C1047.42 11.12 1048.19 10.928 1049.02 10.928C1050.55 10.928 1051.69 11.368 1052.43 12.248C1053.16 13.128 1053.53 14.32 1053.53 15.824V23H1051.27V16.328C1051.27 15.144 1051.02 14.296 1050.51 13.784C1049.99 13.256 1049.31 12.992 1048.44 12.992C1047.39 12.992 1046.56 13.336 1045.97 14.024C1045.39 14.712 1045.11 15.632 1045.11 16.784V23Z" fill="#0D0D0D"/>
<rect y="330" width="129.625" height="25" rx="12" fill="#D1D1D1"/>
<path d="M46.6725 315.192H49.0525C49.0525 316.107 48.8938 316.919 48.5765 317.628C48.2778 318.319 47.8485 318.869 47.2885 319.28C46.7285 319.672 46.0565 319.868 45.2725 319.868C44.6005 319.868 43.9752 319.756 43.3965 319.532C42.8365 319.289 42.3045 319.019 41.8005 318.72C41.3152 318.403 40.8392 318.132 40.3725 317.908C39.9245 317.665 39.4765 317.544 39.0285 317.544C38.4498 317.544 38.0392 317.731 37.7965 318.104C37.5538 318.459 37.4325 318.963 37.4325 319.616H35.0525C35.0525 318.739 35.2018 317.964 35.5005 317.292C35.8178 316.601 36.2565 316.06 36.8165 315.668C37.3952 315.257 38.0672 315.052 38.8325 315.052C39.4672 315.052 40.0552 315.173 40.5965 315.416C41.1565 315.64 41.6885 315.911 42.1925 316.228C42.6965 316.527 43.1818 316.797 43.6485 317.04C44.1152 317.283 44.5912 317.404 45.0765 317.404C45.6552 317.404 46.0658 317.217 46.3085 316.844C46.5512 316.452 46.6725 315.901 46.6725 315.192ZM55.7769 308.472H51.4089V305.644H58.8289V326H55.7769V308.472ZM64.2569 326.336C63.6596 326.336 63.1463 326.131 62.7169 325.72C62.3063 325.309 62.1009 324.824 62.1009 324.264C62.1009 323.667 62.3063 323.163 62.7169 322.752C63.1463 322.341 63.6596 322.136 64.2569 322.136C64.8356 322.136 65.3303 322.341 65.7409 322.752C66.1703 323.163 66.3849 323.667 66.3849 324.264C66.3849 324.824 66.1703 325.309 65.7409 325.72C65.3303 326.131 64.8356 326.336 64.2569 326.336ZM81.4352 308.192L74.0432 315.136L71.9712 313.624L79.1392 306.904L78.7752 308.444H68.6672V305.644H81.4352V308.192ZM74.2112 315.696H71.9712V313.624C72.3072 313.381 72.7365 313.223 73.2592 313.148C73.7818 313.055 74.2858 313.008 74.7712 313.008C75.7605 313.008 76.6845 313.157 77.5432 313.456C78.4205 313.736 79.1952 314.165 79.8672 314.744C80.5392 315.304 81.0618 315.995 81.4352 316.816C81.8085 317.619 81.9952 318.533 81.9952 319.56C81.9952 320.941 81.6685 322.145 81.0152 323.172C80.3805 324.18 79.5125 324.964 78.4112 325.524C77.3098 326.084 76.0685 326.364 74.6872 326.364C73.3618 326.364 72.1672 326.103 71.1032 325.58C70.0578 325.039 69.2272 324.264 68.6112 323.256C68.0138 322.229 67.7152 321.007 67.7152 319.588H70.8512C70.8512 320.839 71.2058 321.809 71.9152 322.5C72.6245 323.191 73.5672 323.536 74.7432 323.536C75.9565 323.536 76.9272 323.172 77.6552 322.444C78.4018 321.697 78.7752 320.727 78.7752 319.532C78.7752 318.393 78.3925 317.469 77.6272 316.76C76.8805 316.051 75.7418 315.696 74.2112 315.696ZM87.0166 326H83.9926V305.28H87.0166V318.356L92.7566 312.252H96.5366L91.3006 317.712L96.4526 326H92.9806L89.2006 319.924L87.0166 322.192V326Z" fill="#0D0D0D"/>
<rect x="149.625" y="255" width="129.625" height="100" rx="12" fill="#AEAEAE"/>
<path d="M193.298 315.192H195.678C195.678 316.107 195.519 316.919 195.202 317.628C194.903 318.319 194.474 318.869 193.914 319.28C193.354 319.672 192.682 319.868 191.898 319.868C191.226 319.868 190.6 319.756 190.022 319.532C189.462 319.289 188.93 319.019 188.426 318.72C187.94 318.403 187.464 318.132 186.998 317.908C186.55 317.665 186.102 317.544 185.654 317.544C185.075 317.544 184.664 317.731 184.422 318.104C184.179 318.459 184.058 318.963 184.058 319.616H181.678C181.678 318.739 181.827 317.964 182.126 317.292C182.443 316.601 182.882 316.06 183.442 315.668C184.02 315.257 184.692 315.052 185.458 315.052C186.092 315.052 186.68 315.173 187.222 315.416C187.782 315.64 188.314 315.911 188.818 316.228C189.322 316.527 189.807 316.797 190.274 317.04C190.74 317.283 191.216 317.404 191.702 317.404C192.28 317.404 192.691 317.217 192.934 316.844C193.176 316.452 193.298 315.901 193.298 315.192ZM205.314 326.336C203.914 326.336 202.682 326.056 201.618 325.496C200.573 324.936 199.761 324.152 199.182 323.144C198.622 322.117 198.342 320.923 198.342 319.56H201.45C201.45 320.792 201.795 321.763 202.486 322.472C203.195 323.163 204.157 323.508 205.37 323.508C206.229 323.508 206.966 323.331 207.582 322.976C208.217 322.621 208.711 322.127 209.066 321.492C209.421 320.839 209.598 320.073 209.598 319.196C209.598 318.356 209.43 317.619 209.094 316.984C208.758 316.349 208.282 315.855 207.666 315.5C207.05 315.127 206.294 314.94 205.398 314.94C204.595 314.94 203.839 315.117 203.13 315.472C202.421 315.827 201.861 316.284 201.45 316.844L198.706 316.2L201.198 305.644H211.586V308.556H202.542L203.774 307.436L202.01 314.464L200.946 314.8C201.431 313.979 202.122 313.353 203.018 312.924C203.914 312.476 204.922 312.252 206.042 312.252C207.405 312.252 208.59 312.541 209.598 313.12C210.625 313.699 211.418 314.501 211.978 315.528C212.538 316.555 212.818 317.731 212.818 319.056C212.818 320.493 212.501 321.763 211.866 322.864C211.231 323.947 210.354 324.796 209.234 325.412C208.114 326.028 206.807 326.336 205.314 326.336ZM216.378 326.336C215.781 326.336 215.267 326.131 214.838 325.72C214.427 325.309 214.222 324.824 214.222 324.264C214.222 323.667 214.427 323.163 214.838 322.752C215.267 322.341 215.781 322.136 216.378 322.136C216.957 322.136 217.451 322.341 217.862 322.752C218.291 323.163 218.506 323.667 218.506 324.264C218.506 324.824 218.291 325.309 217.862 325.72C217.451 326.131 216.957 326.336 216.378 326.336ZM233.556 308.192L226.164 315.136L224.092 313.624L231.26 306.904L230.896 308.444H220.788V305.644H233.556V308.192ZM226.332 315.696H224.092V313.624C224.428 313.381 224.858 313.223 225.38 313.148C225.903 313.055 226.407 313.008 226.892 313.008C227.882 313.008 228.806 313.157 229.664 313.456C230.542 313.736 231.316 314.165 231.988 314.744C232.66 315.304 233.183 315.995 233.556 316.816C233.93 317.619 234.116 318.533 234.116 319.56C234.116 320.941 233.79 322.145 233.136 323.172C232.502 324.18 231.634 324.964 230.532 325.524C229.431 326.084 228.19 326.364 226.808 326.364C225.483 326.364 224.288 326.103 223.224 325.58C222.179 325.039 221.348 324.264 220.732 323.256C220.135 322.229 219.836 321.007 219.836 319.588H222.972C222.972 320.839 223.327 321.809 224.036 322.5C224.746 323.191 225.688 323.536 226.864 323.536C228.078 323.536 229.048 323.172 229.776 322.444C230.523 321.697 230.896 320.727 230.896 319.532C230.896 318.393 230.514 317.469 229.748 316.76C229.002 316.051 227.863 315.696 226.332 315.696ZM239.138 326H236.114V305.28H239.138V318.356L244.878 312.252H248.658L243.422 317.712L248.574 326H245.102L241.322 319.924L239.138 322.192V326Z" fill="#0D0D0D"/>
<path d="M81.1027 393.22C79.7293 393.22 78.5293 392.913 77.5027 392.3C76.476 391.673 75.676 390.807 75.1027 389.7C74.5293 388.58 74.2427 387.273 74.2427 385.78C74.2427 384.287 74.536 382.98 75.1227 381.86C75.7093 380.74 76.5227 379.867 77.5627 379.24C78.616 378.613 79.8293 378.3 81.2027 378.3C82.296 378.3 83.2827 378.507 84.1627 378.92C85.0427 379.32 85.776 379.887 86.3627 380.62C86.9493 381.353 87.3293 382.213 87.5027 383.2H85.4027C85.136 382.253 84.6227 381.513 83.8627 380.98C83.1027 380.447 82.196 380.18 81.1427 380.18C80.1693 380.18 79.316 380.413 78.5827 380.88C77.8627 381.333 77.3027 381.98 76.9027 382.82C76.5027 383.647 76.3027 384.627 76.3027 385.76C76.3027 386.88 76.5027 387.86 76.9027 388.7C77.3027 389.54 77.8693 390.193 78.6027 390.66C79.336 391.113 80.1827 391.34 81.1427 391.34C82.2093 391.34 83.1293 391.08 83.9027 390.56C84.6893 390.027 85.216 389.313 85.4827 388.42H87.5627C87.3627 389.38 86.956 390.22 86.3427 390.94C85.7427 391.66 84.9893 392.22 84.0827 392.62C83.1893 393.02 82.196 393.22 81.1027 393.22ZM88.8059 388.1C88.8059 387.1 89.0259 386.213 89.4659 385.44C89.9059 384.667 90.5059 384.06 91.2659 383.62C92.0393 383.18 92.9193 382.96 93.9059 382.96C94.8926 382.96 95.7659 383.18 96.5259 383.62C97.2859 384.06 97.8859 384.667 98.3259 385.44C98.7659 386.213 98.9859 387.1 98.9859 388.1C98.9859 389.1 98.7659 389.987 98.3259 390.76C97.8859 391.533 97.2859 392.14 96.5259 392.58C95.7659 393.02 94.8926 393.24 93.9059 393.24C92.9193 393.24 92.0393 393.02 91.2659 392.58C90.5059 392.14 89.9059 391.533 89.4659 390.76C89.0259 389.987 88.8059 389.1 88.8059 388.1ZM90.7059 388.1C90.7059 388.78 90.8393 389.38 91.1059 389.9C91.3859 390.42 91.7659 390.827 92.2459 391.12C92.7259 391.413 93.2793 391.56 93.9059 391.56C94.5326 391.56 95.0859 391.413 95.5659 391.12C96.0459 390.827 96.4193 390.42 96.6859 389.9C96.9659 389.38 97.1059 388.78 97.1059 388.1C97.1059 387.407 96.9659 386.807 96.6859 386.3C96.4193 385.78 96.0459 385.373 95.5659 385.08C95.0859 384.787 94.5326 384.64 93.9059 384.64C93.2793 384.64 92.7259 384.787 92.2459 385.08C91.7659 385.373 91.3859 385.78 91.1059 386.3C90.8393 386.807 90.7059 387.407 90.7059 388.1ZM102.747 393H100.867V383.22H102.547L102.807 385.02L102.567 384.86C102.767 384.313 103.134 383.86 103.667 383.5C104.214 383.127 104.874 382.94 105.647 382.94C106.514 382.94 107.234 383.173 107.807 383.64C108.38 384.107 108.754 384.727 108.927 385.5H108.587C108.72 384.727 109.087 384.107 109.687 383.64C110.287 383.173 111.027 382.94 111.907 382.94C113.027 382.94 113.907 383.267 114.547 383.92C115.187 384.573 115.507 385.467 115.507 386.6V393H113.667V387.06C113.667 386.287 113.467 385.693 113.067 385.28C112.68 384.853 112.154 384.64 111.487 384.64C111.02 384.64 110.607 384.747 110.247 384.96C109.9 385.16 109.627 385.453 109.427 385.84C109.227 386.227 109.127 386.68 109.127 387.2V393H107.267V387.04C107.267 386.267 107.074 385.68 106.687 385.28C106.3 384.867 105.774 384.66 105.107 384.66C104.64 384.66 104.227 384.767 103.867 384.98C103.52 385.18 103.247 385.473 103.047 385.86C102.847 386.233 102.747 386.68 102.747 387.2V393ZM117.913 397.38V383.22H119.613L119.753 384.98C120.073 384.3 120.546 383.793 121.173 383.46C121.813 383.113 122.52 382.94 123.293 382.94C124.226 382.94 125.033 383.16 125.713 383.6C126.393 384.027 126.913 384.627 127.273 385.4C127.646 386.16 127.833 387.04 127.833 388.04C127.833 389.04 127.653 389.933 127.293 390.72C126.946 391.507 126.433 392.127 125.753 392.58C125.086 393.033 124.266 393.26 123.293 393.26C122.506 393.26 121.806 393.1 121.193 392.78C120.58 392.46 120.113 392 119.793 391.4V397.38H117.913ZM119.813 388.12C119.813 388.773 119.933 389.367 120.173 389.9C120.426 390.42 120.78 390.827 121.233 391.12C121.7 391.413 122.253 391.56 122.893 391.56C123.533 391.56 124.08 391.413 124.533 391.12C124.986 390.813 125.333 390.4 125.573 389.88C125.826 389.36 125.953 388.773 125.953 388.12C125.953 387.44 125.826 386.84 125.573 386.32C125.333 385.8 124.986 385.393 124.533 385.1C124.08 384.807 123.533 384.66 122.893 384.66C122.253 384.66 121.7 384.807 121.233 385.1C120.78 385.393 120.426 385.8 120.173 386.32C119.933 386.84 119.813 387.44 119.813 388.12ZM131.625 393H129.745V378.28H131.625V393ZM138.413 393.24C137.466 393.24 136.626 393.027 135.893 392.6C135.159 392.16 134.586 391.56 134.173 390.8C133.759 390.027 133.553 389.133 133.553 388.12C133.553 387.093 133.753 386.193 134.153 385.42C134.566 384.647 135.126 384.04 135.833 383.6C136.553 383.16 137.386 382.94 138.333 382.94C139.266 382.94 140.073 383.14 140.753 383.54C141.446 383.94 141.979 384.5 142.353 385.22C142.739 385.94 142.933 386.787 142.933 387.76V388.46L134.553 388.48L134.593 387.22H141.053C141.053 386.407 140.806 385.753 140.313 385.26C139.819 384.767 139.159 384.52 138.333 384.52C137.706 384.52 137.166 384.66 136.713 384.94C136.273 385.207 135.933 385.607 135.693 386.14C135.466 386.66 135.353 387.287 135.353 388.02C135.353 389.193 135.619 390.1 136.153 390.74C136.686 391.367 137.453 391.68 138.453 391.68C139.186 391.68 139.786 391.533 140.253 391.24C140.719 390.947 141.033 390.52 141.193 389.96H142.953C142.713 391 142.199 391.807 141.413 392.38C140.626 392.953 139.626 393.24 138.413 393.24ZM143.695 383.22H149.375V384.8H143.695V383.22ZM149.295 391.36L149.535 392.92C149.028 393.12 148.488 393.22 147.915 393.22C147.342 393.22 146.855 393.113 146.455 392.9C146.055 392.673 145.748 392.34 145.535 391.9C145.322 391.46 145.215 390.913 145.215 390.26V380.16H147.095V390C147.095 390.56 147.208 390.96 147.435 391.2C147.675 391.427 147.982 391.54 148.355 391.54C148.648 391.54 148.962 391.48 149.295 391.36ZM155.396 393.24C154.449 393.24 153.609 393.027 152.876 392.6C152.142 392.16 151.569 391.56 151.156 390.8C150.742 390.027 150.536 389.133 150.536 388.12C150.536 387.093 150.736 386.193 151.136 385.42C151.549 384.647 152.109 384.04 152.816 383.6C153.536 383.16 154.369 382.94 155.316 382.94C156.249 382.94 157.056 383.14 157.736 383.54C158.429 383.94 158.962 384.5 159.336 385.22C159.722 385.94 159.916 386.787 159.916 387.76V388.46L151.536 388.48L151.576 387.22H158.036C158.036 386.407 157.789 385.753 157.296 385.26C156.802 384.767 156.142 384.52 155.316 384.52C154.689 384.52 154.149 384.66 153.696 384.94C153.256 385.207 152.916 385.607 152.676 386.14C152.449 386.66 152.336 387.287 152.336 388.02C152.336 389.193 152.602 390.1 153.136 390.74C153.669 391.367 154.436 391.68 155.436 391.68C156.169 391.68 156.769 391.533 157.236 391.24C157.702 390.947 158.016 390.52 158.176 389.96H159.936C159.696 391 159.182 391.807 158.396 392.38C157.609 392.953 156.609 393.24 155.396 393.24ZM169.364 393H167.404V378.54H172.864C174.411 378.54 175.618 378.927 176.484 379.7C177.364 380.46 177.804 381.52 177.804 382.88C177.804 383.88 177.558 384.727 177.064 385.42C176.584 386.113 175.898 386.607 175.004 386.9L177.944 393H175.764L173.064 387.28H169.364V393ZM169.364 380.3V385.54H172.884C173.791 385.54 174.491 385.307 174.984 384.84C175.491 384.373 175.744 383.727 175.744 382.9C175.744 382.06 175.484 381.42 174.964 380.98C174.458 380.527 173.758 380.3 172.864 380.3H169.364ZM182.44 393.24C181.4 393.24 180.58 392.967 179.98 392.42C179.393 391.873 179.1 391.16 179.1 390.28C179.1 389.387 179.42 388.673 180.06 388.14C180.7 387.593 181.593 387.273 182.74 387.18L185.82 386.94V386.66C185.82 386.113 185.72 385.68 185.52 385.36C185.32 385.027 185.046 384.793 184.7 384.66C184.353 384.513 183.96 384.44 183.52 384.44C182.733 384.44 182.12 384.607 181.68 384.94C181.253 385.26 181.04 385.72 181.04 386.32H179.4C179.4 385.64 179.573 385.047 179.92 384.54C180.266 384.033 180.753 383.64 181.38 383.36C182.02 383.08 182.76 382.94 183.6 382.94C184.413 382.94 185.12 383.087 185.72 383.38C186.333 383.66 186.806 384.093 187.14 384.68C187.486 385.253 187.66 385.98 187.66 386.86V393H186.06L185.86 391.42C185.606 391.98 185.166 392.427 184.54 392.76C183.926 393.08 183.226 393.24 182.44 393.24ZM182.98 391.78C183.873 391.78 184.573 391.513 185.08 390.98C185.586 390.433 185.84 389.7 185.84 388.78V388.26L183.34 388.46C182.513 388.54 181.913 388.733 181.54 389.04C181.18 389.347 181 389.74 181 390.22C181 390.74 181.173 391.133 181.52 391.4C181.88 391.653 182.366 391.78 182.98 391.78ZM188.867 383.22H194.547V384.8H188.867V383.22ZM194.467 391.36L194.707 392.92C194.2 393.12 193.66 393.22 193.087 393.22C192.514 393.22 192.027 393.113 191.627 392.9C191.227 392.673 190.92 392.34 190.707 391.9C190.494 391.46 190.387 390.913 190.387 390.26V380.16H192.267V390C192.267 390.56 192.38 390.96 192.607 391.2C192.847 391.427 193.154 391.54 193.527 391.54C193.82 391.54 194.134 391.48 194.467 391.36ZM200.567 393.24C199.621 393.24 198.781 393.027 198.047 392.6C197.314 392.16 196.741 391.56 196.327 390.8C195.914 390.027 195.707 389.133 195.707 388.12C195.707 387.093 195.907 386.193 196.307 385.42C196.721 384.647 197.281 384.04 197.987 383.6C198.707 383.16 199.541 382.94 200.487 382.94C201.421 382.94 202.227 383.14 202.907 383.54C203.601 383.94 204.134 384.5 204.507 385.22C204.894 385.94 205.087 386.787 205.087 387.76V388.46L196.707 388.48L196.747 387.22H203.207C203.207 386.407 202.961 385.753 202.467 385.26C201.974 384.767 201.314 384.52 200.487 384.52C199.861 384.52 199.321 384.66 198.867 384.94C198.427 385.207 198.087 385.607 197.847 386.14C197.621 386.66 197.507 387.287 197.507 388.02C197.507 389.193 197.774 390.1 198.307 390.74C198.841 391.367 199.607 391.68 200.607 391.68C201.341 391.68 201.941 391.533 202.407 391.24C202.874 390.947 203.187 390.52 203.347 389.96H205.107C204.867 391 204.354 391.807 203.567 392.38C202.781 392.953 201.781 393.24 200.567 393.24Z" fill="#0D0D0D"/>
<rect x="103.625" y="407" width="72" height="25" rx="8" fill="#D0E3D4"/>
<path d="M118.125 416.195V423.71H116.925V416.195H118.125ZM113.775 419.345H121.275V420.545H113.775V419.345ZM130.098 415.34L126.123 419.135L125.163 418.415L129.003 414.725L128.928 415.46H123.363V414.155H130.098V415.34ZM126.243 419.39H125.163V418.415C125.333 418.305 125.543 418.235 125.793 418.205C126.053 418.165 126.303 418.145 126.543 418.145C127.073 418.145 127.568 418.225 128.028 418.385C128.488 418.535 128.893 418.76 129.243 419.06C129.603 419.36 129.878 419.725 130.068 420.155C130.268 420.575 130.368 421.055 130.368 421.595C130.368 422.325 130.198 422.96 129.858 423.5C129.528 424.04 129.068 424.455 128.478 424.745C127.898 425.035 127.243 425.18 126.513 425.18C125.803 425.18 125.173 425.04 124.623 424.76C124.073 424.48 123.638 424.075 123.318 423.545C123.008 423.005 122.853 422.365 122.853 421.625H124.308C124.308 422.325 124.508 422.875 124.908 423.275C125.318 423.665 125.863 423.86 126.543 423.86C127.243 423.86 127.803 423.65 128.223 423.23C128.653 422.81 128.868 422.255 128.868 421.565C128.868 420.915 128.648 420.39 128.208 419.99C127.768 419.59 127.113 419.39 126.243 419.39ZM132.674 425.18C132.384 425.18 132.129 425.08 131.909 424.88C131.699 424.67 131.594 424.42 131.594 424.13C131.594 423.83 131.699 423.58 131.909 423.38C132.129 423.17 132.384 423.065 132.674 423.065C132.964 423.065 133.214 423.17 133.424 423.38C133.634 423.58 133.739 423.83 133.739 424.13C133.739 424.42 133.634 424.67 133.424 424.88C133.214 425.08 132.964 425.18 132.674 425.18ZM141.344 421.565L138.809 425H137.099L140.204 420.875L140.534 420.98C140.244 421.19 139.939 421.35 139.619 421.46C139.309 421.57 138.994 421.625 138.674 421.625C137.924 421.625 137.264 421.46 136.694 421.13C136.134 420.8 135.694 420.35 135.374 419.78C135.064 419.21 134.909 418.565 134.909 417.845C134.909 417.095 135.079 416.43 135.419 415.85C135.769 415.26 136.239 414.8 136.829 414.47C137.429 414.13 138.104 413.96 138.854 413.96C139.604 413.96 140.279 414.135 140.879 414.485C141.489 414.825 141.969 415.29 142.319 415.88C142.669 416.46 142.844 417.12 142.844 417.86C142.844 418.28 142.794 418.68 142.694 419.06C142.604 419.43 142.449 419.815 142.229 420.215C142.009 420.605 141.714 421.055 141.344 421.565ZM141.344 417.845C141.344 417.345 141.239 416.905 141.029 416.525C140.819 416.135 140.524 415.83 140.144 415.61C139.774 415.39 139.344 415.28 138.854 415.28C138.374 415.28 137.949 415.39 137.579 415.61C137.209 415.83 136.919 416.135 136.709 416.525C136.499 416.905 136.394 417.345 136.394 417.845C136.394 418.335 136.499 418.775 136.709 419.165C136.919 419.545 137.209 419.845 137.579 420.065C137.949 420.275 138.374 420.38 138.854 420.38C139.344 420.38 139.774 420.275 140.144 420.065C140.524 419.845 140.819 419.545 141.029 419.165C141.239 418.775 141.344 418.335 141.344 417.845ZM145.159 425H143.539L146.104 421.37L143.554 417.665H145.189L147.049 420.395L148.864 417.665H150.469L147.919 421.37L150.424 425H148.789L146.959 422.315L145.159 425Z" fill="#009D24"/>
<path d="M158.875 424.167V424.917H160.375V424.167H158.875ZM160.375 414.834C160.375 414.419 160.039 414.084 159.625 414.084C159.211 414.084 158.875 414.419 158.875 414.834H160.375ZM159.625 424.167H160.375V414.834H159.625H158.875V424.167H159.625Z" fill="#009D24"/>
<path d="M163.095 419.363L163.625 419.894L164.686 418.833L164.155 418.303L163.095 419.363ZM160.155 414.303C159.862 414.01 159.388 414.01 159.095 414.303C158.802 414.596 158.802 415.07 159.095 415.363L160.155 414.303ZM163.625 418.833L164.155 418.303L160.155 414.303L159.625 414.833L159.095 415.363L163.095 419.363L163.625 418.833Z" fill="#009D24"/>
<path d="M155.095 418.303L154.564 418.833L155.625 419.894L156.155 419.363L155.095 418.303ZM160.155 415.363C160.448 415.07 160.448 414.596 160.155 414.303C159.862 414.01 159.388 414.01 159.095 414.303L160.155 415.363ZM155.625 418.833L156.155 419.363L160.155 415.363L159.625 414.833L159.095 414.303L155.095 418.303L155.625 418.833Z" fill="#009D24"/>
<rect x="319.25" y="298" width="129.625" height="57" rx="12" fill="#D1D1D1"/>
<path d="M373.923 315.192H376.303C376.303 316.107 376.144 316.919 375.827 317.628C375.528 318.319 375.099 318.869 374.539 319.28C373.979 319.672 373.307 319.868 372.523 319.868C371.851 319.868 371.225 319.756 370.647 319.532C370.087 319.289 369.555 319.019 369.051 318.72C368.565 318.403 368.089 318.132 367.623 317.908C367.175 317.665 366.727 317.544 366.279 317.544C365.7 317.544 365.289 317.731 365.047 318.104C364.804 318.459 364.683 318.963 364.683 319.616H362.303C362.303 318.739 362.452 317.964 362.751 317.292C363.068 316.601 363.507 316.06 364.067 315.668C364.645 315.257 365.317 315.052 366.083 315.052C366.717 315.052 367.305 315.173 367.847 315.416C368.407 315.64 368.939 315.911 369.443 316.228C369.947 316.527 370.432 316.797 370.899 317.04C371.365 317.283 371.841 317.404 372.327 317.404C372.905 317.404 373.316 317.217 373.559 316.844C373.801 316.452 373.923 315.901 373.923 315.192ZM392.127 308.192L384.735 315.136L382.663 313.624L389.831 306.904L389.467 308.444H379.359V305.644H392.127V308.192ZM384.903 315.696H382.663V313.624C382.999 313.381 383.428 313.223 383.951 313.148C384.474 313.055 384.978 313.008 385.463 313.008C386.452 313.008 387.376 313.157 388.235 313.456C389.112 313.736 389.887 314.165 390.559 314.744C391.231 315.304 391.754 315.995 392.127 316.816C392.5 317.619 392.687 318.533 392.687 319.56C392.687 320.941 392.36 322.145 391.707 323.172C391.072 324.18 390.204 324.964 389.103 325.524C388.002 326.084 386.76 326.364 385.379 326.364C384.054 326.364 382.859 326.103 381.795 325.58C380.75 325.039 379.919 324.264 379.303 323.256C378.706 322.229 378.407 321.007 378.407 319.588H381.543C381.543 320.839 381.898 321.809 382.607 322.5C383.316 323.191 384.259 323.536 385.435 323.536C386.648 323.536 387.619 323.172 388.347 322.444C389.094 321.697 389.467 320.727 389.467 319.532C389.467 318.393 389.084 317.469 388.319 316.76C387.572 316.051 386.434 315.696 384.903 315.696ZM397.708 326H394.684V305.28H397.708V318.356L403.448 312.252H407.228L401.992 317.712L407.144 326H403.672L399.892 319.924L397.708 322.192V326Z" fill="#0D0D0D"/>
<rect x="468.875" y="319" width="129.625" height="36" rx="12" fill="#AEAEAE"/>
<path d="M516.048 315.192H518.428C518.428 316.107 518.269 316.919 517.952 317.628C517.653 318.319 517.224 318.869 516.664 319.28C516.104 319.672 515.432 319.868 514.648 319.868C513.976 319.868 513.35 319.756 512.772 319.532C512.212 319.289 511.68 319.019 511.176 318.72C510.69 318.403 510.214 318.132 509.748 317.908C509.3 317.665 508.852 317.544 508.404 317.544C507.825 317.544 507.414 317.731 507.172 318.104C506.929 318.459 506.808 318.963 506.808 319.616H504.428C504.428 318.739 504.577 317.964 504.876 317.292C505.193 316.601 505.632 316.06 506.192 315.668C506.77 315.257 507.442 315.052 508.208 315.052C508.842 315.052 509.43 315.173 509.972 315.416C510.532 315.64 511.064 315.911 511.568 316.228C512.072 316.527 512.557 316.797 513.024 317.04C513.49 317.283 513.966 317.404 514.452 317.404C515.03 317.404 515.441 317.217 515.684 316.844C515.926 316.452 516.048 315.901 516.048 315.192ZM535.036 325.972L521.12 326V323.592L527.728 317.964C528.493 317.329 529.128 316.751 529.632 316.228C530.136 315.705 530.537 315.22 530.836 314.772C531.135 314.324 531.349 313.876 531.48 313.428C531.611 312.961 531.676 312.476 531.676 311.972C531.676 310.759 531.349 309.816 530.696 309.144C530.061 308.453 529.175 308.108 528.036 308.108C526.841 308.108 525.889 308.509 525.18 309.312C524.489 310.096 524.125 311.179 524.088 312.56H520.952C520.971 311.085 521.279 309.807 521.876 308.724C522.473 307.623 523.295 306.773 524.34 306.176C525.404 305.579 526.636 305.28 528.036 305.28C529.455 305.28 530.668 305.541 531.676 306.064C532.703 306.587 533.496 307.333 534.056 308.304C534.616 309.275 534.896 310.432 534.896 311.776C534.896 312.485 534.803 313.167 534.616 313.82C534.429 314.455 534.14 315.08 533.748 315.696C533.356 316.312 532.852 316.947 532.236 317.6C531.639 318.235 530.911 318.916 530.052 319.644L524.928 324.04L523.836 323.032H535.036V325.972ZM539.566 326.336C538.968 326.336 538.455 326.131 538.026 325.72C537.615 325.309 537.41 324.824 537.41 324.264C537.41 323.667 537.615 323.163 538.026 322.752C538.455 322.341 538.968 322.136 539.566 322.136C540.144 322.136 540.639 322.341 541.05 322.752C541.479 323.163 541.694 323.667 541.694 324.264C541.694 324.824 541.479 325.309 541.05 325.72C540.639 326.131 540.144 326.336 539.566 326.336ZM545.484 308.472H541.116V305.644H548.536V326H545.484V308.472ZM554.888 326H551.864V305.28H554.888V318.356L560.628 312.252H564.408L559.172 317.712L564.324 326H560.852L557.072 319.924L554.888 322.192V326Z" fill="#0D0D0D"/>
<path d="M390.185 378.54V393H388.225V378.54H390.185ZM394.917 393H393.037V383.22H394.737L394.937 384.72C395.243 384.16 395.683 383.727 396.257 383.42C396.843 383.1 397.483 382.94 398.177 382.94C399.457 382.94 400.403 383.307 401.017 384.04C401.63 384.773 401.937 385.767 401.937 387.02V393H400.057V387.44C400.057 386.453 399.843 385.747 399.417 385.32C398.99 384.88 398.417 384.66 397.697 384.66C396.817 384.66 396.13 384.947 395.637 385.52C395.157 386.093 394.917 386.86 394.917 387.82V393ZM403.7 388.12C403.7 387.093 403.9 386.193 404.3 385.42C404.714 384.647 405.28 384.04 406 383.6C406.72 383.16 407.554 382.94 408.5 382.94C409.727 382.94 410.747 383.267 411.56 383.92C412.374 384.573 412.86 385.44 413.02 386.52H411.14C410.98 385.893 410.667 385.42 410.2 385.1C409.734 384.78 409.187 384.62 408.56 384.62C407.974 384.62 407.454 384.767 407 385.06C406.547 385.34 406.194 385.74 405.94 386.26C405.687 386.78 405.56 387.393 405.56 388.1C405.56 388.807 405.68 389.42 405.92 389.94C406.16 390.447 406.5 390.847 406.94 391.14C407.38 391.42 407.894 391.56 408.48 391.56C409.147 391.56 409.72 391.393 410.2 391.06C410.68 390.727 411 390.273 411.16 389.7H413.04C412.92 390.407 412.647 391.027 412.22 391.56C411.807 392.08 411.274 392.493 410.62 392.8C409.98 393.093 409.267 393.24 408.48 393.24C407.52 393.24 406.68 393.027 405.96 392.6C405.254 392.173 404.7 391.58 404.3 390.82C403.9 390.047 403.7 389.147 403.7 388.12ZM414.184 388.1C414.184 387.1 414.404 386.213 414.844 385.44C415.284 384.667 415.884 384.06 416.644 383.62C417.417 383.18 418.297 382.96 419.284 382.96C420.271 382.96 421.144 383.18 421.904 383.62C422.664 384.06 423.264 384.667 423.704 385.44C424.144 386.213 424.364 387.1 424.364 388.1C424.364 389.1 424.144 389.987 423.704 390.76C423.264 391.533 422.664 392.14 421.904 392.58C421.144 393.02 420.271 393.24 419.284 393.24C418.297 393.24 417.417 393.02 416.644 392.58C415.884 392.14 415.284 391.533 414.844 390.76C414.404 389.987 414.184 389.1 414.184 388.1ZM416.084 388.1C416.084 388.78 416.217 389.38 416.484 389.9C416.764 390.42 417.144 390.827 417.624 391.12C418.104 391.413 418.657 391.56 419.284 391.56C419.911 391.56 420.464 391.413 420.944 391.12C421.424 390.827 421.797 390.42 422.064 389.9C422.344 389.38 422.484 388.78 422.484 388.1C422.484 387.407 422.344 386.807 422.064 386.3C421.797 385.78 421.424 385.373 420.944 385.08C420.464 384.787 419.911 384.64 419.284 384.64C418.657 384.64 418.104 384.787 417.624 385.08C417.144 385.373 416.764 385.78 416.484 386.3C416.217 386.807 416.084 387.407 416.084 388.1ZM428.125 393H426.245V383.22H427.925L428.185 385.02L427.945 384.86C428.145 384.313 428.512 383.86 429.045 383.5C429.592 383.127 430.252 382.94 431.025 382.94C431.892 382.94 432.612 383.173 433.185 383.64C433.758 384.107 434.132 384.727 434.305 385.5H433.965C434.098 384.727 434.465 384.107 435.065 383.64C435.665 383.173 436.405 382.94 437.285 382.94C438.405 382.94 439.285 383.267 439.925 383.92C440.565 384.573 440.885 385.467 440.885 386.6V393H439.045V387.06C439.045 386.287 438.845 385.693 438.445 385.28C438.058 384.853 437.532 384.64 436.865 384.64C436.398 384.64 435.985 384.747 435.625 384.96C435.278 385.16 435.005 385.453 434.805 385.84C434.605 386.227 434.505 386.68 434.505 387.2V393H432.645V387.04C432.645 386.267 432.452 385.68 432.065 385.28C431.678 384.867 431.152 384.66 430.485 384.66C430.018 384.66 429.605 384.767 429.245 384.98C428.898 385.18 428.625 385.473 428.425 385.86C428.225 386.233 428.125 386.68 428.125 387.2V393ZM443.291 397.38V383.22H444.991L445.131 384.98C445.451 384.3 445.925 383.793 446.551 383.46C447.191 383.113 447.898 382.94 448.671 382.94C449.605 382.94 450.411 383.16 451.091 383.6C451.771 384.027 452.291 384.627 452.651 385.4C453.025 386.16 453.211 387.04 453.211 388.04C453.211 389.04 453.031 389.933 452.671 390.72C452.325 391.507 451.811 392.127 451.131 392.58C450.465 393.033 449.645 393.26 448.671 393.26C447.885 393.26 447.185 393.1 446.571 392.78C445.958 392.46 445.491 392 445.171 391.4V397.38H443.291ZM445.191 388.12C445.191 388.773 445.311 389.367 445.551 389.9C445.805 390.42 446.158 390.827 446.611 391.12C447.078 391.413 447.631 391.56 448.271 391.56C448.911 391.56 449.458 391.413 449.911 391.12C450.365 390.813 450.711 390.4 450.951 389.88C451.205 389.36 451.331 388.773 451.331 388.12C451.331 387.44 451.205 386.84 450.951 386.32C450.711 385.8 450.365 385.393 449.911 385.1C449.458 384.807 448.911 384.66 448.271 384.66C447.631 384.66 447.078 384.807 446.611 385.1C446.158 385.393 445.805 385.8 445.551 386.32C445.311 386.84 445.191 387.44 445.191 388.12ZM457.003 393H455.123V378.28H457.003V393ZM463.791 393.24C462.844 393.24 462.004 393.027 461.271 392.6C460.538 392.16 459.964 391.56 459.551 390.8C459.138 390.027 458.931 389.133 458.931 388.12C458.931 387.093 459.131 386.193 459.531 385.42C459.944 384.647 460.504 384.04 461.211 383.6C461.931 383.16 462.764 382.94 463.711 382.94C464.644 382.94 465.451 383.14 466.131 383.54C466.824 383.94 467.358 384.5 467.731 385.22C468.118 385.94 468.311 386.787 468.311 387.76V388.46L459.931 388.48L459.971 387.22H466.431C466.431 386.407 466.184 385.753 465.691 385.26C465.198 384.767 464.538 384.52 463.711 384.52C463.084 384.52 462.544 384.66 462.091 384.94C461.651 385.207 461.311 385.607 461.071 386.14C460.844 386.66 460.731 387.287 460.731 388.02C460.731 389.193 460.998 390.1 461.531 390.74C462.064 391.367 462.831 391.68 463.831 391.68C464.564 391.68 465.164 391.533 465.631 391.24C466.098 390.947 466.411 390.52 466.571 389.96H468.331C468.091 391 467.578 391.807 466.791 392.38C466.004 392.953 465.004 393.24 463.791 393.24ZM469.073 383.22H474.753V384.8H469.073V383.22ZM474.673 391.36L474.913 392.92C474.406 393.12 473.866 393.22 473.293 393.22C472.72 393.22 472.233 393.113 471.833 392.9C471.433 392.673 471.126 392.34 470.913 391.9C470.7 391.46 470.593 390.913 470.593 390.26V380.16H472.473V390C472.473 390.56 472.586 390.96 472.813 391.2C473.053 391.427 473.36 391.54 473.733 391.54C474.026 391.54 474.34 391.48 474.673 391.36ZM480.774 393.24C479.827 393.24 478.987 393.027 478.254 392.6C477.52 392.16 476.947 391.56 476.534 390.8C476.12 390.027 475.914 389.133 475.914 388.12C475.914 387.093 476.114 386.193 476.514 385.42C476.927 384.647 477.487 384.04 478.194 383.6C478.914 383.16 479.747 382.94 480.694 382.94C481.627 382.94 482.434 383.14 483.114 383.54C483.807 383.94 484.34 384.5 484.714 385.22C485.1 385.94 485.294 386.787 485.294 387.76V388.46L476.914 388.48L476.954 387.22H483.414C483.414 386.407 483.167 385.753 482.674 385.26C482.18 384.767 481.52 384.52 480.694 384.52C480.067 384.52 479.527 384.66 479.074 384.94C478.634 385.207 478.294 385.607 478.054 386.14C477.827 386.66 477.714 387.287 477.714 388.02C477.714 389.193 477.98 390.1 478.514 390.74C479.047 391.367 479.814 391.68 480.814 391.68C481.547 391.68 482.147 391.533 482.614 391.24C483.08 390.947 483.394 390.52 483.554 389.96H485.314C485.074 391 484.56 391.807 483.774 392.38C482.987 392.953 481.987 393.24 480.774 393.24ZM494.742 393H492.782V378.54H498.242C499.789 378.54 500.996 378.927 501.862 379.7C502.742 380.46 503.182 381.52 503.182 382.88C503.182 383.88 502.936 384.727 502.442 385.42C501.962 386.113 501.276 386.607 500.382 386.9L503.322 393H501.142L498.442 387.28H494.742V393ZM494.742 380.3V385.54H498.262C499.169 385.54 499.869 385.307 500.362 384.84C500.869 384.373 501.122 383.727 501.122 382.9C501.122 382.06 500.862 381.42 500.342 380.98C499.836 380.527 499.136 380.3 498.242 380.3H494.742ZM507.818 393.24C506.778 393.24 505.958 392.967 505.358 392.42C504.771 391.873 504.478 391.16 504.478 390.28C504.478 389.387 504.798 388.673 505.438 388.14C506.078 387.593 506.971 387.273 508.118 387.18L511.198 386.94V386.66C511.198 386.113 511.098 385.68 510.898 385.36C510.698 385.027 510.424 384.793 510.078 384.66C509.731 384.513 509.338 384.44 508.898 384.44C508.111 384.44 507.498 384.607 507.058 384.94C506.631 385.26 506.418 385.72 506.418 386.32H504.778C504.778 385.64 504.951 385.047 505.298 384.54C505.644 384.033 506.131 383.64 506.758 383.36C507.398 383.08 508.138 382.94 508.978 382.94C509.791 382.94 510.498 383.087 511.098 383.38C511.711 383.66 512.184 384.093 512.518 384.68C512.864 385.253 513.038 385.98 513.038 386.86V393H511.438L511.238 391.42C510.984 391.98 510.544 392.427 509.918 392.76C509.304 393.08 508.604 393.24 507.818 393.24ZM508.358 391.78C509.251 391.78 509.951 391.513 510.458 390.98C510.964 390.433 511.218 389.7 511.218 388.78V388.26L508.718 388.46C507.891 388.54 507.291 388.733 506.918 389.04C506.558 389.347 506.378 389.74 506.378 390.22C506.378 390.74 506.551 391.133 506.898 391.4C507.258 391.653 507.744 391.78 508.358 391.78ZM514.245 383.22H519.925V384.8H514.245V383.22ZM519.845 391.36L520.085 392.92C519.578 393.12 519.038 393.22 518.465 393.22C517.892 393.22 517.405 393.113 517.005 392.9C516.605 392.673 516.298 392.34 516.085 391.9C515.872 391.46 515.765 390.913 515.765 390.26V380.16H517.645V390C517.645 390.56 517.758 390.96 517.985 391.2C518.225 391.427 518.532 391.54 518.905 391.54C519.198 391.54 519.512 391.48 519.845 391.36ZM525.946 393.24C524.999 393.24 524.159 393.027 523.426 392.6C522.692 392.16 522.119 391.56 521.706 390.8C521.292 390.027 521.086 389.133 521.086 388.12C521.086 387.093 521.286 386.193 521.686 385.42C522.099 384.647 522.659 384.04 523.366 383.6C524.086 383.16 524.919 382.94 525.866 382.94C526.799 382.94 527.606 383.14 528.286 383.54C528.979 383.94 529.512 384.5 529.886 385.22C530.272 385.94 530.466 386.787 530.466 387.76V388.46L522.086 388.48L522.126 387.22H528.586C528.586 386.407 528.339 385.753 527.846 385.26C527.352 384.767 526.692 384.52 525.866 384.52C525.239 384.52 524.699 384.66 524.246 384.94C523.806 385.207 523.466 385.607 523.226 386.14C522.999 386.66 522.886 387.287 522.886 388.02C522.886 389.193 523.152 390.1 523.686 390.74C524.219 391.367 524.986 391.68 525.986 391.68C526.719 391.68 527.319 391.533 527.786 391.24C528.252 390.947 528.566 390.52 528.726 389.96H530.486C530.246 391 529.732 391.807 528.946 392.38C528.159 392.953 527.159 393.24 525.946 393.24Z" fill="#0D0D0D"/>
<rect x="426.875" y="407" width="64" height="25" rx="8" fill="#D0E3D4"/>
<path d="M436.212 421.655V420.395H440.787V421.655H436.212ZM443.505 415.475H441.225V414.155H444.915V425H443.505V415.475ZM448.158 425.18C447.868 425.18 447.613 425.08 447.393 424.88C447.183 424.67 447.078 424.42 447.078 424.13C447.078 423.83 447.183 423.58 447.393 423.38C447.613 423.17 447.868 423.065 448.158 423.065C448.448 423.065 448.698 423.17 448.908 423.38C449.118 423.58 449.223 423.83 449.223 424.13C449.223 424.42 449.118 424.67 448.908 424.88C448.698 425.08 448.448 425.18 448.158 425.18ZM454.231 425.18C453.491 425.18 452.846 425.035 452.296 424.745C451.756 424.445 451.331 424.03 451.021 423.5C450.721 422.96 450.571 422.33 450.571 421.61H452.026C452.026 422.31 452.226 422.86 452.626 423.26C453.026 423.66 453.571 423.86 454.261 423.86C454.751 423.86 455.176 423.76 455.536 423.56C455.896 423.35 456.176 423.065 456.376 422.705C456.576 422.335 456.676 421.905 456.676 421.415C456.676 420.945 456.581 420.53 456.391 420.17C456.201 419.8 455.926 419.51 455.566 419.3C455.216 419.09 454.786 418.985 454.276 418.985C453.826 418.985 453.401 419.085 453.001 419.285C452.601 419.475 452.276 419.725 452.026 420.035L450.781 419.72L452.101 414.155H457.531V415.505H452.641L453.316 414.905L452.311 418.94L451.816 419.045C452.096 418.615 452.476 418.29 452.956 418.07C453.436 417.84 453.966 417.725 454.546 417.725C455.286 417.725 455.926 417.885 456.466 418.205C457.006 418.515 457.426 418.945 457.726 419.495C458.026 420.045 458.176 420.665 458.176 421.355C458.176 422.105 458.006 422.77 457.666 423.35C457.336 423.92 456.876 424.37 456.286 424.7C455.706 425.02 455.021 425.18 454.231 425.18ZM460.409 425H458.789L461.354 421.37L458.804 417.665H460.439L462.299 420.395L464.114 417.665H465.719L463.169 421.37L465.674 425H464.039L462.209 422.315L460.409 425Z" fill="#009D24"/>
<path d="M475.625 414.833V414.083H474.125V414.833H475.625ZM474.125 424.166C474.125 424.581 474.461 424.916 474.875 424.916C475.289 424.916 475.625 424.581 475.625 424.166H474.125ZM474.875 414.833H474.125V424.166H474.875H475.625V414.833H474.875Z" fill="#009D24"/>
<path d="M471.405 419.637L470.875 419.106L469.814 420.167L470.345 420.697L471.405 419.637ZM474.345 424.697C474.638 424.99 475.112 424.99 475.405 424.697C475.698 424.404 475.698 423.93 475.405 423.637L474.345 424.697ZM470.875 420.167L470.345 420.697L474.345 424.697L474.875 424.167L475.405 423.637L471.405 419.637L470.875 420.167Z" fill="#009D24"/>
<path d="M479.405 420.697L479.936 420.167L478.875 419.106L478.345 419.637L479.405 420.697ZM474.345 423.637C474.052 423.93 474.052 424.404 474.345 424.697C474.638 424.99 475.112 424.99 475.405 424.697L474.345 423.637ZM478.875 420.167L478.345 419.637L474.345 423.637L474.875 424.167L475.405 424.697L479.405 420.697L478.875 420.167Z" fill="#009D24"/>
<rect x="638.5" y="91" width="1" height="268" rx="0.5" fill="#D1D1D1"/>
<rect x="679.5" y="308" width="129.625" height="47" rx="12" fill="#D1D1D1"/>
<path d="M722.673 315.192H725.053C725.053 316.107 724.894 316.919 724.577 317.628C724.278 318.319 723.849 318.869 723.289 319.28C722.729 319.672 722.057 319.868 721.273 319.868C720.601 319.868 719.975 319.756 719.397 319.532C718.837 319.289 718.305 319.019 717.801 318.72C717.315 318.403 716.839 318.132 716.373 317.908C715.925 317.665 715.477 317.544 715.029 317.544C714.45 317.544 714.039 317.731 713.797 318.104C713.554 318.459 713.433 318.963 713.433 319.616H711.053C711.053 318.739 711.202 317.964 711.501 317.292C711.818 316.601 712.257 316.06 712.817 315.668C713.395 315.257 714.067 315.052 714.833 315.052C715.467 315.052 716.055 315.173 716.597 315.416C717.157 315.64 717.689 315.911 718.193 316.228C718.697 316.527 719.182 316.797 719.649 317.04C720.115 317.283 720.591 317.404 721.077 317.404C721.655 317.404 722.066 317.217 722.309 316.844C722.551 316.452 722.673 315.901 722.673 315.192ZM741.661 325.972L727.745 326V323.592L734.353 317.964C735.118 317.329 735.753 316.751 736.257 316.228C736.761 315.705 737.162 315.22 737.461 314.772C737.76 314.324 737.974 313.876 738.105 313.428C738.236 312.961 738.301 312.476 738.301 311.972C738.301 310.759 737.974 309.816 737.321 309.144C736.686 308.453 735.8 308.108 734.661 308.108C733.466 308.108 732.514 308.509 731.805 309.312C731.114 310.096 730.75 311.179 730.713 312.56H727.577C727.596 311.085 727.904 309.807 728.501 308.724C729.098 307.623 729.92 306.773 730.965 306.176C732.029 305.579 733.261 305.28 734.661 305.28C736.08 305.28 737.293 305.541 738.301 306.064C739.328 306.587 740.121 307.333 740.681 308.304C741.241 309.275 741.521 310.432 741.521 311.776C741.521 312.485 741.428 313.167 741.241 313.82C741.054 314.455 740.765 315.08 740.373 315.696C739.981 316.312 739.477 316.947 738.861 317.6C738.264 318.235 737.536 318.916 736.677 319.644L731.553 324.04L730.461 323.032H741.661V325.972ZM746.191 326.336C745.593 326.336 745.08 326.131 744.651 325.72C744.24 325.309 744.035 324.824 744.035 324.264C744.035 323.667 744.24 323.163 744.651 322.752C745.08 322.341 745.593 322.136 746.191 322.136C746.769 322.136 747.264 322.341 747.675 322.752C748.104 323.163 748.319 323.667 748.319 324.264C748.319 324.824 748.104 325.309 747.675 325.72C747.264 326.131 746.769 326.336 746.191 326.336ZM757.017 326.336C755.617 326.336 754.385 326.056 753.321 325.496C752.275 324.936 751.463 324.152 750.885 323.144C750.325 322.117 750.045 320.923 750.045 319.56H753.153C753.153 320.792 753.498 321.763 754.189 322.472C754.898 323.163 755.859 323.508 757.073 323.508C757.931 323.508 758.669 323.331 759.285 322.976C759.919 322.621 760.414 322.127 760.769 321.492C761.123 320.839 761.301 320.073 761.301 319.196C761.301 318.356 761.133 317.619 760.797 316.984C760.461 316.349 759.985 315.855 759.369 315.5C758.753 315.127 757.997 314.94 757.101 314.94C756.298 314.94 755.542 315.117 754.833 315.472C754.123 315.827 753.563 316.284 753.153 316.844L750.409 316.2L752.901 305.644H763.289V308.556H754.245L755.477 307.436L753.713 314.464L752.649 314.8C753.134 313.979 753.825 313.353 754.721 312.924C755.617 312.476 756.625 312.252 757.745 312.252C759.107 312.252 760.293 312.541 761.301 313.12C762.327 313.699 763.121 314.501 763.681 315.528C764.241 316.555 764.521 317.731 764.521 319.056C764.521 320.493 764.203 321.763 763.569 322.864C762.934 323.947 762.057 324.796 760.937 325.412C759.817 326.028 758.51 326.336 757.017 326.336ZM769.524 326H766.5V305.28H769.524V318.356L775.264 312.252H779.044L773.808 317.712L778.96 326H775.488L771.708 319.924L769.524 322.192V326Z" fill="#0D0D0D"/>
<rect x="829.125" y="91" width="129.625" height="264" rx="12" fill="#AEAEAE"/>
<path d="M877.798 315.192H880.178C880.178 316.107 880.019 316.919 879.702 317.628C879.403 318.319 878.974 318.869 878.414 319.28C877.854 319.672 877.182 319.868 876.398 319.868C875.726 319.868 875.1 319.756 874.522 319.532C873.962 319.289 873.43 319.019 872.926 318.72C872.44 318.403 871.964 318.132 871.498 317.908C871.05 317.665 870.602 317.544 870.154 317.544C869.575 317.544 869.164 317.731 868.922 318.104C868.679 318.459 868.558 318.963 868.558 319.616H866.178C866.178 318.739 866.327 317.964 866.626 317.292C866.943 316.601 867.382 316.06 867.942 315.668C868.52 315.257 869.192 315.052 869.958 315.052C870.592 315.052 871.18 315.173 871.722 315.416C872.282 315.64 872.814 315.911 873.318 316.228C873.822 316.527 874.307 316.797 874.774 317.04C875.24 317.283 875.716 317.404 876.202 317.404C876.78 317.404 877.191 317.217 877.434 316.844C877.676 316.452 877.798 315.901 877.798 315.192ZM886.902 308.472H882.534V305.644H889.954V326H886.902V308.472ZM905.714 305.644V326H902.69V305.644H905.714ZM892.274 319.224L901.682 305.644H905.042L895.522 319.42L892.274 319.224ZM908.15 322.024H892.274V319.224H908.15V322.024ZM913.403 326H910.379V305.28H913.403V318.356L919.143 312.252H922.923L917.687 317.712L922.839 326H919.367L915.587 319.924L913.403 322.192V326Z" fill="#0D0D0D"/>
<path d="M760.603 393.22C759.229 393.22 758.029 392.913 757.003 392.3C755.976 391.673 755.176 390.807 754.603 389.7C754.029 388.58 753.743 387.273 753.743 385.78C753.743 384.287 754.036 382.98 754.623 381.86C755.209 380.74 756.023 379.867 757.063 379.24C758.116 378.613 759.329 378.3 760.703 378.3C761.796 378.3 762.783 378.507 763.663 378.92C764.543 379.32 765.276 379.887 765.863 380.62C766.449 381.353 766.829 382.213 767.003 383.2H764.903C764.636 382.253 764.123 381.513 763.363 380.98C762.603 380.447 761.696 380.18 760.643 380.18C759.669 380.18 758.816 380.413 758.083 380.88C757.363 381.333 756.803 381.98 756.403 382.82C756.003 383.647 755.803 384.627 755.803 385.76C755.803 386.88 756.003 387.86 756.403 388.7C756.803 389.54 757.369 390.193 758.103 390.66C758.836 391.113 759.683 391.34 760.643 391.34C761.709 391.34 762.629 391.08 763.403 390.56C764.189 390.027 764.716 389.313 764.983 388.42H767.063C766.863 389.38 766.456 390.22 765.843 390.94C765.243 391.66 764.489 392.22 763.583 392.62C762.689 393.02 761.696 393.22 760.603 393.22ZM768.306 388.1C768.306 387.1 768.526 386.213 768.966 385.44C769.406 384.667 770.006 384.06 770.766 383.62C771.539 383.18 772.419 382.96 773.406 382.96C774.393 382.96 775.266 383.18 776.026 383.62C776.786 384.06 777.386 384.667 777.826 385.44C778.266 386.213 778.486 387.1 778.486 388.1C778.486 389.1 778.266 389.987 777.826 390.76C777.386 391.533 776.786 392.14 776.026 392.58C775.266 393.02 774.393 393.24 773.406 393.24C772.419 393.24 771.539 393.02 770.766 392.58C770.006 392.14 769.406 391.533 768.966 390.76C768.526 389.987 768.306 389.1 768.306 388.1ZM770.206 388.1C770.206 388.78 770.339 389.38 770.606 389.9C770.886 390.42 771.266 390.827 771.746 391.12C772.226 391.413 772.779 391.56 773.406 391.56C774.033 391.56 774.586 391.413 775.066 391.12C775.546 390.827 775.919 390.42 776.186 389.9C776.466 389.38 776.606 388.78 776.606 388.1C776.606 387.407 776.466 386.807 776.186 386.3C775.919 385.78 775.546 385.373 775.066 385.08C774.586 384.787 774.033 384.64 773.406 384.64C772.779 384.64 772.226 384.787 771.746 385.08C771.266 385.373 770.886 385.78 770.606 386.3C770.339 386.807 770.206 387.407 770.206 388.1ZM782.247 393H780.367V383.22H782.047L782.307 385.02L782.067 384.86C782.267 384.313 782.634 383.86 783.167 383.5C783.714 383.127 784.374 382.94 785.147 382.94C786.014 382.94 786.734 383.173 787.307 383.64C787.88 384.107 788.254 384.727 788.427 385.5H788.087C788.22 384.727 788.587 384.107 789.187 383.64C789.787 383.173 790.527 382.94 791.407 382.94C792.527 382.94 793.407 383.267 794.047 383.92C794.687 384.573 795.007 385.467 795.007 386.6V393H793.167V387.06C793.167 386.287 792.967 385.693 792.567 385.28C792.18 384.853 791.654 384.64 790.987 384.64C790.52 384.64 790.107 384.747 789.747 384.96C789.4 385.16 789.127 385.453 788.927 385.84C788.727 386.227 788.627 386.68 788.627 387.2V393H786.767V387.04C786.767 386.267 786.574 385.68 786.187 385.28C785.8 384.867 785.274 384.66 784.607 384.66C784.14 384.66 783.727 384.767 783.367 384.98C783.02 385.18 782.747 385.473 782.547 385.86C782.347 386.233 782.247 386.68 782.247 387.2V393ZM797.413 397.38V383.22H799.113L799.253 384.98C799.573 384.3 800.046 383.793 800.673 383.46C801.313 383.113 802.02 382.94 802.793 382.94C803.726 382.94 804.533 383.16 805.213 383.6C805.893 384.027 806.413 384.627 806.773 385.4C807.146 386.16 807.333 387.04 807.333 388.04C807.333 389.04 807.153 389.933 806.793 390.72C806.446 391.507 805.933 392.127 805.253 392.58C804.586 393.033 803.766 393.26 802.793 393.26C802.006 393.26 801.306 393.1 800.693 392.78C800.08 392.46 799.613 392 799.293 391.4V397.38H797.413ZM799.313 388.12C799.313 388.773 799.433 389.367 799.673 389.9C799.926 390.42 800.28 390.827 800.733 391.12C801.2 391.413 801.753 391.56 802.393 391.56C803.033 391.56 803.58 391.413 804.033 391.12C804.486 390.813 804.833 390.4 805.073 389.88C805.326 389.36 805.453 388.773 805.453 388.12C805.453 387.44 805.326 386.84 805.073 386.32C804.833 385.8 804.486 385.393 804.033 385.1C803.58 384.807 803.033 384.66 802.393 384.66C801.753 384.66 801.2 384.807 800.733 385.1C800.28 385.393 799.926 385.8 799.673 386.32C799.433 386.84 799.313 387.44 799.313 388.12ZM811.125 393H809.245V378.28H811.125V393ZM817.913 393.24C816.966 393.24 816.126 393.027 815.393 392.6C814.659 392.16 814.086 391.56 813.673 390.8C813.259 390.027 813.053 389.133 813.053 388.12C813.053 387.093 813.253 386.193 813.653 385.42C814.066 384.647 814.626 384.04 815.333 383.6C816.053 383.16 816.886 382.94 817.833 382.94C818.766 382.94 819.573 383.14 820.253 383.54C820.946 383.94 821.479 384.5 821.853 385.22C822.239 385.94 822.433 386.787 822.433 387.76V388.46L814.053 388.48L814.093 387.22H820.553C820.553 386.407 820.306 385.753 819.813 385.26C819.319 384.767 818.659 384.52 817.833 384.52C817.206 384.52 816.666 384.66 816.213 384.94C815.773 385.207 815.433 385.607 815.193 386.14C814.966 386.66 814.853 387.287 814.853 388.02C814.853 389.193 815.119 390.1 815.653 390.74C816.186 391.367 816.953 391.68 817.953 391.68C818.686 391.68 819.286 391.533 819.753 391.24C820.219 390.947 820.533 390.52 820.693 389.96H822.453C822.213 391 821.699 391.807 820.913 392.38C820.126 392.953 819.126 393.24 817.913 393.24ZM823.195 383.22H828.875V384.8H823.195V383.22ZM828.795 391.36L829.035 392.92C828.528 393.12 827.988 393.22 827.415 393.22C826.842 393.22 826.355 393.113 825.955 392.9C825.555 392.673 825.248 392.34 825.035 391.9C824.822 391.46 824.715 390.913 824.715 390.26V380.16H826.595V390C826.595 390.56 826.708 390.96 826.935 391.2C827.175 391.427 827.482 391.54 827.855 391.54C828.148 391.54 828.462 391.48 828.795 391.36ZM834.896 393.24C833.949 393.24 833.109 393.027 832.376 392.6C831.642 392.16 831.069 391.56 830.656 390.8C830.242 390.027 830.036 389.133 830.036 388.12C830.036 387.093 830.236 386.193 830.636 385.42C831.049 384.647 831.609 384.04 832.316 383.6C833.036 383.16 833.869 382.94 834.816 382.94C835.749 382.94 836.556 383.14 837.236 383.54C837.929 383.94 838.462 384.5 838.836 385.22C839.222 385.94 839.416 386.787 839.416 387.76V388.46L831.036 388.48L831.076 387.22H837.536C837.536 386.407 837.289 385.753 836.796 385.26C836.302 384.767 835.642 384.52 834.816 384.52C834.189 384.52 833.649 384.66 833.196 384.94C832.756 385.207 832.416 385.607 832.176 386.14C831.949 386.66 831.836 387.287 831.836 388.02C831.836 389.193 832.102 390.1 832.636 390.74C833.169 391.367 833.936 391.68 834.936 391.68C835.669 391.68 836.269 391.533 836.736 391.24C837.202 390.947 837.516 390.52 837.676 389.96H839.436C839.196 391 838.682 391.807 837.896 392.38C837.109 392.953 836.109 393.24 834.896 393.24ZM848.864 393H846.904V378.54H852.364C853.911 378.54 855.118 378.927 855.984 379.7C856.864 380.46 857.304 381.52 857.304 382.88C857.304 383.88 857.058 384.727 856.564 385.42C856.084 386.113 855.398 386.607 854.504 386.9L857.444 393H855.264L852.564 387.28H848.864V393ZM848.864 380.3V385.54H852.384C853.291 385.54 853.991 385.307 854.484 384.84C854.991 384.373 855.244 383.727 855.244 382.9C855.244 382.06 854.984 381.42 854.464 380.98C853.958 380.527 853.258 380.3 852.364 380.3H848.864ZM861.94 393.24C860.9 393.24 860.08 392.967 859.48 392.42C858.893 391.873 858.6 391.16 858.6 390.28C858.6 389.387 858.92 388.673 859.56 388.14C860.2 387.593 861.093 387.273 862.24 387.18L865.32 386.94V386.66C865.32 386.113 865.22 385.68 865.02 385.36C864.82 385.027 864.546 384.793 864.2 384.66C863.853 384.513 863.46 384.44 863.02 384.44C862.233 384.44 861.62 384.607 861.18 384.94C860.753 385.26 860.54 385.72 860.54 386.32H858.9C858.9 385.64 859.073 385.047 859.42 384.54C859.766 384.033 860.253 383.64 860.88 383.36C861.52 383.08 862.26 382.94 863.1 382.94C863.913 382.94 864.62 383.087 865.22 383.38C865.833 383.66 866.306 384.093 866.64 384.68C866.986 385.253 867.16 385.98 867.16 386.86V393H865.56L865.36 391.42C865.106 391.98 864.666 392.427 864.04 392.76C863.426 393.08 862.726 393.24 861.94 393.24ZM862.48 391.78C863.373 391.78 864.073 391.513 864.58 390.98C865.086 390.433 865.34 389.7 865.34 388.78V388.26L862.84 388.46C862.013 388.54 861.413 388.733 861.04 389.04C860.68 389.347 860.5 389.74 860.5 390.22C860.5 390.74 860.673 391.133 861.02 391.4C861.38 391.653 861.866 391.78 862.48 391.78ZM868.367 383.22H874.047V384.8H868.367V383.22ZM873.967 391.36L874.207 392.92C873.7 393.12 873.16 393.22 872.587 393.22C872.014 393.22 871.527 393.113 871.127 392.9C870.727 392.673 870.42 392.34 870.207 391.9C869.994 391.46 869.887 390.913 869.887 390.26V380.16H871.767V390C871.767 390.56 871.88 390.96 872.107 391.2C872.347 391.427 872.654 391.54 873.027 391.54C873.32 391.54 873.634 391.48 873.967 391.36ZM880.067 393.24C879.121 393.24 878.281 393.027 877.547 392.6C876.814 392.16 876.241 391.56 875.827 390.8C875.414 390.027 875.207 389.133 875.207 388.12C875.207 387.093 875.407 386.193 875.807 385.42C876.221 384.647 876.781 384.04 877.487 383.6C878.207 383.16 879.041 382.94 879.987 382.94C880.921 382.94 881.727 383.14 882.407 383.54C883.101 383.94 883.634 384.5 884.007 385.22C884.394 385.94 884.587 386.787 884.587 387.76V388.46L876.207 388.48L876.247 387.22H882.707C882.707 386.407 882.461 385.753 881.967 385.26C881.474 384.767 880.814 384.52 879.987 384.52C879.361 384.52 878.821 384.66 878.367 384.94C877.927 385.207 877.587 385.607 877.347 386.14C877.121 386.66 877.007 387.287 877.007 388.02C877.007 389.193 877.274 390.1 877.807 390.74C878.341 391.367 879.107 391.68 880.107 391.68C880.841 391.68 881.441 391.533 881.907 391.24C882.374 390.947 882.687 390.52 882.847 389.96H884.607C884.367 391 883.854 391.807 883.067 392.38C882.281 392.953 881.281 393.24 880.067 393.24Z" fill="#0D0D0D"/>
<rect x="783.125" y="407" width="72" height="25" rx="8" fill="#D0E3D4"/>
<path d="M797.42 416.195V423.71H796.22V416.195H797.42ZM793.07 419.345H800.57V420.545H793.07V419.345ZM806.078 425.18C805.338 425.18 804.693 425.035 804.143 424.745C803.603 424.445 803.178 424.03 802.868 423.5C802.568 422.96 802.418 422.33 802.418 421.61H803.873C803.873 422.31 804.073 422.86 804.473 423.26C804.873 423.66 805.418 423.86 806.108 423.86C806.598 423.86 807.023 423.76 807.383 423.56C807.743 423.35 808.023 423.065 808.223 422.705C808.423 422.335 808.523 421.905 808.523 421.415C808.523 420.945 808.428 420.53 808.238 420.17C808.048 419.8 807.773 419.51 807.413 419.3C807.063 419.09 806.633 418.985 806.123 418.985C805.673 418.985 805.248 419.085 804.848 419.285C804.448 419.475 804.123 419.725 803.873 420.035L802.628 419.72L803.948 414.155H809.378V415.505H804.488L805.163 414.905L804.158 418.94L803.663 419.045C803.943 418.615 804.323 418.29 804.803 418.07C805.283 417.84 805.813 417.725 806.393 417.725C807.133 417.725 807.773 417.885 808.313 418.205C808.853 418.515 809.273 418.945 809.573 419.495C809.873 420.045 810.023 420.665 810.023 421.355C810.023 422.105 809.853 422.77 809.513 423.35C809.183 423.92 808.723 424.37 808.133 424.7C807.553 425.02 806.868 425.18 806.078 425.18ZM812.247 425.18C811.957 425.18 811.702 425.08 811.482 424.88C811.272 424.67 811.167 424.42 811.167 424.13C811.167 423.83 811.272 423.58 811.482 423.38C811.702 423.17 811.957 423.065 812.247 423.065C812.537 423.065 812.787 423.17 812.997 423.38C813.207 423.58 813.312 423.83 813.312 424.13C813.312 424.42 813.207 424.67 812.997 424.88C812.787 425.08 812.537 425.18 812.247 425.18ZM815.909 417.59L818.444 414.155H820.154L817.049 418.28L816.719 418.175C817.009 417.955 817.309 417.795 817.619 417.695C817.939 417.585 818.259 417.53 818.579 417.53C819.329 417.53 819.984 417.695 820.544 418.025C821.114 418.345 821.554 418.79 821.864 419.36C822.184 419.93 822.344 420.575 822.344 421.295C822.344 422.055 822.169 422.73 821.819 423.32C821.479 423.9 821.009 424.355 820.409 424.685C819.819 425.015 819.149 425.18 818.399 425.18C817.649 425.18 816.969 425.01 816.359 424.67C815.759 424.33 815.284 423.865 814.934 423.275C814.584 422.685 814.409 422.025 814.409 421.295C814.409 420.865 814.454 420.465 814.544 420.095C814.644 419.725 814.804 419.34 815.024 418.94C815.244 418.54 815.539 418.09 815.909 417.59ZM815.909 421.31C815.909 421.81 816.014 422.255 816.224 422.645C816.434 423.025 816.724 423.325 817.094 423.545C817.474 423.755 817.909 423.86 818.399 423.86C818.879 423.86 819.304 423.755 819.674 423.545C820.044 423.325 820.334 423.025 820.544 422.645C820.754 422.255 820.859 421.81 820.859 421.31C820.859 420.81 820.754 420.37 820.544 419.99C820.334 419.61 820.044 419.315 819.674 419.105C819.304 418.885 818.879 418.775 818.399 418.775C817.909 418.775 817.474 418.885 817.094 419.105C816.724 419.315 816.434 419.61 816.224 419.99C816.014 420.37 815.909 420.81 815.909 421.31ZM824.659 425H823.039L825.604 421.37L823.054 417.665H824.689L826.549 420.395L828.364 417.665H829.969L827.419 421.37L829.924 425H828.289L826.459 422.315L824.659 425Z" fill="#009D24"/>
<path d="M838.375 424.167V424.917H839.875V424.167H838.375ZM839.875 414.834C839.875 414.419 839.539 414.084 839.125 414.084C838.711 414.084 838.375 414.419 838.375 414.834H839.875ZM839.125 424.167H839.875V414.834H839.125H838.375V424.167H839.125Z" fill="#009D24"/>
<path d="M842.595 419.363L843.125 419.894L844.186 418.833L843.655 418.303L842.595 419.363ZM839.655 414.303C839.362 414.01 838.888 414.01 838.595 414.303C838.302 414.596 838.302 415.07 838.595 415.363L839.655 414.303ZM843.125 418.833L843.655 418.303L839.655 414.303L839.125 414.833L838.595 415.363L842.595 419.363L843.125 418.833Z" fill="#009D24"/>
<path d="M834.595 418.303L834.064 418.833L835.125 419.894L835.655 419.363L834.595 418.303ZM839.655 415.363C839.948 415.07 839.948 414.596 839.655 414.303C839.362 414.01 838.888 414.01 838.595 414.303L839.655 415.363ZM835.125 418.833L835.655 419.363L839.655 415.363L839.125 414.833L838.595 414.303L834.595 418.303L835.125 418.833Z" fill="#009D24"/>
<rect x="998.75" y="281" width="129.625" height="74" rx="12" fill="#D1D1D1"/>
<path d="M1045.42 315.192H1047.8C1047.8 316.107 1047.64 316.919 1047.33 317.628C1047.03 318.319 1046.6 318.869 1046.04 319.28C1045.48 319.672 1044.81 319.868 1044.02 319.868C1043.35 319.868 1042.73 319.756 1042.15 319.532C1041.59 319.289 1041.05 319.019 1040.55 318.72C1040.07 318.403 1039.59 318.132 1039.12 317.908C1038.67 317.665 1038.23 317.544 1037.78 317.544C1037.2 317.544 1036.79 317.731 1036.55 318.104C1036.3 318.459 1036.18 318.963 1036.18 319.616H1033.8C1033.8 318.739 1033.95 317.964 1034.25 317.292C1034.57 316.601 1035.01 316.06 1035.57 315.668C1036.15 315.257 1036.82 315.052 1037.58 315.052C1038.22 315.052 1038.81 315.173 1039.35 315.416C1039.91 315.64 1040.44 315.911 1040.94 316.228C1041.45 316.527 1041.93 316.797 1042.4 317.04C1042.87 317.283 1043.34 317.404 1043.83 317.404C1044.41 317.404 1044.82 317.217 1045.06 316.844C1045.3 316.452 1045.42 315.901 1045.42 315.192ZM1063.51 305.644V326H1060.49V305.644H1063.51ZM1050.07 319.224L1059.48 305.644H1062.84L1053.32 319.42L1050.07 319.224ZM1065.95 322.024H1050.07V319.224H1065.95V322.024ZM1069.76 326.336C1069.16 326.336 1068.65 326.131 1068.22 325.72C1067.81 325.309 1067.6 324.824 1067.6 324.264C1067.6 323.667 1067.81 323.163 1068.22 322.752C1068.65 322.341 1069.16 322.136 1069.76 322.136C1070.34 322.136 1070.83 322.341 1071.24 322.752C1071.67 323.163 1071.89 323.667 1071.89 324.264C1071.89 324.824 1071.67 325.309 1071.24 325.72C1070.83 326.131 1070.34 326.336 1069.76 326.336ZM1075.68 308.472H1071.31V305.644H1078.73V326H1075.68V308.472ZM1085.08 326H1082.06V305.28H1085.08V318.356L1090.82 312.252H1094.6L1089.37 317.712L1094.52 326H1091.05L1087.27 319.924L1085.08 322.192V326Z" fill="#0D0D0D"/>
<rect x="1148.38" y="311" width="129.625" height="44" rx="12" fill="#AEAEAE"/>
<path d="M1192.05 315.192H1194.43C1194.43 316.107 1194.27 316.919 1193.95 317.628C1193.65 318.319 1193.22 318.869 1192.66 319.28C1192.1 319.672 1191.43 319.868 1190.65 319.868C1189.98 319.868 1189.35 319.756 1188.77 319.532C1188.21 319.289 1187.68 319.019 1187.18 318.72C1186.69 318.403 1186.21 318.132 1185.75 317.908C1185.3 317.665 1184.85 317.544 1184.4 317.544C1183.82 317.544 1183.41 317.731 1183.17 318.104C1182.93 318.459 1182.81 318.963 1182.81 319.616H1180.43C1180.43 318.739 1180.58 317.964 1180.88 317.292C1181.19 316.601 1181.63 316.06 1182.19 315.668C1182.77 315.257 1183.44 315.052 1184.21 315.052C1184.84 315.052 1185.43 315.173 1185.97 315.416C1186.53 315.64 1187.06 315.911 1187.57 316.228C1188.07 316.527 1188.56 316.797 1189.02 317.04C1189.49 317.283 1189.97 317.404 1190.45 317.404C1191.03 317.404 1191.44 317.217 1191.68 316.844C1191.93 316.452 1192.05 315.901 1192.05 315.192ZM1211.04 325.972L1197.12 326V323.592L1203.73 317.964C1204.49 317.329 1205.13 316.751 1205.63 316.228C1206.14 315.705 1206.54 315.22 1206.84 314.772C1207.13 314.324 1207.35 313.876 1207.48 313.428C1207.61 312.961 1207.68 312.476 1207.68 311.972C1207.68 310.759 1207.35 309.816 1206.7 309.144C1206.06 308.453 1205.17 308.108 1204.04 308.108C1202.84 308.108 1201.89 308.509 1201.18 309.312C1200.49 310.096 1200.13 311.179 1200.09 312.56H1196.95C1196.97 311.085 1197.28 309.807 1197.88 308.724C1198.47 307.623 1199.29 306.773 1200.34 306.176C1201.4 305.579 1202.64 305.28 1204.04 305.28C1205.45 305.28 1206.67 305.541 1207.68 306.064C1208.7 306.587 1209.5 307.333 1210.06 308.304C1210.62 309.275 1210.9 310.432 1210.9 311.776C1210.9 312.485 1210.8 313.167 1210.62 313.82C1210.43 314.455 1210.14 315.08 1209.75 315.696C1209.36 316.312 1208.85 316.947 1208.24 317.6C1207.64 318.235 1206.91 318.916 1206.05 319.644L1200.93 324.04L1199.84 323.032H1211.04V325.972ZM1215.57 326.336C1214.97 326.336 1214.45 326.131 1214.03 325.72C1213.61 325.309 1213.41 324.824 1213.41 324.264C1213.41 323.667 1213.61 323.163 1214.03 322.752C1214.45 322.341 1214.97 322.136 1215.57 322.136C1216.14 322.136 1216.64 322.341 1217.05 322.752C1217.48 323.163 1217.69 323.667 1217.69 324.264C1217.69 324.824 1217.48 325.309 1217.05 325.72C1216.64 326.131 1216.14 326.336 1215.57 326.336ZM1232.74 308.192L1225.35 315.136L1223.28 313.624L1230.45 306.904L1230.08 308.444H1219.98V305.644H1232.74V308.192ZM1225.52 315.696H1223.28V313.624C1223.62 313.381 1224.05 313.223 1224.57 313.148C1225.09 313.055 1225.59 313.008 1226.08 313.008C1227.07 313.008 1227.99 313.157 1228.85 313.456C1229.73 313.736 1230.5 314.165 1231.18 314.744C1231.85 315.304 1232.37 315.995 1232.74 316.816C1233.12 317.619 1233.3 318.533 1233.3 319.56C1233.3 320.941 1232.98 322.145 1232.32 323.172C1231.69 324.18 1230.82 324.964 1229.72 325.524C1228.62 326.084 1227.38 326.364 1226 326.364C1224.67 326.364 1223.48 326.103 1222.41 325.58C1221.37 325.039 1220.54 324.264 1219.92 323.256C1219.32 322.229 1219.02 321.007 1219.02 319.588H1222.16C1222.16 320.839 1222.51 321.809 1223.22 322.5C1223.93 323.191 1224.88 323.536 1226.05 323.536C1227.27 323.536 1228.24 323.172 1228.96 322.444C1229.71 321.697 1230.08 320.727 1230.08 319.532C1230.08 318.393 1229.7 317.469 1228.94 316.76C1228.19 316.051 1227.05 315.696 1225.52 315.696ZM1238.33 326H1235.3V305.28H1238.33V318.356L1244.07 312.252H1247.85L1242.61 317.712L1247.76 326H1244.29L1240.51 319.924L1238.33 322.192V326Z" fill="#0D0D0D"/>
<path d="M1069.68 378.54V393H1067.72V378.54H1069.68ZM1074.42 393H1072.54V383.22H1074.24L1074.44 384.72C1074.74 384.16 1075.18 383.727 1075.76 383.42C1076.34 383.1 1076.98 382.94 1077.68 382.94C1078.96 382.94 1079.9 383.307 1080.52 384.04C1081.13 384.773 1081.44 385.767 1081.44 387.02V393H1079.56V387.44C1079.56 386.453 1079.34 385.747 1078.92 385.32C1078.49 384.88 1077.92 384.66 1077.2 384.66C1076.32 384.66 1075.63 384.947 1075.14 385.52C1074.66 386.093 1074.42 386.86 1074.42 387.82V393ZM1083.2 388.12C1083.2 387.093 1083.4 386.193 1083.8 385.42C1084.21 384.647 1084.78 384.04 1085.5 383.6C1086.22 383.16 1087.05 382.94 1088 382.94C1089.23 382.94 1090.25 383.267 1091.06 383.92C1091.87 384.573 1092.36 385.44 1092.52 386.52H1090.64C1090.48 385.893 1090.17 385.42 1089.7 385.1C1089.23 384.78 1088.69 384.62 1088.06 384.62C1087.47 384.62 1086.95 384.767 1086.5 385.06C1086.05 385.34 1085.69 385.74 1085.44 386.26C1085.19 386.78 1085.06 387.393 1085.06 388.1C1085.06 388.807 1085.18 389.42 1085.42 389.94C1085.66 390.447 1086 390.847 1086.44 391.14C1086.88 391.42 1087.39 391.56 1087.98 391.56C1088.65 391.56 1089.22 391.393 1089.7 391.06C1090.18 390.727 1090.5 390.273 1090.66 389.7H1092.54C1092.42 390.407 1092.15 391.027 1091.72 391.56C1091.31 392.08 1090.77 392.493 1090.12 392.8C1089.48 393.093 1088.77 393.24 1087.98 393.24C1087.02 393.24 1086.18 393.027 1085.46 392.6C1084.75 392.173 1084.2 391.58 1083.8 390.82C1083.4 390.047 1083.2 389.147 1083.2 388.12ZM1093.68 388.1C1093.68 387.1 1093.9 386.213 1094.34 385.44C1094.78 384.667 1095.38 384.06 1096.14 383.62C1096.92 383.18 1097.8 382.96 1098.78 382.96C1099.77 382.96 1100.64 383.18 1101.4 383.62C1102.16 384.06 1102.76 384.667 1103.2 385.44C1103.64 386.213 1103.86 387.1 1103.86 388.1C1103.86 389.1 1103.64 389.987 1103.2 390.76C1102.76 391.533 1102.16 392.14 1101.4 392.58C1100.64 393.02 1099.77 393.24 1098.78 393.24C1097.8 393.24 1096.92 393.02 1096.14 392.58C1095.38 392.14 1094.78 391.533 1094.34 390.76C1093.9 389.987 1093.68 389.1 1093.68 388.1ZM1095.58 388.1C1095.58 388.78 1095.72 389.38 1095.98 389.9C1096.26 390.42 1096.64 390.827 1097.12 391.12C1097.6 391.413 1098.16 391.56 1098.78 391.56C1099.41 391.56 1099.96 391.413 1100.44 391.12C1100.92 390.827 1101.3 390.42 1101.56 389.9C1101.84 389.38 1101.98 388.78 1101.98 388.1C1101.98 387.407 1101.84 386.807 1101.56 386.3C1101.3 385.78 1100.92 385.373 1100.44 385.08C1099.96 384.787 1099.41 384.64 1098.78 384.64C1098.16 384.64 1097.6 384.787 1097.12 385.08C1096.64 385.373 1096.26 385.78 1095.98 386.3C1095.72 386.807 1095.58 387.407 1095.58 388.1ZM1107.63 393H1105.75V383.22H1107.43L1107.69 385.02L1107.45 384.86C1107.65 384.313 1108.01 383.86 1108.55 383.5C1109.09 383.127 1109.75 382.94 1110.53 382.94C1111.39 382.94 1112.11 383.173 1112.69 383.64C1113.26 384.107 1113.63 384.727 1113.81 385.5H1113.47C1113.6 384.727 1113.97 384.107 1114.57 383.64C1115.17 383.173 1115.91 382.94 1116.79 382.94C1117.91 382.94 1118.79 383.267 1119.43 383.92C1120.07 384.573 1120.39 385.467 1120.39 386.6V393H1118.55V387.06C1118.55 386.287 1118.35 385.693 1117.95 385.28C1117.56 384.853 1117.03 384.64 1116.37 384.64C1115.9 384.64 1115.49 384.747 1115.13 384.96C1114.78 385.16 1114.51 385.453 1114.31 385.84C1114.11 386.227 1114.01 386.68 1114.01 387.2V393H1112.15V387.04C1112.15 386.267 1111.95 385.68 1111.57 385.28C1111.18 384.867 1110.65 384.66 1109.99 384.66C1109.52 384.66 1109.11 384.767 1108.75 384.98C1108.4 385.18 1108.13 385.473 1107.93 385.86C1107.73 386.233 1107.63 386.68 1107.63 387.2V393ZM1122.79 397.38V383.22H1124.49L1124.63 384.98C1124.95 384.3 1125.42 383.793 1126.05 383.46C1126.69 383.113 1127.4 382.94 1128.17 382.94C1129.1 382.94 1129.91 383.16 1130.59 383.6C1131.27 384.027 1131.79 384.627 1132.15 385.4C1132.52 386.16 1132.71 387.04 1132.71 388.04C1132.71 389.04 1132.53 389.933 1132.17 390.72C1131.82 391.507 1131.31 392.127 1130.63 392.58C1129.96 393.033 1129.14 393.26 1128.17 393.26C1127.38 393.26 1126.68 393.1 1126.07 392.78C1125.46 392.46 1124.99 392 1124.67 391.4V397.38H1122.79ZM1124.69 388.12C1124.69 388.773 1124.81 389.367 1125.05 389.9C1125.3 390.42 1125.66 390.827 1126.11 391.12C1126.58 391.413 1127.13 391.56 1127.77 391.56C1128.41 391.56 1128.96 391.413 1129.41 391.12C1129.86 390.813 1130.21 390.4 1130.45 389.88C1130.7 389.36 1130.83 388.773 1130.83 388.12C1130.83 387.44 1130.7 386.84 1130.45 386.32C1130.21 385.8 1129.86 385.393 1129.41 385.1C1128.96 384.807 1128.41 384.66 1127.77 384.66C1127.13 384.66 1126.58 384.807 1126.11 385.1C1125.66 385.393 1125.3 385.8 1125.05 386.32C1124.81 386.84 1124.69 387.44 1124.69 388.12ZM1136.5 393H1134.62V378.28H1136.5V393ZM1143.29 393.24C1142.34 393.24 1141.5 393.027 1140.77 392.6C1140.04 392.16 1139.46 391.56 1139.05 390.8C1138.64 390.027 1138.43 389.133 1138.43 388.12C1138.43 387.093 1138.63 386.193 1139.03 385.42C1139.44 384.647 1140 384.04 1140.71 383.6C1141.43 383.16 1142.26 382.94 1143.21 382.94C1144.14 382.94 1144.95 383.14 1145.63 383.54C1146.32 383.94 1146.86 384.5 1147.23 385.22C1147.62 385.94 1147.81 386.787 1147.81 387.76V388.46L1139.43 388.48L1139.47 387.22H1145.93C1145.93 386.407 1145.68 385.753 1145.19 385.26C1144.7 384.767 1144.04 384.52 1143.21 384.52C1142.58 384.52 1142.04 384.66 1141.59 384.94C1141.15 385.207 1140.81 385.607 1140.57 386.14C1140.34 386.66 1140.23 387.287 1140.23 388.02C1140.23 389.193 1140.5 390.1 1141.03 390.74C1141.56 391.367 1142.33 391.68 1143.33 391.68C1144.06 391.68 1144.66 391.533 1145.13 391.24C1145.6 390.947 1145.91 390.52 1146.07 389.96H1147.83C1147.59 391 1147.08 391.807 1146.29 392.38C1145.5 392.953 1144.5 393.24 1143.29 393.24ZM1148.57 383.22H1154.25V384.8H1148.57V383.22ZM1154.17 391.36L1154.41 392.92C1153.91 393.12 1153.37 393.22 1152.79 393.22C1152.22 393.22 1151.73 393.113 1151.33 392.9C1150.93 392.673 1150.63 392.34 1150.41 391.9C1150.2 391.46 1150.09 390.913 1150.09 390.26V380.16H1151.97V390C1151.97 390.56 1152.09 390.96 1152.31 391.2C1152.55 391.427 1152.86 391.54 1153.23 391.54C1153.53 391.54 1153.84 391.48 1154.17 391.36ZM1160.27 393.24C1159.33 393.24 1158.49 393.027 1157.75 392.6C1157.02 392.16 1156.45 391.56 1156.03 390.8C1155.62 390.027 1155.41 389.133 1155.41 388.12C1155.41 387.093 1155.61 386.193 1156.01 385.42C1156.43 384.647 1156.99 384.04 1157.69 383.6C1158.41 383.16 1159.25 382.94 1160.19 382.94C1161.13 382.94 1161.93 383.14 1162.61 383.54C1163.31 383.94 1163.84 384.5 1164.21 385.22C1164.6 385.94 1164.79 386.787 1164.79 387.76V388.46L1156.41 388.48L1156.45 387.22H1162.91C1162.91 386.407 1162.67 385.753 1162.17 385.26C1161.68 384.767 1161.02 384.52 1160.19 384.52C1159.57 384.52 1159.03 384.66 1158.57 384.94C1158.13 385.207 1157.79 385.607 1157.55 386.14C1157.33 386.66 1157.21 387.287 1157.21 388.02C1157.21 389.193 1157.48 390.1 1158.01 390.74C1158.55 391.367 1159.31 391.68 1160.31 391.68C1161.05 391.68 1161.65 391.533 1162.11 391.24C1162.58 390.947 1162.89 390.52 1163.05 389.96H1164.81C1164.57 391 1164.06 391.807 1163.27 392.38C1162.49 392.953 1161.49 393.24 1160.27 393.24ZM1174.24 393H1172.28V378.54H1177.74C1179.29 378.54 1180.5 378.927 1181.36 379.7C1182.24 380.46 1182.68 381.52 1182.68 382.88C1182.68 383.88 1182.44 384.727 1181.94 385.42C1181.46 386.113 1180.78 386.607 1179.88 386.9L1182.82 393H1180.64L1177.94 387.28H1174.24V393ZM1174.24 380.3V385.54H1177.76C1178.67 385.54 1179.37 385.307 1179.86 384.84C1180.37 384.373 1180.62 383.727 1180.62 382.9C1180.62 382.06 1180.36 381.42 1179.84 380.98C1179.34 380.527 1178.64 380.3 1177.74 380.3H1174.24ZM1187.32 393.24C1186.28 393.24 1185.46 392.967 1184.86 392.42C1184.27 391.873 1183.98 391.16 1183.98 390.28C1183.98 389.387 1184.3 388.673 1184.94 388.14C1185.58 387.593 1186.47 387.273 1187.62 387.18L1190.7 386.94V386.66C1190.7 386.113 1190.6 385.68 1190.4 385.36C1190.2 385.027 1189.92 384.793 1189.58 384.66C1189.23 384.513 1188.84 384.44 1188.4 384.44C1187.61 384.44 1187 384.607 1186.56 384.94C1186.13 385.26 1185.92 385.72 1185.92 386.32H1184.28C1184.28 385.64 1184.45 385.047 1184.8 384.54C1185.14 384.033 1185.63 383.64 1186.26 383.36C1186.9 383.08 1187.64 382.94 1188.48 382.94C1189.29 382.94 1190 383.087 1190.6 383.38C1191.21 383.66 1191.68 384.093 1192.02 384.68C1192.36 385.253 1192.54 385.98 1192.54 386.86V393H1190.94L1190.74 391.42C1190.48 391.98 1190.04 392.427 1189.42 392.76C1188.8 393.08 1188.1 393.24 1187.32 393.24ZM1187.86 391.78C1188.75 391.78 1189.45 391.513 1189.96 390.98C1190.46 390.433 1190.72 389.7 1190.72 388.78V388.26L1188.22 388.46C1187.39 388.54 1186.79 388.733 1186.42 389.04C1186.06 389.347 1185.88 389.74 1185.88 390.22C1185.88 390.74 1186.05 391.133 1186.4 391.4C1186.76 391.653 1187.24 391.78 1187.86 391.78ZM1193.75 383.22H1199.43V384.8H1193.75V383.22ZM1199.35 391.36L1199.59 392.92C1199.08 393.12 1198.54 393.22 1197.97 393.22C1197.39 393.22 1196.91 393.113 1196.51 392.9C1196.11 392.673 1195.8 392.34 1195.59 391.9C1195.37 391.46 1195.27 390.913 1195.27 390.26V380.16H1197.15V390C1197.15 390.56 1197.26 390.96 1197.49 391.2C1197.73 391.427 1198.03 391.54 1198.41 391.54C1198.7 391.54 1199.01 391.48 1199.35 391.36ZM1205.45 393.24C1204.5 393.24 1203.66 393.027 1202.93 392.6C1202.19 392.16 1201.62 391.56 1201.21 390.8C1200.79 390.027 1200.59 389.133 1200.59 388.12C1200.59 387.093 1200.79 386.193 1201.19 385.42C1201.6 384.647 1202.16 384.04 1202.87 383.6C1203.59 383.16 1204.42 382.94 1205.37 382.94C1206.3 382.94 1207.11 383.14 1207.79 383.54C1208.48 383.94 1209.01 384.5 1209.39 385.22C1209.77 385.94 1209.97 386.787 1209.97 387.76V388.46L1201.59 388.48L1201.63 387.22H1208.09C1208.09 386.407 1207.84 385.753 1207.35 385.26C1206.85 384.767 1206.19 384.52 1205.37 384.52C1204.74 384.52 1204.2 384.66 1203.75 384.94C1203.31 385.207 1202.97 385.607 1202.73 386.14C1202.5 386.66 1202.39 387.287 1202.39 388.02C1202.39 389.193 1202.65 390.1 1203.19 390.74C1203.72 391.367 1204.49 391.68 1205.49 391.68C1206.22 391.68 1206.82 391.533 1207.29 391.24C1207.75 390.947 1208.07 390.52 1208.23 389.96H1209.99C1209.75 391 1209.23 391.807 1208.45 392.38C1207.66 392.953 1206.66 393.24 1205.45 393.24Z" fill="#0D0D0D"/>
<rect x="1105.88" y="407" width="65" height="25" rx="8" fill="#D0E3D4"/>
<path d="M1115.55 421.655V420.395H1120.13V421.655H1115.55ZM1122.85 415.475H1120.57V414.155H1124.26V425H1122.85V415.475ZM1127.5 425.18C1127.21 425.18 1126.95 425.08 1126.73 424.88C1126.52 424.67 1126.42 424.42 1126.42 424.13C1126.42 423.83 1126.52 423.58 1126.73 423.38C1126.95 423.17 1127.21 423.065 1127.5 423.065C1127.79 423.065 1128.04 423.17 1128.25 423.38C1128.46 423.58 1128.56 423.83 1128.56 424.13C1128.56 424.42 1128.46 424.67 1128.25 424.88C1128.04 425.08 1127.79 425.18 1127.5 425.18ZM1130.04 421.985C1130.04 421.245 1130.27 420.61 1130.72 420.08C1131.17 419.54 1131.77 419.2 1132.52 419.06L1132.53 419.375C1131.86 419.195 1131.34 418.885 1130.97 418.445C1130.61 417.995 1130.43 417.45 1130.43 416.81C1130.43 416.24 1130.58 415.745 1130.88 415.325C1131.18 414.895 1131.6 414.56 1132.14 414.32C1132.69 414.08 1133.33 413.96 1134.05 413.96C1134.76 413.96 1135.38 414.08 1135.91 414.32C1136.45 414.56 1136.87 414.895 1137.17 415.325C1137.47 415.755 1137.62 416.255 1137.62 416.825C1137.62 417.465 1137.43 418.01 1137.06 418.46C1136.7 418.9 1136.19 419.2 1135.52 419.36L1135.5 419.075C1136 419.145 1136.44 419.32 1136.82 419.6C1137.2 419.87 1137.5 420.21 1137.71 420.62C1137.92 421.03 1138.02 421.49 1138.02 422C1138.02 422.63 1137.85 423.185 1137.51 423.665C1137.18 424.145 1136.72 424.52 1136.12 424.79C1135.53 425.05 1134.83 425.18 1134.03 425.18C1133.23 425.18 1132.53 425.05 1131.93 424.79C1131.33 424.52 1130.87 424.145 1130.54 423.665C1130.21 423.185 1130.04 422.625 1130.04 421.985ZM1131.48 421.88C1131.48 422.28 1131.59 422.63 1131.8 422.93C1132.01 423.23 1132.3 423.465 1132.68 423.635C1133.07 423.795 1133.52 423.875 1134.03 423.875C1134.54 423.875 1134.99 423.795 1135.37 423.635C1135.75 423.465 1136.04 423.23 1136.25 422.93C1136.46 422.63 1136.57 422.28 1136.57 421.88C1136.57 421.28 1136.34 420.805 1135.88 420.455C1135.42 420.095 1134.8 419.915 1134.02 419.915C1133.25 419.915 1132.63 420.095 1132.17 420.455C1131.71 420.805 1131.48 421.28 1131.48 421.88ZM1131.78 416.9C1131.78 417.43 1131.98 417.855 1132.38 418.175C1132.79 418.495 1133.34 418.655 1134.02 418.655C1134.7 418.655 1135.24 418.5 1135.64 418.19C1136.04 417.87 1136.24 417.45 1136.24 416.93C1136.24 416.41 1136.04 416 1135.64 415.7C1135.24 415.39 1134.7 415.235 1134.02 415.235C1133.34 415.235 1132.79 415.39 1132.38 415.7C1131.98 416 1131.78 416.4 1131.78 416.9ZM1140.41 425H1138.79L1141.35 421.37L1138.8 417.665H1140.44L1142.3 420.395L1144.11 417.665H1145.72L1143.17 421.37L1145.67 425H1144.04L1142.21 422.315L1140.41 425Z" fill="#009D24"/>
<path d="M1155.62 414.833V414.083H1154.12V414.833H1155.62ZM1154.12 424.166C1154.12 424.581 1154.46 424.916 1154.88 424.916C1155.29 424.916 1155.62 424.581 1155.62 424.166H1154.12ZM1154.88 414.833H1154.12V424.166H1154.88H1155.62V414.833H1154.88Z" fill="#009D24"/>
<path d="M1151.41 419.637L1150.87 419.106L1149.81 420.167L1150.34 420.697L1151.41 419.637ZM1154.34 424.697C1154.64 424.99 1155.11 424.99 1155.41 424.697C1155.7 424.404 1155.7 423.93 1155.41 423.637L1154.34 424.697ZM1150.87 420.167L1150.34 420.697L1154.34 424.697L1154.88 424.167L1155.41 423.637L1151.41 419.637L1150.87 420.167Z" fill="#009D24"/>
<path d="M1159.41 420.697L1159.94 420.167L1158.88 419.106L1158.34 419.637L1159.41 420.697ZM1154.34 423.637C1154.05 423.93 1154.05 424.404 1154.34 424.697C1154.64 424.99 1155.11 424.99 1155.41 424.697L1154.34 423.637ZM1158.88 420.167L1158.34 419.637L1154.34 423.637L1154.87 424.167L1155.41 424.697L1159.41 420.697L1158.88 420.167Z" fill="#009D24"/>
</g>
<defs>
<clipPath id="clip0_6624_23716">
<rect width="1278" height="432" fill="white"/>
</clipPath>
</defs>
</svg>
