<svg xmlns="http://www.w3.org/2000/svg" version="1.1" xmlns:xlink="http://www.w3.org/1999/xlink" width="128" height="128"><svg width="128" height="128" viewBox="0 0 128 128" fill="none" xmlns="http://www.w3.org/2000/svg">
<path d="M127.956 96.9796C127.722 99.3316 126.787 101.331 125.151 102.977C123.514 104.624 121.41 105.329 118.839 105.094C113.695 104.624 108.669 103.095 103.759 100.508C99.0837 97.9204 95.2262 95.0979 92.187 92.0403C91.2519 90.8643 90.0829 90.3939 88.6802 90.6291C87.5113 90.8643 86.5762 91.6875 85.8748 93.0987C85.641 94.2747 84.4721 95.4507 82.368 96.6268C81.4329 97.3324 80.4978 98.1556 79.5626 99.0964C78.8613 99.802 78.043 100.625 77.1079 101.566C75.4714 103.448 73.6011 105.094 71.497 106.505C69.6267 107.916 67.8734 109.798 66.2369 112.15C63.1977 116.384 59.1064 118.736 53.9631 119.206C49.9888 119.912 45.8975 120.147 41.6894 119.912C37.4813 119.677 33.5069 119.089 29.7664 118.148C26.4934 117.442 23.4542 115.913 20.6487 113.561C20.1812 113.091 19.7136 112.621 19.246 112.15C18.7785 111.68 18.194 111.327 17.4926 111.092C14.4534 109.21 11.9987 106.74 10.1284 103.683C7.08919 98.2732 4.40066 92.5107 2.06281 86.3954C-0.275041 80.045 -0.625719 73.3417 1.01078 66.2856C2.1797 60.876 4.16688 55.1135 6.9723 48.9982C10.0115 42.6478 12.8169 37.3557 15.3886 33.1221C20.7656 24.6548 27.8961 18.0691 36.7799 13.365C45.6638 8.42579 55.3658 6.89698 65.8862 8.7786C74.77 10.425 82.4849 13.4827 89.0309 17.9515C95.8107 22.4203 101.655 28.3004 106.565 35.5917C107.734 37.2381 107.968 38.8845 107.266 40.5309C106.799 42.1774 105.63 43.2358 103.759 43.7062C100.019 44.4118 96.8627 43.7062 94.2911 41.5894C88.4465 36.1797 81.4329 33.4749 73.2504 33.4749C65.0679 33.4749 57.5868 35.3565 50.807 39.1197C49.8719 39.5901 49.0536 40.0605 48.3523 40.5309C47.8847 41.0013 47.4171 41.5894 46.9496 42.295C44.1442 44.8822 41.2218 48.0574 38.1826 51.8207C35.3772 55.5839 33.0394 60.5232 31.1691 66.6384C30.2339 69.6961 29.065 73.1065 27.6623 76.8697C26.4934 80.633 26.0258 84.161 26.2596 87.4538C26.2596 89.8059 27.1947 91.8051 29.065 93.4515C30.9353 94.8627 33.0394 95.4507 35.3772 95.2155C43.3259 94.0395 49.8719 91.4523 55.0152 87.4538C60.1584 83.2202 64.8341 78.6338 69.0423 73.6945C73.4842 68.7552 78.2768 64.2864 83.4201 60.288C85.5241 58.8767 87.862 58.2887 90.4336 58.5239C93.0053 58.7591 95.1093 59.8175 96.7458 61.6992C99.0837 63.5808 100.837 66.2856 102.006 69.8137C103.175 73.3417 104.227 76.9873 105.162 80.7506C105.863 83.1026 107.149 85.1018 109.02 86.7482C111.124 88.1595 113.461 88.7475 116.033 88.5123H119.54C122.112 88.2771 124.216 88.9827 125.852 90.6291C127.489 92.2755 128.19 94.3923 127.956 96.9796Z" fill="#0063FF"></path>
<path d="M37.752 15.1133C46.2077 10.4121 55.4345 8.94265 65.5215 10.7441V10.7451C74.17 12.3479 81.6171 15.312 87.9033 19.6035L87.9307 19.6211C94.4719 23.9327 100.132 29.6189 104.906 36.709L104.934 36.75C105.761 37.916 105.816 38.8322 105.426 39.7471L105.377 39.8633L105.342 39.9844C105.101 40.8318 104.57 41.4251 103.326 41.751C100.115 42.3427 97.6109 41.7215 95.582 40.0605C89.3698 34.3396 81.8899 31.4746 73.25 31.4746C64.756 31.4747 56.9449 33.4292 49.8574 37.3584C48.8851 37.8496 48.0094 38.3529 47.2383 38.8701L47.0732 38.9805L46.9336 39.1211C46.4049 39.653 45.9062 40.2793 45.4277 40.9795C42.5864 43.6185 39.653 46.8175 36.627 50.5645L36.6025 50.5938L36.5791 50.625C33.783 54.3758 31.4762 59.1515 29.6211 64.8926L29.2568 66.0537C28.3359 69.0648 27.1801 72.4363 25.7881 76.1709L25.7686 76.2236L25.752 76.2764C24.5299 80.2108 24.0169 83.9705 24.2617 87.5371C24.2842 90.4656 25.4919 92.9713 27.7432 94.9531L27.7998 95.0029L27.8604 95.0479C30.1339 96.7633 32.7399 97.4905 35.5771 97.2051L35.624 97.2012L35.6699 97.1943C43.8806 95.9796 50.7713 93.2871 56.2432 89.0332L56.2861 88.998C61.5037 84.7033 66.2519 80.0478 70.5293 75.0322C74.875 70.2 79.5595 65.8285 84.583 61.917C86.2847 60.7903 88.148 60.3232 90.252 60.5156C92.3302 60.7058 93.9513 61.5343 95.2363 63.0117L95.3535 63.1455L95.4922 63.2568C97.4659 64.8454 99.0306 67.1925 100.107 70.4424C101.26 73.9199 102.297 77.5167 103.221 81.2324L103.232 81.2773L103.245 81.3223C104.055 84.0396 105.551 86.3587 107.698 88.249L107.797 88.3359L107.905 88.4092C110.364 90.0585 113.119 90.7586 116.091 90.5127H119.631L119.722 90.5039C121.647 90.3278 123.079 90.8003 124.211 91.8262L124.434 92.0391C125.6 93.2121 126.15 94.7194 125.964 96.7939C125.785 98.5729 125.126 100.059 123.971 101.318L123.732 101.567C122.567 102.74 121.074 103.29 119.021 103.103C114.164 102.658 109.396 101.215 104.707 98.7461C100.191 96.2449 96.5165 93.5477 93.6484 90.6719C93.0254 89.923 92.2674 89.3172 91.3555 88.9502C90.3871 88.5605 89.366 88.4858 88.3496 88.6562L88.3174 88.6621L88.2861 88.668C86.3278 89.062 84.9647 90.4368 84.084 92.209L83.9648 92.4473L83.9131 92.709C83.8663 92.9433 83.4424 93.7351 81.3926 94.8809L81.2725 94.9473L81.1631 95.0303C80.2708 95.7036 79.3895 96.4676 78.5176 97.3174L78.1445 97.6865C77.4432 98.3921 76.6246 99.2154 75.6895 100.156L75.6426 100.203L75.5986 100.254C74.0798 102 72.3427 103.53 70.3828 104.845L70.3369 104.875L70.292 104.909C68.2271 106.467 66.3389 108.506 64.6123 110.983C61.908 114.751 58.3406 116.798 53.7812 117.215L53.6963 117.223L53.6133 117.237C50.0361 117.872 46.3529 118.112 42.5605 117.952L41.8008 117.915C37.7081 117.686 33.8603 117.115 30.2539 116.208L30.1875 116.192L29.6416 116.065C26.9414 115.393 24.3956 114.077 21.9941 112.077L20.6641 110.74C20.0167 110.089 19.2437 109.612 18.3848 109.288C15.6953 107.59 13.5217 105.389 11.8496 102.663C8.87386 97.3616 6.23644 91.7093 3.93945 85.7041C1.81461 79.932 1.427 73.8355 2.81836 67.3652L2.95898 66.7373L2.96289 66.7227L2.96582 66.708C4.09656 61.4751 6.02612 55.8609 8.77637 49.8613C11.7895 43.5653 14.5565 38.3477 17.0771 34.1943C22.2676 26.021 29.1383 19.6747 37.7158 15.1328L37.7344 15.123L37.752 15.1133Z" stroke="white" stroke-opacity="0.3" stroke-width="4"></path>
</svg><style>@media (prefers-color-scheme: light) { :root { filter: none; } }
@media (prefers-color-scheme: dark) { :root { filter: none; } }
</style></svg>