<svg width="1200" height="630" viewBox="0 0 1200 630" fill="none" xmlns="http://www.w3.org/2000/svg">
<g clip-path="url(#clip0_4339_25086)">
<rect width="1200" height="630" fill="#0D0D0D"/>
<path d="M168.28 359V275H202C219.4 275 229.12 284 229.12 298.76C229.12 313.64 219.4 322.76 202 322.76H177.28V359H168.28ZM177.28 314.36H201.76C213.4 314.36 219.88 308.72 219.88 298.76C219.88 288.92 213.4 283.4 201.76 283.4H177.28V314.36Z" fill="white"/>
<path d="M240.877 359V302.12H248.677V311.12C250.117 305.72 253.957 302.12 260.677 302.12H271.957V309.8H259.957C252.517 309.8 249.517 314.36 249.517 322.76V359H240.877Z" fill="white"/>
<path d="M304.009 360.56C286.849 360.56 275.089 348.44 275.089 330.56C275.089 312.68 286.849 300.56 304.009 300.56C321.049 300.56 332.809 312.68 332.809 330.56C332.809 348.44 321.049 360.56 304.009 360.56ZM284.089 330.56C284.089 343.76 292.129 352.64 304.009 352.64C315.889 352.64 323.809 343.76 323.809 330.56C323.809 317.36 315.889 308.48 304.009 308.48C292.129 308.48 284.089 317.36 284.089 330.56Z" fill="white"/>
<path d="M370.739 360.56C354.539 360.56 343.499 348.44 343.499 330.56C343.499 312.68 354.539 300.56 370.739 300.56C380.219 300.56 387.179 304.28 390.899 310.76V275H399.659V359H391.859V349.04C388.139 356.36 380.699 360.56 370.739 360.56ZM352.499 330.56C352.499 343.76 360.299 352.64 371.939 352.64C383.579 352.64 391.139 343.76 391.139 330.56C391.139 317.36 383.579 308.48 371.939 308.48C360.299 308.48 352.499 317.36 352.499 330.56Z" fill="white"/>
<path d="M439.332 360.56C425.532 360.56 417.012 352.28 417.012 336.2V302.12H425.652V335.6C425.652 347.36 431.412 352.64 440.772 352.64C450.492 352.64 457.212 345.56 457.212 335.24V302.12H465.852V359H458.052V351.08C454.212 357.56 447.372 360.56 439.332 360.56Z" fill="white"/>
<path d="M507.686 360.56C491.126 360.56 479.966 348.08 479.966 330.68C479.966 313.04 491.366 300.56 508.286 300.56C522.566 300.56 531.926 308.84 533.366 320.12H524.366C523.046 313.76 517.766 308.48 508.286 308.48C496.526 308.48 488.966 317.24 488.966 330.56C488.966 344 496.766 352.64 507.806 352.64C516.686 352.64 523.166 347.48 524.606 339.8H533.606C531.926 350.96 522.686 360.56 507.686 360.56Z" fill="white"/>
<path d="M565.693 359C556.333 359 552.373 355.28 552.373 346.16V309.8H537.013V302.12H552.373V284.84H561.013V302.12H579.373V309.8H561.013V344.72C561.013 349.4 562.933 351.32 567.733 351.32H579.373V359H565.693Z" fill="white"/>
<path d="M606.8 359L606.92 358.16C614 357.32 616.64 355.4 618.68 347.6L635 286.4C636.92 279.08 635.72 276.68 628.88 275.84L629.12 275H650.48C671.36 275 690.32 281.36 690.32 308.96C690.32 329.72 677.48 359 637.16 359H606.8ZM629.6 356.6H634.76C667.28 356.6 676.52 328.64 676.52 304.88C676.52 284.36 667.16 277.4 653.24 277.4H650.6L629.6 356.6Z" fill="url(#paint0_linear_4339_25086)"/>
<path d="M742.756 304.16C742.756 314.36 727.876 325.52 703.876 328.64C703.756 330.2 703.636 331.76 703.636 333.32C703.636 345.44 708.796 350.12 716.716 350.12C723.916 350.12 730.156 346.04 735.076 337.64L736.156 338.12C730.276 350 720.916 360.8 707.836 360.8C699.556 360.8 692.596 356.24 692.596 343.64C692.596 320.12 714.196 297.08 734.236 297.08C739.516 297.08 742.756 299.48 742.756 304.16ZM723.916 301.16C716.476 303.68 706.516 313.28 704.116 327.2C715.756 325.16 729.556 318.68 729.556 307.64C729.556 304.16 727.756 301.16 723.916 301.16Z" fill="url(#paint1_linear_4339_25086)"/>
<path d="M757.621 360.8C748.981 360.8 740.821 354.56 737.461 348.44L744.661 339.56H745.381C748.381 347 756.661 356.48 766.981 356.48C768.541 355.52 770.221 353.24 770.221 350.12C770.221 347.12 768.661 344.84 766.981 342.2L754.261 323.72C753.421 322.64 751.141 319.04 751.141 315.08C751.141 307.04 760.261 297.08 772.621 297.08C779.701 297.08 786.421 300.56 790.501 305.84L783.421 314.84H782.701C779.461 307.76 772.021 300.56 765.061 300.56C761.941 301.4 760.261 303.56 760.261 306.8C760.261 309.44 761.821 311.96 763.141 313.88L776.101 332.84C777.901 335.6 779.221 338.96 779.221 341.96C779.221 350.96 769.261 360.8 757.621 360.8Z" fill="url(#paint2_linear_4339_25086)"/>
<path d="M815.254 289.88C810.814 289.88 807.574 286.4 807.574 282.2C807.574 278 810.814 274.76 815.254 274.76C819.574 274.76 822.934 278.24 822.934 282.32C822.934 286.52 819.694 289.88 815.254 289.88ZM795.214 360.56C792.574 360.56 790.054 359.24 790.054 355.04C790.054 353.96 790.294 352.64 790.774 351.08L802.534 309.08C803.734 305 802.414 303.08 797.374 303.68L795.334 303.92L795.694 302.72L817.774 297.08L804.214 345.56C803.374 348.32 804.334 349.52 806.134 349.52C808.654 349.52 813.334 345.44 818.014 339.44L819.214 340.28C812.134 349.88 802.534 360.56 795.214 360.56Z" fill="url(#paint3_linear_4339_25086)"/>
<path d="M879.922 298.88L879.202 301.4H868.522C871.282 303.8 872.842 307.28 872.842 311.84C872.842 322.76 864.082 337.04 845.842 337.04C843.322 337.04 840.922 336.68 838.762 336.08C835.042 337.16 833.002 338.6 833.002 341C833.002 343.28 834.682 344.24 839.122 345.92L859.162 353.48C865.642 355.88 869.722 359.48 869.722 365.48C869.722 376.04 857.482 384.8 837.922 384.8C823.642 384.8 813.202 380.12 813.202 371.48C813.202 364.4 819.802 359.96 831.562 356.6C826.642 354.56 823.522 352.04 823.522 347.36C823.522 342.8 826.522 338.36 836.842 335.36C831.922 333.2 828.802 329 828.802 322.64C828.802 311.6 837.562 297.44 855.802 297.44C858.922 297.44 861.802 297.92 864.322 298.88H879.922ZM846.802 335.36C856.162 335.36 861.562 319.64 861.562 309.2C861.562 302 859.042 299.12 854.842 299.12C845.482 299.12 840.082 314.84 840.082 325.28C840.082 332.48 842.602 335.36 846.802 335.36ZM853.642 364.28L834.082 357.56C833.962 357.56 833.842 357.44 833.722 357.44C828.202 359.48 823.522 362.36 823.522 368.12C823.522 376.4 831.562 381.8 843.682 381.8C853.642 381.8 860.842 378.2 860.842 372.08C860.842 368.36 858.322 365.84 853.642 364.28Z" fill="url(#paint4_linear_4339_25086)"/>
<path d="M939.537 339.8L940.737 340.52C933.537 350.6 925.497 360.8 918.057 360.8C915.057 360.8 911.937 359.12 911.937 354.2C911.937 350.6 913.377 344.96 918.657 330.44C921.897 321.56 924.417 313.16 924.417 310.76C924.417 308.96 923.577 307.76 921.777 307.76C918.657 307.76 912.057 312.56 896.937 334.16L890.217 359H878.337L891.657 309.08C892.857 305 891.537 303.08 886.497 303.68L884.457 303.92L884.817 302.72L906.897 297.08L897.897 330.44C911.457 309.92 921.777 297.08 930.897 297.08C934.617 297.08 937.857 299.24 937.857 304.52C937.857 309.08 935.097 317.84 931.377 327.92C928.377 336.2 925.617 344.84 925.617 347.48C925.617 348.92 926.457 349.88 927.777 349.88C930.297 349.88 934.497 346.16 939.537 339.8Z" fill="url(#paint5_linear_4339_25086)"/>
<path d="M995.975 304.16C995.975 314.36 981.095 325.52 957.095 328.64C956.975 330.2 956.855 331.76 956.855 333.32C956.855 345.44 962.015 350.12 969.935 350.12C977.135 350.12 983.375 346.04 988.295 337.64L989.375 338.12C983.495 350 974.135 360.8 961.055 360.8C952.775 360.8 945.815 356.24 945.815 343.64C945.815 320.12 967.415 297.08 987.455 297.08C992.735 297.08 995.975 299.48 995.975 304.16ZM977.135 301.16C969.695 303.68 959.735 313.28 957.335 327.2C968.975 325.16 982.775 318.68 982.775 307.64C982.775 304.16 980.975 301.16 977.135 301.16Z" fill="url(#paint6_linear_4339_25086)"/>
<path d="M1044.04 297.2C1045.36 297.2 1047.28 297.56 1048.36 298.28L1043.68 313.4H1042.6C1040.92 312.08 1039 311.48 1037.32 311.48C1030.96 311.48 1027.36 314.96 1012.12 346.04L1008.64 359H996.523L1009.84 309.08C1010.92 305 1009.72 303.08 1004.68 303.68L1002.64 303.92L1003 302.72L1025.08 297.08L1013.92 339.2C1031.2 303.2 1037.32 297.2 1044.04 297.2Z" fill="url(#paint7_linear_4339_25086)"/>
<path d="M195.28 200.56C175 200.56 162.88 190.24 162.76 173.68H172.12C172.24 185.2 180.88 192.52 195.28 192.52C208.24 192.52 216.4 185.68 216.4 175.36C216.4 167.08 211.12 161.92 200.8 160.36L189.04 158.68C173.56 156.52 165.76 148.96 165.76 136.96C165.76 122.68 177.16 113.44 194.8 113.44C213.04 113.44 224.2 122.32 224.56 136.48H215.2C214.84 127.12 207.16 121.48 194.92 121.48C183.04 121.48 175.12 127.24 175.12 136.48C175.12 144.04 180.52 148.48 191.56 150.16L202.96 151.72C217.96 153.88 225.76 161.8 225.76 174.76C225.76 190.48 214.24 200.56 195.28 200.56Z" fill="#3A3A3A"/>
<path d="M260.677 199C251.317 199 247.357 195.28 247.357 186.16V149.8H231.997V142.12H247.357V124.84H255.997V142.12H274.357V149.8H255.997V184.72C255.997 189.4 257.917 191.32 262.717 191.32H274.357V199H260.677Z" fill="#3A3A3A"/>
<path d="M302.275 200.56C289.315 200.56 281.275 193.72 281.275 183.16C281.275 173.2 287.875 166 301.915 165.16L320.755 164.08V160.48C320.755 151.6 316.435 147.88 307.315 147.88C298.675 147.88 294.115 150.16 292.915 157.48H284.155C285.475 145.84 293.635 140.56 308.035 140.56C321.355 140.56 329.155 147.28 329.155 160.24V189.4C329.155 190.84 329.755 191.44 331.195 191.44H335.995V199H328.075C324.355 199 322.195 196.96 322.195 193.24V190C318.955 196.84 311.875 200.56 302.275 200.56ZM290.035 182.92C290.035 189.04 295.075 193.24 303.115 193.24C314.035 193.24 320.755 186.88 320.755 175.48V171.16L302.755 172.36C293.995 172.84 290.035 177.28 290.035 182.92Z" fill="#3A3A3A"/>
<path d="M354.07 129.76C354.07 120.4 359.47 115 368.71 115H386.35V122.68H370.03C365.35 122.68 362.71 125.32 362.71 130.36V142.12H382.75V149.8H362.71V199H354.07V149.8H338.59V142.12H354.07V129.76Z" fill="#3A3A3A"/>
<path d="M403.143 129.76C403.143 120.4 408.543 115 417.783 115H435.423V122.68H419.103C414.423 122.68 411.783 125.32 411.783 130.36V142.12H431.823V149.8H411.783V199H403.143V149.8H387.663V142.12H403.143V129.76Z" fill="#3A3A3A"/>
<path d="M168.28 513V429H202C219.4 429 229.12 438 229.12 452.76C229.12 467.64 219.4 476.76 202 476.76H177.28V513H168.28ZM177.28 468.36H201.76C213.4 468.36 219.88 462.72 219.88 452.76C219.88 442.92 213.4 437.4 201.76 437.4H177.28V468.36Z" fill="#3A3A3A"/>
<path d="M240.877 513V456.12H248.677V465.12C250.117 459.72 253.957 456.12 260.677 456.12H271.957V463.8H259.957C252.517 463.8 249.517 468.36 249.517 476.76V513H240.877Z" fill="#3A3A3A"/>
<path d="M281.279 513V456.12H289.919V513H281.279ZM280.439 443.04V430.2H290.639V443.04H280.439Z" fill="#3A3A3A"/>
<path d="M308.086 513V456.12H315.886V464.88C319.366 457.92 326.446 454.56 334.966 454.56C349.006 454.56 357.766 462.84 357.766 478.92V513H349.126V479.52C349.126 467.76 343.126 462.48 333.526 462.48C323.566 462.48 316.726 469.56 316.726 479.88V513H308.086Z" fill="#3A3A3A"/>
<path d="M398.964 514.56C382.404 514.56 371.244 502.08 371.244 484.68C371.244 467.04 382.644 454.56 399.564 454.56C413.844 454.56 423.204 462.84 424.644 474.12H415.644C414.324 467.76 409.044 462.48 399.564 462.48C387.804 462.48 380.244 471.24 380.244 484.56C380.244 498 388.044 506.64 399.084 506.64C407.964 506.64 414.444 501.48 415.884 493.8H424.884C423.204 504.96 413.964 514.56 398.964 514.56Z" fill="#3A3A3A"/>
<path d="M436.468 513V456.12H445.108V513H436.468ZM435.628 443.04V430.2H445.828V443.04H435.628Z" fill="#3A3A3A"/>
<path d="M463.861 534.6V456.12H471.661V465.96C475.381 458.64 482.701 454.56 492.661 454.56C508.861 454.56 519.901 466.68 519.901 484.56C519.901 502.44 508.861 514.56 492.661 514.56C483.181 514.56 476.101 510.84 472.501 504.12V534.6H463.861ZM472.261 484.56C472.261 497.76 479.821 506.64 491.461 506.64C503.101 506.64 510.901 497.76 510.901 484.56C510.901 471.36 503.101 462.48 491.461 462.48C479.821 462.48 472.261 471.36 472.261 484.56Z" fill="#3A3A3A"/>
<path d="M545.06 513C537.38 513 534.38 510.12 534.38 502.8V429H543.02V500.76C543.02 503.88 544.22 505.32 547.46 505.32H555.14V513H545.06Z" fill="#3A3A3A"/>
<path d="M589.287 514.56C572.487 514.56 561.327 502.8 561.327 484.32C561.327 465.84 572.607 454.56 588.447 454.56C604.887 454.56 615.207 465.36 615.207 482.28C615.207 483.48 615.087 484.68 614.847 487.2H570.087C570.447 499.44 577.767 507 589.407 507C596.967 507 602.487 503.52 605.247 497.16H614.127C610.407 507.96 601.767 514.56 589.287 514.56ZM570.087 480H606.447V479.16C606.447 469.08 599.727 461.76 588.447 461.76C577.647 461.76 570.567 469.32 570.087 480Z" fill="#3A3A3A"/>
<path d="M198.4 666.56C178.84 666.56 167.2 654.2 167.2 633.44V581H176.32V632.96C176.32 649.16 184.36 658.16 198.4 658.16C212.44 658.16 220.48 649.16 220.48 632.96V581H229.6V633.44C229.6 654.2 218.08 666.56 198.4 666.56Z" fill="#181818"/>
<path d="M240.346 665L270.466 621.32L241.906 581H253.066L276.106 614.12L299.146 581H310.306L281.746 621.08L311.986 665H300.826L276.106 628.4L251.386 665H240.346Z" fill="#181818"/>
<path d="M356.361 579.32L324.441 665H314.121L346.041 579.32H356.361Z" fill="#181818"/>
<path d="M397.769 666.56C378.209 666.56 366.569 654.2 366.569 633.44V581H375.689V632.96C375.689 649.16 383.729 658.16 397.769 658.16C411.809 658.16 419.849 649.16 419.849 632.96V581H428.969V633.44C428.969 654.2 417.449 666.56 397.769 666.56Z" fill="#181818"/>
<path d="M449.301 665V581H458.301V665H449.301Z" fill="#181818"/>
<path d="M168.28 37V-47H180.88L210.16 25.24L239.32 -47H251.8V37H243.04V-34.28L214.12 37H205.96L177.16 -34.16V37H168.28Z" fill="#181818"/>
<path d="M296.069 38.56C278.909 38.56 267.149 26.44 267.149 8.56001C267.149 -9.31999 278.909 -21.44 296.069 -21.44C313.109 -21.44 324.869 -9.31999 324.869 8.56001C324.869 26.44 313.109 38.56 296.069 38.56ZM276.149 8.56001C276.149 21.76 284.189 30.64 296.069 30.64C307.949 30.64 315.869 21.76 315.869 8.56001C315.869 -4.63999 307.949 -13.52 296.069 -13.52C284.189 -13.52 276.149 -4.63999 276.149 8.56001Z" fill="#181818"/>
<path d="M368.086 38.56C358.126 38.56 350.806 34.48 347.086 27.16V37H339.286V-47H347.926V-11C351.526 -17.72 358.606 -21.44 368.086 -21.44C384.286 -21.44 395.326 -9.31999 395.326 8.56001C395.326 26.44 384.286 38.56 368.086 38.56ZM347.686 8.56001C347.686 21.76 355.246 30.64 366.886 30.64C378.526 30.64 386.326 21.76 386.326 8.56001C386.326 -4.63999 378.526 -13.52 366.886 -13.52C355.246 -13.52 347.686 -4.63999 347.686 8.56001Z" fill="#181818"/>
<path d="M409.922 37V-19.88H418.562V37H409.922ZM409.082 -32.96V-45.8H419.282V-32.96H409.082Z" fill="#181818"/>
<path d="M447.996 37C440.316 37 437.316 34.12 437.316 26.8V-47H445.956V24.76C445.956 27.88 447.156 29.32 450.396 29.32H458.076V37H447.996Z" fill="#181818"/>
<path d="M492.223 38.56C475.423 38.56 464.263 26.8 464.263 8.32C464.263 -10.16 475.543 -21.44 491.383 -21.44C507.823 -21.44 518.143 -10.64 518.143 6.28C518.143 7.48 518.023 8.68 517.783 11.2H473.023C473.383 23.44 480.703 31 492.343 31C499.903 31 505.423 27.52 508.183 21.16H517.063C513.343 31.96 504.703 38.56 492.223 38.56ZM473.023 4H509.383V3.16C509.383 -6.92 502.663 -14.24 491.383 -14.24C480.583 -14.24 473.503 -6.68 473.023 4Z" fill="#181818"/>
</g>
<defs>
<linearGradient id="paint0_linear_4339_25086" x1="611" y1="379" x2="1025.56" y2="422.641" gradientUnits="userSpaceOnUse">
<stop stop-color="#FF8000"/>
<stop offset="0.41464" stop-color="#EF58EF"/>
<stop offset="1" stop-color="#0063FF"/>
</linearGradient>
<linearGradient id="paint1_linear_4339_25086" x1="611" y1="379" x2="1025.56" y2="422.641" gradientUnits="userSpaceOnUse">
<stop stop-color="#FF8000"/>
<stop offset="0.41464" stop-color="#EF58EF"/>
<stop offset="1" stop-color="#0063FF"/>
</linearGradient>
<linearGradient id="paint2_linear_4339_25086" x1="611" y1="379" x2="1025.56" y2="422.641" gradientUnits="userSpaceOnUse">
<stop stop-color="#FF8000"/>
<stop offset="0.41464" stop-color="#EF58EF"/>
<stop offset="1" stop-color="#0063FF"/>
</linearGradient>
<linearGradient id="paint3_linear_4339_25086" x1="611" y1="379" x2="1025.56" y2="422.641" gradientUnits="userSpaceOnUse">
<stop stop-color="#FF8000"/>
<stop offset="0.41464" stop-color="#EF58EF"/>
<stop offset="1" stop-color="#0063FF"/>
</linearGradient>
<linearGradient id="paint4_linear_4339_25086" x1="611" y1="379" x2="1025.56" y2="422.641" gradientUnits="userSpaceOnUse">
<stop stop-color="#FF8000"/>
<stop offset="0.41464" stop-color="#EF58EF"/>
<stop offset="1" stop-color="#0063FF"/>
</linearGradient>
<linearGradient id="paint5_linear_4339_25086" x1="611" y1="379" x2="1025.56" y2="422.641" gradientUnits="userSpaceOnUse">
<stop stop-color="#FF8000"/>
<stop offset="0.41464" stop-color="#EF58EF"/>
<stop offset="1" stop-color="#0063FF"/>
</linearGradient>
<linearGradient id="paint6_linear_4339_25086" x1="611" y1="379" x2="1025.56" y2="422.641" gradientUnits="userSpaceOnUse">
<stop stop-color="#FF8000"/>
<stop offset="0.41464" stop-color="#EF58EF"/>
<stop offset="1" stop-color="#0063FF"/>
</linearGradient>
<linearGradient id="paint7_linear_4339_25086" x1="611" y1="379" x2="1025.56" y2="422.641" gradientUnits="userSpaceOnUse">
<stop stop-color="#FF8000"/>
<stop offset="0.41464" stop-color="#EF58EF"/>
<stop offset="1" stop-color="#0063FF"/>
</linearGradient>
<clipPath id="clip0_4339_25086">
<rect width="1200" height="630" fill="white"/>
</clipPath>
</defs>
</svg>
