<svg width="1200" height="630" viewBox="0 0 1200 630" fill="none" xmlns="http://www.w3.org/2000/svg">
<g clip-path="url(#clip0_4745_134571)">
<rect width="1200" height="630" fill="#0D0D0D"/>
<path d="M168.28 359V275H202C219.4 275 229.12 284 229.12 298.76C229.12 313.64 219.4 322.76 202 322.76H177.28V359H168.28ZM177.28 314.36H201.76C213.4 314.36 219.88 308.72 219.88 298.76C219.88 288.92 213.4 283.4 201.76 283.4H177.28V314.36Z" fill="white"/>
<path d="M240.877 359V302.12H248.677V311.12C250.117 305.72 253.957 302.12 260.677 302.12H271.957V309.8H259.957C252.517 309.8 249.517 314.36 249.517 322.76V359H240.877Z" fill="white"/>
<path d="M304.009 360.56C286.849 360.56 275.089 348.44 275.089 330.56C275.089 312.68 286.849 300.56 304.009 300.56C321.049 300.56 332.809 312.68 332.809 330.56C332.809 348.44 321.049 360.56 304.009 360.56ZM284.089 330.56C284.089 343.76 292.129 352.64 304.009 352.64C315.889 352.64 323.809 343.76 323.809 330.56C323.809 317.36 315.889 308.48 304.009 308.48C292.129 308.48 284.089 317.36 284.089 330.56Z" fill="white"/>
<path d="M370.739 360.56C354.539 360.56 343.499 348.44 343.499 330.56C343.499 312.68 354.539 300.56 370.739 300.56C380.219 300.56 387.179 304.28 390.899 310.76V275H399.659V359H391.859V349.04C388.139 356.36 380.699 360.56 370.739 360.56ZM352.499 330.56C352.499 343.76 360.299 352.64 371.939 352.64C383.579 352.64 391.139 343.76 391.139 330.56C391.139 317.36 383.579 308.48 371.939 308.48C360.299 308.48 352.499 317.36 352.499 330.56Z" fill="white"/>
<path d="M439.332 360.56C425.532 360.56 417.012 352.28 417.012 336.2V302.12H425.652V335.6C425.652 347.36 431.412 352.64 440.772 352.64C450.492 352.64 457.212 345.56 457.212 335.24V302.12H465.852V359H458.052V351.08C454.212 357.56 447.372 360.56 439.332 360.56Z" fill="white"/>
<path d="M507.686 360.56C491.126 360.56 479.966 348.08 479.966 330.68C479.966 313.04 491.366 300.56 508.286 300.56C522.566 300.56 531.926 308.84 533.366 320.12H524.366C523.046 313.76 517.766 308.48 508.286 308.48C496.526 308.48 488.966 317.24 488.966 330.56C488.966 344 496.766 352.64 507.806 352.64C516.686 352.64 523.166 347.48 524.606 339.8H533.606C531.926 350.96 522.686 360.56 507.686 360.56Z" fill="white"/>
<path d="M565.693 359C556.333 359 552.373 355.28 552.373 346.16V309.8H537.013V302.12H552.373V284.84H561.013V302.12H579.373V309.8H561.013V344.72C561.013 349.4 562.933 351.32 567.733 351.32H579.373V359H565.693Z" fill="white"/>
<path d="M606.8 359L606.92 358.16C614 357.32 616.64 355.4 618.68 347.6L635 286.4C636.92 279.08 635.72 276.68 628.88 275.84L629.12 275H650.48C671.36 275 690.32 281.36 690.32 308.96C690.32 329.72 677.48 359 637.16 359H606.8ZM629.6 356.6H634.76C667.28 356.6 676.52 328.64 676.52 304.88C676.52 284.36 667.16 277.4 653.24 277.4H650.6L629.6 356.6Z" fill="url(#paint0_linear_4745_134571)"/>
<path d="M742.756 304.16C742.756 314.36 727.876 325.52 703.876 328.64C703.756 330.2 703.636 331.76 703.636 333.32C703.636 345.44 708.796 350.12 716.716 350.12C723.916 350.12 730.156 346.04 735.076 337.64L736.156 338.12C730.276 350 720.916 360.8 707.836 360.8C699.556 360.8 692.596 356.24 692.596 343.64C692.596 320.12 714.196 297.08 734.236 297.08C739.516 297.08 742.756 299.48 742.756 304.16ZM723.916 301.16C716.476 303.68 706.516 313.28 704.116 327.2C715.756 325.16 729.556 318.68 729.556 307.64C729.556 304.16 727.756 301.16 723.916 301.16Z" fill="url(#paint1_linear_4745_134571)"/>
<path d="M757.621 360.8C748.981 360.8 740.821 354.56 737.461 348.44L744.661 339.56H745.381C748.381 347 756.661 356.48 766.981 356.48C768.541 355.52 770.221 353.24 770.221 350.12C770.221 347.12 768.661 344.84 766.981 342.2L754.261 323.72C753.421 322.64 751.141 319.04 751.141 315.08C751.141 307.04 760.261 297.08 772.621 297.08C779.701 297.08 786.421 300.56 790.501 305.84L783.421 314.84H782.701C779.461 307.76 772.021 300.56 765.061 300.56C761.941 301.4 760.261 303.56 760.261 306.8C760.261 309.44 761.821 311.96 763.141 313.88L776.101 332.84C777.901 335.6 779.221 338.96 779.221 341.96C779.221 350.96 769.261 360.8 757.621 360.8Z" fill="url(#paint2_linear_4745_134571)"/>
<path d="M815.254 289.88C810.814 289.88 807.574 286.4 807.574 282.2C807.574 278 810.814 274.76 815.254 274.76C819.574 274.76 822.934 278.24 822.934 282.32C822.934 286.52 819.694 289.88 815.254 289.88ZM795.214 360.56C792.574 360.56 790.054 359.24 790.054 355.04C790.054 353.96 790.294 352.64 790.774 351.08L802.534 309.08C803.734 305 802.414 303.08 797.374 303.68L795.334 303.92L795.694 302.72L817.774 297.08L804.214 345.56C803.374 348.32 804.334 349.52 806.134 349.52C808.654 349.52 813.334 345.44 818.014 339.44L819.214 340.28C812.134 349.88 802.534 360.56 795.214 360.56Z" fill="url(#paint3_linear_4745_134571)"/>
<path d="M879.922 298.88L879.202 301.4H868.522C871.282 303.8 872.842 307.28 872.842 311.84C872.842 322.76 864.082 337.04 845.842 337.04C843.322 337.04 840.922 336.68 838.762 336.08C835.042 337.16 833.002 338.6 833.002 341C833.002 343.28 834.682 344.24 839.122 345.92L859.162 353.48C865.642 355.88 869.722 359.48 869.722 365.48C869.722 376.04 857.482 384.8 837.922 384.8C823.642 384.8 813.202 380.12 813.202 371.48C813.202 364.4 819.802 359.96 831.562 356.6C826.642 354.56 823.522 352.04 823.522 347.36C823.522 342.8 826.522 338.36 836.842 335.36C831.922 333.2 828.802 329 828.802 322.64C828.802 311.6 837.562 297.44 855.802 297.44C858.922 297.44 861.802 297.92 864.322 298.88H879.922ZM846.802 335.36C856.162 335.36 861.562 319.64 861.562 309.2C861.562 302 859.042 299.12 854.842 299.12C845.482 299.12 840.082 314.84 840.082 325.28C840.082 332.48 842.602 335.36 846.802 335.36ZM853.642 364.28L834.082 357.56C833.962 357.56 833.842 357.44 833.722 357.44C828.202 359.48 823.522 362.36 823.522 368.12C823.522 376.4 831.562 381.8 843.682 381.8C853.642 381.8 860.842 378.2 860.842 372.08C860.842 368.36 858.322 365.84 853.642 364.28Z" fill="url(#paint4_linear_4745_134571)"/>
<path d="M939.537 339.8L940.737 340.52C933.537 350.6 925.497 360.8 918.057 360.8C915.057 360.8 911.937 359.12 911.937 354.2C911.937 350.6 913.377 344.96 918.657 330.44C921.897 321.56 924.417 313.16 924.417 310.76C924.417 308.96 923.577 307.76 921.777 307.76C918.657 307.76 912.057 312.56 896.937 334.16L890.217 359H878.337L891.657 309.08C892.857 305 891.537 303.08 886.497 303.68L884.457 303.92L884.817 302.72L906.897 297.08L897.897 330.44C911.457 309.92 921.777 297.08 930.897 297.08C934.617 297.08 937.857 299.24 937.857 304.52C937.857 309.08 935.097 317.84 931.377 327.92C928.377 336.2 925.617 344.84 925.617 347.48C925.617 348.92 926.457 349.88 927.777 349.88C930.297 349.88 934.497 346.16 939.537 339.8Z" fill="url(#paint5_linear_4745_134571)"/>
<path d="M995.975 304.16C995.975 314.36 981.095 325.52 957.095 328.64C956.975 330.2 956.855 331.76 956.855 333.32C956.855 345.44 962.015 350.12 969.935 350.12C977.135 350.12 983.375 346.04 988.295 337.64L989.375 338.12C983.495 350 974.135 360.8 961.055 360.8C952.775 360.8 945.815 356.24 945.815 343.64C945.815 320.12 967.415 297.08 987.455 297.08C992.735 297.08 995.975 299.48 995.975 304.16ZM977.135 301.16C969.695 303.68 959.735 313.28 957.335 327.2C968.975 325.16 982.775 318.68 982.775 307.64C982.775 304.16 980.975 301.16 977.135 301.16Z" fill="url(#paint6_linear_4745_134571)"/>
<path d="M1044.04 297.2C1045.36 297.2 1047.28 297.56 1048.36 298.28L1043.68 313.4H1042.6C1040.92 312.08 1039 311.48 1037.32 311.48C1030.96 311.48 1027.36 314.96 1012.12 346.04L1008.64 359H996.523L1009.84 309.08C1010.92 305 1009.72 303.08 1004.68 303.68L1002.64 303.92L1003 302.72L1025.08 297.08L1013.92 339.2C1031.2 303.2 1037.32 297.2 1044.04 297.2Z" fill="url(#paint7_linear_4745_134571)"/>
<path d="M168.28 199V115H177.28V199H168.28Z" fill="#3A3A3A"/>
<path d="M196.346 199V142.12H204.146V150.88C207.626 143.92 214.706 140.56 223.226 140.56C237.266 140.56 246.026 148.84 246.026 164.92V199H237.386V165.52C237.386 153.76 231.386 148.48 221.786 148.48C211.826 148.48 204.986 155.56 204.986 165.88V199H196.346Z" fill="#3A3A3A"/>
<path d="M282.211 199C272.851 199 268.891 195.28 268.891 186.16V149.8H253.531V142.12H268.891V124.84H277.531V142.12H295.891V149.8H277.531V184.72C277.531 189.4 279.451 191.32 284.251 191.32H295.891V199H282.211Z" fill="#3A3A3A"/>
<path d="M330.326 200.56C313.526 200.56 302.366 188.8 302.366 170.32C302.366 151.84 313.646 140.56 329.486 140.56C345.926 140.56 356.246 151.36 356.246 168.28C356.246 169.48 356.126 170.68 355.886 173.2H311.126C311.486 185.44 318.806 193 330.446 193C338.006 193 343.526 189.52 346.286 183.16H355.166C351.446 193.96 342.806 200.56 330.326 200.56ZM311.126 166H347.486V165.16C347.486 155.08 340.766 147.76 329.486 147.76C318.686 147.76 311.606 155.32 311.126 166Z" fill="#3A3A3A"/>
<path d="M370.168 199V142.12H377.968V151.12C379.408 145.72 383.248 142.12 389.968 142.12H401.248V149.8H389.248C381.808 149.8 378.808 154.36 378.808 162.76V199H370.168Z" fill="#3A3A3A"/>
<path d="M425.472 200.56C412.512 200.56 404.472 193.72 404.472 183.16C404.472 173.2 411.072 166 425.112 165.16L443.952 164.08V160.48C443.952 151.6 439.632 147.88 430.512 147.88C421.872 147.88 417.312 150.16 416.112 157.48H407.352C408.672 145.84 416.832 140.56 431.232 140.56C444.552 140.56 452.352 147.28 452.352 160.24V189.4C452.352 190.84 452.952 191.44 454.392 191.44H459.192V199H451.272C447.552 199 445.392 196.96 445.392 193.24V190C442.152 196.84 435.072 200.56 425.472 200.56ZM413.232 182.92C413.232 189.04 418.272 193.24 426.312 193.24C437.232 193.24 443.952 186.88 443.952 175.48V171.16L425.952 172.36C417.192 172.84 413.232 177.28 413.232 182.92Z" fill="#3A3A3A"/>
<path d="M494.767 200.56C478.207 200.56 467.047 188.08 467.047 170.68C467.047 153.04 478.447 140.56 495.367 140.56C509.647 140.56 519.007 148.84 520.447 160.12H511.447C510.127 153.76 504.847 148.48 495.367 148.48C483.607 148.48 476.047 157.24 476.047 170.56C476.047 184 483.847 192.64 494.887 192.64C503.767 192.64 510.247 187.48 511.687 179.8H520.687C519.007 190.96 509.767 200.56 494.767 200.56Z" fill="#3A3A3A"/>
<path d="M552.774 199C543.414 199 539.454 195.28 539.454 186.16V149.8H524.094V142.12H539.454V124.84H548.094V142.12H566.454V149.8H548.094V184.72C548.094 189.4 550.014 191.32 554.814 191.32H566.454V199H552.774Z" fill="#3A3A3A"/>
<path d="M578.297 199V142.12H586.937V199H578.297ZM577.457 129.04V116.2H587.657V129.04H577.457Z" fill="#3A3A3A"/>
<path d="M630.179 200.56C613.019 200.56 601.259 188.44 601.259 170.56C601.259 152.68 613.019 140.56 630.179 140.56C647.219 140.56 658.979 152.68 658.979 170.56C658.979 188.44 647.219 200.56 630.179 200.56ZM610.259 170.56C610.259 183.76 618.299 192.64 630.179 192.64C642.059 192.64 649.979 183.76 649.979 170.56C649.979 157.36 642.059 148.48 630.179 148.48C618.299 148.48 610.259 157.36 610.259 170.56Z" fill="#3A3A3A"/>
<path d="M673.632 199V142.12H681.432V150.88C684.912 143.92 691.992 140.56 700.512 140.56C714.552 140.56 723.312 148.84 723.312 164.92V199H714.672V165.52C714.672 153.76 708.672 148.48 699.072 148.48C689.112 148.48 682.272 155.56 682.272 165.88V199H673.632Z" fill="#3A3A3A"/>
<path d="M198.4 514.56C178.84 514.56 167.2 502.2 167.2 481.44V429H176.32V480.96C176.32 497.16 184.36 506.16 198.4 506.16C212.44 506.16 220.48 497.16 220.48 480.96V429H229.6V481.44C229.6 502.2 218.08 514.56 198.4 514.56Z" fill="#3A3A3A"/>
<path d="M240.346 513L270.466 469.32L241.906 429H253.066L276.106 462.12L299.146 429H310.306L281.746 469.08L311.986 513H300.826L276.106 476.4L251.386 513H240.346Z" fill="#3A3A3A"/>
<path d="M356.361 427.32L324.441 513H314.121L346.041 427.32H356.361Z" fill="#3A3A3A"/>
<path d="M397.769 514.56C378.209 514.56 366.569 502.2 366.569 481.44V429H375.689V480.96C375.689 497.16 383.729 506.16 397.769 506.16C411.809 506.16 419.849 497.16 419.849 480.96V429H428.969V481.44C428.969 502.2 417.449 514.56 397.769 514.56Z" fill="#3A3A3A"/>
<path d="M449.301 513V429H458.301V513H449.301Z" fill="#3A3A3A"/>
<path d="M183.88 665L160.72 581H170.32L189.76 653L209.2 581H219.4L238.84 653L258.16 581H267.76L244.72 665H233.68L214.24 593.6L194.8 665H183.88Z" fill="#181818"/>
<path d="M298.625 666.56C281.825 666.56 270.665 654.8 270.665 636.32C270.665 617.84 281.945 606.56 297.785 606.56C314.225 606.56 324.545 617.36 324.545 634.28C324.545 635.48 324.425 636.68 324.185 639.2H279.425C279.785 651.44 287.105 659 298.745 659C306.305 659 311.825 655.52 314.585 649.16H323.465C319.745 659.96 311.105 666.56 298.625 666.56ZM279.425 632H315.785V631.16C315.785 621.08 309.065 613.76 297.785 613.76C286.985 613.76 279.905 621.32 279.425 632Z" fill="#181818"/>
<path d="M367.266 666.56C357.306 666.56 349.986 662.48 346.266 655.16V665H338.466V581H347.106V617C350.706 610.28 357.786 606.56 367.266 606.56C383.466 606.56 394.506 618.68 394.506 636.56C394.506 654.44 383.466 666.56 367.266 666.56ZM346.866 636.56C346.866 649.76 354.426 658.64 366.066 658.64C377.706 658.64 385.506 649.76 385.506 636.56C385.506 623.36 377.706 614.48 366.066 614.48C354.426 614.48 346.866 623.36 346.866 636.56Z" fill="#181818"/>
<path d="M201.4 38.56C179.8 38.56 164.56 23.1999 164.56 -4.88005C164.56 -33.0801 179.32 -48.5601 202 -48.5601C220.24 -48.5601 232.36 -38.1201 234.88 -22.0401H225.4C223.24 -32.7201 214.84 -40.2801 202 -40.2801C184.84 -40.2801 173.92 -28.2801 173.92 -4.88005C173.92 18.7599 185.32 30.2799 202.36 30.2799C216.16 30.2799 225.4 21.5199 226.36 5.43995H193.96V-2.84005H234.88V36.9999H227.2V23.56C222.76 32.68 213.64 38.56 201.4 38.56Z" fill="#181818"/>
<path d="M252.596 36.9999V-19.8801H260.396V-10.8801C261.836 -16.2801 265.676 -19.8801 272.396 -19.8801H283.676V-12.2001H271.676C264.236 -12.2001 261.236 -7.64005 261.236 0.759945V36.9999H252.596Z" fill="#181818"/>
<path d="M307.9 38.56C294.94 38.56 286.9 31.7199 286.9 21.16C286.9 11.1999 293.5 3.99995 307.54 3.15995L326.38 2.07995V-1.52005C326.38 -10.4001 322.06 -14.1201 312.94 -14.1201C304.3 -14.1201 299.74 -11.8401 298.54 -4.52005H289.78C291.1 -16.1601 299.26 -21.4401 313.66 -21.4401C326.98 -21.4401 334.78 -14.7201 334.78 -1.76005V27.3999C334.78 28.8399 335.38 29.4399 336.82 29.4399H341.62V36.9999H333.7C329.98 36.9999 327.82 34.96 327.82 31.24V27.9999C324.58 34.8399 317.5 38.56 307.9 38.56ZM295.66 20.9199C295.66 27.0399 300.7 31.24 308.74 31.24C319.66 31.24 326.38 24.8799 326.38 13.4799V9.15995L308.38 10.3599C299.62 10.8399 295.66 15.2799 295.66 20.9199Z" fill="#181818"/>
<path d="M353.555 58.6V-19.8801H361.355V-10.0401C365.075 -17.3601 372.395 -21.4401 382.355 -21.4401C398.555 -21.4401 409.595 -9.32005 409.595 8.55995C409.595 26.4399 398.555 38.56 382.355 38.56C372.875 38.56 365.795 34.8399 362.195 28.1199V58.6H353.555ZM361.955 8.55995C361.955 21.7599 369.515 30.6399 381.155 30.6399C392.795 30.6399 400.595 21.7599 400.595 8.55995C400.595 -4.64005 392.795 -13.5201 381.155 -13.5201C369.515 -13.5201 361.955 -4.64005 361.955 8.55995Z" fill="#181818"/>
<path d="M424.191 36.9999V-47.0001H432.831V-12.6801C436.671 -18.6801 443.271 -21.4401 451.071 -21.4401C465.111 -21.4401 473.871 -13.1601 473.871 2.91995V36.9999H465.231V3.51995C465.231 -8.24005 459.231 -13.5201 449.631 -13.5201C439.671 -13.5201 432.831 -6.44006 432.831 3.87994V36.9999H424.191Z" fill="#181818"/>
<path d="M491.312 36.9999V-19.8801H499.952V36.9999H491.312ZM490.472 -32.9601V-45.8001H500.672V-32.9601H490.472Z" fill="#181818"/>
<path d="M541.994 38.56C525.434 38.56 514.274 26.0799 514.274 8.67995C514.274 -8.96005 525.674 -21.4401 542.594 -21.4401C556.874 -21.4401 566.234 -13.1601 567.674 -1.88005H558.674C557.354 -8.24005 552.074 -13.5201 542.594 -13.5201C530.834 -13.5201 523.274 -4.76005 523.274 8.55995C523.274 22 531.074 30.6399 542.114 30.6399C550.994 30.6399 557.474 25.48 558.914 17.7999H567.914C566.234 28.96 556.994 38.56 541.994 38.56Z" fill="#181818"/>
</g>
<defs>
<linearGradient id="paint0_linear_4745_134571" x1="611" y1="379" x2="1025.56" y2="422.641" gradientUnits="userSpaceOnUse">
<stop stop-color="#FF8000"/>
<stop offset="0.41464" stop-color="#EF58EF"/>
<stop offset="1" stop-color="#0063FF"/>
</linearGradient>
<linearGradient id="paint1_linear_4745_134571" x1="611" y1="379" x2="1025.56" y2="422.641" gradientUnits="userSpaceOnUse">
<stop stop-color="#FF8000"/>
<stop offset="0.41464" stop-color="#EF58EF"/>
<stop offset="1" stop-color="#0063FF"/>
</linearGradient>
<linearGradient id="paint2_linear_4745_134571" x1="611" y1="379" x2="1025.56" y2="422.641" gradientUnits="userSpaceOnUse">
<stop stop-color="#FF8000"/>
<stop offset="0.41464" stop-color="#EF58EF"/>
<stop offset="1" stop-color="#0063FF"/>
</linearGradient>
<linearGradient id="paint3_linear_4745_134571" x1="611" y1="379" x2="1025.56" y2="422.641" gradientUnits="userSpaceOnUse">
<stop stop-color="#FF8000"/>
<stop offset="0.41464" stop-color="#EF58EF"/>
<stop offset="1" stop-color="#0063FF"/>
</linearGradient>
<linearGradient id="paint4_linear_4745_134571" x1="611" y1="379" x2="1025.56" y2="422.641" gradientUnits="userSpaceOnUse">
<stop stop-color="#FF8000"/>
<stop offset="0.41464" stop-color="#EF58EF"/>
<stop offset="1" stop-color="#0063FF"/>
</linearGradient>
<linearGradient id="paint5_linear_4745_134571" x1="611" y1="379" x2="1025.56" y2="422.641" gradientUnits="userSpaceOnUse">
<stop stop-color="#FF8000"/>
<stop offset="0.41464" stop-color="#EF58EF"/>
<stop offset="1" stop-color="#0063FF"/>
</linearGradient>
<linearGradient id="paint6_linear_4745_134571" x1="611" y1="379" x2="1025.56" y2="422.641" gradientUnits="userSpaceOnUse">
<stop stop-color="#FF8000"/>
<stop offset="0.41464" stop-color="#EF58EF"/>
<stop offset="1" stop-color="#0063FF"/>
</linearGradient>
<linearGradient id="paint7_linear_4745_134571" x1="611" y1="379" x2="1025.56" y2="422.641" gradientUnits="userSpaceOnUse">
<stop stop-color="#FF8000"/>
<stop offset="0.41464" stop-color="#EF58EF"/>
<stop offset="1" stop-color="#0063FF"/>
</linearGradient>
<clipPath id="clip0_4745_134571">
<rect width="1200" height="630" fill="white"/>
</clipPath>
</defs>
</svg>
