<svg width="1536" height="760" viewBox="0 0 1536 760" fill="none" xmlns="http://www.w3.org/2000/svg">
<g clip-path="url(#clip0_4638_122642)">
<path d="M190.906 187.336C186.754 187.336 184.258 185.248 184.234 181.864H186.706C186.73 183.904 188.314 185.2 190.906 185.2C193.211 185.2 194.674 184 194.674 182.176C194.674 180.712 193.738 179.824 191.819 179.56L189.61 179.248C186.394 178.816 184.786 177.232 184.786 174.712C184.786 171.76 187.162 169.864 190.786 169.864C194.554 169.864 196.858 171.688 196.931 174.616H194.458C194.386 172.984 192.994 171.976 190.786 171.976C188.674 171.976 187.282 172.984 187.282 174.568C187.282 175.936 188.266 176.704 190.33 176.992L192.418 177.28C195.538 177.712 197.17 179.32 197.17 182.032C197.17 185.248 194.794 187.336 190.906 187.336ZM207.44 187L203.504 181.816H202.28V187H199.952V170.2H202.28V179.656H203.504L207.392 175.456H210.248L205.544 180.688L210.248 187H207.44ZM212.157 187V175.456H214.485V187H212.157ZM212.013 173.128V170.368H214.605V173.128H212.013ZM217.987 191.32V175.456H220.051V177.088C220.795 175.84 222.259 175.12 224.059 175.12C227.347 175.12 229.603 177.568 229.603 181.216C229.603 184.888 227.347 187.336 224.059 187.336C222.403 187.336 221.059 186.712 220.315 185.584V191.32H217.987ZM220.267 181.216C220.267 183.616 221.635 185.224 223.723 185.224C225.811 185.224 227.203 183.616 227.203 181.216C227.203 178.84 225.811 177.232 223.723 177.232C221.635 177.232 220.267 178.84 220.267 181.216ZM242.403 187C240.411 187 239.547 186.208 239.547 184.216V177.496H236.523V175.456H239.547V172H241.875V175.456H245.499V177.496H241.875V183.76C241.875 184.6 242.211 184.96 243.099 184.96H245.499V187H242.403ZM252.615 187.336C249.111 187.336 246.663 184.888 246.663 181.216C246.663 177.568 249.111 175.12 252.615 175.12C256.143 175.12 258.567 177.568 258.567 181.216C258.567 184.888 256.143 187.336 252.615 187.336ZM249.063 181.216C249.063 183.616 250.503 185.224 252.615 185.224C254.751 185.224 256.167 183.616 256.167 181.216C256.167 178.84 254.751 177.232 252.615 177.232C250.503 177.232 249.063 178.84 249.063 181.216ZM271.355 187C269.363 187 268.499 186.208 268.499 184.216V177.496H265.475V175.456H268.499V172H270.827V175.456H274.451V177.496H270.827V183.76C270.827 184.6 271.163 184.96 272.051 184.96H274.451V187H271.355ZM276.688 187V170.2H279.016V176.584C279.784 175.6 281.008 175.12 282.4 175.12C285.232 175.12 287.008 176.848 287.008 180.04V187H284.68V180.256C284.68 178.192 283.672 177.232 281.968 177.232C280.192 177.232 279.016 178.456 279.016 180.328V187H276.688ZM295.244 187.336C291.788 187.336 289.484 184.912 289.484 181.168C289.484 177.448 291.788 175.12 295.076 175.12C298.508 175.12 300.62 177.352 300.62 180.88C300.62 181.192 300.596 181.504 300.548 181.984H291.788C291.884 184.096 293.18 185.368 295.244 185.368C296.612 185.368 297.572 184.744 298.028 183.712H300.404C299.684 185.944 297.908 187.336 295.244 187.336ZM291.788 180.16H298.268V180.04C298.268 178.264 297.116 176.992 295.076 176.992C293.132 176.992 291.884 178.288 291.788 180.16ZM314.894 187.336C310.742 187.336 308.246 185.248 308.222 181.864H310.694C310.718 183.904 312.302 185.2 314.894 185.2C317.198 185.2 318.662 184 318.662 182.176C318.662 180.712 317.726 179.824 315.806 179.56L313.598 179.248C310.382 178.816 308.774 177.232 308.774 174.712C308.774 171.76 311.15 169.864 314.774 169.864C318.542 169.864 320.846 171.688 320.918 174.616H318.446C318.374 172.984 316.982 171.976 314.774 171.976C312.662 171.976 311.27 172.984 311.27 174.568C311.27 175.936 312.254 176.704 314.318 176.992L316.406 177.28C319.526 177.712 321.158 179.32 321.158 182.032C321.158 185.248 318.782 187.336 314.894 187.336ZM328.907 187.336C325.451 187.336 323.147 184.912 323.147 181.168C323.147 177.448 325.451 175.12 328.739 175.12C332.171 175.12 334.283 177.352 334.283 180.88C334.283 181.192 334.259 181.504 334.211 181.984H325.451C325.547 184.096 326.843 185.368 328.907 185.368C330.275 185.368 331.235 184.744 331.691 183.712H334.067C333.347 185.944 331.571 187.336 328.907 187.336ZM325.451 180.16H331.931V180.04C331.931 178.264 330.779 176.992 328.739 176.992C326.795 176.992 325.547 178.288 325.451 180.16ZM341.743 187.336C338.287 187.336 336.055 184.768 336.055 181.264C336.055 177.664 338.407 175.12 341.887 175.12C344.815 175.12 346.807 176.824 347.071 179.248H344.695C344.479 178.168 343.519 177.232 341.863 177.232C339.799 177.232 338.455 178.792 338.455 181.216C338.455 183.688 339.823 185.224 341.815 185.224C343.375 185.224 344.503 184.312 344.743 182.968H347.119C346.807 185.272 344.887 187.336 341.743 187.336ZM354.588 187.336C351.084 187.336 348.636 184.888 348.636 181.216C348.636 177.568 351.084 175.12 354.588 175.12C358.116 175.12 360.54 177.568 360.54 181.216C360.54 184.888 358.116 187.336 354.588 187.336ZM351.036 181.216C351.036 183.616 352.476 185.224 354.588 185.224C356.724 185.224 358.14 183.616 358.14 181.216C358.14 178.84 356.724 177.232 354.588 177.232C352.476 177.232 351.036 178.84 351.036 181.216ZM363.203 187V175.456H365.267V176.968C365.963 175.72 367.355 175.12 368.915 175.12C371.747 175.12 373.523 176.848 373.523 180.04V187H371.195V180.256C371.195 178.192 370.187 177.232 368.483 177.232C366.707 177.232 365.531 178.456 365.531 180.328V187H363.203ZM381.543 187.336C378.255 187.336 375.999 184.888 375.999 181.216C375.999 177.568 378.255 175.12 381.543 175.12C383.223 175.12 384.591 175.744 385.311 176.872V170.2H387.615V187H385.551V185.392C384.783 186.616 383.343 187.336 381.543 187.336ZM378.399 181.216C378.399 183.616 379.815 185.224 381.903 185.224C383.991 185.224 385.359 183.616 385.359 181.216C385.359 178.84 383.991 177.232 381.903 177.232C379.815 177.232 378.399 178.84 378.399 181.216ZM402.839 187.336C398.687 187.336 396.191 185.248 396.167 181.864H398.639C398.663 183.904 400.247 185.2 402.839 185.2C405.143 185.2 406.607 184 406.607 182.176C406.607 180.712 405.671 179.824 403.751 179.56L401.543 179.248C398.327 178.816 396.719 177.232 396.719 174.712C396.719 171.76 399.095 169.864 402.719 169.864C406.487 169.864 408.791 171.688 408.863 174.616H406.391C406.319 172.984 404.927 171.976 402.719 171.976C400.607 171.976 399.215 172.984 399.215 174.568C399.215 175.936 400.199 176.704 402.263 176.992L404.351 177.28C407.471 177.712 409.103 179.32 409.103 182.032C409.103 185.248 406.727 187.336 402.839 187.336ZM416.084 187C414.092 187 413.228 186.208 413.228 184.216V177.496H410.204V175.456H413.228V172H415.556V175.456H419.18V177.496H415.556V183.76C415.556 184.6 415.892 184.96 416.78 184.96H419.18V187H416.084ZM426.151 187.336C422.695 187.336 420.391 184.912 420.391 181.168C420.391 177.448 422.695 175.12 425.983 175.12C429.415 175.12 431.527 177.352 431.527 180.88C431.527 181.192 431.503 181.504 431.455 181.984H422.695C422.791 184.096 424.087 185.368 426.151 185.368C427.519 185.368 428.479 184.744 428.935 183.712H431.311C430.591 185.944 428.815 187.336 426.151 187.336ZM422.695 180.16H429.175V180.04C429.175 178.264 428.023 176.992 425.983 176.992C424.039 176.992 422.791 178.288 422.695 180.16ZM434.091 191.32V175.456H436.155V177.088C436.899 175.84 438.363 175.12 440.163 175.12C443.451 175.12 445.707 177.568 445.707 181.216C445.707 184.888 443.451 187.336 440.163 187.336C438.507 187.336 437.163 186.712 436.419 185.584V191.32H434.091ZM436.371 181.216C436.371 183.616 437.739 185.224 439.827 185.224C441.915 185.224 443.307 183.616 443.307 181.216C443.307 178.84 441.915 177.232 439.827 177.232C437.739 177.232 436.371 178.84 436.371 181.216Z" fill="#0D0D0D"/>
<path d="M657.298 187.336C653.146 187.336 650.65 185.248 650.626 181.864H653.098C653.122 183.904 654.706 185.2 657.298 185.2C659.602 185.2 661.066 184 661.066 182.176C661.066 180.712 660.13 179.824 658.21 179.56L656.002 179.248C652.786 178.816 651.178 177.232 651.178 174.712C651.178 171.76 653.554 169.864 657.178 169.864C660.946 169.864 663.25 171.688 663.322 174.616H660.85C660.778 172.984 659.386 171.976 657.178 171.976C655.066 171.976 653.674 172.984 653.674 174.568C653.674 175.936 654.658 176.704 656.722 176.992L658.81 177.28C661.93 177.712 663.562 179.32 663.562 182.032C663.562 185.248 661.186 187.336 657.298 187.336ZM673.831 187L669.895 181.816H668.671V187H666.343V170.2H668.671V179.656H669.895L673.783 175.456H676.639L671.935 180.688L676.639 187H673.831ZM678.549 187V175.456H680.877V187H678.549ZM678.405 173.128V170.368H680.997V173.128H678.405ZM684.379 191.32V175.456H686.443V177.088C687.187 175.84 688.651 175.12 690.451 175.12C693.739 175.12 695.995 177.568 695.995 181.216C695.995 184.888 693.739 187.336 690.451 187.336C688.795 187.336 687.451 186.712 686.707 185.584V191.32H684.379ZM686.659 181.216C686.659 183.616 688.027 185.224 690.115 185.224C692.203 185.224 693.595 183.616 693.595 181.216C693.595 178.84 692.203 177.232 690.115 177.232C688.027 177.232 686.659 178.84 686.659 181.216ZM708.794 187C706.802 187 705.938 186.208 705.938 184.216V177.496H702.914V175.456H705.938V172H708.266V175.456H711.89V177.496H708.266V183.76C708.266 184.6 708.602 184.96 709.49 184.96H711.89V187H708.794ZM719.007 187.336C715.503 187.336 713.055 184.888 713.055 181.216C713.055 177.568 715.503 175.12 719.007 175.12C722.535 175.12 724.959 177.568 724.959 181.216C724.959 184.888 722.535 187.336 719.007 187.336ZM715.455 181.216C715.455 183.616 716.895 185.224 719.007 185.224C721.143 185.224 722.559 183.616 722.559 181.216C722.559 178.84 721.143 177.232 719.007 177.232C716.895 177.232 715.455 178.84 715.455 181.216ZM737.746 187C735.754 187 734.89 186.208 734.89 184.216V177.496H731.866V175.456H734.89V172H737.218V175.456H740.842V177.496H737.218V183.76C737.218 184.6 737.554 184.96 738.442 184.96H740.842V187H737.746ZM743.08 187V170.2H745.408V176.584C746.176 175.6 747.4 175.12 748.792 175.12C751.624 175.12 753.4 176.848 753.4 180.04V187H751.072V180.256C751.072 178.192 750.064 177.232 748.36 177.232C746.584 177.232 745.408 178.456 745.408 180.328V187H743.08ZM761.636 187.336C758.18 187.336 755.876 184.912 755.876 181.168C755.876 177.448 758.18 175.12 761.468 175.12C764.9 175.12 767.012 177.352 767.012 180.88C767.012 181.192 766.988 181.504 766.94 181.984H758.18C758.276 184.096 759.572 185.368 761.636 185.368C763.004 185.368 763.964 184.744 764.42 183.712H766.796C766.076 185.944 764.3 187.336 761.636 187.336ZM758.18 180.16H764.66V180.04C764.66 178.264 763.508 176.992 761.468 176.992C759.524 176.992 758.276 178.288 758.18 180.16ZM779.293 187V172.456H774.013V170.2H786.973V172.456H781.693V187H779.293ZM788.995 187V170.2H791.323V176.584C792.091 175.6 793.315 175.12 794.707 175.12C797.539 175.12 799.315 176.848 799.315 180.04V187H796.987V180.256C796.987 178.192 795.979 177.232 794.275 177.232C792.499 177.232 791.323 178.456 791.323 180.328V187H788.995ZM802.536 187V175.456H804.864V187H802.536ZM802.392 173.128V170.368H804.984V173.128H802.392ZM808.249 187V175.456H810.313V177.328C810.601 176.176 811.465 175.456 812.833 175.456H815.041V177.496H812.617C811.177 177.496 810.577 178.312 810.577 179.872V187H808.249ZM821.152 187.336C817.864 187.336 815.608 184.888 815.608 181.216C815.608 177.568 817.864 175.12 821.152 175.12C822.832 175.12 824.2 175.744 824.92 176.872V170.2H827.224V187H825.16V185.392C824.392 186.616 822.952 187.336 821.152 187.336ZM818.008 181.216C818.008 183.616 819.424 185.224 821.512 185.224C823.6 185.224 824.968 183.616 824.968 181.216C824.968 178.84 823.6 177.232 821.512 177.232C819.424 177.232 818.008 178.84 818.008 181.216ZM842.447 187.336C838.295 187.336 835.799 185.248 835.775 181.864H838.247C838.271 183.904 839.855 185.2 842.447 185.2C844.751 185.2 846.215 184 846.215 182.176C846.215 180.712 845.279 179.824 843.359 179.56L841.151 179.248C837.935 178.816 836.327 177.232 836.327 174.712C836.327 171.76 838.703 169.864 842.327 169.864C846.095 169.864 848.399 171.688 848.471 174.616H845.999C845.927 172.984 844.535 171.976 842.327 171.976C840.215 171.976 838.823 172.984 838.823 174.568C838.823 175.936 839.807 176.704 841.871 176.992L843.959 177.28C847.079 177.712 848.711 179.32 848.711 182.032C848.711 185.248 846.335 187.336 842.447 187.336ZM855.692 187C853.7 187 852.836 186.208 852.836 184.216V177.496H849.812V175.456H852.836V172H855.164V175.456H858.788V177.496H855.164V183.76C855.164 184.6 855.5 184.96 856.388 184.96H858.788V187H855.692ZM865.759 187.336C862.303 187.336 859.999 184.912 859.999 181.168C859.999 177.448 862.303 175.12 865.591 175.12C869.023 175.12 871.135 177.352 871.135 180.88C871.135 181.192 871.111 181.504 871.063 181.984H862.303C862.399 184.096 863.695 185.368 865.759 185.368C867.127 185.368 868.087 184.744 868.543 183.712H870.919C870.199 185.944 868.423 187.336 865.759 187.336ZM862.303 180.16H868.783V180.04C868.783 178.264 867.631 176.992 865.591 176.992C863.647 176.992 862.399 178.288 862.303 180.16ZM873.7 191.32V175.456H875.764V177.088C876.508 175.84 877.972 175.12 879.772 175.12C883.06 175.12 885.316 177.568 885.316 181.216C885.316 184.888 883.06 187.336 879.772 187.336C878.116 187.336 876.772 186.712 876.028 185.584V191.32H873.7ZM875.98 181.216C875.98 183.616 877.348 185.224 879.436 185.224C881.524 185.224 882.916 183.616 882.916 181.216C882.916 178.84 881.524 177.232 879.436 177.232C877.348 177.232 875.98 178.84 875.98 181.216Z" fill="#0D0D0D"/>
<path d="M1132.21 187V172.456H1126.93V170.2H1139.89V172.456H1134.61V187H1132.21ZM1140.16 187V175.456H1142.22V177.328C1142.51 176.176 1143.37 175.456 1144.74 175.456H1146.95V177.496H1144.52C1143.08 177.496 1142.48 178.312 1142.48 179.872V187H1140.16ZM1148.68 187V175.456H1151.01V187H1148.68ZM1148.54 173.128V170.368H1151.13V173.128H1148.54ZM1157.85 187.336C1155.18 187.336 1153.5 185.944 1153.5 183.736C1153.5 181.672 1154.9 180.184 1157.73 180.016L1161.23 179.824V179.176C1161.23 177.664 1160.49 177.04 1158.9 177.04C1157.37 177.04 1156.6 177.448 1156.41 178.672H1154.08C1154.34 176.296 1155.98 175.12 1159.07 175.12C1161.83 175.12 1163.44 176.512 1163.44 179.056V184.696C1163.44 184.96 1163.56 185.08 1163.82 185.08H1164.81V187H1162.94C1162.14 187 1161.69 186.568 1161.69 185.8V185.464C1161.02 186.64 1159.65 187.336 1157.85 187.336ZM1155.83 183.664C1155.83 184.72 1156.7 185.416 1158.11 185.416C1159.98 185.416 1161.23 184.336 1161.23 182.368V181.624L1158.02 181.864C1156.53 181.96 1155.83 182.728 1155.83 183.664ZM1169.35 187C1167.72 187 1167.02 186.376 1167.02 184.816V170.2H1169.35V184.096C1169.35 184.696 1169.57 184.96 1170.17 184.96H1171.63V187H1169.35ZM1185.5 187.336C1181.35 187.336 1178.85 185.248 1178.83 181.864H1181.3C1181.32 183.904 1182.91 185.2 1185.5 185.2C1187.8 185.2 1189.27 184 1189.27 182.176C1189.27 180.712 1188.33 179.824 1186.41 179.56L1184.2 179.248C1180.99 178.816 1179.38 177.232 1179.38 174.712C1179.38 171.76 1181.76 169.864 1185.38 169.864C1189.15 169.864 1191.45 171.688 1191.52 174.616H1189.05C1188.98 172.984 1187.59 171.976 1185.38 171.976C1183.27 171.976 1181.88 172.984 1181.88 174.568C1181.88 175.936 1182.86 176.704 1184.92 176.992L1187.01 177.28C1190.13 177.712 1191.76 179.32 1191.76 182.032C1191.76 185.248 1189.39 187.336 1185.5 187.336ZM1198.79 187.336C1195.98 187.336 1194.26 185.608 1194.26 182.416V175.456H1196.58V182.2C1196.58 184.264 1197.54 185.224 1199.22 185.224C1200.98 185.224 1202.1 183.976 1202.1 182.128V175.456H1204.43V187H1202.37V185.68C1201.6 186.808 1200.28 187.336 1198.79 187.336ZM1213.85 187.336C1212.05 187.336 1210.59 186.616 1209.85 185.344V187H1207.78V170.2H1210.11V176.848C1210.85 175.744 1212.2 175.12 1213.85 175.12C1217.14 175.12 1219.4 177.568 1219.4 181.216C1219.4 184.888 1217.14 187.336 1213.85 187.336ZM1210.06 181.216C1210.06 183.616 1211.43 185.224 1213.52 185.224C1215.61 185.224 1217 183.616 1217 181.216C1217 178.84 1215.61 177.232 1213.52 177.232C1211.43 177.232 1210.06 178.84 1210.06 181.216ZM1226.13 187.336C1223.01 187.336 1221.16 186.088 1221.04 183.712H1223.44C1223.56 184.864 1224.5 185.44 1226.18 185.44C1227.71 185.44 1228.65 184.792 1228.65 183.736C1228.65 182.872 1228 182.368 1226.8 182.248L1224.95 182.056C1222.79 181.84 1221.42 180.64 1221.42 178.72C1221.42 176.512 1223.27 175.12 1226.1 175.12C1228.98 175.12 1230.76 176.32 1230.9 178.672H1228.58C1228.5 177.568 1227.59 177.016 1226.08 177.016C1224.64 177.016 1223.73 177.616 1223.73 178.6C1223.73 179.44 1224.35 179.896 1225.7 180.064L1227.57 180.28C1229.75 180.52 1231 181.744 1231 183.64C1231 185.896 1229.1 187.336 1226.13 187.336ZM1238.49 187.336C1235.04 187.336 1232.81 184.768 1232.81 181.264C1232.81 177.664 1235.16 175.12 1238.64 175.12C1241.57 175.12 1243.56 176.824 1243.82 179.248H1241.45C1241.23 178.168 1240.27 177.232 1238.61 177.232C1236.55 177.232 1235.21 178.792 1235.21 181.216C1235.21 183.688 1236.57 185.224 1238.57 185.224C1240.13 185.224 1241.25 184.312 1241.49 182.968H1243.87C1243.56 185.272 1241.64 187.336 1238.49 187.336ZM1246.01 187V175.456H1248.08V177.328C1248.37 176.176 1249.23 175.456 1250.6 175.456H1252.81V177.496H1250.38C1248.94 177.496 1248.34 178.312 1248.34 179.872V187H1246.01ZM1254.54 187V175.456H1256.87V187H1254.54ZM1254.4 173.128V170.368H1256.99V173.128H1254.4ZM1260.37 191.32V175.456H1262.43V177.088C1263.18 175.84 1264.64 175.12 1266.44 175.12C1269.73 175.12 1271.99 177.568 1271.99 181.216C1271.99 184.888 1269.73 187.336 1266.44 187.336C1264.79 187.336 1263.44 186.712 1262.7 185.584V191.32H1260.37ZM1262.65 181.216C1262.65 183.616 1264.02 185.224 1266.11 185.224C1268.19 185.224 1269.59 183.616 1269.59 181.216C1269.59 178.84 1268.19 177.232 1266.11 177.232C1264.02 177.232 1262.65 178.84 1262.65 181.216ZM1278.67 187C1276.68 187 1275.82 186.208 1275.82 184.216V177.496H1272.79V175.456H1275.82V172H1278.15V175.456H1281.77V177.496H1278.15V183.76C1278.15 184.6 1278.48 184.96 1279.37 184.96H1281.77V187H1278.67ZM1284.01 187V175.456H1286.34V187H1284.01ZM1283.86 173.128V170.368H1286.46V173.128H1283.86ZM1294.93 187.336C1291.42 187.336 1288.98 184.888 1288.98 181.216C1288.98 177.568 1291.42 175.12 1294.93 175.12C1298.46 175.12 1300.88 177.568 1300.88 181.216C1300.88 184.888 1298.46 187.336 1294.93 187.336ZM1291.38 181.216C1291.38 183.616 1292.82 185.224 1294.93 185.224C1297.06 185.224 1298.48 183.616 1298.48 181.216C1298.48 178.84 1297.06 177.232 1294.93 177.232C1292.82 177.232 1291.38 178.84 1291.38 181.216ZM1303.54 187V175.456H1305.61V176.968C1306.3 175.72 1307.69 175.12 1309.25 175.12C1312.09 175.12 1313.86 176.848 1313.86 180.04V187H1311.53V180.256C1311.53 178.192 1310.53 177.232 1308.82 177.232C1307.05 177.232 1305.87 178.456 1305.87 180.328V187H1303.54Z" fill="#0D0D0D"/>
<rect x="129.5" y="357.5" width="175" height="161" rx="15.5" fill="#CECCC9"/>
<rect x="129.5" y="357.5" width="175" height="161" rx="15.5" stroke="#BFBDBA"/>
<path d="M186.6 491V488.088H193.64C196.392 488.088 198.28 486.424 198.28 483.96C198.28 481.528 196.552 479.864 193.64 479.864H187.144V468.6H200.52V471.512H190.248V477.048H193.992C198.536 477.048 201.512 479.768 201.512 483.832C201.512 488.088 198.376 491 193.64 491H186.6ZM213.139 491.448C208.115 491.448 204.595 488.024 204.595 481.112C204.595 473.432 207.571 468.6 215.091 468.6H219.379V471.512H215.091C209.907 471.512 208.019 474.136 207.763 479.064C208.755 477.496 210.803 476.376 213.619 476.376C218.131 476.376 221.299 479.512 221.299 483.832C221.299 488.216 217.971 491.448 213.139 491.448ZM208.051 483.928C208.051 486.712 210.099 488.632 213.043 488.632C215.987 488.632 218.067 486.712 218.067 483.928C218.067 481.144 215.987 479.224 213.043 479.224C210.099 479.224 208.051 481.112 208.051 483.928ZM228.444 467.832C230.022 467.832 231.217 468.461 232.028 469.72C232.838 470.957 233.244 472.707 233.244 474.968C233.244 477.229 232.849 479 232.06 480.28C231.292 481.539 230.086 482.168 228.444 482.168C227.441 482.168 226.588 481.88 225.884 481.304C225.18 480.728 224.646 479.907 224.284 478.84C223.942 477.752 223.772 476.461 223.772 474.968C223.772 472.707 224.145 470.957 224.892 469.72C225.638 468.461 226.822 467.832 228.444 467.832ZM228.444 469.816C227.633 469.816 227.036 470.253 226.652 471.128C226.289 471.981 226.108 473.261 226.108 474.968C226.108 476.675 226.289 477.965 226.652 478.84C227.036 479.715 227.633 480.152 228.444 480.152C229.276 480.152 229.894 479.725 230.3 478.872C230.705 477.997 230.908 476.696 230.908 474.968C230.908 473.261 230.705 471.981 230.3 471.128C229.894 470.253 229.276 469.816 228.444 469.816ZM243.068 468.152L230.396 491H227.932L240.604 468.152H243.068ZM242.428 476.984C243.473 476.984 244.348 477.272 245.052 477.848C245.756 478.403 246.289 479.213 246.652 480.28C247.036 481.325 247.228 482.605 247.228 484.12C247.228 486.381 246.833 488.152 246.044 489.432C245.276 490.691 244.07 491.32 242.428 491.32C241.425 491.32 240.572 491.032 239.868 490.456C239.164 489.88 238.63 489.059 238.268 487.992C237.926 486.904 237.756 485.613 237.756 484.12C237.756 481.859 238.129 480.109 238.876 478.872C239.622 477.613 240.806 476.984 242.428 476.984ZM242.428 479C241.617 479 241.02 479.427 240.636 480.28C240.273 481.133 240.092 482.413 240.092 484.12C240.092 485.848 240.273 487.149 240.636 488.024C241.02 488.877 241.617 489.304 242.428 489.304C243.26 489.304 243.878 488.877 244.284 488.024C244.689 487.171 244.892 485.869 244.892 484.12C244.892 482.413 244.689 481.133 244.284 480.28C243.878 479.427 243.26 479 242.428 479Z" fill="#0D0D0D"/>
<rect x="325" y="293" width="176" height="226" rx="16" fill="#0D0D0D"/>
<path d="M386.58 485.848C386.58 480.824 387.38 477.528 391.188 473.88L393.652 471.512H381.588V468.6H397.844V471.512L393.908 475.224C390.9 478.136 389.812 480.6 389.812 485.688V491H386.58V485.848ZM408.294 491.448C402.886 491.448 399.782 488.632 399.782 484.664C399.782 482.072 401.414 479.896 403.91 479.096C401.67 478.328 400.422 476.344 400.422 474.2C400.422 470.648 403.526 468.152 408.294 468.152C413.094 468.152 416.198 470.648 416.198 474.2C416.198 476.344 414.95 478.328 412.71 479.096C415.206 479.896 416.838 482.072 416.838 484.664C416.838 488.632 413.734 491.448 408.294 491.448ZM402.982 484.568C402.982 487 404.87 488.76 408.294 488.76C411.75 488.76 413.638 487 413.638 484.568C413.638 482.104 411.622 480.472 408.294 480.472C404.998 480.472 402.982 482.104 402.982 484.568ZM403.622 474.392C403.622 476.472 405.414 477.848 408.294 477.848C411.174 477.848 412.998 476.472 412.998 474.392C412.998 472.312 411.27 470.84 408.294 470.84C405.35 470.84 403.622 472.312 403.622 474.392ZM424.413 467.832C425.991 467.832 427.186 468.461 427.997 469.72C428.807 470.957 429.213 472.707 429.213 474.968C429.213 477.229 428.818 479 428.029 480.28C427.261 481.539 426.055 482.168 424.413 482.168C423.41 482.168 422.557 481.88 421.853 481.304C421.149 480.728 420.615 479.907 420.253 478.84C419.911 477.752 419.741 476.461 419.741 474.968C419.741 472.707 420.114 470.957 420.861 469.72C421.607 468.461 422.791 467.832 424.413 467.832ZM424.413 469.816C423.602 469.816 423.005 470.253 422.621 471.128C422.258 471.981 422.077 473.261 422.077 474.968C422.077 476.675 422.258 477.965 422.621 478.84C423.005 479.715 423.602 480.152 424.413 480.152C425.245 480.152 425.863 479.725 426.269 478.872C426.674 477.997 426.877 476.696 426.877 474.968C426.877 473.261 426.674 471.981 426.269 471.128C425.863 470.253 425.245 469.816 424.413 469.816ZM439.037 468.152L426.365 491H423.901L436.573 468.152H439.037ZM438.397 476.984C439.442 476.984 440.317 477.272 441.021 477.848C441.725 478.403 442.258 479.213 442.621 480.28C443.005 481.325 443.197 482.605 443.197 484.12C443.197 486.381 442.802 488.152 442.013 489.432C441.245 490.691 440.039 491.32 438.397 491.32C437.394 491.32 436.541 491.032 435.837 490.456C435.133 489.88 434.599 489.059 434.237 487.992C433.895 486.904 433.725 485.613 433.725 484.12C433.725 481.859 434.098 480.109 434.845 478.872C435.591 477.613 436.775 476.984 438.397 476.984ZM438.397 479C437.586 479 436.989 479.427 436.605 480.28C436.242 481.133 436.061 482.413 436.061 484.12C436.061 485.848 436.242 487.149 436.605 488.024C436.989 488.877 437.586 489.304 438.397 489.304C439.229 489.304 439.847 488.877 440.253 488.024C440.658 487.171 440.861 485.869 440.861 484.12C440.861 482.413 440.658 481.133 440.253 480.28C439.847 479.427 439.229 479 438.397 479Z" fill="white"/>
<path d="M248.352 561.28C244.632 561.28 242.072 558.84 242.072 554.02C242.072 549.2 244.532 546.72 248.392 546.72C251.432 546.72 253.512 548.48 253.932 551.48H251.832C251.532 549.64 250.152 548.58 248.392 548.58C245.832 548.58 244.132 550.24 244.132 553.98C244.132 557.68 245.912 559.42 248.352 559.42C250.292 559.42 251.512 558.12 251.832 556.32H253.912C253.432 559.22 251.512 561.28 248.352 561.28ZM260.341 561.28C257.421 561.28 255.381 559.24 255.381 556.18C255.381 553.14 257.421 551.1 260.341 551.1C263.281 551.1 265.301 553.14 265.301 556.18C265.301 559.24 263.281 561.28 260.341 561.28ZM257.381 556.18C257.381 558.18 258.581 559.52 260.341 559.52C262.121 559.52 263.301 558.18 263.301 556.18C263.301 554.2 262.121 552.86 260.341 552.86C258.581 552.86 257.381 554.2 257.381 556.18ZM267.521 561V551.38H269.241V552.64C269.821 551.6 270.981 551.1 272.281 551.1C274.641 551.1 276.121 552.54 276.121 555.2V561H274.181V555.38C274.181 553.66 273.341 552.86 271.921 552.86C270.441 552.86 269.461 553.88 269.461 555.44V561H267.521ZM281.115 561L277.115 551.38H279.275L282.235 558.92L285.175 551.38H287.335L283.315 561H281.115ZM292.745 561.28C289.865 561.28 287.945 559.26 287.945 556.14C287.945 553.04 289.865 551.1 292.605 551.1C295.465 551.1 297.225 552.96 297.225 555.9C297.225 556.16 297.205 556.42 297.165 556.82H289.865C289.945 558.58 291.025 559.64 292.745 559.64C293.885 559.64 294.685 559.12 295.065 558.26H297.045C296.445 560.12 294.965 561.28 292.745 561.28ZM289.865 555.3H295.265V555.2C295.265 553.72 294.305 552.66 292.605 552.66C290.985 552.66 289.945 553.74 289.865 555.3ZM299.362 561V551.38H301.082V552.94C301.322 551.98 302.042 551.38 303.182 551.38H305.022V553.08H303.002C301.802 553.08 301.302 553.76 301.302 555.06V561H299.362ZM309.827 561.28C307.227 561.28 305.687 560.24 305.587 558.26H307.587C307.687 559.22 308.467 559.7 309.867 559.7C311.147 559.7 311.927 559.16 311.927 558.28C311.927 557.56 311.387 557.14 310.387 557.04L308.847 556.88C307.047 556.7 305.907 555.7 305.907 554.1C305.907 552.26 307.447 551.1 309.807 551.1C312.207 551.1 313.687 552.1 313.807 554.06H311.867C311.807 553.14 311.047 552.68 309.787 552.68C308.587 552.68 307.827 553.18 307.827 554C307.827 554.7 308.347 555.08 309.467 555.22L311.027 555.4C312.847 555.6 313.887 556.62 313.887 558.2C313.887 560.08 312.307 561.28 309.827 561.28ZM315.994 561V551.38H317.934V561H315.994ZM315.874 549.44V547.14H318.034V549.44H315.874ZM325.094 561.28C322.174 561.28 320.134 559.24 320.134 556.18C320.134 553.14 322.174 551.1 325.094 551.1C328.034 551.1 330.054 553.14 330.054 556.18C330.054 559.24 328.034 561.28 325.094 561.28ZM322.134 556.18C322.134 558.18 323.334 559.52 325.094 559.52C326.874 559.52 328.054 558.18 328.054 556.18C328.054 554.2 326.874 552.86 325.094 552.86C323.334 552.86 322.134 554.2 322.134 556.18ZM332.273 561V551.38H333.993V552.64C334.573 551.6 335.733 551.1 337.033 551.1C339.393 551.1 340.873 552.54 340.873 555.2V561H338.933V555.38C338.933 553.66 338.093 552.86 336.673 552.86C335.193 552.86 334.213 553.88 334.213 555.44V561H332.273ZM348.734 561V547H354.734C357.654 547 359.374 548.52 359.374 551.02C359.374 553.42 357.814 554.92 355.154 555.06L359.774 561H357.274L352.674 555.04H350.734V561H348.734ZM350.734 553.22H354.734C356.394 553.22 357.334 552.42 357.334 551.02C357.334 549.66 356.394 548.88 354.734 548.88H350.734V553.22ZM364.492 561.28C362.272 561.28 360.872 560.12 360.872 558.28C360.872 556.56 362.032 555.32 364.392 555.18L367.312 555.02V554.48C367.312 553.22 366.692 552.7 365.372 552.7C364.092 552.7 363.452 553.04 363.292 554.06H361.352C361.572 552.08 362.932 551.1 365.512 551.1C367.812 551.1 369.152 552.26 369.152 554.38V559.08C369.152 559.3 369.252 559.4 369.472 559.4H370.292V561H368.732C368.072 561 367.692 560.64 367.692 560V559.72C367.132 560.7 365.992 561.28 364.492 561.28ZM362.812 558.22C362.812 559.1 363.532 559.68 364.712 559.68C366.272 559.68 367.312 558.78 367.312 557.14V556.52L364.632 556.72C363.392 556.8 362.812 557.44 362.812 558.22ZM375.442 561C373.782 561 373.062 560.34 373.062 558.68V553.08H370.542V551.38H373.062V548.5H375.002V551.38H378.022V553.08H375.002V558.3C375.002 559 375.282 559.3 376.022 559.3H378.022V561H375.442ZM383.831 561.28C380.951 561.28 379.031 559.26 379.031 556.14C379.031 553.04 380.951 551.1 383.691 551.1C386.551 551.1 388.311 552.96 388.311 555.9C388.311 556.16 388.291 556.42 388.251 556.82H380.951C381.031 558.58 382.111 559.64 383.831 559.64C384.971 559.64 385.771 559.12 386.151 558.26H388.131C387.531 560.12 386.051 561.28 383.831 561.28ZM380.951 555.3H386.351V555.2C386.351 553.72 385.391 552.66 383.691 552.66C382.071 552.66 381.031 553.74 380.951 555.3Z" fill="#0D0D0D"/>
<rect x="286" y="575.5" width="58" height="20" rx="10" stroke="#E20B0B"/>
<path d="M296.941 584.568H299.727V585.562H296.941V588.446H295.933V585.562H293.147V584.568H295.933V581.67H296.941V584.568ZM300.935 590V588.726H303.497V581.502H301.719V580.2H304.855V588.726H307.375V590H300.935ZM309.002 590V588.082H310.682V590H309.002ZM312.504 590V588.726H315.584C316.984 588.726 317.796 588.068 317.796 586.976C317.796 585.968 317.012 585.338 315.654 585.338H314.184V584.204L317.026 581.474H312.364V580.2H318.818V581.474L315.864 584.232H316.046C317.978 584.232 319.21 585.324 319.21 586.962C319.21 588.796 317.754 590 315.584 590H312.504ZM324.016 580.004C326.214 580.004 327.754 581.502 327.754 584.526C327.754 587.886 326.452 590 323.162 590H321.286V588.726H323.162C325.43 588.726 326.256 587.578 326.368 585.422C325.934 586.108 325.038 586.598 323.806 586.598C321.832 586.598 320.446 585.226 320.446 583.336C320.446 581.418 321.902 580.004 324.016 580.004ZM321.86 583.294C321.86 584.512 322.77 585.352 324.058 585.352C325.346 585.352 326.242 584.526 326.242 583.294C326.242 582.076 325.346 581.236 324.058 581.236C322.77 581.236 321.86 582.076 321.86 583.294Z" fill="#E20B0B"/>
<path fill-rule="evenodd" clip-rule="evenodd" d="M331.5 585.625L335 580L338.5 585.625H335.606V590H334.394V585.625H331.5Z" fill="#E20B0B"/>
<rect x="541" y="255" width="1" height="264" rx="0.5" fill="#B5B2B0"/>
<rect x="582.5" y="279.5" width="175" height="239" rx="15.5" fill="#CECCC9"/>
<rect x="582.5" y="279.5" width="175" height="239" rx="15.5" stroke="#BFBDBA"/>
<path d="M647.676 491.448C642.268 491.448 639.164 488.632 639.164 484.664C639.164 482.072 640.796 479.896 643.292 479.096C641.052 478.328 639.804 476.344 639.804 474.2C639.804 470.648 642.908 468.152 647.676 468.152C652.476 468.152 655.58 470.648 655.58 474.2C655.58 476.344 654.332 478.328 652.092 479.096C654.588 479.896 656.22 482.072 656.22 484.664C656.22 488.632 653.116 491.448 647.676 491.448ZM642.364 484.568C642.364 487 644.252 488.76 647.676 488.76C651.132 488.76 653.02 487 653.02 484.568C653.02 482.104 651.004 480.472 647.676 480.472C644.38 480.472 642.364 482.104 642.364 484.568ZM643.004 474.392C643.004 476.472 644.796 477.848 647.676 477.848C650.556 477.848 652.38 476.472 652.38 474.392C652.38 472.312 650.652 470.84 647.676 470.84C644.732 470.84 643.004 472.312 643.004 474.392ZM658.618 491V488.088H665.658C668.858 488.088 670.714 486.584 670.714 484.088C670.714 481.784 668.922 480.344 665.818 480.344H662.458V477.752L668.954 471.512H658.298V468.6H673.05V471.512L666.298 477.816H666.714C671.13 477.816 673.946 480.312 673.946 484.056C673.946 488.248 670.618 491 665.658 491H658.618ZM681.538 467.832C683.116 467.832 684.311 468.461 685.122 469.72C685.932 470.957 686.338 472.707 686.338 474.968C686.338 477.229 685.943 479 685.154 480.28C684.386 481.539 683.18 482.168 681.538 482.168C680.535 482.168 679.682 481.88 678.978 481.304C678.274 480.728 677.74 479.907 677.378 478.84C677.036 477.752 676.866 476.461 676.866 474.968C676.866 472.707 677.239 470.957 677.986 469.72C678.732 468.461 679.916 467.832 681.538 467.832ZM681.538 469.816C680.727 469.816 680.13 470.253 679.746 471.128C679.383 471.981 679.202 473.261 679.202 474.968C679.202 476.675 679.383 477.965 679.746 478.84C680.13 479.715 680.727 480.152 681.538 480.152C682.37 480.152 682.988 479.725 683.394 478.872C683.799 477.997 684.002 476.696 684.002 474.968C684.002 473.261 683.799 471.981 683.394 471.128C682.988 470.253 682.37 469.816 681.538 469.816ZM696.162 468.152L683.49 491H681.026L693.698 468.152H696.162ZM695.522 476.984C696.567 476.984 697.442 477.272 698.146 477.848C698.85 478.403 699.383 479.213 699.746 480.28C700.13 481.325 700.322 482.605 700.322 484.12C700.322 486.381 699.927 488.152 699.138 489.432C698.37 490.691 697.164 491.32 695.522 491.32C694.519 491.32 693.666 491.032 692.962 490.456C692.258 489.88 691.724 489.059 691.362 487.992C691.02 486.904 690.85 485.613 690.85 484.12C690.85 481.859 691.223 480.109 691.97 478.872C692.716 477.613 693.9 476.984 695.522 476.984ZM695.522 479C694.711 479 694.114 479.427 693.73 480.28C693.367 481.133 693.186 482.413 693.186 484.12C693.186 485.848 693.367 487.149 693.73 488.024C694.114 488.877 694.711 489.304 695.522 489.304C696.354 489.304 696.972 488.877 697.378 488.024C697.783 487.171 697.986 485.869 697.986 484.12C697.986 482.413 697.783 481.133 697.378 480.28C696.972 479.427 696.354 479 695.522 479Z" fill="#0D0D0D"/>
<rect x="778" y="255" width="176" height="264" rx="16" fill="#0D0D0D"/>
<path d="M844.376 468.152C849.4 468.152 852.92 471.576 852.92 478.488C852.92 486.168 849.944 491 842.424 491H838.136V488.088H842.424C847.608 488.088 849.496 485.464 849.752 480.536C848.76 482.104 846.712 483.224 843.896 483.224C839.384 483.224 836.216 480.088 836.216 475.768C836.216 471.384 839.544 468.152 844.376 468.152ZM839.448 475.672C839.448 478.456 841.528 480.376 844.472 480.376C847.416 480.376 849.464 478.488 849.464 475.672C849.464 472.888 847.416 470.968 844.472 470.968C841.528 470.968 839.448 472.888 839.448 475.672ZM854.487 491V488.088H860.343V471.576H856.279V468.6H863.447V488.088H869.207V491H854.487ZM875.944 467.832C877.522 467.832 878.717 468.461 879.528 469.72C880.338 470.957 880.744 472.707 880.744 474.968C880.744 477.229 880.349 479 879.56 480.28C878.792 481.539 877.586 482.168 875.944 482.168C874.941 482.168 874.088 481.88 873.384 481.304C872.68 480.728 872.146 479.907 871.784 478.84C871.442 477.752 871.272 476.461 871.272 474.968C871.272 472.707 871.645 470.957 872.392 469.72C873.138 468.461 874.322 467.832 875.944 467.832ZM875.944 469.816C875.133 469.816 874.536 470.253 874.152 471.128C873.789 471.981 873.608 473.261 873.608 474.968C873.608 476.675 873.789 477.965 874.152 478.84C874.536 479.715 875.133 480.152 875.944 480.152C876.776 480.152 877.394 479.725 877.8 478.872C878.205 477.997 878.408 476.696 878.408 474.968C878.408 473.261 878.205 471.981 877.8 471.128C877.394 470.253 876.776 469.816 875.944 469.816ZM890.568 468.152L877.896 491H875.432L888.104 468.152H890.568ZM889.928 476.984C890.973 476.984 891.848 477.272 892.552 477.848C893.256 478.403 893.789 479.213 894.152 480.28C894.536 481.325 894.728 482.605 894.728 484.12C894.728 486.381 894.333 488.152 893.544 489.432C892.776 490.691 891.57 491.32 889.928 491.32C888.925 491.32 888.072 491.032 887.368 490.456C886.664 489.88 886.13 489.059 885.768 487.992C885.426 486.904 885.256 485.613 885.256 484.12C885.256 481.859 885.629 480.109 886.376 478.872C887.122 477.613 888.306 476.984 889.928 476.984ZM889.928 479C889.117 479 888.52 479.427 888.136 480.28C887.773 481.133 887.592 482.413 887.592 484.12C887.592 485.848 887.773 487.149 888.136 488.024C888.52 488.877 889.117 489.304 889.928 489.304C890.76 489.304 891.378 488.877 891.784 488.024C892.189 487.171 892.392 485.869 892.392 484.12C892.392 482.413 892.189 481.133 891.784 480.28C891.378 479.427 890.76 479 889.928 479Z" fill="white"/>
<path d="M701.352 561.28C697.632 561.28 695.072 558.84 695.072 554.02C695.072 549.2 697.532 546.72 701.392 546.72C704.432 546.72 706.512 548.48 706.932 551.48H704.832C704.532 549.64 703.152 548.58 701.392 548.58C698.832 548.58 697.132 550.24 697.132 553.98C697.132 557.68 698.912 559.42 701.352 559.42C703.292 559.42 704.512 558.12 704.832 556.32H706.912C706.432 559.22 704.512 561.28 701.352 561.28ZM713.341 561.28C710.421 561.28 708.381 559.24 708.381 556.18C708.381 553.14 710.421 551.1 713.341 551.1C716.281 551.1 718.301 553.14 718.301 556.18C718.301 559.24 716.281 561.28 713.341 561.28ZM710.381 556.18C710.381 558.18 711.581 559.52 713.341 559.52C715.121 559.52 716.301 558.18 716.301 556.18C716.301 554.2 715.121 552.86 713.341 552.86C711.581 552.86 710.381 554.2 710.381 556.18ZM720.521 561V551.38H722.241V552.64C722.821 551.6 723.981 551.1 725.281 551.1C727.641 551.1 729.121 552.54 729.121 555.2V561H727.181V555.38C727.181 553.66 726.341 552.86 724.921 552.86C723.441 552.86 722.461 553.88 722.461 555.44V561H720.521ZM734.115 561L730.115 551.38H732.275L735.235 558.92L738.175 551.38H740.335L736.315 561H734.115ZM745.745 561.28C742.865 561.28 740.945 559.26 740.945 556.14C740.945 553.04 742.865 551.1 745.605 551.1C748.465 551.1 750.225 552.96 750.225 555.9C750.225 556.16 750.205 556.42 750.165 556.82H742.865C742.945 558.58 744.025 559.64 745.745 559.64C746.885 559.64 747.685 559.12 748.065 558.26H750.045C749.445 560.12 747.965 561.28 745.745 561.28ZM742.865 555.3H748.265V555.2C748.265 553.72 747.305 552.66 745.605 552.66C743.985 552.66 742.945 553.74 742.865 555.3ZM752.362 561V551.38H754.082V552.94C754.322 551.98 755.042 551.38 756.182 551.38H758.022V553.08H756.002C754.802 553.08 754.302 553.76 754.302 555.06V561H752.362ZM762.827 561.28C760.227 561.28 758.687 560.24 758.587 558.26H760.587C760.687 559.22 761.467 559.7 762.867 559.7C764.147 559.7 764.927 559.16 764.927 558.28C764.927 557.56 764.387 557.14 763.387 557.04L761.847 556.88C760.047 556.7 758.907 555.7 758.907 554.1C758.907 552.26 760.447 551.1 762.807 551.1C765.207 551.1 766.687 552.1 766.807 554.06H764.867C764.807 553.14 764.047 552.68 762.787 552.68C761.587 552.68 760.827 553.18 760.827 554C760.827 554.7 761.347 555.08 762.467 555.22L764.027 555.4C765.847 555.6 766.887 556.62 766.887 558.2C766.887 560.08 765.307 561.28 762.827 561.28ZM768.994 561V551.38H770.934V561H768.994ZM768.874 549.44V547.14H771.034V549.44H768.874ZM778.094 561.28C775.174 561.28 773.134 559.24 773.134 556.18C773.134 553.14 775.174 551.1 778.094 551.1C781.034 551.1 783.054 553.14 783.054 556.18C783.054 559.24 781.034 561.28 778.094 561.28ZM775.134 556.18C775.134 558.18 776.334 559.52 778.094 559.52C779.874 559.52 781.054 558.18 781.054 556.18C781.054 554.2 779.874 552.86 778.094 552.86C776.334 552.86 775.134 554.2 775.134 556.18ZM785.273 561V551.38H786.993V552.64C787.573 551.6 788.733 551.1 790.033 551.1C792.393 551.1 793.873 552.54 793.873 555.2V561H791.933V555.38C791.933 553.66 791.093 552.86 789.673 552.86C788.193 552.86 787.213 553.88 787.213 555.44V561H785.273ZM801.734 561V547H807.734C810.654 547 812.374 548.52 812.374 551.02C812.374 553.42 810.814 554.92 808.154 555.06L812.774 561H810.274L805.674 555.04H803.734V561H801.734ZM803.734 553.22H807.734C809.394 553.22 810.334 552.42 810.334 551.02C810.334 549.66 809.394 548.88 807.734 548.88H803.734V553.22ZM817.492 561.28C815.272 561.28 813.872 560.12 813.872 558.28C813.872 556.56 815.032 555.32 817.392 555.18L820.312 555.02V554.48C820.312 553.22 819.692 552.7 818.372 552.7C817.092 552.7 816.452 553.04 816.292 554.06H814.352C814.572 552.08 815.932 551.1 818.512 551.1C820.812 551.1 822.152 552.26 822.152 554.38V559.08C822.152 559.3 822.252 559.4 822.472 559.4H823.292V561H821.732C821.072 561 820.692 560.64 820.692 560V559.72C820.132 560.7 818.992 561.28 817.492 561.28ZM815.812 558.22C815.812 559.1 816.532 559.68 817.712 559.68C819.272 559.68 820.312 558.78 820.312 557.14V556.52L817.632 556.72C816.392 556.8 815.812 557.44 815.812 558.22ZM828.442 561C826.782 561 826.062 560.34 826.062 558.68V553.08H823.542V551.38H826.062V548.5H828.002V551.38H831.022V553.08H828.002V558.3C828.002 559 828.282 559.3 829.022 559.3H831.022V561H828.442ZM836.831 561.28C833.951 561.28 832.031 559.26 832.031 556.14C832.031 553.04 833.951 551.1 836.691 551.1C839.551 551.1 841.311 552.96 841.311 555.9C841.311 556.16 841.291 556.42 841.251 556.82H833.951C834.031 558.58 835.111 559.64 836.831 559.64C837.971 559.64 838.771 559.12 839.151 558.26H841.131C840.531 560.12 839.051 561.28 836.831 561.28ZM833.951 555.3H839.351V555.2C839.351 553.72 838.391 552.66 836.691 552.66C835.071 552.66 834.031 553.74 833.951 555.3Z" fill="#0D0D0D"/>
<rect x="738.5" y="575.5" width="59" height="20" rx="10" stroke="#E20B0B"/>
<path d="M749.238 584.568H752.024V585.562H749.238V588.446H748.23V585.562H745.444V584.568H748.23V581.67H749.238V584.568ZM753.232 590V588.726H755.794V581.502H754.016V580.2H757.152V588.726H759.672V590H753.232ZM761.299 590V588.082H762.979V590H761.299ZM768.561 590.196C765.901 590.196 764.627 588.39 764.627 585.1C764.627 581.81 765.901 580.004 768.561 580.004C771.221 580.004 772.495 581.81 772.495 585.1C772.495 588.39 771.221 590.196 768.561 590.196ZM766.041 585.1C766.041 587.662 766.825 588.992 768.561 588.992C770.283 588.992 771.067 587.662 771.067 585.1C771.067 582.538 770.283 581.208 768.561 581.208C766.825 581.208 766.041 582.538 766.041 585.1ZM777.516 580.004C779.714 580.004 781.254 581.502 781.254 584.526C781.254 587.886 779.952 590 776.662 590H774.786V588.726H776.662C778.93 588.726 779.756 587.578 779.868 585.422C779.434 586.108 778.538 586.598 777.306 586.598C775.332 586.598 773.946 585.226 773.946 583.336C773.946 581.418 775.402 580.004 777.516 580.004ZM775.36 583.294C775.36 584.512 776.27 585.352 777.558 585.352C778.846 585.352 779.742 584.526 779.742 583.294C779.742 582.076 778.846 581.236 777.558 581.236C776.27 581.236 775.36 582.076 775.36 583.294Z" fill="#E20B0B"/>
<path fill-rule="evenodd" clip-rule="evenodd" d="M785 585.625L788.5 580L792 585.625H789.106V590H787.894V585.625H785Z" fill="#E20B0B"/>
<rect x="994" y="255" width="1" height="264" rx="0.5" fill="#B5B2B0"/>
<rect x="1035.5" y="481.5" width="175" height="37" rx="15.5" fill="#CECCC9"/>
<rect x="1035.5" y="481.5" width="175" height="37" rx="15.5" stroke="#BFBDBA"/>
<path d="M1081.09 491V488.088H1086.94V471.576H1082.88V468.6H1090.05V488.088H1095.81V491H1081.09ZM1097.93 491V488.088H1104.97C1108.17 488.088 1110.03 486.584 1110.03 484.088C1110.03 481.784 1108.23 480.344 1105.13 480.344H1101.77V477.752L1108.27 471.512H1097.61V468.6H1112.36V471.512L1105.61 477.816H1106.03C1110.44 477.816 1113.26 480.312 1113.26 484.056C1113.26 488.248 1109.93 491 1104.97 491H1097.93ZM1116.64 491V486.616H1120.48V491H1116.64ZM1124.1 491V488.088H1129.95V471.576H1125.89V468.6H1133.06V488.088H1138.82V491H1124.1ZM1145.55 467.832C1147.13 467.832 1148.33 468.461 1149.14 469.72C1149.95 470.957 1150.35 472.707 1150.35 474.968C1150.35 477.229 1149.96 479 1149.17 480.28C1148.4 481.539 1147.2 482.168 1145.55 482.168C1144.55 482.168 1143.7 481.88 1142.99 481.304C1142.29 480.728 1141.76 479.907 1141.39 478.84C1141.05 477.752 1140.88 476.461 1140.88 474.968C1140.88 472.707 1141.26 470.957 1142 469.72C1142.75 468.461 1143.93 467.832 1145.55 467.832ZM1145.55 469.816C1144.74 469.816 1144.15 470.253 1143.76 471.128C1143.4 471.981 1143.22 473.261 1143.22 474.968C1143.22 476.675 1143.4 477.965 1143.76 478.84C1144.15 479.715 1144.74 480.152 1145.55 480.152C1146.39 480.152 1147 479.725 1147.41 478.872C1147.82 477.997 1148.02 476.696 1148.02 474.968C1148.02 473.261 1147.82 471.981 1147.41 471.128C1147 470.253 1146.39 469.816 1145.55 469.816ZM1160.18 468.152L1147.51 491H1145.04L1157.71 468.152H1160.18ZM1159.54 476.984C1160.58 476.984 1161.46 477.272 1162.16 477.848C1162.87 478.403 1163.4 479.213 1163.76 480.28C1164.15 481.325 1164.34 482.605 1164.34 484.12C1164.34 486.381 1163.94 488.152 1163.15 489.432C1162.39 490.691 1161.18 491.32 1159.54 491.32C1158.54 491.32 1157.68 491.032 1156.98 490.456C1156.27 489.88 1155.74 489.059 1155.38 487.992C1155.04 486.904 1154.87 485.613 1154.87 484.12C1154.87 481.859 1155.24 480.109 1155.99 478.872C1156.73 477.613 1157.92 476.984 1159.54 476.984ZM1159.54 479C1158.73 479 1158.13 479.427 1157.75 480.28C1157.38 481.133 1157.2 482.413 1157.2 484.12C1157.2 485.848 1157.38 487.149 1157.75 488.024C1158.13 488.877 1158.73 489.304 1159.54 489.304C1160.37 489.304 1160.99 488.877 1161.39 488.024C1161.8 487.171 1162 485.869 1162 484.12C1162 482.413 1161.8 481.133 1161.39 480.28C1160.99 479.427 1160.37 479 1159.54 479Z" fill="#0D0D0D"/>
<rect x="1231" y="504" width="176" height="15" rx="7.5" fill="#0D0D0D"/>
<path d="M1298.1 491V488.088H1305.14C1307.89 488.088 1309.78 486.424 1309.78 483.96C1309.78 481.528 1308.05 479.864 1305.14 479.864H1298.64V468.6H1312.02V471.512H1301.75V477.048H1305.49C1310.04 477.048 1313.01 479.768 1313.01 483.832C1313.01 488.088 1309.88 491 1305.14 491H1298.1ZM1320.3 467.832C1321.87 467.832 1323.07 468.461 1323.88 469.72C1324.69 470.957 1325.1 472.707 1325.1 474.968C1325.1 477.229 1324.7 479 1323.91 480.28C1323.14 481.539 1321.94 482.168 1320.3 482.168C1319.29 482.168 1318.44 481.88 1317.74 481.304C1317.03 480.728 1316.5 479.907 1316.14 478.84C1315.79 477.752 1315.62 476.461 1315.62 474.968C1315.62 472.707 1316 470.957 1316.74 469.72C1317.49 468.461 1318.67 467.832 1320.3 467.832ZM1320.3 469.816C1319.48 469.816 1318.89 470.253 1318.5 471.128C1318.14 471.981 1317.96 473.261 1317.96 474.968C1317.96 476.675 1318.14 477.965 1318.5 478.84C1318.89 479.715 1319.48 480.152 1320.3 480.152C1321.13 480.152 1321.75 479.725 1322.15 478.872C1322.56 477.997 1322.76 476.696 1322.76 474.968C1322.76 473.261 1322.56 471.981 1322.15 471.128C1321.75 470.253 1321.13 469.816 1320.3 469.816ZM1334.92 468.152L1322.25 491H1319.78L1332.46 468.152H1334.92ZM1334.28 476.984C1335.32 476.984 1336.2 477.272 1336.9 477.848C1337.61 478.403 1338.14 479.213 1338.5 480.28C1338.89 481.325 1339.08 482.605 1339.08 484.12C1339.08 486.381 1338.68 488.152 1337.9 489.432C1337.13 490.691 1335.92 491.32 1334.28 491.32C1333.28 491.32 1332.42 491.032 1331.72 490.456C1331.02 489.88 1330.48 489.059 1330.12 487.992C1329.78 486.904 1329.61 485.613 1329.61 484.12C1329.61 481.859 1329.98 480.109 1330.73 478.872C1331.47 477.613 1332.66 476.984 1334.28 476.984ZM1334.28 479C1333.47 479 1332.87 479.427 1332.49 480.28C1332.12 481.133 1331.94 482.413 1331.94 484.12C1331.94 485.848 1332.12 487.149 1332.49 488.024C1332.87 488.877 1333.47 489.304 1334.28 489.304C1335.11 489.304 1335.73 488.877 1336.14 488.024C1336.54 487.171 1336.74 485.869 1336.74 484.12C1336.74 482.413 1336.54 481.133 1336.14 480.28C1335.73 479.427 1335.11 479 1334.28 479Z" fill="#0D0D0D"/>
<path d="M1154.35 561.28C1150.63 561.28 1148.07 558.84 1148.07 554.02C1148.07 549.2 1150.53 546.72 1154.39 546.72C1157.43 546.72 1159.51 548.48 1159.93 551.48H1157.83C1157.53 549.64 1156.15 548.58 1154.39 548.58C1151.83 548.58 1150.13 550.24 1150.13 553.98C1150.13 557.68 1151.91 559.42 1154.35 559.42C1156.29 559.42 1157.51 558.12 1157.83 556.32H1159.91C1159.43 559.22 1157.51 561.28 1154.35 561.28ZM1166.34 561.28C1163.42 561.28 1161.38 559.24 1161.38 556.18C1161.38 553.14 1163.42 551.1 1166.34 551.1C1169.28 551.1 1171.3 553.14 1171.3 556.18C1171.3 559.24 1169.28 561.28 1166.34 561.28ZM1163.38 556.18C1163.38 558.18 1164.58 559.52 1166.34 559.52C1168.12 559.52 1169.3 558.18 1169.3 556.18C1169.3 554.2 1168.12 552.86 1166.34 552.86C1164.58 552.86 1163.38 554.2 1163.38 556.18ZM1173.52 561V551.38H1175.24V552.64C1175.82 551.6 1176.98 551.1 1178.28 551.1C1180.64 551.1 1182.12 552.54 1182.12 555.2V561H1180.18V555.38C1180.18 553.66 1179.34 552.86 1177.92 552.86C1176.44 552.86 1175.46 553.88 1175.46 555.44V561H1173.52ZM1187.11 561L1183.11 551.38H1185.27L1188.23 558.92L1191.17 551.38H1193.33L1189.31 561H1187.11ZM1198.75 561.28C1195.87 561.28 1193.95 559.26 1193.95 556.14C1193.95 553.04 1195.87 551.1 1198.61 551.1C1201.47 551.1 1203.23 552.96 1203.23 555.9C1203.23 556.16 1203.21 556.42 1203.17 556.82H1195.87C1195.95 558.58 1197.03 559.64 1198.75 559.64C1199.89 559.64 1200.69 559.12 1201.07 558.26H1203.05C1202.45 560.12 1200.97 561.28 1198.75 561.28ZM1195.87 555.3H1201.27V555.2C1201.27 553.72 1200.31 552.66 1198.61 552.66C1196.99 552.66 1195.95 553.74 1195.87 555.3ZM1205.36 561V551.38H1207.08V552.94C1207.32 551.98 1208.04 551.38 1209.18 551.38H1211.02V553.08H1209C1207.8 553.08 1207.3 553.76 1207.3 555.06V561H1205.36ZM1215.83 561.28C1213.23 561.28 1211.69 560.24 1211.59 558.26H1213.59C1213.69 559.22 1214.47 559.7 1215.87 559.7C1217.15 559.7 1217.93 559.16 1217.93 558.28C1217.93 557.56 1217.39 557.14 1216.39 557.04L1214.85 556.88C1213.05 556.7 1211.91 555.7 1211.91 554.1C1211.91 552.26 1213.45 551.1 1215.81 551.1C1218.21 551.1 1219.69 552.1 1219.81 554.06H1217.87C1217.81 553.14 1217.05 552.68 1215.79 552.68C1214.59 552.68 1213.83 553.18 1213.83 554C1213.83 554.7 1214.35 555.08 1215.47 555.22L1217.03 555.4C1218.85 555.6 1219.89 556.62 1219.89 558.2C1219.89 560.08 1218.31 561.28 1215.83 561.28ZM1221.99 561V551.38H1223.93V561H1221.99ZM1221.87 549.44V547.14H1224.03V549.44H1221.87ZM1231.09 561.28C1228.17 561.28 1226.13 559.24 1226.13 556.18C1226.13 553.14 1228.17 551.1 1231.09 551.1C1234.03 551.1 1236.05 553.14 1236.05 556.18C1236.05 559.24 1234.03 561.28 1231.09 561.28ZM1228.13 556.18C1228.13 558.18 1229.33 559.52 1231.09 559.52C1232.87 559.52 1234.05 558.18 1234.05 556.18C1234.05 554.2 1232.87 552.86 1231.09 552.86C1229.33 552.86 1228.13 554.2 1228.13 556.18ZM1238.27 561V551.38H1239.99V552.64C1240.57 551.6 1241.73 551.1 1243.03 551.1C1245.39 551.1 1246.87 552.54 1246.87 555.2V561H1244.93V555.38C1244.93 553.66 1244.09 552.86 1242.67 552.86C1241.19 552.86 1240.21 553.88 1240.21 555.44V561H1238.27ZM1254.73 561V547H1260.73C1263.65 547 1265.37 548.52 1265.37 551.02C1265.37 553.42 1263.81 554.92 1261.15 555.06L1265.77 561H1263.27L1258.67 555.04H1256.73V561H1254.73ZM1256.73 553.22H1260.73C1262.39 553.22 1263.33 552.42 1263.33 551.02C1263.33 549.66 1262.39 548.88 1260.73 548.88H1256.73V553.22ZM1270.49 561.28C1268.27 561.28 1266.87 560.12 1266.87 558.28C1266.87 556.56 1268.03 555.32 1270.39 555.18L1273.31 555.02V554.48C1273.31 553.22 1272.69 552.7 1271.37 552.7C1270.09 552.7 1269.45 553.04 1269.29 554.06H1267.35C1267.57 552.08 1268.93 551.1 1271.51 551.1C1273.81 551.1 1275.15 552.26 1275.15 554.38V559.08C1275.15 559.3 1275.25 559.4 1275.47 559.4H1276.29V561H1274.73C1274.07 561 1273.69 560.64 1273.69 560V559.72C1273.13 560.7 1271.99 561.28 1270.49 561.28ZM1268.81 558.22C1268.81 559.1 1269.53 559.68 1270.71 559.68C1272.27 559.68 1273.31 558.78 1273.31 557.14V556.52L1270.63 556.72C1269.39 556.8 1268.81 557.44 1268.81 558.22ZM1281.44 561C1279.78 561 1279.06 560.34 1279.06 558.68V553.08H1276.54V551.38H1279.06V548.5H1281V551.38H1284.02V553.08H1281V558.3C1281 559 1281.28 559.3 1282.02 559.3H1284.02V561H1281.44ZM1289.83 561.28C1286.95 561.28 1285.03 559.26 1285.03 556.14C1285.03 553.04 1286.95 551.1 1289.69 551.1C1292.55 551.1 1294.31 552.96 1294.31 555.9C1294.31 556.16 1294.29 556.42 1294.25 556.82H1286.95C1287.03 558.58 1288.11 559.64 1289.83 559.64C1290.97 559.64 1291.77 559.12 1292.15 558.26H1294.13C1293.53 560.12 1292.05 561.28 1289.83 561.28ZM1286.95 555.3H1292.35V555.2C1292.35 553.72 1291.39 552.66 1289.69 552.66C1288.07 552.66 1287.03 553.74 1286.95 555.3Z" fill="#0D0D0D"/>
<rect x="1189.5" y="575.5" width="63" height="20" rx="10" stroke="#E20B0B"/>
<path d="M1196.11 587.004V585.702H1200.37V587.004H1196.11ZM1201.67 588.278C1201.67 586.472 1202.51 585.632 1204.08 585.184L1205.45 584.792C1206.53 584.484 1207.04 583.966 1207.04 583.084C1207.04 582.118 1206.35 581.474 1205.3 581.474H1202.15V580.2H1205.3C1207.16 580.2 1208.45 581.334 1208.45 583.084C1208.45 584.498 1207.5 585.464 1206.13 585.884L1204.45 586.388C1203.48 586.682 1203.09 587.158 1203.09 588.04V588.726H1208.37V590H1201.67V588.278ZM1210.2 590V588.082H1211.88V590H1210.2ZM1217.29 590.196C1215.1 590.196 1213.56 588.698 1213.56 585.674C1213.56 582.314 1214.86 580.2 1218.15 580.2H1220.02V581.474H1218.15C1215.88 581.474 1215.05 582.622 1214.94 584.778C1215.38 584.092 1216.27 583.602 1217.5 583.602C1219.48 583.602 1220.86 584.974 1220.86 586.864C1220.86 588.782 1219.41 590.196 1217.29 590.196ZM1215.07 586.906C1215.07 588.124 1215.96 588.964 1217.25 588.964C1218.54 588.964 1219.45 588.124 1219.45 586.906C1219.45 585.688 1218.54 584.848 1217.25 584.848C1215.96 584.848 1215.07 585.674 1215.07 586.906ZM1222.22 588.278C1222.22 586.472 1223.06 585.632 1224.63 585.184L1226 584.792C1227.08 584.484 1227.58 583.966 1227.58 583.084C1227.58 582.118 1226.9 581.474 1225.85 581.474H1222.7V580.2H1225.85C1227.71 580.2 1229 581.334 1229 583.084C1229 584.498 1228.05 585.464 1226.67 585.884L1224.99 586.388C1224.03 586.682 1223.64 587.158 1223.64 588.04V588.726H1228.91V590H1222.22V588.278ZM1229.8 590L1232.42 586.528L1229.94 583.266H1231.59L1233.3 585.59L1234.99 583.266H1236.65L1234.17 586.528L1236.79 590H1235.13L1233.3 587.536L1231.45 590H1229.8Z" fill="#E20B0B"/>
<path fill-rule="evenodd" clip-rule="evenodd" d="M1247 584.875L1243.5 590.5L1240 584.875H1242.89V580.5H1244.11V584.875H1247Z" fill="#E20B0B"/>
</g>
<defs>
<clipPath id="clip0_4638_122642">
<rect width="1278" height="432" fill="white" transform="translate(129 164)"/>
</clipPath>
</defs>
</svg>
