<svg width="1536" height="760" viewBox="0 0 1536 760" fill="none" xmlns="http://www.w3.org/2000/svg">
<g clip-path="url(#clip0_4638_122689)">
<path d="M198.181 187.336C194.029 187.336 191.533 185.248 191.509 181.864H193.981C194.005 183.904 195.589 185.2 198.181 185.2C200.485 185.2 201.949 184 201.949 182.176C201.949 180.712 201.013 179.824 199.093 179.56L196.885 179.248C193.669 178.816 192.061 177.232 192.061 174.712C192.061 171.76 194.437 169.864 198.061 169.864C201.829 169.864 204.133 171.688 204.205 174.616H201.733C201.661 172.984 200.269 171.976 198.061 171.976C195.949 171.976 194.557 172.984 194.557 174.568C194.557 175.936 195.541 176.704 197.605 176.992L199.693 177.28C202.813 177.712 204.445 179.32 204.445 182.032C204.445 185.248 202.069 187.336 198.181 187.336ZM211.426 187C209.434 187 208.57 186.208 208.57 184.216V177.496H205.546V175.456H208.57V172H210.898V175.456H214.522V177.496H210.898V183.76C210.898 184.6 211.234 184.96 212.122 184.96H214.522V187H211.426ZM215.606 191.32V189.232H217.67C218.462 189.232 218.822 188.992 219.086 188.392L220.094 186.208L215.246 175.456H217.91L221.318 183.592L224.726 175.456H227.342L221.006 189.544C220.478 190.744 219.806 191.32 218.198 191.32H215.606ZM231.457 187C229.825 187 229.129 186.376 229.129 184.816V170.2H231.457V184.096C231.457 184.696 231.673 184.96 232.273 184.96H233.737V187H231.457ZM240.607 187.336C237.151 187.336 234.847 184.912 234.847 181.168C234.847 177.448 237.151 175.12 240.439 175.12C243.871 175.12 245.983 177.352 245.983 180.88C245.983 181.192 245.959 181.504 245.911 181.984H237.151C237.247 184.096 238.543 185.368 240.607 185.368C241.975 185.368 242.935 184.744 243.391 183.712H245.767C245.047 185.944 243.271 187.336 240.607 187.336ZM237.151 180.16H243.631V180.04C243.631 178.264 242.479 176.992 240.439 176.992C238.495 176.992 237.247 178.288 237.151 180.16ZM252.555 187.336C249.435 187.336 247.587 186.088 247.467 183.712H249.867C249.987 184.864 250.923 185.44 252.603 185.44C254.139 185.44 255.075 184.792 255.075 183.736C255.075 182.872 254.427 182.368 253.227 182.248L251.379 182.056C249.219 181.84 247.851 180.64 247.851 178.72C247.851 176.512 249.699 175.12 252.531 175.12C255.411 175.12 257.187 176.32 257.331 178.672H255.003C254.931 177.568 254.019 177.016 252.507 177.016C251.067 177.016 250.155 177.616 250.155 178.6C250.155 179.44 250.779 179.896 252.123 180.064L253.995 180.28C256.179 180.52 257.427 181.744 257.427 183.64C257.427 185.896 255.531 187.336 252.555 187.336Z" fill="#0D0D0D"/>
<path d="M419.603 187V170.2H426.563C430.067 170.2 432.131 172.072 432.131 175.144C432.131 178.24 430.067 180.136 426.563 180.136H422.003V187H419.603ZM422.003 177.904H426.467C428.531 177.904 429.683 176.896 429.683 175.144C429.683 173.44 428.531 172.456 426.467 172.456H422.003V177.904ZM439.212 187.336C435.708 187.336 433.26 184.888 433.26 181.216C433.26 177.568 435.708 175.12 439.212 175.12C442.74 175.12 445.164 177.568 445.164 181.216C445.164 184.888 442.74 187.336 439.212 187.336ZM435.66 181.216C435.66 183.616 437.1 185.224 439.212 185.224C441.348 185.224 442.764 183.616 442.764 181.216C442.764 178.84 441.348 177.232 439.212 177.232C437.1 177.232 435.66 178.84 435.66 181.216ZM447.827 187V175.456H449.891V177.328C450.179 176.176 451.043 175.456 452.411 175.456H454.619V177.496H452.195C450.755 177.496 450.155 178.312 450.155 179.872V187H447.827ZM461.491 187C459.499 187 458.635 186.208 458.635 184.216V177.496H455.611V175.456H458.635V172H460.963V175.456H464.587V177.496H460.963V183.76C460.963 184.6 461.299 184.96 462.187 184.96H464.587V187H461.491ZM466.824 187V175.456H468.888V177.328C469.176 176.176 470.04 175.456 471.408 175.456H473.616V177.496H471.192C469.752 177.496 469.152 178.312 469.152 179.872V187H466.824ZM478.498 187.336C475.834 187.336 474.154 185.944 474.154 183.736C474.154 181.672 475.546 180.184 478.378 180.016L481.882 179.824V179.176C481.882 177.664 481.138 177.04 479.554 177.04C478.018 177.04 477.25 177.448 477.058 178.672H474.73C474.994 176.296 476.626 175.12 479.722 175.12C482.482 175.12 484.09 176.512 484.09 179.056V184.696C484.09 184.96 484.21 185.08 484.474 185.08H485.458V187H483.586C482.794 187 482.338 186.568 482.338 185.8V185.464C481.666 186.64 480.298 187.336 478.498 187.336ZM476.482 183.664C476.482 184.72 477.346 185.416 478.762 185.416C480.634 185.416 481.882 184.336 481.882 182.368V181.624L478.666 181.864C477.178 181.96 476.482 182.728 476.482 183.664ZM487.672 187V175.456H490V187H487.672ZM487.528 173.128V170.368H490.12V173.128H487.528ZM497.726 187C495.734 187 494.87 186.208 494.87 184.216V177.496H491.846V175.456H494.87V172H497.198V175.456H500.822V177.496H497.198V183.76C497.198 184.6 497.534 184.96 498.422 184.96H500.822V187H497.726ZM514.815 187.336C510.663 187.336 508.167 185.248 508.143 181.864H510.615C510.639 183.904 512.223 185.2 514.815 185.2C517.119 185.2 518.583 184 518.583 182.176C518.583 180.712 517.647 179.824 515.727 179.56L513.519 179.248C510.303 178.816 508.695 177.232 508.695 174.712C508.695 171.76 511.071 169.864 514.695 169.864C518.463 169.864 520.767 171.688 520.839 174.616H518.367C518.295 172.984 516.903 171.976 514.695 171.976C512.583 171.976 511.191 172.984 511.191 174.568C511.191 175.936 512.175 176.704 514.239 176.992L516.327 177.28C519.447 177.712 521.079 179.32 521.079 182.032C521.079 185.248 518.703 187.336 514.815 187.336ZM528.061 187C526.069 187 525.205 186.208 525.205 184.216V177.496H522.181V175.456H525.205V172H527.533V175.456H531.157V177.496H527.533V183.76C527.533 184.6 527.869 184.96 528.757 184.96H531.157V187H528.061ZM532.241 191.32V189.232H534.305C535.097 189.232 535.457 188.992 535.721 188.392L536.729 186.208L531.881 175.456H534.545L537.953 183.592L541.361 175.456H543.977L537.641 189.544C537.113 190.744 536.441 191.32 534.833 191.32H532.241ZM548.091 187C546.459 187 545.763 186.376 545.763 184.816V170.2H548.091V184.096C548.091 184.696 548.307 184.96 548.907 184.96H550.371V187H548.091ZM557.241 187.336C553.785 187.336 551.481 184.912 551.481 181.168C551.481 177.448 553.785 175.12 557.073 175.12C560.505 175.12 562.617 177.352 562.617 180.88C562.617 181.192 562.593 181.504 562.545 181.984H553.785C553.881 184.096 555.177 185.368 557.241 185.368C558.609 185.368 559.569 184.744 560.025 183.712H562.401C561.681 185.944 559.905 187.336 557.241 187.336ZM553.785 180.16H560.265V180.04C560.265 178.264 559.113 176.992 557.073 176.992C555.129 176.992 553.881 178.288 553.785 180.16ZM569.19 187.336C566.07 187.336 564.222 186.088 564.102 183.712H566.502C566.622 184.864 567.558 185.44 569.238 185.44C570.774 185.44 571.71 184.792 571.71 183.736C571.71 182.872 571.062 182.368 569.862 182.248L568.014 182.056C565.854 181.84 564.486 180.64 564.486 178.72C564.486 176.512 566.334 175.12 569.166 175.12C572.046 175.12 573.822 176.32 573.966 178.672H571.638C571.566 177.568 570.654 177.016 569.142 177.016C567.702 177.016 566.79 177.616 566.79 178.6C566.79 179.44 567.414 179.896 568.758 180.064L570.63 180.28C572.814 180.52 574.062 181.744 574.062 183.64C574.062 185.896 572.166 187.336 569.19 187.336Z" fill="#0D0D0D"/>
<path d="M731.469 187V170.2H741.549V172.456H733.869V177.28H741.549V179.536H733.869V187H731.469ZM743.784 187V175.456H745.848V177.328C746.136 176.176 747 175.456 748.368 175.456H750.576V177.496H748.152C746.712 177.496 746.112 178.312 746.112 179.872V187H743.784ZM755.458 187.336C752.794 187.336 751.114 185.944 751.114 183.736C751.114 181.672 752.506 180.184 755.338 180.016L758.842 179.824V179.176C758.842 177.664 758.098 177.04 756.514 177.04C754.978 177.04 754.21 177.448 754.018 178.672H751.69C751.954 176.296 753.586 175.12 756.682 175.12C759.442 175.12 761.05 176.512 761.05 179.056V184.696C761.05 184.96 761.17 185.08 761.434 185.08H762.418V187H760.546C759.754 187 759.298 186.568 759.298 185.8V185.464C758.626 186.64 757.258 187.336 755.458 187.336ZM753.442 183.664C753.442 184.72 754.306 185.416 755.722 185.416C757.594 185.416 758.842 184.336 758.842 182.368V181.624L755.626 181.864C754.138 181.96 753.442 182.728 753.442 183.664ZM764.632 187V175.456H766.696V176.872C767.368 175.672 768.424 175.12 769.84 175.12C771.424 175.12 772.6 175.888 773.152 177.184C773.896 175.792 775.096 175.12 776.608 175.12C779.272 175.12 780.736 176.728 780.736 179.608V187H778.432V179.728C778.432 178.12 777.664 177.232 776.2 177.232C774.832 177.232 773.848 178.288 773.848 179.8V187H771.52V179.728C771.52 178.12 770.752 177.232 769.336 177.232C767.944 177.232 766.96 178.288 766.96 179.8V187H764.632ZM788.978 187.336C785.522 187.336 783.218 184.912 783.218 181.168C783.218 177.448 785.522 175.12 788.81 175.12C792.242 175.12 794.354 177.352 794.354 180.88C794.354 181.192 794.33 181.504 794.282 181.984H785.522C785.618 184.096 786.914 185.368 788.978 185.368C790.346 185.368 791.306 184.744 791.762 183.712H794.138C793.418 185.944 791.642 187.336 788.978 187.336ZM785.522 180.16H792.002V180.04C792.002 178.264 790.85 176.992 788.81 176.992C786.866 176.992 785.618 178.288 785.522 180.16ZM800.926 187.336C797.806 187.336 795.958 186.088 795.838 183.712H798.238C798.358 184.864 799.294 185.44 800.974 185.44C802.51 185.44 803.446 184.792 803.446 183.736C803.446 182.872 802.798 182.368 801.598 182.248L799.75 182.056C797.59 181.84 796.222 180.64 796.222 178.72C796.222 176.512 798.07 175.12 800.902 175.12C803.782 175.12 805.558 176.32 805.702 178.672H803.374C803.302 177.568 802.39 177.016 800.878 177.016C799.438 177.016 798.526 177.616 798.526 178.6C798.526 179.44 799.15 179.896 800.494 180.064L802.366 180.28C804.55 180.52 805.798 181.744 805.798 183.64C805.798 185.896 803.902 187.336 800.926 187.336Z" fill="#0D0D0D"/>
<path d="M971.83 187.336C967.678 187.336 965.182 185.248 965.158 181.864H967.63C967.654 183.904 969.238 185.2 971.83 185.2C974.134 185.2 975.598 184 975.598 182.176C975.598 180.712 974.662 179.824 972.742 179.56L970.534 179.248C967.318 178.816 965.71 177.232 965.71 174.712C965.71 171.76 968.086 169.864 971.71 169.864C975.478 169.864 977.782 171.688 977.854 174.616H975.382C975.31 172.984 973.918 171.976 971.71 171.976C969.598 171.976 968.206 172.984 968.206 174.568C968.206 175.936 969.19 176.704 971.254 176.992L973.342 177.28C976.462 177.712 978.094 179.32 978.094 182.032C978.094 185.248 975.718 187.336 971.83 187.336ZM985.843 187.336C982.387 187.336 980.083 184.912 980.083 181.168C980.083 177.448 982.387 175.12 985.675 175.12C989.107 175.12 991.219 177.352 991.219 180.88C991.219 181.192 991.195 181.504 991.147 181.984H982.387C982.483 184.096 983.779 185.368 985.843 185.368C987.211 185.368 988.171 184.744 988.627 183.712H991.003C990.283 185.944 988.507 187.336 985.843 187.336ZM982.387 180.16H988.867V180.04C988.867 178.264 987.715 176.992 985.675 176.992C983.731 176.992 982.483 178.288 982.387 180.16ZM996.256 191.32C993.688 191.32 992.536 190.12 992.536 188.44C992.536 187.456 993.064 186.568 994.048 186.088C993.4 185.656 992.992 184.96 992.992 184.216C992.992 183.184 993.64 182.344 994.984 182.008C993.904 181.288 993.448 180.16 993.448 179.08C993.448 176.824 995.176 175.12 998.056 175.12C999.904 175.12 1001.39 176.056 1001.87 177.256V176.896C1001.87 175.744 1002.5 175.456 1003.31 175.456H1005.02V177.496H1003.17C1002.81 177.496 1002.66 177.64 1002.66 178V179.224C1002.66 181.624 1000.79 183.184 998.176 183.184H996.184C995.512 183.184 995.056 183.496 995.056 184.12C995.056 184.744 995.584 185.056 996.184 185.056H1000.38C1002.59 185.056 1004.01 186.112 1004.01 188.008C1004.01 189.904 1002.88 191.32 1000.24 191.32H996.256ZM994.768 188.224C994.768 188.968 995.248 189.544 996.52 189.544H1000.1C1001.01 189.544 1001.78 189.112 1001.78 188.08C1001.78 187.288 1001.15 186.832 1000.22 186.832H996.592C995.296 186.832 994.768 187.48 994.768 188.224ZM995.68 179.152C995.68 180.496 996.568 181.36 998.056 181.36C999.568 181.36 1000.43 180.496 1000.43 179.152C1000.43 177.808 999.544 176.944 998.056 176.944C996.544 176.944 995.68 177.808 995.68 179.152ZM1006.95 187V175.456H1009.01V176.872C1009.69 175.672 1010.74 175.12 1012.16 175.12C1013.74 175.12 1014.92 175.888 1015.47 177.184C1016.21 175.792 1017.41 175.12 1018.93 175.12C1021.59 175.12 1023.05 176.728 1023.05 179.608V187H1020.75V179.728C1020.75 178.12 1019.98 177.232 1018.52 177.232C1017.15 177.232 1016.17 178.288 1016.17 179.8V187H1013.84V179.728C1013.84 178.12 1013.07 177.232 1011.65 177.232C1010.26 177.232 1009.28 178.288 1009.28 179.8V187H1006.95ZM1031.3 187.336C1027.84 187.336 1025.54 184.912 1025.54 181.168C1025.54 177.448 1027.84 175.12 1031.13 175.12C1034.56 175.12 1036.67 177.352 1036.67 180.88C1036.67 181.192 1036.65 181.504 1036.6 181.984H1027.84C1027.94 184.096 1029.23 185.368 1031.3 185.368C1032.66 185.368 1033.62 184.744 1034.08 183.712H1036.46C1035.74 185.944 1033.96 187.336 1031.3 187.336ZM1027.84 180.16H1034.32V180.04C1034.32 178.264 1033.17 176.992 1031.13 176.992C1029.18 176.992 1027.94 178.288 1027.84 180.16ZM1039.24 187V175.456H1041.3V176.968C1042 175.72 1043.39 175.12 1044.95 175.12C1047.78 175.12 1049.56 176.848 1049.56 180.04V187H1047.23V180.256C1047.23 178.192 1046.22 177.232 1044.52 177.232C1042.74 177.232 1041.56 178.456 1041.56 180.328V187H1039.24ZM1056.79 187C1054.8 187 1053.93 186.208 1053.93 184.216V177.496H1050.91V175.456H1053.93V172H1056.26V175.456H1059.89V177.496H1056.26V183.76C1056.26 184.6 1056.6 184.96 1057.49 184.96H1059.89V187H1056.79ZM1065.51 187.336C1062.84 187.336 1061.16 185.944 1061.16 183.736C1061.16 181.672 1062.55 180.184 1065.39 180.016L1068.89 179.824V179.176C1068.89 177.664 1068.15 177.04 1066.56 177.04C1065.03 177.04 1064.26 177.448 1064.07 178.672H1061.74C1062 176.296 1063.63 175.12 1066.73 175.12C1069.49 175.12 1071.1 176.512 1071.1 179.056V184.696C1071.1 184.96 1071.22 185.08 1071.48 185.08H1072.47V187H1070.59C1069.8 187 1069.35 186.568 1069.35 185.8V185.464C1068.67 186.64 1067.31 187.336 1065.51 187.336ZM1063.49 183.664C1063.49 184.72 1064.35 185.416 1065.77 185.416C1067.64 185.416 1068.89 184.336 1068.89 182.368V181.624L1065.67 181.864C1064.19 181.96 1063.49 182.728 1063.49 183.664ZM1078.65 187C1076.65 187 1075.79 186.208 1075.79 184.216V177.496H1072.77V175.456H1075.79V172H1078.12V175.456H1081.74V177.496H1078.12V183.76C1078.12 184.6 1078.45 184.96 1079.34 184.96H1081.74V187H1078.65ZM1083.98 187V175.456H1086.31V187H1083.98ZM1083.83 173.128V170.368H1086.43V173.128H1083.83ZM1094.9 187.336C1091.39 187.336 1088.95 184.888 1088.95 181.216C1088.95 177.568 1091.39 175.12 1094.9 175.12C1098.43 175.12 1100.85 177.568 1100.85 181.216C1100.85 184.888 1098.43 187.336 1094.9 187.336ZM1091.35 181.216C1091.35 183.616 1092.79 185.224 1094.9 185.224C1097.03 185.224 1098.45 183.616 1098.45 181.216C1098.45 178.84 1097.03 177.232 1094.9 177.232C1092.79 177.232 1091.35 178.84 1091.35 181.216ZM1103.51 187V175.456H1105.58V176.968C1106.27 175.72 1107.67 175.12 1109.23 175.12C1112.06 175.12 1113.83 176.848 1113.83 180.04V187H1111.51V180.256C1111.51 178.192 1110.5 177.232 1108.79 177.232C1107.02 177.232 1105.84 178.456 1105.84 180.328V187H1103.51Z" fill="#0D0D0D"/>
<path d="M1248.92 187V170.2H1255.98C1259.03 170.2 1260.95 171.808 1260.95 174.352C1260.95 176.008 1260.03 177.424 1258.67 178.096C1260.32 178.696 1261.43 180.16 1261.43 182.152C1261.43 185.008 1259.53 187 1256.29 187H1248.92ZM1251.32 184.792H1255.95C1257.87 184.792 1258.98 183.736 1258.98 181.96C1258.98 180.184 1257.92 179.2 1255.95 179.2H1251.32V184.792ZM1251.32 177.136H1255.64C1257.47 177.136 1258.5 176.248 1258.5 174.736C1258.5 173.2 1257.44 172.408 1255.64 172.408H1251.32V177.136ZM1267.9 187.336C1265.24 187.336 1263.56 185.944 1263.56 183.736C1263.56 181.672 1264.95 180.184 1267.78 180.016L1271.29 179.824V179.176C1271.29 177.664 1270.54 177.04 1268.96 177.04C1267.42 177.04 1266.65 177.448 1266.46 178.672H1264.13C1264.4 176.296 1266.03 175.12 1269.13 175.12C1271.89 175.12 1273.49 176.512 1273.49 179.056V184.696C1273.49 184.96 1273.61 185.08 1273.88 185.08H1274.86V187H1272.99C1272.2 187 1271.74 186.568 1271.74 185.8V185.464C1271.07 186.64 1269.7 187.336 1267.9 187.336ZM1265.89 183.664C1265.89 184.72 1266.75 185.416 1268.17 185.416C1270.04 185.416 1271.29 184.336 1271.29 182.368V181.624L1268.07 181.864C1266.58 181.96 1265.89 182.728 1265.89 183.664ZM1281.97 187.336C1278.52 187.336 1276.28 184.768 1276.28 181.264C1276.28 177.664 1278.64 175.12 1282.12 175.12C1285.04 175.12 1287.04 176.824 1287.3 179.248H1284.92C1284.71 178.168 1283.75 177.232 1282.09 177.232C1280.03 177.232 1278.68 178.792 1278.68 181.216C1278.68 183.688 1280.05 185.224 1282.04 185.224C1283.6 185.224 1284.73 184.312 1284.97 182.968H1287.35C1287.04 185.272 1285.12 187.336 1281.97 187.336ZM1296.98 187L1293.04 181.816H1291.82V187H1289.49V170.2H1291.82V179.656H1293.04L1296.93 175.456H1299.79L1295.08 180.688L1299.79 187H1296.98ZM1304.29 191.32C1301.72 191.32 1300.57 190.12 1300.57 188.44C1300.57 187.456 1301.09 186.568 1302.08 186.088C1301.43 185.656 1301.02 184.96 1301.02 184.216C1301.02 183.184 1301.67 182.344 1303.01 182.008C1301.93 181.288 1301.48 180.16 1301.48 179.08C1301.48 176.824 1303.21 175.12 1306.09 175.12C1307.93 175.12 1309.42 176.056 1309.9 177.256V176.896C1309.9 175.744 1310.53 175.456 1311.34 175.456H1313.05V177.496H1311.2C1310.84 177.496 1310.69 177.64 1310.69 178V179.224C1310.69 181.624 1308.82 183.184 1306.21 183.184H1304.21C1303.54 183.184 1303.09 183.496 1303.09 184.12C1303.09 184.744 1303.61 185.056 1304.21 185.056H1308.41C1310.62 185.056 1312.04 186.112 1312.04 188.008C1312.04 189.904 1310.91 191.32 1308.27 191.32H1304.29ZM1302.8 188.224C1302.8 188.968 1303.28 189.544 1304.55 189.544H1308.13C1309.04 189.544 1309.81 189.112 1309.81 188.08C1309.81 187.288 1309.18 186.832 1308.25 186.832H1304.62C1303.33 186.832 1302.8 187.48 1302.8 188.224ZM1303.71 179.152C1303.71 180.496 1304.6 181.36 1306.09 181.36C1307.6 181.36 1308.46 180.496 1308.46 179.152C1308.46 177.808 1307.57 176.944 1306.09 176.944C1304.57 176.944 1303.71 177.808 1303.71 179.152ZM1314.98 187V175.456H1317.04V177.328C1317.33 176.176 1318.2 175.456 1319.56 175.456H1321.77V177.496H1319.35C1317.91 177.496 1317.31 178.312 1317.31 179.872V187H1314.98ZM1328.24 187.336C1324.74 187.336 1322.29 184.888 1322.29 181.216C1322.29 177.568 1324.74 175.12 1328.24 175.12C1331.77 175.12 1334.2 177.568 1334.2 181.216C1334.2 184.888 1331.77 187.336 1328.24 187.336ZM1324.69 181.216C1324.69 183.616 1326.13 185.224 1328.24 185.224C1330.38 185.224 1331.8 183.616 1331.8 181.216C1331.8 178.84 1330.38 177.232 1328.24 177.232C1326.13 177.232 1324.69 178.84 1324.69 181.216ZM1341.18 187.336C1338.37 187.336 1336.64 185.608 1336.64 182.416V175.456H1338.97V182.2C1338.97 184.264 1339.93 185.224 1341.61 185.224C1343.36 185.224 1344.49 183.976 1344.49 182.128V175.456H1346.82V187H1344.75V185.68C1343.99 186.808 1342.67 187.336 1341.18 187.336ZM1350.14 187V175.456H1352.21V176.968C1352.9 175.72 1354.29 175.12 1355.85 175.12C1358.69 175.12 1360.46 176.848 1360.46 180.04V187H1358.13V180.256C1358.13 178.192 1357.13 177.232 1355.42 177.232C1353.65 177.232 1352.47 178.456 1352.47 180.328V187H1350.14ZM1368.48 187.336C1365.2 187.336 1362.94 184.888 1362.94 181.216C1362.94 177.568 1365.2 175.12 1368.48 175.12C1370.16 175.12 1371.53 175.744 1372.25 176.872V170.2H1374.56V187H1372.49V185.392C1371.72 186.616 1370.28 187.336 1368.48 187.336ZM1365.34 181.216C1365.34 183.616 1366.76 185.224 1368.84 185.224C1370.93 185.224 1372.3 183.616 1372.3 181.216C1372.3 178.84 1370.93 177.232 1368.84 177.232C1366.76 177.232 1365.34 178.84 1365.34 181.216Z" fill="#0D0D0D"/>
<rect x="129.5" y="265.5" width="84.4" height="253" rx="15.5" fill="#CECCC9"/>
<rect x="129.5" y="265.5" width="84.4" height="253" rx="15.5" stroke="#BFBDBA"/>
<path d="M145.779 485.848C145.779 480.824 146.579 477.528 150.387 473.88L152.851 471.512H140.787V468.6H157.043V471.512L153.107 475.224C150.099 478.136 149.011 480.6 149.011 485.688V491H145.779V485.848ZM166.911 468.152C171.935 468.152 175.455 471.576 175.455 478.488C175.455 486.168 172.479 491 164.959 491H160.671V488.088H164.959C170.143 488.088 172.031 485.464 172.287 480.536C171.295 482.104 169.247 483.224 166.431 483.224C161.919 483.224 158.751 480.088 158.751 475.768C158.751 471.384 162.079 468.152 166.911 468.152ZM161.983 475.672C161.983 478.456 164.063 480.376 167.007 480.376C169.951 480.376 171.999 478.488 171.999 475.672C171.999 472.888 169.951 470.968 167.007 470.968C164.063 470.968 161.983 472.888 161.983 475.672ZM183.08 467.832C184.659 467.832 185.854 468.461 186.664 469.72C187.475 470.957 187.88 472.707 187.88 474.968C187.88 477.229 187.486 479 186.696 480.28C185.928 481.539 184.723 482.168 183.08 482.168C182.078 482.168 181.224 481.88 180.52 481.304C179.816 480.728 179.283 479.907 178.92 478.84C178.579 477.752 178.408 476.461 178.408 474.968C178.408 472.707 178.782 470.957 179.528 469.72C180.275 468.461 181.459 467.832 183.08 467.832ZM183.08 469.816C182.27 469.816 181.672 470.253 181.288 471.128C180.926 471.981 180.744 473.261 180.744 474.968C180.744 476.675 180.926 477.965 181.288 478.84C181.672 479.715 182.27 480.152 183.08 480.152C183.912 480.152 184.531 479.725 184.936 478.872C185.342 477.997 185.544 476.696 185.544 474.968C185.544 473.261 185.342 471.981 184.936 471.128C184.531 470.253 183.912 469.816 183.08 469.816ZM197.704 468.152L185.032 491H182.568L195.24 468.152H197.704ZM197.064 476.984C198.11 476.984 198.984 477.272 199.688 477.848C200.392 478.403 200.926 479.213 201.288 480.28C201.672 481.325 201.864 482.605 201.864 484.12C201.864 486.381 201.47 488.152 200.68 489.432C199.912 490.691 198.707 491.32 197.064 491.32C196.062 491.32 195.208 491.032 194.504 490.456C193.8 489.88 193.267 489.059 192.904 487.992C192.563 486.904 192.392 485.613 192.392 484.12C192.392 481.859 192.766 480.109 193.512 478.872C194.259 477.613 195.443 476.984 197.064 476.984ZM197.064 479C196.254 479 195.656 479.427 195.272 480.28C194.91 481.133 194.728 482.413 194.728 484.12C194.728 485.848 194.91 487.149 195.272 488.024C195.656 488.877 196.254 489.304 197.064 489.304C197.896 489.304 198.515 488.877 198.92 488.024C199.326 487.171 199.528 485.869 199.528 484.12C199.528 482.413 199.326 481.133 198.92 480.28C198.515 479.427 197.896 479 197.064 479Z" fill="#0D0D0D"/>
<rect x="234.398" y="255" width="85.4" height="264" rx="16" fill="#0D0D0D"/>
<path d="M254.774 491.448C249.366 491.448 246.262 488.632 246.262 484.664C246.262 482.072 247.894 479.896 250.39 479.096C248.15 478.328 246.902 476.344 246.902 474.2C246.902 470.648 250.006 468.152 254.774 468.152C259.574 468.152 262.678 470.648 262.678 474.2C262.678 476.344 261.43 478.328 259.19 479.096C261.686 479.896 263.318 482.072 263.318 484.664C263.318 488.632 260.214 491.448 254.774 491.448ZM249.462 484.568C249.462 487 251.35 488.76 254.774 488.76C258.23 488.76 260.118 487 260.118 484.568C260.118 482.104 258.102 480.472 254.774 480.472C251.478 480.472 249.462 482.104 249.462 484.568ZM250.102 474.392C250.102 476.472 251.894 477.848 254.774 477.848C257.654 477.848 259.478 476.472 259.478 474.392C259.478 472.312 257.75 470.84 254.774 470.84C251.83 470.84 250.102 472.312 250.102 474.392ZM266.406 487.064C266.406 482.936 268.326 481.016 271.91 479.992L275.046 479.096C277.51 478.392 278.662 477.208 278.662 475.192C278.662 472.984 277.094 471.512 274.694 471.512H267.494V468.6H274.694C278.95 468.6 281.894 471.192 281.894 475.192C281.894 478.424 279.718 480.632 276.582 481.592L272.742 482.744C270.534 483.416 269.638 484.504 269.638 486.52V488.088H281.702V491H266.406V487.064ZM289.166 467.832C290.745 467.832 291.94 468.461 292.75 469.72C293.561 470.957 293.966 472.707 293.966 474.968C293.966 477.229 293.572 479 292.782 480.28C292.014 481.539 290.809 482.168 289.166 482.168C288.164 482.168 287.31 481.88 286.606 481.304C285.902 480.728 285.369 479.907 285.006 478.84C284.665 477.752 284.494 476.461 284.494 474.968C284.494 472.707 284.868 470.957 285.614 469.72C286.361 468.461 287.545 467.832 289.166 467.832ZM289.166 469.816C288.356 469.816 287.758 470.253 287.374 471.128C287.012 471.981 286.83 473.261 286.83 474.968C286.83 476.675 287.012 477.965 287.374 478.84C287.758 479.715 288.356 480.152 289.166 480.152C289.998 480.152 290.617 479.725 291.022 478.872C291.428 477.997 291.63 476.696 291.63 474.968C291.63 473.261 291.428 471.981 291.022 471.128C290.617 470.253 289.998 469.816 289.166 469.816ZM303.79 468.152L291.118 491H288.654L301.326 468.152H303.79ZM303.15 476.984C304.196 476.984 305.07 477.272 305.774 477.848C306.478 478.403 307.012 479.213 307.374 480.28C307.758 481.325 307.95 482.605 307.95 484.12C307.95 486.381 307.556 488.152 306.766 489.432C305.998 490.691 304.793 491.32 303.15 491.32C302.148 491.32 301.294 491.032 300.59 490.456C299.886 489.88 299.353 489.059 298.99 487.992C298.649 486.904 298.478 485.613 298.478 484.12C298.478 481.859 298.852 480.109 299.598 478.872C300.345 477.613 301.529 476.984 303.15 476.984ZM303.15 479C302.34 479 301.742 479.427 301.358 480.28C300.996 481.133 300.814 482.413 300.814 484.12C300.814 485.848 300.996 487.149 301.358 488.024C301.742 488.877 302.34 489.304 303.15 489.304C303.982 489.304 304.601 488.877 305.006 488.024C305.412 487.171 305.614 485.869 305.614 484.12C305.614 482.413 305.412 481.133 305.006 480.28C304.601 479.427 303.982 479 303.15 479Z" fill="white"/>
<path d="M157.752 561.28C154.032 561.28 151.472 558.84 151.472 554.02C151.472 549.2 153.932 546.72 157.792 546.72C160.832 546.72 162.912 548.48 163.332 551.48H161.232C160.932 549.64 159.552 548.58 157.792 548.58C155.232 548.58 153.532 550.24 153.532 553.98C153.532 557.68 155.312 559.42 157.752 559.42C159.692 559.42 160.912 558.12 161.232 556.32H163.312C162.832 559.22 160.912 561.28 157.752 561.28ZM169.741 561.28C166.821 561.28 164.781 559.24 164.781 556.18C164.781 553.14 166.821 551.1 169.741 551.1C172.681 551.1 174.701 553.14 174.701 556.18C174.701 559.24 172.681 561.28 169.741 561.28ZM166.781 556.18C166.781 558.18 167.981 559.52 169.741 559.52C171.521 559.52 172.701 558.18 172.701 556.18C172.701 554.2 171.521 552.86 169.741 552.86C167.981 552.86 166.781 554.2 166.781 556.18ZM176.921 561V551.38H178.641V552.64C179.221 551.6 180.381 551.1 181.681 551.1C184.041 551.1 185.521 552.54 185.521 555.2V561H183.581V555.38C183.581 553.66 182.741 552.86 181.321 552.86C179.841 552.86 178.861 553.88 178.861 555.44V561H176.921ZM190.515 561L186.515 551.38H188.675L191.635 558.92L194.575 551.38H196.735L192.715 561H190.515ZM202.145 561.28C199.265 561.28 197.345 559.26 197.345 556.14C197.345 553.04 199.265 551.1 202.005 551.1C204.865 551.1 206.625 552.96 206.625 555.9C206.625 556.16 206.605 556.42 206.565 556.82H199.265C199.345 558.58 200.425 559.64 202.145 559.64C203.285 559.64 204.085 559.12 204.465 558.26H206.445C205.845 560.12 204.365 561.28 202.145 561.28ZM199.265 555.3H204.665V555.2C204.665 553.72 203.705 552.66 202.005 552.66C200.385 552.66 199.345 553.74 199.265 555.3ZM208.762 561V551.38H210.482V552.94C210.722 551.98 211.442 551.38 212.582 551.38H214.422V553.08H212.402C211.202 553.08 210.702 553.76 210.702 555.06V561H208.762ZM219.227 561.28C216.627 561.28 215.087 560.24 214.987 558.26H216.987C217.087 559.22 217.867 559.7 219.267 559.7C220.547 559.7 221.327 559.16 221.327 558.28C221.327 557.56 220.787 557.14 219.787 557.04L218.247 556.88C216.447 556.7 215.307 555.7 215.307 554.1C215.307 552.26 216.847 551.1 219.207 551.1C221.607 551.1 223.087 552.1 223.207 554.06H221.267C221.207 553.14 220.447 552.68 219.187 552.68C217.987 552.68 217.227 553.18 217.227 554C217.227 554.7 217.747 555.08 218.867 555.22L220.427 555.4C222.247 555.6 223.287 556.62 223.287 558.2C223.287 560.08 221.707 561.28 219.227 561.28ZM225.394 561V551.38H227.334V561H225.394ZM225.274 549.44V547.14H227.434V549.44H225.274ZM234.494 561.28C231.574 561.28 229.534 559.24 229.534 556.18C229.534 553.14 231.574 551.1 234.494 551.1C237.434 551.1 239.454 553.14 239.454 556.18C239.454 559.24 237.434 561.28 234.494 561.28ZM231.534 556.18C231.534 558.18 232.734 559.52 234.494 559.52C236.274 559.52 237.454 558.18 237.454 556.18C237.454 554.2 236.274 552.86 234.494 552.86C232.734 552.86 231.534 554.2 231.534 556.18ZM241.673 561V551.38H243.393V552.64C243.973 551.6 245.133 551.1 246.433 551.1C248.793 551.1 250.273 552.54 250.273 555.2V561H248.333V555.38C248.333 553.66 247.493 552.86 246.073 552.86C244.593 552.86 243.613 553.88 243.613 555.44V561H241.673ZM258.134 561V547H264.134C267.054 547 268.774 548.52 268.774 551.02C268.774 553.42 267.214 554.92 264.554 555.06L269.174 561H266.674L262.074 555.04H260.134V561H258.134ZM260.134 553.22H264.134C265.794 553.22 266.734 552.42 266.734 551.02C266.734 549.66 265.794 548.88 264.134 548.88H260.134V553.22ZM273.892 561.28C271.672 561.28 270.272 560.12 270.272 558.28C270.272 556.56 271.432 555.32 273.792 555.18L276.712 555.02V554.48C276.712 553.22 276.092 552.7 274.772 552.7C273.492 552.7 272.852 553.04 272.692 554.06H270.752C270.972 552.08 272.332 551.1 274.912 551.1C277.212 551.1 278.552 552.26 278.552 554.38V559.08C278.552 559.3 278.652 559.4 278.872 559.4H279.692V561H278.132C277.472 561 277.092 560.64 277.092 560V559.72C276.532 560.7 275.392 561.28 273.892 561.28ZM272.212 558.22C272.212 559.1 272.932 559.68 274.112 559.68C275.672 559.68 276.712 558.78 276.712 557.14V556.52L274.032 556.72C272.792 556.8 272.212 557.44 272.212 558.22ZM284.842 561C283.182 561 282.462 560.34 282.462 558.68V553.08H279.942V551.38H282.462V548.5H284.402V551.38H287.422V553.08H284.402V558.3C284.402 559 284.682 559.3 285.422 559.3H287.422V561H284.842ZM293.231 561.28C290.351 561.28 288.431 559.26 288.431 556.14C288.431 553.04 290.351 551.1 293.091 551.1C295.951 551.1 297.711 552.96 297.711 555.9C297.711 556.16 297.691 556.42 297.651 556.82H290.351C290.431 558.58 291.511 559.64 293.231 559.64C294.371 559.64 295.171 559.12 295.551 558.26H297.531C296.931 560.12 295.451 561.28 293.231 561.28ZM290.351 555.3H295.751V555.2C295.751 553.72 294.791 552.66 293.091 552.66C291.471 552.66 290.431 553.74 290.351 555.3Z" fill="#0D0D0D"/>
<rect x="194.898" y="575.5" width="59" height="20" rx="10" stroke="#0B8900"/>
<path d="M205.514 584.568H208.3V585.562H205.514V588.446H204.506V585.562H201.72V584.568H204.506V581.67H205.514V584.568ZM209.507 590V588.726H212.069V581.502H210.291V580.2H213.427V588.726H215.947V590H209.507ZM217.574 590V588.082H219.254V590H217.574ZM224.836 590.196C222.176 590.196 220.902 588.39 220.902 585.1C220.902 581.81 222.176 580.004 224.836 580.004C227.496 580.004 228.77 581.81 228.77 585.1C228.77 588.39 227.496 590.196 224.836 590.196ZM222.316 585.1C222.316 587.662 223.1 588.992 224.836 588.992C226.558 588.992 227.342 587.662 227.342 585.1C227.342 582.538 226.558 581.208 224.836 581.208C223.1 581.208 222.316 582.538 222.316 585.1ZM235.194 590V587.088H229.944V585.856L234.662 580.2H236.552V585.856H238.162V587.088H236.552V590H235.194ZM231.456 585.856H235.194V581.376L231.456 585.856Z" fill="#0B8900"/>
<path fill-rule="evenodd" clip-rule="evenodd" d="M241.398 585.625L244.898 580L248.398 585.625H245.505V590H244.292V585.625H241.398Z" fill="#0B8900"/>
<rect x="359.801" y="255" width="1" height="264" rx="0.5" fill="#B5B2B0"/>
<rect x="401.301" y="458.5" width="84.4" height="60" rx="15.5" fill="#CECCC9"/>
<rect x="401.301" y="458.5" width="84.4" height="60" rx="15.5" stroke="#BFBDBA"/>
<path d="M413.588 491V488.088H419.444V471.576H415.38V468.6H422.548V488.088H428.308V491H413.588ZM437.9 468.152C442.924 468.152 446.444 471.576 446.444 478.488C446.444 486.168 443.468 491 435.948 491H431.66V488.088H435.948C441.132 488.088 443.02 485.464 443.276 480.536C442.284 482.104 440.236 483.224 437.42 483.224C432.908 483.224 429.74 480.088 429.74 475.768C429.74 471.384 433.068 468.152 437.9 468.152ZM432.972 475.672C432.972 478.456 435.052 480.376 437.996 480.376C440.94 480.376 442.988 478.488 442.988 475.672C442.988 472.888 440.94 470.968 437.996 470.968C435.052 470.968 432.972 472.888 432.972 475.672ZM454.069 467.832C455.647 467.832 456.842 468.461 457.653 469.72C458.463 470.957 458.869 472.707 458.869 474.968C458.869 477.229 458.474 479 457.685 480.28C456.917 481.539 455.711 482.168 454.069 482.168C453.066 482.168 452.213 481.88 451.509 481.304C450.805 480.728 450.271 479.907 449.909 478.84C449.567 477.752 449.397 476.461 449.397 474.968C449.397 472.707 449.77 470.957 450.517 469.72C451.263 468.461 452.447 467.832 454.069 467.832ZM454.069 469.816C453.258 469.816 452.661 470.253 452.277 471.128C451.914 471.981 451.733 473.261 451.733 474.968C451.733 476.675 451.914 477.965 452.277 478.84C452.661 479.715 453.258 480.152 454.069 480.152C454.901 480.152 455.519 479.725 455.925 478.872C456.33 477.997 456.533 476.696 456.533 474.968C456.533 473.261 456.33 471.981 455.925 471.128C455.519 470.253 454.901 469.816 454.069 469.816ZM468.693 468.152L456.021 491H453.557L466.229 468.152H468.693ZM468.053 476.984C469.098 476.984 469.973 477.272 470.677 477.848C471.381 478.403 471.914 479.213 472.277 480.28C472.661 481.325 472.853 482.605 472.853 484.12C472.853 486.381 472.458 488.152 471.669 489.432C470.901 490.691 469.695 491.32 468.053 491.32C467.05 491.32 466.197 491.032 465.493 490.456C464.789 489.88 464.255 489.059 463.893 487.992C463.551 486.904 463.381 485.613 463.381 484.12C463.381 481.859 463.754 480.109 464.501 478.872C465.247 477.613 466.431 476.984 468.053 476.984ZM468.053 479C467.242 479 466.645 479.427 466.261 480.28C465.898 481.133 465.717 482.413 465.717 484.12C465.717 485.848 465.898 487.149 466.261 488.024C466.645 488.877 467.242 489.304 468.053 489.304C468.885 489.304 469.503 488.877 469.909 488.024C470.314 487.171 470.517 485.869 470.517 484.12C470.517 482.413 470.314 481.133 469.909 480.28C469.503 479.427 468.885 479 468.053 479Z" fill="#0D0D0D"/>
<rect x="506.199" y="439" width="85.4" height="80" rx="16" fill="#0D0D0D"/>
<path d="M518.87 487.064C518.87 482.936 520.79 481.016 524.374 479.992L527.51 479.096C529.974 478.392 531.126 477.208 531.126 475.192C531.126 472.984 529.558 471.512 527.158 471.512H519.958V468.6H527.158C531.414 468.6 534.358 471.192 534.358 475.192C534.358 478.424 532.182 480.632 529.046 481.592L525.206 482.744C522.998 483.416 522.102 484.504 522.102 486.52V488.088H534.166V491H518.87V487.064ZM537.835 491V488.088H544.875C547.627 488.088 549.515 486.424 549.515 483.96C549.515 481.528 547.787 479.864 544.875 479.864H538.379V468.6H551.755V471.512H541.483V477.048H545.227C549.771 477.048 552.747 479.768 552.747 483.832C552.747 488.088 549.611 491 544.875 491H537.835ZM560.03 467.832C561.608 467.832 562.803 468.461 563.614 469.72C564.424 470.957 564.83 472.707 564.83 474.968C564.83 477.229 564.435 479 563.646 480.28C562.878 481.539 561.672 482.168 560.03 482.168C559.027 482.168 558.174 481.88 557.47 481.304C556.766 480.728 556.232 479.907 555.87 478.84C555.528 477.752 555.358 476.461 555.358 474.968C555.358 472.707 555.731 470.957 556.478 469.72C557.224 468.461 558.408 467.832 560.03 467.832ZM560.03 469.816C559.219 469.816 558.622 470.253 558.238 471.128C557.875 471.981 557.694 473.261 557.694 474.968C557.694 476.675 557.875 477.965 558.238 478.84C558.622 479.715 559.219 480.152 560.03 480.152C560.862 480.152 561.48 479.725 561.886 478.872C562.291 477.997 562.494 476.696 562.494 474.968C562.494 473.261 562.291 471.981 561.886 471.128C561.48 470.253 560.862 469.816 560.03 469.816ZM574.654 468.152L561.982 491H559.518L572.19 468.152H574.654ZM574.014 476.984C575.059 476.984 575.934 477.272 576.638 477.848C577.342 478.403 577.875 479.213 578.238 480.28C578.622 481.325 578.814 482.605 578.814 484.12C578.814 486.381 578.419 488.152 577.63 489.432C576.862 490.691 575.656 491.32 574.014 491.32C573.011 491.32 572.158 491.032 571.454 490.456C570.75 489.88 570.216 489.059 569.854 487.992C569.512 486.904 569.342 485.613 569.342 484.12C569.342 481.859 569.715 480.109 570.462 478.872C571.208 477.613 572.392 476.984 574.014 476.984ZM574.014 479C573.203 479 572.606 479.427 572.222 480.28C571.859 481.133 571.678 482.413 571.678 484.12C571.678 485.848 571.859 487.149 572.222 488.024C572.606 488.877 573.203 489.304 574.014 489.304C574.846 489.304 575.464 488.877 575.87 488.024C576.275 487.171 576.478 485.869 576.478 484.12C576.478 482.413 576.275 481.133 575.87 480.28C575.464 479.427 574.846 479 574.014 479Z" fill="white"/>
<path d="M429.553 561.28C425.833 561.28 423.273 558.84 423.273 554.02C423.273 549.2 425.733 546.72 429.593 546.72C432.633 546.72 434.713 548.48 435.133 551.48H433.033C432.733 549.64 431.353 548.58 429.593 548.58C427.033 548.58 425.333 550.24 425.333 553.98C425.333 557.68 427.113 559.42 429.553 559.42C431.493 559.42 432.713 558.12 433.033 556.32H435.113C434.633 559.22 432.713 561.28 429.553 561.28ZM441.542 561.28C438.622 561.28 436.582 559.24 436.582 556.18C436.582 553.14 438.622 551.1 441.542 551.1C444.482 551.1 446.502 553.14 446.502 556.18C446.502 559.24 444.482 561.28 441.542 561.28ZM438.582 556.18C438.582 558.18 439.782 559.52 441.542 559.52C443.322 559.52 444.502 558.18 444.502 556.18C444.502 554.2 443.322 552.86 441.542 552.86C439.782 552.86 438.582 554.2 438.582 556.18ZM448.722 561V551.38H450.442V552.64C451.022 551.6 452.182 551.1 453.482 551.1C455.842 551.1 457.322 552.54 457.322 555.2V561H455.382V555.38C455.382 553.66 454.542 552.86 453.122 552.86C451.642 552.86 450.662 553.88 450.662 555.44V561H448.722ZM462.315 561L458.315 551.38H460.475L463.435 558.92L466.375 551.38H468.535L464.515 561H462.315ZM473.946 561.28C471.066 561.28 469.146 559.26 469.146 556.14C469.146 553.04 471.066 551.1 473.806 551.1C476.666 551.1 478.426 552.96 478.426 555.9C478.426 556.16 478.406 556.42 478.366 556.82H471.066C471.146 558.58 472.226 559.64 473.946 559.64C475.086 559.64 475.886 559.12 476.266 558.26H478.246C477.646 560.12 476.166 561.28 473.946 561.28ZM471.066 555.3H476.466V555.2C476.466 553.72 475.506 552.66 473.806 552.66C472.186 552.66 471.146 553.74 471.066 555.3ZM480.563 561V551.38H482.283V552.94C482.523 551.98 483.243 551.38 484.383 551.38H486.223V553.08H484.203C483.003 553.08 482.503 553.76 482.503 555.06V561H480.563ZM491.027 561.28C488.427 561.28 486.887 560.24 486.787 558.26H488.787C488.887 559.22 489.667 559.7 491.067 559.7C492.347 559.7 493.127 559.16 493.127 558.28C493.127 557.56 492.587 557.14 491.587 557.04L490.047 556.88C488.247 556.7 487.107 555.7 487.107 554.1C487.107 552.26 488.647 551.1 491.007 551.1C493.407 551.1 494.887 552.1 495.007 554.06H493.067C493.007 553.14 492.247 552.68 490.987 552.68C489.787 552.68 489.027 553.18 489.027 554C489.027 554.7 489.547 555.08 490.667 555.22L492.227 555.4C494.047 555.6 495.087 556.62 495.087 558.2C495.087 560.08 493.507 561.28 491.027 561.28ZM497.194 561V551.38H499.134V561H497.194ZM497.074 549.44V547.14H499.234V549.44H497.074ZM506.294 561.28C503.374 561.28 501.334 559.24 501.334 556.18C501.334 553.14 503.374 551.1 506.294 551.1C509.234 551.1 511.254 553.14 511.254 556.18C511.254 559.24 509.234 561.28 506.294 561.28ZM503.334 556.18C503.334 558.18 504.534 559.52 506.294 559.52C508.074 559.52 509.254 558.18 509.254 556.18C509.254 554.2 508.074 552.86 506.294 552.86C504.534 552.86 503.334 554.2 503.334 556.18ZM513.474 561V551.38H515.194V552.64C515.774 551.6 516.934 551.1 518.234 551.1C520.594 551.1 522.074 552.54 522.074 555.2V561H520.134V555.38C520.134 553.66 519.294 552.86 517.874 552.86C516.394 552.86 515.414 553.88 515.414 555.44V561H513.474ZM529.935 561V547H535.935C538.855 547 540.575 548.52 540.575 551.02C540.575 553.42 539.015 554.92 536.355 555.06L540.975 561H538.475L533.875 555.04H531.935V561H529.935ZM531.935 553.22H535.935C537.595 553.22 538.535 552.42 538.535 551.02C538.535 549.66 537.595 548.88 535.935 548.88H531.935V553.22ZM545.693 561.28C543.473 561.28 542.073 560.12 542.073 558.28C542.073 556.56 543.233 555.32 545.593 555.18L548.513 555.02V554.48C548.513 553.22 547.893 552.7 546.573 552.7C545.293 552.7 544.653 553.04 544.493 554.06H542.553C542.773 552.08 544.133 551.1 546.713 551.1C549.013 551.1 550.353 552.26 550.353 554.38V559.08C550.353 559.3 550.453 559.4 550.673 559.4H551.493V561H549.933C549.273 561 548.893 560.64 548.893 560V559.72C548.333 560.7 547.193 561.28 545.693 561.28ZM544.013 558.22C544.013 559.1 544.733 559.68 545.913 559.68C547.473 559.68 548.513 558.78 548.513 557.14V556.52L545.833 556.72C544.593 556.8 544.013 557.44 544.013 558.22ZM556.643 561C554.983 561 554.263 560.34 554.263 558.68V553.08H551.743V551.38H554.263V548.5H556.203V551.38H559.223V553.08H556.203V558.3C556.203 559 556.483 559.3 557.223 559.3H559.223V561H556.643ZM565.032 561.28C562.152 561.28 560.232 559.26 560.232 556.14C560.232 553.04 562.152 551.1 564.892 551.1C567.752 551.1 569.512 552.96 569.512 555.9C569.512 556.16 569.492 556.42 569.452 556.82H562.152C562.232 558.58 563.312 559.64 565.032 559.64C566.172 559.64 566.972 559.12 567.352 558.26H569.332C568.732 560.12 567.252 561.28 565.032 561.28ZM562.152 555.3H567.552V555.2C567.552 553.72 566.592 552.66 564.892 552.66C563.272 552.66 562.232 553.74 562.152 555.3Z" fill="#0D0D0D"/>
<rect x="468.199" y="575.5" width="56" height="20" rx="10" stroke="#0B8900"/>
<path d="M478.549 584.568H481.335V585.562H478.549V588.446H477.541V585.562H474.755V584.568H477.541V581.67H478.549V584.568ZM482.542 590V588.726H485.104V581.502H483.326V580.2H486.462V588.726H488.982V590H482.542ZM490.61 590V588.082H492.29V590H490.61ZM494.111 590V588.726H497.191C498.591 588.726 499.403 588.068 499.403 586.976C499.403 585.968 498.619 585.338 497.261 585.338H495.791V584.204L498.633 581.474H493.971V580.2H500.425V581.474L497.471 584.232H497.653C499.585 584.232 500.817 585.324 500.817 586.962C500.817 588.796 499.361 590 497.191 590H494.111ZM501.902 590V588.726H504.464V581.502H502.686V580.2H505.822V588.726H508.342V590H501.902Z" fill="#0B8900"/>
<path fill-rule="evenodd" clip-rule="evenodd" d="M511.699 585.625L515.199 580L518.699 585.625H515.805V590H514.593V585.625H511.699Z" fill="#0B8900"/>
<rect x="631.602" y="255" width="1" height="264" rx="0.5" fill="#B5B2B0"/>
<rect x="673.102" y="490.5" width="84.4" height="28" rx="14" fill="#CECCC9"/>
<rect x="673.102" y="490.5" width="84.4" height="28" rx="14" stroke="#BFBDBA"/>
<path d="M701.677 468.152C706.701 468.152 710.221 471.576 710.221 478.488C710.221 486.168 707.245 491 699.725 491H695.437V488.088H699.725C704.909 488.088 706.797 485.464 707.053 480.536C706.061 482.104 704.013 483.224 701.197 483.224C696.685 483.224 693.517 480.088 693.517 475.768C693.517 471.384 696.845 468.152 701.677 468.152ZM696.749 475.672C696.749 478.456 698.829 480.376 701.773 480.376C704.717 480.376 706.765 478.488 706.765 475.672C706.765 472.888 704.717 470.968 701.773 470.968C698.829 470.968 696.749 472.888 696.749 475.672ZM717.846 467.832C719.424 467.832 720.619 468.461 721.43 469.72C722.24 470.957 722.646 472.707 722.646 474.968C722.646 477.229 722.251 479 721.462 480.28C720.694 481.539 719.488 482.168 717.846 482.168C716.843 482.168 715.99 481.88 715.286 481.304C714.582 480.728 714.048 479.907 713.686 478.84C713.344 477.752 713.174 476.461 713.174 474.968C713.174 472.707 713.547 470.957 714.294 469.72C715.04 468.461 716.224 467.832 717.846 467.832ZM717.846 469.816C717.035 469.816 716.438 470.253 716.054 471.128C715.691 471.981 715.51 473.261 715.51 474.968C715.51 476.675 715.691 477.965 716.054 478.84C716.438 479.715 717.035 480.152 717.846 480.152C718.678 480.152 719.296 479.725 719.702 478.872C720.107 477.997 720.31 476.696 720.31 474.968C720.31 473.261 720.107 471.981 719.702 471.128C719.296 470.253 718.678 469.816 717.846 469.816ZM732.47 468.152L719.798 491H717.334L730.006 468.152H732.47ZM731.83 476.984C732.875 476.984 733.75 477.272 734.454 477.848C735.158 478.403 735.691 479.213 736.054 480.28C736.438 481.325 736.63 482.605 736.63 484.12C736.63 486.381 736.235 488.152 735.446 489.432C734.678 490.691 733.472 491.32 731.83 491.32C730.827 491.32 729.974 491.032 729.27 490.456C728.566 489.88 728.032 489.059 727.67 487.992C727.328 486.904 727.158 485.613 727.158 484.12C727.158 481.859 727.531 480.109 728.278 478.872C729.024 477.613 730.208 476.984 731.83 476.984ZM731.83 479C731.019 479 730.422 479.427 730.038 480.28C729.675 481.133 729.494 482.413 729.494 484.12C729.494 485.848 729.675 487.149 730.038 488.024C730.422 488.877 731.019 489.304 731.83 489.304C732.662 489.304 733.28 488.877 733.686 488.024C734.091 487.171 734.294 485.869 734.294 484.12C734.294 482.413 734.091 481.133 733.686 480.28C733.28 479.427 732.662 479 731.83 479Z" fill="#0D0D0D"/>
<rect x="778" y="484" width="85.4" height="35" rx="16" fill="#0D0D0D"/>
<path d="M791.787 491V488.088H797.643V471.576H793.579V468.6H800.747V488.088H806.507V491H791.787ZM808.561 491V488.088H814.417V471.576H810.353V468.6H817.521V488.088H823.281V491H808.561ZM830.018 467.832C831.597 467.832 832.791 468.461 833.602 469.72C834.413 470.957 834.818 472.707 834.818 474.968C834.818 477.229 834.423 479 833.634 480.28C832.866 481.539 831.661 482.168 830.018 482.168C829.015 482.168 828.162 481.88 827.458 481.304C826.754 480.728 826.221 479.907 825.858 478.84C825.517 477.752 825.346 476.461 825.346 474.968C825.346 472.707 825.719 470.957 826.466 469.72C827.213 468.461 828.397 467.832 830.018 467.832ZM830.018 469.816C829.207 469.816 828.61 470.253 828.226 471.128C827.863 471.981 827.682 473.261 827.682 474.968C827.682 476.675 827.863 477.965 828.226 478.84C828.61 479.715 829.207 480.152 830.018 480.152C830.85 480.152 831.469 479.725 831.874 478.872C832.279 477.997 832.482 476.696 832.482 474.968C832.482 473.261 832.279 471.981 831.874 471.128C831.469 470.253 830.85 469.816 830.018 469.816ZM844.642 468.152L831.97 491H829.506L842.178 468.152H844.642ZM844.002 476.984C845.047 476.984 845.922 477.272 846.626 477.848C847.33 478.403 847.863 479.213 848.226 480.28C848.61 481.325 848.802 482.605 848.802 484.12C848.802 486.381 848.407 488.152 847.618 489.432C846.85 490.691 845.645 491.32 844.002 491.32C842.999 491.32 842.146 491.032 841.442 490.456C840.738 489.88 840.205 489.059 839.842 487.992C839.501 486.904 839.33 485.613 839.33 484.12C839.33 481.859 839.703 480.109 840.45 478.872C841.197 477.613 842.381 476.984 844.002 476.984ZM844.002 479C843.191 479 842.594 479.427 842.21 480.28C841.847 481.133 841.666 482.413 841.666 484.12C841.666 485.848 841.847 487.149 842.21 488.024C842.594 488.877 843.191 489.304 844.002 489.304C844.834 489.304 845.453 488.877 845.858 488.024C846.263 487.171 846.466 485.869 846.466 484.12C846.466 482.413 846.263 481.133 845.858 480.28C845.453 479.427 844.834 479 844.002 479Z" fill="white"/>
<path d="M701.353 561.28C697.633 561.28 695.073 558.84 695.073 554.02C695.073 549.2 697.533 546.72 701.393 546.72C704.433 546.72 706.513 548.48 706.933 551.48H704.833C704.533 549.64 703.153 548.58 701.393 548.58C698.833 548.58 697.133 550.24 697.133 553.98C697.133 557.68 698.913 559.42 701.353 559.42C703.293 559.42 704.513 558.12 704.833 556.32H706.913C706.433 559.22 704.513 561.28 701.353 561.28ZM713.343 561.28C710.423 561.28 708.383 559.24 708.383 556.18C708.383 553.14 710.423 551.1 713.343 551.1C716.283 551.1 718.303 553.14 718.303 556.18C718.303 559.24 716.283 561.28 713.343 561.28ZM710.383 556.18C710.383 558.18 711.583 559.52 713.343 559.52C715.123 559.52 716.303 558.18 716.303 556.18C716.303 554.2 715.123 552.86 713.343 552.86C711.583 552.86 710.383 554.2 710.383 556.18ZM720.523 561V551.38H722.243V552.64C722.823 551.6 723.983 551.1 725.283 551.1C727.643 551.1 729.123 552.54 729.123 555.2V561H727.183V555.38C727.183 553.66 726.343 552.86 724.923 552.86C723.443 552.86 722.463 553.88 722.463 555.44V561H720.523ZM734.116 561L730.116 551.38H732.276L735.236 558.92L738.176 551.38H740.336L736.316 561H734.116ZM745.747 561.28C742.867 561.28 740.947 559.26 740.947 556.14C740.947 553.04 742.867 551.1 745.607 551.1C748.467 551.1 750.227 552.96 750.227 555.9C750.227 556.16 750.207 556.42 750.167 556.82H742.867C742.947 558.58 744.027 559.64 745.747 559.64C746.887 559.64 747.687 559.12 748.067 558.26H750.047C749.447 560.12 747.967 561.28 745.747 561.28ZM742.867 555.3H748.267V555.2C748.267 553.72 747.307 552.66 745.607 552.66C743.987 552.66 742.947 553.74 742.867 555.3ZM752.364 561V551.38H754.084V552.94C754.324 551.98 755.044 551.38 756.184 551.38H758.024V553.08H756.004C754.804 553.08 754.304 553.76 754.304 555.06V561H752.364ZM762.828 561.28C760.228 561.28 758.688 560.24 758.588 558.26H760.588C760.688 559.22 761.468 559.7 762.868 559.7C764.148 559.7 764.928 559.16 764.928 558.28C764.928 557.56 764.388 557.14 763.388 557.04L761.848 556.88C760.048 556.7 758.908 555.7 758.908 554.1C758.908 552.26 760.448 551.1 762.808 551.1C765.208 551.1 766.688 552.1 766.808 554.06H764.868C764.808 553.14 764.048 552.68 762.788 552.68C761.588 552.68 760.828 553.18 760.828 554C760.828 554.7 761.348 555.08 762.468 555.22L764.028 555.4C765.848 555.6 766.888 556.62 766.888 558.2C766.888 560.08 765.308 561.28 762.828 561.28ZM768.995 561V551.38H770.935V561H768.995ZM768.875 549.44V547.14H771.035V549.44H768.875ZM778.095 561.28C775.175 561.28 773.135 559.24 773.135 556.18C773.135 553.14 775.175 551.1 778.095 551.1C781.035 551.1 783.055 553.14 783.055 556.18C783.055 559.24 781.035 561.28 778.095 561.28ZM775.135 556.18C775.135 558.18 776.335 559.52 778.095 559.52C779.875 559.52 781.055 558.18 781.055 556.18C781.055 554.2 779.875 552.86 778.095 552.86C776.335 552.86 775.135 554.2 775.135 556.18ZM785.275 561V551.38H786.995V552.64C787.575 551.6 788.735 551.1 790.035 551.1C792.395 551.1 793.875 552.54 793.875 555.2V561H791.935V555.38C791.935 553.66 791.095 552.86 789.675 552.86C788.195 552.86 787.215 553.88 787.215 555.44V561H785.275ZM801.736 561V547H807.736C810.656 547 812.376 548.52 812.376 551.02C812.376 553.42 810.816 554.92 808.156 555.06L812.776 561H810.276L805.676 555.04H803.736V561H801.736ZM803.736 553.22H807.736C809.396 553.22 810.336 552.42 810.336 551.02C810.336 549.66 809.396 548.88 807.736 548.88H803.736V553.22ZM817.494 561.28C815.274 561.28 813.874 560.12 813.874 558.28C813.874 556.56 815.034 555.32 817.394 555.18L820.314 555.02V554.48C820.314 553.22 819.694 552.7 818.374 552.7C817.094 552.7 816.454 553.04 816.294 554.06H814.354C814.574 552.08 815.934 551.1 818.514 551.1C820.814 551.1 822.154 552.26 822.154 554.38V559.08C822.154 559.3 822.254 559.4 822.474 559.4H823.294V561H821.734C821.074 561 820.694 560.64 820.694 560V559.72C820.134 560.7 818.994 561.28 817.494 561.28ZM815.814 558.22C815.814 559.1 816.534 559.68 817.714 559.68C819.274 559.68 820.314 558.78 820.314 557.14V556.52L817.634 556.72C816.394 556.8 815.814 557.44 815.814 558.22ZM828.444 561C826.784 561 826.064 560.34 826.064 558.68V553.08H823.544V551.38H826.064V548.5H828.004V551.38H831.024V553.08H828.004V558.3C828.004 559 828.284 559.3 829.024 559.3H831.024V561H828.444ZM836.833 561.28C833.953 561.28 832.033 559.26 832.033 556.14C832.033 553.04 833.953 551.1 836.693 551.1C839.553 551.1 841.313 552.96 841.313 555.9C841.313 556.16 841.293 556.42 841.253 556.82H833.953C834.033 558.58 835.113 559.64 836.833 559.64C837.973 559.64 838.773 559.12 839.153 558.26H841.133C840.533 560.12 839.053 561.28 836.833 561.28ZM833.953 555.3H839.353V555.2C839.353 553.72 838.393 552.66 836.693 552.66C835.073 552.66 834.033 553.74 833.953 555.3Z" fill="#0D0D0D"/>
<rect x="743.5" y="575.5" width="49" height="20" rx="10" stroke="#0B8900"/>
<path d="M753.535 584.568H756.321V585.562H753.535V588.446H752.527V585.562H749.741V584.568H752.527V581.67H753.535V584.568ZM757.529 590V588.726H760.091V581.502H758.313V580.2H761.449V588.726H763.969V590H757.529ZM765.596 590V588.082H767.276V590H765.596ZM769.632 588.278C769.632 586.472 770.472 585.632 772.04 585.184L773.412 584.792C774.49 584.484 774.994 583.966 774.994 583.084C774.994 582.118 774.308 581.474 773.258 581.474H770.108V580.2H773.258C775.12 580.2 776.408 581.334 776.408 583.084C776.408 584.498 775.456 585.464 774.084 585.884L772.404 586.388C771.438 586.682 771.046 587.158 771.046 588.04V588.726H776.324V590H769.632V588.278Z" fill="#0B8900"/>
<path fill-rule="evenodd" clip-rule="evenodd" d="M780 585.625L783.5 580L787 585.625H784.106V590H782.894V585.625H780Z" fill="#0B8900"/>
<rect x="903.398" y="255" width="1" height="264" rx="0.5" fill="#B5B2B0"/>
<rect x="944.898" y="355.5" width="84.4" height="163" rx="15.5" fill="#CECCC9"/>
<rect x="944.898" y="355.5" width="84.4" height="163" rx="15.5" stroke="#BFBDBA"/>
<path d="M958.198 491V488.088H965.238C967.99 488.088 969.878 486.424 969.878 483.96C969.878 481.528 968.15 479.864 965.238 479.864H958.742V468.6H972.118V471.512H961.846V477.048H965.59C970.134 477.048 973.11 479.768 973.11 483.832C973.11 488.088 969.974 491 965.238 491H958.198ZM975.053 491V488.088H980.909V471.576H976.845V468.6H984.013V488.088H989.773V491H975.053ZM996.51 467.832C998.089 467.832 999.283 468.461 1000.09 469.72C1000.9 470.957 1001.31 472.707 1001.31 474.968C1001.31 477.229 1000.92 479 1000.13 480.28C999.358 481.539 998.153 482.168 996.51 482.168C995.507 482.168 994.654 481.88 993.95 481.304C993.246 480.728 992.713 479.907 992.35 478.84C992.009 477.752 991.838 476.461 991.838 474.968C991.838 472.707 992.211 470.957 992.958 469.72C993.705 468.461 994.889 467.832 996.51 467.832ZM996.51 469.816C995.699 469.816 995.102 470.253 994.718 471.128C994.355 471.981 994.174 473.261 994.174 474.968C994.174 476.675 994.355 477.965 994.718 478.84C995.102 479.715 995.699 480.152 996.51 480.152C997.342 480.152 997.961 479.725 998.366 478.872C998.771 477.997 998.974 476.696 998.974 474.968C998.974 473.261 998.771 471.981 998.366 471.128C997.961 470.253 997.342 469.816 996.51 469.816ZM1011.13 468.152L998.462 491H995.998L1008.67 468.152H1011.13ZM1010.49 476.984C1011.54 476.984 1012.41 477.272 1013.12 477.848C1013.82 478.403 1014.36 479.213 1014.72 480.28C1015.1 481.325 1015.29 482.605 1015.29 484.12C1015.29 486.381 1014.9 488.152 1014.11 489.432C1013.34 490.691 1012.14 491.32 1010.49 491.32C1009.49 491.32 1008.64 491.032 1007.93 490.456C1007.23 489.88 1006.7 489.059 1006.33 487.992C1005.99 486.904 1005.82 485.613 1005.82 484.12C1005.82 481.859 1006.2 480.109 1006.94 478.872C1007.69 477.613 1008.87 476.984 1010.49 476.984ZM1010.49 479C1009.68 479 1009.09 479.427 1008.7 480.28C1008.34 481.133 1008.16 482.413 1008.16 484.12C1008.16 485.848 1008.34 487.149 1008.7 488.024C1009.09 488.877 1009.68 489.304 1010.49 489.304C1011.33 489.304 1011.94 488.877 1012.35 488.024C1012.76 487.171 1012.96 485.869 1012.96 484.12C1012.96 482.413 1012.76 481.133 1012.35 480.28C1011.94 479.427 1011.33 479 1010.49 479Z" fill="#0D0D0D"/>
<rect x="1049.8" y="335" width="85.4" height="184" rx="16" fill="#0D0D0D"/>
<path d="M1063.1 491V488.088H1070.14C1072.89 488.088 1074.78 486.424 1074.78 483.96C1074.78 481.528 1073.05 479.864 1070.14 479.864H1063.64V468.6H1077.02V471.512H1066.74V477.048H1070.49C1075.03 477.048 1078.01 479.768 1078.01 483.832C1078.01 488.088 1074.87 491 1070.14 491H1063.1ZM1084.97 485.848C1084.97 480.824 1085.77 477.528 1089.58 473.88L1092.05 471.512H1079.98V468.6H1096.24V471.512L1092.3 475.224C1089.29 478.136 1088.21 480.6 1088.21 485.688V491H1084.97V485.848ZM1102.94 467.832C1104.52 467.832 1105.71 468.461 1106.52 469.72C1107.33 470.957 1107.74 472.707 1107.74 474.968C1107.74 477.229 1107.35 479 1106.56 480.28C1105.79 481.539 1104.58 482.168 1102.94 482.168C1101.94 482.168 1101.08 481.88 1100.38 481.304C1099.68 480.728 1099.14 479.907 1098.78 478.84C1098.44 477.752 1098.27 476.461 1098.27 474.968C1098.27 472.707 1098.64 470.957 1099.39 469.72C1100.13 468.461 1101.32 467.832 1102.94 467.832ZM1102.94 469.816C1102.13 469.816 1101.53 470.253 1101.15 471.128C1100.79 471.981 1100.6 473.261 1100.6 474.968C1100.6 476.675 1100.79 477.965 1101.15 478.84C1101.53 479.715 1102.13 480.152 1102.94 480.152C1103.77 480.152 1104.39 479.725 1104.8 478.872C1105.2 477.997 1105.4 476.696 1105.4 474.968C1105.4 473.261 1105.2 471.981 1104.8 471.128C1104.39 470.253 1103.77 469.816 1102.94 469.816ZM1117.56 468.152L1104.89 491H1102.43L1115.1 468.152H1117.56ZM1116.92 476.984C1117.97 476.984 1118.84 477.272 1119.55 477.848C1120.25 478.403 1120.79 479.213 1121.15 480.28C1121.53 481.325 1121.72 482.605 1121.72 484.12C1121.72 486.381 1121.33 488.152 1120.54 489.432C1119.77 490.691 1118.57 491.32 1116.92 491.32C1115.92 491.32 1115.07 491.032 1114.36 490.456C1113.66 489.88 1113.13 489.059 1112.76 487.992C1112.42 486.904 1112.25 485.613 1112.25 484.12C1112.25 481.859 1112.63 480.109 1113.37 478.872C1114.12 477.613 1115.3 476.984 1116.92 476.984ZM1116.92 479C1116.11 479 1115.52 479.427 1115.13 480.28C1114.77 481.133 1114.59 482.413 1114.59 484.12C1114.59 485.848 1114.77 487.149 1115.13 488.024C1115.52 488.877 1116.11 489.304 1116.92 489.304C1117.76 489.304 1118.37 488.877 1118.78 488.024C1119.19 487.171 1119.39 485.869 1119.39 484.12C1119.39 482.413 1119.19 481.133 1118.78 480.28C1118.37 479.427 1117.76 479 1116.92 479Z" fill="white"/>
<path d="M973.15 561.28C969.43 561.28 966.87 558.84 966.87 554.02C966.87 549.2 969.33 546.72 973.19 546.72C976.23 546.72 978.31 548.48 978.73 551.48H976.63C976.33 549.64 974.95 548.58 973.19 548.58C970.63 548.58 968.93 550.24 968.93 553.98C968.93 557.68 970.71 559.42 973.15 559.42C975.09 559.42 976.31 558.12 976.63 556.32H978.71C978.23 559.22 976.31 561.28 973.15 561.28ZM985.14 561.28C982.22 561.28 980.18 559.24 980.18 556.18C980.18 553.14 982.22 551.1 985.14 551.1C988.08 551.1 990.1 553.14 990.1 556.18C990.1 559.24 988.08 561.28 985.14 561.28ZM982.18 556.18C982.18 558.18 983.38 559.52 985.14 559.52C986.92 559.52 988.1 558.18 988.1 556.18C988.1 554.2 986.92 552.86 985.14 552.86C983.38 552.86 982.18 554.2 982.18 556.18ZM992.319 561V551.38H994.039V552.64C994.619 551.6 995.779 551.1 997.079 551.1C999.439 551.1 1000.92 552.54 1000.92 555.2V561H998.979V555.38C998.979 553.66 998.139 552.86 996.719 552.86C995.239 552.86 994.259 553.88 994.259 555.44V561H992.319ZM1005.91 561L1001.91 551.38H1004.07L1007.03 558.92L1009.97 551.38H1012.13L1008.11 561H1005.91ZM1017.54 561.28C1014.66 561.28 1012.74 559.26 1012.74 556.14C1012.74 553.04 1014.66 551.1 1017.4 551.1C1020.26 551.1 1022.02 552.96 1022.02 555.9C1022.02 556.16 1022 556.42 1021.96 556.82H1014.66C1014.74 558.58 1015.82 559.64 1017.54 559.64C1018.68 559.64 1019.48 559.12 1019.86 558.26H1021.84C1021.24 560.12 1019.76 561.28 1017.54 561.28ZM1014.66 555.3H1020.06V555.2C1020.06 553.72 1019.1 552.66 1017.4 552.66C1015.78 552.66 1014.74 553.74 1014.66 555.3ZM1024.16 561V551.38H1025.88V552.94C1026.12 551.98 1026.84 551.38 1027.98 551.38H1029.82V553.08H1027.8C1026.6 553.08 1026.1 553.76 1026.1 555.06V561H1024.16ZM1034.63 561.28C1032.03 561.28 1030.49 560.24 1030.39 558.26H1032.39C1032.49 559.22 1033.27 559.7 1034.67 559.7C1035.95 559.7 1036.73 559.16 1036.73 558.28C1036.73 557.56 1036.19 557.14 1035.19 557.04L1033.65 556.88C1031.85 556.7 1030.71 555.7 1030.71 554.1C1030.71 552.26 1032.25 551.1 1034.61 551.1C1037.01 551.1 1038.49 552.1 1038.61 554.06H1036.67C1036.61 553.14 1035.85 552.68 1034.59 552.68C1033.39 552.68 1032.63 553.18 1032.63 554C1032.63 554.7 1033.15 555.08 1034.27 555.22L1035.83 555.4C1037.65 555.6 1038.69 556.62 1038.69 558.2C1038.69 560.08 1037.11 561.28 1034.63 561.28ZM1040.79 561V551.38H1042.73V561H1040.79ZM1040.67 549.44V547.14H1042.83V549.44H1040.67ZM1049.89 561.28C1046.97 561.28 1044.93 559.24 1044.93 556.18C1044.93 553.14 1046.97 551.1 1049.89 551.1C1052.83 551.1 1054.85 553.14 1054.85 556.18C1054.85 559.24 1052.83 561.28 1049.89 561.28ZM1046.93 556.18C1046.93 558.18 1048.13 559.52 1049.89 559.52C1051.67 559.52 1052.85 558.18 1052.85 556.18C1052.85 554.2 1051.67 552.86 1049.89 552.86C1048.13 552.86 1046.93 554.2 1046.93 556.18ZM1057.07 561V551.38H1058.79V552.64C1059.37 551.6 1060.53 551.1 1061.83 551.1C1064.19 551.1 1065.67 552.54 1065.67 555.2V561H1063.73V555.38C1063.73 553.66 1062.89 552.86 1061.47 552.86C1059.99 552.86 1059.01 553.88 1059.01 555.44V561H1057.07ZM1073.53 561V547H1079.53C1082.45 547 1084.17 548.52 1084.17 551.02C1084.17 553.42 1082.61 554.92 1079.95 555.06L1084.57 561H1082.07L1077.47 555.04H1075.53V561H1073.53ZM1075.53 553.22H1079.53C1081.19 553.22 1082.13 552.42 1082.13 551.02C1082.13 549.66 1081.19 548.88 1079.53 548.88H1075.53V553.22ZM1089.29 561.28C1087.07 561.28 1085.67 560.12 1085.67 558.28C1085.67 556.56 1086.83 555.32 1089.19 555.18L1092.11 555.02V554.48C1092.11 553.22 1091.49 552.7 1090.17 552.7C1088.89 552.7 1088.25 553.04 1088.09 554.06H1086.15C1086.37 552.08 1087.73 551.1 1090.31 551.1C1092.61 551.1 1093.95 552.26 1093.95 554.38V559.08C1093.95 559.3 1094.05 559.4 1094.27 559.4H1095.09V561H1093.53C1092.87 561 1092.49 560.64 1092.49 560V559.72C1091.93 560.7 1090.79 561.28 1089.29 561.28ZM1087.61 558.22C1087.61 559.1 1088.33 559.68 1089.51 559.68C1091.07 559.68 1092.11 558.78 1092.11 557.14V556.52L1089.43 556.72C1088.19 556.8 1087.61 557.44 1087.61 558.22ZM1100.24 561C1098.58 561 1097.86 560.34 1097.86 558.68V553.08H1095.34V551.38H1097.86V548.5H1099.8V551.38H1102.82V553.08H1099.8V558.3C1099.8 559 1100.08 559.3 1100.82 559.3H1102.82V561H1100.24ZM1108.63 561.28C1105.75 561.28 1103.83 559.26 1103.83 556.14C1103.83 553.04 1105.75 551.1 1108.49 551.1C1111.35 551.1 1113.11 552.96 1113.11 555.9C1113.11 556.16 1113.09 556.42 1113.05 556.82H1105.75C1105.83 558.58 1106.91 559.64 1108.63 559.64C1109.77 559.64 1110.57 559.12 1110.95 558.26H1112.93C1112.33 560.12 1110.85 561.28 1108.63 561.28ZM1105.75 555.3H1111.15V555.2C1111.15 553.72 1110.19 552.66 1108.49 552.66C1106.87 552.66 1105.83 553.74 1105.75 555.3Z" fill="#0D0D0D"/>
<rect x="1015.8" y="575.5" width="48" height="20" rx="10" stroke="#0B8900"/>
<path d="M1026.04 584.568H1028.82V585.562H1026.04V588.446H1025.03V585.562H1022.24V584.568H1025.03V581.67H1026.04V584.568ZM1030.03 590V588.726H1032.59V581.502H1030.81V580.2H1033.95V588.726H1036.47V590H1030.03ZM1038.1 590V588.082H1039.78V590H1038.1ZM1041.5 590V588.726H1044.06V581.502H1042.28V580.2H1045.42V588.726H1047.94V590H1041.5Z" fill="#0B8900"/>
<path fill-rule="evenodd" clip-rule="evenodd" d="M1051.3 585.625L1054.8 580L1058.3 585.625H1055.4V590H1054.19V585.625H1051.3Z" fill="#0B8900"/>
<rect x="1175.2" y="255" width="1" height="264" rx="0.5" fill="#B5B2B0"/>
<rect x="1216.7" y="368.5" width="84.4" height="150" rx="15.5" fill="#CECCC9"/>
<rect x="1216.7" y="368.5" width="84.4" height="150" rx="15.5" stroke="#BFBDBA"/>
<path d="M1239.76 491V484.344H1227.76V481.528L1238.55 468.6H1242.87V481.528H1246.55V484.344H1242.87V491H1239.76ZM1231.22 481.528H1239.76V471.288L1231.22 481.528ZM1251.91 485.848C1251.91 480.824 1252.71 477.528 1256.52 473.88L1258.98 471.512H1246.92V468.6H1263.17V471.512L1259.24 475.224C1256.23 478.136 1255.14 480.6 1255.14 485.688V491H1251.91V485.848ZM1269.87 467.832C1271.45 467.832 1272.65 468.461 1273.46 469.72C1274.27 470.957 1274.67 472.707 1274.67 474.968C1274.67 477.229 1274.28 479 1273.49 480.28C1272.72 481.539 1271.52 482.168 1269.87 482.168C1268.87 482.168 1268.02 481.88 1267.31 481.304C1266.61 480.728 1266.08 479.907 1265.71 478.84C1265.37 477.752 1265.2 476.461 1265.2 474.968C1265.2 472.707 1265.57 470.957 1266.32 469.72C1267.07 468.461 1268.25 467.832 1269.87 467.832ZM1269.87 469.816C1269.06 469.816 1268.47 470.253 1268.08 471.128C1267.72 471.981 1267.54 473.261 1267.54 474.968C1267.54 476.675 1267.72 477.965 1268.08 478.84C1268.47 479.715 1269.06 480.152 1269.87 480.152C1270.71 480.152 1271.32 479.725 1271.73 478.872C1272.13 477.997 1272.34 476.696 1272.34 474.968C1272.34 473.261 1272.13 471.981 1271.73 471.128C1271.32 470.253 1270.71 469.816 1269.87 469.816ZM1284.5 468.152L1271.83 491H1269.36L1282.03 468.152H1284.5ZM1283.86 476.984C1284.9 476.984 1285.78 477.272 1286.48 477.848C1287.19 478.403 1287.72 479.213 1288.08 480.28C1288.47 481.325 1288.66 482.605 1288.66 484.12C1288.66 486.381 1288.26 488.152 1287.47 489.432C1286.71 490.691 1285.5 491.32 1283.86 491.32C1282.85 491.32 1282 491.032 1281.3 490.456C1280.59 489.88 1280.06 489.059 1279.7 487.992C1279.36 486.904 1279.19 485.613 1279.19 484.12C1279.19 481.859 1279.56 480.109 1280.31 478.872C1281.05 477.613 1282.24 476.984 1283.86 476.984ZM1283.86 479C1283.05 479 1282.45 479.427 1282.07 480.28C1281.7 481.133 1281.52 482.413 1281.52 484.12C1281.52 485.848 1281.7 487.149 1282.07 488.024C1282.45 488.877 1283.05 489.304 1283.86 489.304C1284.69 489.304 1285.31 488.877 1285.71 488.024C1286.12 487.171 1286.32 485.869 1286.32 484.12C1286.32 482.413 1286.12 481.133 1285.71 480.28C1285.31 479.427 1284.69 479 1283.86 479Z" fill="#0D0D0D"/>
<rect x="1321.6" y="358" width="85.4" height="161" rx="16" fill="#0D0D0D"/>
<path d="M1332.9 491V488.088H1339.94C1342.69 488.088 1344.58 486.424 1344.58 483.96C1344.58 481.528 1342.85 479.864 1339.94 479.864H1333.44V468.6H1346.82V471.512H1336.54V477.048H1340.29C1344.83 477.048 1347.81 479.768 1347.81 483.832C1347.81 488.088 1344.67 491 1339.94 491H1332.9ZM1359.82 491.448C1353.74 491.448 1350.83 487.32 1350.83 479.8C1350.83 472.28 1353.74 468.152 1359.82 468.152C1365.9 468.152 1368.81 472.28 1368.81 479.8C1368.81 487.32 1365.9 491.448 1359.82 491.448ZM1354.06 479.8C1354.06 485.656 1355.85 488.696 1359.82 488.696C1363.76 488.696 1365.55 485.656 1365.55 479.8C1365.55 473.944 1363.76 470.904 1359.82 470.904C1355.85 470.904 1354.06 473.944 1354.06 479.8ZM1376.43 467.832C1378.01 467.832 1379.2 468.461 1380.01 469.72C1380.82 470.957 1381.23 472.707 1381.23 474.968C1381.23 477.229 1380.83 479 1380.04 480.28C1379.28 481.539 1378.07 482.168 1376.43 482.168C1375.43 482.168 1374.57 481.88 1373.87 481.304C1373.16 480.728 1372.63 479.907 1372.27 478.84C1371.93 477.752 1371.76 476.461 1371.76 474.968C1371.76 472.707 1372.13 470.957 1372.88 469.72C1373.62 468.461 1374.81 467.832 1376.43 467.832ZM1376.43 469.816C1375.62 469.816 1375.02 470.253 1374.64 471.128C1374.27 471.981 1374.09 473.261 1374.09 474.968C1374.09 476.675 1374.27 477.965 1374.64 478.84C1375.02 479.715 1375.62 480.152 1376.43 480.152C1377.26 480.152 1377.88 479.725 1378.28 478.872C1378.69 477.997 1378.89 476.696 1378.89 474.968C1378.89 473.261 1378.69 471.981 1378.28 471.128C1377.88 470.253 1377.26 469.816 1376.43 469.816ZM1391.05 468.152L1378.38 491H1375.92L1388.59 468.152H1391.05ZM1390.41 476.984C1391.46 476.984 1392.33 477.272 1393.04 477.848C1393.74 478.403 1394.27 479.213 1394.64 480.28C1395.02 481.325 1395.21 482.605 1395.21 484.12C1395.21 486.381 1394.82 488.152 1394.03 489.432C1393.26 490.691 1392.05 491.32 1390.41 491.32C1389.41 491.32 1388.56 491.032 1387.85 490.456C1387.15 489.88 1386.61 489.059 1386.25 487.992C1385.91 486.904 1385.74 485.613 1385.74 484.12C1385.74 481.859 1386.11 480.109 1386.86 478.872C1387.61 477.613 1388.79 476.984 1390.41 476.984ZM1390.41 479C1389.6 479 1389 479.427 1388.62 480.28C1388.26 481.133 1388.08 482.413 1388.08 484.12C1388.08 485.848 1388.26 487.149 1388.62 488.024C1389 488.877 1389.6 489.304 1390.41 489.304C1391.24 489.304 1391.86 488.877 1392.27 488.024C1392.67 487.171 1392.88 485.869 1392.88 484.12C1392.88 482.413 1392.67 481.133 1392.27 480.28C1391.86 479.427 1391.24 479 1390.41 479Z" fill="white"/>
<path d="M1244.95 561.28C1241.23 561.28 1238.67 558.84 1238.67 554.02C1238.67 549.2 1241.13 546.72 1244.99 546.72C1248.03 546.72 1250.11 548.48 1250.53 551.48H1248.43C1248.13 549.64 1246.75 548.58 1244.99 548.58C1242.43 548.58 1240.73 550.24 1240.73 553.98C1240.73 557.68 1242.51 559.42 1244.95 559.42C1246.89 559.42 1248.11 558.12 1248.43 556.32H1250.51C1250.03 559.22 1248.11 561.28 1244.95 561.28ZM1256.94 561.28C1254.02 561.28 1251.98 559.24 1251.98 556.18C1251.98 553.14 1254.02 551.1 1256.94 551.1C1259.88 551.1 1261.9 553.14 1261.9 556.18C1261.9 559.24 1259.88 561.28 1256.94 561.28ZM1253.98 556.18C1253.98 558.18 1255.18 559.52 1256.94 559.52C1258.72 559.52 1259.9 558.18 1259.9 556.18C1259.9 554.2 1258.72 552.86 1256.94 552.86C1255.18 552.86 1253.98 554.2 1253.98 556.18ZM1264.12 561V551.38H1265.84V552.64C1266.42 551.6 1267.58 551.1 1268.88 551.1C1271.24 551.1 1272.72 552.54 1272.72 555.2V561H1270.78V555.38C1270.78 553.66 1269.94 552.86 1268.52 552.86C1267.04 552.86 1266.06 553.88 1266.06 555.44V561H1264.12ZM1277.71 561L1273.71 551.38H1275.87L1278.83 558.92L1281.77 551.38H1283.93L1279.91 561H1277.71ZM1289.34 561.28C1286.46 561.28 1284.54 559.26 1284.54 556.14C1284.54 553.04 1286.46 551.1 1289.2 551.1C1292.06 551.1 1293.82 552.96 1293.82 555.9C1293.82 556.16 1293.8 556.42 1293.76 556.82H1286.46C1286.54 558.58 1287.62 559.64 1289.34 559.64C1290.48 559.64 1291.28 559.12 1291.66 558.26H1293.64C1293.04 560.12 1291.56 561.28 1289.34 561.28ZM1286.46 555.3H1291.86V555.2C1291.86 553.72 1290.9 552.66 1289.2 552.66C1287.58 552.66 1286.54 553.74 1286.46 555.3ZM1295.96 561V551.38H1297.68V552.94C1297.92 551.98 1298.64 551.38 1299.78 551.38H1301.62V553.08H1299.6C1298.4 553.08 1297.9 553.76 1297.9 555.06V561H1295.96ZM1306.43 561.28C1303.83 561.28 1302.29 560.24 1302.19 558.26H1304.19C1304.29 559.22 1305.07 559.7 1306.47 559.7C1307.75 559.7 1308.53 559.16 1308.53 558.28C1308.53 557.56 1307.99 557.14 1306.99 557.04L1305.45 556.88C1303.65 556.7 1302.51 555.7 1302.51 554.1C1302.51 552.26 1304.05 551.1 1306.41 551.1C1308.81 551.1 1310.29 552.1 1310.41 554.06H1308.47C1308.41 553.14 1307.65 552.68 1306.39 552.68C1305.19 552.68 1304.43 553.18 1304.43 554C1304.43 554.7 1304.95 555.08 1306.07 555.22L1307.63 555.4C1309.45 555.6 1310.49 556.62 1310.49 558.2C1310.49 560.08 1308.91 561.28 1306.43 561.28ZM1312.59 561V551.38H1314.53V561H1312.59ZM1312.47 549.44V547.14H1314.63V549.44H1312.47ZM1321.69 561.28C1318.77 561.28 1316.73 559.24 1316.73 556.18C1316.73 553.14 1318.77 551.1 1321.69 551.1C1324.63 551.1 1326.65 553.14 1326.65 556.18C1326.65 559.24 1324.63 561.28 1321.69 561.28ZM1318.73 556.18C1318.73 558.18 1319.93 559.52 1321.69 559.52C1323.47 559.52 1324.65 558.18 1324.65 556.18C1324.65 554.2 1323.47 552.86 1321.69 552.86C1319.93 552.86 1318.73 554.2 1318.73 556.18ZM1328.87 561V551.38H1330.59V552.64C1331.17 551.6 1332.33 551.1 1333.63 551.1C1335.99 551.1 1337.47 552.54 1337.47 555.2V561H1335.53V555.38C1335.53 553.66 1334.69 552.86 1333.27 552.86C1331.79 552.86 1330.81 553.88 1330.81 555.44V561H1328.87ZM1345.33 561V547H1351.33C1354.25 547 1355.97 548.52 1355.97 551.02C1355.97 553.42 1354.41 554.92 1351.75 555.06L1356.37 561H1353.87L1349.27 555.04H1347.33V561H1345.33ZM1347.33 553.22H1351.33C1352.99 553.22 1353.93 552.42 1353.93 551.02C1353.93 549.66 1352.99 548.88 1351.33 548.88H1347.33V553.22ZM1361.09 561.28C1358.87 561.28 1357.47 560.12 1357.47 558.28C1357.47 556.56 1358.63 555.32 1360.99 555.18L1363.91 555.02V554.48C1363.91 553.22 1363.29 552.7 1361.97 552.7C1360.69 552.7 1360.05 553.04 1359.89 554.06H1357.95C1358.17 552.08 1359.53 551.1 1362.11 551.1C1364.41 551.1 1365.75 552.26 1365.75 554.38V559.08C1365.75 559.3 1365.85 559.4 1366.07 559.4H1366.89V561H1365.33C1364.67 561 1364.29 560.64 1364.29 560V559.72C1363.73 560.7 1362.59 561.28 1361.09 561.28ZM1359.41 558.22C1359.41 559.1 1360.13 559.68 1361.31 559.68C1362.87 559.68 1363.91 558.78 1363.91 557.14V556.52L1361.23 556.72C1359.99 556.8 1359.41 557.44 1359.41 558.22ZM1372.04 561C1370.38 561 1369.66 560.34 1369.66 558.68V553.08H1367.14V551.38H1369.66V548.5H1371.6V551.38H1374.62V553.08H1371.6V558.3C1371.6 559 1371.88 559.3 1372.62 559.3H1374.62V561H1372.04ZM1380.43 561.28C1377.55 561.28 1375.63 559.26 1375.63 556.14C1375.63 553.04 1377.55 551.1 1380.29 551.1C1383.15 551.1 1384.91 552.96 1384.91 555.9C1384.91 556.16 1384.89 556.42 1384.85 556.82H1377.55C1377.63 558.58 1378.71 559.64 1380.43 559.64C1381.57 559.64 1382.37 559.12 1382.75 558.26H1384.73C1384.13 560.12 1382.65 561.28 1380.43 561.28ZM1377.55 555.3H1382.95V555.2C1382.95 553.72 1381.99 552.66 1380.29 552.66C1378.67 552.66 1377.63 553.74 1377.55 555.3Z" fill="#0D0D0D"/>
<rect x="1282.1" y="575.5" width="59" height="20" rx="10" stroke="#0B8900"/>
<path d="M1292.77 584.568H1295.55V585.562H1292.77V588.446H1291.76V585.562H1288.97V584.568H1291.76V581.67H1292.77V584.568ZM1296.76 590V588.726H1299.32V581.502H1297.55V580.2H1300.68V588.726H1303.2V590H1296.76ZM1304.83 590V588.082H1306.51V590H1304.83ZM1312.09 590.196C1309.43 590.196 1308.16 588.39 1308.16 585.1C1308.16 581.81 1309.43 580.004 1312.09 580.004C1314.75 580.004 1316.02 581.81 1316.02 585.1C1316.02 588.39 1314.75 590.196 1312.09 590.196ZM1309.57 585.1C1309.57 587.662 1310.35 588.992 1312.09 588.992C1313.81 588.992 1314.6 587.662 1314.6 585.1C1314.6 582.538 1313.81 581.208 1312.09 581.208C1310.35 581.208 1309.57 582.538 1309.57 585.1ZM1321.49 590.196C1319.29 590.196 1317.75 588.698 1317.75 585.674C1317.75 582.314 1319.06 580.2 1322.35 580.2H1324.22V581.474H1322.35C1320.08 581.474 1319.25 582.622 1319.14 584.778C1319.57 584.092 1320.47 583.602 1321.7 583.602C1323.68 583.602 1325.06 584.974 1325.06 586.864C1325.06 588.782 1323.61 590.196 1321.49 590.196ZM1319.27 586.906C1319.27 588.124 1320.16 588.964 1321.45 588.964C1322.74 588.964 1323.65 588.124 1323.65 586.906C1323.65 585.688 1322.74 584.848 1321.45 584.848C1320.16 584.848 1319.27 585.674 1319.27 586.906Z" fill="#0B8900"/>
<path fill-rule="evenodd" clip-rule="evenodd" d="M1328.6 585.625L1332.1 580L1335.6 585.625H1332.7V590H1331.49V585.625H1328.6Z" fill="#0B8900"/>
</g>
<defs>
<clipPath id="clip0_4638_122689">
<rect width="1278" height="432" fill="white" transform="translate(129 164)"/>
</clipPath>
</defs>
</svg>
