<svg width="1536" height="760" viewBox="0 0 1536 760" fill="none" xmlns="http://www.w3.org/2000/svg">
<g clip-path="url(#clip0_4638_122792)">
<path d="M679.213 187V172.456H673.933V170.2H686.893V172.456H681.613V187H679.213ZM687.156 187V175.456H689.22V177.328C689.508 176.176 690.372 175.456 691.74 175.456H693.948V177.496H691.524C690.084 177.496 689.484 178.312 689.484 179.872V187H687.156ZM695.682 187V175.456H698.01V187H695.682ZM695.538 173.128V170.368H698.13V173.128H695.538ZM704.848 187.336C702.184 187.336 700.504 185.944 700.504 183.736C700.504 181.672 701.896 180.184 704.728 180.016L708.232 179.824V179.176C708.232 177.664 707.488 177.04 705.904 177.04C704.368 177.04 703.6 177.448 703.408 178.672H701.08C701.344 176.296 702.976 175.12 706.072 175.12C708.832 175.12 710.44 176.512 710.44 179.056V184.696C710.44 184.96 710.56 185.08 710.824 185.08H711.808V187H709.936C709.144 187 708.688 186.568 708.688 185.8V185.464C708.016 186.64 706.648 187.336 704.848 187.336ZM702.832 183.664C702.832 184.72 703.696 185.416 705.112 185.416C706.984 185.416 708.232 184.336 708.232 182.368V181.624L705.016 181.864C703.528 181.96 702.832 182.728 702.832 183.664ZM716.35 187C714.718 187 714.022 186.376 714.022 184.816V170.2H716.35V184.096C716.35 184.696 716.566 184.96 717.166 184.96H718.63V187H716.35ZM732.499 187.336C728.347 187.336 725.851 185.248 725.827 181.864H728.299C728.323 183.904 729.907 185.2 732.499 185.2C734.803 185.2 736.267 184 736.267 182.176C736.267 180.712 735.331 179.824 733.411 179.56L731.203 179.248C727.987 178.816 726.379 177.232 726.379 174.712C726.379 171.76 728.755 169.864 732.379 169.864C736.147 169.864 738.451 171.688 738.523 174.616H736.051C735.979 172.984 734.587 171.976 732.379 171.976C730.267 171.976 728.875 172.984 728.875 174.568C728.875 175.936 729.859 176.704 731.923 176.992L734.011 177.28C737.131 177.712 738.763 179.32 738.763 182.032C738.763 185.248 736.387 187.336 732.499 187.336ZM745.792 187.336C742.984 187.336 741.256 185.608 741.256 182.416V175.456H743.584V182.2C743.584 184.264 744.544 185.224 746.224 185.224C747.976 185.224 749.104 183.976 749.104 182.128V175.456H751.432V187H749.368V185.68C748.6 186.808 747.28 187.336 745.792 187.336ZM760.853 187.336C759.053 187.336 757.589 186.616 756.845 185.344V187H754.781V170.2H757.109V176.848C757.853 175.744 759.197 175.12 760.853 175.12C764.141 175.12 766.397 177.568 766.397 181.216C766.397 184.888 764.141 187.336 760.853 187.336ZM757.061 181.216C757.061 183.616 758.429 185.224 760.517 185.224C762.605 185.224 763.997 183.616 763.997 181.216C763.997 178.84 762.605 177.232 760.517 177.232C758.429 177.232 757.061 178.84 757.061 181.216ZM773.127 187.336C770.007 187.336 768.159 186.088 768.039 183.712H770.439C770.559 184.864 771.495 185.44 773.175 185.44C774.711 185.44 775.647 184.792 775.647 183.736C775.647 182.872 774.999 182.368 773.799 182.248L771.951 182.056C769.791 181.84 768.423 180.64 768.423 178.72C768.423 176.512 770.271 175.12 773.103 175.12C775.983 175.12 777.759 176.32 777.903 178.672H775.575C775.503 177.568 774.591 177.016 773.079 177.016C771.639 177.016 770.727 177.616 770.727 178.6C770.727 179.44 771.351 179.896 772.695 180.064L774.567 180.28C776.751 180.52 777.999 181.744 777.999 183.64C777.999 185.896 776.103 187.336 773.127 187.336ZM785.494 187.336C782.038 187.336 779.806 184.768 779.806 181.264C779.806 177.664 782.158 175.12 785.638 175.12C788.566 175.12 790.558 176.824 790.822 179.248H788.446C788.23 178.168 787.27 177.232 785.614 177.232C783.55 177.232 782.206 178.792 782.206 181.216C782.206 183.688 783.574 185.224 785.566 185.224C787.126 185.224 788.254 184.312 788.494 182.968H790.87C790.558 185.272 788.638 187.336 785.494 187.336ZM793.014 187V175.456H795.078V177.328C795.366 176.176 796.23 175.456 797.598 175.456H799.806V177.496H797.382C795.942 177.496 795.342 178.312 795.342 179.872V187H793.014ZM801.54 187V175.456H803.868V187H801.54ZM801.396 173.128V170.368H803.988V173.128H801.396ZM807.37 191.32V175.456H809.434V177.088C810.178 175.84 811.642 175.12 813.442 175.12C816.73 175.12 818.986 177.568 818.986 181.216C818.986 184.888 816.73 187.336 813.442 187.336C811.786 187.336 810.442 186.712 809.698 185.584V191.32H807.37ZM809.65 181.216C809.65 183.616 811.018 185.224 813.106 185.224C815.194 185.224 816.586 183.616 816.586 181.216C816.586 178.84 815.194 177.232 813.106 177.232C811.018 177.232 809.65 178.84 809.65 181.216ZM825.674 187C823.682 187 822.818 186.208 822.818 184.216V177.496H819.794V175.456H822.818V172H825.146V175.456H828.77V177.496H825.146V183.76C825.146 184.6 825.482 184.96 826.37 184.96H828.77V187H825.674ZM831.007 187V175.456H833.335V187H831.007ZM830.863 173.128V170.368H833.455V173.128H830.863ZM841.927 187.336C838.423 187.336 835.975 184.888 835.975 181.216C835.975 177.568 838.423 175.12 841.927 175.12C845.455 175.12 847.879 177.568 847.879 181.216C847.879 184.888 845.455 187.336 841.927 187.336ZM838.375 181.216C838.375 183.616 839.815 185.224 841.927 185.224C844.063 185.224 845.479 183.616 845.479 181.216C845.479 178.84 844.063 177.232 841.927 177.232C839.815 177.232 838.375 178.84 838.375 181.216ZM850.543 187V175.456H852.607V176.968C853.303 175.72 854.695 175.12 856.255 175.12C859.087 175.12 860.863 176.848 860.863 180.04V187H858.535V180.256C858.535 178.192 857.527 177.232 855.823 177.232C854.047 177.232 852.871 178.456 852.871 180.328V187H850.543Z" fill="#0D0D0D"/>
<rect x="129.5" y="437.5" width="298.5" height="81" rx="15.5" fill="#CECCC9"/>
<rect x="129.5" y="437.5" width="298.5" height="81" rx="15.5" stroke="#BFBDBA"/>
<path d="M236.838 491V488.088H242.694V471.576H238.63V468.6H245.798V488.088H251.558V491H236.838ZM253.68 491V488.088H260.72C263.92 488.088 265.776 486.584 265.776 484.088C265.776 481.784 263.984 480.344 260.88 480.344H257.52V477.752L264.016 471.512H253.36V468.6H268.112V471.512L261.36 477.816H261.776C266.192 477.816 269.008 480.312 269.008 484.056C269.008 488.248 265.68 491 260.72 491H253.68ZM272.387 491V486.616H276.227V491H272.387ZM279.847 491V488.088H285.703V471.576H281.639V468.6H288.807V488.088H294.567V491H279.847ZM301.304 467.832C302.882 467.832 304.077 468.461 304.888 469.72C305.698 470.957 306.104 472.707 306.104 474.968C306.104 477.229 305.709 479 304.92 480.28C304.152 481.539 302.946 482.168 301.304 482.168C300.301 482.168 299.448 481.88 298.744 481.304C298.04 480.728 297.506 479.907 297.144 478.84C296.802 477.752 296.632 476.461 296.632 474.968C296.632 472.707 297.005 470.957 297.752 469.72C298.498 468.461 299.682 467.832 301.304 467.832ZM301.304 469.816C300.493 469.816 299.896 470.253 299.512 471.128C299.149 471.981 298.968 473.261 298.968 474.968C298.968 476.675 299.149 477.965 299.512 478.84C299.896 479.715 300.493 480.152 301.304 480.152C302.136 480.152 302.754 479.725 303.16 478.872C303.565 477.997 303.768 476.696 303.768 474.968C303.768 473.261 303.565 471.981 303.16 471.128C302.754 470.253 302.136 469.816 301.304 469.816ZM315.928 468.152L303.256 491H300.792L313.464 468.152H315.928ZM315.288 476.984C316.333 476.984 317.208 477.272 317.912 477.848C318.616 478.403 319.149 479.213 319.512 480.28C319.896 481.325 320.088 482.605 320.088 484.12C320.088 486.381 319.693 488.152 318.904 489.432C318.136 490.691 316.93 491.32 315.288 491.32C314.285 491.32 313.432 491.032 312.728 490.456C312.024 489.88 311.49 489.059 311.128 487.992C310.786 486.904 310.616 485.613 310.616 484.12C310.616 481.859 310.989 480.109 311.736 478.872C312.482 477.613 313.666 476.984 315.288 476.984ZM315.288 479C314.477 479 313.88 479.427 313.496 480.28C313.133 481.133 312.952 482.413 312.952 484.12C312.952 485.848 313.133 487.149 313.496 488.024C313.88 488.877 314.477 489.304 315.288 489.304C316.12 489.304 316.738 488.877 317.144 488.024C317.549 487.171 317.752 485.869 317.752 484.12C317.752 482.413 317.549 481.133 317.144 480.28C316.738 479.427 316.12 479 315.288 479Z" fill="#0D0D0D"/>
<rect x="448.5" y="407" width="299.5" height="112" rx="16" fill="#0D0D0D"/>
<path d="M556.838 491V488.088H562.694V471.576H558.63V468.6H565.798V488.088H571.558V491H556.838ZM576.385 485.848C576.385 480.824 577.185 477.528 580.993 473.88L583.457 471.512H571.393V468.6H587.649V471.512L583.713 475.224C580.705 478.136 579.617 480.6 579.617 485.688V491H576.385V485.848ZM587.137 491V486.616H590.977V491H587.137ZM603.279 491.448C597.871 491.448 594.767 488.632 594.767 484.664C594.767 482.072 596.399 479.896 598.895 479.096C596.655 478.328 595.407 476.344 595.407 474.2C595.407 470.648 598.511 468.152 603.279 468.152C608.079 468.152 611.183 470.648 611.183 474.2C611.183 476.344 609.935 478.328 607.695 479.096C610.191 479.896 611.823 482.072 611.823 484.664C611.823 488.632 608.719 491.448 603.279 491.448ZM597.967 484.568C597.967 487 599.855 488.76 603.279 488.76C606.735 488.76 608.623 487 608.623 484.568C608.623 482.104 606.607 480.472 603.279 480.472C599.983 480.472 597.967 482.104 597.967 484.568ZM598.607 474.392C598.607 476.472 600.399 477.848 603.279 477.848C606.159 477.848 607.983 476.472 607.983 474.392C607.983 472.312 606.255 470.84 603.279 470.84C600.335 470.84 598.607 472.312 598.607 474.392ZM619.398 467.832C620.976 467.832 622.171 468.461 622.982 469.72C623.792 470.957 624.198 472.707 624.198 474.968C624.198 477.229 623.803 479 623.014 480.28C622.246 481.539 621.04 482.168 619.398 482.168C618.395 482.168 617.542 481.88 616.838 481.304C616.134 480.728 615.6 479.907 615.238 478.84C614.896 477.752 614.726 476.461 614.726 474.968C614.726 472.707 615.099 470.957 615.846 469.72C616.592 468.461 617.776 467.832 619.398 467.832ZM619.398 469.816C618.587 469.816 617.99 470.253 617.606 471.128C617.243 471.981 617.062 473.261 617.062 474.968C617.062 476.675 617.243 477.965 617.606 478.84C617.99 479.715 618.587 480.152 619.398 480.152C620.23 480.152 620.848 479.725 621.254 478.872C621.659 477.997 621.862 476.696 621.862 474.968C621.862 473.261 621.659 471.981 621.254 471.128C620.848 470.253 620.23 469.816 619.398 469.816ZM634.022 468.152L621.35 491H618.886L631.558 468.152H634.022ZM633.382 476.984C634.427 476.984 635.302 477.272 636.006 477.848C636.71 478.403 637.243 479.213 637.606 480.28C637.99 481.325 638.182 482.605 638.182 484.12C638.182 486.381 637.787 488.152 636.998 489.432C636.23 490.691 635.024 491.32 633.382 491.32C632.379 491.32 631.526 491.032 630.822 490.456C630.118 489.88 629.584 489.059 629.222 487.992C628.88 486.904 628.71 485.613 628.71 484.12C628.71 481.859 629.083 480.109 629.83 478.872C630.576 477.613 631.76 476.984 633.382 476.984ZM633.382 479C632.571 479 631.974 479.427 631.59 480.28C631.227 481.133 631.046 482.413 631.046 484.12C631.046 485.848 631.227 487.149 631.59 488.024C631.974 488.877 632.571 489.304 633.382 489.304C634.214 489.304 634.832 488.877 635.238 488.024C635.643 487.171 635.846 485.869 635.846 484.12C635.846 482.413 635.643 481.133 635.238 480.28C634.832 479.427 634.214 479 633.382 479Z" fill="white"/>
<path d="M371.852 561.28C368.132 561.28 365.572 558.84 365.572 554.02C365.572 549.2 368.032 546.72 371.892 546.72C374.932 546.72 377.012 548.48 377.432 551.48H375.332C375.032 549.64 373.652 548.58 371.892 548.58C369.332 548.58 367.632 550.24 367.632 553.98C367.632 557.68 369.412 559.42 371.852 559.42C373.792 559.42 375.012 558.12 375.332 556.32H377.412C376.932 559.22 375.012 561.28 371.852 561.28ZM383.841 561.28C380.921 561.28 378.881 559.24 378.881 556.18C378.881 553.14 380.921 551.1 383.841 551.1C386.781 551.1 388.801 553.14 388.801 556.18C388.801 559.24 386.781 561.28 383.841 561.28ZM380.881 556.18C380.881 558.18 382.081 559.52 383.841 559.52C385.621 559.52 386.801 558.18 386.801 556.18C386.801 554.2 385.621 552.86 383.841 552.86C382.081 552.86 380.881 554.2 380.881 556.18ZM391.021 561V551.38H392.741V552.64C393.321 551.6 394.481 551.1 395.781 551.1C398.141 551.1 399.621 552.54 399.621 555.2V561H397.681V555.38C397.681 553.66 396.841 552.86 395.421 552.86C393.941 552.86 392.961 553.88 392.961 555.44V561H391.021ZM404.615 561L400.615 551.38H402.775L405.735 558.92L408.675 551.38H410.835L406.815 561H404.615ZM416.245 561.28C413.365 561.28 411.445 559.26 411.445 556.14C411.445 553.04 413.365 551.1 416.105 551.1C418.965 551.1 420.725 552.96 420.725 555.9C420.725 556.16 420.705 556.42 420.665 556.82H413.365C413.445 558.58 414.525 559.64 416.245 559.64C417.385 559.64 418.185 559.12 418.565 558.26H420.545C419.945 560.12 418.465 561.28 416.245 561.28ZM413.365 555.3H418.765V555.2C418.765 553.72 417.805 552.66 416.105 552.66C414.485 552.66 413.445 553.74 413.365 555.3ZM422.862 561V551.38H424.582V552.94C424.822 551.98 425.542 551.38 426.682 551.38H428.522V553.08H426.502C425.302 553.08 424.802 553.76 424.802 555.06V561H422.862ZM433.327 561.28C430.727 561.28 429.187 560.24 429.087 558.26H431.087C431.187 559.22 431.967 559.7 433.367 559.7C434.647 559.7 435.427 559.16 435.427 558.28C435.427 557.56 434.887 557.14 433.887 557.04L432.347 556.88C430.547 556.7 429.407 555.7 429.407 554.1C429.407 552.26 430.947 551.1 433.307 551.1C435.707 551.1 437.187 552.1 437.307 554.06H435.367C435.307 553.14 434.547 552.68 433.287 552.68C432.087 552.68 431.327 553.18 431.327 554C431.327 554.7 431.847 555.08 432.967 555.22L434.527 555.4C436.347 555.6 437.387 556.62 437.387 558.2C437.387 560.08 435.807 561.28 433.327 561.28ZM439.494 561V551.38H441.434V561H439.494ZM439.374 549.44V547.14H441.534V549.44H439.374ZM448.594 561.28C445.674 561.28 443.634 559.24 443.634 556.18C443.634 553.14 445.674 551.1 448.594 551.1C451.534 551.1 453.554 553.14 453.554 556.18C453.554 559.24 451.534 561.28 448.594 561.28ZM445.634 556.18C445.634 558.18 446.834 559.52 448.594 559.52C450.374 559.52 451.554 558.18 451.554 556.18C451.554 554.2 450.374 552.86 448.594 552.86C446.834 552.86 445.634 554.2 445.634 556.18ZM455.773 561V551.38H457.493V552.64C458.073 551.6 459.233 551.1 460.533 551.1C462.893 551.1 464.373 552.54 464.373 555.2V561H462.433V555.38C462.433 553.66 461.593 552.86 460.173 552.86C458.693 552.86 457.713 553.88 457.713 555.44V561H455.773ZM472.234 561V547H478.234C481.154 547 482.874 548.52 482.874 551.02C482.874 553.42 481.314 554.92 478.654 555.06L483.274 561H480.774L476.174 555.04H474.234V561H472.234ZM474.234 553.22H478.234C479.894 553.22 480.834 552.42 480.834 551.02C480.834 549.66 479.894 548.88 478.234 548.88H474.234V553.22ZM487.992 561.28C485.772 561.28 484.372 560.12 484.372 558.28C484.372 556.56 485.532 555.32 487.892 555.18L490.812 555.02V554.48C490.812 553.22 490.192 552.7 488.872 552.7C487.592 552.7 486.952 553.04 486.792 554.06H484.852C485.072 552.08 486.432 551.1 489.012 551.1C491.312 551.1 492.652 552.26 492.652 554.38V559.08C492.652 559.3 492.752 559.4 492.972 559.4H493.792V561H492.232C491.572 561 491.192 560.64 491.192 560V559.72C490.632 560.7 489.492 561.28 487.992 561.28ZM486.312 558.22C486.312 559.1 487.032 559.68 488.212 559.68C489.772 559.68 490.812 558.78 490.812 557.14V556.52L488.132 556.72C486.892 556.8 486.312 557.44 486.312 558.22ZM498.942 561C497.282 561 496.562 560.34 496.562 558.68V553.08H494.042V551.38H496.562V548.5H498.502V551.38H501.522V553.08H498.502V558.3C498.502 559 498.782 559.3 499.522 559.3H501.522V561H498.942ZM507.331 561.28C504.451 561.28 502.531 559.26 502.531 556.14C502.531 553.04 504.451 551.1 507.191 551.1C510.051 551.1 511.811 552.96 511.811 555.9C511.811 556.16 511.791 556.42 511.751 556.82H504.451C504.531 558.58 505.611 559.64 507.331 559.64C508.471 559.64 509.271 559.12 509.651 558.26H511.631C511.031 560.12 509.551 561.28 507.331 561.28ZM504.451 555.3H509.851V555.2C509.851 553.72 508.891 552.66 507.191 552.66C505.571 552.66 504.531 553.74 504.451 555.3Z" fill="#0D0D0D"/>
<rect x="410" y="575.5" width="57" height="20" rx="10" stroke="#0B8900"/>
<path d="M420.789 584.568H423.575V585.562H420.789V588.446H419.781V585.562H416.995V584.568H419.781V581.67H420.789V584.568ZM424.783 590V588.726H427.345V581.502H425.567V580.2H428.703V588.726H431.223V590H424.783ZM432.85 590V588.082H434.53V590H432.85ZM436.352 590V588.726H439.432C440.832 588.726 441.644 588.068 441.644 586.976C441.644 585.968 440.86 585.338 439.502 585.338H438.032V584.204L440.874 581.474H436.212V580.2H442.666V581.474L439.712 584.232H439.894C441.826 584.232 443.058 585.324 443.058 586.962C443.058 588.796 441.602 590 439.432 590H436.352ZM444.38 590V588.726H447.46C448.664 588.726 449.49 587.998 449.49 586.92C449.49 585.856 448.734 585.128 447.46 585.128H444.618V580.2H450.47V581.474H445.976V583.896H447.614C449.602 583.896 450.904 585.086 450.904 586.864C450.904 588.726 449.532 590 447.46 590H444.38Z" fill="#0B8900"/>
<path fill-rule="evenodd" clip-rule="evenodd" d="M454.5 585.625L458 580L461.5 585.625H458.606V590H457.394V585.625H454.5Z" fill="#0B8900"/>
<rect x="788.5" y="255.5" width="298.5" height="263" rx="15.5" fill="#CECCC9"/>
<rect x="788.5" y="255.5" width="298.5" height="263" rx="15.5" stroke="#BFBDBA"/>
<path d="M918.114 491V484.344H906.114V481.528L916.898 468.6H921.218V481.528H924.898V484.344H921.218V491H918.114ZM909.57 481.528H918.114V471.288L909.57 481.528ZM926.871 487.064C926.871 482.936 928.791 481.016 932.375 479.992L935.511 479.096C937.975 478.392 939.127 477.208 939.127 475.192C939.127 472.984 937.559 471.512 935.159 471.512H927.959V468.6H935.159C939.415 468.6 942.359 471.192 942.359 475.192C942.359 478.424 940.183 480.632 937.047 481.592L933.207 482.744C930.999 483.416 930.103 484.504 930.103 486.52V488.088H942.167V491H926.871V487.064ZM949.631 467.832C951.21 467.832 952.405 468.461 953.215 469.72C954.026 470.957 954.431 472.707 954.431 474.968C954.431 477.229 954.037 479 953.247 480.28C952.479 481.539 951.274 482.168 949.631 482.168C948.629 482.168 947.775 481.88 947.071 481.304C946.367 480.728 945.834 479.907 945.471 478.84C945.13 477.752 944.959 476.461 944.959 474.968C944.959 472.707 945.333 470.957 946.079 469.72C946.826 468.461 948.01 467.832 949.631 467.832ZM949.631 469.816C948.821 469.816 948.223 470.253 947.839 471.128C947.477 471.981 947.295 473.261 947.295 474.968C947.295 476.675 947.477 477.965 947.839 478.84C948.223 479.715 948.821 480.152 949.631 480.152C950.463 480.152 951.082 479.725 951.487 478.872C951.893 477.997 952.095 476.696 952.095 474.968C952.095 473.261 951.893 471.981 951.487 471.128C951.082 470.253 950.463 469.816 949.631 469.816ZM964.255 468.152L951.583 491H949.119L961.791 468.152H964.255ZM963.615 476.984C964.661 476.984 965.535 477.272 966.239 477.848C966.943 478.403 967.477 479.213 967.839 480.28C968.223 481.325 968.415 482.605 968.415 484.12C968.415 486.381 968.021 488.152 967.231 489.432C966.463 490.691 965.258 491.32 963.615 491.32C962.613 491.32 961.759 491.032 961.055 490.456C960.351 489.88 959.818 489.059 959.455 487.992C959.114 486.904 958.943 485.613 958.943 484.12C958.943 481.859 959.317 480.109 960.063 478.872C960.81 477.613 961.994 476.984 963.615 476.984ZM963.615 479C962.805 479 962.207 479.427 961.823 480.28C961.461 481.133 961.279 482.413 961.279 484.12C961.279 485.848 961.461 487.149 961.823 488.024C962.207 488.877 962.805 489.304 963.615 489.304C964.447 489.304 965.066 488.877 965.471 488.024C965.877 487.171 966.079 485.869 966.079 484.12C966.079 482.413 965.877 481.133 965.471 480.28C965.066 479.427 964.447 479 963.615 479Z" fill="#0D0D0D"/>
<rect x="1107.5" y="315" width="299.5" height="204" rx="16" fill="#0D0D0D"/>
<path d="M1213.59 491V488.088H1220.63C1223.83 488.088 1225.69 486.584 1225.69 484.088C1225.69 481.784 1223.9 480.344 1220.79 480.344H1217.43V477.752L1223.93 471.512H1213.27V468.6H1228.03V471.512L1221.27 477.816H1221.69C1226.11 477.816 1228.92 480.312 1228.92 484.056C1228.92 488.248 1225.59 491 1220.63 491H1213.59ZM1232.09 487.064C1232.09 482.936 1234.01 481.016 1237.59 479.992L1240.73 479.096C1243.19 478.392 1244.35 477.208 1244.35 475.192C1244.35 472.984 1242.78 471.512 1240.38 471.512H1233.18V468.6H1240.38C1244.63 468.6 1247.58 471.192 1247.58 475.192C1247.58 478.424 1245.4 480.632 1242.27 481.592L1238.43 482.744C1236.22 483.416 1235.32 484.504 1235.32 486.52V488.088H1247.39V491H1232.09V487.064ZM1251.26 491V486.616H1255.1V491H1251.26ZM1259.02 491V488.088H1266.06C1268.81 488.088 1270.7 486.424 1270.7 483.96C1270.7 481.528 1268.97 479.864 1266.06 479.864H1259.56V468.6H1272.94V471.512H1262.66V477.048H1266.41C1270.95 477.048 1273.93 479.768 1273.93 483.832C1273.93 488.088 1270.79 491 1266.06 491H1259.02ZM1281.21 467.832C1282.79 467.832 1283.98 468.461 1284.79 469.72C1285.6 470.957 1286.01 472.707 1286.01 474.968C1286.01 477.229 1285.62 479 1284.83 480.28C1284.06 481.539 1282.85 482.168 1281.21 482.168C1280.21 482.168 1279.35 481.88 1278.65 481.304C1277.95 480.728 1277.41 479.907 1277.05 478.84C1276.71 477.752 1276.54 476.461 1276.54 474.968C1276.54 472.707 1276.91 470.957 1277.66 469.72C1278.4 468.461 1279.59 467.832 1281.21 467.832ZM1281.21 469.816C1280.4 469.816 1279.8 470.253 1279.42 471.128C1279.06 471.981 1278.87 473.261 1278.87 474.968C1278.87 476.675 1279.06 477.965 1279.42 478.84C1279.8 479.715 1280.4 480.152 1281.21 480.152C1282.04 480.152 1282.66 479.725 1283.07 478.872C1283.47 477.997 1283.67 476.696 1283.67 474.968C1283.67 473.261 1283.47 471.981 1283.07 471.128C1282.66 470.253 1282.04 469.816 1281.21 469.816ZM1295.83 468.152L1283.16 491H1280.7L1293.37 468.152H1295.83ZM1295.19 476.984C1296.24 476.984 1297.11 477.272 1297.82 477.848C1298.52 478.403 1299.06 479.213 1299.42 480.28C1299.8 481.325 1299.99 482.605 1299.99 484.12C1299.99 486.381 1299.6 488.152 1298.81 489.432C1298.04 490.691 1296.84 491.32 1295.19 491.32C1294.19 491.32 1293.34 491.032 1292.63 490.456C1291.93 489.88 1291.4 489.059 1291.03 487.992C1290.69 486.904 1290.52 485.613 1290.52 484.12C1290.52 481.859 1290.9 480.109 1291.64 478.872C1292.39 477.613 1293.57 476.984 1295.19 476.984ZM1295.19 479C1294.38 479 1293.79 479.427 1293.4 480.28C1293.04 481.133 1292.86 482.413 1292.86 484.12C1292.86 485.848 1293.04 487.149 1293.4 488.024C1293.79 488.877 1294.38 489.304 1295.19 489.304C1296.03 489.304 1296.64 488.877 1297.05 488.024C1297.46 487.171 1297.66 485.869 1297.66 484.12C1297.66 482.413 1297.46 481.133 1297.05 480.28C1296.64 479.427 1296.03 479 1295.19 479Z" fill="white"/>
<path d="M1041.58 561V547H1047.46C1050 547 1051.6 548.34 1051.6 550.46C1051.6 551.84 1050.84 553.02 1049.7 553.58C1051.08 554.08 1052 555.3 1052 556.96C1052 559.34 1050.42 561 1047.72 561H1041.58ZM1043.58 559.16H1047.44C1049.04 559.16 1049.96 558.28 1049.96 556.8C1049.96 555.32 1049.08 554.5 1047.44 554.5H1043.58V559.16ZM1043.58 552.78H1047.18C1048.7 552.78 1049.56 552.04 1049.56 550.78C1049.56 549.5 1048.68 548.84 1047.18 548.84H1043.58V552.78ZM1058.92 561.28C1056 561.28 1053.96 559.24 1053.96 556.18C1053.96 553.14 1056 551.1 1058.92 551.1C1061.86 551.1 1063.88 553.14 1063.88 556.18C1063.88 559.24 1061.86 561.28 1058.92 561.28ZM1055.96 556.18C1055.96 558.18 1057.16 559.52 1058.92 559.52C1060.7 559.52 1061.88 558.18 1061.88 556.18C1061.88 554.2 1060.7 552.86 1058.92 552.86C1057.16 552.86 1055.96 554.2 1055.96 556.18ZM1069.69 561.28C1067.35 561.28 1065.91 559.84 1065.91 557.18V551.38H1067.85V557C1067.85 558.72 1068.65 559.52 1070.05 559.52C1071.51 559.52 1072.45 558.48 1072.45 556.94V551.38H1074.39V561H1072.67V559.9C1072.03 560.84 1070.93 561.28 1069.69 561.28ZM1077.17 561V551.38H1078.89V552.64C1079.47 551.6 1080.63 551.1 1081.93 551.1C1084.29 551.1 1085.77 552.54 1085.77 555.2V561H1083.83V555.38C1083.83 553.66 1082.99 552.86 1081.57 552.86C1080.09 552.86 1079.11 553.88 1079.11 555.44V561H1077.17ZM1092.57 561.28C1089.69 561.28 1087.83 559.14 1087.83 556.22C1087.83 553.22 1089.79 551.1 1092.69 551.1C1095.13 551.1 1096.79 552.52 1097.01 554.54H1095.03C1094.85 553.64 1094.05 552.86 1092.67 552.86C1090.95 552.86 1089.83 554.16 1089.83 556.18C1089.83 558.24 1090.97 559.52 1092.63 559.52C1093.93 559.52 1094.87 558.76 1095.07 557.64H1097.05C1096.79 559.56 1095.19 561.28 1092.57 561.28ZM1103.11 561.28C1100.23 561.28 1098.31 559.26 1098.31 556.14C1098.31 553.04 1100.23 551.1 1102.97 551.1C1105.83 551.1 1107.59 552.96 1107.59 555.9C1107.59 556.16 1107.57 556.42 1107.53 556.82H1100.23C1100.31 558.58 1101.39 559.64 1103.11 559.64C1104.25 559.64 1105.05 559.12 1105.43 558.26H1107.41C1106.81 560.12 1105.33 561.28 1103.11 561.28ZM1100.23 555.3H1105.63V555.2C1105.63 553.72 1104.67 552.66 1102.97 552.66C1101.35 552.66 1100.31 553.74 1100.23 555.3ZM1114.87 561V547H1120.87C1123.79 547 1125.51 548.52 1125.51 551.02C1125.51 553.42 1123.95 554.92 1121.29 555.06L1125.91 561H1123.41L1118.81 555.04H1116.87V561H1114.87ZM1116.87 553.22H1120.87C1122.53 553.22 1123.47 552.42 1123.47 551.02C1123.47 549.66 1122.53 548.88 1120.87 548.88H1116.87V553.22ZM1130.62 561.28C1128.4 561.28 1127 560.12 1127 558.28C1127 556.56 1128.16 555.32 1130.52 555.18L1133.44 555.02V554.48C1133.44 553.22 1132.82 552.7 1131.5 552.7C1130.22 552.7 1129.58 553.04 1129.42 554.06H1127.48C1127.7 552.08 1129.06 551.1 1131.64 551.1C1133.94 551.1 1135.28 552.26 1135.28 554.38V559.08C1135.28 559.3 1135.38 559.4 1135.6 559.4H1136.42V561H1134.86C1134.2 561 1133.82 560.64 1133.82 560V559.72C1133.26 560.7 1132.12 561.28 1130.62 561.28ZM1128.94 558.22C1128.94 559.1 1129.66 559.68 1130.84 559.68C1132.4 559.68 1133.44 558.78 1133.44 557.14V556.52L1130.76 556.72C1129.52 556.8 1128.94 557.44 1128.94 558.22ZM1141.57 561C1139.91 561 1139.19 560.34 1139.19 558.68V553.08H1136.67V551.38H1139.19V548.5H1141.13V551.38H1144.15V553.08H1141.13V558.3C1141.13 559 1141.41 559.3 1142.15 559.3H1144.15V561H1141.57ZM1149.96 561.28C1147.08 561.28 1145.16 559.26 1145.16 556.14C1145.16 553.04 1147.08 551.1 1149.82 551.1C1152.68 551.1 1154.44 552.96 1154.44 555.9C1154.44 556.16 1154.42 556.42 1154.38 556.82H1147.08C1147.16 558.58 1148.24 559.64 1149.96 559.64C1151.1 559.64 1151.9 559.12 1152.28 558.26H1154.26C1153.66 560.12 1152.18 561.28 1149.96 561.28ZM1147.08 555.3H1152.48V555.2C1152.48 553.72 1151.52 552.66 1149.82 552.66C1148.2 552.66 1147.16 553.74 1147.08 555.3Z" fill="#0D0D0D"/>
<rect x="1070" y="575.5" width="55" height="20" rx="10" stroke="#0B8900"/>
<path d="M1076.28 587.004V585.702H1080.54V587.004H1076.28ZM1081.03 590V588.726H1083.59V581.502H1081.82V580.2H1084.95V588.726H1087.47V590H1081.03ZM1089.1 590V588.082H1090.78V590H1089.1ZM1093.14 588.278C1093.14 586.472 1093.98 585.632 1095.54 585.184L1096.92 584.792C1097.99 584.484 1098.5 583.966 1098.5 583.084C1098.5 582.118 1097.81 581.474 1096.76 581.474H1093.61V580.2H1096.76C1098.62 580.2 1099.91 581.334 1099.91 583.084C1099.91 584.498 1098.96 585.464 1097.59 585.884L1095.91 586.388C1094.94 586.682 1094.55 587.158 1094.55 588.04V588.726H1099.83V590H1093.14V588.278ZM1105.02 580.004C1107.21 580.004 1108.75 581.502 1108.75 584.526C1108.75 587.886 1107.45 590 1104.16 590H1102.29V588.726H1104.16C1106.43 588.726 1107.26 587.578 1107.37 585.422C1106.93 586.108 1106.04 586.598 1104.81 586.598C1102.83 586.598 1101.45 585.226 1101.45 583.336C1101.45 581.418 1102.9 580.004 1105.02 580.004ZM1102.86 583.294C1102.86 584.512 1103.77 585.352 1105.06 585.352C1106.35 585.352 1107.24 584.526 1107.24 583.294C1107.24 582.076 1106.35 581.236 1105.06 581.236C1103.77 581.236 1102.86 582.076 1102.86 583.294Z" fill="#0B8900"/>
<path fill-rule="evenodd" clip-rule="evenodd" d="M1119.5 584.875L1116 590.5L1112.5 584.875H1115.39V580.5H1116.61V584.875H1119.5Z" fill="#0B8900"/>
</g>
<defs>
<clipPath id="clip0_4638_122792">
<rect width="1278" height="432" fill="white" transform="translate(129 164)"/>
</clipPath>
</defs>
</svg>
