<svg width="1278" height="432" viewBox="0 0 1278 432" fill="none" xmlns="http://www.w3.org/2000/svg">
<g clip-path="url(#clip0_6624_24053)">
<path d="M555.526 6.728V23H553.174V6.728H555.526ZM547.942 7.808V5.648H560.734V7.808H547.942ZM567.765 11.168V13.232H566.757C565.685 13.232 564.837 13.544 564.213 14.168C563.605 14.776 563.301 15.648 563.301 16.784V23H561.045V11.288H563.157L563.349 13.64H563.133C563.293 12.872 563.677 12.248 564.285 11.768C564.893 11.272 565.653 11.024 566.565 11.024C566.773 11.024 566.965 11.04 567.141 11.072C567.333 11.088 567.541 11.12 567.765 11.168ZM569.641 23V11.264H571.897V23H569.641ZM570.745 8.48C570.345 8.48 569.993 8.336 569.689 8.048C569.401 7.744 569.257 7.392 569.257 6.992C569.257 6.576 569.401 6.224 569.689 5.936C569.993 5.648 570.345 5.504 570.745 5.504C571.161 5.504 571.513 5.648 571.801 5.936C572.089 6.224 572.233 6.576 572.233 6.992C572.233 7.392 572.089 7.744 571.801 8.048C571.513 8.336 571.161 8.48 570.745 8.48ZM578.364 23.288C577.116 23.288 576.132 22.96 575.412 22.304C574.708 21.648 574.356 20.792 574.356 19.736C574.356 18.664 574.74 17.808 575.508 17.168C576.276 16.512 577.348 16.128 578.724 16.016L582.42 15.728V15.392C582.42 14.736 582.3 14.216 582.06 13.832C581.82 13.432 581.492 13.152 581.076 12.992C580.66 12.816 580.188 12.728 579.66 12.728C578.716 12.728 577.98 12.928 577.452 13.328C576.94 13.712 576.684 14.264 576.684 14.984H574.716C574.716 14.168 574.924 13.456 575.34 12.848C575.756 12.24 576.34 11.768 577.092 11.432C577.86 11.096 578.748 10.928 579.756 10.928C580.732 10.928 581.58 11.104 582.3 11.456C583.036 11.792 583.604 12.312 584.004 13.016C584.42 13.704 584.628 14.576 584.628 15.632V23H582.708L582.468 21.104C582.164 21.776 581.636 22.312 580.884 22.712C580.148 23.096 579.308 23.288 578.364 23.288ZM579.012 21.536C580.084 21.536 580.924 21.216 581.532 20.576C582.14 19.92 582.444 19.04 582.444 17.936V17.312L579.444 17.552C578.452 17.648 577.732 17.88 577.284 18.248C576.852 18.616 576.636 19.088 576.636 19.664C576.636 20.288 576.844 20.76 577.26 21.08C577.692 21.384 578.276 21.536 579.012 21.536ZM589.817 23H587.561V5.336H589.817V23ZM598.596 10.328C598.596 9.336 598.844 8.464 599.34 7.712C599.836 6.96 600.532 6.376 601.428 5.96C602.34 5.544 603.388 5.336 604.572 5.336C605.676 5.336 606.636 5.536 607.452 5.936C608.284 6.32 608.932 6.872 609.396 7.592C609.876 8.312 610.148 9.176 610.212 10.184H607.836C607.772 9.32 607.452 8.648 606.876 8.168C606.3 7.688 605.524 7.448 604.548 7.448C603.46 7.448 602.588 7.704 601.932 8.216C601.276 8.712 600.948 9.392 600.948 10.256C600.948 10.96 601.148 11.528 601.548 11.96C601.948 12.376 602.556 12.68 603.372 12.872L606.228 13.544C607.652 13.864 608.716 14.416 609.42 15.2C610.14 15.968 610.5 16.96 610.5 18.176C610.5 19.216 610.244 20.12 609.732 20.888C609.236 21.656 608.524 22.248 607.596 22.664C606.684 23.08 605.612 23.288 604.38 23.288C603.212 23.288 602.18 23.096 601.284 22.712C600.404 22.312 599.708 21.752 599.196 21.032C598.7 20.296 598.42 19.44 598.356 18.464H600.756C600.772 19.296 601.108 19.96 601.764 20.456C602.42 20.936 603.292 21.176 604.38 21.176C605.532 21.176 606.444 20.92 607.116 20.408C607.804 19.896 608.148 19.216 608.148 18.368C608.148 17.68 607.956 17.12 607.572 16.688C607.188 16.256 606.58 15.944 605.748 15.752L602.892 15.104C601.484 14.784 600.412 14.224 599.676 13.424C598.956 12.608 598.596 11.576 598.596 10.328ZM620.944 11.264H623.176V23H621.16L620.92 21.224C620.584 21.832 620.056 22.328 619.336 22.712C618.616 23.096 617.824 23.288 616.96 23.288C615.6 23.288 614.544 22.864 613.792 22.016C613.056 21.152 612.688 20 612.688 18.56V11.264H614.944V17.816C614.944 19.064 615.192 19.96 615.688 20.504C616.2 21.032 616.888 21.296 617.752 21.296C618.792 21.296 619.584 20.976 620.128 20.336C620.672 19.68 620.944 18.72 620.944 17.456V11.264ZM628.249 23H626.209V5.336H628.465V13.28C628.849 12.512 629.417 11.928 630.169 11.528C630.921 11.128 631.777 10.928 632.737 10.928C633.857 10.928 634.817 11.2 635.617 11.744C636.417 12.272 637.033 13.008 637.465 13.952C637.897 14.896 638.113 15.976 638.113 17.192C638.113 18.36 637.889 19.408 637.441 20.336C636.993 21.264 636.353 21.992 635.521 22.52C634.705 23.032 633.729 23.288 632.593 23.288C631.681 23.288 630.849 23.08 630.097 22.664C629.361 22.248 628.801 21.648 628.417 20.864L628.249 23ZM628.489 17.096C628.489 17.912 628.633 18.632 628.921 19.256C629.225 19.88 629.649 20.368 630.193 20.72C630.753 21.072 631.417 21.248 632.185 21.248C632.953 21.248 633.609 21.072 634.153 20.72C634.697 20.368 635.113 19.88 635.401 19.256C635.705 18.632 635.857 17.912 635.857 17.096C635.857 16.296 635.705 15.592 635.401 14.984C635.113 14.36 634.697 13.872 634.153 13.52C633.609 13.152 632.953 12.968 632.185 12.968C631.417 12.968 630.753 13.144 630.193 13.496C629.649 13.848 629.225 14.336 628.921 14.96C628.633 15.568 628.489 16.28 628.489 17.096ZM639.4 19.592H641.56C641.56 20.184 641.776 20.656 642.208 21.008C642.64 21.344 643.224 21.512 643.96 21.512C644.76 21.512 645.376 21.36 645.808 21.056C646.24 20.736 646.456 20.312 646.456 19.784C646.456 19.4 646.336 19.08 646.096 18.824C645.872 18.568 645.456 18.36 644.848 18.2L642.784 17.72C641.744 17.464 640.968 17.072 640.456 16.544C639.96 16.016 639.712 15.32 639.712 14.456C639.712 13.736 639.896 13.112 640.264 12.584C640.648 12.056 641.168 11.648 641.824 11.36C642.496 11.072 643.264 10.928 644.128 10.928C644.992 10.928 645.736 11.08 646.36 11.384C647 11.688 647.496 12.112 647.848 12.656C648.216 13.2 648.408 13.848 648.424 14.6H646.264C646.248 13.992 646.048 13.52 645.664 13.184C645.28 12.848 644.744 12.68 644.056 12.68C643.352 12.68 642.808 12.832 642.424 13.136C642.04 13.44 641.848 13.856 641.848 14.384C641.848 15.168 642.424 15.704 643.576 15.992L645.64 16.496C646.632 16.72 647.376 17.088 647.872 17.6C648.368 18.096 648.616 18.776 648.616 19.64C648.616 20.376 648.416 21.024 648.016 21.584C647.616 22.128 647.064 22.552 646.36 22.856C645.672 23.144 644.856 23.288 643.912 23.288C642.536 23.288 641.44 22.952 640.624 22.28C639.808 21.608 639.4 20.712 639.4 19.592ZM650.109 17.144C650.109 15.912 650.349 14.832 650.829 13.904C651.325 12.976 652.005 12.248 652.869 11.72C653.733 11.192 654.733 10.928 655.869 10.928C657.341 10.928 658.565 11.32 659.541 12.104C660.517 12.888 661.101 13.928 661.293 15.224H659.037C658.845 14.472 658.469 13.904 657.909 13.52C657.349 13.136 656.693 12.944 655.941 12.944C655.237 12.944 654.613 13.12 654.069 13.472C653.525 13.808 653.101 14.288 652.797 14.912C652.493 15.536 652.341 16.272 652.341 17.12C652.341 17.968 652.485 18.704 652.773 19.328C653.061 19.936 653.469 20.416 653.997 20.768C654.525 21.104 655.141 21.272 655.845 21.272C656.645 21.272 657.333 21.072 657.909 20.672C658.485 20.272 658.869 19.728 659.061 19.04H661.317C661.173 19.888 660.845 20.632 660.333 21.272C659.837 21.896 659.197 22.392 658.413 22.76C657.645 23.112 656.789 23.288 655.845 23.288C654.693 23.288 653.685 23.032 652.821 22.52C651.973 22.008 651.309 21.296 650.829 20.384C650.349 19.456 650.109 18.376 650.109 17.144ZM670.178 11.168V13.232H669.17C668.098 13.232 667.25 13.544 666.626 14.168C666.018 14.776 665.714 15.648 665.714 16.784V23H663.458V11.288H665.57L665.762 13.64H665.546C665.706 12.872 666.09 12.248 666.698 11.768C667.306 11.272 668.066 11.024 668.978 11.024C669.186 11.024 669.378 11.04 669.554 11.072C669.746 11.088 669.954 11.12 670.178 11.168ZM672.054 23V11.264H674.31V23H672.054ZM673.158 8.48C672.758 8.48 672.406 8.336 672.102 8.048C671.814 7.744 671.67 7.392 671.67 6.992C671.67 6.576 671.814 6.224 672.102 5.936C672.406 5.648 672.758 5.504 673.158 5.504C673.574 5.504 673.926 5.648 674.214 5.936C674.502 6.224 674.646 6.576 674.646 6.992C674.646 7.392 674.502 7.744 674.214 8.048C673.926 8.336 673.574 8.48 673.158 8.48ZM677.345 28.256V11.264H679.385L679.553 13.376C679.937 12.56 680.505 11.952 681.257 11.552C682.025 11.136 682.873 10.928 683.801 10.928C684.921 10.928 685.889 11.192 686.705 11.72C687.521 12.232 688.145 12.952 688.577 13.88C689.025 14.792 689.249 15.848 689.249 17.048C689.249 18.248 689.033 19.32 688.601 20.264C688.185 21.208 687.569 21.952 686.753 22.496C685.953 23.04 684.969 23.312 683.801 23.312C682.857 23.312 682.017 23.12 681.281 22.736C680.545 22.352 679.985 21.8 679.601 21.08V28.256H677.345ZM679.625 17.144C679.625 17.928 679.769 18.64 680.057 19.28C680.361 19.904 680.785 20.392 681.329 20.744C681.889 21.096 682.553 21.272 683.321 21.272C684.089 21.272 684.745 21.096 685.289 20.744C685.833 20.376 686.249 19.88 686.537 19.256C686.841 18.632 686.993 17.928 686.993 17.144C686.993 16.328 686.841 15.608 686.537 14.984C686.249 14.36 685.833 13.872 685.289 13.52C684.745 13.168 684.089 12.992 683.321 12.992C682.553 12.992 681.889 13.168 681.329 13.52C680.785 13.872 680.361 14.36 680.057 14.984C679.769 15.608 679.625 16.328 679.625 17.144ZM690.13 11.264H696.946V13.16H690.13V11.264ZM696.85 21.032L697.138 22.904C696.53 23.144 695.882 23.264 695.194 23.264C694.506 23.264 693.922 23.136 693.442 22.88C692.962 22.608 692.594 22.208 692.338 21.68C692.082 21.152 691.954 20.496 691.954 19.712V7.592H694.21V19.4C694.21 20.072 694.346 20.552 694.618 20.84C694.906 21.112 695.274 21.248 695.722 21.248C696.074 21.248 696.45 21.176 696.85 21.032ZM699.224 23V11.264H701.48V23H699.224ZM700.328 8.48C699.928 8.48 699.576 8.336 699.272 8.048C698.984 7.744 698.84 7.392 698.84 6.992C698.84 6.576 698.984 6.224 699.272 5.936C699.576 5.648 699.928 5.504 700.328 5.504C700.744 5.504 701.096 5.648 701.384 5.936C701.672 6.224 701.816 6.576 701.816 6.992C701.816 7.392 701.672 7.744 701.384 8.048C701.096 8.336 700.744 8.48 700.328 8.48ZM703.748 17.12C703.748 15.92 704.012 14.856 704.54 13.928C705.068 13 705.788 12.272 706.7 11.744C707.628 11.216 708.684 10.952 709.868 10.952C711.052 10.952 712.1 11.216 713.012 11.744C713.924 12.272 714.644 13 715.172 13.928C715.7 14.856 715.964 15.92 715.964 17.12C715.964 18.32 715.7 19.384 715.172 20.312C714.644 21.24 713.924 21.968 713.012 22.496C712.1 23.024 711.052 23.288 709.868 23.288C708.684 23.288 707.628 23.024 706.7 22.496C705.788 21.968 705.068 21.24 704.54 20.312C704.012 19.384 703.748 18.32 703.748 17.12ZM706.028 17.12C706.028 17.936 706.188 18.656 706.508 19.28C706.844 19.904 707.3 20.392 707.876 20.744C708.452 21.096 709.116 21.272 709.868 21.272C710.62 21.272 711.284 21.096 711.86 20.744C712.436 20.392 712.884 19.904 713.204 19.28C713.54 18.656 713.708 17.936 713.708 17.12C713.708 16.288 713.54 15.568 713.204 14.96C712.884 14.336 712.436 13.848 711.86 13.496C711.284 13.144 710.62 12.968 709.868 12.968C709.116 12.968 708.452 13.144 707.876 13.496C707.3 13.848 706.844 14.336 706.508 14.96C706.188 15.568 706.028 16.288 706.028 17.12ZM720.477 23H718.221V11.264H720.261L720.501 13.064C720.869 12.392 721.397 11.872 722.085 11.504C722.789 11.12 723.557 10.928 724.389 10.928C725.925 10.928 727.061 11.368 727.797 12.248C728.533 13.128 728.901 14.32 728.901 15.824V23H726.645V16.328C726.645 15.144 726.389 14.296 725.877 13.784C725.365 13.256 724.677 12.992 723.813 12.992C722.757 12.992 721.933 13.336 721.341 14.024C720.765 14.712 720.477 15.632 720.477 16.784V23Z" fill="#0D0D0D"/>
<rect y="273" width="299.5" height="82" rx="12" fill="#D1D1D1"/>
<path d="M118.33 304.968H113.338V301.736H121.818V325H118.33V304.968ZM139.958 304.648L131.51 312.584L129.141 310.856L137.334 303.176L136.918 304.936H125.366V301.736H139.958V304.648ZM131.701 313.224H129.141V310.856C129.526 310.579 130.016 310.397 130.614 310.312C131.211 310.205 131.787 310.152 132.342 310.152C133.472 310.152 134.528 310.323 135.51 310.664C136.512 310.984 137.398 311.475 138.166 312.136C138.934 312.776 139.531 313.565 139.958 314.504C140.384 315.421 140.598 316.467 140.598 317.64C140.598 319.219 140.224 320.595 139.477 321.768C138.752 322.92 137.76 323.816 136.502 324.456C135.243 325.096 133.824 325.416 132.246 325.416C130.731 325.416 129.366 325.117 128.15 324.52C126.955 323.901 126.006 323.016 125.302 321.864C124.619 320.691 124.277 319.293 124.277 317.672H127.862C127.862 319.101 128.267 320.211 129.078 321C129.888 321.789 130.966 322.184 132.31 322.184C133.696 322.184 134.806 321.768 135.638 320.936C136.491 320.083 136.918 318.973 136.918 317.608C136.918 316.307 136.48 315.251 135.606 314.44C134.752 313.629 133.451 313.224 131.701 313.224ZM144.874 325.384C144.191 325.384 143.605 325.149 143.114 324.68C142.645 324.211 142.41 323.656 142.41 323.016C142.41 322.333 142.645 321.757 143.114 321.288C143.605 320.819 144.191 320.584 144.874 320.584C145.535 320.584 146.101 320.819 146.57 321.288C147.061 321.757 147.306 322.333 147.306 323.016C147.306 323.656 147.061 324.211 146.57 324.68C146.101 325.149 145.535 325.384 144.874 325.384ZM151.637 304.968H146.645V301.736H155.125V325H151.637V304.968ZM169.937 307.304C169.937 308.477 169.681 309.523 169.169 310.44C168.657 311.357 167.953 312.072 167.057 312.584C166.161 313.096 165.137 313.352 163.985 313.352C162.833 313.352 161.798 313.096 160.881 312.584C159.985 312.072 159.281 311.357 158.769 310.44C158.257 309.523 158.001 308.477 158.001 307.304C158.001 306.131 158.257 305.096 158.769 304.2C159.281 303.283 159.985 302.568 160.881 302.056C161.798 301.544 162.833 301.288 163.985 301.288C165.137 301.288 166.161 301.544 167.057 302.056C167.953 302.568 168.657 303.283 169.169 304.2C169.681 305.096 169.937 306.131 169.937 307.304ZM167.153 307.304C167.153 306.323 166.854 305.533 166.257 304.936C165.681 304.317 164.924 304.008 163.985 304.008C163.046 304.008 162.278 304.317 161.681 304.936C161.084 305.533 160.785 306.323 160.785 307.304C160.785 308.285 161.084 309.085 161.681 309.704C162.278 310.323 163.046 310.632 163.985 310.632C164.924 310.632 165.681 310.323 166.257 309.704C166.854 309.085 167.153 308.285 167.153 307.304ZM182.449 301.768L164.785 325H161.329L178.961 301.768H182.449ZM185.841 319.4C185.841 320.573 185.585 321.619 185.073 322.536C184.561 323.432 183.857 324.136 182.961 324.648C182.065 325.16 181.03 325.416 179.857 325.416C178.705 325.416 177.67 325.16 176.753 324.648C175.857 324.136 175.153 323.432 174.641 322.536C174.129 321.619 173.873 320.573 173.873 319.4C173.873 318.227 174.129 317.192 174.641 316.296C175.153 315.379 175.857 314.664 176.753 314.152C177.67 313.64 178.705 313.384 179.857 313.384C181.03 313.384 182.065 313.64 182.961 314.152C183.857 314.664 184.561 315.379 185.073 316.296C185.585 317.192 185.841 318.227 185.841 319.4ZM183.025 319.4C183.025 318.419 182.726 317.619 182.129 317C181.553 316.381 180.796 316.072 179.857 316.072C178.918 316.072 178.15 316.381 177.553 317C176.977 317.619 176.689 318.419 176.689 319.4C176.689 320.36 176.977 321.16 177.553 321.8C178.15 322.419 178.918 322.728 179.857 322.728C180.796 322.728 181.553 322.419 182.129 321.8C182.726 321.16 183.025 320.36 183.025 319.4Z" fill="#0D0D0D"/>
<rect x="319.5" y="243" width="299.5" height="112" rx="12" fill="#AEAEAE"/>
<path d="M434.33 304.968H429.338V301.736H437.818V325H434.33V304.968ZM440.108 301.736H456.588V305.064H440.108V301.736ZM453.772 303.208L456.588 305.064L447.98 325H444.236L453.772 303.208ZM457.155 325.384C456.473 325.384 455.886 325.149 455.395 324.68C454.926 324.211 454.691 323.656 454.691 323.016C454.691 322.333 454.926 321.757 455.395 321.288C455.886 320.819 456.473 320.584 457.155 320.584C457.817 320.584 458.382 320.819 458.851 321.288C459.342 321.757 459.587 322.333 459.587 323.016C459.587 323.656 459.342 324.211 458.851 324.68C458.382 325.149 457.817 325.384 457.155 325.384ZM461.84 318.472C461.84 316.893 462.32 315.528 463.28 314.376C464.24 313.224 465.51 312.499 467.088 312.2L467.12 312.936C465.712 312.552 464.614 311.891 463.824 310.952C463.056 309.992 462.672 308.84 462.672 307.496C462.672 306.259 463.003 305.181 463.664 304.264C464.347 303.347 465.275 302.632 466.448 302.12C467.643 301.587 469.03 301.32 470.608 301.32C472.166 301.32 473.531 301.576 474.704 302.088C475.878 302.6 476.785 303.325 477.424 304.264C478.086 305.203 478.417 306.301 478.417 307.56C478.417 308.904 478.032 310.045 477.264 310.984C476.496 311.923 475.408 312.563 474 312.904L473.968 312.232C475.035 312.403 475.963 312.776 476.753 313.352C477.563 313.928 478.182 314.653 478.608 315.528C479.057 316.403 479.281 317.384 479.281 318.472C479.281 319.859 478.918 321.075 478.192 322.12C477.467 323.144 476.454 323.944 475.152 324.52C473.851 325.096 472.326 325.384 470.576 325.384C468.806 325.384 467.27 325.107 465.968 324.552C464.667 323.976 463.654 323.165 462.928 322.12C462.203 321.075 461.84 319.859 461.84 318.472ZM465.392 318.216C465.392 319.027 465.606 319.731 466.032 320.328C466.459 320.904 467.056 321.363 467.824 321.704C468.614 322.024 469.531 322.184 470.576 322.184C471.622 322.184 472.528 322.024 473.296 321.704C474.064 321.363 474.662 320.904 475.089 320.328C475.515 319.731 475.728 319.027 475.728 318.216C475.728 317.021 475.259 316.072 474.32 315.368C473.382 314.643 472.123 314.28 470.544 314.28C468.966 314.28 467.707 314.643 466.768 315.368C465.851 316.072 465.392 317.021 465.392 318.216ZM466 307.784C466 308.829 466.406 309.672 467.216 310.312C468.048 310.931 469.158 311.24 470.544 311.24C471.931 311.24 473.03 310.931 473.84 310.312C474.651 309.693 475.056 308.861 475.056 307.816C475.056 306.771 474.651 305.949 473.84 305.352C473.03 304.733 471.931 304.424 470.544 304.424C469.158 304.424 468.048 304.733 467.216 305.352C466.406 305.949 466 306.76 466 307.784ZM492.875 307.304C492.875 308.477 492.619 309.523 492.107 310.44C491.595 311.357 490.891 312.072 489.995 312.584C489.099 313.096 488.075 313.352 486.923 313.352C485.771 313.352 484.736 313.096 483.819 312.584C482.922 312.072 482.218 311.357 481.706 310.44C481.194 309.523 480.938 308.477 480.938 307.304C480.938 306.131 481.194 305.096 481.706 304.2C482.218 303.283 482.922 302.568 483.819 302.056C484.736 301.544 485.771 301.288 486.923 301.288C488.075 301.288 489.099 301.544 489.995 302.056C490.891 302.568 491.595 303.283 492.107 304.2C492.619 305.096 492.875 306.131 492.875 307.304ZM490.09 307.304C490.09 306.323 489.792 305.533 489.194 304.936C488.619 304.317 487.861 304.008 486.923 304.008C485.984 304.008 485.216 304.317 484.619 304.936C484.021 305.533 483.722 306.323 483.722 307.304C483.722 308.285 484.021 309.085 484.619 309.704C485.216 310.323 485.984 310.632 486.923 310.632C487.861 310.632 488.619 310.323 489.194 309.704C489.792 309.085 490.09 308.285 490.09 307.304ZM505.387 301.768L487.722 325H484.266L501.899 301.768H505.387ZM508.779 319.4C508.779 320.573 508.523 321.619 508.011 322.536C507.499 323.432 506.795 324.136 505.899 324.648C505.003 325.16 503.968 325.416 502.795 325.416C501.643 325.416 500.608 325.16 499.691 324.648C498.795 324.136 498.091 323.432 497.579 322.536C497.067 321.619 496.811 320.573 496.811 319.4C496.811 318.227 497.067 317.192 497.579 316.296C498.091 315.379 498.795 314.664 499.691 314.152C500.608 313.64 501.643 313.384 502.795 313.384C503.968 313.384 505.003 313.64 505.899 314.152C506.795 314.664 507.499 315.379 508.011 316.296C508.523 317.192 508.779 318.227 508.779 319.4ZM505.963 319.4C505.963 318.419 505.664 317.619 505.067 317C504.491 316.381 503.733 316.072 502.795 316.072C501.856 316.072 501.088 316.381 500.491 317C499.915 317.619 499.627 318.419 499.627 319.4C499.627 320.36 499.915 321.16 500.491 321.8C501.088 322.419 501.856 322.728 502.795 322.728C503.733 322.728 504.491 322.419 505.067 321.8C505.664 321.16 505.963 320.36 505.963 319.4Z" fill="#0D0D0D"/>
<path d="M244.283 393.22C242.91 393.22 241.71 392.913 240.683 392.3C239.656 391.673 238.856 390.807 238.283 389.7C237.71 388.58 237.423 387.273 237.423 385.78C237.423 384.287 237.716 382.98 238.303 381.86C238.89 380.74 239.703 379.867 240.743 379.24C241.796 378.613 243.01 378.3 244.383 378.3C245.476 378.3 246.463 378.507 247.343 378.92C248.223 379.32 248.956 379.887 249.543 380.62C250.13 381.353 250.51 382.213 250.683 383.2H248.583C248.316 382.253 247.803 381.513 247.043 380.98C246.283 380.447 245.376 380.18 244.323 380.18C243.35 380.18 242.496 380.413 241.763 380.88C241.043 381.333 240.483 381.98 240.083 382.82C239.683 383.647 239.483 384.627 239.483 385.76C239.483 386.88 239.683 387.86 240.083 388.7C240.483 389.54 241.05 390.193 241.783 390.66C242.516 391.113 243.363 391.34 244.323 391.34C245.39 391.34 246.31 391.08 247.083 390.56C247.87 390.027 248.396 389.313 248.663 388.42H250.743C250.543 389.38 250.136 390.22 249.523 390.94C248.923 391.66 248.17 392.22 247.263 392.62C246.37 393.02 245.376 393.22 244.283 393.22ZM251.986 388.1C251.986 387.1 252.206 386.213 252.646 385.44C253.086 384.667 253.686 384.06 254.446 383.62C255.22 383.18 256.1 382.96 257.086 382.96C258.073 382.96 258.946 383.18 259.706 383.62C260.466 384.06 261.066 384.667 261.506 385.44C261.946 386.213 262.166 387.1 262.166 388.1C262.166 389.1 261.946 389.987 261.506 390.76C261.066 391.533 260.466 392.14 259.706 392.58C258.946 393.02 258.073 393.24 257.086 393.24C256.1 393.24 255.22 393.02 254.446 392.58C253.686 392.14 253.086 391.533 252.646 390.76C252.206 389.987 251.986 389.1 251.986 388.1ZM253.886 388.1C253.886 388.78 254.02 389.38 254.286 389.9C254.566 390.42 254.946 390.827 255.426 391.12C255.906 391.413 256.46 391.56 257.086 391.56C257.713 391.56 258.266 391.413 258.746 391.12C259.226 390.827 259.6 390.42 259.866 389.9C260.146 389.38 260.286 388.78 260.286 388.1C260.286 387.407 260.146 386.807 259.866 386.3C259.6 385.78 259.226 385.373 258.746 385.08C258.266 384.787 257.713 384.64 257.086 384.64C256.46 384.64 255.906 384.787 255.426 385.08C254.946 385.373 254.566 385.78 254.286 386.3C254.02 386.807 253.886 387.407 253.886 388.1ZM265.928 393H264.048V383.22H265.748L265.948 384.72C266.254 384.16 266.694 383.727 267.268 383.42C267.854 383.1 268.494 382.94 269.188 382.94C270.468 382.94 271.414 383.307 272.028 384.04C272.641 384.773 272.948 385.767 272.948 387.02V393H271.068V387.44C271.068 386.453 270.854 385.747 270.428 385.32C270.001 384.88 269.428 384.66 268.708 384.66C267.828 384.66 267.141 384.947 266.648 385.52C266.168 386.093 265.928 386.86 265.928 387.82V393ZM277.896 393L273.956 383.22H275.956L278.096 388.68C278.269 389.133 278.423 389.567 278.556 389.98C278.689 390.38 278.796 390.727 278.876 391.02C278.969 390.687 279.083 390.32 279.216 389.92C279.363 389.52 279.523 389.107 279.696 388.68L281.876 383.22H283.836L279.756 393H277.896ZM288.903 393.24C287.956 393.24 287.116 393.027 286.383 392.6C285.649 392.16 285.076 391.56 284.663 390.8C284.249 390.027 284.043 389.133 284.043 388.12C284.043 387.093 284.243 386.193 284.643 385.42C285.056 384.647 285.616 384.04 286.323 383.6C287.043 383.16 287.876 382.94 288.823 382.94C289.756 382.94 290.563 383.14 291.243 383.54C291.936 383.94 292.469 384.5 292.843 385.22C293.229 385.94 293.423 386.787 293.423 387.76V388.46L285.043 388.48L285.083 387.22H291.543C291.543 386.407 291.296 385.753 290.803 385.26C290.309 384.767 289.649 384.52 288.823 384.52C288.196 384.52 287.656 384.66 287.203 384.94C286.763 385.207 286.423 385.607 286.183 386.14C285.956 386.66 285.843 387.287 285.843 388.02C285.843 389.193 286.109 390.1 286.643 390.74C287.176 391.367 287.943 391.68 288.943 391.68C289.676 391.68 290.276 391.533 290.743 391.24C291.209 390.947 291.523 390.52 291.683 389.96H293.443C293.203 391 292.689 391.807 291.903 392.38C291.116 392.953 290.116 393.24 288.903 393.24ZM300.922 383.14V384.86H300.082C299.189 384.86 298.482 385.12 297.962 385.64C297.456 386.147 297.202 386.873 297.202 387.82V393H295.322V383.24H297.082L297.242 385.2H297.062C297.196 384.56 297.516 384.04 298.022 383.64C298.529 383.227 299.162 383.02 299.922 383.02C300.096 383.02 300.256 383.033 300.402 383.06C300.562 383.073 300.736 383.1 300.922 383.14ZM301.686 390.16H303.486C303.486 390.653 303.666 391.047 304.026 391.34C304.386 391.62 304.872 391.76 305.486 391.76C306.152 391.76 306.666 391.633 307.026 391.38C307.386 391.113 307.566 390.76 307.566 390.32C307.566 390 307.466 389.733 307.266 389.52C307.079 389.307 306.732 389.133 306.226 389L304.506 388.6C303.639 388.387 302.992 388.06 302.566 387.62C302.152 387.18 301.946 386.6 301.946 385.88C301.946 385.28 302.099 384.76 302.406 384.32C302.726 383.88 303.159 383.54 303.706 383.3C304.266 383.06 304.906 382.94 305.626 382.94C306.346 382.94 306.966 383.067 307.486 383.32C308.019 383.573 308.432 383.927 308.726 384.38C309.032 384.833 309.192 385.373 309.206 386H307.406C307.392 385.493 307.226 385.1 306.906 384.82C306.586 384.54 306.139 384.4 305.566 384.4C304.979 384.4 304.526 384.527 304.206 384.78C303.886 385.033 303.726 385.38 303.726 385.82C303.726 386.473 304.206 386.92 305.166 387.16L306.886 387.58C307.712 387.767 308.332 388.073 308.746 388.5C309.159 388.913 309.366 389.48 309.366 390.2C309.366 390.813 309.199 391.353 308.866 391.82C308.532 392.273 308.072 392.627 307.486 392.88C306.912 393.12 306.232 393.24 305.446 393.24C304.299 393.24 303.386 392.96 302.706 392.4C302.026 391.84 301.686 391.093 301.686 390.16ZM311.251 393V383.22H313.131V393H311.251ZM312.171 380.9C311.837 380.9 311.544 380.78 311.291 380.54C311.051 380.287 310.931 379.993 310.931 379.66C310.931 379.313 311.051 379.02 311.291 378.78C311.544 378.54 311.837 378.42 312.171 378.42C312.517 378.42 312.811 378.54 313.051 378.78C313.291 379.02 313.411 379.313 313.411 379.66C313.411 379.993 313.291 380.287 313.051 380.54C312.811 380.78 312.517 380.9 312.171 380.9ZM315.02 388.1C315.02 387.1 315.24 386.213 315.68 385.44C316.12 384.667 316.72 384.06 317.48 383.62C318.253 383.18 319.133 382.96 320.12 382.96C321.107 382.96 321.98 383.18 322.74 383.62C323.5 384.06 324.1 384.667 324.54 385.44C324.98 386.213 325.2 387.1 325.2 388.1C325.2 389.1 324.98 389.987 324.54 390.76C324.1 391.533 323.5 392.14 322.74 392.58C321.98 393.02 321.107 393.24 320.12 393.24C319.133 393.24 318.253 393.02 317.48 392.58C316.72 392.14 316.12 391.533 315.68 390.76C315.24 389.987 315.02 389.1 315.02 388.1ZM316.92 388.1C316.92 388.78 317.053 389.38 317.32 389.9C317.6 390.42 317.98 390.827 318.46 391.12C318.94 391.413 319.493 391.56 320.12 391.56C320.747 391.56 321.3 391.413 321.78 391.12C322.26 390.827 322.633 390.42 322.9 389.9C323.18 389.38 323.32 388.78 323.32 388.1C323.32 387.407 323.18 386.807 322.9 386.3C322.633 385.78 322.26 385.373 321.78 385.08C321.3 384.787 320.747 384.64 320.12 384.64C319.493 384.64 318.94 384.787 318.46 385.08C317.98 385.373 317.6 385.78 317.32 386.3C317.053 386.807 316.92 387.407 316.92 388.1ZM328.961 393H327.081V383.22H328.781L328.981 384.72C329.288 384.16 329.728 383.727 330.301 383.42C330.888 383.1 331.528 382.94 332.221 382.94C333.501 382.94 334.448 383.307 335.061 384.04C335.674 384.773 335.981 385.767 335.981 387.02V393H334.101V387.44C334.101 386.453 333.888 385.747 333.461 385.32C333.034 384.88 332.461 384.66 331.741 384.66C330.861 384.66 330.174 384.947 329.681 385.52C329.201 386.093 328.961 386.86 328.961 387.82V393ZM345.934 393H343.974V378.54H349.434C350.98 378.54 352.187 378.927 353.054 379.7C353.934 380.46 354.374 381.52 354.374 382.88C354.374 383.88 354.127 384.727 353.634 385.42C353.154 386.113 352.467 386.607 351.574 386.9L354.514 393H352.334L349.634 387.28H345.934V393ZM345.934 380.3V385.54H349.454C350.36 385.54 351.06 385.307 351.554 384.84C352.06 384.373 352.314 383.727 352.314 382.9C352.314 382.06 352.054 381.42 351.534 380.98C351.027 380.527 350.327 380.3 349.434 380.3H345.934ZM359.009 393.24C357.969 393.24 357.149 392.967 356.549 392.42C355.962 391.873 355.669 391.16 355.669 390.28C355.669 389.387 355.989 388.673 356.629 388.14C357.269 387.593 358.162 387.273 359.309 387.18L362.389 386.94V386.66C362.389 386.113 362.289 385.68 362.089 385.36C361.889 385.027 361.616 384.793 361.269 384.66C360.922 384.513 360.529 384.44 360.089 384.44C359.302 384.44 358.689 384.607 358.249 384.94C357.822 385.26 357.609 385.72 357.609 386.32H355.969C355.969 385.64 356.142 385.047 356.489 384.54C356.836 384.033 357.322 383.64 357.949 383.36C358.589 383.08 359.329 382.94 360.169 382.94C360.982 382.94 361.689 383.087 362.289 383.38C362.902 383.66 363.376 384.093 363.709 384.68C364.056 385.253 364.229 385.98 364.229 386.86V393H362.629L362.429 391.42C362.176 391.98 361.736 392.427 361.109 392.76C360.496 393.08 359.796 393.24 359.009 393.24ZM359.549 391.78C360.442 391.78 361.142 391.513 361.649 390.98C362.156 390.433 362.409 389.7 362.409 388.78V388.26L359.909 388.46C359.082 388.54 358.482 388.733 358.109 389.04C357.749 389.347 357.569 389.74 357.569 390.22C357.569 390.74 357.742 391.133 358.089 391.4C358.449 391.653 358.936 391.78 359.549 391.78ZM365.436 383.22H371.116V384.8H365.436V383.22ZM371.036 391.36L371.276 392.92C370.77 393.12 370.23 393.22 369.656 393.22C369.083 393.22 368.596 393.113 368.196 392.9C367.796 392.673 367.49 392.34 367.276 391.9C367.063 391.46 366.956 390.913 366.956 390.26V380.16H368.836V390C368.836 390.56 368.95 390.96 369.176 391.2C369.416 391.427 369.723 391.54 370.096 391.54C370.39 391.54 370.703 391.48 371.036 391.36ZM377.137 393.24C376.19 393.24 375.35 393.027 374.617 392.6C373.884 392.16 373.31 391.56 372.897 390.8C372.484 390.027 372.277 389.133 372.277 388.12C372.277 387.093 372.477 386.193 372.877 385.42C373.29 384.647 373.85 384.04 374.557 383.6C375.277 383.16 376.11 382.94 377.057 382.94C377.99 382.94 378.797 383.14 379.477 383.54C380.17 383.94 380.704 384.5 381.077 385.22C381.464 385.94 381.657 386.787 381.657 387.76V388.46L373.277 388.48L373.317 387.22H379.777C379.777 386.407 379.53 385.753 379.037 385.26C378.544 384.767 377.884 384.52 377.057 384.52C376.43 384.52 375.89 384.66 375.437 384.94C374.997 385.207 374.657 385.607 374.417 386.14C374.19 386.66 374.077 387.287 374.077 388.02C374.077 389.193 374.344 390.1 374.877 390.74C375.41 391.367 376.177 391.68 377.177 391.68C377.91 391.68 378.51 391.533 378.977 391.24C379.444 390.947 379.757 390.52 379.917 389.96H381.677C381.437 391 380.924 391.807 380.137 392.38C379.35 392.953 378.35 393.24 377.137 393.24Z" fill="#0D0D0D"/>
<rect x="271" y="407" width="77" height="25" rx="8" fill="#D0E3D4"/>
<path d="M285.068 416.195V423.71H283.868V416.195H285.068ZM280.718 419.345H288.218V420.545H280.718V419.345ZM292.15 415.475H289.87V414.155H293.56V425H292.15V415.475ZM296.804 425.18C296.514 425.18 296.259 425.08 296.039 424.88C295.829 424.67 295.724 424.42 295.724 424.13C295.724 423.83 295.829 423.58 296.039 423.38C296.259 423.17 296.514 423.065 296.804 423.065C297.094 423.065 297.344 423.17 297.554 423.38C297.764 423.58 297.869 423.83 297.869 424.13C297.869 424.42 297.764 424.67 297.554 424.88C297.344 425.08 297.094 425.18 296.804 425.18ZM306.25 415.34L302.275 419.135L301.315 418.415L305.155 414.725L305.08 415.46H299.515V414.155H306.25V415.34ZM302.395 419.39H301.315V418.415C301.485 418.305 301.695 418.235 301.945 418.205C302.205 418.165 302.455 418.145 302.695 418.145C303.225 418.145 303.72 418.225 304.18 418.385C304.64 418.535 305.045 418.76 305.395 419.06C305.755 419.36 306.03 419.725 306.22 420.155C306.42 420.575 306.52 421.055 306.52 421.595C306.52 422.325 306.35 422.96 306.01 423.5C305.68 424.04 305.22 424.455 304.63 424.745C304.05 425.035 303.395 425.18 302.665 425.18C301.955 425.18 301.325 425.04 300.775 424.76C300.225 424.48 299.79 424.075 299.47 423.545C299.16 423.005 299.005 422.365 299.005 421.625H300.46C300.46 422.325 300.66 422.875 301.06 423.275C301.47 423.665 302.015 423.86 302.695 423.86C303.395 423.86 303.955 423.65 304.375 423.23C304.805 422.81 305.02 422.255 305.02 421.565C305.02 420.915 304.8 420.39 304.36 419.99C303.92 419.59 303.265 419.39 302.395 419.39ZM311.356 425.18C310.616 425.18 309.971 425.035 309.421 424.745C308.881 424.445 308.456 424.03 308.146 423.5C307.846 422.96 307.696 422.33 307.696 421.61H309.151C309.151 422.31 309.351 422.86 309.751 423.26C310.151 423.66 310.696 423.86 311.386 423.86C311.876 423.86 312.301 423.76 312.661 423.56C313.021 423.35 313.301 423.065 313.501 422.705C313.701 422.335 313.801 421.905 313.801 421.415C313.801 420.945 313.706 420.53 313.516 420.17C313.326 419.8 313.051 419.51 312.691 419.3C312.341 419.09 311.911 418.985 311.401 418.985C310.951 418.985 310.526 419.085 310.126 419.285C309.726 419.475 309.401 419.725 309.151 420.035L307.906 419.72L309.226 414.155H314.656V415.505H309.766L310.441 414.905L309.436 418.94L308.941 419.045C309.221 418.615 309.601 418.29 310.081 418.07C310.561 417.84 311.091 417.725 311.671 417.725C312.411 417.725 313.051 417.885 313.591 418.205C314.131 418.515 314.551 418.945 314.851 419.495C315.151 420.045 315.301 420.665 315.301 421.355C315.301 422.105 315.131 422.77 314.791 423.35C314.461 423.92 314.001 424.37 313.411 424.7C312.831 425.02 312.146 425.18 311.356 425.18ZM317.534 425H315.914L318.479 421.37L315.929 417.665H317.564L319.424 420.395L321.239 417.665H322.844L320.294 421.37L322.799 425H321.164L319.334 422.315L317.534 425Z" fill="#009D24"/>
<path d="M331.25 424.167V424.917H332.75V424.167H331.25ZM332.75 414.834C332.75 414.419 332.414 414.084 332 414.084C331.586 414.084 331.25 414.419 331.25 414.834H332.75ZM332 424.167H332.75V414.834H332H331.25V424.167H332Z" fill="#009D24"/>
<path d="M335.47 419.363L336 419.894L337.061 418.833L336.53 418.303L335.47 419.363ZM332.53 414.303C332.237 414.01 331.763 414.01 331.47 414.303C331.177 414.596 331.177 415.07 331.47 415.363L332.53 414.303ZM336 418.833L336.53 418.303L332.53 414.303L332 414.833L331.47 415.363L335.47 419.363L336 418.833Z" fill="#009D24"/>
<path d="M327.47 418.303L326.939 418.833L328 419.894L328.53 419.363L327.47 418.303ZM332.53 415.363C332.823 415.07 332.823 414.596 332.53 414.303C332.237 414.01 331.763 414.01 331.47 414.303L332.53 415.363ZM328 418.833L328.53 419.363L332.53 415.363L332 414.833L331.47 414.303L327.47 418.303L328 418.833Z" fill="#009D24"/>
<rect x="659" y="91" width="299.5" height="264" rx="12" fill="#D1D1D1"/>
<path d="M791.602 301.736V325H788.146V301.736H791.602ZM776.242 317.256L786.994 301.736H790.834L779.954 317.48L776.242 317.256ZM794.386 320.456H776.242V317.256H794.386V320.456ZM811.416 324.968L795.512 325V322.248L803.064 315.816C803.939 315.091 804.664 314.429 805.24 313.832C805.816 313.235 806.275 312.68 806.616 312.168C806.957 311.656 807.203 311.144 807.352 310.632C807.501 310.099 807.576 309.544 807.576 308.968C807.576 307.581 807.203 306.504 806.456 305.736C805.731 304.947 804.717 304.552 803.416 304.552C802.051 304.552 800.963 305.011 800.152 305.928C799.363 306.824 798.947 308.061 798.904 309.64H795.32C795.341 307.955 795.693 306.493 796.376 305.256C797.059 303.997 797.997 303.027 799.192 302.344C800.408 301.661 801.816 301.32 803.416 301.32C805.037 301.32 806.424 301.619 807.576 302.216C808.749 302.813 809.656 303.667 810.296 304.776C810.936 305.885 811.256 307.208 811.256 308.744C811.256 309.555 811.149 310.333 810.936 311.08C810.723 311.805 810.392 312.52 809.944 313.224C809.496 313.928 808.92 314.653 808.216 315.4C807.533 316.125 806.701 316.904 805.72 317.736L799.864 322.76L798.616 321.608H811.416V324.968ZM824.857 307.304C824.857 308.477 824.601 309.523 824.089 310.44C823.577 311.357 822.873 312.072 821.977 312.584C821.081 313.096 820.057 313.352 818.905 313.352C817.753 313.352 816.718 313.096 815.801 312.584C814.905 312.072 814.201 311.357 813.689 310.44C813.177 309.523 812.921 308.477 812.921 307.304C812.921 306.131 813.177 305.096 813.689 304.2C814.201 303.283 814.905 302.568 815.801 302.056C816.718 301.544 817.753 301.288 818.905 301.288C820.057 301.288 821.081 301.544 821.977 302.056C822.873 302.568 823.577 303.283 824.089 304.2C824.601 305.096 824.857 306.131 824.857 307.304ZM822.073 307.304C822.073 306.323 821.774 305.533 821.177 304.936C820.601 304.317 819.844 304.008 818.905 304.008C817.966 304.008 817.198 304.317 816.601 304.936C816.004 305.533 815.705 306.323 815.705 307.304C815.705 308.285 816.004 309.085 816.601 309.704C817.198 310.323 817.966 310.632 818.905 310.632C819.844 310.632 820.601 310.323 821.177 309.704C821.774 309.085 822.073 308.285 822.073 307.304ZM837.369 301.768L819.705 325H816.249L833.881 301.768H837.369ZM840.761 319.4C840.761 320.573 840.505 321.619 839.993 322.536C839.481 323.432 838.777 324.136 837.881 324.648C836.985 325.16 835.95 325.416 834.777 325.416C833.625 325.416 832.59 325.16 831.673 324.648C830.777 324.136 830.073 323.432 829.561 322.536C829.049 321.619 828.793 320.573 828.793 319.4C828.793 318.227 829.049 317.192 829.561 316.296C830.073 315.379 830.777 314.664 831.673 314.152C832.59 313.64 833.625 313.384 834.777 313.384C835.95 313.384 836.985 313.64 837.881 314.152C838.777 314.664 839.481 315.379 839.993 316.296C840.505 317.192 840.761 318.227 840.761 319.4ZM837.945 319.4C837.945 318.419 837.646 317.619 837.049 317C836.473 316.381 835.716 316.072 834.777 316.072C833.838 316.072 833.07 316.381 832.473 317C831.897 317.619 831.609 318.419 831.609 319.4C831.609 320.36 831.897 321.16 832.473 321.8C833.07 322.419 833.838 322.728 834.777 322.728C835.716 322.728 836.473 322.419 837.049 321.8C837.646 321.16 837.945 320.36 837.945 319.4Z" fill="#0D0D0D"/>
<rect x="978.5" y="151" width="299.5" height="204" rx="12" fill="#AEAEAE"/>
<path d="M1099.23 304.648L1090.78 312.584L1088.41 310.856L1096.61 303.176L1096.19 304.936H1084.64V301.736H1099.23V304.648ZM1090.97 313.224H1088.41V310.856C1088.8 310.579 1089.29 310.397 1089.89 310.312C1090.48 310.205 1091.06 310.152 1091.61 310.152C1092.74 310.152 1093.8 310.323 1094.78 310.664C1095.78 310.984 1096.67 311.475 1097.44 312.136C1098.21 312.776 1098.8 313.565 1099.23 314.504C1099.66 315.421 1099.87 316.467 1099.87 317.64C1099.87 319.219 1099.5 320.595 1098.75 321.768C1098.02 322.92 1097.03 323.816 1095.77 324.456C1094.52 325.096 1093.1 325.416 1091.52 325.416C1090 325.416 1088.64 325.117 1087.42 324.52C1086.23 323.901 1085.28 323.016 1084.57 321.864C1083.89 320.691 1083.55 319.293 1083.55 317.672H1087.13C1087.13 319.101 1087.54 320.211 1088.35 321C1089.16 321.789 1090.24 322.184 1091.58 322.184C1092.97 322.184 1094.08 321.768 1094.91 320.936C1095.76 320.083 1096.19 318.973 1096.19 317.608C1096.19 316.307 1095.75 315.251 1094.88 314.44C1094.02 313.629 1092.72 313.224 1090.97 313.224ZM1116.95 324.968L1101.04 325V322.248L1108.6 315.816C1109.47 315.091 1110.2 314.429 1110.77 313.832C1111.35 313.235 1111.81 312.68 1112.15 312.168C1112.49 311.656 1112.73 311.144 1112.88 310.632C1113.03 310.099 1113.11 309.544 1113.11 308.968C1113.11 307.581 1112.73 306.504 1111.99 305.736C1111.26 304.947 1110.25 304.552 1108.95 304.552C1107.58 304.552 1106.49 305.011 1105.68 305.928C1104.89 306.824 1104.48 308.061 1104.44 309.64H1100.85C1100.87 307.955 1101.22 306.493 1101.91 305.256C1102.59 303.997 1103.53 303.027 1104.72 302.344C1105.94 301.661 1107.35 301.32 1108.95 301.32C1110.57 301.32 1111.96 301.619 1113.11 302.216C1114.28 302.813 1115.19 303.667 1115.83 304.776C1116.47 305.885 1116.79 307.208 1116.79 308.744C1116.79 309.555 1116.68 310.333 1116.47 311.08C1116.25 311.805 1115.92 312.52 1115.48 313.224C1115.03 313.928 1114.45 314.653 1113.75 315.4C1113.06 316.125 1112.23 316.904 1111.25 317.736L1105.4 322.76L1104.15 321.608H1116.95V324.968ZM1122.12 325.384C1121.44 325.384 1120.85 325.149 1120.36 324.68C1119.89 324.211 1119.66 323.656 1119.66 323.016C1119.66 322.333 1119.89 321.757 1120.36 321.288C1120.85 320.819 1121.44 320.584 1122.12 320.584C1122.79 320.584 1123.35 320.819 1123.82 321.288C1124.31 321.757 1124.56 322.333 1124.56 323.016C1124.56 323.656 1124.31 324.211 1123.82 324.68C1123.35 325.149 1122.79 325.384 1122.12 325.384ZM1134.5 325.384C1132.9 325.384 1131.49 325.064 1130.27 324.424C1129.08 323.784 1128.15 322.888 1127.49 321.736C1126.85 320.563 1126.53 319.197 1126.53 317.64H1130.08C1130.08 319.048 1130.48 320.157 1131.26 320.968C1132.08 321.757 1133.17 322.152 1134.56 322.152C1135.54 322.152 1136.38 321.949 1137.09 321.544C1137.81 321.139 1138.38 320.573 1138.78 319.848C1139.19 319.101 1139.39 318.227 1139.39 317.224C1139.39 316.264 1139.2 315.421 1138.82 314.696C1138.43 313.971 1137.89 313.405 1137.18 313C1136.48 312.573 1135.62 312.36 1134.59 312.36C1133.68 312.36 1132.81 312.563 1132 312.968C1131.19 313.373 1130.55 313.896 1130.08 314.536L1126.94 313.8L1129.79 301.736H1141.66V305.064H1131.33L1132.74 303.784L1130.72 311.816L1129.5 312.2C1130.06 311.261 1130.85 310.547 1131.87 310.056C1132.9 309.544 1134.05 309.288 1135.33 309.288C1136.89 309.288 1138.24 309.619 1139.39 310.28C1140.57 310.941 1141.47 311.859 1142.11 313.032C1142.75 314.205 1143.07 315.549 1143.07 317.064C1143.07 318.707 1142.71 320.157 1141.98 321.416C1141.26 322.653 1140.26 323.624 1138.98 324.328C1137.7 325.032 1136.2 325.384 1134.5 325.384ZM1156.34 307.304C1156.34 308.477 1156.09 309.523 1155.58 310.44C1155.06 311.357 1154.36 312.072 1153.46 312.584C1152.57 313.096 1151.54 313.352 1150.39 313.352C1149.24 313.352 1148.2 313.096 1147.29 312.584C1146.39 312.072 1145.69 311.357 1145.18 310.44C1144.66 309.523 1144.41 308.477 1144.41 307.304C1144.41 306.131 1144.66 305.096 1145.18 304.2C1145.69 303.283 1146.39 302.568 1147.29 302.056C1148.2 301.544 1149.24 301.288 1150.39 301.288C1151.54 301.288 1152.57 301.544 1153.46 302.056C1154.36 302.568 1155.06 303.283 1155.58 304.2C1156.09 305.096 1156.34 306.131 1156.34 307.304ZM1153.56 307.304C1153.56 306.323 1153.26 305.533 1152.66 304.936C1152.09 304.317 1151.33 304.008 1150.39 304.008C1149.45 304.008 1148.68 304.317 1148.09 304.936C1147.49 305.533 1147.19 306.323 1147.19 307.304C1147.19 308.285 1147.49 309.085 1148.09 309.704C1148.68 310.323 1149.45 310.632 1150.39 310.632C1151.33 310.632 1152.09 310.323 1152.66 309.704C1153.26 309.085 1153.56 308.285 1153.56 307.304ZM1168.86 301.768L1151.19 325H1147.74L1165.37 301.768H1168.86ZM1172.25 319.4C1172.25 320.573 1171.99 321.619 1171.48 322.536C1170.97 323.432 1170.26 324.136 1169.37 324.648C1168.47 325.16 1167.44 325.416 1166.26 325.416C1165.11 325.416 1164.08 325.16 1163.16 324.648C1162.26 324.136 1161.56 323.432 1161.05 322.536C1160.54 321.619 1160.28 320.573 1160.28 319.4C1160.28 318.227 1160.54 317.192 1161.05 316.296C1161.56 315.379 1162.26 314.664 1163.16 314.152C1164.08 313.64 1165.11 313.384 1166.26 313.384C1167.44 313.384 1168.47 313.64 1169.37 314.152C1170.26 314.664 1170.97 315.379 1171.48 316.296C1171.99 317.192 1172.25 318.227 1172.25 319.4ZM1169.43 319.4C1169.43 318.419 1169.13 317.619 1168.54 317C1167.96 316.381 1167.2 316.072 1166.26 316.072C1165.32 316.072 1164.56 316.381 1163.96 317C1163.38 317.619 1163.1 318.419 1163.1 319.4C1163.1 320.36 1163.38 321.16 1163.96 321.8C1164.56 322.419 1165.32 322.728 1166.26 322.728C1167.2 322.728 1167.96 322.419 1168.54 321.8C1169.13 321.16 1169.43 320.36 1169.43 319.4Z" fill="#0D0D0D"/>
<path d="M915.786 378.54V393H913.826V378.54H915.786ZM919.506 386.62H915.246V384.92H919.346C920.16 384.92 920.786 384.713 921.226 384.3C921.666 383.887 921.886 383.3 921.886 382.54C921.886 381.82 921.653 381.267 921.186 380.88C920.733 380.48 920.08 380.28 919.226 380.28H914.906V378.54H919.346C920.76 378.54 921.866 378.88 922.666 379.56C923.48 380.24 923.886 381.173 923.886 382.36C923.886 383.253 923.666 384 923.226 384.6C922.8 385.187 922.166 385.613 921.326 385.88V385.62C922.26 385.847 922.96 386.26 923.426 386.86C923.906 387.447 924.146 388.207 924.146 389.14C924.146 389.94 923.96 390.633 923.586 391.22C923.226 391.793 922.7 392.233 922.006 392.54C921.313 392.847 920.493 393 919.546 393H914.906V391.26H919.506C920.346 391.26 920.993 391.053 921.446 390.64C921.9 390.227 922.126 389.647 922.126 388.9C922.126 388.18 921.893 387.62 921.426 387.22C920.973 386.82 920.333 386.62 919.506 386.62ZM925.44 388.1C925.44 387.1 925.66 386.213 926.1 385.44C926.54 384.667 927.14 384.06 927.9 383.62C928.673 383.18 929.553 382.96 930.54 382.96C931.527 382.96 932.4 383.18 933.16 383.62C933.92 384.06 934.52 384.667 934.96 385.44C935.4 386.213 935.62 387.1 935.62 388.1C935.62 389.1 935.4 389.987 934.96 390.76C934.52 391.533 933.92 392.14 933.16 392.58C932.4 393.02 931.527 393.24 930.54 393.24C929.553 393.24 928.673 393.02 927.9 392.58C927.14 392.14 926.54 391.533 926.1 390.76C925.66 389.987 925.44 389.1 925.44 388.1ZM927.34 388.1C927.34 388.78 927.473 389.38 927.74 389.9C928.02 390.42 928.4 390.827 928.88 391.12C929.36 391.413 929.913 391.56 930.54 391.56C931.167 391.56 931.72 391.413 932.2 391.12C932.68 390.827 933.053 390.42 933.32 389.9C933.6 389.38 933.74 388.78 933.74 388.1C933.74 387.407 933.6 386.807 933.32 386.3C933.053 385.78 932.68 385.373 932.2 385.08C931.72 384.787 931.167 384.64 930.54 384.64C929.913 384.64 929.36 384.787 928.88 385.08C928.4 385.373 928.02 385.78 927.74 386.3C927.473 386.807 927.34 387.407 927.34 388.1ZM944.027 383.22H945.887V393H944.207L944.007 391.52C943.727 392.027 943.287 392.44 942.687 392.76C942.087 393.08 941.427 393.24 940.707 393.24C939.573 393.24 938.693 392.887 938.067 392.18C937.453 391.46 937.147 390.5 937.147 389.3V383.22H939.027V388.68C939.027 389.72 939.233 390.467 939.647 390.92C940.073 391.36 940.647 391.58 941.367 391.58C942.233 391.58 942.893 391.313 943.347 390.78C943.8 390.233 944.027 389.433 944.027 388.38V383.22ZM950.294 393H948.414V383.22H950.114L950.314 384.72C950.621 384.16 951.061 383.727 951.634 383.42C952.221 383.1 952.861 382.94 953.554 382.94C954.834 382.94 955.781 383.307 956.394 384.04C957.008 384.773 957.314 385.767 957.314 387.02V393H955.434V387.44C955.434 386.453 955.221 385.747 954.794 385.32C954.368 384.88 953.794 384.66 953.074 384.66C952.194 384.66 951.508 384.947 951.014 385.52C950.534 386.093 950.294 386.86 950.294 387.82V393ZM959.078 388.12C959.078 387.093 959.278 386.193 959.678 385.42C960.092 384.647 960.658 384.04 961.378 383.6C962.098 383.16 962.932 382.94 963.878 382.94C965.105 382.94 966.125 383.267 966.938 383.92C967.752 384.573 968.238 385.44 968.398 386.52H966.518C966.358 385.893 966.045 385.42 965.578 385.1C965.112 384.78 964.565 384.62 963.938 384.62C963.352 384.62 962.832 384.767 962.378 385.06C961.925 385.34 961.572 385.74 961.318 386.26C961.065 386.78 960.938 387.393 960.938 388.1C960.938 388.807 961.058 389.42 961.298 389.94C961.538 390.447 961.878 390.847 962.318 391.14C962.758 391.42 963.272 391.56 963.858 391.56C964.525 391.56 965.098 391.393 965.578 391.06C966.058 390.727 966.378 390.273 966.538 389.7H968.418C968.298 390.407 968.025 391.027 967.598 391.56C967.185 392.08 966.652 392.493 965.998 392.8C965.358 393.093 964.645 393.24 963.858 393.24C962.898 393.24 962.058 393.027 961.338 392.6C960.632 392.173 960.078 391.58 959.678 390.82C959.278 390.047 959.078 389.147 959.078 388.12ZM974.422 393.24C973.475 393.24 972.635 393.027 971.902 392.6C971.168 392.16 970.595 391.56 970.182 390.8C969.768 390.027 969.562 389.133 969.562 388.12C969.562 387.093 969.762 386.193 970.162 385.42C970.575 384.647 971.135 384.04 971.842 383.6C972.562 383.16 973.395 382.94 974.342 382.94C975.275 382.94 976.082 383.14 976.762 383.54C977.455 383.94 977.988 384.5 978.362 385.22C978.748 385.94 978.942 386.787 978.942 387.76V388.46L970.562 388.48L970.602 387.22H977.062C977.062 386.407 976.815 385.753 976.322 385.26C975.828 384.767 975.168 384.52 974.342 384.52C973.715 384.52 973.175 384.66 972.722 384.94C972.282 385.207 971.942 385.607 971.702 386.14C971.475 386.66 971.362 387.287 971.362 388.02C971.362 389.193 971.628 390.1 972.162 390.74C972.695 391.367 973.462 391.68 974.462 391.68C975.195 391.68 975.795 391.533 976.262 391.24C976.728 390.947 977.042 390.52 977.202 389.96H978.962C978.722 391 978.208 391.807 977.422 392.38C976.635 392.953 975.635 393.24 974.422 393.24ZM988.39 393H986.43V378.54H991.89C993.437 378.54 994.644 378.927 995.51 379.7C996.39 380.46 996.83 381.52 996.83 382.88C996.83 383.88 996.584 384.727 996.09 385.42C995.61 386.113 994.924 386.607 994.03 386.9L996.97 393H994.79L992.09 387.28H988.39V393ZM988.39 380.3V385.54H991.91C992.817 385.54 993.517 385.307 994.01 384.84C994.517 384.373 994.77 383.727 994.77 382.9C994.77 382.06 994.51 381.42 993.99 380.98C993.484 380.527 992.784 380.3 991.89 380.3H988.39ZM1001.47 393.24C1000.43 393.24 999.606 392.967 999.006 392.42C998.419 391.873 998.126 391.16 998.126 390.28C998.126 389.387 998.446 388.673 999.086 388.14C999.726 387.593 1000.62 387.273 1001.77 387.18L1004.85 386.94V386.66C1004.85 386.113 1004.75 385.68 1004.55 385.36C1004.35 385.027 1004.07 384.793 1003.73 384.66C1003.38 384.513 1002.99 384.44 1002.55 384.44C1001.76 384.44 1001.15 384.607 1000.71 384.94C1000.28 385.26 1000.07 385.72 1000.07 386.32H998.426C998.426 385.64 998.599 385.047 998.946 384.54C999.292 384.033 999.779 383.64 1000.41 383.36C1001.05 383.08 1001.79 382.94 1002.63 382.94C1003.44 382.94 1004.15 383.087 1004.75 383.38C1005.36 383.66 1005.83 384.093 1006.17 384.68C1006.51 385.253 1006.69 385.98 1006.69 386.86V393H1005.09L1004.89 391.42C1004.63 391.98 1004.19 392.427 1003.57 392.76C1002.95 393.08 1002.25 393.24 1001.47 393.24ZM1002.01 391.78C1002.9 391.78 1003.6 391.513 1004.11 390.98C1004.61 390.433 1004.87 389.7 1004.87 388.78V388.26L1002.37 388.46C1001.54 388.54 1000.94 388.733 1000.57 389.04C1000.21 389.347 1000.03 389.74 1000.03 390.22C1000.03 390.74 1000.2 391.133 1000.55 391.4C1000.91 391.653 1001.39 391.78 1002.01 391.78ZM1007.89 383.22H1013.57V384.8H1007.89V383.22ZM1013.49 391.36L1013.73 392.92C1013.23 393.12 1012.69 393.22 1012.11 393.22C1011.54 393.22 1011.05 393.113 1010.65 392.9C1010.25 392.673 1009.95 392.34 1009.73 391.9C1009.52 391.46 1009.41 390.913 1009.41 390.26V380.16H1011.29V390C1011.29 390.56 1011.41 390.96 1011.63 391.2C1011.87 391.427 1012.18 391.54 1012.55 391.54C1012.85 391.54 1013.16 391.48 1013.49 391.36ZM1019.59 393.24C1018.65 393.24 1017.81 393.027 1017.07 392.6C1016.34 392.16 1015.77 391.56 1015.35 390.8C1014.94 390.027 1014.73 389.133 1014.73 388.12C1014.73 387.093 1014.93 386.193 1015.33 385.42C1015.75 384.647 1016.31 384.04 1017.01 383.6C1017.73 383.16 1018.57 382.94 1019.51 382.94C1020.45 382.94 1021.25 383.14 1021.93 383.54C1022.63 383.94 1023.16 384.5 1023.53 385.22C1023.92 385.94 1024.11 386.787 1024.11 387.76V388.46L1015.73 388.48L1015.77 387.22H1022.23C1022.23 386.407 1021.99 385.753 1021.49 385.26C1021 384.767 1020.34 384.52 1019.51 384.52C1018.89 384.52 1018.35 384.66 1017.89 384.94C1017.45 385.207 1017.11 385.607 1016.87 386.14C1016.65 386.66 1016.53 387.287 1016.53 388.02C1016.53 389.193 1016.8 390.1 1017.33 390.74C1017.87 391.367 1018.63 391.68 1019.63 391.68C1020.37 391.68 1020.97 391.533 1021.43 391.24C1021.9 390.947 1022.21 390.52 1022.37 389.96H1024.13C1023.89 391 1023.38 391.807 1022.59 392.38C1021.81 392.953 1020.81 393.24 1019.59 393.24Z" fill="#0D0D0D"/>
<rect x="932" y="407" width="73" height="25" rx="8" fill="#D0E3D4"/>
<path d="M941.169 421.655V420.395H945.744V421.655H941.169ZM948.461 415.475H946.181V414.155H949.871V425H948.461V415.475ZM953.115 425.18C952.825 425.18 952.57 425.08 952.35 424.88C952.14 424.67 952.035 424.42 952.035 424.13C952.035 423.83 952.14 423.58 952.35 423.38C952.57 423.17 952.825 423.065 953.115 423.065C953.405 423.065 953.655 423.17 953.865 423.38C954.075 423.58 954.18 423.83 954.18 424.13C954.18 424.42 954.075 424.67 953.865 424.88C953.655 425.08 953.405 425.18 953.115 425.18ZM963.126 424.985L955.806 425V423.875L959.301 420.86C959.741 420.49 960.106 420.155 960.396 419.855C960.686 419.555 960.916 419.28 961.086 419.03C961.256 418.77 961.376 418.515 961.446 418.265C961.516 418.015 961.551 417.745 961.551 417.455C961.551 416.775 961.366 416.245 960.996 415.865C960.636 415.475 960.126 415.28 959.466 415.28C958.796 415.28 958.256 415.51 957.846 415.97C957.446 416.42 957.241 417.03 957.231 417.8H955.761C955.781 417.03 955.946 416.355 956.256 415.775C956.566 415.195 956.996 414.75 957.546 414.44C958.106 414.12 958.751 413.96 959.481 413.96C960.211 413.96 960.841 414.1 961.371 414.38C961.901 414.66 962.311 415.055 962.601 415.565C962.901 416.065 963.051 416.665 963.051 417.365C963.051 417.745 963.001 418.11 962.901 418.46C962.801 418.8 962.641 419.14 962.421 419.48C962.211 419.81 961.936 420.155 961.596 420.515C961.256 420.865 960.846 421.25 960.366 421.67L957.531 424.13L957.036 423.62H963.126V424.985ZM970.719 421.565L968.184 425H966.474L969.579 420.875L969.909 420.98C969.619 421.19 969.314 421.35 968.994 421.46C968.684 421.57 968.369 421.625 968.049 421.625C967.299 421.625 966.639 421.46 966.069 421.13C965.509 420.8 965.069 420.35 964.749 419.78C964.439 419.21 964.284 418.565 964.284 417.845C964.284 417.095 964.454 416.43 964.794 415.85C965.144 415.26 965.614 414.8 966.204 414.47C966.804 414.13 967.479 413.96 968.229 413.96C968.979 413.96 969.654 414.135 970.254 414.485C970.864 414.825 971.344 415.29 971.694 415.88C972.044 416.46 972.219 417.12 972.219 417.86C972.219 418.28 972.169 418.68 972.069 419.06C971.979 419.43 971.824 419.815 971.604 420.215C971.384 420.605 971.089 421.055 970.719 421.565ZM970.719 417.845C970.719 417.345 970.614 416.905 970.404 416.525C970.194 416.135 969.899 415.83 969.519 415.61C969.149 415.39 968.719 415.28 968.229 415.28C967.749 415.28 967.324 415.39 966.954 415.61C966.584 415.83 966.294 416.135 966.084 416.525C965.874 416.905 965.769 417.345 965.769 417.845C965.769 418.335 965.874 418.775 966.084 419.165C966.294 419.545 966.584 419.845 966.954 420.065C967.324 420.275 967.749 420.38 968.229 420.38C968.719 420.38 969.149 420.275 969.519 420.065C969.899 419.845 970.194 419.545 970.404 419.165C970.614 418.775 970.719 418.335 970.719 417.845ZM974.534 425H972.914L975.479 421.37L972.929 417.665H974.564L976.424 420.395L978.239 417.665H979.844L977.294 421.37L979.799 425H978.164L976.334 422.315L974.534 425Z" fill="#009D24"/>
<path d="M989.75 414.833V414.083H988.25V414.833H989.75ZM988.25 424.166C988.25 424.581 988.586 424.916 989 424.916C989.414 424.916 989.75 424.581 989.75 424.166H988.25ZM989 414.833H988.25V424.166H989H989.75V414.833H989Z" fill="#009D24"/>
<path d="M985.53 419.637L985 419.106L983.939 420.167L984.47 420.697L985.53 419.637ZM988.47 424.697C988.763 424.99 989.237 424.99 989.53 424.697C989.823 424.404 989.823 423.93 989.53 423.637L988.47 424.697ZM985 420.167L984.47 420.697L988.47 424.697L989 424.167L989.53 423.637L985.53 419.637L985 420.167Z" fill="#009D24"/>
<path d="M993.53 420.697L994.061 420.167L993 419.106L992.47 419.637L993.53 420.697ZM988.47 423.637C988.177 423.93 988.177 424.404 988.47 424.697C988.763 424.99 989.237 424.99 989.53 424.697L988.47 423.637ZM993 420.167L992.47 419.637L988.47 423.637L989 424.167L989.53 424.697L993.53 420.697L993 420.167Z" fill="#009D24"/>
</g>
<defs>
<clipPath id="clip0_6624_24053">
<rect width="1278" height="432" fill="white"/>
</clipPath>
</defs>
</svg>
