<svg width="1536" height="760" viewBox="0 0 1536 760" fill="none" xmlns="http://www.w3.org/2000/svg">
<path d="M233.566 187V170.2H240.526C244.03 170.2 246.094 172.072 246.094 175.144C246.094 178.24 244.03 180.136 240.526 180.136H235.966V187H233.566ZM235.966 177.904H240.43C242.494 177.904 243.646 176.896 243.646 175.144C243.646 173.44 242.494 172.456 240.43 172.456H235.966V177.904ZM252.708 187.336C249.9 187.336 248.172 185.608 248.172 182.416V175.456H250.5V182.2C250.5 184.264 251.46 185.224 253.14 185.224C254.892 185.224 256.02 183.976 256.02 182.128V175.456H258.348V187H256.284V185.68C255.516 186.808 254.196 187.336 252.708 187.336ZM261.673 187V175.456H263.737V177.328C264.025 176.176 264.889 175.456 266.257 175.456H268.465V177.496H266.041C264.601 177.496 264.001 178.312 264.001 179.872V187H261.673ZM274.697 187.336C271.241 187.336 269.009 184.768 269.009 181.264C269.009 177.664 271.361 175.12 274.841 175.12C277.769 175.12 279.761 176.824 280.025 179.248H277.649C277.433 178.168 276.473 177.232 274.817 177.232C272.753 177.232 271.409 178.792 271.409 181.216C271.409 183.688 272.777 185.224 274.769 185.224C276.329 185.224 277.457 184.312 277.697 182.968H280.073C279.761 185.272 277.841 187.336 274.697 187.336ZM282.217 187V170.2H284.545V176.584C285.313 175.6 286.537 175.12 287.929 175.12C290.761 175.12 292.537 176.848 292.537 180.04V187H290.209V180.256C290.209 178.192 289.201 177.232 287.497 177.232C285.721 177.232 284.545 178.456 284.545 180.328V187H282.217ZM299.141 187.336C296.477 187.336 294.797 185.944 294.797 183.736C294.797 181.672 296.189 180.184 299.021 180.016L302.525 179.824V179.176C302.525 177.664 301.781 177.04 300.197 177.04C298.661 177.04 297.893 177.448 297.701 178.672H295.373C295.637 176.296 297.269 175.12 300.365 175.12C303.125 175.12 304.733 176.512 304.733 179.056V184.696C304.733 184.96 304.853 185.08 305.117 185.08H306.101V187H304.229C303.437 187 302.981 186.568 302.981 185.8V185.464C302.309 186.64 300.941 187.336 299.141 187.336ZM297.125 183.664C297.125 184.72 297.989 185.416 299.405 185.416C301.277 185.416 302.525 184.336 302.525 182.368V181.624L299.309 181.864C297.821 181.96 297.125 182.728 297.125 183.664ZM312.323 187.336C309.203 187.336 307.355 186.088 307.235 183.712H309.635C309.755 184.864 310.691 185.44 312.371 185.44C313.907 185.44 314.843 184.792 314.843 183.736C314.843 182.872 314.195 182.368 312.995 182.248L311.147 182.056C308.987 181.84 307.619 180.64 307.619 178.72C307.619 176.512 309.467 175.12 312.299 175.12C315.179 175.12 316.955 176.32 317.099 178.672H314.771C314.699 177.568 313.787 177.016 312.275 177.016C310.835 177.016 309.923 177.616 309.923 178.6C309.923 179.44 310.547 179.896 311.891 180.064L313.763 180.28C315.947 180.52 317.195 181.744 317.195 183.64C317.195 185.896 315.299 187.336 312.323 187.336ZM324.785 187.336C321.329 187.336 319.025 184.912 319.025 181.168C319.025 177.448 321.329 175.12 324.617 175.12C328.049 175.12 330.161 177.352 330.161 180.88C330.161 181.192 330.137 181.504 330.089 181.984H321.329C321.425 184.096 322.721 185.368 324.785 185.368C326.153 185.368 327.113 184.744 327.569 183.712H329.945C329.225 185.944 327.449 187.336 324.785 187.336ZM321.329 180.16H327.809V180.04C327.809 178.264 326.657 176.992 324.617 176.992C322.673 176.992 321.425 178.288 321.329 180.16Z" fill="#0D0D0D"/>
<path d="M550.262 187L556.67 170.2H559.91L566.318 187H563.678L561.878 182.104H554.678L552.878 187H550.262ZM555.47 179.92H561.086L558.278 172.288L555.47 179.92ZM573.092 187.336C569.636 187.336 567.404 184.768 567.404 181.264C567.404 177.664 569.756 175.12 573.236 175.12C576.164 175.12 578.156 176.824 578.42 179.248H576.044C575.828 178.168 574.868 177.232 573.212 177.232C571.148 177.232 569.804 178.792 569.804 181.216C569.804 183.688 571.172 185.224 573.164 185.224C574.724 185.224 575.852 184.312 576.092 182.968H578.468C578.156 185.272 576.236 187.336 573.092 187.336ZM584.977 187C582.985 187 582.121 186.208 582.121 184.216V177.496H579.097V175.456H582.121V172H584.449V175.456H588.073V177.496H584.449V183.76C584.449 184.6 584.785 184.96 585.673 184.96H588.073V187H584.977ZM590.31 187V175.456H592.638V187H590.31ZM590.166 173.128V170.368H592.758V173.128H590.166ZM599.263 187L594.463 175.456H597.055L600.607 184.504L604.135 175.456H606.727L601.903 187H599.263ZM611.705 187.336C609.041 187.336 607.361 185.944 607.361 183.736C607.361 181.672 608.753 180.184 611.585 180.016L615.089 179.824V179.176C615.089 177.664 614.345 177.04 612.761 177.04C611.225 177.04 610.457 177.448 610.265 178.672H607.937C608.201 176.296 609.833 175.12 612.929 175.12C615.689 175.12 617.297 176.512 617.297 179.056V184.696C617.297 184.96 617.417 185.08 617.681 185.08H618.665V187H616.793C616.001 187 615.545 186.568 615.545 185.8V185.464C614.873 186.64 613.505 187.336 611.705 187.336ZM609.689 183.664C609.689 184.72 610.553 185.416 611.969 185.416C613.841 185.416 615.089 184.336 615.089 182.368V181.624L611.873 181.864C610.385 181.96 609.689 182.728 609.689 183.664ZM624.845 187C622.853 187 621.989 186.208 621.989 184.216V177.496H618.965V175.456H621.989V172H624.317V175.456H627.941V177.496H624.317V183.76C624.317 184.6 624.653 184.96 625.541 184.96H627.941V187H624.845ZM630.178 187V175.456H632.506V187H630.178ZM630.034 173.128V170.368H632.626V173.128H630.034ZM641.098 187.336C637.594 187.336 635.146 184.888 635.146 181.216C635.146 177.568 637.594 175.12 641.098 175.12C644.626 175.12 647.05 177.568 647.05 181.216C647.05 184.888 644.626 187.336 641.098 187.336ZM637.546 181.216C637.546 183.616 638.986 185.224 641.098 185.224C643.234 185.224 644.65 183.616 644.65 181.216C644.65 178.84 643.234 177.232 641.098 177.232C638.986 177.232 637.546 178.84 637.546 181.216ZM649.714 187V175.456H651.778V176.968C652.474 175.72 653.866 175.12 655.426 175.12C658.258 175.12 660.034 176.848 660.034 180.04V187H657.706V180.256C657.706 178.192 656.698 177.232 654.994 177.232C653.218 177.232 652.042 178.456 652.042 180.328V187H649.714Z" fill="#0D0D0D"/>
<path d="M851.685 187V172.456H846.405V170.2H859.365V172.456H854.085V187H851.685ZM862.777 187.336C860.113 187.336 858.433 185.944 858.433 183.736C858.433 181.672 859.825 180.184 862.657 180.016L866.161 179.824V179.176C866.161 177.664 865.417 177.04 863.833 177.04C862.297 177.04 861.529 177.448 861.337 178.672H859.009C859.273 176.296 860.905 175.12 864.001 175.12C866.761 175.12 868.369 176.512 868.369 179.056V184.696C868.369 184.96 868.489 185.08 868.753 185.08H869.737V187H867.865C867.073 187 866.617 186.568 866.617 185.8V185.464C865.945 186.64 864.577 187.336 862.777 187.336ZM860.761 183.664C860.761 184.72 861.625 185.416 863.041 185.416C864.913 185.416 866.161 184.336 866.161 182.368V181.624L862.945 181.864C861.457 181.96 860.761 182.728 860.761 183.664ZM871.951 187V175.456H874.015V177.328C874.303 176.176 875.167 175.456 876.535 175.456H878.743V177.496H876.319C874.879 177.496 874.279 178.312 874.279 179.872V187H871.951ZM882.644 191.32C880.076 191.32 878.924 190.12 878.924 188.44C878.924 187.456 879.452 186.568 880.436 186.088C879.788 185.656 879.38 184.96 879.38 184.216C879.38 183.184 880.028 182.344 881.372 182.008C880.292 181.288 879.836 180.16 879.836 179.08C879.836 176.824 881.564 175.12 884.444 175.12C886.292 175.12 887.78 176.056 888.26 177.256V176.896C888.26 175.744 888.884 175.456 889.7 175.456H891.404V177.496H889.556C889.196 177.496 889.052 177.64 889.052 178V179.224C889.052 181.624 887.18 183.184 884.564 183.184H882.572C881.9 183.184 881.444 183.496 881.444 184.12C881.444 184.744 881.972 185.056 882.572 185.056H886.772C888.98 185.056 890.396 186.112 890.396 188.008C890.396 189.904 889.268 191.32 886.628 191.32H882.644ZM881.156 188.224C881.156 188.968 881.636 189.544 882.908 189.544H886.484C887.396 189.544 888.164 189.112 888.164 188.08C888.164 187.288 887.54 186.832 886.604 186.832H882.98C881.684 186.832 881.156 187.48 881.156 188.224ZM882.068 179.152C882.068 180.496 882.956 181.36 884.444 181.36C885.956 181.36 886.82 180.496 886.82 179.152C886.82 177.808 885.932 176.944 884.444 176.944C882.932 176.944 882.068 177.808 882.068 179.152ZM898.119 187.336C894.663 187.336 892.359 184.912 892.359 181.168C892.359 177.448 894.663 175.12 897.951 175.12C901.383 175.12 903.495 177.352 903.495 180.88C903.495 181.192 903.471 181.504 903.423 181.984H894.663C894.759 184.096 896.055 185.368 898.119 185.368C899.487 185.368 900.447 184.744 900.903 183.712H903.279C902.559 185.944 900.783 187.336 898.119 187.336ZM894.663 180.16H901.143V180.04C901.143 178.264 899.991 176.992 897.951 176.992C896.007 176.992 894.759 178.288 894.663 180.16ZM910.165 187C908.173 187 907.309 186.208 907.309 184.216V177.496H904.285V175.456H907.309V172H909.637V175.456H913.261V177.496H909.637V183.76C909.637 184.6 909.973 184.96 910.861 184.96H913.261V187H910.165ZM920.232 187.336C916.776 187.336 914.472 184.912 914.472 181.168C914.472 177.448 916.776 175.12 920.064 175.12C923.496 175.12 925.608 177.352 925.608 180.88C925.608 181.192 925.584 181.504 925.536 181.984H916.776C916.872 184.096 918.168 185.368 920.232 185.368C921.6 185.368 922.56 184.744 923.016 183.712H925.392C924.672 185.944 922.896 187.336 920.232 187.336ZM916.776 180.16H923.256V180.04C923.256 178.264 922.104 176.992 920.064 176.992C918.12 176.992 916.872 178.288 916.776 180.16ZM932.948 187.336C929.66 187.336 927.404 184.888 927.404 181.216C927.404 177.568 929.66 175.12 932.948 175.12C934.628 175.12 935.996 175.744 936.716 176.872V170.2H939.02V187H936.956V185.392C936.188 186.616 934.748 187.336 932.948 187.336ZM929.804 181.216C929.804 183.616 931.22 185.224 933.308 185.224C935.396 185.224 936.764 183.616 936.764 181.216C936.764 178.84 935.396 177.232 933.308 177.232C931.22 177.232 929.804 178.84 929.804 181.216ZM951.748 187.336C949.084 187.336 947.404 185.944 947.404 183.736C947.404 181.672 948.796 180.184 951.628 180.016L955.132 179.824V179.176C955.132 177.664 954.388 177.04 952.804 177.04C951.268 177.04 950.5 177.448 950.308 178.672H947.98C948.244 176.296 949.876 175.12 952.972 175.12C955.732 175.12 957.34 176.512 957.34 179.056V184.696C957.34 184.96 957.46 185.08 957.724 185.08H958.708V187H956.836C956.044 187 955.588 186.568 955.588 185.8V185.464C954.916 186.64 953.548 187.336 951.748 187.336ZM949.732 183.664C949.732 184.72 950.596 185.416 952.012 185.416C953.884 185.416 955.132 184.336 955.132 182.368V181.624L951.916 181.864C950.428 181.96 949.732 182.728 949.732 183.664ZM965.818 187.336C962.362 187.336 960.13 184.768 960.13 181.264C960.13 177.664 962.482 175.12 965.962 175.12C968.89 175.12 970.882 176.824 971.146 179.248H968.77C968.554 178.168 967.594 177.232 965.938 177.232C963.874 177.232 962.53 178.792 962.53 181.216C962.53 183.688 963.898 185.224 965.89 185.224C967.45 185.224 968.578 184.312 968.818 182.968H971.194C970.882 185.272 968.962 187.336 965.818 187.336ZM977.702 187C975.71 187 974.846 186.208 974.846 184.216V177.496H971.822V175.456H974.846V172H977.174V175.456H980.798V177.496H977.174V183.76C977.174 184.6 977.51 184.96 978.398 184.96H980.798V187H977.702ZM983.035 187V175.456H985.363V187H983.035ZM982.891 173.128V170.368H985.483V173.128H982.891ZM993.955 187.336C990.451 187.336 988.003 184.888 988.003 181.216C988.003 177.568 990.451 175.12 993.955 175.12C997.483 175.12 999.907 177.568 999.907 181.216C999.907 184.888 997.483 187.336 993.955 187.336ZM990.403 181.216C990.403 183.616 991.843 185.224 993.955 185.224C996.091 185.224 997.507 183.616 997.507 181.216C997.507 178.84 996.091 177.232 993.955 177.232C991.843 177.232 990.403 178.84 990.403 181.216ZM1002.57 187V175.456H1004.63V176.968C1005.33 175.72 1006.72 175.12 1008.28 175.12C1011.11 175.12 1012.89 176.848 1012.89 180.04V187H1010.56V180.256C1010.56 178.192 1009.55 177.232 1007.85 177.232C1006.07 177.232 1004.9 178.456 1004.9 180.328V187H1002.57Z" fill="#0D0D0D"/>
<path d="M1218.08 187V170.2H1225.28C1228.78 170.2 1230.84 172.024 1230.84 175.024C1230.84 177.904 1228.97 179.704 1225.78 179.872L1231.32 187H1228.32L1222.8 179.848H1220.48V187H1218.08ZM1220.48 177.664H1225.28C1227.27 177.664 1228.4 176.704 1228.4 175.024C1228.4 173.392 1227.27 172.456 1225.28 172.456H1220.48V177.664ZM1238.15 187.336C1234.69 187.336 1232.39 184.912 1232.39 181.168C1232.39 177.448 1234.69 175.12 1237.98 175.12C1241.41 175.12 1243.53 177.352 1243.53 180.88C1243.53 181.192 1243.5 181.504 1243.45 181.984H1234.69C1234.79 184.096 1236.09 185.368 1238.15 185.368C1239.52 185.368 1240.48 184.744 1240.93 183.712H1243.31C1242.59 185.944 1240.81 187.336 1238.15 187.336ZM1234.69 180.16H1241.17V180.04C1241.17 178.264 1240.02 176.992 1237.98 176.992C1236.04 176.992 1234.79 178.288 1234.69 180.16ZM1246.09 191.32V175.456H1248.15V177.088C1248.9 175.84 1250.36 175.12 1252.16 175.12C1255.45 175.12 1257.71 177.568 1257.71 181.216C1257.71 184.888 1255.45 187.336 1252.16 187.336C1250.51 187.336 1249.16 186.712 1248.42 185.584V191.32H1246.09ZM1248.37 181.216C1248.37 183.616 1249.74 185.224 1251.83 185.224C1253.91 185.224 1255.31 183.616 1255.31 181.216C1255.31 178.84 1253.91 177.232 1251.83 177.232C1249.74 177.232 1248.37 178.84 1248.37 181.216ZM1265.42 187.336C1261.96 187.336 1259.66 184.912 1259.66 181.168C1259.66 177.448 1261.96 175.12 1265.25 175.12C1268.68 175.12 1270.8 177.352 1270.8 180.88C1270.8 181.192 1270.77 181.504 1270.72 181.984H1261.96C1262.06 184.096 1263.36 185.368 1265.42 185.368C1266.79 185.368 1267.75 184.744 1268.2 183.712H1270.58C1269.86 185.944 1268.08 187.336 1265.42 187.336ZM1261.96 180.16H1268.44V180.04C1268.44 178.264 1267.29 176.992 1265.25 176.992C1263.31 176.992 1262.06 178.288 1261.96 180.16ZM1276.7 187.336C1274.03 187.336 1272.35 185.944 1272.35 183.736C1272.35 181.672 1273.74 180.184 1276.58 180.016L1280.08 179.824V179.176C1280.08 177.664 1279.34 177.04 1277.75 177.04C1276.22 177.04 1275.45 177.448 1275.26 178.672H1272.93C1273.19 176.296 1274.82 175.12 1277.92 175.12C1280.68 175.12 1282.29 176.512 1282.29 179.056V184.696C1282.29 184.96 1282.41 185.08 1282.67 185.08H1283.66V187H1281.78C1280.99 187 1280.54 186.568 1280.54 185.8V185.464C1279.86 186.64 1278.5 187.336 1276.7 187.336ZM1274.68 183.664C1274.68 184.72 1275.54 185.416 1276.96 185.416C1278.83 185.416 1280.08 184.336 1280.08 182.368V181.624L1276.86 181.864C1275.38 181.96 1274.68 182.728 1274.68 183.664ZM1289.84 187C1287.84 187 1286.98 186.208 1286.98 184.216V177.496H1283.96V175.456H1286.98V172H1289.31V175.456H1292.93V177.496H1289.31V183.76C1289.31 184.6 1289.64 184.96 1290.53 184.96H1292.93V187H1289.84Z" fill="#0D0D0D"/>
<path fill-rule="evenodd" clip-rule="evenodd" d="M433.5 310.686C433.5 299.701 433.5 294.209 430.798 290.171C429.922 288.861 428.858 287.689 427.64 286.69C423.881 283.611 418.414 283.081 407.481 282.02L160.581 258.064C147.546 256.8 141.028 256.167 136.362 259.16C134.861 260.122 133.532 261.329 132.429 262.729C129 267.085 129 273.633 129 286.73V474.2C129 486.199 129 492.199 132.056 496.405C133.043 497.763 134.237 498.958 135.595 499.944C139.801 503 145.801 503 157.8 503L404.7 503C416.699 503 422.699 503 426.905 499.944C428.263 498.958 429.457 497.763 430.444 496.405C433.5 492.199 433.5 486.199 433.5 474.2V310.686ZM485.081 289.549C472.046 288.285 465.528 287.652 460.862 290.645C459.361 291.607 458.032 292.814 456.929 294.215C453.5 298.57 453.5 305.118 453.5 318.215V474.2C453.5 486.199 453.5 492.199 456.556 496.405C457.543 497.763 458.737 498.958 460.095 499.945C464.301 503 470.301 503 482.3 503H729.2C741.199 503 747.199 503 751.405 499.945C752.763 498.958 753.957 497.763 754.944 496.405C758 492.199 758 486.199 758 474.2V342.171C758 331.186 758 325.694 755.298 321.656C754.422 320.347 753.358 319.174 752.14 318.176C748.381 315.097 742.914 314.566 731.981 313.505L485.081 289.549ZM809.581 321.035C796.546 319.77 790.028 319.137 785.362 322.13C783.861 323.092 782.532 324.299 781.429 325.7C778 330.055 778 336.603 778 349.7V474.2C778 486.199 778 492.199 781.056 496.405C782.043 497.763 783.237 498.958 784.595 499.945C788.801 503 794.801 503 806.8 503H1053.7C1065.7 503 1071.7 503 1075.9 499.945C1077.26 498.958 1078.46 497.763 1079.44 496.405C1082.5 492.199 1082.5 486.199 1082.5 474.2V373.656C1082.5 362.671 1082.5 357.179 1079.8 353.141C1078.92 351.832 1077.86 350.659 1076.64 349.661C1072.88 346.582 1067.41 346.051 1056.48 344.99L809.581 321.035ZM1134.08 352.52C1121.05 351.255 1114.53 350.623 1109.86 353.615C1108.36 354.578 1107.03 355.784 1105.93 357.185C1102.5 361.54 1102.5 368.088 1102.5 381.185V474.2C1102.5 486.199 1102.5 492.199 1105.56 496.405C1106.54 497.763 1107.74 498.958 1109.1 499.944C1113.3 503 1119.3 503 1131.3 503L1378.2 503C1390.2 503 1396.2 503 1400.4 499.944C1401.76 498.958 1402.96 497.763 1403.94 496.405C1407 492.199 1407 486.199 1407 474.2V405.141C1407 394.156 1407 388.664 1404.3 384.626C1403.42 383.317 1402.36 382.144 1401.14 381.146C1397.38 378.067 1391.91 377.536 1380.98 376.476L1134.08 352.52Z" fill="#0D0D0D"/>
<path d="M253.9 385.28C250.16 385.28 247.6 382.74 247.6 378C247.6 373.26 250.16 370.72 253.9 370.72C257.62 370.72 260.18 373.26 260.18 378C260.18 382.74 257.62 385.28 253.9 385.28ZM249.66 378C249.66 381.62 251.4 383.42 253.9 383.42C256.38 383.42 258.12 381.62 258.12 378C258.12 374.38 256.38 372.58 253.9 372.58C251.4 372.58 249.66 374.38 249.66 378ZM262.683 385V375.38H264.403V376.94C264.643 375.98 265.363 375.38 266.503 375.38H268.343V377.08H266.323C265.123 377.08 264.623 377.76 264.623 379.06V385H262.683ZM271.593 388.6C269.453 388.6 268.493 387.6 268.493 386.2C268.493 385.38 268.933 384.64 269.753 384.24C269.213 383.88 268.873 383.3 268.873 382.68C268.873 381.82 269.413 381.12 270.533 380.84C269.633 380.24 269.253 379.3 269.253 378.4C269.253 376.52 270.693 375.1 273.093 375.1C274.633 375.1 275.873 375.88 276.273 376.88V376.58C276.273 375.62 276.793 375.38 277.473 375.38H278.893V377.08H277.353C277.053 377.08 276.933 377.2 276.933 377.5V378.52C276.933 380.52 275.373 381.82 273.193 381.82H271.533C270.973 381.82 270.593 382.08 270.593 382.6C270.593 383.12 271.033 383.38 271.533 383.38H275.033C276.873 383.38 278.053 384.26 278.053 385.84C278.053 387.42 277.113 388.6 274.913 388.6H271.593ZM270.353 386.02C270.353 386.64 270.753 387.12 271.813 387.12H274.793C275.553 387.12 276.193 386.76 276.193 385.9C276.193 385.24 275.673 384.86 274.893 384.86H271.873C270.793 384.86 270.353 385.4 270.353 386.02ZM271.113 378.46C271.113 379.58 271.853 380.3 273.093 380.3C274.353 380.3 275.073 379.58 275.073 378.46C275.073 377.34 274.333 376.62 273.093 376.62C271.833 376.62 271.113 377.34 271.113 378.46ZM283.207 385.28C280.987 385.28 279.587 384.12 279.587 382.28C279.587 380.56 280.747 379.32 283.107 379.18L286.027 379.02V378.48C286.027 377.22 285.407 376.7 284.087 376.7C282.807 376.7 282.167 377.04 282.007 378.06H280.067C280.287 376.08 281.647 375.1 284.227 375.1C286.527 375.1 287.867 376.26 287.867 378.38V383.08C287.867 383.3 287.967 383.4 288.187 383.4H289.007V385H287.447C286.787 385 286.407 384.64 286.407 384V383.72C285.847 384.7 284.707 385.28 283.207 385.28ZM281.527 382.22C281.527 383.1 282.247 383.68 283.427 383.68C284.987 383.68 286.027 382.78 286.027 381.14V380.52L283.347 380.72C282.107 380.8 281.527 381.44 281.527 382.22ZM290.852 385V375.38H292.572V376.64C293.152 375.6 294.312 375.1 295.612 375.1C297.972 375.1 299.452 376.54 299.452 379.2V385H297.512V379.38C297.512 377.66 296.672 376.86 295.252 376.86C293.772 376.86 292.792 377.88 292.792 379.44V385H290.852ZM302.137 385V375.38H304.077V385H302.137ZM302.017 373.44V371.14H304.177V373.44H302.017ZM311.017 385.28C308.137 385.28 306.277 383.14 306.277 380.22C306.277 377.22 308.237 375.1 311.137 375.1C313.577 375.1 315.237 376.52 315.457 378.54H313.477C313.297 377.64 312.497 376.86 311.117 376.86C309.397 376.86 308.277 378.16 308.277 380.18C308.277 382.24 309.417 383.52 311.077 383.52C312.377 383.52 313.317 382.76 313.517 381.64H315.497C315.237 383.56 313.637 385.28 311.017 385.28Z" fill="white"/>
<path d="M247.021 423V409H253.021C255.941 409 257.661 410.52 257.661 413.02C257.661 415.42 256.101 416.92 253.441 417.06L258.061 423H255.561L250.961 417.04H249.021V423H247.021ZM249.021 415.22H253.021C254.681 415.22 255.621 414.42 255.621 413.02C255.621 411.66 254.681 410.88 253.021 410.88H249.021V415.22ZM263.749 423.28C260.869 423.28 258.949 421.26 258.949 418.14C258.949 415.04 260.869 413.1 263.609 413.1C266.469 413.1 268.229 414.96 268.229 417.9C268.229 418.16 268.209 418.42 268.169 418.82H260.869C260.949 420.58 262.029 421.64 263.749 421.64C264.889 421.64 265.689 421.12 266.069 420.26H268.049C267.449 422.12 265.969 423.28 263.749 423.28ZM260.869 417.3H266.269V417.2C266.269 415.72 265.309 414.66 263.609 414.66C261.989 414.66 260.949 415.74 260.869 417.3ZM271.468 411.62C271.468 409.94 272.448 409 274.108 409H277.228V410.7H274.508C273.808 410.7 273.388 411.06 273.388 411.82V413.38H276.628V415.08H273.388V423H271.468V415.08H268.928V413.38H271.468V411.62ZM281.904 423.28C279.024 423.28 277.104 421.26 277.104 418.14C277.104 415.04 279.024 413.1 281.764 413.1C284.624 413.1 286.384 414.96 286.384 417.9C286.384 418.16 286.364 418.42 286.324 418.82H279.024C279.104 420.58 280.184 421.64 281.904 421.64C283.044 421.64 283.844 421.12 284.224 420.26H286.204C285.604 422.12 284.124 423.28 281.904 423.28ZM279.024 417.3H284.424V417.2C284.424 415.72 283.464 414.66 281.764 414.66C280.144 414.66 279.104 415.74 279.024 417.3ZM288.521 423V413.38H290.241V414.94C290.481 413.98 291.201 413.38 292.341 413.38H294.181V415.08H292.161C290.961 415.08 290.461 415.76 290.461 417.06V423H288.521ZM295.625 423V413.38H297.345V414.94C297.585 413.98 298.305 413.38 299.445 413.38H301.285V415.08H299.265C298.065 415.08 297.565 415.76 297.565 417.06V423H295.625ZM305.354 423.28C303.134 423.28 301.734 422.12 301.734 420.28C301.734 418.56 302.894 417.32 305.254 417.18L308.174 417.02V416.48C308.174 415.22 307.554 414.7 306.234 414.7C304.954 414.7 304.314 415.04 304.154 416.06H302.214C302.434 414.08 303.794 413.1 306.374 413.1C308.674 413.1 310.014 414.26 310.014 416.38V421.08C310.014 421.3 310.114 421.4 310.334 421.4H311.154V423H309.594C308.934 423 308.554 422.64 308.554 422V421.72C307.994 422.7 306.854 423.28 305.354 423.28ZM303.674 420.22C303.674 421.1 304.394 421.68 305.574 421.68C307.134 421.68 308.174 420.78 308.174 419.14V418.52L305.494 418.72C304.254 418.8 303.674 419.44 303.674 420.22ZM314.939 423C313.579 423 312.999 422.48 312.999 421.18V409H314.939V420.58C314.939 421.08 315.119 421.3 315.619 421.3H316.839V423H314.939Z" fill="white"/>
<path d="M214.714 461L220.054 447H222.754L228.094 461H225.894L224.394 456.92H218.394L216.894 461H214.714ZM219.054 455.1H223.734L221.394 448.74L219.054 455.1ZM233.62 461.28C230.88 461.28 229 459.24 229 456.18C229 453.14 230.88 451.1 233.62 451.1C235.02 451.1 236.16 451.62 236.76 452.56V447H238.68V461H236.96V459.66C236.32 460.68 235.12 461.28 233.62 461.28ZM231 456.18C231 458.18 232.18 459.52 233.92 459.52C235.66 459.52 236.8 458.18 236.8 456.18C236.8 454.2 235.66 452.86 233.92 452.86C232.18 452.86 231 454.2 231 456.18ZM244.21 461L240.21 451.38H242.37L245.33 458.92L248.27 451.38H250.43L246.41 461H244.21ZM255.841 461.28C252.961 461.28 251.041 459.26 251.041 456.14C251.041 453.04 252.961 451.1 255.701 451.1C258.561 451.1 260.321 452.96 260.321 455.9C260.321 456.16 260.301 456.42 260.261 456.82H252.961C253.041 458.58 254.121 459.64 255.841 459.64C256.981 459.64 257.781 459.12 258.161 458.26H260.141C259.541 460.12 258.061 461.28 255.841 461.28ZM252.961 455.3H258.361V455.2C258.361 453.72 257.401 452.66 255.701 452.66C254.081 452.66 253.041 453.74 252.961 455.3ZM262.458 461V451.38H264.178V452.94C264.418 451.98 265.138 451.38 266.278 451.38H268.118V453.08H266.098C264.898 453.08 264.398 453.76 264.398 455.06V461H262.458ZM273.844 461C272.184 461 271.464 460.34 271.464 458.68V453.08H268.944V451.38H271.464V448.5H273.404V451.38H276.424V453.08H273.404V458.3C273.404 459 273.684 459.3 274.424 459.3H276.424V461H273.844ZM278.289 461V451.38H280.229V461H278.289ZM278.169 449.44V447.14H280.329V449.44H278.169ZM286.487 461.28C283.887 461.28 282.347 460.24 282.247 458.26H284.247C284.347 459.22 285.127 459.7 286.527 459.7C287.807 459.7 288.587 459.16 288.587 458.28C288.587 457.56 288.047 457.14 287.047 457.04L285.507 456.88C283.707 456.7 282.567 455.7 282.567 454.1C282.567 452.26 284.107 451.1 286.467 451.1C288.867 451.1 290.347 452.1 290.467 454.06H288.527C288.467 453.14 287.707 452.68 286.447 452.68C285.247 452.68 284.487 453.18 284.487 454C284.487 454.7 285.007 455.08 286.127 455.22L287.687 455.4C289.507 455.6 290.547 456.62 290.547 458.2C290.547 460.08 288.967 461.28 286.487 461.28ZM296.872 461.28C293.992 461.28 292.072 459.26 292.072 456.14C292.072 453.04 293.992 451.1 296.732 451.1C299.592 451.1 301.352 452.96 301.352 455.9C301.352 456.16 301.332 456.42 301.292 456.82H293.992C294.072 458.58 295.152 459.64 296.872 459.64C298.012 459.64 298.812 459.12 299.192 458.26H301.172C300.572 460.12 299.092 461.28 296.872 461.28ZM293.992 455.3H299.392V455.2C299.392 453.72 298.432 452.66 296.732 452.66C295.112 452.66 294.072 453.74 293.992 455.3ZM303.489 461V451.38H305.209V452.56C305.769 451.56 306.649 451.1 307.829 451.1C309.149 451.1 310.129 451.74 310.589 452.82C311.209 451.66 312.209 451.1 313.469 451.1C315.689 451.1 316.909 452.44 316.909 454.84V461H314.989V454.94C314.989 453.6 314.349 452.86 313.129 452.86C311.989 452.86 311.169 453.74 311.169 455V461H309.229V454.94C309.229 453.6 308.589 452.86 307.409 452.86C306.249 452.86 305.429 453.74 305.429 455V461H303.489ZM323.777 461.28C320.897 461.28 318.977 459.26 318.977 456.14C318.977 453.04 320.897 451.1 323.637 451.1C326.497 451.1 328.257 452.96 328.257 455.9C328.257 456.16 328.237 456.42 328.197 456.82H320.897C320.977 458.58 322.057 459.64 323.777 459.64C324.917 459.64 325.717 459.12 326.097 458.26H328.077C327.477 460.12 325.997 461.28 323.777 461.28ZM320.897 455.3H326.297V455.2C326.297 453.72 325.337 452.66 323.637 452.66C322.017 452.66 320.977 453.74 320.897 455.3ZM330.394 461V451.38H332.114V452.64C332.694 451.6 333.854 451.1 335.154 451.1C337.514 451.1 338.994 452.54 338.994 455.2V461H337.054V455.38C337.054 453.66 336.214 452.86 334.794 452.86C333.314 452.86 332.334 453.88 332.334 455.44V461H330.394ZM345.022 461C343.362 461 342.642 460.34 342.642 458.68V453.08H340.122V451.38H342.642V448.5H344.582V451.38H347.602V453.08H344.582V458.3C344.582 459 344.862 459.3 345.602 459.3H347.602V461H345.022Z" fill="white"/>
<path d="M560.272 385.28C556.532 385.28 553.972 382.74 553.972 378C553.972 373.26 556.532 370.72 560.272 370.72C563.992 370.72 566.552 373.26 566.552 378C566.552 382.74 563.992 385.28 560.272 385.28ZM556.032 378C556.032 381.62 557.772 383.42 560.272 383.42C562.752 383.42 564.492 381.62 564.492 378C564.492 374.38 562.752 372.58 560.272 372.58C557.772 372.58 556.032 374.38 556.032 378ZM569.055 385V375.38H570.775V376.64C571.355 375.6 572.515 375.1 573.815 375.1C576.175 375.1 577.655 376.54 577.655 379.2V385H575.715V379.38C575.715 377.66 574.875 376.86 573.455 376.86C571.975 376.86 570.995 377.88 570.995 379.44V385H569.055ZM585.419 385.28C583.919 385.28 582.699 384.68 582.079 383.62V385H580.359V371H582.299V376.54C582.919 375.62 584.039 375.1 585.419 375.1C588.159 375.1 590.039 377.14 590.039 380.18C590.039 383.24 588.159 385.28 585.419 385.28ZM582.259 380.18C582.259 382.18 583.399 383.52 585.139 383.52C586.879 383.52 588.039 382.18 588.039 380.18C588.039 378.2 586.879 376.86 585.139 376.86C583.399 376.86 582.259 378.2 582.259 380.18ZM596.607 385.28C593.687 385.28 591.647 383.24 591.647 380.18C591.647 377.14 593.687 375.1 596.607 375.1C599.547 375.1 601.567 377.14 601.567 380.18C601.567 383.24 599.547 385.28 596.607 385.28ZM593.647 380.18C593.647 382.18 594.847 383.52 596.607 383.52C598.387 383.52 599.567 382.18 599.567 380.18C599.567 378.2 598.387 376.86 596.607 376.86C594.847 376.86 593.647 378.2 593.647 380.18ZM606.606 385.28C604.386 385.28 602.986 384.12 602.986 382.28C602.986 380.56 604.146 379.32 606.506 379.18L609.426 379.02V378.48C609.426 377.22 608.806 376.7 607.486 376.7C606.206 376.7 605.566 377.04 605.406 378.06H603.466C603.686 376.08 605.046 375.1 607.626 375.1C609.926 375.1 611.266 376.26 611.266 378.38V383.08C611.266 383.3 611.366 383.4 611.586 383.4H612.406V385H610.846C610.186 385 609.806 384.64 609.806 384V383.72C609.246 384.7 608.106 385.28 606.606 385.28ZM604.926 382.22C604.926 383.1 605.646 383.68 606.826 383.68C608.386 383.68 609.426 382.78 609.426 381.14V380.52L606.746 380.72C605.506 380.8 604.926 381.44 604.926 382.22ZM614.251 385V375.38H615.971V376.94C616.211 375.98 616.931 375.38 618.071 375.38H619.911V377.08H617.891C616.691 377.08 616.191 377.76 616.191 379.06V385H614.251ZM625.003 385.28C622.263 385.28 620.383 383.24 620.383 380.18C620.383 377.14 622.263 375.1 625.003 375.1C626.403 375.1 627.543 375.62 628.143 376.56V371H630.063V385H628.343V383.66C627.703 384.68 626.503 385.28 625.003 385.28ZM622.383 380.18C622.383 382.18 623.563 383.52 625.303 383.52C627.043 383.52 628.183 382.18 628.183 380.18C628.183 378.2 627.043 376.86 625.303 376.86C623.563 376.86 622.383 378.2 622.383 380.18ZM632.992 385V375.38H634.932V385H632.992ZM632.872 373.44V371.14H635.032V373.44H632.872ZM637.753 385V375.38H639.473V376.64C640.053 375.6 641.213 375.1 642.513 375.1C644.873 375.1 646.353 376.54 646.353 379.2V385H644.413V379.38C644.413 377.66 643.573 376.86 642.153 376.86C640.673 376.86 639.693 377.88 639.693 379.44V385H637.753ZM651.136 388.6C648.996 388.6 648.036 387.6 648.036 386.2C648.036 385.38 648.476 384.64 649.296 384.24C648.756 383.88 648.416 383.3 648.416 382.68C648.416 381.82 648.956 381.12 650.076 380.84C649.176 380.24 648.796 379.3 648.796 378.4C648.796 376.52 650.236 375.1 652.636 375.1C654.176 375.1 655.416 375.88 655.816 376.88V376.58C655.816 375.62 656.336 375.38 657.016 375.38H658.436V377.08H656.896C656.596 377.08 656.476 377.2 656.476 377.5V378.52C656.476 380.52 654.916 381.82 652.736 381.82H651.076C650.516 381.82 650.136 382.08 650.136 382.6C650.136 383.12 650.576 383.38 651.076 383.38H654.576C656.416 383.38 657.596 384.26 657.596 385.84C657.596 387.42 656.656 388.6 654.456 388.6H651.136ZM649.896 386.02C649.896 386.64 650.296 387.12 651.356 387.12H654.336C655.096 387.12 655.736 386.76 655.736 385.9C655.736 385.24 655.216 384.86 654.436 384.86H651.416C650.336 384.86 649.896 385.4 649.896 386.02ZM650.656 378.46C650.656 379.58 651.396 380.3 652.636 380.3C653.896 380.3 654.616 379.58 654.616 378.46C654.616 377.34 653.876 376.62 652.636 376.62C651.376 376.62 650.656 377.34 650.656 378.46Z" fill="white"/>
<path d="M552.654 423V409H558.654C561.574 409 563.294 410.52 563.294 413.02C563.294 415.42 561.734 416.92 559.074 417.06L563.694 423H561.194L556.594 417.04H554.654V423H552.654ZM554.654 415.22H558.654C560.314 415.22 561.254 414.42 561.254 413.02C561.254 411.66 560.314 410.88 558.654 410.88H554.654V415.22ZM569.381 423.28C566.501 423.28 564.581 421.26 564.581 418.14C564.581 415.04 566.501 413.1 569.241 413.1C572.101 413.1 573.861 414.96 573.861 417.9C573.861 418.16 573.841 418.42 573.801 418.82H566.501C566.581 420.58 567.661 421.64 569.381 421.64C570.521 421.64 571.321 421.12 571.701 420.26H573.681C573.081 422.12 571.601 423.28 569.381 423.28ZM566.501 417.3H571.901V417.2C571.901 415.72 570.941 414.66 569.241 414.66C567.621 414.66 566.581 415.74 566.501 417.3ZM578.058 426.6C575.918 426.6 574.958 425.6 574.958 424.2C574.958 423.38 575.398 422.64 576.218 422.24C575.678 421.88 575.338 421.3 575.338 420.68C575.338 419.82 575.878 419.12 576.998 418.84C576.098 418.24 575.718 417.3 575.718 416.4C575.718 414.52 577.158 413.1 579.558 413.1C581.098 413.1 582.338 413.88 582.738 414.88V414.58C582.738 413.62 583.258 413.38 583.938 413.38H585.358V415.08H583.818C583.518 415.08 583.398 415.2 583.398 415.5V416.52C583.398 418.52 581.838 419.82 579.658 419.82H577.998C577.438 419.82 577.058 420.08 577.058 420.6C577.058 421.12 577.498 421.38 577.998 421.38H581.498C583.338 421.38 584.518 422.26 584.518 423.84C584.518 425.42 583.578 426.6 581.378 426.6H578.058ZM576.818 424.02C576.818 424.64 577.218 425.12 578.278 425.12H581.258C582.018 425.12 582.658 424.76 582.658 423.9C582.658 423.24 582.138 422.86 581.358 422.86H578.338C577.258 422.86 576.818 423.4 576.818 424.02ZM577.578 416.46C577.578 417.58 578.318 418.3 579.558 418.3C580.818 418.3 581.538 417.58 581.538 416.46C581.538 415.34 580.798 414.62 579.558 414.62C578.298 414.62 577.578 415.34 577.578 416.46ZM586.97 423V413.38H588.91V423H586.97ZM586.85 411.44V409.14H589.01V411.44H586.85ZM595.169 423.28C592.569 423.28 591.029 422.24 590.929 420.26H592.929C593.029 421.22 593.809 421.7 595.209 421.7C596.489 421.7 597.269 421.16 597.269 420.28C597.269 419.56 596.729 419.14 595.729 419.04L594.189 418.88C592.389 418.7 591.249 417.7 591.249 416.1C591.249 414.26 592.789 413.1 595.149 413.1C597.549 413.1 599.029 414.1 599.149 416.06H597.209C597.149 415.14 596.389 414.68 595.129 414.68C593.929 414.68 593.169 415.18 593.169 416C593.169 416.7 593.689 417.08 594.809 417.22L596.369 417.4C598.189 417.6 599.229 418.62 599.229 420.2C599.229 422.08 597.649 423.28 595.169 423.28ZM604.836 423C603.176 423 602.456 422.34 602.456 420.68V415.08H599.936V413.38H602.456V410.5H604.396V413.38H607.416V415.08H604.396V420.3C604.396 421 604.676 421.3 605.416 421.3H607.416V423H604.836ZM609.28 423V413.38H611V414.94C611.24 413.98 611.96 413.38 613.1 413.38H614.94V415.08H612.92C611.72 415.08 611.22 415.76 611.22 417.06V423H609.28ZM619.009 423.28C616.789 423.28 615.389 422.12 615.389 420.28C615.389 418.56 616.549 417.32 618.909 417.18L621.829 417.02V416.48C621.829 415.22 621.209 414.7 619.889 414.7C618.609 414.7 617.969 415.04 617.809 416.06H615.869C616.089 414.08 617.449 413.1 620.029 413.1C622.329 413.1 623.669 414.26 623.669 416.38V421.08C623.669 421.3 623.769 421.4 623.989 421.4H624.809V423H623.249C622.589 423 622.209 422.64 622.209 422V421.72C621.649 422.7 620.509 423.28 619.009 423.28ZM617.329 420.22C617.329 421.1 618.049 421.68 619.229 421.68C620.789 421.68 621.829 420.78 621.829 419.14V418.52L619.149 418.72C617.909 418.8 617.329 419.44 617.329 420.22ZM629.958 423C628.298 423 627.578 422.34 627.578 420.68V415.08H625.058V413.38H627.578V410.5H629.518V413.38H632.538V415.08H629.518V420.3C629.518 421 629.798 421.3 630.538 421.3H632.538V423H629.958ZM634.403 423V413.38H636.343V423H634.403ZM634.283 411.44V409.14H636.443V411.44H634.283ZM643.503 423.28C640.583 423.28 638.543 421.24 638.543 418.18C638.543 415.14 640.583 413.1 643.503 413.1C646.443 413.1 648.463 415.14 648.463 418.18C648.463 421.24 646.443 423.28 643.503 423.28ZM640.543 418.18C640.543 420.18 641.743 421.52 643.503 421.52C645.283 421.52 646.463 420.18 646.463 418.18C646.463 416.2 645.283 414.86 643.503 414.86C641.743 414.86 640.543 416.2 640.543 418.18ZM650.683 423V413.38H652.403V414.64C652.983 413.6 654.143 413.1 655.443 413.1C657.803 413.1 659.283 414.54 659.283 417.2V423H657.343V417.38C657.343 415.66 656.503 414.86 655.083 414.86C653.603 414.86 652.623 415.88 652.623 417.44V423H650.683Z" fill="white"/>
<path d="M544.458 461L549.798 447H552.498L557.838 461H555.638L554.138 456.92H548.138L546.638 461H544.458ZM548.798 455.1H553.478L551.138 448.74L548.798 455.1ZM562.963 461.28C560.623 461.28 559.183 459.84 559.183 457.18V451.38H561.123V457C561.123 458.72 561.923 459.52 563.323 459.52C564.783 459.52 565.723 458.48 565.723 456.94V451.38H567.663V461H565.943V459.9C565.303 460.84 564.203 461.28 562.963 461.28ZM574.11 461C572.45 461 571.73 460.34 571.73 458.68V453.08H569.21V451.38H571.73V448.5H573.67V451.38H576.69V453.08H573.67V458.3C573.67 459 573.95 459.3 574.69 459.3H576.69V461H574.11ZM578.555 461V447H580.495V452.32C581.135 451.5 582.155 451.1 583.315 451.1C585.675 451.1 587.155 452.54 587.155 455.2V461H585.215V455.38C585.215 453.66 584.375 452.86 582.955 452.86C581.475 452.86 580.495 453.88 580.495 455.44V461H578.555ZM594.178 461.28C591.258 461.28 589.218 459.24 589.218 456.18C589.218 453.14 591.258 451.1 594.178 451.1C597.118 451.1 599.138 453.14 599.138 456.18C599.138 459.24 597.118 461.28 594.178 461.28ZM591.218 456.18C591.218 458.18 592.418 459.52 594.178 459.52C595.958 459.52 597.138 458.18 597.138 456.18C597.138 454.2 595.958 452.86 594.178 452.86C592.418 452.86 591.218 454.2 591.218 456.18ZM601.358 461V451.38H603.078V452.94C603.318 451.98 604.038 451.38 605.178 451.38H607.018V453.08H604.998C603.798 453.08 603.298 453.76 603.298 455.06V461H601.358ZM608.462 461V451.38H610.402V461H608.462ZM608.342 449.44V447.14H610.502V449.44H608.342ZM616.661 461.28C614.061 461.28 612.521 460.24 612.421 458.26H614.421C614.521 459.22 615.301 459.7 616.701 459.7C617.981 459.7 618.761 459.16 618.761 458.28C618.761 457.56 618.221 457.14 617.221 457.04L615.681 456.88C613.881 456.7 612.741 455.7 612.741 454.1C612.741 452.26 614.281 451.1 616.641 451.1C619.041 451.1 620.521 452.1 620.641 454.06H618.701C618.641 453.14 617.881 452.68 616.621 452.68C615.421 452.68 614.661 453.18 614.661 454C614.661 454.7 615.181 455.08 616.301 455.22L617.861 455.4C619.681 455.6 620.721 456.62 620.721 458.2C620.721 460.08 619.141 461.28 616.661 461.28ZM625.764 461.28C623.544 461.28 622.144 460.12 622.144 458.28C622.144 456.56 623.304 455.32 625.664 455.18L628.584 455.02V454.48C628.584 453.22 627.964 452.7 626.644 452.7C625.364 452.7 624.724 453.04 624.564 454.06H622.624C622.844 452.08 624.204 451.1 626.784 451.1C629.084 451.1 630.424 452.26 630.424 454.38V459.08C630.424 459.3 630.524 459.4 630.744 459.4H631.564V461H630.004C629.344 461 628.964 460.64 628.964 460V459.72C628.404 460.7 627.264 461.28 625.764 461.28ZM624.084 458.22C624.084 459.1 624.804 459.68 625.984 459.68C627.544 459.68 628.584 458.78 628.584 457.14V456.52L625.904 456.72C624.664 456.8 624.084 457.44 624.084 458.22ZM636.714 461C635.054 461 634.334 460.34 634.334 458.68V453.08H631.814V451.38H634.334V448.5H636.274V451.38H639.294V453.08H636.274V458.3C636.274 459 636.554 459.3 637.294 459.3H639.294V461H636.714ZM641.158 461V451.38H643.098V461H641.158ZM641.038 449.44V447.14H643.198V449.44H641.038ZM650.258 461.28C647.338 461.28 645.298 459.24 645.298 456.18C645.298 453.14 647.338 451.1 650.258 451.1C653.198 451.1 655.218 453.14 655.218 456.18C655.218 459.24 653.198 461.28 650.258 461.28ZM647.298 456.18C647.298 458.18 648.498 459.52 650.258 459.52C652.038 459.52 653.218 458.18 653.218 456.18C653.218 454.2 652.038 452.86 650.258 452.86C648.498 452.86 647.298 454.2 647.298 456.18ZM657.438 461V451.38H659.158V452.64C659.738 451.6 660.898 451.1 662.198 451.1C664.558 451.1 666.038 452.54 666.038 455.2V461H664.098V455.38C664.098 453.66 663.258 452.86 661.838 452.86C660.358 452.86 659.378 453.88 659.378 455.44V461H657.438Z" fill="white"/>
<path d="M892.572 423V409H898.372C901.292 409 903.012 410.56 903.012 413.12C903.012 415.7 901.292 417.28 898.372 417.28H894.572V423H892.572ZM894.572 415.42H898.292C900.012 415.42 900.972 414.58 900.972 413.12C900.972 411.7 900.012 410.88 898.292 410.88H894.572V415.42ZM907.451 423.28C905.231 423.28 903.831 422.12 903.831 420.28C903.831 418.56 904.991 417.32 907.351 417.18L910.271 417.02V416.48C910.271 415.22 909.651 414.7 908.331 414.7C907.051 414.7 906.411 415.04 906.251 416.06H904.311C904.531 414.08 905.891 413.1 908.471 413.1C910.771 413.1 912.111 414.26 912.111 416.38V421.08C912.111 421.3 912.211 421.4 912.431 421.4H913.251V423H911.691C911.031 423 910.651 422.64 910.651 422V421.72C910.091 422.7 908.951 423.28 907.451 423.28ZM905.771 420.22C905.771 421.1 906.491 421.68 907.671 421.68C909.231 421.68 910.271 420.78 910.271 419.14V418.52L907.591 418.72C906.351 418.8 905.771 419.44 905.771 420.22ZM913.803 426.6V424.86H915.523C916.183 424.86 916.483 424.66 916.703 424.16L917.543 422.34L913.503 413.38H915.723L918.563 420.16L921.403 413.38H923.583L918.303 425.12C917.863 426.12 917.303 426.6 915.963 426.6H913.803ZM925.072 423V413.38H926.792V414.56C927.352 413.56 928.232 413.1 929.412 413.1C930.732 413.1 931.712 413.74 932.172 414.82C932.792 413.66 933.792 413.1 935.052 413.1C937.272 413.1 938.492 414.44 938.492 416.84V423H936.572V416.94C936.572 415.6 935.932 414.86 934.712 414.86C933.572 414.86 932.752 415.74 932.752 417V423H930.812V416.94C930.812 415.6 930.172 414.86 928.992 414.86C927.832 414.86 927.012 415.74 927.012 417V423H925.072ZM945.359 423.28C942.479 423.28 940.559 421.26 940.559 418.14C940.559 415.04 942.479 413.1 945.219 413.1C948.079 413.1 949.839 414.96 949.839 417.9C949.839 418.16 949.819 418.42 949.779 418.82H942.479C942.559 420.58 943.639 421.64 945.359 421.64C946.499 421.64 947.299 421.12 947.679 420.26H949.659C949.059 422.12 947.579 423.28 945.359 423.28ZM942.479 417.3H947.879V417.2C947.879 415.72 946.919 414.66 945.219 414.66C943.599 414.66 942.559 415.74 942.479 417.3ZM951.976 423V413.38H953.696V414.64C954.276 413.6 955.436 413.1 956.736 413.1C959.096 413.1 960.576 414.54 960.576 417.2V423H958.636V417.38C958.636 415.66 957.796 414.86 956.376 414.86C954.896 414.86 953.916 415.88 953.916 417.44V423H951.976ZM966.605 423C964.945 423 964.225 422.34 964.225 420.68V415.08H961.705V413.38H964.225V410.5H966.165V413.38H969.185V415.08H966.165V420.3C966.165 421 966.445 421.3 967.185 421.3H969.185V423H966.605Z" fill="white"/>
<path d="M882.816 461V447H884.816V461H882.816ZM887.805 461V451.38H889.525V452.64C890.105 451.6 891.265 451.1 892.565 451.1C894.925 451.1 896.405 452.54 896.405 455.2V461H894.465V455.38C894.465 453.66 893.625 452.86 892.205 452.86C890.725 452.86 889.745 453.88 889.745 455.44V461H887.805ZM902.433 461C900.773 461 900.053 460.34 900.053 458.68V453.08H897.533V451.38H900.053V448.5H901.993V451.38H905.013V453.08H901.993V458.3C901.993 459 902.273 459.3 903.013 459.3H905.013V461H902.433ZM910.823 461.28C907.943 461.28 906.023 459.26 906.023 456.14C906.023 453.04 907.943 451.1 910.683 451.1C913.543 451.1 915.303 452.96 915.303 455.9C915.303 456.16 915.283 456.42 915.243 456.82H907.943C908.023 458.58 909.103 459.64 910.823 459.64C911.963 459.64 912.763 459.12 913.143 458.26H915.123C914.523 460.12 913.043 461.28 910.823 461.28ZM907.943 455.3H913.343V455.2C913.343 453.72 912.383 452.66 910.683 452.66C909.063 452.66 908.023 453.74 907.943 455.3ZM917.44 461V451.38H919.16V452.94C919.4 451.98 920.12 451.38 921.26 451.38H923.1V453.08H921.08C919.88 453.08 919.38 453.76 919.38 455.06V461H917.44ZM927.168 461.28C924.948 461.28 923.548 460.12 923.548 458.28C923.548 456.56 924.708 455.32 927.068 455.18L929.988 455.02V454.48C929.988 453.22 929.368 452.7 928.048 452.7C926.768 452.7 926.128 453.04 925.968 454.06H924.028C924.248 452.08 925.608 451.1 928.188 451.1C930.488 451.1 931.828 452.26 931.828 454.38V459.08C931.828 459.3 931.928 459.4 932.148 459.4H932.968V461H931.408C930.748 461 930.368 460.64 930.368 460V459.72C929.808 460.7 928.668 461.28 927.168 461.28ZM925.488 458.22C925.488 459.1 926.208 459.68 927.388 459.68C928.948 459.68 929.988 458.78 929.988 457.14V456.52L927.308 456.72C926.068 456.8 925.488 457.44 925.488 458.22ZM938.893 461.28C936.013 461.28 934.153 459.14 934.153 456.22C934.153 453.22 936.113 451.1 939.013 451.1C941.453 451.1 943.113 452.52 943.333 454.54H941.353C941.173 453.64 940.373 452.86 938.993 452.86C937.273 452.86 936.153 454.16 936.153 456.18C936.153 458.24 937.293 459.52 938.953 459.52C940.253 459.52 941.193 458.76 941.393 457.64H943.373C943.113 459.56 941.513 461.28 938.893 461.28ZM948.797 461C947.137 461 946.417 460.34 946.417 458.68V453.08H943.897V451.38H946.417V448.5H948.357V451.38H951.377V453.08H948.357V458.3C948.357 459 948.637 459.3 949.377 459.3H951.377V461H948.797ZM953.241 461V451.38H955.181V461H953.241ZM953.121 449.44V447.14H955.281V449.44H953.121ZM962.341 461.28C959.421 461.28 957.381 459.24 957.381 456.18C957.381 453.14 959.421 451.1 962.341 451.1C965.281 451.1 967.301 453.14 967.301 456.18C967.301 459.24 965.281 461.28 962.341 461.28ZM959.381 456.18C959.381 458.18 960.581 459.52 962.341 459.52C964.121 459.52 965.301 458.18 965.301 456.18C965.301 454.2 964.121 452.86 962.341 452.86C960.581 452.86 959.381 454.2 959.381 456.18ZM969.521 461V451.38H971.241V452.64C971.821 451.6 972.981 451.1 974.281 451.1C976.641 451.1 978.121 452.54 978.121 455.2V461H976.181V455.38C976.181 453.66 975.341 452.86 973.921 452.86C972.441 452.86 971.461 453.88 971.461 455.44V461H969.521Z" fill="white"/>
<path d="M1235.89 423V416.58H1228.91V423H1226.91V409H1228.91V414.7H1235.89V409H1237.89V423H1235.89ZM1243.8 423.28C1241.58 423.28 1240.18 422.12 1240.18 420.28C1240.18 418.56 1241.34 417.32 1243.7 417.18L1246.62 417.02V416.48C1246.62 415.22 1246 414.7 1244.68 414.7C1243.4 414.7 1242.76 415.04 1242.6 416.06H1240.66C1240.88 414.08 1242.24 413.1 1244.82 413.1C1247.12 413.1 1248.46 414.26 1248.46 416.38V421.08C1248.46 421.3 1248.56 421.4 1248.78 421.4H1249.6V423H1248.04C1247.38 423 1247 422.64 1247 422V421.72C1246.44 422.7 1245.3 423.28 1243.8 423.28ZM1242.12 420.22C1242.12 421.1 1242.84 421.68 1244.02 421.68C1245.58 421.68 1246.62 420.78 1246.62 419.14V418.52L1243.94 418.72C1242.7 418.8 1242.12 419.44 1242.12 420.22ZM1256.51 423.28C1255.01 423.28 1253.79 422.68 1253.17 421.62V423H1251.45V409H1253.39V414.54C1254.01 413.62 1255.13 413.1 1256.51 413.1C1259.25 413.1 1261.13 415.14 1261.13 418.18C1261.13 421.24 1259.25 423.28 1256.51 423.28ZM1253.35 418.18C1253.35 420.18 1254.49 421.52 1256.23 421.52C1257.97 421.52 1259.13 420.18 1259.13 418.18C1259.13 416.2 1257.97 414.86 1256.23 414.86C1254.49 414.86 1253.35 416.2 1253.35 418.18ZM1263.38 423V413.38H1265.32V423H1263.38ZM1263.26 411.44V409.14H1265.42V411.44H1263.26ZM1271.76 423C1270.1 423 1269.38 422.34 1269.38 420.68V415.08H1266.86V413.38H1269.38V410.5H1271.32V413.38H1274.34V415.08H1271.32V420.3C1271.32 421 1271.6 421.3 1272.34 421.3H1274.34V423H1271.76ZM1279.58 423.28C1276.98 423.28 1275.44 422.24 1275.34 420.26H1277.34C1277.44 421.22 1278.22 421.7 1279.62 421.7C1280.9 421.7 1281.68 421.16 1281.68 420.28C1281.68 419.56 1281.14 419.14 1280.14 419.04L1278.6 418.88C1276.8 418.7 1275.66 417.7 1275.66 416.1C1275.66 414.26 1277.2 413.1 1279.56 413.1C1281.96 413.1 1283.44 414.1 1283.56 416.06H1281.62C1281.56 415.14 1280.8 414.68 1279.54 414.68C1278.34 414.68 1277.58 415.18 1277.58 416C1277.58 416.7 1278.1 417.08 1279.22 417.22L1280.78 417.4C1282.6 417.6 1283.64 418.62 1283.64 420.2C1283.64 422.08 1282.06 423.28 1279.58 423.28Z" fill="white"/>
<path d="M1197.9 461V447H1200.34L1206.88 457.9V447H1208.88V461H1206.44L1199.9 450.08V461H1197.9ZM1216.19 461.28C1213.27 461.28 1211.23 459.24 1211.23 456.18C1211.23 453.14 1213.27 451.1 1216.19 451.1C1219.13 451.1 1221.15 453.14 1221.15 456.18C1221.15 459.24 1219.13 461.28 1216.19 461.28ZM1213.23 456.18C1213.23 458.18 1214.43 459.52 1216.19 459.52C1217.97 459.52 1219.15 458.18 1219.15 456.18C1219.15 454.2 1217.97 452.86 1216.19 452.86C1214.43 452.86 1213.23 454.2 1213.23 456.18ZM1226.67 461C1225.01 461 1224.29 460.34 1224.29 458.68V453.08H1221.77V451.38H1224.29V448.5H1226.23V451.38H1229.25V453.08H1226.23V458.3C1226.23 459 1226.51 459.3 1227.25 459.3H1229.25V461H1226.67ZM1231.12 461V451.38H1233.06V461H1231.12ZM1231 449.44V447.14H1233.16V449.44H1231ZM1237.18 449.62C1237.18 447.94 1238.16 447 1239.82 447H1242.94V448.7H1240.22C1239.52 448.7 1239.1 449.06 1239.1 449.82V451.38H1242.34V453.08H1239.1V461H1237.18V453.08H1234.64V451.38H1237.18V449.62ZM1244.1 461V451.38H1246.04V461H1244.1ZM1243.98 449.44V447.14H1246.14V449.44H1243.98ZM1252.98 461.28C1250.1 461.28 1248.24 459.14 1248.24 456.22C1248.24 453.22 1250.2 451.1 1253.1 451.1C1255.54 451.1 1257.2 452.52 1257.42 454.54H1255.44C1255.26 453.64 1254.46 452.86 1253.08 452.86C1251.36 452.86 1250.24 454.16 1250.24 456.18C1250.24 458.24 1251.38 459.52 1253.04 459.52C1254.34 459.52 1255.28 458.76 1255.48 457.64H1257.46C1257.2 459.56 1255.6 461.28 1252.98 461.28ZM1262.26 461.28C1260.04 461.28 1258.64 460.12 1258.64 458.28C1258.64 456.56 1259.8 455.32 1262.16 455.18L1265.08 455.02V454.48C1265.08 453.22 1264.46 452.7 1263.14 452.7C1261.86 452.7 1261.22 453.04 1261.06 454.06H1259.12C1259.34 452.08 1260.7 451.1 1263.28 451.1C1265.58 451.1 1266.92 452.26 1266.92 454.38V459.08C1266.92 459.3 1267.02 459.4 1267.24 459.4H1268.06V461H1266.5C1265.84 461 1265.46 460.64 1265.46 460V459.72C1264.9 460.7 1263.76 461.28 1262.26 461.28ZM1260.58 458.22C1260.58 459.1 1261.3 459.68 1262.48 459.68C1264.04 459.68 1265.08 458.78 1265.08 457.14V456.52L1262.4 456.72C1261.16 456.8 1260.58 457.44 1260.58 458.22ZM1273.21 461C1271.55 461 1270.83 460.34 1270.83 458.68V453.08H1268.31V451.38H1270.83V448.5H1272.77V451.38H1275.79V453.08H1272.77V458.3C1272.77 459 1273.05 459.3 1273.79 459.3H1275.79V461H1273.21ZM1277.65 461V451.38H1279.59V461H1277.65ZM1277.53 449.44V447.14H1279.69V449.44H1277.53ZM1286.75 461.28C1283.83 461.28 1281.79 459.24 1281.79 456.18C1281.79 453.14 1283.83 451.1 1286.75 451.1C1289.69 451.1 1291.71 453.14 1291.71 456.18C1291.71 459.24 1289.69 461.28 1286.75 461.28ZM1283.79 456.18C1283.79 458.18 1284.99 459.52 1286.75 459.52C1288.53 459.52 1289.71 458.18 1289.71 456.18C1289.71 454.2 1288.53 452.86 1286.75 452.86C1284.99 452.86 1283.79 454.2 1283.79 456.18ZM1293.93 461V451.38H1295.65V452.64C1296.23 451.6 1297.39 451.1 1298.69 451.1C1301.05 451.1 1302.53 452.54 1302.53 455.2V461H1300.59V455.38C1300.59 453.66 1299.75 452.86 1298.33 452.86C1296.85 452.86 1295.87 453.88 1295.87 455.44V461H1293.93ZM1308.6 461.28C1306 461.28 1304.46 460.24 1304.36 458.26H1306.36C1306.46 459.22 1307.24 459.7 1308.64 459.7C1309.92 459.7 1310.7 459.16 1310.7 458.28C1310.7 457.56 1310.16 457.14 1309.16 457.04L1307.62 456.88C1305.82 456.7 1304.68 455.7 1304.68 454.1C1304.68 452.26 1306.22 451.1 1308.58 451.1C1310.98 451.1 1312.46 452.1 1312.58 454.06H1310.64C1310.58 453.14 1309.82 452.68 1308.56 452.68C1307.36 452.68 1306.6 453.18 1306.6 454C1306.6 454.7 1307.12 455.08 1308.24 455.22L1309.8 455.4C1311.62 455.6 1312.66 456.62 1312.66 458.2C1312.66 460.08 1311.08 461.28 1308.6 461.28Z" fill="white"/>
<path d="M1407 515L1402 512.113V517.887L1407 515ZM129 515.5L1402.5 515.5V514.5L129 514.5V515.5Z" fill="#0D0D0D"/>
<path d="M443.5 255L440.613 260L446.387 260L443.5 255ZM444 596L444 259.5L443 259.5L443 596L444 596Z" fill="#0D0D0D"/>
<path d="M324.28 594V584.2H325.988L330.566 591.83V584.2H331.966V594H330.258L325.68 586.356V594H324.28ZM336.775 594.196C335.137 594.196 334.129 593.188 334.129 591.326V587.266H335.487V591.2C335.487 592.404 336.047 592.964 337.027 592.964C338.049 592.964 338.707 592.236 338.707 591.158V587.266H340.065V594H338.861V593.23C338.413 593.888 337.643 594.196 336.775 594.196ZM342.145 594V587.266H343.349V588.092C343.741 587.392 344.357 587.07 345.183 587.07C346.107 587.07 346.793 587.518 347.115 588.274C347.549 587.462 348.249 587.07 349.131 587.07C350.685 587.07 351.539 588.008 351.539 589.688V594H350.195V589.758C350.195 588.82 349.747 588.302 348.893 588.302C348.095 588.302 347.521 588.918 347.521 589.8V594H346.163V589.758C346.163 588.82 345.715 588.302 344.889 588.302C344.077 588.302 343.503 588.918 343.503 589.8V594H342.145ZM357.116 594.196C356.066 594.196 355.212 593.776 354.778 593.034V594H353.574V584.2H354.932V588.078C355.366 587.434 356.15 587.07 357.116 587.07C359.034 587.07 360.35 588.498 360.35 590.626C360.35 592.768 359.034 594.196 357.116 594.196ZM354.904 590.626C354.904 592.026 355.702 592.964 356.92 592.964C358.138 592.964 358.95 592.026 358.95 590.626C358.95 589.24 358.138 588.302 356.92 588.302C355.702 588.302 354.904 589.24 354.904 590.626ZM364.99 594.196C362.974 594.196 361.63 592.782 361.63 590.598C361.63 588.428 362.974 587.07 364.892 587.07C366.894 587.07 368.126 588.372 368.126 590.43C368.126 590.612 368.112 590.794 368.084 591.074H362.974C363.03 592.306 363.786 593.048 364.99 593.048C365.788 593.048 366.348 592.684 366.614 592.082H368C367.58 593.384 366.544 594.196 364.99 594.196ZM362.974 590.01H366.754V589.94C366.754 588.904 366.082 588.162 364.892 588.162C363.758 588.162 363.03 588.918 362.974 590.01ZM369.762 594V587.266H370.966V588.358C371.134 587.686 371.638 587.266 372.436 587.266H373.724V588.456H372.31C371.47 588.456 371.12 588.932 371.12 589.842V594H369.762ZM381.604 594.196C379.56 594.196 378.132 592.768 378.132 590.626C378.132 588.498 379.56 587.07 381.604 587.07C383.662 587.07 385.076 588.498 385.076 590.626C385.076 592.768 383.662 594.196 381.604 594.196ZM379.532 590.626C379.532 592.026 380.372 592.964 381.604 592.964C382.85 592.964 383.676 592.026 383.676 590.626C383.676 589.24 382.85 588.302 381.604 588.302C380.372 588.302 379.532 589.24 379.532 590.626ZM387.418 586.034C387.418 584.858 388.104 584.2 389.266 584.2H391.45V585.39H389.546C389.056 585.39 388.762 585.642 388.762 586.174V587.266H391.03V588.456H388.762V594H387.418V588.456H385.64V587.266H387.418V586.034ZM399.737 594.196C397.413 594.196 396.013 592.74 396.013 590.318V584.2H397.413V590.234C397.413 591.942 398.267 592.88 399.737 592.88C401.207 592.88 402.061 591.942 402.061 590.234V584.2H403.475V590.318C403.475 592.74 402.075 594.196 399.737 594.196ZM407.989 594.196C406.169 594.196 405.091 593.468 405.021 592.082H406.421C406.491 592.754 407.037 593.09 408.017 593.09C408.913 593.09 409.459 592.712 409.459 592.096C409.459 591.592 409.081 591.298 408.381 591.228L407.303 591.116C406.043 590.99 405.245 590.29 405.245 589.17C405.245 587.882 406.323 587.07 407.975 587.07C409.655 587.07 410.691 587.77 410.775 589.142H409.417C409.375 588.498 408.843 588.176 407.961 588.176C407.121 588.176 406.589 588.526 406.589 589.1C406.589 589.59 406.953 589.856 407.737 589.954L408.829 590.08C410.103 590.22 410.831 590.934 410.831 592.04C410.831 593.356 409.725 594.196 407.989 594.196ZM415.398 594.196C413.382 594.196 412.038 592.782 412.038 590.598C412.038 588.428 413.382 587.07 415.3 587.07C417.302 587.07 418.534 588.372 418.534 590.43C418.534 590.612 418.52 590.794 418.492 591.074H413.382C413.438 592.306 414.194 593.048 415.398 593.048C416.196 593.048 416.756 592.684 417.022 592.082H418.408C417.988 593.384 416.952 594.196 415.398 594.196ZM413.382 590.01H417.162V589.94C417.162 588.904 416.49 588.162 415.3 588.162C414.166 588.162 413.438 588.918 413.382 590.01ZM420.17 594V587.266H421.374V588.358C421.542 587.686 422.046 587.266 422.844 587.266H424.132V588.456H422.718C421.878 588.456 421.528 588.932 421.528 589.842V594H420.17ZM427.635 594.196C425.815 594.196 424.737 593.468 424.667 592.082H426.067C426.137 592.754 426.683 593.09 427.663 593.09C428.559 593.09 429.105 592.712 429.105 592.096C429.105 591.592 428.727 591.298 428.027 591.228L426.949 591.116C425.689 590.99 424.891 590.29 424.891 589.17C424.891 587.882 425.969 587.07 427.621 587.07C429.301 587.07 430.337 587.77 430.421 589.142H429.063C429.021 588.498 428.489 588.176 427.607 588.176C426.767 588.176 426.235 588.526 426.235 589.1C426.235 589.59 426.599 589.856 427.383 589.954L428.475 590.08C429.749 590.22 430.477 590.934 430.477 592.04C430.477 593.356 429.371 594.196 427.635 594.196Z" fill="#0D0D0D"/>
<path d="M132.332 539V530.516H129.252V529.2H136.812V530.516H133.732V539H132.332ZM138.063 539V532.266H139.421V539H138.063ZM137.979 530.908V529.298H139.491V530.908H137.979ZM141.535 539V532.266H142.739V533.092C143.131 532.392 143.747 532.07 144.573 532.07C145.497 532.07 146.183 532.518 146.505 533.274C146.939 532.462 147.639 532.07 148.521 532.07C150.075 532.07 150.929 533.008 150.929 534.688V539H149.585V534.758C149.585 533.82 149.137 533.302 148.283 533.302C147.485 533.302 146.911 533.918 146.911 534.8V539H145.553V534.758C145.553 533.82 145.105 533.302 144.279 533.302C143.467 533.302 142.893 533.918 142.893 534.8V539H141.535ZM155.877 539.196C153.861 539.196 152.517 537.782 152.517 535.598C152.517 533.428 153.861 532.07 155.779 532.07C157.781 532.07 159.013 533.372 159.013 535.43C159.013 535.612 158.999 535.794 158.971 536.074H153.861C153.917 537.306 154.673 538.048 155.877 538.048C156.675 538.048 157.235 537.684 157.501 537.082H158.887C158.467 538.384 157.431 539.196 155.877 539.196ZM153.861 535.01H157.641V534.94C157.641 533.904 156.969 533.162 155.779 533.162C154.645 533.162 153.917 533.918 153.861 535.01Z" fill="#0D0D0D"/>
<path d="M1363.78 594L1360.25 584.2H1361.82L1364.73 592.474L1367.63 584.2H1369.21L1365.68 594H1363.78ZM1370.54 594V587.266H1371.9V594H1370.54ZM1370.46 585.908V584.298H1371.97V585.908H1370.46ZM1374.01 594V587.266H1375.22V588.358C1375.38 587.686 1375.89 587.266 1376.69 587.266H1377.97V588.456H1376.56C1375.72 588.456 1375.37 588.932 1375.37 589.842V594H1374.01ZM1380.96 594.196C1379.41 594.196 1378.43 593.384 1378.43 592.096C1378.43 590.892 1379.24 590.024 1380.89 589.926L1382.94 589.814V589.436C1382.94 588.554 1382.5 588.19 1381.58 588.19C1380.68 588.19 1380.23 588.428 1380.12 589.142H1378.76C1378.92 587.756 1379.87 587.07 1381.68 587.07C1383.29 587.07 1384.22 587.882 1384.22 589.366V592.656C1384.22 592.81 1384.29 592.88 1384.45 592.88H1385.02V594H1383.93C1383.47 594 1383.2 593.748 1383.2 593.3V593.104C1382.81 593.79 1382.01 594.196 1380.96 594.196ZM1379.79 592.054C1379.79 592.67 1380.29 593.076 1381.12 593.076C1382.21 593.076 1382.94 592.446 1382.94 591.298V590.864L1381.06 591.004C1380.19 591.06 1379.79 591.508 1379.79 592.054ZM1387.81 594C1386.86 594 1386.45 593.636 1386.45 592.726V584.2H1387.81V592.306C1387.81 592.656 1387.94 592.81 1388.29 592.81H1389.14V594H1387.81ZM1390.53 594V587.266H1391.89V594H1390.53ZM1390.44 585.908V584.298H1391.96V585.908H1390.44ZM1396.53 594C1395.37 594 1394.87 593.538 1394.87 592.376V588.456H1393.1V587.266H1394.87V585.25H1396.22V587.266H1398.34V588.456H1396.22V592.11C1396.22 592.6 1396.42 592.81 1396.94 592.81H1398.34V594H1396.53ZM1399.11 596.52V595.302H1400.31C1400.78 595.302 1400.99 595.162 1401.14 594.812L1401.73 593.538L1398.9 587.266H1400.45L1402.44 592.012L1404.43 587.266H1405.96L1402.26 595.484C1401.95 596.184 1401.56 596.52 1400.62 596.52H1399.11Z" fill="#8B8A88"/>
<path d="M129 570L134 572.887V567.113L129 570ZM133.5 570.5H148.969V569.5H133.5V570.5ZM188.906 570.5H228.844V569.5H188.906V570.5ZM268.781 570.5H308.719V569.5H268.781V570.5ZM348.656 570.5H388.594V569.5H348.656V570.5ZM428.531 570.5H468.469V569.5H428.531V570.5ZM508.406 570.5H548.344V569.5H508.406V570.5ZM588.281 570.5H628.219V569.5H588.281V570.5ZM668.156 570.5H708.094V569.5H668.156V570.5ZM748.031 570.5H787.969V569.5H748.031V570.5ZM827.906 570.5H867.844V569.5H827.906V570.5ZM907.781 570.5H947.719V569.5H907.781V570.5ZM987.656 570.5H1027.59V569.5H987.656V570.5ZM1067.53 570.5H1107.47V569.5H1067.53V570.5ZM1147.41 570.5H1187.34V569.5H1147.41V570.5ZM1227.28 570.5H1267.22V569.5H1227.28V570.5ZM1307.16 570.5H1347.09V569.5H1307.16V570.5ZM1387.03 570.5H1407V569.5H1387.03V570.5ZM129 570L134 572.887V567.113L129 570ZM133.5 570.5H148.969V569.5H133.5V570.5ZM188.906 570.5H228.844V569.5H188.906V570.5ZM268.781 570.5H308.719V569.5H268.781V570.5ZM348.656 570.5H388.594V569.5H348.656V570.5ZM428.531 570.5H468.469V569.5H428.531V570.5ZM508.406 570.5H548.344V569.5H508.406V570.5ZM588.281 570.5H628.219V569.5H588.281V570.5ZM668.156 570.5H708.094V569.5H668.156V570.5ZM748.031 570.5H787.969V569.5H748.031V570.5ZM827.906 570.5H867.844V569.5H827.906V570.5ZM907.781 570.5H947.719V569.5H907.781V570.5ZM987.656 570.5H1027.59V569.5H987.656V570.5ZM1067.53 570.5H1107.47V569.5H1067.53V570.5ZM1147.41 570.5H1187.34V569.5H1147.41V570.5ZM1227.28 570.5H1267.22V569.5H1227.28V570.5ZM1307.16 570.5H1347.09V569.5H1307.16V570.5ZM1387.03 570.5H1407V569.5H1387.03V570.5Z" fill="#8B8A88"/>
</svg>
