<svg width="1536" height="760" viewBox="0 0 1536 760" fill="none" xmlns="http://www.w3.org/2000/svg">
<g clip-path="url(#clip0_4638_113693)">
<path d="M249.425 187.336C245.273 187.336 242.777 185.248 242.753 181.864H245.225C245.249 183.904 246.833 185.2 249.425 185.2C251.729 185.2 253.193 184 253.193 182.176C253.193 180.712 252.257 179.824 250.337 179.56L248.129 179.248C244.913 178.816 243.305 177.232 243.305 174.712C243.305 171.76 245.681 169.864 249.305 169.864C253.073 169.864 255.377 171.688 255.449 174.616H252.977C252.905 172.984 251.513 171.976 249.305 171.976C247.193 171.976 245.801 172.984 245.801 174.568C245.801 175.936 246.785 176.704 248.849 176.992L250.937 177.28C254.057 177.712 255.689 179.32 255.689 182.032C255.689 185.248 253.313 187.336 249.425 187.336ZM262.67 187C260.678 187 259.814 186.208 259.814 184.216V177.496H256.79V175.456H259.814V172H262.142V175.456H265.766V177.496H262.142V183.76C262.142 184.6 262.478 184.96 263.366 184.96H265.766V187H262.67ZM271.387 187.336C268.723 187.336 267.043 185.944 267.043 183.736C267.043 181.672 268.435 180.184 271.267 180.016L274.771 179.824V179.176C274.771 177.664 274.027 177.04 272.443 177.04C270.907 177.04 270.139 177.448 269.947 178.672H267.619C267.883 176.296 269.515 175.12 272.611 175.12C275.371 175.12 276.979 176.512 276.979 179.056V184.696C276.979 184.96 277.099 185.08 277.363 185.08H278.347V187H276.475C275.683 187 275.227 186.568 275.227 185.8V185.464C274.555 186.64 273.187 187.336 271.387 187.336ZM269.371 183.664C269.371 184.72 270.235 185.416 271.651 185.416C273.523 185.416 274.771 184.336 274.771 182.368V181.624L271.555 181.864C270.067 181.96 269.371 182.728 269.371 183.664ZM280.561 187V175.456H282.625V177.328C282.913 176.176 283.777 175.456 285.145 175.456H287.353V177.496H284.929C283.489 177.496 282.889 178.312 282.889 179.872V187H280.561ZM294.224 187C292.232 187 291.368 186.208 291.368 184.216V177.496H288.344V175.456H291.368V172H293.696V175.456H297.32V177.496H293.696V183.76C293.696 184.6 294.032 184.96 294.92 184.96H297.32V187H294.224ZM311.313 187.336C307.161 187.336 304.665 185.248 304.641 181.864H307.113C307.137 183.904 308.721 185.2 311.313 185.2C313.617 185.2 315.081 184 315.081 182.176C315.081 180.712 314.145 179.824 312.225 179.56L310.017 179.248C306.801 178.816 305.193 177.232 305.193 174.712C305.193 171.76 307.569 169.864 311.193 169.864C314.961 169.864 317.265 171.688 317.337 174.616H314.865C314.793 172.984 313.401 171.976 311.193 171.976C309.081 171.976 307.689 172.984 307.689 174.568C307.689 175.936 308.673 176.704 310.737 176.992L312.825 177.28C315.945 177.712 317.577 179.32 317.577 182.032C317.577 185.248 315.201 187.336 311.313 187.336ZM320.359 187V175.456H322.687V187H320.359ZM320.215 173.128V170.368H322.807V173.128H320.215ZM328.661 191.32C326.093 191.32 324.941 190.12 324.941 188.44C324.941 187.456 325.469 186.568 326.453 186.088C325.805 185.656 325.397 184.96 325.397 184.216C325.397 183.184 326.045 182.344 327.389 182.008C326.309 181.288 325.853 180.16 325.853 179.08C325.853 176.824 327.581 175.12 330.461 175.12C332.309 175.12 333.797 176.056 334.277 177.256V176.896C334.277 175.744 334.901 175.456 335.717 175.456H337.421V177.496H335.573C335.213 177.496 335.069 177.64 335.069 178V179.224C335.069 181.624 333.197 183.184 330.581 183.184H328.589C327.917 183.184 327.461 183.496 327.461 184.12C327.461 184.744 327.989 185.056 328.589 185.056H332.789C334.997 185.056 336.413 186.112 336.413 188.008C336.413 189.904 335.285 191.32 332.645 191.32H328.661ZM327.173 188.224C327.173 188.968 327.653 189.544 328.925 189.544H332.501C333.413 189.544 334.181 189.112 334.181 188.08C334.181 187.288 333.557 186.832 332.621 186.832H328.997C327.701 186.832 327.173 187.48 327.173 188.224ZM328.085 179.152C328.085 180.496 328.973 181.36 330.461 181.36C331.973 181.36 332.837 180.496 332.837 179.152C332.837 177.808 331.949 176.944 330.461 176.944C328.949 176.944 328.085 177.808 328.085 179.152ZM339.355 187V175.456H341.419V176.968C342.115 175.72 343.507 175.12 345.067 175.12C347.899 175.12 349.675 176.848 349.675 180.04V187H347.347V180.256C347.347 178.192 346.339 177.232 344.635 177.232C342.859 177.232 341.683 178.456 341.683 180.328V187H339.355ZM352.227 181.864V179.632H359.523V181.864H352.227ZM366.584 187.336C363.776 187.336 362.048 185.608 362.048 182.416V175.456H364.376V182.2C364.376 184.264 365.336 185.224 367.016 185.224C368.768 185.224 369.896 183.976 369.896 182.128V175.456H372.224V187H370.16V185.68C369.392 186.808 368.072 187.336 366.584 187.336ZM375.573 191.32V175.456H377.637V177.088C378.381 175.84 379.845 175.12 381.645 175.12C384.933 175.12 387.189 177.568 387.189 181.216C387.189 184.888 384.933 187.336 381.645 187.336C379.989 187.336 378.645 186.712 377.901 185.584V191.32H375.573ZM377.853 181.216C377.853 183.616 379.221 185.224 381.309 185.224C383.397 185.224 384.789 183.616 384.789 181.216C384.789 178.84 383.397 177.232 381.309 177.232C379.221 177.232 377.853 178.84 377.853 181.216Z" fill="#0D0D0D"/>
<path d="M679.037 187.336C674.573 187.336 671.501 184.408 671.501 178.624C671.501 172.84 674.453 169.864 679.085 169.864C682.733 169.864 685.229 171.976 685.733 175.576H683.213C682.853 173.368 681.197 172.096 679.085 172.096C676.013 172.096 673.973 174.088 673.973 178.576C673.973 183.016 676.109 185.104 679.037 185.104C681.365 185.104 682.829 183.544 683.213 181.384H685.709C685.133 184.864 682.829 187.336 679.037 187.336ZM693.424 187.336C689.92 187.336 687.472 184.888 687.472 181.216C687.472 177.568 689.92 175.12 693.424 175.12C696.952 175.12 699.376 177.568 699.376 181.216C699.376 184.888 696.952 187.336 693.424 187.336ZM689.872 181.216C689.872 183.616 691.312 185.224 693.424 185.224C695.56 185.224 696.976 183.616 696.976 181.216C696.976 178.84 695.56 177.232 693.424 177.232C691.312 177.232 689.872 178.84 689.872 181.216ZM702.04 187V175.456H704.104V176.872C704.776 175.672 705.832 175.12 707.248 175.12C708.832 175.12 710.008 175.888 710.56 177.184C711.304 175.792 712.504 175.12 714.016 175.12C716.68 175.12 718.144 176.728 718.144 179.608V187H715.84V179.728C715.84 178.12 715.072 177.232 713.608 177.232C712.24 177.232 711.256 178.288 711.256 179.8V187H708.928V179.728C708.928 178.12 708.16 177.232 706.744 177.232C705.352 177.232 704.368 178.288 704.368 179.8V187H702.04ZM721.393 191.32V175.456H723.457V177.088C724.201 175.84 725.665 175.12 727.465 175.12C730.753 175.12 733.009 177.568 733.009 181.216C733.009 184.888 730.753 187.336 727.465 187.336C725.809 187.336 724.465 186.712 723.721 185.584V191.32H721.393ZM723.673 181.216C723.673 183.616 725.041 185.224 727.129 185.224C729.217 185.224 730.609 183.616 730.609 181.216C730.609 178.84 729.217 177.232 727.129 177.232C725.041 177.232 723.673 178.84 723.673 181.216ZM738.013 187C736.381 187 735.685 186.376 735.685 184.816V170.2H738.013V184.096C738.013 184.696 738.229 184.96 738.829 184.96H740.293V187H738.013ZM747.163 187.336C743.707 187.336 741.403 184.912 741.403 181.168C741.403 177.448 743.707 175.12 746.995 175.12C750.427 175.12 752.539 177.352 752.539 180.88C752.539 181.192 752.515 181.504 752.467 181.984H743.707C743.803 184.096 745.099 185.368 747.163 185.368C748.531 185.368 749.491 184.744 749.947 183.712H752.323C751.603 185.944 749.827 187.336 747.163 187.336ZM743.707 180.16H750.187V180.04C750.187 178.264 749.035 176.992 746.995 176.992C745.051 176.992 743.803 178.288 743.707 180.16ZM759.209 187C757.217 187 756.353 186.208 756.353 184.216V177.496H753.329V175.456H756.353V172H758.681V175.456H762.305V177.496H758.681V183.76C758.681 184.6 759.017 184.96 759.905 184.96H762.305V187H759.209ZM769.276 187.336C765.82 187.336 763.516 184.912 763.516 181.168C763.516 177.448 765.82 175.12 769.108 175.12C772.54 175.12 774.652 177.352 774.652 180.88C774.652 181.192 774.628 181.504 774.58 181.984H765.82C765.916 184.096 767.212 185.368 769.276 185.368C770.644 185.368 771.604 184.744 772.06 183.712H774.436C773.716 185.944 771.94 187.336 769.276 187.336ZM765.82 180.16H772.3V180.04C772.3 178.264 771.148 176.992 769.108 176.992C767.164 176.992 765.916 178.288 765.82 180.16ZM788.926 187.336C784.774 187.336 782.278 185.248 782.254 181.864H784.726C784.75 183.904 786.334 185.2 788.926 185.2C791.23 185.2 792.694 184 792.694 182.176C792.694 180.712 791.758 179.824 789.838 179.56L787.63 179.248C784.414 178.816 782.806 177.232 782.806 174.712C782.806 171.76 785.182 169.864 788.806 169.864C792.574 169.864 794.878 171.688 794.95 174.616H792.478C792.406 172.984 791.014 171.976 788.806 171.976C786.694 171.976 785.302 172.984 785.302 174.568C785.302 175.936 786.286 176.704 788.35 176.992L790.438 177.28C793.558 177.712 795.19 179.32 795.19 182.032C795.19 185.248 792.814 187.336 788.926 187.336ZM797.971 187V175.456H800.299V187H797.971ZM797.827 173.128V170.368H800.419V173.128H797.827ZM806.274 191.32C803.706 191.32 802.554 190.12 802.554 188.44C802.554 187.456 803.082 186.568 804.066 186.088C803.418 185.656 803.01 184.96 803.01 184.216C803.01 183.184 803.658 182.344 805.002 182.008C803.922 181.288 803.466 180.16 803.466 179.08C803.466 176.824 805.194 175.12 808.074 175.12C809.922 175.12 811.41 176.056 811.89 177.256V176.896C811.89 175.744 812.514 175.456 813.33 175.456H815.034V177.496H813.186C812.826 177.496 812.682 177.64 812.682 178V179.224C812.682 181.624 810.81 183.184 808.194 183.184H806.202C805.53 183.184 805.074 183.496 805.074 184.12C805.074 184.744 805.602 185.056 806.202 185.056H810.402C812.61 185.056 814.026 186.112 814.026 188.008C814.026 189.904 812.898 191.32 810.258 191.32H806.274ZM804.786 188.224C804.786 188.968 805.266 189.544 806.538 189.544H810.114C811.026 189.544 811.794 189.112 811.794 188.08C811.794 187.288 811.17 186.832 810.234 186.832H806.61C805.314 186.832 804.786 187.48 804.786 188.224ZM805.698 179.152C805.698 180.496 806.586 181.36 808.074 181.36C809.586 181.36 810.45 180.496 810.45 179.152C810.45 177.808 809.562 176.944 808.074 176.944C806.562 176.944 805.698 177.808 805.698 179.152ZM816.968 187V175.456H819.032V176.968C819.728 175.72 821.12 175.12 822.68 175.12C825.512 175.12 827.288 176.848 827.288 180.04V187H824.96V180.256C824.96 178.192 823.952 177.232 822.248 177.232C820.472 177.232 819.296 178.456 819.296 180.328V187H816.968ZM829.84 181.864V179.632H837.136V181.864H829.84ZM844.197 187.336C841.389 187.336 839.661 185.608 839.661 182.416V175.456H841.989V182.2C841.989 184.264 842.949 185.224 844.629 185.224C846.381 185.224 847.509 183.976 847.509 182.128V175.456H849.837V187H847.773V185.68C847.005 186.808 845.685 187.336 844.197 187.336ZM853.185 191.32V175.456H855.249V177.088C855.993 175.84 857.457 175.12 859.257 175.12C862.545 175.12 864.801 177.568 864.801 181.216C864.801 184.888 862.545 187.336 859.257 187.336C857.601 187.336 856.257 186.712 855.513 185.584V191.32H853.185ZM855.465 181.216C855.465 183.616 856.833 185.224 858.921 185.224C861.009 185.224 862.401 183.616 862.401 181.216C862.401 178.84 861.009 177.232 858.921 177.232C856.833 177.232 855.465 178.84 855.465 181.216Z" fill="#0D0D0D"/>
<path d="M1164.02 187.336C1159.87 187.336 1157.38 185.248 1157.35 181.864H1159.82C1159.85 183.904 1161.43 185.2 1164.02 185.2C1166.33 185.2 1167.79 184 1167.79 182.176C1167.79 180.712 1166.86 179.824 1164.94 179.56L1162.73 179.248C1159.51 178.816 1157.9 177.232 1157.9 174.712C1157.9 171.76 1160.28 169.864 1163.9 169.864C1167.67 169.864 1169.98 171.688 1170.05 174.616H1167.58C1167.5 172.984 1166.11 171.976 1163.9 171.976C1161.79 171.976 1160.4 172.984 1160.4 174.568C1160.4 175.936 1161.38 176.704 1163.45 176.992L1165.54 177.28C1168.66 177.712 1170.29 179.32 1170.29 182.032C1170.29 185.248 1167.91 187.336 1164.02 187.336ZM1177.27 187C1175.28 187 1174.41 186.208 1174.41 184.216V177.496H1171.39V175.456H1174.41V172H1176.74V175.456H1180.37V177.496H1176.74V183.76C1176.74 184.6 1177.08 184.96 1177.97 184.96H1180.37V187H1177.27ZM1185.99 187.336C1183.32 187.336 1181.64 185.944 1181.64 183.736C1181.64 181.672 1183.03 180.184 1185.87 180.016L1189.37 179.824V179.176C1189.37 177.664 1188.63 177.04 1187.04 177.04C1185.51 177.04 1184.74 177.448 1184.55 178.672H1182.22C1182.48 176.296 1184.11 175.12 1187.21 175.12C1189.97 175.12 1191.58 176.512 1191.58 179.056V184.696C1191.58 184.96 1191.7 185.08 1191.96 185.08H1192.95V187H1191.07C1190.28 187 1189.83 186.568 1189.83 185.8V185.464C1189.15 186.64 1187.79 187.336 1185.99 187.336ZM1183.97 183.664C1183.97 184.72 1184.83 185.416 1186.25 185.416C1188.12 185.416 1189.37 184.336 1189.37 182.368V181.624L1186.15 181.864C1184.67 181.96 1183.97 182.728 1183.97 183.664ZM1195.16 187V175.456H1197.22V177.328C1197.51 176.176 1198.38 175.456 1199.74 175.456H1201.95V177.496H1199.53C1198.09 177.496 1197.49 178.312 1197.49 179.872V187H1195.16ZM1208.82 187C1206.83 187 1205.97 186.208 1205.97 184.216V177.496H1202.94V175.456H1205.97V172H1208.29V175.456H1211.92V177.496H1208.29V183.76C1208.29 184.6 1208.63 184.96 1209.52 184.96H1211.92V187H1208.82ZM1220.37 187V170.2H1222.77V184.744H1230.66V187H1220.37ZM1237.38 187.336C1233.87 187.336 1231.42 184.888 1231.42 181.216C1231.42 177.568 1233.87 175.12 1237.38 175.12C1240.9 175.12 1243.33 177.568 1243.33 181.216C1243.33 184.888 1240.9 187.336 1237.38 187.336ZM1233.82 181.216C1233.82 183.616 1235.26 185.224 1237.38 185.224C1239.51 185.224 1240.93 183.616 1240.93 181.216C1240.93 178.84 1239.51 177.232 1237.38 177.232C1235.26 177.232 1233.82 178.84 1233.82 181.216ZM1248.51 191.32C1245.94 191.32 1244.79 190.12 1244.79 188.44C1244.79 187.456 1245.32 186.568 1246.3 186.088C1245.65 185.656 1245.25 184.96 1245.25 184.216C1245.25 183.184 1245.89 182.344 1247.24 182.008C1246.16 181.288 1245.7 180.16 1245.7 179.08C1245.7 176.824 1247.43 175.12 1250.31 175.12C1252.16 175.12 1253.65 176.056 1254.13 177.256V176.896C1254.13 175.744 1254.75 175.456 1255.57 175.456H1257.27V177.496H1255.42C1255.06 177.496 1254.92 177.64 1254.92 178V179.224C1254.92 181.624 1253.05 183.184 1250.43 183.184H1248.44C1247.77 183.184 1247.31 183.496 1247.31 184.12C1247.31 184.744 1247.84 185.056 1248.44 185.056H1252.64C1254.85 185.056 1256.26 186.112 1256.26 188.008C1256.26 189.904 1255.13 191.32 1252.49 191.32H1248.51ZM1247.02 188.224C1247.02 188.968 1247.5 189.544 1248.77 189.544H1252.35C1253.26 189.544 1254.03 189.112 1254.03 188.08C1254.03 187.288 1253.41 186.832 1252.47 186.832H1248.85C1247.55 186.832 1247.02 187.48 1247.02 188.224ZM1247.93 179.152C1247.93 180.496 1248.82 181.36 1250.31 181.36C1251.82 181.36 1252.69 180.496 1252.69 179.152C1252.69 177.808 1251.8 176.944 1250.31 176.944C1248.8 176.944 1247.93 177.808 1247.93 179.152ZM1258.07 181.864V179.632H1265.36V181.864H1258.07ZM1268.01 187V175.456H1270.34V187H1268.01ZM1267.87 173.128V170.368H1270.46V173.128H1267.87ZM1273.72 187V175.456H1275.79V176.968C1276.48 175.72 1277.88 175.12 1279.44 175.12C1282.27 175.12 1284.04 176.848 1284.04 180.04V187H1281.72V180.256C1281.72 178.192 1280.71 177.232 1279 177.232C1277.23 177.232 1276.05 178.456 1276.05 180.328V187H1273.72Z" fill="#0D0D0D"/>
<rect x="129.5" y="442.5" width="92.6" height="76" rx="15.5" fill="#CECCC9"/>
<rect x="129.5" y="442.5" width="92.6" height="76" rx="15.5" stroke="#BFBDBA"/>
<path d="M141.645 491V488.088H148.685C151.885 488.088 153.741 486.584 153.741 484.088C153.741 481.784 151.949 480.344 148.845 480.344H145.485V477.752L151.981 471.512H141.325V468.6H156.077V471.512L149.325 477.816H149.741C154.157 477.816 156.973 480.312 156.973 484.056C156.973 488.248 153.645 491 148.685 491H141.645ZM160.352 491V486.616H164.192V491H160.352ZM168.105 491V488.088H175.145C177.897 488.088 179.785 486.424 179.785 483.96C179.785 481.528 178.057 479.864 175.145 479.864H168.649V468.6H182.025V471.512H171.753V477.048H175.497C180.041 477.048 183.017 479.768 183.017 483.832C183.017 488.088 179.881 491 175.145 491H168.105ZM190.3 467.832C191.878 467.832 193.073 468.461 193.884 469.72C194.694 470.957 195.1 472.707 195.1 474.968C195.1 477.229 194.705 479 193.916 480.28C193.148 481.539 191.942 482.168 190.3 482.168C189.297 482.168 188.444 481.88 187.74 481.304C187.036 480.728 186.502 479.907 186.14 478.84C185.798 477.752 185.628 476.461 185.628 474.968C185.628 472.707 186.001 470.957 186.748 469.72C187.494 468.461 188.678 467.832 190.3 467.832ZM190.3 469.816C189.489 469.816 188.892 470.253 188.508 471.128C188.145 471.981 187.964 473.261 187.964 474.968C187.964 476.675 188.145 477.965 188.508 478.84C188.892 479.715 189.489 480.152 190.3 480.152C191.132 480.152 191.75 479.725 192.156 478.872C192.561 477.997 192.764 476.696 192.764 474.968C192.764 473.261 192.561 471.981 192.156 471.128C191.75 470.253 191.132 469.816 190.3 469.816ZM204.924 468.152L192.252 491H189.788L202.46 468.152H204.924ZM204.284 476.984C205.329 476.984 206.204 477.272 206.908 477.848C207.612 478.403 208.145 479.213 208.508 480.28C208.892 481.325 209.084 482.605 209.084 484.12C209.084 486.381 208.689 488.152 207.9 489.432C207.132 490.691 205.926 491.32 204.284 491.32C203.281 491.32 202.428 491.032 201.724 490.456C201.02 489.88 200.486 489.059 200.124 487.992C199.782 486.904 199.612 485.613 199.612 484.12C199.612 481.859 199.985 480.109 200.732 478.872C201.478 477.613 202.662 476.984 204.284 476.984ZM204.284 479C203.473 479 202.876 479.427 202.492 480.28C202.129 481.133 201.948 482.413 201.948 484.12C201.948 485.848 202.129 487.149 202.492 488.024C202.876 488.877 203.473 489.304 204.284 489.304C205.116 489.304 205.734 488.877 206.14 488.024C206.545 487.171 206.748 485.869 206.748 484.12C206.748 482.413 206.545 481.133 206.14 480.28C205.734 479.427 205.116 479 204.284 479Z" fill="#0D0D0D"/>
<rect x="242.6" y="317" width="93.6" height="202" rx="16" fill="#0D0D0D"/>
<path d="M262.276 468.152C267.3 468.152 270.82 471.576 270.82 478.488C270.82 486.168 267.844 491 260.324 491H256.036V488.088H260.324C265.508 488.088 267.396 485.464 267.652 480.536C266.66 482.104 264.612 483.224 261.796 483.224C257.284 483.224 254.116 480.088 254.116 475.768C254.116 471.384 257.444 468.152 262.276 468.152ZM257.348 475.672C257.348 478.456 259.428 480.376 262.372 480.376C265.316 480.376 267.364 478.488 267.364 475.672C267.364 472.888 265.316 470.968 262.372 470.968C259.428 470.968 257.348 472.888 257.348 475.672ZM273.733 491V486.616H277.573V491H273.733ZM282.639 487.064C282.639 482.936 284.559 481.016 288.143 479.992L291.279 479.096C293.743 478.392 294.895 477.208 294.895 475.192C294.895 472.984 293.327 471.512 290.927 471.512H283.727V468.6H290.927C295.183 468.6 298.127 471.192 298.127 475.192C298.127 478.424 295.951 480.632 292.815 481.592L288.975 482.744C286.767 483.416 285.871 484.504 285.871 486.52V488.088H297.935V491H282.639V487.064ZM305.399 467.832C306.978 467.832 308.172 468.461 308.983 469.72C309.794 470.957 310.199 472.707 310.199 474.968C310.199 477.229 309.804 479 309.015 480.28C308.247 481.539 307.042 482.168 305.399 482.168C304.396 482.168 303.543 481.88 302.839 481.304C302.135 480.728 301.602 479.907 301.239 478.84C300.898 477.752 300.727 476.461 300.727 474.968C300.727 472.707 301.1 470.957 301.847 469.72C302.594 468.461 303.778 467.832 305.399 467.832ZM305.399 469.816C304.588 469.816 303.991 470.253 303.607 471.128C303.244 471.981 303.063 473.261 303.063 474.968C303.063 476.675 303.244 477.965 303.607 478.84C303.991 479.715 304.588 480.152 305.399 480.152C306.231 480.152 306.85 479.725 307.255 478.872C307.66 477.997 307.863 476.696 307.863 474.968C307.863 473.261 307.66 471.981 307.255 471.128C306.85 470.253 306.231 469.816 305.399 469.816ZM320.023 468.152L307.351 491H304.887L317.559 468.152H320.023ZM319.383 476.984C320.428 476.984 321.303 477.272 322.007 477.848C322.711 478.403 323.244 479.213 323.607 480.28C323.991 481.325 324.183 482.605 324.183 484.12C324.183 486.381 323.788 488.152 322.999 489.432C322.231 490.691 321.026 491.32 319.383 491.32C318.38 491.32 317.527 491.032 316.823 490.456C316.119 489.88 315.586 489.059 315.223 487.992C314.882 486.904 314.711 485.613 314.711 484.12C314.711 481.859 315.084 480.109 315.831 478.872C316.578 477.613 317.762 476.984 319.383 476.984ZM319.383 479C318.572 479 317.975 479.427 317.591 480.28C317.228 481.133 317.047 482.413 317.047 484.12C317.047 485.848 317.228 487.149 317.591 488.024C317.975 488.877 318.572 489.304 319.383 489.304C320.215 489.304 320.834 488.877 321.239 488.024C321.644 487.171 321.847 485.869 321.847 484.12C321.847 482.413 321.644 481.133 321.239 480.28C320.834 479.427 320.215 479 319.383 479Z" fill="white"/>
<path d="M165.952 561.28C162.232 561.28 159.672 558.84 159.672 554.02C159.672 549.2 162.132 546.72 165.992 546.72C169.032 546.72 171.112 548.48 171.532 551.48H169.432C169.132 549.64 167.752 548.58 165.992 548.58C163.432 548.58 161.732 550.24 161.732 553.98C161.732 557.68 163.512 559.42 165.952 559.42C167.892 559.42 169.112 558.12 169.432 556.32H171.512C171.032 559.22 169.112 561.28 165.952 561.28ZM177.941 561.28C175.021 561.28 172.981 559.24 172.981 556.18C172.981 553.14 175.021 551.1 177.941 551.1C180.881 551.1 182.901 553.14 182.901 556.18C182.901 559.24 180.881 561.28 177.941 561.28ZM174.981 556.18C174.981 558.18 176.181 559.52 177.941 559.52C179.721 559.52 180.901 558.18 180.901 556.18C180.901 554.2 179.721 552.86 177.941 552.86C176.181 552.86 174.981 554.2 174.981 556.18ZM185.121 561V551.38H186.841V552.64C187.421 551.6 188.581 551.1 189.881 551.1C192.241 551.1 193.721 552.54 193.721 555.2V561H191.781V555.38C191.781 553.66 190.941 552.86 189.521 552.86C188.041 552.86 187.061 553.88 187.061 555.44V561H185.121ZM198.715 561L194.715 551.38H196.875L199.835 558.92L202.775 551.38H204.935L200.915 561H198.715ZM210.345 561.28C207.465 561.28 205.545 559.26 205.545 556.14C205.545 553.04 207.465 551.1 210.205 551.1C213.065 551.1 214.825 552.96 214.825 555.9C214.825 556.16 214.805 556.42 214.765 556.82H207.465C207.545 558.58 208.625 559.64 210.345 559.64C211.485 559.64 212.285 559.12 212.665 558.26H214.645C214.045 560.12 212.565 561.28 210.345 561.28ZM207.465 555.3H212.865V555.2C212.865 553.72 211.905 552.66 210.205 552.66C208.585 552.66 207.545 553.74 207.465 555.3ZM216.962 561V551.38H218.682V552.94C218.922 551.98 219.642 551.38 220.782 551.38H222.622V553.08H220.602C219.402 553.08 218.902 553.76 218.902 555.06V561H216.962ZM227.427 561.28C224.827 561.28 223.287 560.24 223.187 558.26H225.187C225.287 559.22 226.067 559.7 227.467 559.7C228.747 559.7 229.527 559.16 229.527 558.28C229.527 557.56 228.987 557.14 227.987 557.04L226.447 556.88C224.647 556.7 223.507 555.7 223.507 554.1C223.507 552.26 225.047 551.1 227.407 551.1C229.807 551.1 231.287 552.1 231.407 554.06H229.467C229.407 553.14 228.647 552.68 227.387 552.68C226.187 552.68 225.427 553.18 225.427 554C225.427 554.7 225.947 555.08 227.067 555.22L228.627 555.4C230.447 555.6 231.487 556.62 231.487 558.2C231.487 560.08 229.907 561.28 227.427 561.28ZM233.594 561V551.38H235.534V561H233.594ZM233.474 549.44V547.14H235.634V549.44H233.474ZM242.694 561.28C239.774 561.28 237.734 559.24 237.734 556.18C237.734 553.14 239.774 551.1 242.694 551.1C245.634 551.1 247.654 553.14 247.654 556.18C247.654 559.24 245.634 561.28 242.694 561.28ZM239.734 556.18C239.734 558.18 240.934 559.52 242.694 559.52C244.474 559.52 245.654 558.18 245.654 556.18C245.654 554.2 244.474 552.86 242.694 552.86C240.934 552.86 239.734 554.2 239.734 556.18ZM249.873 561V551.38H251.593V552.64C252.173 551.6 253.333 551.1 254.633 551.1C256.993 551.1 258.473 552.54 258.473 555.2V561H256.533V555.38C256.533 553.66 255.693 552.86 254.273 552.86C252.793 552.86 251.813 553.88 251.813 555.44V561H249.873ZM266.334 561V547H272.334C275.254 547 276.974 548.52 276.974 551.02C276.974 553.42 275.414 554.92 272.754 555.06L277.374 561H274.874L270.274 555.04H268.334V561H266.334ZM268.334 553.22H272.334C273.994 553.22 274.934 552.42 274.934 551.02C274.934 549.66 273.994 548.88 272.334 548.88H268.334V553.22ZM282.092 561.28C279.872 561.28 278.472 560.12 278.472 558.28C278.472 556.56 279.632 555.32 281.992 555.18L284.912 555.02V554.48C284.912 553.22 284.292 552.7 282.972 552.7C281.692 552.7 281.052 553.04 280.892 554.06H278.952C279.172 552.08 280.532 551.1 283.112 551.1C285.412 551.1 286.752 552.26 286.752 554.38V559.08C286.752 559.3 286.852 559.4 287.072 559.4H287.892V561H286.332C285.672 561 285.292 560.64 285.292 560V559.72C284.732 560.7 283.592 561.28 282.092 561.28ZM280.412 558.22C280.412 559.1 281.132 559.68 282.312 559.68C283.872 559.68 284.912 558.78 284.912 557.14V556.52L282.232 556.72C280.992 556.8 280.412 557.44 280.412 558.22ZM293.042 561C291.382 561 290.662 560.34 290.662 558.68V553.08H288.142V551.38H290.662V548.5H292.602V551.38H295.622V553.08H292.602V558.3C292.602 559 292.882 559.3 293.622 559.3H295.622V561H293.042ZM301.431 561.28C298.551 561.28 296.631 559.26 296.631 556.14C296.631 553.04 298.551 551.1 301.291 551.1C304.151 551.1 305.911 552.96 305.911 555.9C305.911 556.16 305.891 556.42 305.851 556.82H298.551C298.631 558.58 299.711 559.64 301.431 559.64C302.571 559.64 303.371 559.12 303.751 558.26H305.731C305.131 560.12 303.651 561.28 301.431 561.28ZM298.551 555.3H303.951V555.2C303.951 553.72 302.991 552.66 301.291 552.66C299.671 552.66 298.631 553.74 298.551 555.3Z" fill="#0D0D0D"/>
<rect x="199.6" y="575.5" width="66" height="20" rx="10" stroke="#0B8900"/>
<path d="M210.228 584.568H213.014V585.562H210.228V588.446H209.22V585.562H206.434V584.568H209.22V581.67H210.228V584.568ZM214.39 588.278C214.39 586.472 215.23 585.632 216.798 585.184L218.17 584.792C219.248 584.484 219.752 583.966 219.752 583.084C219.752 582.118 219.066 581.474 218.016 581.474H214.866V580.2H218.016C219.878 580.2 221.166 581.334 221.166 583.084C221.166 584.498 220.214 585.464 218.842 585.884L217.162 586.388C216.196 586.682 215.804 587.158 215.804 588.04V588.726H221.082V590H214.39V588.278ZM222.918 590V588.082H224.598V590H222.918ZM230.011 590.196C227.813 590.196 226.273 588.698 226.273 585.674C226.273 582.314 227.575 580.2 230.865 580.2H232.741V581.474H230.865C228.597 581.474 227.771 582.622 227.659 584.778C228.093 584.092 228.989 583.602 230.221 583.602C232.195 583.602 233.581 584.974 233.581 586.864C233.581 588.782 232.125 590.196 230.011 590.196ZM227.785 586.906C227.785 588.124 228.681 588.964 229.969 588.964C231.257 588.964 232.167 588.124 232.167 586.906C232.167 585.688 231.257 584.848 229.969 584.848C228.681 584.848 227.785 585.674 227.785 586.906ZM239.896 590V587.088H234.646V585.856L239.364 580.2H241.254V585.856H242.864V587.088H241.254V590H239.896ZM236.158 585.856H239.896V581.376L236.158 585.856ZM242.899 590L245.517 586.528L243.039 583.266H244.691L246.399 585.59L248.093 583.266H249.745L247.267 586.528L249.885 590H248.233L246.399 587.536L244.551 590H242.899Z" fill="#0B8900"/>
<path fill-rule="evenodd" clip-rule="evenodd" d="M253.1 585.625L256.6 580L260.1 585.625H257.206V590H255.993V585.625H253.1Z" fill="#0B8900"/>
<rect x="376.699" y="486.5" width="92.6" height="32" rx="15.5" fill="#CECCC9"/>
<rect x="376.699" y="486.5" width="92.6" height="32" rx="15.5" stroke="#BFBDBA"/>
<path d="M389.088 491V488.088H394.944V471.576H390.88V468.6H398.048V488.088H403.808V491H389.088ZM407.207 491V486.616H411.047V491H407.207ZM414.96 491V488.088H422C424.752 488.088 426.64 486.424 426.64 483.96C426.64 481.528 424.912 479.864 422 479.864H415.504V468.6H428.88V471.512H418.608V477.048H422.352C426.896 477.048 429.872 479.768 429.872 483.832C429.872 488.088 426.736 491 422 491H414.96ZM437.155 467.832C438.734 467.832 439.928 468.461 440.739 469.72C441.55 470.957 441.955 472.707 441.955 474.968C441.955 477.229 441.56 479 440.771 480.28C440.003 481.539 438.798 482.168 437.155 482.168C436.152 482.168 435.299 481.88 434.595 481.304C433.891 480.728 433.358 479.907 432.995 478.84C432.654 477.752 432.483 476.461 432.483 474.968C432.483 472.707 432.856 470.957 433.603 469.72C434.35 468.461 435.534 467.832 437.155 467.832ZM437.155 469.816C436.344 469.816 435.747 470.253 435.363 471.128C435 471.981 434.819 473.261 434.819 474.968C434.819 476.675 435 477.965 435.363 478.84C435.747 479.715 436.344 480.152 437.155 480.152C437.987 480.152 438.606 479.725 439.011 478.872C439.416 477.997 439.619 476.696 439.619 474.968C439.619 473.261 439.416 471.981 439.011 471.128C438.606 470.253 437.987 469.816 437.155 469.816ZM451.779 468.152L439.107 491H436.643L449.315 468.152H451.779ZM451.139 476.984C452.184 476.984 453.059 477.272 453.763 477.848C454.467 478.403 455 479.213 455.363 480.28C455.747 481.325 455.939 482.605 455.939 484.12C455.939 486.381 455.544 488.152 454.755 489.432C453.987 490.691 452.782 491.32 451.139 491.32C450.136 491.32 449.283 491.032 448.579 490.456C447.875 489.88 447.342 489.059 446.979 487.992C446.638 486.904 446.467 485.613 446.467 484.12C446.467 481.859 446.84 480.109 447.587 478.872C448.334 477.613 449.518 476.984 451.139 476.984ZM451.139 479C450.328 479 449.731 479.427 449.347 480.28C448.984 481.133 448.803 482.413 448.803 484.12C448.803 485.848 448.984 487.149 449.347 488.024C449.731 488.877 450.328 489.304 451.139 489.304C451.971 489.304 452.59 488.877 452.995 488.024C453.4 487.171 453.603 485.869 453.603 484.12C453.603 482.413 453.4 481.133 452.995 480.28C452.59 479.427 451.971 479 451.139 479Z" fill="#0D0D0D"/>
<rect x="489.799" y="510" width="93.6" height="9" rx="4.5" fill="#0D0D0D"/>
<path d="M509.788 491.448C503.708 491.448 500.796 487.32 500.796 479.8C500.796 472.28 503.708 468.152 509.788 468.152C515.868 468.152 518.78 472.28 518.78 479.8C518.78 487.32 515.868 491.448 509.788 491.448ZM504.028 479.8C504.028 485.656 505.82 488.696 509.788 488.696C513.724 488.696 515.516 485.656 515.516 479.8C515.516 473.944 513.724 470.904 509.788 470.904C505.82 470.904 504.028 473.944 504.028 479.8ZM522.213 491V486.616H526.053V491H522.213ZM540.386 491V484.344H528.386V481.528L539.17 468.6H543.49V481.528H547.17V484.344H543.49V491H540.386ZM531.842 481.528H540.386V471.288L531.842 481.528ZM553.63 467.832C555.208 467.832 556.403 468.461 557.214 469.72C558.024 470.957 558.43 472.707 558.43 474.968C558.43 477.229 558.035 479 557.246 480.28C556.478 481.539 555.272 482.168 553.63 482.168C552.627 482.168 551.774 481.88 551.07 481.304C550.366 480.728 549.832 479.907 549.47 478.84C549.128 477.752 548.958 476.461 548.958 474.968C548.958 472.707 549.331 470.957 550.078 469.72C550.824 468.461 552.008 467.832 553.63 467.832ZM553.63 469.816C552.819 469.816 552.222 470.253 551.838 471.128C551.475 471.981 551.294 473.261 551.294 474.968C551.294 476.675 551.475 477.965 551.838 478.84C552.222 479.715 552.819 480.152 553.63 480.152C554.462 480.152 555.08 479.725 555.486 478.872C555.891 477.997 556.094 476.696 556.094 474.968C556.094 473.261 555.891 471.981 555.486 471.128C555.08 470.253 554.462 469.816 553.63 469.816ZM568.254 468.152L555.582 491H553.118L565.79 468.152H568.254ZM567.614 476.984C568.659 476.984 569.534 477.272 570.238 477.848C570.942 478.403 571.475 479.213 571.838 480.28C572.222 481.325 572.414 482.605 572.414 484.12C572.414 486.381 572.019 488.152 571.23 489.432C570.462 490.691 569.256 491.32 567.614 491.32C566.611 491.32 565.758 491.032 565.054 490.456C564.35 489.88 563.816 489.059 563.454 487.992C563.112 486.904 562.942 485.613 562.942 484.12C562.942 481.859 563.315 480.109 564.062 478.872C564.808 477.613 565.992 476.984 567.614 476.984ZM567.614 479C566.803 479 566.206 479.427 565.822 480.28C565.459 481.133 565.278 482.413 565.278 484.12C565.278 485.848 565.459 487.149 565.822 488.024C566.206 488.877 566.803 489.304 567.614 489.304C568.446 489.304 569.064 488.877 569.47 488.024C569.875 487.171 570.078 485.869 570.078 484.12C570.078 482.413 569.875 481.133 569.47 480.28C569.064 479.427 568.446 479 567.614 479Z" fill="#0D0D0D"/>
<path d="M423.92 561V547H429.92C432.84 547 434.56 548.52 434.56 551.02C434.56 553.42 433 554.92 430.34 555.06L434.96 561H432.46L427.86 555.04H425.92V561H423.92ZM425.92 553.22H429.92C431.58 553.22 432.52 552.42 432.52 551.02C432.52 549.66 431.58 548.88 429.92 548.88H425.92V553.22ZM440.647 561.28C437.767 561.28 435.847 559.26 435.847 556.14C435.847 553.04 437.767 551.1 440.507 551.1C443.367 551.1 445.127 552.96 445.127 555.9C445.127 556.16 445.107 556.42 445.067 556.82H437.767C437.847 558.58 438.927 559.64 440.647 559.64C441.787 559.64 442.587 559.12 442.967 558.26H444.947C444.347 560.12 442.867 561.28 440.647 561.28ZM437.767 555.3H443.167V555.2C443.167 553.72 442.207 552.66 440.507 552.66C438.887 552.66 437.847 553.74 437.767 555.3ZM448.366 549.62C448.366 547.94 449.346 547 451.006 547H454.126V548.7H451.406C450.706 548.7 450.286 549.06 450.286 549.82V551.38H453.526V553.08H450.286V561H448.366V553.08H445.826V551.38H448.366V549.62ZM458.729 561.28C456.389 561.28 454.949 559.84 454.949 557.18V551.38H456.889V557C456.889 558.72 457.689 559.52 459.089 559.52C460.549 559.52 461.489 558.48 461.489 556.94V551.38H463.429V561H461.709V559.9C461.069 560.84 459.969 561.28 458.729 561.28ZM469.599 561.28C466.999 561.28 465.459 560.24 465.359 558.26H467.359C467.459 559.22 468.239 559.7 469.639 559.7C470.919 559.7 471.699 559.16 471.699 558.28C471.699 557.56 471.159 557.14 470.159 557.04L468.619 556.88C466.819 556.7 465.679 555.7 465.679 554.1C465.679 552.26 467.219 551.1 469.579 551.1C471.979 551.1 473.459 552.1 473.579 554.06H471.639C471.579 553.14 470.819 552.68 469.559 552.68C468.359 552.68 467.599 553.18 467.599 554C467.599 554.7 468.119 555.08 469.239 555.22L470.799 555.4C472.619 555.6 473.659 556.62 473.659 558.2C473.659 560.08 472.079 561.28 469.599 561.28ZM478.702 561.28C476.482 561.28 475.082 560.12 475.082 558.28C475.082 556.56 476.242 555.32 478.602 555.18L481.522 555.02V554.48C481.522 553.22 480.902 552.7 479.582 552.7C478.302 552.7 477.662 553.04 477.502 554.06H475.562C475.782 552.08 477.142 551.1 479.722 551.1C482.022 551.1 483.362 552.26 483.362 554.38V559.08C483.362 559.3 483.462 559.4 483.682 559.4H484.502V561H482.942C482.282 561 481.902 560.64 481.902 560V559.72C481.342 560.7 480.202 561.28 478.702 561.28ZM477.022 558.22C477.022 559.1 477.742 559.68 478.922 559.68C480.482 559.68 481.522 558.78 481.522 557.14V556.52L478.842 556.72C477.602 556.8 477.022 557.44 477.022 558.22ZM488.287 561C486.927 561 486.347 560.48 486.347 559.18V547H488.287V558.58C488.287 559.08 488.467 559.3 488.967 559.3H490.187V561H488.287ZM497.125 561V547H503.125C506.045 547 507.765 548.52 507.765 551.02C507.765 553.42 506.205 554.92 503.545 555.06L508.165 561H505.665L501.065 555.04H499.125V561H497.125ZM499.125 553.22H503.125C504.785 553.22 505.725 552.42 505.725 551.02C505.725 549.66 504.785 548.88 503.125 548.88H499.125V553.22ZM512.883 561.28C510.663 561.28 509.263 560.12 509.263 558.28C509.263 556.56 510.423 555.32 512.783 555.18L515.703 555.02V554.48C515.703 553.22 515.083 552.7 513.763 552.7C512.483 552.7 511.843 553.04 511.683 554.06H509.743C509.963 552.08 511.323 551.1 513.903 551.1C516.203 551.1 517.543 552.26 517.543 554.38V559.08C517.543 559.3 517.643 559.4 517.863 559.4H518.683V561H517.123C516.463 561 516.083 560.64 516.083 560V559.72C515.523 560.7 514.383 561.28 512.883 561.28ZM511.203 558.22C511.203 559.1 511.923 559.68 513.103 559.68C514.663 559.68 515.703 558.78 515.703 557.14V556.52L513.023 556.72C511.783 556.8 511.203 557.44 511.203 558.22ZM523.832 561C522.172 561 521.452 560.34 521.452 558.68V553.08H518.932V551.38H521.452V548.5H523.392V551.38H526.412V553.08H523.392V558.3C523.392 559 523.672 559.3 524.412 559.3H526.412V561H523.832ZM532.221 561.28C529.341 561.28 527.421 559.26 527.421 556.14C527.421 553.04 529.341 551.1 532.081 551.1C534.941 551.1 536.701 552.96 536.701 555.9C536.701 556.16 536.681 556.42 536.641 556.82H529.341C529.421 558.58 530.501 559.64 532.221 559.64C533.361 559.64 534.161 559.12 534.541 558.26H536.521C535.921 560.12 534.441 561.28 532.221 561.28ZM529.341 555.3H534.741V555.2C534.741 553.72 533.781 552.66 532.081 552.66C530.461 552.66 529.421 553.74 529.341 555.3Z" fill="#0D0D0D"/>
<rect x="452.799" y="575.5" width="54" height="20" rx="10" stroke="#0B8900"/>
<path d="M459.502 587.004V585.702H463.758V587.004H459.502ZM464.434 590V588.726H467.514C468.914 588.726 469.726 588.068 469.726 586.976C469.726 585.968 468.942 585.338 467.584 585.338H466.114V584.204L468.956 581.474H464.294V580.2H470.748V581.474L467.794 584.232H467.976C469.908 584.232 471.14 585.324 471.14 586.962C471.14 588.796 469.684 590 467.514 590H464.434ZM472.758 590V588.082H474.438V590H472.758ZM479.405 580.004C481.603 580.004 483.143 581.502 483.143 584.526C483.143 587.886 481.841 590 478.551 590H476.675V588.726H478.551C480.819 588.726 481.645 587.578 481.757 585.422C481.323 586.108 480.427 586.598 479.195 586.598C477.221 586.598 475.835 585.226 475.835 583.336C475.835 581.418 477.291 580.004 479.405 580.004ZM477.249 583.294C477.249 584.512 478.159 585.352 479.447 585.352C480.735 585.352 481.631 584.526 481.631 583.294C481.631 582.076 480.735 581.236 479.447 581.236C478.159 581.236 477.249 582.076 477.249 583.294ZM484.099 590L486.717 586.528L484.239 583.266H485.891L487.599 585.59L489.293 583.266H490.945L488.467 586.528L491.085 590H489.433L487.599 587.536L485.751 590H484.099Z" fill="#0B8900"/>
<path fill-rule="evenodd" clip-rule="evenodd" d="M501.299 584.875L497.799 590.5L494.299 584.875H497.193V580.5H498.405V584.875H501.299Z" fill="#0B8900"/>
<rect x="623.4" y="255" width="1" height="264" rx="0.5" fill="#B5B2B0"/>
<rect x="664.9" y="499.5" width="92.6" height="19" rx="9.5" fill="#CECCC9"/>
<rect x="664.9" y="499.5" width="92.6" height="19" rx="9.5" stroke="#BFBDBA"/>
<path d="M684.389 491.448C678.309 491.448 675.397 487.32 675.397 479.8C675.397 472.28 678.309 468.152 684.389 468.152C690.469 468.152 693.381 472.28 693.381 479.8C693.381 487.32 690.469 491.448 684.389 491.448ZM678.629 479.8C678.629 485.656 680.421 488.696 684.389 488.696C688.325 488.696 690.117 485.656 690.117 479.8C690.117 473.944 688.325 470.904 684.389 470.904C680.421 470.904 678.629 473.944 678.629 479.8ZM696.815 491V486.616H700.655V491H696.815ZM711.687 468.152C716.711 468.152 720.231 471.576 720.231 478.488C720.231 486.168 717.255 491 709.735 491H705.447V488.088H709.735C714.919 488.088 716.807 485.464 717.063 480.536C716.071 482.104 714.023 483.224 711.207 483.224C706.695 483.224 703.527 480.088 703.527 475.768C703.527 471.384 706.855 468.152 711.687 468.152ZM706.759 475.672C706.759 478.456 708.839 480.376 711.783 480.376C714.727 480.376 716.775 478.488 716.775 475.672C716.775 472.888 714.727 470.968 711.783 470.968C708.839 470.968 706.759 472.888 706.759 475.672ZM727.856 467.832C729.435 467.832 730.63 468.461 731.44 469.72C732.251 470.957 732.656 472.707 732.656 474.968C732.656 477.229 732.262 479 731.472 480.28C730.704 481.539 729.499 482.168 727.856 482.168C726.854 482.168 726 481.88 725.296 481.304C724.592 480.728 724.059 479.907 723.696 478.84C723.355 477.752 723.184 476.461 723.184 474.968C723.184 472.707 723.558 470.957 724.304 469.72C725.051 468.461 726.235 467.832 727.856 467.832ZM727.856 469.816C727.046 469.816 726.448 470.253 726.064 471.128C725.702 471.981 725.52 473.261 725.52 474.968C725.52 476.675 725.702 477.965 726.064 478.84C726.448 479.715 727.046 480.152 727.856 480.152C728.688 480.152 729.307 479.725 729.712 478.872C730.118 477.997 730.32 476.696 730.32 474.968C730.32 473.261 730.118 471.981 729.712 471.128C729.307 470.253 728.688 469.816 727.856 469.816ZM742.48 468.152L729.808 491H727.344L740.016 468.152H742.48ZM741.84 476.984C742.886 476.984 743.76 477.272 744.464 477.848C745.168 478.403 745.702 479.213 746.064 480.28C746.448 481.325 746.64 482.605 746.64 484.12C746.64 486.381 746.246 488.152 745.456 489.432C744.688 490.691 743.483 491.32 741.84 491.32C740.838 491.32 739.984 491.032 739.28 490.456C738.576 489.88 738.043 489.059 737.68 487.992C737.339 486.904 737.168 485.613 737.168 484.12C737.168 481.859 737.542 480.109 738.288 478.872C739.035 477.613 740.219 476.984 741.84 476.984ZM741.84 479C741.03 479 740.432 479.427 740.048 480.28C739.686 481.133 739.504 482.413 739.504 484.12C739.504 485.848 739.686 487.149 740.048 488.024C740.432 488.877 741.03 489.304 741.84 489.304C742.672 489.304 743.291 488.877 743.696 488.024C744.102 487.171 744.304 485.869 744.304 484.12C744.304 482.413 744.102 481.133 743.696 480.28C743.291 479.427 742.672 479 741.84 479Z" fill="#0D0D0D"/>
<rect x="778" y="439" width="93.6" height="80" rx="16" fill="#0D0D0D"/>
<path d="M790.145 491V488.088H797.185C800.385 488.088 802.241 486.584 802.241 484.088C802.241 481.784 800.449 480.344 797.345 480.344H793.985V477.752L800.481 471.512H789.825V468.6H804.577V471.512L797.825 477.816H798.241C802.657 477.816 805.473 480.312 805.473 484.056C805.473 488.248 802.145 491 797.185 491H790.145ZM808.852 491V486.616H812.692V491H808.852ZM824.745 491.448C819.721 491.448 816.201 488.024 816.201 481.112C816.201 473.432 819.177 468.6 826.697 468.6H830.985V471.512H826.697C821.513 471.512 819.625 474.136 819.369 479.064C820.361 477.496 822.409 476.376 825.225 476.376C829.737 476.376 832.905 479.512 832.905 483.832C832.905 488.216 829.577 491.448 824.745 491.448ZM819.657 483.928C819.657 486.712 821.705 488.632 824.649 488.632C827.593 488.632 829.673 486.712 829.673 483.928C829.673 481.144 827.593 479.224 824.649 479.224C821.705 479.224 819.657 481.112 819.657 483.928ZM840.05 467.832C841.628 467.832 842.823 468.461 843.634 469.72C844.444 470.957 844.85 472.707 844.85 474.968C844.85 477.229 844.455 479 843.666 480.28C842.898 481.539 841.692 482.168 840.05 482.168C839.047 482.168 838.194 481.88 837.49 481.304C836.786 480.728 836.252 479.907 835.89 478.84C835.548 477.752 835.378 476.461 835.378 474.968C835.378 472.707 835.751 470.957 836.498 469.72C837.244 468.461 838.428 467.832 840.05 467.832ZM840.05 469.816C839.239 469.816 838.642 470.253 838.258 471.128C837.895 471.981 837.714 473.261 837.714 474.968C837.714 476.675 837.895 477.965 838.258 478.84C838.642 479.715 839.239 480.152 840.05 480.152C840.882 480.152 841.5 479.725 841.906 478.872C842.311 477.997 842.514 476.696 842.514 474.968C842.514 473.261 842.311 471.981 841.906 471.128C841.5 470.253 840.882 469.816 840.05 469.816ZM854.674 468.152L842.002 491H839.538L852.21 468.152H854.674ZM854.034 476.984C855.079 476.984 855.954 477.272 856.658 477.848C857.362 478.403 857.895 479.213 858.258 480.28C858.642 481.325 858.834 482.605 858.834 484.12C858.834 486.381 858.439 488.152 857.65 489.432C856.882 490.691 855.676 491.32 854.034 491.32C853.031 491.32 852.178 491.032 851.474 490.456C850.77 489.88 850.236 489.059 849.874 487.992C849.532 486.904 849.362 485.613 849.362 484.12C849.362 481.859 849.735 480.109 850.482 478.872C851.228 477.613 852.412 476.984 854.034 476.984ZM854.034 479C853.223 479 852.626 479.427 852.242 480.28C851.879 481.133 851.698 482.413 851.698 484.12C851.698 485.848 851.879 487.149 852.242 488.024C852.626 488.877 853.223 489.304 854.034 489.304C854.866 489.304 855.484 488.877 855.89 488.024C856.295 487.171 856.498 485.869 856.498 484.12C856.498 482.413 856.295 481.133 855.89 480.28C855.484 479.427 854.866 479 854.034 479Z" fill="white"/>
<path d="M701.352 561.28C697.632 561.28 695.072 558.84 695.072 554.02C695.072 549.2 697.532 546.72 701.392 546.72C704.432 546.72 706.512 548.48 706.932 551.48H704.832C704.532 549.64 703.152 548.58 701.392 548.58C698.832 548.58 697.132 550.24 697.132 553.98C697.132 557.68 698.912 559.42 701.352 559.42C703.292 559.42 704.512 558.12 704.832 556.32H706.912C706.432 559.22 704.512 561.28 701.352 561.28ZM713.342 561.28C710.422 561.28 708.382 559.24 708.382 556.18C708.382 553.14 710.422 551.1 713.342 551.1C716.282 551.1 718.302 553.14 718.302 556.18C718.302 559.24 716.282 561.28 713.342 561.28ZM710.382 556.18C710.382 558.18 711.582 559.52 713.342 559.52C715.122 559.52 716.302 558.18 716.302 556.18C716.302 554.2 715.122 552.86 713.342 552.86C711.582 552.86 710.382 554.2 710.382 556.18ZM720.521 561V551.38H722.241V552.64C722.821 551.6 723.981 551.1 725.281 551.1C727.641 551.1 729.121 552.54 729.121 555.2V561H727.181V555.38C727.181 553.66 726.341 552.86 724.921 552.86C723.441 552.86 722.461 553.88 722.461 555.44V561H720.521ZM734.115 561L730.115 551.38H732.275L735.235 558.92L738.175 551.38H740.335L736.315 561H734.115ZM745.746 561.28C742.866 561.28 740.946 559.26 740.946 556.14C740.946 553.04 742.866 551.1 745.606 551.1C748.466 551.1 750.226 552.96 750.226 555.9C750.226 556.16 750.206 556.42 750.166 556.82H742.866C742.946 558.58 744.026 559.64 745.746 559.64C746.886 559.64 747.686 559.12 748.066 558.26H750.046C749.446 560.12 747.966 561.28 745.746 561.28ZM742.866 555.3H748.266V555.2C748.266 553.72 747.306 552.66 745.606 552.66C743.986 552.66 742.946 553.74 742.866 555.3ZM752.363 561V551.38H754.083V552.94C754.323 551.98 755.043 551.38 756.183 551.38H758.023V553.08H756.003C754.803 553.08 754.303 553.76 754.303 555.06V561H752.363ZM762.827 561.28C760.227 561.28 758.687 560.24 758.587 558.26H760.587C760.687 559.22 761.467 559.7 762.867 559.7C764.147 559.7 764.927 559.16 764.927 558.28C764.927 557.56 764.387 557.14 763.387 557.04L761.847 556.88C760.047 556.7 758.907 555.7 758.907 554.1C758.907 552.26 760.447 551.1 762.807 551.1C765.207 551.1 766.687 552.1 766.807 554.06H764.867C764.807 553.14 764.047 552.68 762.787 552.68C761.587 552.68 760.827 553.18 760.827 554C760.827 554.7 761.347 555.08 762.467 555.22L764.027 555.4C765.847 555.6 766.887 556.62 766.887 558.2C766.887 560.08 765.307 561.28 762.827 561.28ZM768.994 561V551.38H770.934V561H768.994ZM768.874 549.44V547.14H771.034V549.44H768.874ZM778.094 561.28C775.174 561.28 773.134 559.24 773.134 556.18C773.134 553.14 775.174 551.1 778.094 551.1C781.034 551.1 783.054 553.14 783.054 556.18C783.054 559.24 781.034 561.28 778.094 561.28ZM775.134 556.18C775.134 558.18 776.334 559.52 778.094 559.52C779.874 559.52 781.054 558.18 781.054 556.18C781.054 554.2 779.874 552.86 778.094 552.86C776.334 552.86 775.134 554.2 775.134 556.18ZM785.274 561V551.38H786.994V552.64C787.574 551.6 788.734 551.1 790.034 551.1C792.394 551.1 793.874 552.54 793.874 555.2V561H791.934V555.38C791.934 553.66 791.094 552.86 789.674 552.86C788.194 552.86 787.214 553.88 787.214 555.44V561H785.274ZM801.735 561V547H807.735C810.655 547 812.375 548.52 812.375 551.02C812.375 553.42 810.815 554.92 808.155 555.06L812.775 561H810.275L805.675 555.04H803.735V561H801.735ZM803.735 553.22H807.735C809.395 553.22 810.335 552.42 810.335 551.02C810.335 549.66 809.395 548.88 807.735 548.88H803.735V553.22ZM817.493 561.28C815.273 561.28 813.873 560.12 813.873 558.28C813.873 556.56 815.033 555.32 817.393 555.18L820.313 555.02V554.48C820.313 553.22 819.693 552.7 818.373 552.7C817.093 552.7 816.453 553.04 816.293 554.06H814.353C814.573 552.08 815.933 551.1 818.513 551.1C820.813 551.1 822.153 552.26 822.153 554.38V559.08C822.153 559.3 822.253 559.4 822.473 559.4H823.293V561H821.733C821.073 561 820.693 560.64 820.693 560V559.72C820.133 560.7 818.993 561.28 817.493 561.28ZM815.813 558.22C815.813 559.1 816.533 559.68 817.713 559.68C819.273 559.68 820.313 558.78 820.313 557.14V556.52L817.633 556.72C816.393 556.8 815.813 557.44 815.813 558.22ZM828.442 561C826.782 561 826.062 560.34 826.062 558.68V553.08H823.542V551.38H826.062V548.5H828.002V551.38H831.022V553.08H828.002V558.3C828.002 559 828.282 559.3 829.022 559.3H831.022V561H828.442ZM836.832 561.28C833.952 561.28 832.032 559.26 832.032 556.14C832.032 553.04 833.952 551.1 836.692 551.1C839.552 551.1 841.312 552.96 841.312 555.9C841.312 556.16 841.292 556.42 841.252 556.82H833.952C834.032 558.58 835.112 559.64 836.832 559.64C837.972 559.64 838.772 559.12 839.152 558.26H841.132C840.532 560.12 839.052 561.28 836.832 561.28ZM833.952 555.3H839.352V555.2C839.352 553.72 838.392 552.66 836.692 552.66C835.072 552.66 834.032 553.74 833.952 555.3Z" fill="#0D0D0D"/>
<rect x="735" y="575.5" width="66" height="20" rx="10" stroke="#0B8900"/>
<path d="M745.82 584.568H748.606V585.562H745.82V588.446H744.812V585.562H742.026V584.568H744.812V581.67H745.82V584.568ZM749.926 590V588.726H753.006C754.406 588.726 755.218 588.068 755.218 586.976C755.218 585.968 754.434 585.338 753.076 585.338H751.606V584.204L754.448 581.474H749.786V580.2H756.24V581.474L753.286 584.232H753.468C755.4 584.232 756.632 585.324 756.632 586.962C756.632 588.796 755.176 590 753.006 590H749.926ZM758.25 590V588.082H759.93V590H758.25ZM765.343 590.196C763.145 590.196 761.605 588.698 761.605 585.674C761.605 582.314 762.907 580.2 766.197 580.2H768.073V581.474H766.197C763.929 581.474 763.103 582.622 762.991 584.778C763.425 584.092 764.321 583.602 765.553 583.602C767.527 583.602 768.913 584.974 768.913 586.864C768.913 588.782 767.457 590.196 765.343 590.196ZM763.117 586.906C763.117 588.124 764.013 588.964 765.301 588.964C766.589 588.964 767.499 588.124 767.499 586.906C767.499 585.688 766.589 584.848 765.301 584.848C764.013 584.848 763.117 585.674 763.117 586.906ZM774.121 590.196C771.923 590.196 770.383 588.698 770.383 585.674C770.383 582.314 771.685 580.2 774.975 580.2H776.851V581.474H774.975C772.707 581.474 771.881 582.622 771.769 584.778C772.203 584.092 773.099 583.602 774.331 583.602C776.305 583.602 777.691 584.974 777.691 586.864C777.691 588.782 776.235 590.196 774.121 590.196ZM771.895 586.906C771.895 588.124 772.791 588.964 774.079 588.964C775.367 588.964 776.277 588.124 776.277 586.906C776.277 585.688 775.367 584.848 774.079 584.848C772.791 584.848 771.895 585.674 771.895 586.906ZM778.3 590L780.918 586.528L778.44 583.266H780.092L781.8 585.59L783.494 583.266H785.146L782.668 586.528L785.286 590H783.634L781.8 587.536L779.952 590H778.3Z" fill="#0B8900"/>
<path fill-rule="evenodd" clip-rule="evenodd" d="M788.5 585.625L792 580L795.5 585.625H792.606V590H791.394V585.625H788.5Z" fill="#0B8900"/>
<rect x="911.6" y="255" width="1" height="264" rx="0.5" fill="#B5B2B0"/>
<rect x="953.1" y="420.5" width="92.6" height="98" rx="15.5" fill="#CECCC9"/>
<rect x="953.1" y="420.5" width="92.6" height="98" rx="15.5" stroke="#BFBDBA"/>
<path d="M975.764 491V484.344H963.764V481.528L974.548 468.6H978.868V481.528H982.548V484.344H978.868V491H975.764ZM967.22 481.528H975.764V471.288L967.22 481.528ZM984.983 491V486.616H988.823V491H984.983ZM992.735 491V488.088H999.775C1002.53 488.088 1004.42 486.424 1004.42 483.96C1004.42 481.528 1002.69 479.864 999.775 479.864H993.279V468.6H1006.66V471.512H996.383V477.048H1000.13C1004.67 477.048 1007.65 479.768 1007.65 483.832C1007.65 488.088 1004.51 491 999.775 491H992.735ZM1014.93 467.832C1016.51 467.832 1017.7 468.461 1018.51 469.72C1019.33 470.957 1019.73 472.707 1019.73 474.968C1019.73 477.229 1019.34 479 1018.55 480.28C1017.78 481.539 1016.57 482.168 1014.93 482.168C1013.93 482.168 1013.07 481.88 1012.37 481.304C1011.67 480.728 1011.13 479.907 1010.77 478.84C1010.43 477.752 1010.26 476.461 1010.26 474.968C1010.26 472.707 1010.63 470.957 1011.38 469.72C1012.13 468.461 1013.31 467.832 1014.93 467.832ZM1014.93 469.816C1014.12 469.816 1013.52 470.253 1013.14 471.128C1012.78 471.981 1012.59 473.261 1012.59 474.968C1012.59 476.675 1012.78 477.965 1013.14 478.84C1013.52 479.715 1014.12 480.152 1014.93 480.152C1015.76 480.152 1016.38 479.725 1016.79 478.872C1017.19 477.997 1017.39 476.696 1017.39 474.968C1017.39 473.261 1017.19 471.981 1016.79 471.128C1016.38 470.253 1015.76 469.816 1014.93 469.816ZM1029.55 468.152L1016.88 491H1014.42L1027.09 468.152H1029.55ZM1028.91 476.984C1029.96 476.984 1030.83 477.272 1031.54 477.848C1032.24 478.403 1032.78 479.213 1033.14 480.28C1033.52 481.325 1033.71 482.605 1033.71 484.12C1033.71 486.381 1033.32 488.152 1032.53 489.432C1031.76 490.691 1030.56 491.32 1028.91 491.32C1027.91 491.32 1027.06 491.032 1026.35 490.456C1025.65 489.88 1025.12 489.059 1024.75 487.992C1024.41 486.904 1024.24 485.613 1024.24 484.12C1024.24 481.859 1024.62 480.109 1025.36 478.872C1026.11 477.613 1027.29 476.984 1028.91 476.984ZM1028.91 479C1028.1 479 1027.51 479.427 1027.12 480.28C1026.76 481.133 1026.58 482.413 1026.58 484.12C1026.58 485.848 1026.76 487.149 1027.12 488.024C1027.51 488.877 1028.1 489.304 1028.91 489.304C1029.75 489.304 1030.37 488.877 1030.77 488.024C1031.18 487.171 1031.38 485.869 1031.38 484.12C1031.38 482.413 1031.18 481.133 1030.77 480.28C1030.37 479.427 1029.75 479 1028.91 479Z" fill="#0D0D0D"/>
<rect x="1066.2" y="255" width="93.6" height="264" rx="16" fill="#0D0D0D"/>
<path d="M1083.09 491V488.088H1088.94V471.576H1084.88V468.6H1092.05V488.088H1097.81V491H1083.09ZM1099.9 487.064C1099.9 482.936 1101.82 481.016 1105.41 479.992L1108.54 479.096C1111.01 478.392 1112.16 477.208 1112.16 475.192C1112.16 472.984 1110.59 471.512 1108.19 471.512H1100.99V468.6H1108.19C1112.45 468.6 1115.39 471.192 1115.39 475.192C1115.39 478.424 1113.21 480.632 1110.08 481.592L1106.24 482.744C1104.03 483.416 1103.13 484.504 1103.13 486.52V488.088H1115.2V491H1099.9V487.064ZM1122.66 467.832C1124.24 467.832 1125.44 468.461 1126.25 469.72C1127.06 470.957 1127.46 472.707 1127.46 474.968C1127.46 477.229 1127.07 479 1126.28 480.28C1125.51 481.539 1124.31 482.168 1122.66 482.168C1121.66 482.168 1120.81 481.88 1120.1 481.304C1119.4 480.728 1118.87 479.907 1118.5 478.84C1118.16 477.752 1117.99 476.461 1117.99 474.968C1117.99 472.707 1118.36 470.957 1119.11 469.72C1119.86 468.461 1121.04 467.832 1122.66 467.832ZM1122.66 469.816C1121.85 469.816 1121.25 470.253 1120.87 471.128C1120.51 471.981 1120.33 473.261 1120.33 474.968C1120.33 476.675 1120.51 477.965 1120.87 478.84C1121.25 479.715 1121.85 480.152 1122.66 480.152C1123.49 480.152 1124.11 479.725 1124.52 478.872C1124.92 477.997 1125.13 476.696 1125.13 474.968C1125.13 473.261 1124.92 471.981 1124.52 471.128C1124.11 470.253 1123.49 469.816 1122.66 469.816ZM1137.29 468.152L1124.61 491H1122.15L1134.82 468.152H1137.29ZM1136.65 476.984C1137.69 476.984 1138.57 477.272 1139.27 477.848C1139.97 478.403 1140.51 479.213 1140.87 480.28C1141.25 481.325 1141.45 482.605 1141.45 484.12C1141.45 486.381 1141.05 488.152 1140.26 489.432C1139.49 490.691 1138.29 491.32 1136.65 491.32C1135.64 491.32 1134.79 491.032 1134.09 490.456C1133.38 489.88 1132.85 489.059 1132.49 487.992C1132.15 486.904 1131.97 485.613 1131.97 484.12C1131.97 481.859 1132.35 480.109 1133.09 478.872C1133.84 477.613 1135.03 476.984 1136.65 476.984ZM1136.65 479C1135.84 479 1135.24 479.427 1134.85 480.28C1134.49 481.133 1134.31 482.413 1134.31 484.12C1134.31 485.848 1134.49 487.149 1134.85 488.024C1135.24 488.877 1135.84 489.304 1136.65 489.304C1137.48 489.304 1138.1 488.877 1138.5 488.024C1138.91 487.171 1139.11 485.869 1139.11 484.12C1139.11 482.413 1138.91 481.133 1138.5 480.28C1138.1 479.427 1137.48 479 1136.65 479Z" fill="white"/>
<path d="M989.551 561.28C985.831 561.28 983.271 558.84 983.271 554.02C983.271 549.2 985.731 546.72 989.591 546.72C992.631 546.72 994.711 548.48 995.131 551.48H993.031C992.731 549.64 991.351 548.58 989.591 548.58C987.031 548.58 985.331 550.24 985.331 553.98C985.331 557.68 987.111 559.42 989.551 559.42C991.491 559.42 992.711 558.12 993.031 556.32H995.111C994.631 559.22 992.711 561.28 989.551 561.28ZM1001.54 561.28C998.621 561.28 996.581 559.24 996.581 556.18C996.581 553.14 998.621 551.1 1001.54 551.1C1004.48 551.1 1006.5 553.14 1006.5 556.18C1006.5 559.24 1004.48 561.28 1001.54 561.28ZM998.581 556.18C998.581 558.18 999.781 559.52 1001.54 559.52C1003.32 559.52 1004.5 558.18 1004.5 556.18C1004.5 554.2 1003.32 552.86 1001.54 552.86C999.781 552.86 998.581 554.2 998.581 556.18ZM1008.72 561V551.38H1010.44V552.64C1011.02 551.6 1012.18 551.1 1013.48 551.1C1015.84 551.1 1017.32 552.54 1017.32 555.2V561H1015.38V555.38C1015.38 553.66 1014.54 552.86 1013.12 552.86C1011.64 552.86 1010.66 553.88 1010.66 555.44V561H1008.72ZM1022.31 561L1018.31 551.38H1020.47L1023.43 558.92L1026.37 551.38H1028.53L1024.51 561H1022.31ZM1033.94 561.28C1031.06 561.28 1029.14 559.26 1029.14 556.14C1029.14 553.04 1031.06 551.1 1033.8 551.1C1036.66 551.1 1038.42 552.96 1038.42 555.9C1038.42 556.16 1038.4 556.42 1038.36 556.82H1031.06C1031.14 558.58 1032.22 559.64 1033.94 559.64C1035.08 559.64 1035.88 559.12 1036.26 558.26H1038.24C1037.64 560.12 1036.16 561.28 1033.94 561.28ZM1031.06 555.3H1036.46V555.2C1036.46 553.72 1035.5 552.66 1033.8 552.66C1032.18 552.66 1031.14 553.74 1031.06 555.3ZM1040.56 561V551.38H1042.28V552.94C1042.52 551.98 1043.24 551.38 1044.38 551.38H1046.22V553.08H1044.2C1043 553.08 1042.5 553.76 1042.5 555.06V561H1040.56ZM1051.03 561.28C1048.43 561.28 1046.89 560.24 1046.79 558.26H1048.79C1048.89 559.22 1049.67 559.7 1051.07 559.7C1052.35 559.7 1053.13 559.16 1053.13 558.28C1053.13 557.56 1052.59 557.14 1051.59 557.04L1050.05 556.88C1048.25 556.7 1047.11 555.7 1047.11 554.1C1047.11 552.26 1048.65 551.1 1051.01 551.1C1053.41 551.1 1054.89 552.1 1055.01 554.06H1053.07C1053.01 553.14 1052.25 552.68 1050.99 552.68C1049.79 552.68 1049.03 553.18 1049.03 554C1049.03 554.7 1049.55 555.08 1050.67 555.22L1052.23 555.4C1054.05 555.6 1055.09 556.62 1055.09 558.2C1055.09 560.08 1053.51 561.28 1051.03 561.28ZM1057.19 561V551.38H1059.13V561H1057.19ZM1057.07 549.44V547.14H1059.23V549.44H1057.07ZM1066.29 561.28C1063.37 561.28 1061.33 559.24 1061.33 556.18C1061.33 553.14 1063.37 551.1 1066.29 551.1C1069.23 551.1 1071.25 553.14 1071.25 556.18C1071.25 559.24 1069.23 561.28 1066.29 561.28ZM1063.33 556.18C1063.33 558.18 1064.53 559.52 1066.29 559.52C1068.07 559.52 1069.25 558.18 1069.25 556.18C1069.25 554.2 1068.07 552.86 1066.29 552.86C1064.53 552.86 1063.33 554.2 1063.33 556.18ZM1073.47 561V551.38H1075.19V552.64C1075.77 551.6 1076.93 551.1 1078.23 551.1C1080.59 551.1 1082.07 552.54 1082.07 555.2V561H1080.13V555.38C1080.13 553.66 1079.29 552.86 1077.87 552.86C1076.39 552.86 1075.41 553.88 1075.41 555.44V561H1073.47ZM1089.93 561V547H1095.93C1098.85 547 1100.57 548.52 1100.57 551.02C1100.57 553.42 1099.01 554.92 1096.35 555.06L1100.97 561H1098.47L1093.87 555.04H1091.93V561H1089.93ZM1091.93 553.22H1095.93C1097.59 553.22 1098.53 552.42 1098.53 551.02C1098.53 549.66 1097.59 548.88 1095.93 548.88H1091.93V553.22ZM1105.69 561.28C1103.47 561.28 1102.07 560.12 1102.07 558.28C1102.07 556.56 1103.23 555.32 1105.59 555.18L1108.51 555.02V554.48C1108.51 553.22 1107.89 552.7 1106.57 552.7C1105.29 552.7 1104.65 553.04 1104.49 554.06H1102.55C1102.77 552.08 1104.13 551.1 1106.71 551.1C1109.01 551.1 1110.35 552.26 1110.35 554.38V559.08C1110.35 559.3 1110.45 559.4 1110.67 559.4H1111.49V561H1109.93C1109.27 561 1108.89 560.64 1108.89 560V559.72C1108.33 560.7 1107.19 561.28 1105.69 561.28ZM1104.01 558.22C1104.01 559.1 1104.73 559.68 1105.91 559.68C1107.47 559.68 1108.51 558.78 1108.51 557.14V556.52L1105.83 556.72C1104.59 556.8 1104.01 557.44 1104.01 558.22ZM1116.64 561C1114.98 561 1114.26 560.34 1114.26 558.68V553.08H1111.74V551.38H1114.26V548.5H1116.2V551.38H1119.22V553.08H1116.2V558.3C1116.2 559 1116.48 559.3 1117.22 559.3H1119.22V561H1116.64ZM1125.03 561.28C1122.15 561.28 1120.23 559.26 1120.23 556.14C1120.23 553.04 1122.15 551.1 1124.89 551.1C1127.75 551.1 1129.51 552.96 1129.51 555.9C1129.51 556.16 1129.49 556.42 1129.45 556.82H1122.15C1122.23 558.58 1123.31 559.64 1125.03 559.64C1126.17 559.64 1126.97 559.12 1127.35 558.26H1129.33C1128.73 560.12 1127.25 561.28 1125.03 561.28ZM1122.15 555.3H1127.55V555.2C1127.55 553.72 1126.59 552.66 1124.89 552.66C1123.27 552.66 1122.23 553.74 1122.15 555.3Z" fill="#0D0D0D"/>
<rect x="1023.2" y="575.5" width="66" height="20" rx="10" stroke="#0B8900"/>
<path d="M1033.83 584.568H1036.61V585.562H1033.83V588.446H1032.82V585.562H1030.03V584.568H1032.82V581.67H1033.83V584.568ZM1037.99 588.278C1037.99 586.472 1038.83 585.632 1040.4 585.184L1041.77 584.792C1042.85 584.484 1043.35 583.966 1043.35 583.084C1043.35 582.118 1042.67 581.474 1041.62 581.474H1038.47V580.2H1041.62C1043.48 580.2 1044.77 581.334 1044.77 583.084C1044.77 584.498 1043.81 585.464 1042.44 585.884L1040.76 586.388C1039.8 586.682 1039.4 587.158 1039.4 588.04V588.726H1044.68V590H1037.99V588.278ZM1046.52 590V588.082H1048.2V590H1046.52ZM1053.61 590.196C1051.41 590.196 1049.87 588.698 1049.87 585.674C1049.87 582.314 1051.17 580.2 1054.46 580.2H1056.34V581.474H1054.46C1052.2 581.474 1051.37 582.622 1051.26 584.778C1051.69 584.092 1052.59 583.602 1053.82 583.602C1055.79 583.602 1057.18 584.974 1057.18 586.864C1057.18 588.782 1055.72 590.196 1053.61 590.196ZM1051.38 586.906C1051.38 588.124 1052.28 588.964 1053.57 588.964C1054.86 588.964 1055.77 588.124 1055.77 586.906C1055.77 585.688 1054.86 584.848 1053.57 584.848C1052.28 584.848 1051.38 585.674 1051.38 586.906ZM1063.5 590V587.088H1058.25V585.856L1062.96 580.2H1064.85V585.856H1066.46V587.088H1064.85V590H1063.5ZM1059.76 585.856H1063.5V581.376L1059.76 585.856ZM1066.5 590L1069.12 586.528L1066.64 583.266H1068.29L1070 585.59L1071.69 583.266H1073.35L1070.87 586.528L1073.49 590H1071.83L1070 587.536L1068.15 590H1066.5Z" fill="#0B8900"/>
<path fill-rule="evenodd" clip-rule="evenodd" d="M1076.7 585.625L1080.2 580L1083.7 585.625H1080.81V590H1079.59V585.625H1076.7Z" fill="#0B8900"/>
<rect x="1200.3" y="515.1" width="92.6" height="3.4" rx="1.7" fill="#CECCC9"/>
<rect x="1200.3" y="515.1" width="92.6" height="3.4" rx="1.7" stroke="#BFBDBA"/>
<path d="M1219.29 491.448C1213.21 491.448 1210.3 487.32 1210.3 479.8C1210.3 472.28 1213.21 468.152 1219.29 468.152C1225.37 468.152 1228.28 472.28 1228.28 479.8C1228.28 487.32 1225.37 491.448 1219.29 491.448ZM1213.53 479.8C1213.53 485.656 1215.32 488.696 1219.29 488.696C1223.23 488.696 1225.02 485.656 1225.02 479.8C1225.02 473.944 1223.23 470.904 1219.29 470.904C1215.32 470.904 1213.53 473.944 1213.53 479.8ZM1231.72 491V486.616H1235.56V491H1231.72ZM1240.62 487.064C1240.62 482.936 1242.54 481.016 1246.13 479.992L1249.26 479.096C1251.73 478.392 1252.88 477.208 1252.88 475.192C1252.88 472.984 1251.31 471.512 1248.91 471.512H1241.71V468.6H1248.91C1253.17 468.6 1256.11 471.192 1256.11 475.192C1256.11 478.424 1253.93 480.632 1250.8 481.592L1246.96 482.744C1244.75 483.416 1243.85 484.504 1243.85 486.52V488.088H1255.92V491H1240.62V487.064ZM1263.38 467.832C1264.96 467.832 1266.15 468.461 1266.97 469.72C1267.78 470.957 1268.18 472.707 1268.18 474.968C1268.18 477.229 1267.79 479 1267 480.28C1266.23 481.539 1265.02 482.168 1263.38 482.168C1262.38 482.168 1261.53 481.88 1260.82 481.304C1260.12 480.728 1259.58 479.907 1259.22 478.84C1258.88 477.752 1258.71 476.461 1258.71 474.968C1258.71 472.707 1259.08 470.957 1259.83 469.72C1260.58 468.461 1261.76 467.832 1263.38 467.832ZM1263.38 469.816C1262.57 469.816 1261.97 470.253 1261.59 471.128C1261.23 471.981 1261.05 473.261 1261.05 474.968C1261.05 476.675 1261.23 477.965 1261.59 478.84C1261.97 479.715 1262.57 480.152 1263.38 480.152C1264.21 480.152 1264.83 479.725 1265.24 478.872C1265.64 477.997 1265.85 476.696 1265.85 474.968C1265.85 473.261 1265.64 471.981 1265.24 471.128C1264.83 470.253 1264.21 469.816 1263.38 469.816ZM1278.01 468.152L1265.33 491H1262.87L1275.54 468.152H1278.01ZM1277.37 476.984C1278.41 476.984 1279.29 477.272 1279.99 477.848C1280.69 478.403 1281.23 479.213 1281.59 480.28C1281.97 481.325 1282.17 482.605 1282.17 484.12C1282.17 486.381 1281.77 488.152 1280.98 489.432C1280.21 490.691 1279.01 491.32 1277.37 491.32C1276.36 491.32 1275.51 491.032 1274.81 490.456C1274.1 489.88 1273.57 489.059 1273.21 487.992C1272.86 486.904 1272.69 485.613 1272.69 484.12C1272.69 481.859 1273.07 480.109 1273.81 478.872C1274.56 477.613 1275.74 476.984 1277.37 476.984ZM1277.37 479C1276.55 479 1275.96 479.427 1275.57 480.28C1275.21 481.133 1275.03 482.413 1275.03 484.12C1275.03 485.848 1275.21 487.149 1275.57 488.024C1275.96 488.877 1276.55 489.304 1277.37 489.304C1278.2 489.304 1278.82 488.877 1279.22 488.024C1279.63 487.171 1279.83 485.869 1279.83 484.12C1279.83 482.413 1279.63 481.133 1279.22 480.28C1278.82 479.427 1278.2 479 1277.37 479Z" fill="#0D0D0D"/>
<rect x="1313.4" y="518" width="93.6" height="1" rx="0.5" fill="#0D0D0D"/>
<path d="M1322.39 491.448C1316.31 491.448 1313.4 487.32 1313.4 479.8C1313.4 472.28 1316.31 468.152 1322.39 468.152C1328.47 468.152 1331.38 472.28 1331.38 479.8C1331.38 487.32 1328.47 491.448 1322.39 491.448ZM1316.63 479.8C1316.63 485.656 1318.42 488.696 1322.39 488.696C1326.33 488.696 1328.12 485.656 1328.12 479.8C1328.12 473.944 1326.33 470.904 1322.39 470.904C1318.42 470.904 1316.63 473.944 1316.63 479.8ZM1334.81 491V486.616H1338.65V491H1334.81ZM1351.09 491.448C1345.01 491.448 1342.1 487.32 1342.1 479.8C1342.1 472.28 1345.01 468.152 1351.09 468.152C1357.17 468.152 1360.08 472.28 1360.08 479.8C1360.08 487.32 1357.17 491.448 1351.09 491.448ZM1345.33 479.8C1345.33 485.656 1347.12 488.696 1351.09 488.696C1355.03 488.696 1356.82 485.656 1356.82 479.8C1356.82 473.944 1355.03 470.904 1351.09 470.904C1347.12 470.904 1345.33 473.944 1345.33 479.8ZM1374.45 491V484.344H1362.45V481.528L1373.23 468.6H1377.55V481.528H1381.23V484.344H1377.55V491H1374.45ZM1365.9 481.528H1374.45V471.288L1365.9 481.528ZM1387.69 467.832C1389.27 467.832 1390.47 468.461 1391.28 469.72C1392.09 470.957 1392.49 472.707 1392.49 474.968C1392.49 477.229 1392.1 479 1391.31 480.28C1390.54 481.539 1389.34 482.168 1387.69 482.168C1386.69 482.168 1385.84 481.88 1385.13 481.304C1384.43 480.728 1383.9 479.907 1383.53 478.84C1383.19 477.752 1383.02 476.461 1383.02 474.968C1383.02 472.707 1383.39 470.957 1384.14 469.72C1384.89 468.461 1386.07 467.832 1387.69 467.832ZM1387.69 469.816C1386.88 469.816 1386.28 470.253 1385.9 471.128C1385.54 471.981 1385.36 473.261 1385.36 474.968C1385.36 476.675 1385.54 477.965 1385.9 478.84C1386.28 479.715 1386.88 480.152 1387.69 480.152C1388.52 480.152 1389.14 479.725 1389.55 478.872C1389.95 477.997 1390.16 476.696 1390.16 474.968C1390.16 473.261 1389.95 471.981 1389.55 471.128C1389.14 470.253 1388.52 469.816 1387.69 469.816ZM1402.32 468.152L1389.64 491H1387.18L1399.85 468.152H1402.32ZM1401.68 476.984C1402.72 476.984 1403.6 477.272 1404.3 477.848C1405 478.403 1405.54 479.213 1405.9 480.28C1406.28 481.325 1406.48 482.605 1406.48 484.12C1406.48 486.381 1406.08 488.152 1405.29 489.432C1404.52 490.691 1403.32 491.32 1401.68 491.32C1400.67 491.32 1399.82 491.032 1399.12 490.456C1398.41 489.88 1397.88 489.059 1397.52 487.992C1397.18 486.904 1397 485.613 1397 484.12C1397 481.859 1397.38 480.109 1398.12 478.872C1398.87 477.613 1400.06 476.984 1401.68 476.984ZM1401.68 479C1400.87 479 1400.27 479.427 1399.88 480.28C1399.52 481.133 1399.34 482.413 1399.34 484.12C1399.34 485.848 1399.52 487.149 1399.88 488.024C1400.27 488.877 1400.87 489.304 1401.68 489.304C1402.51 489.304 1403.13 488.877 1403.53 488.024C1403.94 487.171 1404.14 485.869 1404.14 484.12C1404.14 482.413 1403.94 481.133 1403.53 480.28C1403.13 479.427 1402.51 479 1401.68 479Z" fill="#0D0D0D"/>
<path d="M1247.52 561V547H1253.52C1256.44 547 1258.16 548.52 1258.16 551.02C1258.16 553.42 1256.6 554.92 1253.94 555.06L1258.56 561H1256.06L1251.46 555.04H1249.52V561H1247.52ZM1249.52 553.22H1253.52C1255.18 553.22 1256.12 552.42 1256.12 551.02C1256.12 549.66 1255.18 548.88 1253.52 548.88H1249.52V553.22ZM1264.25 561.28C1261.37 561.28 1259.45 559.26 1259.45 556.14C1259.45 553.04 1261.37 551.1 1264.11 551.1C1266.97 551.1 1268.73 552.96 1268.73 555.9C1268.73 556.16 1268.71 556.42 1268.67 556.82H1261.37C1261.45 558.58 1262.53 559.64 1264.25 559.64C1265.39 559.64 1266.19 559.12 1266.57 558.26H1268.55C1267.95 560.12 1266.47 561.28 1264.25 561.28ZM1261.37 555.3H1266.77V555.2C1266.77 553.72 1265.81 552.66 1264.11 552.66C1262.49 552.66 1261.45 553.74 1261.37 555.3ZM1271.97 549.62C1271.97 547.94 1272.95 547 1274.61 547H1277.73V548.7H1275.01C1274.31 548.7 1273.89 549.06 1273.89 549.82V551.38H1277.13V553.08H1273.89V561H1271.97V553.08H1269.43V551.38H1271.97V549.62ZM1282.33 561.28C1279.99 561.28 1278.55 559.84 1278.55 557.18V551.38H1280.49V557C1280.49 558.72 1281.29 559.52 1282.69 559.52C1284.15 559.52 1285.09 558.48 1285.09 556.94V551.38H1287.03V561H1285.31V559.9C1284.67 560.84 1283.57 561.28 1282.33 561.28ZM1293.2 561.28C1290.6 561.28 1289.06 560.24 1288.96 558.26H1290.96C1291.06 559.22 1291.84 559.7 1293.24 559.7C1294.52 559.7 1295.3 559.16 1295.3 558.28C1295.3 557.56 1294.76 557.14 1293.76 557.04L1292.22 556.88C1290.42 556.7 1289.28 555.7 1289.28 554.1C1289.28 552.26 1290.82 551.1 1293.18 551.1C1295.58 551.1 1297.06 552.1 1297.18 554.06H1295.24C1295.18 553.14 1294.42 552.68 1293.16 552.68C1291.96 552.68 1291.2 553.18 1291.2 554C1291.2 554.7 1291.72 555.08 1292.84 555.22L1294.4 555.4C1296.22 555.6 1297.26 556.62 1297.26 558.2C1297.26 560.08 1295.68 561.28 1293.2 561.28ZM1302.3 561.28C1300.08 561.28 1298.68 560.12 1298.68 558.28C1298.68 556.56 1299.84 555.32 1302.2 555.18L1305.12 555.02V554.48C1305.12 553.22 1304.5 552.7 1303.18 552.7C1301.9 552.7 1301.26 553.04 1301.1 554.06H1299.16C1299.38 552.08 1300.74 551.1 1303.32 551.1C1305.62 551.1 1306.96 552.26 1306.96 554.38V559.08C1306.96 559.3 1307.06 559.4 1307.28 559.4H1308.1V561H1306.54C1305.88 561 1305.5 560.64 1305.5 560V559.72C1304.94 560.7 1303.8 561.28 1302.3 561.28ZM1300.62 558.22C1300.62 559.1 1301.34 559.68 1302.52 559.68C1304.08 559.68 1305.12 558.78 1305.12 557.14V556.52L1302.44 556.72C1301.2 556.8 1300.62 557.44 1300.62 558.22ZM1311.89 561C1310.53 561 1309.95 560.48 1309.95 559.18V547H1311.89V558.58C1311.89 559.08 1312.07 559.3 1312.57 559.3H1313.79V561H1311.89ZM1320.73 561V547H1326.73C1329.65 547 1331.37 548.52 1331.37 551.02C1331.37 553.42 1329.81 554.92 1327.15 555.06L1331.77 561H1329.27L1324.67 555.04H1322.73V561H1320.73ZM1322.73 553.22H1326.73C1328.39 553.22 1329.33 552.42 1329.33 551.02C1329.33 549.66 1328.39 548.88 1326.73 548.88H1322.73V553.22ZM1336.48 561.28C1334.26 561.28 1332.86 560.12 1332.86 558.28C1332.86 556.56 1334.02 555.32 1336.38 555.18L1339.3 555.02V554.48C1339.3 553.22 1338.68 552.7 1337.36 552.7C1336.08 552.7 1335.44 553.04 1335.28 554.06H1333.34C1333.56 552.08 1334.92 551.1 1337.5 551.1C1339.8 551.1 1341.14 552.26 1341.14 554.38V559.08C1341.14 559.3 1341.24 559.4 1341.46 559.4H1342.28V561H1340.72C1340.06 561 1339.68 560.64 1339.68 560V559.72C1339.12 560.7 1337.98 561.28 1336.48 561.28ZM1334.8 558.22C1334.8 559.1 1335.52 559.68 1336.7 559.68C1338.26 559.68 1339.3 558.78 1339.3 557.14V556.52L1336.62 556.72C1335.38 556.8 1334.8 557.44 1334.8 558.22ZM1347.43 561C1345.77 561 1345.05 560.34 1345.05 558.68V553.08H1342.53V551.38H1345.05V548.5H1346.99V551.38H1350.01V553.08H1346.99V558.3C1346.99 559 1347.27 559.3 1348.01 559.3H1350.01V561H1347.43ZM1355.82 561.28C1352.94 561.28 1351.02 559.26 1351.02 556.14C1351.02 553.04 1352.94 551.1 1355.68 551.1C1358.54 551.1 1360.3 552.96 1360.3 555.9C1360.3 556.16 1360.28 556.42 1360.24 556.82H1352.94C1353.02 558.58 1354.1 559.64 1355.82 559.64C1356.96 559.64 1357.76 559.12 1358.14 558.26H1360.12C1359.52 560.12 1358.04 561.28 1355.82 561.28ZM1352.94 555.3H1358.34V555.2C1358.34 553.72 1357.38 552.66 1355.68 552.66C1354.06 552.66 1353.02 553.74 1352.94 555.3Z" fill="#0D0D0D"/>
<rect x="1271.9" y="575.5" width="63" height="20" rx="10" stroke="#0B8900"/>
<path d="M1278.53 587.004V585.702H1282.78V587.004H1278.53ZM1283.79 590V588.726H1286.87C1288.07 588.726 1288.9 587.998 1288.9 586.92C1288.9 585.856 1288.14 585.128 1286.87 585.128H1284.03V580.2H1289.88V581.474H1285.38V583.896H1287.02C1289.01 583.896 1290.31 585.086 1290.31 586.864C1290.31 588.726 1288.94 590 1286.87 590H1283.79ZM1291.86 590V588.082H1293.54V590H1291.86ZM1299.95 590V587.088H1294.7V585.856L1299.42 580.2H1301.31V585.856H1302.92V587.088H1301.31V590H1299.95ZM1296.22 585.856H1299.95V581.376L1296.22 585.856ZM1309.2 590V587.088H1303.95V585.856L1308.66 580.2H1310.55V585.856H1312.16V587.088H1310.55V590H1309.2ZM1305.46 585.856H1309.2V581.376L1305.46 585.856ZM1312.2 590L1314.82 586.528L1312.34 583.266H1313.99L1315.7 585.59L1317.39 583.266H1319.05L1316.57 586.528L1319.19 590H1317.53L1315.7 587.536L1313.85 590H1312.2Z" fill="#0B8900"/>
<path fill-rule="evenodd" clip-rule="evenodd" d="M1329.4 584.875L1325.9 590.5L1322.4 584.875H1325.29V580.5H1326.51V584.875H1329.4Z" fill="#0B8900"/>
</g>
<defs>
<clipPath id="clip0_4638_113693">
<rect width="1278" height="432" fill="white" transform="translate(129 164)"/>
</clipPath>
</defs>
</svg>
