<svg width="1536" height="760" viewBox="0 0 1536 760" fill="none" xmlns="http://www.w3.org/2000/svg">
<g clip-path="url(#clip0_3920_20597)">
<path d="M452.681 187.336C448.193 187.336 445.121 184.288 445.121 178.6C445.121 172.912 448.193 169.864 452.681 169.864C457.145 169.864 460.217 172.912 460.217 178.6C460.217 184.288 457.145 187.336 452.681 187.336ZM447.593 178.6C447.593 182.944 449.681 185.104 452.681 185.104C455.657 185.104 457.745 182.944 457.745 178.6C457.745 174.256 455.657 172.096 452.681 172.096C449.681 172.096 447.593 174.256 447.593 178.6ZM463.221 187V175.456H465.285V176.968C465.981 175.72 467.373 175.12 468.933 175.12C471.765 175.12 473.541 176.848 473.541 180.04V187H471.213V180.256C471.213 178.192 470.205 177.232 468.501 177.232C466.725 177.232 465.549 178.456 465.549 180.328V187H463.221ZM482.857 187.336C481.057 187.336 479.593 186.616 478.849 185.344V187H476.785V170.2H479.113V176.848C479.857 175.744 481.201 175.12 482.857 175.12C486.145 175.12 488.401 177.568 488.401 181.216C488.401 184.888 486.145 187.336 482.857 187.336ZM479.065 181.216C479.065 183.616 480.433 185.224 482.521 185.224C484.609 185.224 486.001 183.616 486.001 181.216C486.001 178.84 484.609 177.232 482.521 177.232C480.433 177.232 479.065 178.84 479.065 181.216ZM496.283 187.336C492.779 187.336 490.331 184.888 490.331 181.216C490.331 177.568 492.779 175.12 496.283 175.12C499.811 175.12 502.235 177.568 502.235 181.216C502.235 184.888 499.811 187.336 496.283 187.336ZM492.731 181.216C492.731 183.616 494.171 185.224 496.283 185.224C498.419 185.224 499.835 183.616 499.835 181.216C499.835 178.84 498.419 177.232 496.283 177.232C494.171 177.232 492.731 178.84 492.731 181.216ZM508.282 187.336C505.618 187.336 503.938 185.944 503.938 183.736C503.938 181.672 505.33 180.184 508.162 180.016L511.666 179.824V179.176C511.666 177.664 510.922 177.04 509.338 177.04C507.802 177.04 507.034 177.448 506.842 178.672H504.514C504.778 176.296 506.41 175.12 509.506 175.12C512.266 175.12 513.874 176.512 513.874 179.056V184.696C513.874 184.96 513.994 185.08 514.258 185.08H515.242V187H513.37C512.578 187 512.122 186.568 512.122 185.8V185.464C511.45 186.64 510.082 187.336 508.282 187.336ZM506.266 183.664C506.266 184.72 507.13 185.416 508.546 185.416C510.418 185.416 511.666 184.336 511.666 182.368V181.624L508.45 181.864C506.962 181.96 506.266 182.728 506.266 183.664ZM517.456 187V175.456H519.52V177.328C519.808 176.176 520.672 175.456 522.04 175.456H524.248V177.496H521.824C520.384 177.496 519.784 178.312 519.784 179.872V187H517.456ZM530.358 187.336C527.07 187.336 524.814 184.888 524.814 181.216C524.814 177.568 527.07 175.12 530.358 175.12C532.038 175.12 533.406 175.744 534.126 176.872V170.2H536.43V187H534.366V185.392C533.598 186.616 532.158 187.336 530.358 187.336ZM527.214 181.216C527.214 183.616 528.63 185.224 530.718 185.224C532.806 185.224 534.174 183.616 534.174 181.216C534.174 178.84 532.806 177.232 530.718 177.232C528.63 177.232 527.214 178.84 527.214 181.216ZM539.945 187V175.456H542.273V187H539.945ZM539.801 173.128V170.368H542.393V173.128H539.801ZM545.658 187V175.456H547.722V176.968C548.418 175.72 549.81 175.12 551.37 175.12C554.202 175.12 555.978 176.848 555.978 180.04V187H553.65V180.256C553.65 178.192 552.642 177.232 550.938 177.232C549.162 177.232 547.986 178.456 547.986 180.328V187H545.658ZM561.718 191.32C559.15 191.32 557.998 190.12 557.998 188.44C557.998 187.456 558.526 186.568 559.51 186.088C558.862 185.656 558.454 184.96 558.454 184.216C558.454 183.184 559.102 182.344 560.446 182.008C559.366 181.288 558.91 180.16 558.91 179.08C558.91 176.824 560.638 175.12 563.518 175.12C565.366 175.12 566.854 176.056 567.334 177.256V176.896C567.334 175.744 567.958 175.456 568.774 175.456H570.478V177.496H568.63C568.27 177.496 568.126 177.64 568.126 178V179.224C568.126 181.624 566.254 183.184 563.638 183.184H561.646C560.974 183.184 560.518 183.496 560.518 184.12C560.518 184.744 561.046 185.056 561.646 185.056H565.846C568.054 185.056 569.47 186.112 569.47 188.008C569.47 189.904 568.342 191.32 565.702 191.32H561.718ZM560.23 188.224C560.23 188.968 560.71 189.544 561.982 189.544H565.558C566.47 189.544 567.238 189.112 567.238 188.08C567.238 187.288 566.614 186.832 565.678 186.832H562.054C560.758 186.832 560.23 187.48 560.23 188.224ZM561.142 179.152C561.142 180.496 562.03 181.36 563.518 181.36C565.03 181.36 565.894 180.496 565.894 179.152C565.894 177.808 565.006 176.944 563.518 176.944C562.006 176.944 561.142 177.808 561.142 179.152ZM582.297 187.336C579.177 187.336 577.329 186.088 577.209 183.712H579.609C579.729 184.864 580.665 185.44 582.345 185.44C583.881 185.44 584.817 184.792 584.817 183.736C584.817 182.872 584.169 182.368 582.969 182.248L581.121 182.056C578.961 181.84 577.593 180.64 577.593 178.72C577.593 176.512 579.441 175.12 582.273 175.12C585.153 175.12 586.929 176.32 587.073 178.672H584.745C584.673 177.568 583.761 177.016 582.249 177.016C580.809 177.016 579.897 177.616 579.897 178.6C579.897 179.44 580.521 179.896 581.865 180.064L583.737 180.28C585.921 180.52 587.169 181.744 587.169 183.64C587.169 185.896 585.273 187.336 582.297 187.336ZM597.186 187L593.25 181.816H592.026V187H589.698V170.2H592.026V179.656H593.25L597.138 175.456H599.994L595.29 180.688L599.994 187H597.186ZM601.903 187V175.456H604.231V187H601.903ZM601.759 173.128V170.368H604.351V173.128H601.759ZM607.733 191.32V175.456H609.797V177.088C610.541 175.84 612.005 175.12 613.805 175.12C617.093 175.12 619.349 177.568 619.349 181.216C619.349 184.888 617.093 187.336 613.805 187.336C612.149 187.336 610.805 186.712 610.061 185.584V191.32H607.733ZM610.013 181.216C610.013 183.616 611.381 185.224 613.469 185.224C615.557 185.224 616.949 183.616 616.949 181.216C616.949 178.84 615.557 177.232 613.469 177.232C611.381 177.232 610.013 178.84 610.013 181.216ZM626.079 187.336C622.959 187.336 621.111 186.088 620.991 183.712H623.391C623.511 184.864 624.447 185.44 626.127 185.44C627.663 185.44 628.599 184.792 628.599 183.736C628.599 182.872 627.951 182.368 626.751 182.248L624.903 182.056C622.743 181.84 621.375 180.64 621.375 178.72C621.375 176.512 623.223 175.12 626.055 175.12C628.935 175.12 630.711 176.32 630.855 178.672H628.527C628.455 177.568 627.543 177.016 626.031 177.016C624.591 177.016 623.679 177.616 623.679 178.6C623.679 179.44 624.303 179.896 625.647 180.064L627.519 180.28C629.703 180.52 630.951 181.744 630.951 183.64C630.951 185.896 629.055 187.336 626.079 187.336Z" fill="#0D0D0D"/>
<path d="M1131.12 187.336C1126.66 187.336 1123.58 184.408 1123.58 178.624C1123.58 172.84 1126.54 169.864 1131.17 169.864C1134.82 169.864 1137.31 171.976 1137.82 175.576H1135.3C1134.94 173.368 1133.28 172.096 1131.17 172.096C1128.1 172.096 1126.06 174.088 1126.06 178.576C1126.06 183.016 1128.19 185.104 1131.12 185.104C1133.45 185.104 1134.91 183.544 1135.3 181.384H1137.79C1137.22 184.864 1134.91 187.336 1131.12 187.336ZM1145.51 187.336C1142 187.336 1139.55 184.888 1139.55 181.216C1139.55 177.568 1142 175.12 1145.51 175.12C1149.03 175.12 1151.46 177.568 1151.46 181.216C1151.46 184.888 1149.03 187.336 1145.51 187.336ZM1141.95 181.216C1141.95 183.616 1143.39 185.224 1145.51 185.224C1147.64 185.224 1149.06 183.616 1149.06 181.216C1149.06 178.84 1147.64 177.232 1145.51 177.232C1143.39 177.232 1141.95 178.84 1141.95 181.216ZM1154.12 187V175.456H1156.19V176.968C1156.88 175.72 1158.27 175.12 1159.83 175.12C1162.67 175.12 1164.44 176.848 1164.44 180.04V187H1162.11V180.256C1162.11 178.192 1161.11 177.232 1159.4 177.232C1157.63 177.232 1156.45 178.456 1156.45 180.328V187H1154.12ZM1170.43 187L1165.63 175.456H1168.23L1171.78 184.504L1175.31 175.456H1177.9L1173.07 187H1170.43ZM1184.39 187.336C1180.94 187.336 1178.63 184.912 1178.63 181.168C1178.63 177.448 1180.94 175.12 1184.22 175.12C1187.66 175.12 1189.77 177.352 1189.77 180.88C1189.77 181.192 1189.74 181.504 1189.7 181.984H1180.94C1181.03 184.096 1182.33 185.368 1184.39 185.368C1185.76 185.368 1186.72 184.744 1187.18 183.712H1189.55C1188.83 185.944 1187.06 187.336 1184.39 187.336ZM1180.94 180.16H1187.42V180.04C1187.42 178.264 1186.26 176.992 1184.22 176.992C1182.28 176.992 1181.03 178.288 1180.94 180.16ZM1192.33 187V175.456H1194.4V177.328C1194.68 176.176 1195.55 175.456 1196.92 175.456H1199.12V177.496H1196.7C1195.26 177.496 1194.66 178.312 1194.66 179.872V187H1192.33ZM1204.89 187.336C1201.77 187.336 1199.92 186.088 1199.8 183.712H1202.2C1202.32 184.864 1203.26 185.44 1204.94 185.44C1206.47 185.44 1207.41 184.792 1207.41 183.736C1207.41 182.872 1206.76 182.368 1205.56 182.248L1203.71 182.056C1201.55 181.84 1200.19 180.64 1200.19 178.72C1200.19 176.512 1202.03 175.12 1204.87 175.12C1207.75 175.12 1209.52 176.32 1209.67 178.672H1207.34C1207.27 177.568 1206.35 177.016 1204.84 177.016C1203.4 177.016 1202.49 177.616 1202.49 178.6C1202.49 179.44 1203.11 179.896 1204.46 180.064L1206.33 180.28C1208.51 180.52 1209.76 181.744 1209.76 183.64C1209.76 185.896 1207.87 187.336 1204.89 187.336ZM1212.29 187V175.456H1214.62V187H1212.29ZM1212.15 173.128V170.368H1214.74V173.128H1212.15ZM1223.21 187.336C1219.71 187.336 1217.26 184.888 1217.26 181.216C1217.26 177.568 1219.71 175.12 1223.21 175.12C1226.74 175.12 1229.16 177.568 1229.16 181.216C1229.16 184.888 1226.74 187.336 1223.21 187.336ZM1219.66 181.216C1219.66 183.616 1221.1 185.224 1223.21 185.224C1225.35 185.224 1226.76 183.616 1226.76 181.216C1226.76 178.84 1225.35 177.232 1223.21 177.232C1221.1 177.232 1219.66 178.84 1219.66 181.216ZM1231.83 187V175.456H1233.89V176.968C1234.59 175.72 1235.98 175.12 1237.54 175.12C1240.37 175.12 1242.15 176.848 1242.15 180.04V187H1239.82V180.256C1239.82 178.192 1238.81 177.232 1237.11 177.232C1235.33 177.232 1234.15 178.456 1234.15 180.328V187H1231.83ZM1251.58 187V170.2H1258.78C1262.28 170.2 1264.35 172.024 1264.35 175.024C1264.35 177.904 1262.47 179.704 1259.28 179.872L1264.83 187H1261.83L1256.31 179.848H1253.98V187H1251.58ZM1253.98 177.664H1258.78C1260.77 177.664 1261.9 176.704 1261.9 175.024C1261.9 173.392 1260.77 172.456 1258.78 172.456H1253.98V177.664ZM1270.49 187.336C1267.82 187.336 1266.14 185.944 1266.14 183.736C1266.14 181.672 1267.54 180.184 1270.37 180.016L1273.87 179.824V179.176C1273.87 177.664 1273.13 177.04 1271.54 177.04C1270.01 177.04 1269.24 177.448 1269.05 178.672H1266.72C1266.98 176.296 1268.62 175.12 1271.71 175.12C1274.47 175.12 1276.08 176.512 1276.08 179.056V184.696C1276.08 184.96 1276.2 185.08 1276.46 185.08H1277.45V187H1275.58C1274.78 187 1274.33 186.568 1274.33 185.8V185.464C1273.66 186.64 1272.29 187.336 1270.49 187.336ZM1268.47 183.664C1268.47 184.72 1269.34 185.416 1270.75 185.416C1272.62 185.416 1273.87 184.336 1273.87 182.368V181.624L1270.66 181.864C1269.17 181.96 1268.47 182.728 1268.47 183.664ZM1283.63 187C1281.64 187 1280.77 186.208 1280.77 184.216V177.496H1277.75V175.456H1280.77V172H1283.1V175.456H1286.72V177.496H1283.1V183.76C1283.1 184.6 1283.44 184.96 1284.32 184.96H1286.72V187H1283.63ZM1293.69 187.336C1290.24 187.336 1287.93 184.912 1287.93 181.168C1287.93 177.448 1290.24 175.12 1293.53 175.12C1296.96 175.12 1299.07 177.352 1299.07 180.88C1299.07 181.192 1299.05 181.504 1299 181.984H1290.24C1290.33 184.096 1291.63 185.368 1293.69 185.368C1295.06 185.368 1296.02 184.744 1296.48 183.712H1298.85C1298.13 185.944 1296.36 187.336 1293.69 187.336ZM1290.24 180.16H1296.72V180.04C1296.72 178.264 1295.57 176.992 1293.53 176.992C1291.58 176.992 1290.33 178.288 1290.24 180.16Z" fill="#0D0D0D"/>
<rect x="129" y="357" width="182.833" height="162" rx="16" fill="#0D0D0D" fill-opacity="0.08"/>
<rect x="129.5" y="357.5" width="181.833" height="161" rx="15.5" stroke="#0D0D0D" stroke-opacity="0.08"/>
<path d="M190.017 491V488.088H197.057C199.809 488.088 201.697 486.424 201.697 483.96C201.697 481.528 199.969 479.864 197.057 479.864H190.561V468.6H203.937V471.512H193.665V477.048H197.409C201.953 477.048 204.929 479.768 204.929 483.832C204.929 488.088 201.793 491 197.057 491H190.017ZM216.555 491.448C211.531 491.448 208.011 488.024 208.011 481.112C208.011 473.432 210.987 468.6 218.507 468.6H222.795V471.512H218.507C213.323 471.512 211.435 474.136 211.179 479.064C212.171 477.496 214.219 476.376 217.035 476.376C221.547 476.376 224.715 479.512 224.715 483.832C224.715 488.216 221.387 491.448 216.555 491.448ZM211.467 483.928C211.467 486.712 213.515 488.632 216.459 488.632C219.403 488.632 221.483 486.712 221.483 483.928C221.483 481.144 219.403 479.224 216.459 479.224C213.515 479.224 211.467 481.112 211.467 483.928ZM231.86 467.832C233.439 467.832 234.634 468.461 235.444 469.72C236.255 470.957 236.66 472.707 236.66 474.968C236.66 477.229 236.266 479 235.476 480.28C234.708 481.539 233.503 482.168 231.86 482.168C230.858 482.168 230.004 481.88 229.3 481.304C228.596 480.728 228.063 479.907 227.7 478.84C227.359 477.752 227.188 476.461 227.188 474.968C227.188 472.707 227.562 470.957 228.308 469.72C229.055 468.461 230.239 467.832 231.86 467.832ZM231.86 469.816C231.05 469.816 230.452 470.253 230.068 471.128C229.706 471.981 229.524 473.261 229.524 474.968C229.524 476.675 229.706 477.965 230.068 478.84C230.452 479.715 231.05 480.152 231.86 480.152C232.692 480.152 233.311 479.725 233.716 478.872C234.122 477.997 234.324 476.696 234.324 474.968C234.324 473.261 234.122 471.981 233.716 471.128C233.311 470.253 232.692 469.816 231.86 469.816ZM246.484 468.152L233.812 491H231.348L244.021 468.152H246.484ZM245.844 476.984C246.89 476.984 247.765 477.272 248.469 477.848C249.172 478.403 249.706 479.213 250.069 480.28C250.453 481.325 250.645 482.605 250.645 484.12C250.645 486.381 250.25 488.152 249.461 489.432C248.693 490.691 247.487 491.32 245.844 491.32C244.842 491.32 243.988 491.032 243.285 490.456C242.581 489.88 242.047 489.059 241.684 487.992C241.343 486.904 241.172 485.613 241.172 484.12C241.172 481.859 241.546 480.109 242.292 478.872C243.039 477.613 244.223 476.984 245.844 476.984ZM245.844 479C245.034 479 244.436 479.427 244.052 480.28C243.69 481.133 243.508 482.413 243.508 484.12C243.508 485.848 243.69 487.149 244.052 488.024C244.436 488.877 245.034 489.304 245.844 489.304C246.676 489.304 247.295 488.877 247.701 488.024C248.106 487.171 248.309 485.869 248.309 484.12C248.309 482.413 248.106 481.133 247.701 480.28C247.295 479.427 246.676 479 245.844 479Z" fill="#0D0D0D"/>
<rect x="331.833" y="293" width="182.833" height="226" rx="16" fill="#0D0D0D"/>
<path d="M396.83 485.848C396.83 480.824 397.63 477.528 401.438 473.88L403.902 471.512H391.838V468.6H408.094V471.512L404.158 475.224C401.15 478.136 400.062 480.6 400.062 485.688V491H396.83V485.848ZM418.544 491.448C413.136 491.448 410.032 488.632 410.032 484.664C410.032 482.072 411.664 479.896 414.16 479.096C411.92 478.328 410.672 476.344 410.672 474.2C410.672 470.648 413.776 468.152 418.544 468.152C423.344 468.152 426.448 470.648 426.448 474.2C426.448 476.344 425.2 478.328 422.96 479.096C425.456 479.896 427.088 482.072 427.088 484.664C427.088 488.632 423.984 491.448 418.544 491.448ZM413.232 484.568C413.232 487 415.12 488.76 418.544 488.76C422 488.76 423.888 487 423.888 484.568C423.888 482.104 421.872 480.472 418.544 480.472C415.248 480.472 413.232 482.104 413.232 484.568ZM413.872 474.392C413.872 476.472 415.664 477.848 418.544 477.848C421.424 477.848 423.248 476.472 423.248 474.392C423.248 472.312 421.52 470.84 418.544 470.84C415.6 470.84 413.872 472.312 413.872 474.392ZM434.663 467.832C436.241 467.832 437.436 468.461 438.247 469.72C439.057 470.957 439.463 472.707 439.463 474.968C439.463 477.229 439.068 479 438.279 480.28C437.511 481.539 436.305 482.168 434.663 482.168C433.66 482.168 432.807 481.88 432.103 481.304C431.399 480.728 430.865 479.907 430.503 478.84C430.161 477.752 429.991 476.461 429.991 474.968C429.991 472.707 430.364 470.957 431.111 469.72C431.857 468.461 433.041 467.832 434.663 467.832ZM434.663 469.816C433.852 469.816 433.255 470.253 432.871 471.128C432.508 471.981 432.327 473.261 432.327 474.968C432.327 476.675 432.508 477.965 432.871 478.84C433.255 479.715 433.852 480.152 434.663 480.152C435.495 480.152 436.113 479.725 436.519 478.872C436.924 477.997 437.127 476.696 437.127 474.968C437.127 473.261 436.924 471.981 436.519 471.128C436.113 470.253 435.495 469.816 434.663 469.816ZM449.287 468.152L436.615 491H434.151L446.823 468.152H449.287ZM448.647 476.984C449.692 476.984 450.567 477.272 451.271 477.848C451.975 478.403 452.508 479.213 452.871 480.28C453.255 481.325 453.447 482.605 453.447 484.12C453.447 486.381 453.052 488.152 452.263 489.432C451.495 490.691 450.289 491.32 448.647 491.32C447.644 491.32 446.791 491.032 446.087 490.456C445.383 489.88 444.849 489.059 444.487 487.992C444.145 486.904 443.975 485.613 443.975 484.12C443.975 481.859 444.348 480.109 445.095 478.872C445.841 477.613 447.025 476.984 448.647 476.984ZM448.647 479C447.836 479 447.239 479.427 446.855 480.28C446.492 481.133 446.311 482.413 446.311 484.12C446.311 485.848 446.492 487.149 446.855 488.024C447.239 488.877 447.836 489.304 448.647 489.304C449.479 489.304 450.097 488.877 450.503 488.024C450.908 487.171 451.111 485.869 451.111 484.12C451.111 482.413 450.908 481.133 450.503 480.28C450.097 479.427 449.479 479 448.647 479Z" fill="white"/>
<path d="M271.529 561.28C268.069 561.28 265.989 559.54 265.969 556.72H268.029C268.049 558.42 269.369 559.5 271.529 559.5C273.449 559.5 274.669 558.5 274.669 556.98C274.669 555.76 273.889 555.02 272.289 554.8L270.449 554.54C267.769 554.18 266.429 552.86 266.429 550.76C266.429 548.3 268.409 546.72 271.429 546.72C274.569 546.72 276.489 548.24 276.549 550.68H274.489C274.429 549.32 273.269 548.48 271.429 548.48C269.669 548.48 268.509 549.32 268.509 550.64C268.509 551.78 269.329 552.42 271.049 552.66L272.789 552.9C275.389 553.26 276.749 554.6 276.749 556.86C276.749 559.54 274.769 561.28 271.529 561.28ZM283.206 561.28C280.326 561.28 278.406 559.26 278.406 556.14C278.406 553.04 280.326 551.1 283.066 551.1C285.926 551.1 287.686 552.96 287.686 555.9C287.686 556.16 287.666 556.42 287.626 556.82H280.326C280.406 558.58 281.486 559.64 283.206 559.64C284.346 559.64 285.146 559.12 285.526 558.26H287.506C286.906 560.12 285.426 561.28 283.206 561.28ZM280.326 555.3H285.726V555.2C285.726 553.72 284.766 552.66 283.066 552.66C281.446 552.66 280.406 553.74 280.326 555.3ZM293.903 561.28C291.023 561.28 289.163 559.14 289.163 556.22C289.163 553.22 291.123 551.1 294.023 551.1C296.463 551.1 298.123 552.52 298.343 554.54H296.363C296.183 553.64 295.383 552.86 294.003 552.86C292.283 552.86 291.163 554.16 291.163 556.18C291.163 558.24 292.303 559.52 293.963 559.52C295.263 559.52 296.203 558.76 296.403 557.64H298.383C298.123 559.56 296.523 561.28 293.903 561.28ZM304.607 561.28C301.687 561.28 299.647 559.24 299.647 556.18C299.647 553.14 301.687 551.1 304.607 551.1C307.547 551.1 309.567 553.14 309.567 556.18C309.567 559.24 307.547 561.28 304.607 561.28ZM301.647 556.18C301.647 558.18 302.847 559.52 304.607 559.52C306.387 559.52 307.567 558.18 307.567 556.18C307.567 554.2 306.387 552.86 304.607 552.86C302.847 552.86 301.647 554.2 301.647 556.18ZM311.787 561V551.38H313.507V552.64C314.087 551.6 315.247 551.1 316.547 551.1C318.907 551.1 320.387 552.54 320.387 555.2V561H318.447V555.38C318.447 553.66 317.607 552.86 316.187 552.86C314.707 552.86 313.727 553.88 313.727 555.44V561H311.787ZM327.07 561.28C324.33 561.28 322.45 559.24 322.45 556.18C322.45 553.14 324.33 551.1 327.07 551.1C328.47 551.1 329.61 551.62 330.21 552.56V547H332.13V561H330.41V559.66C329.77 560.68 328.57 561.28 327.07 561.28ZM324.45 556.18C324.45 558.18 325.63 559.52 327.37 559.52C329.11 559.52 330.25 558.18 330.25 556.18C330.25 554.2 329.11 552.86 327.37 552.86C325.63 552.86 324.45 554.2 324.45 556.18ZM343.296 561.28C340.696 561.28 339.156 560.24 339.056 558.26H341.056C341.156 559.22 341.936 559.7 343.336 559.7C344.616 559.7 345.396 559.16 345.396 558.28C345.396 557.56 344.856 557.14 343.856 557.04L342.316 556.88C340.516 556.7 339.376 555.7 339.376 554.1C339.376 552.26 340.916 551.1 343.276 551.1C345.676 551.1 347.156 552.1 347.276 554.06H345.336C345.276 553.14 344.516 552.68 343.256 552.68C342.056 552.68 341.296 553.18 341.296 554C341.296 554.7 341.816 555.08 342.936 555.22L344.496 555.4C346.316 555.6 347.356 556.62 347.356 558.2C347.356 560.08 345.776 561.28 343.296 561.28ZM352.963 561C351.303 561 350.583 560.34 350.583 558.68V553.08H348.063V551.38H350.583V548.5H352.523V551.38H355.543V553.08H352.523V558.3C352.523 559 352.803 559.3 353.543 559.3H355.543V561H352.963ZM361.352 561.28C358.472 561.28 356.552 559.26 356.552 556.14C356.552 553.04 358.472 551.1 361.212 551.1C364.072 551.1 365.832 552.96 365.832 555.9C365.832 556.16 365.812 556.42 365.772 556.82H358.472C358.552 558.58 359.632 559.64 361.352 559.64C362.492 559.64 363.292 559.12 363.672 558.26H365.652C365.052 560.12 363.572 561.28 361.352 561.28ZM358.472 555.3H363.872V555.2C363.872 553.72 362.912 552.66 361.212 552.66C359.592 552.66 358.552 553.74 358.472 555.3ZM367.97 564.6V551.38H369.69V552.74C370.31 551.7 371.53 551.1 373.03 551.1C375.77 551.1 377.65 553.14 377.65 556.18C377.65 559.24 375.77 561.28 373.03 561.28C371.65 561.28 370.53 560.76 369.91 559.82V564.6H367.97ZM369.87 556.18C369.87 558.18 371.01 559.52 372.75 559.52C374.49 559.52 375.65 558.18 375.65 556.18C375.65 554.2 374.49 552.86 372.75 552.86C371.01 552.86 369.87 554.2 369.87 556.18Z" fill="#0D0D0D"/>
<rect x="289.333" y="575.5" width="65" height="20" rx="10" stroke="#E20B0B"/>
<path d="M299.864 584.568H302.65V585.562H299.864V588.446H298.856V585.562H296.07V584.568H298.856V581.67H299.864V584.568ZM303.858 590V588.726H306.42V581.502H304.642V580.2H307.778V588.726H310.298V590H303.858ZM311.925 590V588.082H313.605V590H311.925ZM315.427 590V588.726H318.507C319.907 588.726 320.719 588.068 320.719 586.976C320.719 585.968 319.935 585.338 318.577 585.338H317.107V584.204L319.949 581.474H315.287V580.2H321.741V581.474L318.787 584.232H318.969C320.901 584.232 322.133 585.324 322.133 586.962C322.133 588.796 320.677 590 318.507 590H315.427ZM326.939 580.004C329.137 580.004 330.677 581.502 330.677 584.526C330.677 587.886 329.375 590 326.085 590H324.209V588.726H326.085C328.353 588.726 329.179 587.578 329.291 585.422C328.857 586.108 327.961 586.598 326.729 586.598C324.755 586.598 323.369 585.226 323.369 583.336C323.369 581.418 324.825 580.004 326.939 580.004ZM324.783 583.294C324.783 584.512 325.693 585.352 326.981 585.352C328.269 585.352 329.165 584.526 329.165 583.294C329.165 582.076 328.269 581.236 326.981 581.236C325.693 581.236 324.783 582.076 324.783 583.294ZM331.633 590L334.251 586.528L331.773 583.266H333.425L335.133 585.59L336.827 583.266H338.479L336.001 586.528L338.619 590H336.967L335.133 587.536L333.285 590H331.633Z" fill="#E20B0B"/>
<path fill-rule="evenodd" clip-rule="evenodd" d="M341.833 585.625L345.333 580L348.833 585.625H345.939V590H344.727V585.625H341.833Z" fill="#E20B0B"/>
<rect x="554.667" y="279" width="182.833" height="240" rx="16" fill="#0D0D0D" fill-opacity="0.08"/>
<rect x="555.167" y="279.5" width="181.833" height="239" rx="15.5" stroke="#0D0D0D" stroke-opacity="0.08"/>
<path d="M623.759 491.448C618.351 491.448 615.247 488.632 615.247 484.664C615.247 482.072 616.879 479.896 619.375 479.096C617.135 478.328 615.887 476.344 615.887 474.2C615.887 470.648 618.991 468.152 623.759 468.152C628.559 468.152 631.663 470.648 631.663 474.2C631.663 476.344 630.415 478.328 628.175 479.096C630.671 479.896 632.303 482.072 632.303 484.664C632.303 488.632 629.199 491.448 623.759 491.448ZM618.447 484.568C618.447 487 620.335 488.76 623.759 488.76C627.215 488.76 629.103 487 629.103 484.568C629.103 482.104 627.087 480.472 623.759 480.472C620.463 480.472 618.447 482.104 618.447 484.568ZM619.087 474.392C619.087 476.472 620.879 477.848 623.759 477.848C626.639 477.848 628.463 476.472 628.463 474.392C628.463 472.312 626.735 470.84 623.759 470.84C620.815 470.84 619.087 472.312 619.087 474.392ZM634.701 491V488.088H641.741C644.941 488.088 646.797 486.584 646.797 484.088C646.797 481.784 645.005 480.344 641.901 480.344H638.541V477.752L645.037 471.512H634.381V468.6H649.133V471.512L642.381 477.816H642.797C647.213 477.816 650.029 480.312 650.029 484.056C650.029 488.248 646.701 491 641.741 491H634.701ZM657.621 467.832C659.2 467.832 660.394 468.461 661.205 469.72C662.016 470.957 662.421 472.707 662.421 474.968C662.421 477.229 662.026 479 661.237 480.28C660.469 481.539 659.264 482.168 657.621 482.168C656.618 482.168 655.765 481.88 655.061 481.304C654.357 480.728 653.824 479.907 653.461 478.84C653.12 477.752 652.949 476.461 652.949 474.968C652.949 472.707 653.322 470.957 654.069 469.72C654.816 468.461 656 467.832 657.621 467.832ZM657.621 469.816C656.81 469.816 656.213 470.253 655.829 471.128C655.466 471.981 655.285 473.261 655.285 474.968C655.285 476.675 655.466 477.965 655.829 478.84C656.213 479.715 656.81 480.152 657.621 480.152C658.453 480.152 659.072 479.725 659.477 478.872C659.882 477.997 660.085 476.696 660.085 474.968C660.085 473.261 659.882 471.981 659.477 471.128C659.072 470.253 658.453 469.816 657.621 469.816ZM672.245 468.152L659.573 491H657.109L669.781 468.152H672.245ZM671.605 476.984C672.65 476.984 673.525 477.272 674.229 477.848C674.933 478.403 675.466 479.213 675.829 480.28C676.213 481.325 676.405 482.605 676.405 484.12C676.405 486.381 676.01 488.152 675.221 489.432C674.453 490.691 673.248 491.32 671.605 491.32C670.602 491.32 669.749 491.032 669.045 490.456C668.341 489.88 667.808 489.059 667.445 487.992C667.104 486.904 666.933 485.613 666.933 484.12C666.933 481.859 667.306 480.109 668.053 478.872C668.8 477.613 669.984 476.984 671.605 476.984ZM671.605 479C670.794 479 670.197 479.427 669.813 480.28C669.45 481.133 669.269 482.413 669.269 484.12C669.269 485.848 669.45 487.149 669.813 488.024C670.197 488.877 670.794 489.304 671.605 489.304C672.437 489.304 673.056 488.877 673.461 488.024C673.866 487.171 674.069 485.869 674.069 484.12C674.069 482.413 673.866 481.133 673.461 480.28C673.056 479.427 672.437 479 671.605 479Z" fill="#0D0D0D"/>
<rect x="757.5" y="255" width="182.833" height="264" rx="16" fill="#0D0D0D"/>
<path d="M827.293 468.152C832.317 468.152 835.837 471.576 835.837 478.488C835.837 486.168 832.861 491 825.341 491H821.053V488.088H825.341C830.525 488.088 832.413 485.464 832.669 480.536C831.677 482.104 829.629 483.224 826.813 483.224C822.301 483.224 819.133 480.088 819.133 475.768C819.133 471.384 822.461 468.152 827.293 468.152ZM822.365 475.672C822.365 478.456 824.445 480.376 827.389 480.376C830.333 480.376 832.381 478.488 832.381 475.672C832.381 472.888 830.333 470.968 827.389 470.968C824.445 470.968 822.365 472.888 822.365 475.672ZM837.403 491V488.088H843.259V471.576H839.195V468.6H846.363V488.088H852.123V491H837.403ZM858.86 467.832C860.439 467.832 861.634 468.461 862.444 469.72C863.255 470.957 863.66 472.707 863.66 474.968C863.66 477.229 863.266 479 862.476 480.28C861.708 481.539 860.503 482.168 858.86 482.168C857.858 482.168 857.004 481.88 856.3 481.304C855.596 480.728 855.063 479.907 854.7 478.84C854.359 477.752 854.188 476.461 854.188 474.968C854.188 472.707 854.562 470.957 855.308 469.72C856.055 468.461 857.239 467.832 858.86 467.832ZM858.86 469.816C858.05 469.816 857.452 470.253 857.068 471.128C856.706 471.981 856.524 473.261 856.524 474.968C856.524 476.675 856.706 477.965 857.068 478.84C857.452 479.715 858.05 480.152 858.86 480.152C859.692 480.152 860.311 479.725 860.716 478.872C861.122 477.997 861.324 476.696 861.324 474.968C861.324 473.261 861.122 471.981 860.716 471.128C860.311 470.253 859.692 469.816 858.86 469.816ZM873.484 468.152L860.812 491H858.348L871.02 468.152H873.484ZM872.844 476.984C873.89 476.984 874.764 477.272 875.468 477.848C876.172 478.403 876.706 479.213 877.068 480.28C877.452 481.325 877.644 482.605 877.644 484.12C877.644 486.381 877.25 488.152 876.46 489.432C875.692 490.691 874.487 491.32 872.844 491.32C871.842 491.32 870.988 491.032 870.284 490.456C869.58 489.88 869.047 489.059 868.684 487.992C868.343 486.904 868.172 485.613 868.172 484.12C868.172 481.859 868.546 480.109 869.292 478.872C870.039 477.613 871.223 476.984 872.844 476.984ZM872.844 479C872.034 479 871.436 479.427 871.052 480.28C870.69 481.133 870.508 482.413 870.508 484.12C870.508 485.848 870.69 487.149 871.052 488.024C871.436 488.877 872.034 489.304 872.844 489.304C873.676 489.304 874.295 488.877 874.7 488.024C875.106 487.171 875.308 485.869 875.308 484.12C875.308 482.413 875.106 481.133 874.7 480.28C874.295 479.427 873.676 479 872.844 479Z" fill="white"/>
<path d="M706.695 561V548.88H702.295V547H713.095V548.88H708.695V561H706.695ZM714.78 561V547H716.72V552.32C717.36 551.5 718.38 551.1 719.54 551.1C721.9 551.1 723.38 552.54 723.38 555.2V561H721.44V555.38C721.44 553.66 720.6 552.86 719.18 552.86C717.7 552.86 716.72 553.88 716.72 555.44V561H714.78ZM726.064 561V551.38H728.004V561H726.064ZM725.944 549.44V547.14H728.104V549.44H725.944ZM730.825 561V551.38H732.545V552.94C732.785 551.98 733.505 551.38 734.645 551.38H736.485V553.08H734.465C733.265 553.08 732.765 553.76 732.765 555.06V561H730.825ZM741.577 561.28C738.837 561.28 736.957 559.24 736.957 556.18C736.957 553.14 738.837 551.1 741.577 551.1C742.977 551.1 744.117 551.62 744.717 552.56V547H746.637V561H744.917V559.66C744.277 560.68 743.077 561.28 741.577 561.28ZM738.957 556.18C738.957 558.18 740.137 559.52 741.877 559.52C743.617 559.52 744.757 558.18 744.757 556.18C744.757 554.2 743.617 552.86 741.877 552.86C740.137 552.86 738.957 554.2 738.957 556.18ZM757.803 561.28C755.203 561.28 753.663 560.24 753.563 558.26H755.563C755.663 559.22 756.443 559.7 757.843 559.7C759.123 559.7 759.903 559.16 759.903 558.28C759.903 557.56 759.363 557.14 758.363 557.04L756.823 556.88C755.023 556.7 753.883 555.7 753.883 554.1C753.883 552.26 755.423 551.1 757.783 551.1C760.183 551.1 761.663 552.1 761.783 554.06H759.843C759.783 553.14 759.023 552.68 757.763 552.68C756.563 552.68 755.803 553.18 755.803 554C755.803 554.7 756.323 555.08 757.443 555.22L759.003 555.4C760.823 555.6 761.863 556.62 761.863 558.2C761.863 560.08 760.283 561.28 757.803 561.28ZM767.47 561C765.81 561 765.09 560.34 765.09 558.68V553.08H762.57V551.38H765.09V548.5H767.03V551.38H770.05V553.08H767.03V558.3C767.03 559 767.31 559.3 768.05 559.3H770.05V561H767.47ZM775.859 561.28C772.979 561.28 771.059 559.26 771.059 556.14C771.059 553.04 772.979 551.1 775.719 551.1C778.579 551.1 780.339 552.96 780.339 555.9C780.339 556.16 780.319 556.42 780.279 556.82H772.979C773.059 558.58 774.139 559.64 775.859 559.64C776.999 559.64 777.799 559.12 778.179 558.26H780.159C779.559 560.12 778.079 561.28 775.859 561.28ZM772.979 555.3H778.379V555.2C778.379 553.72 777.419 552.66 775.719 552.66C774.099 552.66 773.059 553.74 772.979 555.3ZM782.476 564.6V551.38H784.196V552.74C784.816 551.7 786.036 551.1 787.536 551.1C790.276 551.1 792.156 553.14 792.156 556.18C792.156 559.24 790.276 561.28 787.536 561.28C786.156 561.28 785.036 560.76 784.416 559.82V564.6H782.476ZM784.376 556.18C784.376 558.18 785.516 559.52 787.256 559.52C788.996 559.52 790.156 558.18 790.156 556.18C790.156 554.2 788.996 552.86 787.256 552.86C785.516 552.86 784.376 554.2 784.376 556.18Z" fill="#0D0D0D"/>
<rect x="714.5" y="575.5" width="66" height="20" rx="10" stroke="#E20B0B"/>
<path d="M724.828 584.568H727.614V585.562H724.828V588.446H723.82V585.562H721.034V584.568H723.82V581.67H724.828V584.568ZM728.822 590V588.726H731.384V581.502H729.606V580.2H732.742V588.726H735.262V590H728.822ZM736.889 590V588.082H738.569V590H736.889ZM744.151 590.196C741.491 590.196 740.217 588.39 740.217 585.1C740.217 581.81 741.491 580.004 744.151 580.004C746.811 580.004 748.085 581.81 748.085 585.1C748.085 588.39 746.811 590.196 744.151 590.196ZM741.631 585.1C741.631 587.662 742.415 588.992 744.151 588.992C745.873 588.992 746.657 587.662 746.657 585.1C746.657 582.538 745.873 581.208 744.151 581.208C742.415 581.208 741.631 582.538 741.631 585.1ZM753.106 580.004C755.304 580.004 756.844 581.502 756.844 584.526C756.844 587.886 755.542 590 752.252 590H750.376V588.726H752.252C754.52 588.726 755.346 587.578 755.458 585.422C755.024 586.108 754.128 586.598 752.896 586.598C750.922 586.598 749.536 585.226 749.536 583.336C749.536 581.418 750.992 580.004 753.106 580.004ZM750.95 583.294C750.95 584.512 751.86 585.352 753.148 585.352C754.436 585.352 755.332 584.526 755.332 583.294C755.332 582.076 754.436 581.236 753.148 581.236C751.86 581.236 750.95 582.076 750.95 583.294ZM757.8 590L760.418 586.528L757.94 583.266H759.592L761.3 585.59L762.994 583.266H764.646L762.168 586.528L764.786 590H763.134L761.3 587.536L759.452 590H757.8Z" fill="#E20B0B"/>
<path fill-rule="evenodd" clip-rule="evenodd" d="M768 585.625L771.5 580L775 585.625H772.106V590H770.894V585.625H768Z" fill="#E20B0B"/>
<rect x="980.333" y="255" width="1" height="275" rx="0.5" fill="#0D0D0D" fill-opacity="0.2"/>
<rect x="1021.33" y="481" width="182.833" height="38" rx="16" fill="#0D0D0D" fill-opacity="0.08"/>
<rect x="1021.83" y="481.5" width="181.833" height="37" rx="15.5" stroke="#0D0D0D" stroke-opacity="0.08"/>
<path d="M1070.84 491V488.088H1076.69V471.576H1072.63V468.6H1079.8V488.088H1085.56V491H1070.84ZM1087.68 491V488.088H1094.72C1097.92 488.088 1099.78 486.584 1099.78 484.088C1099.78 481.784 1097.98 480.344 1094.88 480.344H1091.52V477.752L1098.02 471.512H1087.36V468.6H1102.11V471.512L1095.36 477.816H1095.78C1100.19 477.816 1103.01 480.312 1103.01 484.056C1103.01 488.248 1099.68 491 1094.72 491H1087.68ZM1106.39 491V486.616H1110.23V491H1106.39ZM1113.85 491V488.088H1119.7V471.576H1115.64V468.6H1122.81V488.088H1128.57V491H1113.85ZM1135.3 467.832C1136.88 467.832 1138.08 468.461 1138.89 469.72C1139.7 470.957 1140.1 472.707 1140.1 474.968C1140.1 477.229 1139.71 479 1138.92 480.28C1138.15 481.539 1136.95 482.168 1135.3 482.168C1134.3 482.168 1133.45 481.88 1132.74 481.304C1132.04 480.728 1131.51 479.907 1131.14 478.84C1130.8 477.752 1130.63 476.461 1130.63 474.968C1130.63 472.707 1131.01 470.957 1131.75 469.72C1132.5 468.461 1133.68 467.832 1135.3 467.832ZM1135.3 469.816C1134.49 469.816 1133.9 470.253 1133.51 471.128C1133.15 471.981 1132.97 473.261 1132.97 474.968C1132.97 476.675 1133.15 477.965 1133.51 478.84C1133.9 479.715 1134.49 480.152 1135.3 480.152C1136.14 480.152 1136.75 479.725 1137.16 478.872C1137.57 477.997 1137.77 476.696 1137.77 474.968C1137.77 473.261 1137.57 471.981 1137.16 471.128C1136.75 470.253 1136.14 469.816 1135.3 469.816ZM1149.93 468.152L1137.26 491H1134.79L1147.46 468.152H1149.93ZM1149.29 476.984C1150.33 476.984 1151.21 477.272 1151.91 477.848C1152.62 478.403 1153.15 479.213 1153.51 480.28C1153.9 481.325 1154.09 482.605 1154.09 484.12C1154.09 486.381 1153.69 488.152 1152.9 489.432C1152.14 490.691 1150.93 491.32 1149.29 491.32C1148.29 491.32 1147.43 491.032 1146.73 490.456C1146.02 489.88 1145.49 489.059 1145.13 487.992C1144.79 486.904 1144.62 485.613 1144.62 484.12C1144.62 481.859 1144.99 480.109 1145.74 478.872C1146.48 477.613 1147.67 476.984 1149.29 476.984ZM1149.29 479C1148.48 479 1147.88 479.427 1147.5 480.28C1147.13 481.133 1146.95 482.413 1146.95 484.12C1146.95 485.848 1147.13 487.149 1147.5 488.024C1147.88 488.877 1148.48 489.304 1149.29 489.304C1150.12 489.304 1150.74 488.877 1151.14 488.024C1151.55 487.171 1151.75 485.869 1151.75 484.12C1151.75 482.413 1151.55 481.133 1151.14 480.28C1150.74 479.427 1150.12 479 1149.29 479Z" fill="#0D0D0D"/>
<rect x="1224.17" y="504" width="182.833" height="15" rx="7.5" fill="#0D0D0D"/>
<path d="M1294.68 491V488.088H1301.72C1304.48 488.088 1306.36 486.424 1306.36 483.96C1306.36 481.528 1304.64 479.864 1301.72 479.864H1295.23V468.6H1308.6V471.512H1298.33V477.048H1302.08C1306.62 477.048 1309.6 479.768 1309.6 483.832C1309.6 488.088 1306.46 491 1301.72 491H1294.68ZM1316.88 467.832C1318.46 467.832 1319.65 468.461 1320.46 469.72C1321.27 470.957 1321.68 472.707 1321.68 474.968C1321.68 477.229 1321.28 479 1320.49 480.28C1319.73 481.539 1318.52 482.168 1316.88 482.168C1315.88 482.168 1315.02 481.88 1314.32 481.304C1313.61 480.728 1313.08 479.907 1312.72 478.84C1312.38 477.752 1312.21 476.461 1312.21 474.968C1312.21 472.707 1312.58 470.957 1313.33 469.72C1314.07 468.461 1315.26 467.832 1316.88 467.832ZM1316.88 469.816C1316.07 469.816 1315.47 470.253 1315.09 471.128C1314.72 471.981 1314.54 473.261 1314.54 474.968C1314.54 476.675 1314.72 477.965 1315.09 478.84C1315.47 479.715 1316.07 480.152 1316.88 480.152C1317.71 480.152 1318.33 479.725 1318.73 478.872C1319.14 477.997 1319.34 476.696 1319.34 474.968C1319.34 473.261 1319.14 471.981 1318.73 471.128C1318.33 470.253 1317.71 469.816 1316.88 469.816ZM1331.5 468.152L1318.83 491H1316.37L1329.04 468.152H1331.5ZM1330.86 476.984C1331.91 476.984 1332.78 477.272 1333.49 477.848C1334.19 478.403 1334.72 479.213 1335.09 480.28C1335.47 481.325 1335.66 482.605 1335.66 484.12C1335.66 486.381 1335.27 488.152 1334.48 489.432C1333.71 490.691 1332.51 491.32 1330.86 491.32C1329.86 491.32 1329.01 491.032 1328.3 490.456C1327.6 489.88 1327.07 489.059 1326.7 487.992C1326.36 486.904 1326.19 485.613 1326.19 484.12C1326.19 481.859 1326.56 480.109 1327.31 478.872C1328.06 477.613 1329.24 476.984 1330.86 476.984ZM1330.86 479C1330.05 479 1329.45 479.427 1329.07 480.28C1328.71 481.133 1328.53 482.413 1328.53 484.12C1328.53 485.848 1328.71 487.149 1329.07 488.024C1329.45 488.877 1330.05 489.304 1330.86 489.304C1331.69 489.304 1332.31 488.877 1332.72 488.024C1333.12 487.171 1333.33 485.869 1333.33 484.12C1333.33 482.413 1333.12 481.133 1332.72 480.28C1332.31 479.427 1331.69 479 1330.86 479Z" fill="#0D0D0D"/>
<path d="M1141.61 561V548.88H1137.21V547H1148.01V548.88H1143.61V561H1141.61ZM1148.23 561V551.38H1149.95V552.94C1150.19 551.98 1150.91 551.38 1152.05 551.38H1153.89V553.08H1151.87C1150.67 553.08 1150.17 553.76 1150.17 555.06V561H1148.23ZM1155.34 561V551.38H1157.28V561H1155.34ZM1155.22 549.44V547.14H1157.38V549.44H1155.22ZM1162.98 561.28C1160.76 561.28 1159.36 560.12 1159.36 558.28C1159.36 556.56 1160.52 555.32 1162.88 555.18L1165.8 555.02V554.48C1165.8 553.22 1165.18 552.7 1163.86 552.7C1162.58 552.7 1161.94 553.04 1161.78 554.06H1159.84C1160.06 552.08 1161.42 551.1 1164 551.1C1166.3 551.1 1167.64 552.26 1167.64 554.38V559.08C1167.64 559.3 1167.74 559.4 1167.96 559.4H1168.78V561H1167.22C1166.56 561 1166.18 560.64 1166.18 560V559.72C1165.62 560.7 1164.48 561.28 1162.98 561.28ZM1161.3 558.22C1161.3 559.1 1162.02 559.68 1163.2 559.68C1164.76 559.68 1165.8 558.78 1165.8 557.14V556.52L1163.12 556.72C1161.88 556.8 1161.3 557.44 1161.3 558.22ZM1172.56 561C1171.2 561 1170.62 560.48 1170.62 559.18V547H1172.56V558.58C1172.56 559.08 1172.74 559.3 1173.24 559.3H1174.46V561H1172.56ZM1184.5 561.28C1181.9 561.28 1180.36 560.24 1180.26 558.26H1182.26C1182.36 559.22 1183.14 559.7 1184.54 559.7C1185.82 559.7 1186.6 559.16 1186.6 558.28C1186.6 557.56 1186.06 557.14 1185.06 557.04L1183.52 556.88C1181.72 556.7 1180.58 555.7 1180.58 554.1C1180.58 552.26 1182.12 551.1 1184.48 551.1C1186.88 551.1 1188.36 552.1 1188.48 554.06H1186.54C1186.48 553.14 1185.72 552.68 1184.46 552.68C1183.26 552.68 1182.5 553.18 1182.5 554C1182.5 554.7 1183.02 555.08 1184.14 555.22L1185.7 555.4C1187.52 555.6 1188.56 556.62 1188.56 558.2C1188.56 560.08 1186.98 561.28 1184.5 561.28ZM1194.23 561.28C1191.89 561.28 1190.45 559.84 1190.45 557.18V551.38H1192.39V557C1192.39 558.72 1193.19 559.52 1194.59 559.52C1196.05 559.52 1196.99 558.48 1196.99 556.94V551.38H1198.93V561H1197.21V559.9C1196.57 560.84 1195.47 561.28 1194.23 561.28ZM1206.78 561.28C1205.28 561.28 1204.06 560.68 1203.44 559.62V561H1201.72V547H1203.66V552.54C1204.28 551.62 1205.4 551.1 1206.78 551.1C1209.52 551.1 1211.4 553.14 1211.4 556.18C1211.4 559.24 1209.52 561.28 1206.78 561.28ZM1203.62 556.18C1203.62 558.18 1204.76 559.52 1206.5 559.52C1208.24 559.52 1209.4 558.18 1209.4 556.18C1209.4 554.2 1208.24 552.86 1206.5 552.86C1204.76 552.86 1203.62 554.2 1203.62 556.18ZM1217 561.28C1214.4 561.28 1212.86 560.24 1212.76 558.26H1214.76C1214.86 559.22 1215.64 559.7 1217.04 559.7C1218.32 559.7 1219.1 559.16 1219.1 558.28C1219.1 557.56 1218.56 557.14 1217.56 557.04L1216.02 556.88C1214.22 556.7 1213.08 555.7 1213.08 554.1C1213.08 552.26 1214.62 551.1 1216.98 551.1C1219.38 551.1 1220.86 552.1 1220.98 554.06H1219.04C1218.98 553.14 1218.22 552.68 1216.96 552.68C1215.76 552.68 1215 553.18 1215 554C1215 554.7 1215.52 555.08 1216.64 555.22L1218.2 555.4C1220.02 555.6 1221.06 556.62 1221.06 558.2C1221.06 560.08 1219.48 561.28 1217 561.28ZM1227.31 561.28C1224.43 561.28 1222.57 559.14 1222.57 556.22C1222.57 553.22 1224.53 551.1 1227.43 551.1C1229.87 551.1 1231.53 552.52 1231.75 554.54H1229.77C1229.59 553.64 1228.79 552.86 1227.41 552.86C1225.69 552.86 1224.57 554.16 1224.57 556.18C1224.57 558.24 1225.71 559.52 1227.37 559.52C1228.67 559.52 1229.61 558.76 1229.81 557.64H1231.79C1231.53 559.56 1229.93 561.28 1227.31 561.28ZM1233.58 561V551.38H1235.3V552.94C1235.54 551.98 1236.26 551.38 1237.4 551.38H1239.24V553.08H1237.22C1236.02 553.08 1235.52 553.76 1235.52 555.06V561H1233.58ZM1240.68 561V551.38H1242.62V561H1240.68ZM1240.56 549.44V547.14H1242.72V549.44H1240.56ZM1245.54 564.6V551.38H1247.26V552.74C1247.88 551.7 1249.1 551.1 1250.6 551.1C1253.34 551.1 1255.22 553.14 1255.22 556.18C1255.22 559.24 1253.34 561.28 1250.6 561.28C1249.22 561.28 1248.1 560.76 1247.48 559.82V564.6H1245.54ZM1247.44 556.18C1247.44 558.18 1248.58 559.52 1250.32 559.52C1252.06 559.52 1253.22 558.18 1253.22 556.18C1253.22 554.2 1252.06 552.86 1250.32 552.86C1248.58 552.86 1247.44 554.2 1247.44 556.18ZM1260.79 561C1259.13 561 1258.41 560.34 1258.41 558.68V553.08H1255.89V551.38H1258.41V548.5H1260.35V551.38H1263.37V553.08H1260.35V558.3C1260.35 559 1260.63 559.3 1261.37 559.3H1263.37V561H1260.79ZM1265.24 561V551.38H1267.18V561H1265.24ZM1265.12 549.44V547.14H1267.28V549.44H1265.12ZM1274.34 561.28C1271.42 561.28 1269.38 559.24 1269.38 556.18C1269.38 553.14 1271.42 551.1 1274.34 551.1C1277.28 551.1 1279.3 553.14 1279.3 556.18C1279.3 559.24 1277.28 561.28 1274.34 561.28ZM1271.38 556.18C1271.38 558.18 1272.58 559.52 1274.34 559.52C1276.12 559.52 1277.3 558.18 1277.3 556.18C1277.3 554.2 1276.12 552.86 1274.34 552.86C1272.58 552.86 1271.38 554.2 1271.38 556.18ZM1281.52 561V551.38H1283.24V552.64C1283.82 551.6 1284.98 551.1 1286.28 551.1C1288.64 551.1 1290.12 552.54 1290.12 555.2V561H1288.18V555.38C1288.18 553.66 1287.34 552.86 1285.92 552.86C1284.44 552.86 1283.46 553.88 1283.46 555.44V561H1281.52Z" fill="#0D0D0D"/>
<rect x="1182.67" y="575.5" width="63" height="20" rx="10" stroke="#E20B0B"/>
<path d="M1189.28 587.004V585.702H1193.53V587.004H1189.28ZM1194.84 588.278C1194.84 586.472 1195.68 585.632 1197.25 585.184L1198.62 584.792C1199.7 584.484 1200.2 583.966 1200.2 583.084C1200.2 582.118 1199.52 581.474 1198.47 581.474H1195.32V580.2H1198.47C1200.33 580.2 1201.62 581.334 1201.62 583.084C1201.62 584.498 1200.66 585.464 1199.29 585.884L1197.61 586.388C1196.65 586.682 1196.25 587.158 1196.25 588.04V588.726H1201.53V590H1194.84V588.278ZM1203.37 590V588.082H1205.05V590H1203.37ZM1210.46 590.196C1208.26 590.196 1206.72 588.698 1206.72 585.674C1206.72 582.314 1208.03 580.2 1211.32 580.2H1213.19V581.474H1211.32C1209.05 581.474 1208.22 582.622 1208.11 584.778C1208.54 584.092 1209.44 583.602 1210.67 583.602C1212.65 583.602 1214.03 584.974 1214.03 586.864C1214.03 588.782 1212.58 590.196 1210.46 590.196ZM1208.24 586.906C1208.24 588.124 1209.13 588.964 1210.42 588.964C1211.71 588.964 1212.62 588.124 1212.62 586.906C1212.62 585.688 1211.71 584.848 1210.42 584.848C1209.13 584.848 1208.24 585.674 1208.24 586.906ZM1215.39 588.278C1215.39 586.472 1216.23 585.632 1217.8 585.184L1219.17 584.792C1220.25 584.484 1220.75 583.966 1220.75 583.084C1220.75 582.118 1220.07 581.474 1219.02 581.474H1215.87V580.2H1219.02C1220.88 580.2 1222.17 581.334 1222.17 583.084C1222.17 584.498 1221.21 585.464 1219.84 585.884L1218.16 586.388C1217.2 586.682 1216.8 587.158 1216.8 588.04V588.726H1222.08V590H1215.39V588.278ZM1222.97 590L1225.58 586.528L1223.11 583.266H1224.76L1226.47 585.59L1228.16 583.266H1229.81L1227.33 586.528L1229.95 590H1228.3L1226.47 587.536L1224.62 590H1222.97Z" fill="#E20B0B"/>
<path fill-rule="evenodd" clip-rule="evenodd" d="M1240.17 584.875L1236.67 590.5L1233.17 584.875H1236.06V580.5H1237.27V584.875H1240.17Z" fill="#E20B0B"/>
</g>
<defs>
<clipPath id="clip0_3920_20597">
<rect width="1278" height="432" fill="white" transform="translate(129 164)"/>
</clipPath>
</defs>
</svg>
