<svg width="1536" height="760" viewBox="0 0 1536 760" fill="none" xmlns="http://www.w3.org/2000/svg">
<g clip-path="url(#clip0_4638_121882)">
<path d="M192.688 187V172.456H187.408V170.2H200.368V172.456H195.088V187H192.688ZM202.272 187V175.456H204.6V187H202.272ZM202.128 173.128V170.368H204.72V173.128H202.128ZM212.928 187.336C209.472 187.336 207.24 184.768 207.24 181.264C207.24 177.664 209.592 175.12 213.072 175.12C216 175.12 217.992 176.824 218.256 179.248H215.88C215.664 178.168 214.704 177.232 213.048 177.232C210.984 177.232 209.64 178.792 209.64 181.216C209.64 183.688 211.008 185.224 213 185.224C214.56 185.224 215.688 184.312 215.928 182.968H218.304C217.992 185.272 216.072 187.336 212.928 187.336ZM227.936 187L224 181.816H222.776V187H220.448V170.2H222.776V179.656H224L227.888 175.456H230.744L226.04 180.688L230.744 187H227.936ZM237.129 187.336C233.673 187.336 231.369 184.912 231.369 181.168C231.369 177.448 233.673 175.12 236.961 175.12C240.393 175.12 242.505 177.352 242.505 180.88C242.505 181.192 242.481 181.504 242.433 181.984H233.673C233.769 184.096 235.065 185.368 237.129 185.368C238.497 185.368 239.457 184.744 239.913 183.712H242.289C241.569 185.944 239.793 187.336 237.129 187.336ZM233.673 180.16H240.153V180.04C240.153 178.264 239.001 176.992 236.961 176.992C235.017 176.992 233.769 178.288 233.673 180.16ZM249.176 187C247.184 187 246.32 186.208 246.32 184.216V177.496H243.296V175.456H246.32V172H248.648V175.456H252.272V177.496H248.648V183.76C248.648 184.6 248.984 184.96 249.872 184.96H252.272V187H249.176ZM258.564 187.336C255.444 187.336 253.596 186.088 253.476 183.712H255.876C255.996 184.864 256.932 185.44 258.612 185.44C260.148 185.44 261.084 184.792 261.084 183.736C261.084 182.872 260.436 182.368 259.236 182.248L257.388 182.056C255.228 181.84 253.86 180.64 253.86 178.72C253.86 176.512 255.708 175.12 258.54 175.12C261.42 175.12 263.196 176.32 263.34 178.672H261.012C260.94 177.568 260.028 177.016 258.516 177.016C257.076 177.016 256.164 177.616 256.164 178.6C256.164 179.44 256.788 179.896 258.132 180.064L260.004 180.28C262.188 180.52 263.436 181.744 263.436 183.64C263.436 185.896 261.54 187.336 258.564 187.336ZM276.042 187C274.05 187 273.186 186.208 273.186 184.216V177.496H270.162V175.456H273.186V172H275.514V175.456H279.138V177.496H275.514V183.76C275.514 184.6 275.85 184.96 276.738 184.96H279.138V187H276.042ZM286.254 187.336C282.75 187.336 280.302 184.888 280.302 181.216C280.302 177.568 282.75 175.12 286.254 175.12C289.782 175.12 292.206 177.568 292.206 181.216C292.206 184.888 289.782 187.336 286.254 187.336ZM282.702 181.216C282.702 183.616 284.142 185.224 286.254 185.224C288.39 185.224 289.806 183.616 289.806 181.216C289.806 178.84 288.39 177.232 286.254 177.232C284.142 177.232 282.702 178.84 282.702 181.216ZM304.994 187C303.002 187 302.138 186.208 302.138 184.216V177.496H299.114V175.456H302.138V172H304.466V175.456H308.09V177.496H304.466V183.76C304.466 184.6 304.802 184.96 305.69 184.96H308.09V187H304.994ZM310.327 187V170.2H312.655V176.584C313.423 175.6 314.647 175.12 316.039 175.12C318.871 175.12 320.647 176.848 320.647 180.04V187H318.319V180.256C318.319 178.192 317.311 177.232 315.607 177.232C313.831 177.232 312.655 178.456 312.655 180.328V187H310.327ZM328.883 187.336C325.427 187.336 323.123 184.912 323.123 181.168C323.123 177.448 325.427 175.12 328.715 175.12C332.147 175.12 334.259 177.352 334.259 180.88C334.259 181.192 334.235 181.504 334.187 181.984H325.427C325.523 184.096 326.819 185.368 328.883 185.368C330.251 185.368 331.211 184.744 331.667 183.712H334.043C333.323 185.944 331.547 187.336 328.883 187.336ZM325.427 180.16H331.907V180.04C331.907 178.264 330.755 176.992 328.715 176.992C326.771 176.992 325.523 178.288 325.427 180.16ZM353.765 187V179.296H345.389V187H342.989V170.2H345.389V177.04H353.765V170.2H356.165V187H353.765ZM364.773 187.336C361.317 187.336 359.013 184.912 359.013 181.168C359.013 177.448 361.317 175.12 364.605 175.12C368.037 175.12 370.149 177.352 370.149 180.88C370.149 181.192 370.125 181.504 370.077 181.984H361.317C361.413 184.096 362.709 185.368 364.773 185.368C366.141 185.368 367.101 184.744 367.557 183.712H369.933C369.213 185.944 367.437 187.336 364.773 187.336ZM361.317 180.16H367.797V180.04C367.797 178.264 366.645 176.992 364.605 176.992C362.661 176.992 361.413 178.288 361.317 180.16ZM375.018 187C373.386 187 372.69 186.376 372.69 184.816V170.2H375.018V184.096C375.018 184.696 375.234 184.96 375.834 184.96H377.298V187H375.018ZM379.411 191.32V175.456H381.475V177.088C382.219 175.84 383.683 175.12 385.483 175.12C388.771 175.12 391.027 177.568 391.027 181.216C391.027 184.888 388.771 187.336 385.483 187.336C383.827 187.336 382.483 186.712 381.739 185.584V191.32H379.411ZM381.691 181.216C381.691 183.616 383.059 185.224 385.147 185.224C387.235 185.224 388.627 183.616 388.627 181.216C388.627 178.84 387.235 177.232 385.147 177.232C383.059 177.232 381.691 178.84 381.691 181.216ZM398.501 187.336C395.213 187.336 392.957 184.888 392.957 181.216C392.957 177.568 395.213 175.12 398.501 175.12C400.181 175.12 401.549 175.744 402.269 176.872V170.2H404.573V187H402.509V185.392C401.741 186.616 400.301 187.336 398.501 187.336ZM395.357 181.216C395.357 183.616 396.773 185.224 398.861 185.224C400.949 185.224 402.317 183.616 402.317 181.216C402.317 178.84 400.949 177.232 398.861 177.232C396.773 177.232 395.357 178.84 395.357 181.216ZM412.985 187.336C409.529 187.336 407.225 184.912 407.225 181.168C407.225 177.448 409.529 175.12 412.817 175.12C416.249 175.12 418.361 177.352 418.361 180.88C418.361 181.192 418.337 181.504 418.289 181.984H409.529C409.625 184.096 410.921 185.368 412.985 185.368C414.353 185.368 415.313 184.744 415.769 183.712H418.145C417.425 185.944 415.649 187.336 412.985 187.336ZM409.529 180.16H416.009V180.04C416.009 178.264 414.857 176.992 412.817 176.992C410.873 176.992 409.625 178.288 409.529 180.16ZM424.933 187.336C421.813 187.336 419.965 186.088 419.845 183.712H422.245C422.365 184.864 423.301 185.44 424.981 185.44C426.517 185.44 427.453 184.792 427.453 183.736C427.453 182.872 426.805 182.368 425.605 182.248L423.757 182.056C421.597 181.84 420.229 180.64 420.229 178.72C420.229 176.512 422.077 175.12 424.909 175.12C427.789 175.12 429.565 176.32 429.709 178.672H427.381C427.309 177.568 426.397 177.016 424.885 177.016C423.445 177.016 422.533 177.616 422.533 178.6C422.533 179.44 423.157 179.896 424.501 180.064L426.373 180.28C428.557 180.52 429.805 181.744 429.805 183.64C429.805 185.896 427.909 187.336 424.933 187.336ZM439.822 187L435.886 181.816H434.662V187H432.334V170.2H434.662V179.656H435.886L439.774 175.456H442.63L437.926 180.688L442.63 187H439.822Z" fill="#0D0D0D"/>
<path d="M610.65 187.336C606.186 187.336 603.114 184.408 603.114 178.624C603.114 172.84 606.066 169.864 610.698 169.864C614.346 169.864 616.842 171.976 617.346 175.576H614.826C614.466 173.368 612.81 172.096 610.698 172.096C607.626 172.096 605.586 174.088 605.586 178.576C605.586 183.016 607.722 185.104 610.65 185.104C612.978 185.104 614.442 183.544 614.826 181.384H617.322C616.746 184.864 614.442 187.336 610.65 187.336ZM623.331 187.336C620.667 187.336 618.987 185.944 618.987 183.736C618.987 181.672 620.379 180.184 623.211 180.016L626.715 179.824V179.176C626.715 177.664 625.971 177.04 624.387 177.04C622.851 177.04 622.083 177.448 621.891 178.672H619.563C619.827 176.296 621.459 175.12 624.555 175.12C627.315 175.12 628.923 176.512 628.923 179.056V184.696C628.923 184.96 629.043 185.08 629.307 185.08H630.291V187H628.419C627.627 187 627.171 186.568 627.171 185.8V185.464C626.499 186.64 625.131 187.336 623.331 187.336ZM621.315 183.664C621.315 184.72 622.179 185.416 623.595 185.416C625.467 185.416 626.715 184.336 626.715 182.368V181.624L623.499 181.864C622.011 181.96 621.315 182.728 621.315 183.664ZM632.505 187V175.456H634.569V176.968C635.265 175.72 636.657 175.12 638.217 175.12C641.049 175.12 642.825 176.848 642.825 180.04V187H640.497V180.256C640.497 178.192 639.489 177.232 637.785 177.232C636.009 177.232 634.833 178.456 634.833 180.328V187H632.505ZM650.989 187.336C647.533 187.336 645.301 184.768 645.301 181.264C645.301 177.664 647.653 175.12 651.133 175.12C654.061 175.12 656.053 176.824 656.317 179.248H653.941C653.725 178.168 652.765 177.232 651.109 177.232C649.045 177.232 647.701 178.792 647.701 181.216C647.701 183.688 649.069 185.224 651.061 185.224C652.621 185.224 653.749 184.312 653.989 182.968H656.365C656.053 185.272 654.133 187.336 650.989 187.336ZM663.641 187.336C660.185 187.336 657.881 184.912 657.881 181.168C657.881 177.448 660.185 175.12 663.473 175.12C666.905 175.12 669.017 177.352 669.017 180.88C669.017 181.192 668.993 181.504 668.945 181.984H660.185C660.281 184.096 661.577 185.368 663.641 185.368C665.009 185.368 665.969 184.744 666.425 183.712H668.801C668.081 185.944 666.305 187.336 663.641 187.336ZM660.185 180.16H666.665V180.04C666.665 178.264 665.513 176.992 663.473 176.992C661.529 176.992 660.281 178.288 660.185 180.16ZM673.886 187C672.254 187 671.558 186.376 671.558 184.816V170.2H673.886V184.096C673.886 184.696 674.102 184.96 674.702 184.96H676.166V187H673.886ZM680.537 187C678.905 187 678.209 186.376 678.209 184.816V170.2H680.537V184.096C680.537 184.696 680.753 184.96 681.353 184.96H682.817V187H680.537ZM688.313 187.336C685.649 187.336 683.969 185.944 683.969 183.736C683.969 181.672 685.361 180.184 688.193 180.016L691.697 179.824V179.176C691.697 177.664 690.953 177.04 689.369 177.04C687.833 177.04 687.065 177.448 686.873 178.672H684.545C684.809 176.296 686.441 175.12 689.537 175.12C692.297 175.12 693.905 176.512 693.905 179.056V184.696C693.905 184.96 694.025 185.08 694.289 185.08H695.273V187H693.401C692.609 187 692.153 186.568 692.153 185.8V185.464C691.481 186.64 690.113 187.336 688.313 187.336ZM686.297 183.664C686.297 184.72 687.161 185.416 688.577 185.416C690.449 185.416 691.697 184.336 691.697 182.368V181.624L688.481 181.864C686.993 181.96 686.297 182.728 686.297 183.664ZM701.452 187C699.46 187 698.596 186.208 698.596 184.216V177.496H695.572V175.456H698.596V172H700.924V175.456H704.548V177.496H700.924V183.76C700.924 184.6 701.26 184.96 702.148 184.96H704.548V187H701.452ZM706.786 187V175.456H709.114V187H706.786ZM706.642 173.128V170.368H709.234V173.128H706.642ZM717.706 187.336C714.202 187.336 711.754 184.888 711.754 181.216C711.754 177.568 714.202 175.12 717.706 175.12C721.234 175.12 723.658 177.568 723.658 181.216C723.658 184.888 721.234 187.336 717.706 187.336ZM714.154 181.216C714.154 183.616 715.594 185.224 717.706 185.224C719.842 185.224 721.258 183.616 721.258 181.216C721.258 178.84 719.842 177.232 717.706 177.232C715.594 177.232 714.154 178.84 714.154 181.216ZM726.322 187V175.456H728.386V176.968C729.082 175.72 730.474 175.12 732.034 175.12C734.866 175.12 736.642 176.848 736.642 180.04V187H734.314V180.256C734.314 178.192 733.306 177.232 731.602 177.232C729.826 177.232 728.65 178.456 728.65 180.328V187H726.322Z" fill="#0D0D0D"/>
<path d="M825.926 187V172.456H820.646V170.2H833.606V172.456H828.326V187H825.926ZM835.627 187V170.2H837.955V176.584C838.723 175.6 839.947 175.12 841.339 175.12C844.171 175.12 845.947 176.848 845.947 180.04V187H843.619V180.256C843.619 178.192 842.611 177.232 840.907 177.232C839.131 177.232 837.955 178.456 837.955 180.328V187H835.627ZM854.183 187.336C850.727 187.336 848.423 184.912 848.423 181.168C848.423 177.448 850.727 175.12 854.015 175.12C857.447 175.12 859.559 177.352 859.559 180.88C859.559 181.192 859.535 181.504 859.487 181.984H850.727C850.823 184.096 852.119 185.368 854.183 185.368C855.551 185.368 856.511 184.744 856.967 183.712H859.343C858.623 185.944 856.847 187.336 854.183 187.336ZM850.727 180.16H857.207V180.04C857.207 178.264 856.055 176.992 854.015 176.992C852.071 176.992 850.823 178.288 850.727 180.16ZM871.841 187V172.456H866.561V170.2H879.521V172.456H874.241V187H871.841ZM879.784 187V175.456H881.848V177.328C882.136 176.176 883 175.456 884.368 175.456H886.576V177.496H884.152C882.712 177.496 882.112 178.312 882.112 179.872V187H879.784ZM888.31 187V175.456H890.638V187H888.31ZM888.166 173.128V170.368H890.758V173.128H888.166ZM897.476 187.336C894.812 187.336 893.132 185.944 893.132 183.736C893.132 181.672 894.524 180.184 897.356 180.016L900.86 179.824V179.176C900.86 177.664 900.116 177.04 898.532 177.04C896.996 177.04 896.228 177.448 896.036 178.672H893.708C893.972 176.296 895.604 175.12 898.7 175.12C901.46 175.12 903.068 176.512 903.068 179.056V184.696C903.068 184.96 903.188 185.08 903.452 185.08H904.436V187H902.564C901.772 187 901.316 186.568 901.316 185.8V185.464C900.644 186.64 899.276 187.336 897.476 187.336ZM895.46 183.664C895.46 184.72 896.324 185.416 897.74 185.416C899.612 185.416 900.86 184.336 900.86 182.368V181.624L897.644 181.864C896.156 181.96 895.46 182.728 895.46 183.664ZM908.978 187C907.346 187 906.65 186.376 906.65 184.816V170.2H908.978V184.096C908.978 184.696 909.194 184.96 909.794 184.96H911.258V187H908.978Z" fill="#0D0D0D"/>
<path d="M1058.37 187L1064.78 170.2H1068.02L1074.43 187H1071.79L1069.99 182.104H1062.79L1060.99 187H1058.37ZM1063.58 179.92H1069.2L1066.39 172.288L1063.58 179.92ZM1077.09 173.344C1077.09 171.328 1078.27 170.2 1080.26 170.2H1084V172.24H1080.74C1079.9 172.24 1079.4 172.672 1079.4 173.584V175.456H1083.28V177.496H1079.4V187H1077.09V177.496H1074.04V175.456H1077.09V173.344ZM1090.18 187C1088.19 187 1087.33 186.208 1087.33 184.216V177.496H1084.3V175.456H1087.33V172H1089.65V175.456H1093.28V177.496H1089.65V183.76C1089.65 184.6 1089.99 184.96 1090.88 184.96H1093.28V187H1090.18ZM1100.25 187.336C1096.79 187.336 1094.49 184.912 1094.49 181.168C1094.49 177.448 1096.79 175.12 1100.08 175.12C1103.51 175.12 1105.63 177.352 1105.63 180.88C1105.63 181.192 1105.6 181.504 1105.55 181.984H1096.79C1096.89 184.096 1098.19 185.368 1100.25 185.368C1101.62 185.368 1102.58 184.744 1103.03 183.712H1105.41C1104.69 185.944 1102.91 187.336 1100.25 187.336ZM1096.79 180.16H1103.27V180.04C1103.27 178.264 1102.12 176.992 1100.08 176.992C1098.14 176.992 1096.89 178.288 1096.79 180.16ZM1108.19 187V175.456H1110.25V177.328C1110.54 176.176 1111.41 175.456 1112.77 175.456H1114.98V177.496H1112.56C1111.12 177.496 1110.52 178.312 1110.52 179.872V187H1108.19ZM1128.68 187.336C1124.53 187.336 1122.03 185.248 1122.01 181.864H1124.48C1124.51 183.904 1126.09 185.2 1128.68 185.2C1130.99 185.2 1132.45 184 1132.45 182.176C1132.45 180.712 1131.51 179.824 1129.59 179.56L1127.39 179.248C1124.17 178.816 1122.56 177.232 1122.56 174.712C1122.56 171.76 1124.94 169.864 1128.56 169.864C1132.33 169.864 1134.63 171.688 1134.71 174.616H1132.23C1132.16 172.984 1130.77 171.976 1128.56 171.976C1126.45 171.976 1125.06 172.984 1125.06 174.568C1125.06 175.936 1126.04 176.704 1128.11 176.992L1130.19 177.28C1133.31 177.712 1134.95 179.32 1134.95 182.032C1134.95 185.248 1132.57 187.336 1128.68 187.336ZM1141.93 187C1139.94 187 1139.07 186.208 1139.07 184.216V177.496H1136.05V175.456H1139.07V172H1141.4V175.456H1145.02V177.496H1141.4V183.76C1141.4 184.6 1141.74 184.96 1142.62 184.96H1145.02V187H1141.93ZM1151.56 187.336C1148.75 187.336 1147.02 185.608 1147.02 182.416V175.456H1149.35V182.2C1149.35 184.264 1150.31 185.224 1151.99 185.224C1153.74 185.224 1154.87 183.976 1154.87 182.128V175.456H1157.2V187H1155.13V185.68C1154.36 186.808 1153.04 187.336 1151.56 187.336ZM1165.32 187.336C1162.03 187.336 1159.78 184.888 1159.78 181.216C1159.78 177.568 1162.03 175.12 1165.32 175.12C1167 175.12 1168.37 175.744 1169.09 176.872V170.2H1171.39V187H1169.33V185.392C1168.56 186.616 1167.12 187.336 1165.32 187.336ZM1162.18 181.216C1162.18 183.616 1163.59 185.224 1165.68 185.224C1167.77 185.224 1169.14 183.616 1169.14 181.216C1169.14 178.84 1167.77 177.232 1165.68 177.232C1163.59 177.232 1162.18 178.84 1162.18 181.216ZM1173.57 191.32V189.232H1175.63C1176.42 189.232 1176.78 188.992 1177.05 188.392L1178.05 186.208L1173.21 175.456H1175.87L1179.28 183.592L1182.69 175.456H1185.3L1178.97 189.544C1178.44 190.744 1177.77 191.32 1176.16 191.32H1173.57ZM1187.09 187V175.456H1189.42V187H1187.09ZM1186.94 173.128V170.368H1189.54V173.128H1186.94ZM1192.8 187V175.456H1194.87V176.968C1195.56 175.72 1196.95 175.12 1198.51 175.12C1201.35 175.12 1203.12 176.848 1203.12 180.04V187H1200.79V180.256C1200.79 178.192 1199.79 177.232 1198.08 177.232C1196.31 177.232 1195.13 178.456 1195.13 180.328V187H1192.8ZM1208.86 191.32C1206.29 191.32 1205.14 190.12 1205.14 188.44C1205.14 187.456 1205.67 186.568 1206.65 186.088C1206.01 185.656 1205.6 184.96 1205.6 184.216C1205.6 183.184 1206.25 182.344 1207.59 182.008C1206.51 181.288 1206.05 180.16 1206.05 179.08C1206.05 176.824 1207.78 175.12 1210.66 175.12C1212.51 175.12 1214 176.056 1214.48 177.256V176.896C1214.48 175.744 1215.1 175.456 1215.92 175.456H1217.62V177.496H1215.77C1215.41 177.496 1215.27 177.64 1215.27 178V179.224C1215.27 181.624 1213.4 183.184 1210.78 183.184H1208.79C1208.12 183.184 1207.66 183.496 1207.66 184.12C1207.66 184.744 1208.19 185.056 1208.79 185.056H1212.99C1215.2 185.056 1216.61 186.112 1216.61 188.008C1216.61 189.904 1215.49 191.32 1212.85 191.32H1208.86ZM1207.37 188.224C1207.37 188.968 1207.85 189.544 1209.13 189.544H1212.7C1213.61 189.544 1214.38 189.112 1214.38 188.08C1214.38 187.288 1213.76 186.832 1212.82 186.832H1209.2C1207.9 186.832 1207.37 187.48 1207.37 188.224ZM1208.29 179.152C1208.29 180.496 1209.17 181.36 1210.66 181.36C1212.17 181.36 1213.04 180.496 1213.04 179.152C1213.04 177.808 1212.15 176.944 1210.66 176.944C1209.15 176.944 1208.29 177.808 1208.29 179.152ZM1224.52 180.52L1228.55 175.696L1230.06 176.56L1226.7 180.664L1230.06 184.768L1228.55 185.656L1224.52 180.832V180.52ZM1229.27 180.52L1233.35 175.696L1234.84 176.56L1231.48 180.664L1234.84 184.768L1233.35 185.656L1229.27 180.832V180.52ZM1244.46 187.336C1240 187.336 1236.92 184.408 1236.92 178.624C1236.92 172.84 1239.88 169.864 1244.51 169.864C1248.16 169.864 1250.65 171.976 1251.16 175.576H1248.64C1248.28 173.368 1246.62 172.096 1244.51 172.096C1241.44 172.096 1239.4 174.088 1239.4 178.576C1239.4 183.016 1241.53 185.104 1244.46 185.104C1246.79 185.104 1248.25 183.544 1248.64 181.384H1251.13C1250.56 184.864 1248.25 187.336 1244.46 187.336ZM1257.14 187.336C1254.48 187.336 1252.8 185.944 1252.8 183.736C1252.8 181.672 1254.19 180.184 1257.02 180.016L1260.52 179.824V179.176C1260.52 177.664 1259.78 177.04 1258.2 177.04C1256.66 177.04 1255.89 177.448 1255.7 178.672H1253.37C1253.64 176.296 1255.27 175.12 1258.36 175.12C1261.12 175.12 1262.73 176.512 1262.73 179.056V184.696C1262.73 184.96 1262.85 185.08 1263.12 185.08H1264.1V187H1262.23C1261.44 187 1260.98 186.568 1260.98 185.8V185.464C1260.31 186.64 1258.94 187.336 1257.14 187.336ZM1255.12 183.664C1255.12 184.72 1255.99 185.416 1257.4 185.416C1259.28 185.416 1260.52 184.336 1260.52 182.368V181.624L1257.31 181.864C1255.82 181.96 1255.12 182.728 1255.12 183.664ZM1266.31 187V175.456H1268.38V176.968C1269.07 175.72 1270.47 175.12 1272.03 175.12C1274.86 175.12 1276.63 176.848 1276.63 180.04V187H1274.31V180.256C1274.31 178.192 1273.3 177.232 1271.59 177.232C1269.82 177.232 1268.64 178.456 1268.64 180.328V187H1266.31ZM1284.8 187.336C1281.34 187.336 1279.11 184.768 1279.11 181.264C1279.11 177.664 1281.46 175.12 1284.94 175.12C1287.87 175.12 1289.86 176.824 1290.13 179.248H1287.75C1287.53 178.168 1286.57 177.232 1284.92 177.232C1282.85 177.232 1281.51 178.792 1281.51 181.216C1281.51 183.688 1282.88 185.224 1284.87 185.224C1286.43 185.224 1287.56 184.312 1287.8 182.968H1290.17C1289.86 185.272 1287.94 187.336 1284.8 187.336ZM1297.45 187.336C1293.99 187.336 1291.69 184.912 1291.69 181.168C1291.69 177.448 1293.99 175.12 1297.28 175.12C1300.71 175.12 1302.83 177.352 1302.83 180.88C1302.83 181.192 1302.8 181.504 1302.75 181.984H1293.99C1294.09 184.096 1295.39 185.368 1297.45 185.368C1298.82 185.368 1299.78 184.744 1300.23 183.712H1302.61C1301.89 185.944 1300.11 187.336 1297.45 187.336ZM1293.99 180.16H1300.47V180.04C1300.47 178.264 1299.32 176.992 1297.28 176.992C1295.34 176.992 1294.09 178.288 1293.99 180.16ZM1307.7 187C1306.06 187 1305.37 186.376 1305.37 184.816V170.2H1307.7V184.096C1307.7 184.696 1307.91 184.96 1308.51 184.96H1309.98V187H1307.7ZM1314.35 187C1312.71 187 1312.02 186.376 1312.02 184.816V170.2H1314.35V184.096C1314.35 184.696 1314.56 184.96 1315.16 184.96H1316.63V187H1314.35ZM1322.12 187.336C1319.46 187.336 1317.78 185.944 1317.78 183.736C1317.78 181.672 1319.17 180.184 1322 180.016L1325.51 179.824V179.176C1325.51 177.664 1324.76 177.04 1323.18 177.04C1321.64 177.04 1320.87 177.448 1320.68 178.672H1318.35C1318.62 176.296 1320.25 175.12 1323.35 175.12C1326.11 175.12 1327.71 176.512 1327.71 179.056V184.696C1327.71 184.96 1327.83 185.08 1328.1 185.08H1329.08V187H1327.21C1326.42 187 1325.96 186.568 1325.96 185.8V185.464C1325.29 186.64 1323.92 187.336 1322.12 187.336ZM1320.11 183.664C1320.11 184.72 1320.97 185.416 1322.39 185.416C1324.26 185.416 1325.51 184.336 1325.51 182.368V181.624L1322.29 181.864C1320.8 181.96 1320.11 182.728 1320.11 183.664ZM1335.26 187C1333.27 187 1332.41 186.208 1332.41 184.216V177.496H1329.38V175.456H1332.41V172H1334.73V175.456H1338.36V177.496H1334.73V183.76C1334.73 184.6 1335.07 184.96 1335.96 184.96H1338.36V187H1335.26ZM1340.6 187V175.456H1342.92V187H1340.6ZM1340.45 173.128V170.368H1343.04V173.128H1340.45ZM1351.52 187.336C1348.01 187.336 1345.56 184.888 1345.56 181.216C1345.56 177.568 1348.01 175.12 1351.52 175.12C1355.04 175.12 1357.47 177.568 1357.47 181.216C1357.47 184.888 1355.04 187.336 1351.52 187.336ZM1347.96 181.216C1347.96 183.616 1349.4 185.224 1351.52 185.224C1353.65 185.224 1355.07 183.616 1355.07 181.216C1355.07 178.84 1353.65 177.232 1351.52 177.232C1349.4 177.232 1347.96 178.84 1347.96 181.216ZM1360.13 187V175.456H1362.19V176.968C1362.89 175.72 1364.28 175.12 1365.84 175.12C1368.67 175.12 1370.45 176.848 1370.45 180.04V187H1368.12V180.256C1368.12 178.192 1367.11 177.232 1365.41 177.232C1363.63 177.232 1362.46 178.456 1362.46 180.328V187H1360.13ZM1383.1 180.832L1379.02 185.656L1377.54 184.768L1380.9 180.664L1377.54 176.56L1379.02 175.696L1383.1 180.52V180.832ZM1378.33 180.832L1374.27 185.656L1372.78 184.768L1376.14 180.664L1372.78 176.56L1374.27 175.696L1378.33 180.52V180.832Z" fill="#0D0D0D"/>
<rect x="129.5" y="255.5" width="175" height="263" rx="15.5" fill="#CECCC9"/>
<rect x="129.5" y="255.5" width="175" height="263" rx="15.5" stroke="#BFBDBA"/>
<path d="M190.844 491V488.088H197.884C201.084 488.088 202.94 486.584 202.94 484.088C202.94 481.784 201.148 480.344 198.044 480.344H194.684V477.752L201.18 471.512H190.524V468.6H205.276V471.512L198.524 477.816H198.94C203.356 477.816 206.172 480.312 206.172 484.056C206.172 488.248 202.844 491 197.884 491H190.844ZM209.34 487.064C209.34 482.936 211.26 481.016 214.844 479.992L217.98 479.096C220.444 478.392 221.596 477.208 221.596 475.192C221.596 472.984 220.028 471.512 217.628 471.512H210.428V468.6H217.628C221.884 468.6 224.828 471.192 224.828 475.192C224.828 478.424 222.652 480.632 219.516 481.592L215.676 482.744C213.468 483.416 212.572 484.504 212.572 486.52V488.088H224.636V491H209.34V487.064ZM231.596 485.848C231.596 480.824 232.396 477.528 236.204 473.88L238.668 471.512H226.604V468.6H242.86V471.512L238.924 475.224C235.916 478.136 234.828 480.6 234.828 485.688V491H231.596V485.848Z" fill="#0D0D0D"/>
<rect x="325" y="412" width="176" height="107" rx="16" fill="#0D0D0D"/>
<path d="M387.588 491V488.088H393.444V471.576H389.38V468.6H396.548V488.088H402.308V491H387.588ZM404.43 491V488.088H411.47C414.67 488.088 416.526 486.584 416.526 484.088C416.526 481.784 414.734 480.344 411.63 480.344H408.27V477.752L414.766 471.512H404.11V468.6H418.862V471.512L412.11 477.816H412.526C416.942 477.816 419.758 480.312 419.758 484.056C419.758 488.248 416.43 491 411.47 491H404.43ZM422.392 491V488.088H429.432C432.632 488.088 434.488 486.584 434.488 484.088C434.488 481.784 432.696 480.344 429.592 480.344H426.232V477.752L432.728 471.512H422.072V468.6H436.824V471.512L430.072 477.816H430.488C434.904 477.816 437.72 480.312 437.72 484.056C437.72 488.248 434.392 491 429.432 491H422.392Z" fill="white"/>
<path d="M224.193 561V547H226.633L233.173 557.9V547H235.173V561H232.733L226.193 550.08V561H224.193ZM241.844 561.28C239.504 561.28 238.064 559.84 238.064 557.18V551.38H240.004V557C240.004 558.72 240.804 559.52 242.204 559.52C243.664 559.52 244.604 558.48 244.604 556.94V551.38H246.544V561H244.824V559.9C244.184 560.84 243.084 561.28 241.844 561.28ZM249.315 561V551.38H251.035V552.56C251.595 551.56 252.475 551.1 253.655 551.1C254.975 551.1 255.955 551.74 256.415 552.82C257.035 551.66 258.035 551.1 259.295 551.1C261.515 551.1 262.735 552.44 262.735 554.84V561H260.815V554.94C260.815 553.6 260.175 552.86 258.955 552.86C257.815 552.86 256.995 553.74 256.995 555V561H255.055V554.94C255.055 553.6 254.415 552.86 253.235 552.86C252.075 552.86 251.255 553.74 251.255 555V561H249.315ZM270.503 561.28C269.003 561.28 267.783 560.68 267.163 559.62V561H265.443V547H267.383V552.54C268.003 551.62 269.123 551.1 270.503 551.1C273.243 551.1 275.123 553.14 275.123 556.18C275.123 559.24 273.243 561.28 270.503 561.28ZM267.343 556.18C267.343 558.18 268.483 559.52 270.223 559.52C271.963 559.52 273.123 558.18 273.123 556.18C273.123 554.2 271.963 552.86 270.223 552.86C268.483 552.86 267.343 554.2 267.343 556.18ZM281.551 561.28C278.671 561.28 276.751 559.26 276.751 556.14C276.751 553.04 278.671 551.1 281.411 551.1C284.271 551.1 286.031 552.96 286.031 555.9C286.031 556.16 286.011 556.42 285.971 556.82H278.671C278.751 558.58 279.831 559.64 281.551 559.64C282.691 559.64 283.491 559.12 283.871 558.26H285.851C285.251 560.12 283.771 561.28 281.551 561.28ZM278.671 555.3H284.071V555.2C284.071 553.72 283.111 552.66 281.411 552.66C279.791 552.66 278.751 553.74 278.671 555.3ZM288.168 561V551.38H289.888V552.94C290.128 551.98 290.848 551.38 291.988 551.38H293.828V553.08H291.808C290.608 553.08 290.108 553.76 290.108 555.06V561H288.168ZM304.685 561.28C301.765 561.28 299.725 559.24 299.725 556.18C299.725 553.14 301.765 551.1 304.685 551.1C307.625 551.1 309.645 553.14 309.645 556.18C309.645 559.24 307.625 561.28 304.685 561.28ZM301.725 556.18C301.725 558.18 302.925 559.52 304.685 559.52C306.465 559.52 307.645 558.18 307.645 556.18C307.645 554.2 306.465 552.86 304.685 552.86C302.925 552.86 301.725 554.2 301.725 556.18ZM312.791 549.62C312.791 547.94 313.771 547 315.431 547H318.551V548.7H315.831C315.131 548.7 314.711 549.06 314.711 549.82V551.38H317.951V553.08H314.711V561H312.791V553.08H310.251V551.38H312.791V549.62ZM324.85 561V547H330.85C333.77 547 335.49 548.52 335.49 551.02C335.49 553.42 333.93 554.92 331.27 555.06L335.89 561H333.39L328.79 555.04H326.85V561H324.85ZM326.85 553.22H330.85C332.51 553.22 333.45 552.42 333.45 551.02C333.45 549.66 332.51 548.88 330.85 548.88H326.85V553.22ZM341.577 561.28C338.697 561.28 336.777 559.26 336.777 556.14C336.777 553.04 338.697 551.1 341.437 551.1C344.297 551.1 346.057 552.96 346.057 555.9C346.057 556.16 346.037 556.42 345.997 556.82H338.697C338.777 558.58 339.857 559.64 341.577 559.64C342.717 559.64 343.517 559.12 343.897 558.26H345.877C345.277 560.12 343.797 561.28 341.577 561.28ZM338.697 555.3H344.097V555.2C344.097 553.72 343.137 552.66 341.437 552.66C339.817 552.66 338.777 553.74 338.697 555.3ZM355.314 564.6V559.8C354.714 560.76 353.574 561.28 352.174 561.28C349.434 561.28 347.554 559.24 347.554 556.18C347.554 553.14 349.434 551.1 352.174 551.1C353.674 551.1 354.874 551.7 355.514 552.72V551.38H357.234V564.6H355.314ZM349.554 556.18C349.554 558.18 350.734 559.52 352.474 559.52C354.214 559.52 355.354 558.18 355.354 556.18C355.354 554.2 354.214 552.86 352.474 552.86C350.734 552.86 349.554 554.2 349.554 556.18ZM363.702 561.28C361.362 561.28 359.922 559.84 359.922 557.18V551.38H361.862V557C361.862 558.72 362.662 559.52 364.062 559.52C365.522 559.52 366.462 558.48 366.462 556.94V551.38H368.402V561H366.682V559.9C366.042 560.84 364.942 561.28 363.702 561.28ZM375.352 561.28C372.472 561.28 370.552 559.26 370.552 556.14C370.552 553.04 372.472 551.1 375.212 551.1C378.072 551.1 379.832 552.96 379.832 555.9C379.832 556.16 379.812 556.42 379.772 556.82H372.472C372.552 558.58 373.632 559.64 375.352 559.64C376.492 559.64 377.292 559.12 377.672 558.26H379.652C379.052 560.12 377.572 561.28 375.352 561.28ZM372.472 555.3H377.872V555.2C377.872 553.72 376.912 552.66 375.212 552.66C373.592 552.66 372.552 553.74 372.472 555.3ZM385.309 561.28C382.709 561.28 381.169 560.24 381.069 558.26H383.069C383.169 559.22 383.949 559.7 385.349 559.7C386.629 559.7 387.409 559.16 387.409 558.28C387.409 557.56 386.869 557.14 385.869 557.04L384.329 556.88C382.529 556.7 381.389 555.7 381.389 554.1C381.389 552.26 382.929 551.1 385.289 551.1C387.689 551.1 389.169 552.1 389.289 554.06H387.349C387.289 553.14 386.529 552.68 385.269 552.68C384.069 552.68 383.309 553.18 383.309 554C383.309 554.7 383.829 555.08 384.949 555.22L386.509 555.4C388.329 555.6 389.369 556.62 389.369 558.2C389.369 560.08 387.789 561.28 385.309 561.28ZM394.976 561C393.316 561 392.596 560.34 392.596 558.68V553.08H390.076V551.38H392.596V548.5H394.536V551.38H397.556V553.08H394.536V558.3C394.536 559 394.816 559.3 395.556 559.3H397.556V561H394.976ZM402.8 561.28C400.2 561.28 398.66 560.24 398.56 558.26H400.56C400.66 559.22 401.44 559.7 402.84 559.7C404.12 559.7 404.9 559.16 404.9 558.28C404.9 557.56 404.36 557.14 403.36 557.04L401.82 556.88C400.02 556.7 398.88 555.7 398.88 554.1C398.88 552.26 400.42 551.1 402.78 551.1C405.18 551.1 406.66 552.1 406.78 554.06H404.84C404.78 553.14 404.02 552.68 402.76 552.68C401.56 552.68 400.8 553.18 400.8 554C400.8 554.7 401.32 555.08 402.44 555.22L404 555.4C405.82 555.6 406.86 556.62 406.86 558.2C406.86 560.08 405.28 561.28 402.8 561.28Z" fill="#0D0D0D"/>
<rect x="283.5" y="575.5" width="63" height="20" rx="10" stroke="#0B8900"/>
<path d="M290.618 587.004V585.702H294.874V587.004H290.618ZM296.179 588.278C296.179 586.472 297.019 585.632 298.587 585.184L299.959 584.792C301.037 584.484 301.541 583.966 301.541 583.084C301.541 582.118 300.855 581.474 299.805 581.474H296.655V580.2H299.805C301.667 580.2 302.955 581.334 302.955 583.084C302.955 584.498 302.003 585.464 300.631 585.884L298.951 586.388C297.985 586.682 297.593 587.158 297.593 588.04V588.726H302.871V590H296.179V588.278ZM304.707 590V588.082H306.387V590H304.707ZM312.798 590V587.088H307.548V585.856L312.266 580.2H314.156V585.856H315.766V587.088H314.156V590H312.798ZM309.06 585.856H312.798V581.376L309.06 585.856ZM316.661 590V588.726H319.741C320.945 588.726 321.771 587.998 321.771 586.92C321.771 585.856 321.015 585.128 319.741 585.128H316.899V580.2H322.751V581.474H318.257V583.896H319.895C321.883 583.896 323.185 585.086 323.185 586.864C323.185 588.726 321.813 590 319.741 590H316.661ZM323.8 590L326.418 586.528L323.94 583.266H325.592L327.3 585.59L328.994 583.266H330.646L328.168 586.528L330.786 590H329.134L327.3 587.536L325.452 590H323.8Z" fill="#0B8900"/>
<path fill-rule="evenodd" clip-rule="evenodd" d="M341 584.875L337.5 590.5L334 584.875H336.894V580.5H338.106V584.875H341Z" fill="#0B8900"/>
<rect x="541" y="255" width="1" height="264" rx="0.5" fill="#B5B2B0"/>
<rect x="582" y="366" width="176" height="153" rx="16" fill="#0D0D0D"/>
<path d="M639.1 491V488.088H646.14C648.892 488.088 650.78 486.424 650.78 483.96C650.78 481.528 649.052 479.864 646.14 479.864H639.644V468.6H653.02V471.512H642.748V477.048H646.492C651.036 477.048 654.012 479.768 654.012 483.832C654.012 488.088 650.876 491 646.14 491H639.1ZM665.575 491.448C660.167 491.448 657.063 488.632 657.063 484.664C657.063 482.072 658.695 479.896 661.191 479.096C658.951 478.328 657.703 476.344 657.703 474.2C657.703 470.648 660.807 468.152 665.575 468.152C670.375 468.152 673.479 470.648 673.479 474.2C673.479 476.344 672.231 478.328 669.991 479.096C672.487 479.896 674.119 482.072 674.119 484.664C674.119 488.632 671.015 491.448 665.575 491.448ZM660.263 484.568C660.263 487 662.151 488.76 665.575 488.76C669.031 488.76 670.919 487 670.919 484.568C670.919 482.104 668.903 480.472 665.575 480.472C662.279 480.472 660.263 482.104 660.263 484.568ZM660.903 474.392C660.903 476.472 662.695 477.848 665.575 477.848C668.455 477.848 670.279 476.472 670.279 474.392C670.279 472.312 668.551 470.84 665.575 470.84C662.631 470.84 660.903 472.312 660.903 474.392ZM681.694 467.832C683.272 467.832 684.467 468.461 685.278 469.72C686.088 470.957 686.494 472.707 686.494 474.968C686.494 477.229 686.099 479 685.31 480.28C684.542 481.539 683.336 482.168 681.694 482.168C680.691 482.168 679.838 481.88 679.134 481.304C678.43 480.728 677.896 479.907 677.534 478.84C677.192 477.752 677.022 476.461 677.022 474.968C677.022 472.707 677.395 470.957 678.142 469.72C678.888 468.461 680.072 467.832 681.694 467.832ZM681.694 469.816C680.883 469.816 680.286 470.253 679.902 471.128C679.539 471.981 679.358 473.261 679.358 474.968C679.358 476.675 679.539 477.965 679.902 478.84C680.286 479.715 680.883 480.152 681.694 480.152C682.526 480.152 683.144 479.725 683.55 478.872C683.955 477.997 684.158 476.696 684.158 474.968C684.158 473.261 683.955 471.981 683.55 471.128C683.144 470.253 682.526 469.816 681.694 469.816ZM696.318 468.152L683.646 491H681.182L693.854 468.152H696.318ZM695.678 476.984C696.723 476.984 697.598 477.272 698.302 477.848C699.006 478.403 699.539 479.213 699.902 480.28C700.286 481.325 700.478 482.605 700.478 484.12C700.478 486.381 700.083 488.152 699.294 489.432C698.526 490.691 697.32 491.32 695.678 491.32C694.675 491.32 693.822 491.032 693.118 490.456C692.414 489.88 691.88 489.059 691.518 487.992C691.176 486.904 691.006 485.613 691.006 484.12C691.006 481.859 691.379 480.109 692.126 478.872C692.872 477.613 694.056 476.984 695.678 476.984ZM695.678 479C694.867 479 694.27 479.427 693.886 480.28C693.523 481.133 693.342 482.413 693.342 484.12C693.342 485.848 693.523 487.149 693.886 488.024C694.27 488.877 694.867 489.304 695.678 489.304C696.51 489.304 697.128 488.877 697.534 488.024C697.939 487.171 698.142 485.869 698.142 484.12C698.142 482.413 697.939 481.133 697.534 480.28C697.128 479.427 696.51 479 695.678 479Z" fill="white"/>
<rect x="778" y="384.359" width="176" height="134.64" rx="16" fill="#0D0D0D"/>
<path d="M837.1 491V488.088H844.14C846.892 488.088 848.78 486.424 848.78 483.96C848.78 481.528 847.052 479.864 844.14 479.864H837.644V468.6H851.02V471.512H840.748V477.048H844.492C849.036 477.048 852.012 479.768 852.012 483.832C852.012 488.088 848.876 491 844.14 491H837.1ZM853.956 491V488.088H859.812V471.576H855.748V468.6H862.916V488.088H868.676V491H853.956ZM875.413 467.832C876.991 467.832 878.186 468.461 878.997 469.72C879.807 470.957 880.213 472.707 880.213 474.968C880.213 477.229 879.818 479 879.029 480.28C878.261 481.539 877.055 482.168 875.413 482.168C874.41 482.168 873.557 481.88 872.853 481.304C872.149 480.728 871.615 479.907 871.253 478.84C870.911 477.752 870.741 476.461 870.741 474.968C870.741 472.707 871.114 470.957 871.861 469.72C872.607 468.461 873.791 467.832 875.413 467.832ZM875.413 469.816C874.602 469.816 874.005 470.253 873.621 471.128C873.258 471.981 873.077 473.261 873.077 474.968C873.077 476.675 873.258 477.965 873.621 478.84C874.005 479.715 874.602 480.152 875.413 480.152C876.245 480.152 876.863 479.725 877.269 478.872C877.674 477.997 877.877 476.696 877.877 474.968C877.877 473.261 877.674 471.981 877.269 471.128C876.863 470.253 876.245 469.816 875.413 469.816ZM890.037 468.152L877.365 491H874.901L887.573 468.152H890.037ZM889.397 476.984C890.442 476.984 891.317 477.272 892.021 477.848C892.725 478.403 893.258 479.213 893.621 480.28C894.005 481.325 894.197 482.605 894.197 484.12C894.197 486.381 893.802 488.152 893.013 489.432C892.245 490.691 891.039 491.32 889.397 491.32C888.394 491.32 887.541 491.032 886.837 490.456C886.133 489.88 885.599 489.059 885.237 487.992C884.895 486.904 884.725 485.613 884.725 484.12C884.725 481.859 885.098 480.109 885.845 478.872C886.591 477.613 887.775 476.984 889.397 476.984ZM889.397 479C888.586 479 887.989 479.427 887.605 480.28C887.242 481.133 887.061 482.413 887.061 484.12C887.061 485.848 887.242 487.149 887.605 488.024C887.989 488.877 888.586 489.304 889.397 489.304C890.229 489.304 890.847 488.877 891.253 488.024C891.658 487.171 891.861 485.869 891.861 484.12C891.861 482.413 891.658 481.133 891.253 480.28C890.847 479.427 890.229 479 889.397 479Z" fill="white"/>
<path d="M603.352 561.28C599.632 561.28 597.072 558.84 597.072 554.02C597.072 549.2 599.532 546.72 603.392 546.72C606.432 546.72 608.512 548.48 608.932 551.48H606.832C606.532 549.64 605.152 548.58 603.392 548.58C600.832 548.58 599.132 550.24 599.132 553.98C599.132 557.68 600.912 559.42 603.352 559.42C605.292 559.42 606.512 558.12 606.832 556.32H608.912C608.432 559.22 606.512 561.28 603.352 561.28ZM615.341 561.28C612.421 561.28 610.381 559.24 610.381 556.18C610.381 553.14 612.421 551.1 615.341 551.1C618.281 551.1 620.301 553.14 620.301 556.18C620.301 559.24 618.281 561.28 615.341 561.28ZM612.381 556.18C612.381 558.18 613.581 559.52 615.341 559.52C617.121 559.52 618.301 558.18 618.301 556.18C618.301 554.2 617.121 552.86 615.341 552.86C613.581 552.86 612.381 554.2 612.381 556.18ZM622.521 561V551.38H624.241V552.64C624.821 551.6 625.981 551.1 627.281 551.1C629.641 551.1 631.121 552.54 631.121 555.2V561H629.181V555.38C629.181 553.66 628.341 552.86 626.921 552.86C625.441 552.86 624.461 553.88 624.461 555.44V561H622.521ZM636.115 561L632.115 551.38H634.275L637.235 558.92L640.175 551.38H642.335L638.315 561H636.115ZM647.745 561.28C644.865 561.28 642.945 559.26 642.945 556.14C642.945 553.04 644.865 551.1 647.605 551.1C650.465 551.1 652.225 552.96 652.225 555.9C652.225 556.16 652.205 556.42 652.165 556.82H644.865C644.945 558.58 646.025 559.64 647.745 559.64C648.885 559.64 649.685 559.12 650.065 558.26H652.045C651.445 560.12 649.965 561.28 647.745 561.28ZM644.865 555.3H650.265V555.2C650.265 553.72 649.305 552.66 647.605 552.66C645.985 552.66 644.945 553.74 644.865 555.3ZM654.362 561V551.38H656.082V552.94C656.322 551.98 657.042 551.38 658.182 551.38H660.022V553.08H658.002C656.802 553.08 656.302 553.76 656.302 555.06V561H654.362ZM664.827 561.28C662.227 561.28 660.687 560.24 660.587 558.26H662.587C662.687 559.22 663.467 559.7 664.867 559.7C666.147 559.7 666.927 559.16 666.927 558.28C666.927 557.56 666.387 557.14 665.387 557.04L663.847 556.88C662.047 556.7 660.907 555.7 660.907 554.1C660.907 552.26 662.447 551.1 664.807 551.1C667.207 551.1 668.687 552.1 668.807 554.06H666.867C666.807 553.14 666.047 552.68 664.787 552.68C663.587 552.68 662.827 553.18 662.827 554C662.827 554.7 663.347 555.08 664.467 555.22L666.027 555.4C667.847 555.6 668.887 556.62 668.887 558.2C668.887 560.08 667.307 561.28 664.827 561.28ZM670.994 561V551.38H672.934V561H670.994ZM670.874 549.44V547.14H673.034V549.44H670.874ZM680.094 561.28C677.174 561.28 675.134 559.24 675.134 556.18C675.134 553.14 677.174 551.1 680.094 551.1C683.034 551.1 685.054 553.14 685.054 556.18C685.054 559.24 683.034 561.28 680.094 561.28ZM677.134 556.18C677.134 558.18 678.334 559.52 680.094 559.52C681.874 559.52 683.054 558.18 683.054 556.18C683.054 554.2 681.874 552.86 680.094 552.86C678.334 552.86 677.134 554.2 677.134 556.18ZM687.273 561V551.38H688.993V552.64C689.573 551.6 690.733 551.1 692.033 551.1C694.393 551.1 695.873 552.54 695.873 555.2V561H693.933V555.38C693.933 553.66 693.093 552.86 691.673 552.86C690.193 552.86 689.213 553.88 689.213 555.44V561H687.273ZM703.734 561V547H709.734C712.654 547 714.374 548.52 714.374 551.02C714.374 553.42 712.814 554.92 710.154 555.06L714.774 561H712.274L707.674 555.04H705.734V561H703.734ZM705.734 553.22H709.734C711.394 553.22 712.334 552.42 712.334 551.02C712.334 549.66 711.394 548.88 709.734 548.88H705.734V553.22ZM719.492 561.28C717.272 561.28 715.872 560.12 715.872 558.28C715.872 556.56 717.032 555.32 719.392 555.18L722.312 555.02V554.48C722.312 553.22 721.692 552.7 720.372 552.7C719.092 552.7 718.452 553.04 718.292 554.06H716.352C716.572 552.08 717.932 551.1 720.512 551.1C722.812 551.1 724.152 552.26 724.152 554.38V559.08C724.152 559.3 724.252 559.4 724.472 559.4H725.292V561H723.732C723.072 561 722.692 560.64 722.692 560V559.72C722.132 560.7 720.992 561.28 719.492 561.28ZM717.812 558.22C717.812 559.1 718.532 559.68 719.712 559.68C721.272 559.68 722.312 558.78 722.312 557.14V556.52L719.632 556.72C718.392 556.8 717.812 557.44 717.812 558.22ZM730.442 561C728.782 561 728.062 560.34 728.062 558.68V553.08H725.542V551.38H728.062V548.5H730.002V551.38H733.022V553.08H730.002V558.3C730.002 559 730.282 559.3 731.022 559.3H733.022V561H730.442ZM738.831 561.28C735.951 561.28 734.031 559.26 734.031 556.14C734.031 553.04 735.951 551.1 738.691 551.1C741.551 551.1 743.311 552.96 743.311 555.9C743.311 556.16 743.291 556.42 743.251 556.82H735.951C736.031 558.58 737.111 559.64 738.831 559.64C739.971 559.64 740.771 559.12 741.151 558.26H743.131C742.531 560.12 741.051 561.28 738.831 561.28ZM735.951 555.3H741.351V555.2C741.351 553.72 740.391 552.66 738.691 552.66C737.071 552.66 736.031 553.74 735.951 555.3Z" fill="#0D0D0D"/>
<rect x="637.5" y="575.5" width="65" height="20" rx="10" stroke="#0B8900"/>
<path d="M647.812 584.568H650.598V585.562H647.812V588.446H646.804V585.562H644.018V584.568H646.804V581.67H647.812V584.568ZM651.806 590V588.726H654.368V581.502H652.59V580.2H655.726V588.726H658.246V590H651.806ZM659.873 590V588.082H661.553V590H659.873ZM663.405 590V588.726H666.485C667.689 588.726 668.515 587.998 668.515 586.92C668.515 585.856 667.759 585.128 666.485 585.128H663.643V580.2H669.495V581.474H665.001V583.896H666.639C668.627 583.896 669.929 585.086 669.929 586.864C669.929 588.726 668.557 590 666.485 590H663.405ZM675.128 590.196C672.762 590.196 671.404 588.964 671.404 587.228C671.404 586.094 672.118 585.142 673.21 584.792C672.23 584.456 671.684 583.588 671.684 582.65C671.684 581.096 673.042 580.004 675.128 580.004C677.228 580.004 678.586 581.096 678.586 582.65C678.586 583.588 678.04 584.456 677.06 584.792C678.152 585.142 678.866 586.094 678.866 587.228C678.866 588.964 677.508 590.196 675.128 590.196ZM672.804 587.186C672.804 588.25 673.63 589.02 675.128 589.02C676.64 589.02 677.466 588.25 677.466 587.186C677.466 586.108 676.584 585.394 675.128 585.394C673.686 585.394 672.804 586.108 672.804 587.186ZM673.084 582.734C673.084 583.644 673.868 584.246 675.128 584.246C676.388 584.246 677.186 583.644 677.186 582.734C677.186 581.824 676.43 581.18 675.128 581.18C673.84 581.18 673.084 581.824 673.084 582.734ZM679.8 590L682.418 586.528L679.94 583.266H681.592L683.3 585.59L684.994 583.266H686.646L684.168 586.528L686.786 590H685.134L683.3 587.536L681.452 590H679.8Z" fill="#0B8900"/>
<path fill-rule="evenodd" clip-rule="evenodd" d="M690 585.625L693.5 580L697 585.625H694.106V590H692.894V585.625H690Z" fill="#0B8900"/>
<path d="M799.352 561.28C795.632 561.28 793.072 558.84 793.072 554.02C793.072 549.2 795.532 546.72 799.392 546.72C802.432 546.72 804.512 548.48 804.932 551.48H802.832C802.532 549.64 801.152 548.58 799.392 548.58C796.832 548.58 795.132 550.24 795.132 553.98C795.132 557.68 796.912 559.42 799.352 559.42C801.292 559.42 802.512 558.12 802.832 556.32H804.912C804.432 559.22 802.512 561.28 799.352 561.28ZM811.341 561.28C808.421 561.28 806.381 559.24 806.381 556.18C806.381 553.14 808.421 551.1 811.341 551.1C814.281 551.1 816.301 553.14 816.301 556.18C816.301 559.24 814.281 561.28 811.341 561.28ZM808.381 556.18C808.381 558.18 809.581 559.52 811.341 559.52C813.121 559.52 814.301 558.18 814.301 556.18C814.301 554.2 813.121 552.86 811.341 552.86C809.581 552.86 808.381 554.2 808.381 556.18ZM818.521 561V551.38H820.241V552.64C820.821 551.6 821.981 551.1 823.281 551.1C825.641 551.1 827.121 552.54 827.121 555.2V561H825.181V555.38C825.181 553.66 824.341 552.86 822.921 552.86C821.441 552.86 820.461 553.88 820.461 555.44V561H818.521ZM832.115 561L828.115 551.38H830.275L833.235 558.92L836.175 551.38H838.335L834.315 561H832.115ZM843.745 561.28C840.865 561.28 838.945 559.26 838.945 556.14C838.945 553.04 840.865 551.1 843.605 551.1C846.465 551.1 848.225 552.96 848.225 555.9C848.225 556.16 848.205 556.42 848.165 556.82H840.865C840.945 558.58 842.025 559.64 843.745 559.64C844.885 559.64 845.685 559.12 846.065 558.26H848.045C847.445 560.12 845.965 561.28 843.745 561.28ZM840.865 555.3H846.265V555.2C846.265 553.72 845.305 552.66 843.605 552.66C841.985 552.66 840.945 553.74 840.865 555.3ZM850.362 561V551.38H852.082V552.94C852.322 551.98 853.042 551.38 854.182 551.38H856.022V553.08H854.002C852.802 553.08 852.302 553.76 852.302 555.06V561H850.362ZM860.827 561.28C858.227 561.28 856.687 560.24 856.587 558.26H858.587C858.687 559.22 859.467 559.7 860.867 559.7C862.147 559.7 862.927 559.16 862.927 558.28C862.927 557.56 862.387 557.14 861.387 557.04L859.847 556.88C858.047 556.7 856.907 555.7 856.907 554.1C856.907 552.26 858.447 551.1 860.807 551.1C863.207 551.1 864.687 552.1 864.807 554.06H862.867C862.807 553.14 862.047 552.68 860.787 552.68C859.587 552.68 858.827 553.18 858.827 554C858.827 554.7 859.347 555.08 860.467 555.22L862.027 555.4C863.847 555.6 864.887 556.62 864.887 558.2C864.887 560.08 863.307 561.28 860.827 561.28ZM866.994 561V551.38H868.934V561H866.994ZM866.874 549.44V547.14H869.034V549.44H866.874ZM876.094 561.28C873.174 561.28 871.134 559.24 871.134 556.18C871.134 553.14 873.174 551.1 876.094 551.1C879.034 551.1 881.054 553.14 881.054 556.18C881.054 559.24 879.034 561.28 876.094 561.28ZM873.134 556.18C873.134 558.18 874.334 559.52 876.094 559.52C877.874 559.52 879.054 558.18 879.054 556.18C879.054 554.2 877.874 552.86 876.094 552.86C874.334 552.86 873.134 554.2 873.134 556.18ZM883.273 561V551.38H884.993V552.64C885.573 551.6 886.733 551.1 888.033 551.1C890.393 551.1 891.873 552.54 891.873 555.2V561H889.933V555.38C889.933 553.66 889.093 552.86 887.673 552.86C886.193 552.86 885.213 553.88 885.213 555.44V561H883.273ZM899.734 561V547H905.734C908.654 547 910.374 548.52 910.374 551.02C910.374 553.42 908.814 554.92 906.154 555.06L910.774 561H908.274L903.674 555.04H901.734V561H899.734ZM901.734 553.22H905.734C907.394 553.22 908.334 552.42 908.334 551.02C908.334 549.66 907.394 548.88 905.734 548.88H901.734V553.22ZM915.492 561.28C913.272 561.28 911.872 560.12 911.872 558.28C911.872 556.56 913.032 555.32 915.392 555.18L918.312 555.02V554.48C918.312 553.22 917.692 552.7 916.372 552.7C915.092 552.7 914.452 553.04 914.292 554.06H912.352C912.572 552.08 913.932 551.1 916.512 551.1C918.812 551.1 920.152 552.26 920.152 554.38V559.08C920.152 559.3 920.252 559.4 920.472 559.4H921.292V561H919.732C919.072 561 918.692 560.64 918.692 560V559.72C918.132 560.7 916.992 561.28 915.492 561.28ZM913.812 558.22C913.812 559.1 914.532 559.68 915.712 559.68C917.272 559.68 918.312 558.78 918.312 557.14V556.52L915.632 556.72C914.392 556.8 913.812 557.44 913.812 558.22ZM926.442 561C924.782 561 924.062 560.34 924.062 558.68V553.08H921.542V551.38H924.062V548.5H926.002V551.38H929.022V553.08H926.002V558.3C926.002 559 926.282 559.3 927.022 559.3H929.022V561H926.442ZM934.831 561.28C931.951 561.28 930.031 559.26 930.031 556.14C930.031 553.04 931.951 551.1 934.691 551.1C937.551 551.1 939.311 552.96 939.311 555.9C939.311 556.16 939.291 556.42 939.251 556.82H931.951C932.031 558.58 933.111 559.64 934.831 559.64C935.971 559.64 936.771 559.12 937.151 558.26H939.131C938.531 560.12 937.051 561.28 934.831 561.28ZM931.951 555.3H937.351V555.2C937.351 553.72 936.391 552.66 934.691 552.66C933.071 552.66 932.031 553.74 931.951 555.3Z" fill="#0D0D0D"/>
<rect x="834.5" y="575.5" width="63" height="20" rx="10" stroke="#0B8900"/>
<path d="M844.685 584.568H847.471V585.562H844.685V588.446H843.677V585.562H840.891V584.568H843.677V581.67H844.685V584.568ZM848.679 590V588.726H851.241V581.502H849.463V580.2H852.599V588.726H855.119V590H848.679ZM856.746 590V588.082H858.426V590H856.746ZM860.278 590V588.726H863.358C864.562 588.726 865.388 587.998 865.388 586.92C865.388 585.856 864.632 585.128 863.358 585.128H860.516V580.2H866.368V581.474H861.874V583.896H863.512C865.5 583.896 866.802 585.086 866.802 586.864C866.802 588.726 865.43 590 863.358 590H860.278ZM867.792 590V588.726H870.354V581.502H868.576V580.2H871.712V588.726H874.232V590H867.792ZM874.8 590L877.418 586.528L874.94 583.266H876.592L878.3 585.59L879.994 583.266H881.646L879.168 586.528L881.786 590H880.134L878.3 587.536L876.452 590H874.8Z" fill="#0B8900"/>
<path fill-rule="evenodd" clip-rule="evenodd" d="M885 585.625L888.5 580L892 585.625H889.106V590H887.894V585.625H885Z" fill="#0B8900"/>
<rect x="994" y="255" width="1" height="264" rx="0.5" fill="#B5B2B0"/>
<rect x="1035.5" y="255.5" width="175" height="263" rx="15.5" fill="#CECCC9"/>
<rect x="1035.5" y="255.5" width="175" height="263" rx="15.5" stroke="#BFBDBA"/>
<path d="M1083.61 480.792C1082.84 480.451 1082.2 480.227 1081.69 480.12C1081.2 479.992 1080.72 479.928 1080.25 479.928C1079.65 479.928 1079.02 480.109 1078.36 480.472C1077.7 480.835 1077.11 481.283 1076.6 481.816V479.32C1077.11 478.765 1077.69 478.349 1078.33 478.072C1078.97 477.773 1079.67 477.624 1080.44 477.624C1081.06 477.624 1081.67 477.688 1082.26 477.816C1082.88 477.944 1083.68 478.221 1084.66 478.648C1085.43 478.989 1086.06 479.224 1086.55 479.352C1087.06 479.459 1087.54 479.512 1087.99 479.512C1088.61 479.512 1089.25 479.331 1089.91 478.968C1090.57 478.605 1091.16 478.157 1091.67 477.624V480.088C1091.16 480.643 1090.58 481.069 1089.94 481.368C1089.3 481.667 1088.6 481.816 1087.83 481.816C1087.23 481.816 1086.62 481.752 1085.98 481.624C1085.36 481.475 1084.57 481.197 1083.61 480.792ZM1094.08 491V488.088H1099.94V471.576H1095.87V468.6H1103.04V488.088H1108.8V491H1094.08ZM1110.89 487.064C1110.89 482.936 1112.81 481.016 1116.4 479.992L1119.53 479.096C1122 478.392 1123.15 477.208 1123.15 475.192C1123.15 472.984 1121.58 471.512 1119.18 471.512H1111.98V468.6H1119.18C1123.44 468.6 1126.38 471.192 1126.38 475.192C1126.38 478.424 1124.21 480.632 1121.07 481.592L1117.23 482.744C1115.02 483.416 1114.13 484.504 1114.13 486.52V488.088H1126.19V491H1110.89V487.064ZM1138.45 491.448C1132.37 491.448 1129.45 487.32 1129.45 479.8C1129.45 472.28 1132.37 468.152 1138.45 468.152C1144.53 468.152 1147.44 472.28 1147.44 479.8C1147.44 487.32 1144.53 491.448 1138.45 491.448ZM1132.69 479.8C1132.69 485.656 1134.48 488.696 1138.45 488.696C1142.38 488.696 1144.17 485.656 1144.17 479.8C1144.17 473.944 1142.38 470.904 1138.45 470.904C1134.48 470.904 1132.69 473.944 1132.69 479.8ZM1160.22 491.448C1154.14 491.448 1151.23 487.32 1151.23 479.8C1151.23 472.28 1154.14 468.152 1160.22 468.152C1166.3 468.152 1169.21 472.28 1169.21 479.8C1169.21 487.32 1166.3 491.448 1160.22 491.448ZM1154.46 479.8C1154.46 485.656 1156.25 488.696 1160.22 488.696C1164.16 488.696 1165.95 485.656 1165.95 479.8C1165.95 473.944 1164.16 470.904 1160.22 470.904C1156.25 470.904 1154.46 473.944 1154.46 479.8Z" fill="#0D0D0D"/>
<rect x="1231" y="497" width="176" height="22" rx="11" fill="#0D0D0D"/>
<path d="M1289.11 480.792C1288.34 480.451 1287.7 480.227 1287.19 480.12C1286.7 479.992 1286.22 479.928 1285.75 479.928C1285.15 479.928 1284.52 480.109 1283.86 480.472C1283.2 480.835 1282.61 481.283 1282.1 481.816V479.32C1282.61 478.765 1283.19 478.349 1283.83 478.072C1284.47 477.773 1285.17 477.624 1285.94 477.624C1286.56 477.624 1287.17 477.688 1287.76 477.816C1288.38 477.944 1289.18 478.221 1290.16 478.648C1290.93 478.989 1291.56 479.224 1292.05 479.352C1292.56 479.459 1293.04 479.512 1293.49 479.512C1294.11 479.512 1294.75 479.331 1295.41 478.968C1296.07 478.605 1296.66 478.157 1297.17 477.624V480.088C1296.66 480.643 1296.08 481.069 1295.44 481.368C1294.8 481.667 1294.1 481.816 1293.33 481.816C1292.73 481.816 1292.12 481.752 1291.48 481.624C1290.86 481.475 1290.07 481.197 1289.11 480.792ZM1299.58 491V488.088H1305.44V471.576H1301.37V468.6H1308.54V488.088H1314.3V491H1299.58ZM1324.86 491.448C1318.78 491.448 1315.87 487.32 1315.87 479.8C1315.87 472.28 1318.78 468.152 1324.86 468.152C1330.94 468.152 1333.85 472.28 1333.85 479.8C1333.85 487.32 1330.94 491.448 1324.86 491.448ZM1319.1 479.8C1319.1 485.656 1320.89 488.696 1324.86 488.696C1328.8 488.696 1330.59 485.656 1330.59 479.8C1330.59 473.944 1328.8 470.904 1324.86 470.904C1320.89 470.904 1319.1 473.944 1319.1 479.8ZM1346.63 491.448C1340.55 491.448 1337.64 487.32 1337.64 479.8C1337.64 472.28 1340.55 468.152 1346.63 468.152C1352.71 468.152 1355.63 472.28 1355.63 479.8C1355.63 487.32 1352.71 491.448 1346.63 491.448ZM1340.87 479.8C1340.87 485.656 1342.67 488.696 1346.63 488.696C1350.57 488.696 1352.36 485.656 1352.36 479.8C1352.36 473.944 1350.57 470.904 1346.63 470.904C1342.67 470.904 1340.87 473.944 1340.87 479.8Z" fill="#0D0D0D"/>
<path d="M1134.72 561V547H1137.16L1143.7 557.9V547H1145.7V561H1143.26L1136.72 550.08V561H1134.72ZM1152.37 561.28C1150.03 561.28 1148.59 559.84 1148.59 557.18V551.38H1150.53V557C1150.53 558.72 1151.33 559.52 1152.73 559.52C1154.19 559.52 1155.13 558.48 1155.13 556.94V551.38H1157.07V561H1155.35V559.9C1154.71 560.84 1153.61 561.28 1152.37 561.28ZM1159.84 561V551.38H1161.56V552.56C1162.12 551.56 1163 551.1 1164.18 551.1C1165.5 551.1 1166.48 551.74 1166.94 552.82C1167.56 551.66 1168.56 551.1 1169.82 551.1C1172.04 551.1 1173.26 552.44 1173.26 554.84V561H1171.34V554.94C1171.34 553.6 1170.7 552.86 1169.48 552.86C1168.34 552.86 1167.52 553.74 1167.52 555V561H1165.58V554.94C1165.58 553.6 1164.94 552.86 1163.76 552.86C1162.6 552.86 1161.78 553.74 1161.78 555V561H1159.84ZM1181.03 561.28C1179.53 561.28 1178.31 560.68 1177.69 559.62V561H1175.97V547H1177.91V552.54C1178.53 551.62 1179.65 551.1 1181.03 551.1C1183.77 551.1 1185.65 553.14 1185.65 556.18C1185.65 559.24 1183.77 561.28 1181.03 561.28ZM1177.87 556.18C1177.87 558.18 1179.01 559.52 1180.75 559.52C1182.49 559.52 1183.65 558.18 1183.65 556.18C1183.65 554.2 1182.49 552.86 1180.75 552.86C1179.01 552.86 1177.87 554.2 1177.87 556.18ZM1192.08 561.28C1189.2 561.28 1187.28 559.26 1187.28 556.14C1187.28 553.04 1189.2 551.1 1191.94 551.1C1194.8 551.1 1196.56 552.96 1196.56 555.9C1196.56 556.16 1196.54 556.42 1196.5 556.82H1189.2C1189.28 558.58 1190.36 559.64 1192.08 559.64C1193.22 559.64 1194.02 559.12 1194.4 558.26H1196.38C1195.78 560.12 1194.3 561.28 1192.08 561.28ZM1189.2 555.3H1194.6V555.2C1194.6 553.72 1193.64 552.66 1191.94 552.66C1190.32 552.66 1189.28 553.74 1189.2 555.3ZM1198.7 561V551.38H1200.42V552.94C1200.66 551.98 1201.38 551.38 1202.52 551.38H1204.36V553.08H1202.34C1201.14 553.08 1200.64 553.76 1200.64 555.06V561H1198.7ZM1215.21 561.28C1212.29 561.28 1210.25 559.24 1210.25 556.18C1210.25 553.14 1212.29 551.1 1215.21 551.1C1218.15 551.1 1220.17 553.14 1220.17 556.18C1220.17 559.24 1218.15 561.28 1215.21 561.28ZM1212.25 556.18C1212.25 558.18 1213.45 559.52 1215.21 559.52C1216.99 559.52 1218.17 558.18 1218.17 556.18C1218.17 554.2 1216.99 552.86 1215.21 552.86C1213.45 552.86 1212.25 554.2 1212.25 556.18ZM1223.32 549.62C1223.32 547.94 1224.3 547 1225.96 547H1229.08V548.7H1226.36C1225.66 548.7 1225.24 549.06 1225.24 549.82V551.38H1228.48V553.08H1225.24V561H1223.32V553.08H1220.78V551.38H1223.32V549.62ZM1235.38 561V547H1241.38C1244.3 547 1246.02 548.52 1246.02 551.02C1246.02 553.42 1244.46 554.92 1241.8 555.06L1246.42 561H1243.92L1239.32 555.04H1237.38V561H1235.38ZM1237.38 553.22H1241.38C1243.04 553.22 1243.98 552.42 1243.98 551.02C1243.98 549.66 1243.04 548.88 1241.38 548.88H1237.38V553.22ZM1252.11 561.28C1249.23 561.28 1247.31 559.26 1247.31 556.14C1247.31 553.04 1249.23 551.1 1251.97 551.1C1254.83 551.1 1256.59 552.96 1256.59 555.9C1256.59 556.16 1256.57 556.42 1256.53 556.82H1249.23C1249.31 558.58 1250.39 559.64 1252.11 559.64C1253.25 559.64 1254.05 559.12 1254.43 558.26H1256.41C1255.81 560.12 1254.33 561.28 1252.11 561.28ZM1249.23 555.3H1254.63V555.2C1254.63 553.72 1253.67 552.66 1251.97 552.66C1250.35 552.66 1249.31 553.74 1249.23 555.3ZM1259.82 549.62C1259.82 547.94 1260.8 547 1262.46 547H1265.58V548.7H1262.86C1262.16 548.7 1261.74 549.06 1261.74 549.82V551.38H1264.98V553.08H1261.74V561H1259.82V553.08H1257.28V551.38H1259.82V549.62ZM1270.19 561.28C1267.85 561.28 1266.41 559.84 1266.41 557.18V551.38H1268.35V557C1268.35 558.72 1269.15 559.52 1270.55 559.52C1272.01 559.52 1272.95 558.48 1272.95 556.94V551.38H1274.89V561H1273.17V559.9C1272.53 560.84 1271.43 561.28 1270.19 561.28ZM1277.66 561V551.38H1279.38V552.64C1279.96 551.6 1281.12 551.1 1282.42 551.1C1284.78 551.1 1286.26 552.54 1286.26 555.2V561H1284.32V555.38C1284.32 553.66 1283.48 552.86 1282.06 552.86C1280.58 552.86 1279.6 553.88 1279.6 555.44V561H1277.66ZM1292.94 561.28C1290.2 561.28 1288.32 559.24 1288.32 556.18C1288.32 553.14 1290.2 551.1 1292.94 551.1C1294.34 551.1 1295.48 551.62 1296.08 552.56V547H1298V561H1296.28V559.66C1295.64 560.68 1294.44 561.28 1292.94 561.28ZM1290.32 556.18C1290.32 558.18 1291.5 559.52 1293.24 559.52C1294.98 559.52 1296.12 558.18 1296.12 556.18C1296.12 554.2 1294.98 552.86 1293.24 552.86C1291.5 552.86 1290.32 554.2 1290.32 556.18ZM1304.27 561.28C1301.67 561.28 1300.13 560.24 1300.03 558.26H1302.03C1302.13 559.22 1302.91 559.7 1304.31 559.7C1305.59 559.7 1306.37 559.16 1306.37 558.28C1306.37 557.56 1305.83 557.14 1304.83 557.04L1303.29 556.88C1301.49 556.7 1300.35 555.7 1300.35 554.1C1300.35 552.26 1301.89 551.1 1304.25 551.1C1306.65 551.1 1308.13 552.1 1308.25 554.06H1306.31C1306.25 553.14 1305.49 552.68 1304.23 552.68C1303.03 552.68 1302.27 553.18 1302.27 554C1302.27 554.7 1302.79 555.08 1303.91 555.22L1305.47 555.4C1307.29 555.6 1308.33 556.62 1308.33 558.2C1308.33 560.08 1306.75 561.28 1304.27 561.28Z" fill="#0D0D0D"/>
<rect x="1191.5" y="575.5" width="59" height="20" rx="10" stroke="#E20B0B"/>
<path d="M1201.81 584.568H1204.6V585.562H1201.81V588.446H1200.81V585.562H1198.02V584.568H1200.81V581.67H1201.81V584.568ZM1205.81 590V588.726H1208.37V581.502H1206.59V580.2H1209.73V588.726H1212.25V590H1205.81ZM1213.88 590V588.082H1215.56V590H1213.88ZM1221.14 590.196C1218.48 590.196 1217.2 588.39 1217.2 585.1C1217.2 581.81 1218.48 580.004 1221.14 580.004C1223.8 580.004 1225.07 581.81 1225.07 585.1C1225.07 588.39 1223.8 590.196 1221.14 590.196ZM1218.62 585.1C1218.62 587.662 1219.4 588.992 1221.14 588.992C1222.86 588.992 1223.64 587.662 1223.64 585.1C1223.64 582.538 1222.86 581.208 1221.14 581.208C1219.4 581.208 1218.62 582.538 1218.62 585.1ZM1230.54 590.196C1228.17 590.196 1226.81 588.964 1226.81 587.228C1226.81 586.094 1227.53 585.142 1228.62 584.792C1227.64 584.456 1227.09 583.588 1227.09 582.65C1227.09 581.096 1228.45 580.004 1230.54 580.004C1232.64 580.004 1234 581.096 1234 582.65C1234 583.588 1233.45 584.456 1232.47 584.792C1233.56 585.142 1234.28 586.094 1234.28 587.228C1234.28 588.964 1232.92 590.196 1230.54 590.196ZM1228.21 587.186C1228.21 588.25 1229.04 589.02 1230.54 589.02C1232.05 589.02 1232.88 588.25 1232.88 587.186C1232.88 586.108 1231.99 585.394 1230.54 585.394C1229.1 585.394 1228.21 586.108 1228.21 587.186ZM1228.49 582.734C1228.49 583.644 1229.28 584.246 1230.54 584.246C1231.8 584.246 1232.6 583.644 1232.6 582.734C1232.6 581.824 1231.84 581.18 1230.54 581.18C1229.25 581.18 1228.49 581.824 1228.49 582.734Z" fill="#E20B0B"/>
<path fill-rule="evenodd" clip-rule="evenodd" d="M1238 585.625L1241.5 580L1245 585.625H1242.11V590H1240.89V585.625H1238Z" fill="#E20B0B"/>
</g>
<defs>
<clipPath id="clip0_4638_121882">
<rect width="1278" height="432" fill="white" transform="translate(129 164)"/>
</clipPath>
</defs>
</svg>
