<svg width="1536" height="760" viewBox="0 0 1536 760" fill="none" xmlns="http://www.w3.org/2000/svg">
<g clip-path="url(#clip0_4638_121815)">
<path d="M157.548 187.336C153.396 187.336 150.9 185.248 150.876 181.864H153.348C153.372 183.904 154.956 185.2 157.548 185.2C159.852 185.2 161.316 184 161.316 182.176C161.316 180.712 160.38 179.824 158.46 179.56L156.252 179.248C153.036 178.816 151.428 177.232 151.428 174.712C151.428 171.76 153.804 169.864 157.428 169.864C161.196 169.864 163.5 171.688 163.572 174.616H161.1C161.028 172.984 159.636 171.976 157.428 171.976C155.316 171.976 153.924 172.984 153.924 174.568C153.924 175.936 154.908 176.704 156.972 176.992L159.06 177.28C162.18 177.712 163.812 179.32 163.812 182.032C163.812 185.248 161.436 187.336 157.548 187.336ZM170.841 187.336C168.033 187.336 166.305 185.608 166.305 182.416V175.456H168.633V182.2C168.633 184.264 169.593 185.224 171.273 185.224C173.025 185.224 174.153 183.976 174.153 182.128V175.456H176.481V187H174.417V185.68C173.649 186.808 172.329 187.336 170.841 187.336ZM185.902 187.336C184.102 187.336 182.638 186.616 181.894 185.344V187H179.83V170.2H182.158V176.848C182.902 175.744 184.246 175.12 185.902 175.12C189.19 175.12 191.446 177.568 191.446 181.216C191.446 184.888 189.19 187.336 185.902 187.336ZM182.11 181.216C182.11 183.616 183.478 185.224 185.566 185.224C187.654 185.224 189.046 183.616 189.046 181.216C189.046 178.84 187.654 177.232 185.566 177.232C183.478 177.232 182.11 178.84 182.11 181.216ZM198.176 187.336C195.056 187.336 193.208 186.088 193.088 183.712H195.488C195.608 184.864 196.544 185.44 198.224 185.44C199.76 185.44 200.696 184.792 200.696 183.736C200.696 182.872 200.048 182.368 198.848 182.248L197 182.056C194.84 181.84 193.472 180.64 193.472 178.72C193.472 176.512 195.32 175.12 198.152 175.12C201.032 175.12 202.808 176.32 202.952 178.672H200.624C200.552 177.568 199.64 177.016 198.128 177.016C196.688 177.016 195.776 177.616 195.776 178.6C195.776 179.44 196.4 179.896 197.744 180.064L199.616 180.28C201.8 180.52 203.048 181.744 203.048 183.64C203.048 185.896 201.152 187.336 198.176 187.336ZM210.543 187.336C207.087 187.336 204.855 184.768 204.855 181.264C204.855 177.664 207.207 175.12 210.687 175.12C213.615 175.12 215.607 176.824 215.871 179.248H213.495C213.279 178.168 212.319 177.232 210.663 177.232C208.599 177.232 207.255 178.792 207.255 181.216C207.255 183.688 208.623 185.224 210.615 185.224C212.175 185.224 213.303 184.312 213.543 182.968H215.919C215.607 185.272 213.687 187.336 210.543 187.336ZM218.063 187V175.456H220.127V177.328C220.415 176.176 221.279 175.456 222.647 175.456H224.855V177.496H222.431C220.991 177.496 220.391 178.312 220.391 179.872V187H218.063ZM226.588 187V175.456H228.916V187H226.588ZM226.444 173.128V170.368H229.036V173.128H226.444ZM232.419 191.32V175.456H234.483V177.088C235.227 175.84 236.691 175.12 238.491 175.12C241.779 175.12 244.035 177.568 244.035 181.216C244.035 184.888 241.779 187.336 238.491 187.336C236.835 187.336 235.491 186.712 234.747 185.584V191.32H232.419ZM234.699 181.216C234.699 183.616 236.067 185.224 238.155 185.224C240.243 185.224 241.635 183.616 241.635 181.216C241.635 178.84 240.243 177.232 238.155 177.232C236.067 177.232 234.699 178.84 234.699 181.216ZM250.722 187C248.73 187 247.866 186.208 247.866 184.216V177.496H244.842V175.456H247.866V172H250.194V175.456H253.818V177.496H250.194V183.76C250.194 184.6 250.53 184.96 251.418 184.96H253.818V187H250.722ZM256.056 187V175.456H258.384V187H256.056ZM255.912 173.128V170.368H258.504V173.128H255.912ZM266.976 187.336C263.472 187.336 261.024 184.888 261.024 181.216C261.024 177.568 263.472 175.12 266.976 175.12C270.504 175.12 272.928 177.568 272.928 181.216C272.928 184.888 270.504 187.336 266.976 187.336ZM263.424 181.216C263.424 183.616 264.864 185.224 266.976 185.224C269.112 185.224 270.528 183.616 270.528 181.216C270.528 178.84 269.112 177.232 266.976 177.232C264.864 177.232 263.424 178.84 263.424 181.216ZM275.592 187V175.456H277.656V176.968C278.352 175.72 279.744 175.12 281.304 175.12C284.136 175.12 285.912 176.848 285.912 180.04V187H283.584V180.256C283.584 178.192 282.576 177.232 280.872 177.232C279.096 177.232 277.92 178.456 277.92 180.328V187H275.592ZM293.188 187.336C290.068 187.336 288.22 186.088 288.1 183.712H290.5C290.62 184.864 291.556 185.44 293.236 185.44C294.772 185.44 295.708 184.792 295.708 183.736C295.708 182.872 295.06 182.368 293.86 182.248L292.012 182.056C289.852 181.84 288.484 180.64 288.484 178.72C288.484 176.512 290.332 175.12 293.164 175.12C296.044 175.12 297.82 176.32 297.964 178.672H295.636C295.564 177.568 294.652 177.016 293.14 177.016C291.7 177.016 290.788 177.616 290.788 178.6C290.788 179.44 291.412 179.896 292.756 180.064L294.628 180.28C296.812 180.52 298.06 181.744 298.06 183.64C298.06 185.896 296.164 187.336 293.188 187.336Z" fill="#0D0D0D"/>
<path d="M414.584 187.336C410.24 187.336 407.192 184.216 407.192 178.624C407.192 173.056 410.144 169.864 414.776 169.864C418.544 169.864 421.016 171.952 421.496 175.336H419C418.592 173.392 417.104 172.072 414.776 172.072C411.608 172.072 409.664 174.328 409.664 178.624C409.664 183.016 411.704 185.128 414.896 185.128C417.32 185.128 418.976 183.688 419.192 180.976H413.288V178.792H421.496V187H419.48V184.768C418.592 186.328 416.84 187.336 414.584 187.336ZM429.791 187.336C426.335 187.336 424.031 184.912 424.031 181.168C424.031 177.448 426.335 175.12 429.623 175.12C433.055 175.12 435.167 177.352 435.167 180.88C435.167 181.192 435.143 181.504 435.095 181.984H426.335C426.431 184.096 427.727 185.368 429.791 185.368C431.159 185.368 432.119 184.744 432.575 183.712H434.951C434.231 185.944 432.455 187.336 429.791 187.336ZM426.335 180.16H432.815V180.04C432.815 178.264 431.663 176.992 429.623 176.992C427.679 176.992 426.431 178.288 426.335 180.16ZM441.838 187C439.846 187 438.982 186.208 438.982 184.216V177.496H435.958V175.456H438.982V172H441.31V175.456H444.934V177.496H441.31V183.76C441.31 184.6 441.646 184.96 442.534 184.96H444.934V187H441.838ZM457.295 187C455.303 187 454.439 186.208 454.439 184.216V177.496H451.415V175.456H454.439V172H456.767V175.456H460.391V177.496H456.767V183.76C456.767 184.6 457.103 184.96 457.991 184.96H460.391V187H457.295ZM467.507 187.336C464.003 187.336 461.555 184.888 461.555 181.216C461.555 177.568 464.003 175.12 467.507 175.12C471.035 175.12 473.459 177.568 473.459 181.216C473.459 184.888 471.035 187.336 467.507 187.336ZM463.955 181.216C463.955 183.616 465.395 185.224 467.507 185.224C469.643 185.224 471.059 183.616 471.059 181.216C471.059 178.84 469.643 177.232 467.507 177.232C465.395 177.232 463.955 178.84 463.955 181.216ZM489.535 187L485.599 181.816H484.375V187H482.047V170.2H484.375V179.656H485.599L489.487 175.456H492.343L487.639 180.688L492.343 187H489.535ZM494.252 187V175.456H496.316V176.968C497.012 175.72 498.404 175.12 499.964 175.12C502.796 175.12 504.572 176.848 504.572 180.04V187H502.244V180.256C502.244 178.192 501.236 177.232 499.532 177.232C497.756 177.232 496.58 178.456 496.58 180.328V187H494.252ZM513.001 187.336C509.497 187.336 507.049 184.888 507.049 181.216C507.049 177.568 509.497 175.12 513.001 175.12C516.529 175.12 518.953 177.568 518.953 181.216C518.953 184.888 516.529 187.336 513.001 187.336ZM509.449 181.216C509.449 183.616 510.889 185.224 513.001 185.224C515.137 185.224 516.553 183.616 516.553 181.216C516.553 178.84 515.137 177.232 513.001 177.232C510.889 177.232 509.449 178.84 509.449 181.216ZM523.73 187L520.154 175.456H522.578L525.146 184.408L527.714 175.456H530.378L532.946 184.408L535.514 175.456H537.938L534.362 187H531.626L529.058 178.096L526.466 187H523.73ZM546.245 187V170.2H548.645V184.744H556.541V187H546.245ZM563.083 187.336C559.627 187.336 557.323 184.912 557.323 181.168C557.323 177.448 559.627 175.12 562.915 175.12C566.347 175.12 568.459 177.352 568.459 180.88C568.459 181.192 568.435 181.504 568.387 181.984H559.627C559.723 184.096 561.019 185.368 563.083 185.368C564.451 185.368 565.411 184.744 565.867 183.712H568.243C567.523 185.944 565.747 187.336 563.083 187.336ZM559.627 180.16H566.107V180.04C566.107 178.264 564.955 176.992 562.915 176.992C560.971 176.992 559.723 178.288 559.627 180.16ZM570.789 187V183.712H573.669V187H570.789ZM576.315 187V183.712H579.195V187H576.315ZM581.84 187V183.712H584.72V187H581.84Z" fill="#0D0D0D"/>
<path d="M675.232 187V170.2H677.632V187H675.232ZM687.331 187V170.2H689.659V176.584C690.427 175.6 691.651 175.12 693.043 175.12C695.875 175.12 697.651 176.848 697.651 180.04V187H695.323V180.256C695.323 178.192 694.315 177.232 692.611 177.232C690.835 177.232 689.659 178.456 689.659 180.328V187H687.331ZM704.255 187.336C701.591 187.336 699.911 185.944 699.911 183.736C699.911 181.672 701.303 180.184 704.135 180.016L707.639 179.824V179.176C707.639 177.664 706.895 177.04 705.311 177.04C703.775 177.04 703.007 177.448 702.815 178.672H700.487C700.751 176.296 702.383 175.12 705.479 175.12C708.239 175.12 709.847 176.512 709.847 179.056V184.696C709.847 184.96 709.967 185.08 710.231 185.08H711.215V187H709.343C708.551 187 708.095 186.568 708.095 185.8V185.464C707.423 186.64 706.055 187.336 704.255 187.336ZM702.239 183.664C702.239 184.72 703.103 185.416 704.519 185.416C706.391 185.416 707.639 184.336 707.639 182.368V181.624L704.423 181.864C702.935 181.96 702.239 182.728 702.239 183.664ZM716.083 187L711.283 175.456H713.875L717.427 184.504L720.955 175.456H723.547L718.723 187H716.083ZM730.04 187.336C726.584 187.336 724.28 184.912 724.28 181.168C724.28 177.448 726.584 175.12 729.872 175.12C733.304 175.12 735.416 177.352 735.416 180.88C735.416 181.192 735.392 181.504 735.344 181.984H726.584C726.68 184.096 727.976 185.368 730.04 185.368C731.408 185.368 732.368 184.744 732.824 183.712H735.2C734.48 185.944 732.704 187.336 730.04 187.336ZM726.584 180.16H733.064V180.04C733.064 178.264 731.912 176.992 729.872 176.992C727.928 176.992 726.68 178.288 726.584 180.16ZM747.193 187.336C744.529 187.336 742.849 185.944 742.849 183.736C742.849 181.672 744.241 180.184 747.073 180.016L750.577 179.824V179.176C750.577 177.664 749.833 177.04 748.249 177.04C746.713 177.04 745.945 177.448 745.753 178.672H743.425C743.689 176.296 745.321 175.12 748.417 175.12C751.177 175.12 752.785 176.512 752.785 179.056V184.696C752.785 184.96 752.905 185.08 753.169 185.08H754.153V187H752.281C751.489 187 751.033 186.568 751.033 185.8V185.464C750.361 186.64 748.993 187.336 747.193 187.336ZM745.177 183.664C745.177 184.72 746.041 185.416 747.457 185.416C749.329 185.416 750.577 184.336 750.577 182.368V181.624L747.361 181.864C745.873 181.96 745.177 182.728 745.177 183.664ZM766.253 187.336C763.133 187.336 761.285 186.088 761.165 183.712H763.565C763.685 184.864 764.621 185.44 766.301 185.44C767.837 185.44 768.773 184.792 768.773 183.736C768.773 182.872 768.125 182.368 766.925 182.248L765.077 182.056C762.917 181.84 761.549 180.64 761.549 178.72C761.549 176.512 763.397 175.12 766.229 175.12C769.109 175.12 770.885 176.32 771.029 178.672H768.701C768.629 177.568 767.717 177.016 766.205 177.016C764.765 177.016 763.853 177.616 763.853 178.6C763.853 179.44 764.477 179.896 765.821 180.064L767.693 180.28C769.877 180.52 771.125 181.744 771.125 183.64C771.125 185.896 769.229 187.336 766.253 187.336ZM777.925 187.336C775.117 187.336 773.389 185.608 773.389 182.416V175.456H775.717V182.2C775.717 184.264 776.677 185.224 778.357 185.224C780.109 185.224 781.237 183.976 781.237 182.128V175.456H783.565V187H781.501V185.68C780.733 186.808 779.413 187.336 777.925 187.336ZM789.432 191.32C786.864 191.32 785.712 190.12 785.712 188.44C785.712 187.456 786.24 186.568 787.224 186.088C786.576 185.656 786.168 184.96 786.168 184.216C786.168 183.184 786.816 182.344 788.16 182.008C787.08 181.288 786.624 180.16 786.624 179.08C786.624 176.824 788.352 175.12 791.232 175.12C793.08 175.12 794.568 176.056 795.048 177.256V176.896C795.048 175.744 795.672 175.456 796.488 175.456H798.192V177.496H796.344C795.984 177.496 795.84 177.64 795.84 178V179.224C795.84 181.624 793.968 183.184 791.352 183.184H789.36C788.688 183.184 788.232 183.496 788.232 184.12C788.232 184.744 788.76 185.056 789.36 185.056H793.56C795.768 185.056 797.184 186.112 797.184 188.008C797.184 189.904 796.056 191.32 793.416 191.32H789.432ZM787.944 188.224C787.944 188.968 788.424 189.544 789.696 189.544H793.272C794.184 189.544 794.952 189.112 794.952 188.08C794.952 187.288 794.328 186.832 793.392 186.832H789.768C788.472 186.832 787.944 187.48 787.944 188.224ZM788.856 179.152C788.856 180.496 789.744 181.36 791.232 181.36C792.744 181.36 793.608 180.496 793.608 179.152C793.608 177.808 792.72 176.944 791.232 176.944C789.72 176.944 788.856 177.808 788.856 179.152ZM802.645 191.32C800.077 191.32 798.925 190.12 798.925 188.44C798.925 187.456 799.453 186.568 800.437 186.088C799.789 185.656 799.381 184.96 799.381 184.216C799.381 183.184 800.029 182.344 801.373 182.008C800.293 181.288 799.837 180.16 799.837 179.08C799.837 176.824 801.565 175.12 804.445 175.12C806.293 175.12 807.781 176.056 808.261 177.256V176.896C808.261 175.744 808.885 175.456 809.701 175.456H811.405V177.496H809.557C809.197 177.496 809.053 177.64 809.053 178V179.224C809.053 181.624 807.181 183.184 804.565 183.184H802.573C801.901 183.184 801.445 183.496 801.445 184.12C801.445 184.744 801.973 185.056 802.573 185.056H806.773C808.981 185.056 810.397 186.112 810.397 188.008C810.397 189.904 809.269 191.32 806.629 191.32H802.645ZM801.157 188.224C801.157 188.968 801.637 189.544 802.909 189.544H806.485C807.397 189.544 808.165 189.112 808.165 188.08C808.165 187.288 807.541 186.832 806.605 186.832H802.981C801.685 186.832 801.157 187.48 801.157 188.224ZM802.069 179.152C802.069 180.496 802.957 181.36 804.445 181.36C805.957 181.36 806.821 180.496 806.821 179.152C806.821 177.808 805.933 176.944 804.445 176.944C802.933 176.944 802.069 177.808 802.069 179.152ZM818.12 187.336C814.664 187.336 812.36 184.912 812.36 181.168C812.36 177.448 814.664 175.12 817.952 175.12C821.384 175.12 823.496 177.352 823.496 180.88C823.496 181.192 823.472 181.504 823.424 181.984H814.664C814.76 184.096 816.056 185.368 818.12 185.368C819.488 185.368 820.448 184.744 820.904 183.712H823.28C822.56 185.944 820.784 187.336 818.12 187.336ZM814.664 180.16H821.144V180.04C821.144 178.264 819.992 176.992 817.952 176.992C816.008 176.992 814.76 178.288 814.664 180.16ZM830.068 187.336C826.948 187.336 825.1 186.088 824.98 183.712H827.38C827.5 184.864 828.436 185.44 830.116 185.44C831.652 185.44 832.588 184.792 832.588 183.736C832.588 182.872 831.94 182.368 830.74 182.248L828.892 182.056C826.732 181.84 825.364 180.64 825.364 178.72C825.364 176.512 827.212 175.12 830.044 175.12C832.924 175.12 834.7 176.32 834.844 178.672H832.516C832.444 177.568 831.532 177.016 830.02 177.016C828.58 177.016 827.668 177.616 827.668 178.6C827.668 179.44 828.292 179.896 829.636 180.064L831.508 180.28C833.692 180.52 834.94 181.744 834.94 183.64C834.94 185.896 833.044 187.336 830.068 187.336ZM841.669 187C839.677 187 838.813 186.208 838.813 184.216V177.496H835.789V175.456H838.813V172H841.141V175.456H844.765V177.496H841.141V183.76C841.141 184.6 841.477 184.96 842.365 184.96H844.765V187H841.669ZM847.119 187V183.712H849.999V187H847.119ZM852.645 187V183.712H855.525V187H852.645ZM858.171 187V183.712H861.051V187H858.171Z" fill="#0D0D0D"/>
<path d="M957.606 187.336C953.454 187.336 950.958 185.248 950.934 181.864H953.406C953.43 183.904 955.014 185.2 957.606 185.2C959.91 185.2 961.374 184 961.374 182.176C961.374 180.712 960.438 179.824 958.518 179.56L956.31 179.248C953.094 178.816 951.486 177.232 951.486 174.712C951.486 171.76 953.862 169.864 957.486 169.864C961.254 169.864 963.558 171.688 963.63 174.616H961.158C961.086 172.984 959.694 171.976 957.486 171.976C955.374 171.976 953.982 172.984 953.982 174.568C953.982 175.936 954.966 176.704 957.03 176.992L959.118 177.28C962.238 177.712 963.87 179.32 963.87 182.032C963.87 185.248 961.494 187.336 957.606 187.336ZM971.811 187.336C968.307 187.336 965.859 184.888 965.859 181.216C965.859 177.568 968.307 175.12 971.811 175.12C975.339 175.12 977.763 177.568 977.763 181.216C977.763 184.888 975.339 187.336 971.811 187.336ZM968.259 181.216C968.259 183.616 969.699 185.224 971.811 185.224C973.947 185.224 975.363 183.616 975.363 181.216C975.363 178.84 973.947 177.232 971.811 177.232C969.699 177.232 968.259 178.84 968.259 181.216ZM980.427 187V175.456H982.491V176.872C983.163 175.672 984.219 175.12 985.635 175.12C987.219 175.12 988.395 175.888 988.947 177.184C989.691 175.792 990.891 175.12 992.403 175.12C995.067 175.12 996.531 176.728 996.531 179.608V187H994.227V179.728C994.227 178.12 993.459 177.232 991.995 177.232C990.627 177.232 989.643 178.288 989.643 179.8V187H987.315V179.728C987.315 178.12 986.547 177.232 985.131 177.232C983.739 177.232 982.755 178.288 982.755 179.8V187H980.427ZM1004.77 187.336C1001.32 187.336 999.012 184.912 999.012 181.168C999.012 177.448 1001.32 175.12 1004.6 175.12C1008.04 175.12 1010.15 177.352 1010.15 180.88C1010.15 181.192 1010.12 181.504 1010.08 181.984H1001.32C1001.41 184.096 1002.71 185.368 1004.77 185.368C1006.14 185.368 1007.1 184.744 1007.56 183.712H1009.93C1009.21 185.944 1007.44 187.336 1004.77 187.336ZM1001.32 180.16H1007.8V180.04C1007.8 178.264 1006.64 176.992 1004.6 176.992C1002.66 176.992 1001.41 178.288 1001.32 180.16ZM1020.01 173.344C1020.01 171.328 1021.18 170.2 1023.17 170.2H1026.92V172.24H1023.65C1022.81 172.24 1022.31 172.672 1022.31 173.584V175.456H1026.2V177.496H1022.31V187H1020.01V177.496H1016.96V175.456H1020.01V173.344ZM1032.53 187.336C1029.07 187.336 1026.77 184.912 1026.77 181.168C1026.77 177.448 1029.07 175.12 1032.36 175.12C1035.79 175.12 1037.9 177.352 1037.9 180.88C1037.9 181.192 1037.88 181.504 1037.83 181.984H1029.07C1029.17 184.096 1030.46 185.368 1032.53 185.368C1033.9 185.368 1034.86 184.744 1035.31 183.712H1037.69C1036.97 185.944 1035.19 187.336 1032.53 187.336ZM1029.07 180.16H1035.55V180.04C1035.55 178.264 1034.4 176.992 1032.36 176.992C1030.42 176.992 1029.17 178.288 1029.07 180.16ZM1043.81 187.336C1041.14 187.336 1039.46 185.944 1039.46 183.736C1039.46 181.672 1040.85 180.184 1043.69 180.016L1047.19 179.824V179.176C1047.19 177.664 1046.45 177.04 1044.86 177.04C1043.33 177.04 1042.56 177.448 1042.37 178.672H1040.04C1040.3 176.296 1041.93 175.12 1045.03 175.12C1047.79 175.12 1049.4 176.512 1049.4 179.056V184.696C1049.4 184.96 1049.52 185.08 1049.78 185.08H1050.77V187H1048.89C1048.1 187 1047.65 186.568 1047.65 185.8V185.464C1046.97 186.64 1045.61 187.336 1043.81 187.336ZM1041.79 183.664C1041.79 184.72 1042.65 185.416 1044.07 185.416C1045.94 185.416 1047.19 184.336 1047.19 182.368V181.624L1043.97 181.864C1042.49 181.96 1041.79 182.728 1041.79 183.664ZM1056.94 187C1054.95 187 1054.09 186.208 1054.09 184.216V177.496H1051.06V175.456H1054.09V172H1056.42V175.456H1060.04V177.496H1056.42V183.76C1056.42 184.6 1056.75 184.96 1057.64 184.96H1060.04V187H1056.94ZM1066.57 187.336C1063.76 187.336 1062.04 185.608 1062.04 182.416V175.456H1064.36V182.2C1064.36 184.264 1065.32 185.224 1067 185.224C1068.76 185.224 1069.88 183.976 1069.88 182.128V175.456H1072.21V187H1070.15V185.68C1069.38 186.808 1068.06 187.336 1066.57 187.336ZM1075.54 187V175.456H1077.6V177.328C1077.89 176.176 1078.75 175.456 1080.12 175.456H1082.33V177.496H1079.91C1078.47 177.496 1077.87 178.312 1077.87 179.872V187H1075.54ZM1088.66 187.336C1085.2 187.336 1082.9 184.912 1082.9 181.168C1082.9 177.448 1085.2 175.12 1088.49 175.12C1091.92 175.12 1094.03 177.352 1094.03 180.88C1094.03 181.192 1094.01 181.504 1093.96 181.984H1085.2C1085.3 184.096 1086.59 185.368 1088.66 185.368C1090.02 185.368 1090.98 184.744 1091.44 183.712H1093.82C1093.1 185.944 1091.32 187.336 1088.66 187.336ZM1085.2 180.16H1091.68V180.04C1091.68 178.264 1090.53 176.992 1088.49 176.992C1086.54 176.992 1085.3 178.288 1085.2 180.16ZM1100.61 187.336C1097.49 187.336 1095.64 186.088 1095.52 183.712H1097.92C1098.04 184.864 1098.97 185.44 1100.65 185.44C1102.19 185.44 1103.13 184.792 1103.13 183.736C1103.13 182.872 1102.48 182.368 1101.28 182.248L1099.43 182.056C1097.27 181.84 1095.9 180.64 1095.9 178.72C1095.9 176.512 1097.75 175.12 1100.58 175.12C1103.46 175.12 1105.24 176.32 1105.38 178.672H1103.05C1102.98 177.568 1102.07 177.016 1100.56 177.016C1099.12 177.016 1098.21 177.616 1098.21 178.6C1098.21 179.44 1098.83 179.896 1100.17 180.064L1102.05 180.28C1104.23 180.52 1105.48 181.744 1105.48 183.64C1105.48 185.896 1103.58 187.336 1100.61 187.336ZM1113.88 187V183.712H1116.76V187H1113.88ZM1119.41 187V183.712H1122.29V187H1119.41ZM1124.93 187V183.712H1127.81V187H1124.93Z" fill="#0D0D0D"/>
<path d="M1286.57 187L1280.52 170.2H1283.21L1288.2 184.384L1293.17 170.2H1295.88L1289.83 187H1286.57ZM1297.91 187V175.456H1300.24V187H1297.91ZM1297.77 173.128V170.368H1300.36V173.128H1297.77ZM1308.47 187.336C1305.19 187.336 1302.93 184.888 1302.93 181.216C1302.93 177.568 1305.19 175.12 1308.47 175.12C1310.15 175.12 1311.52 175.744 1312.24 176.872V170.2H1314.55V187H1312.48V185.392C1311.71 186.616 1310.27 187.336 1308.47 187.336ZM1305.33 181.216C1305.33 183.616 1306.75 185.224 1308.83 185.224C1310.92 185.224 1312.29 183.616 1312.29 181.216C1312.29 178.84 1310.92 177.232 1308.83 177.232C1306.75 177.232 1305.33 178.84 1305.33 181.216ZM1322.96 187.336C1319.5 187.336 1317.2 184.912 1317.2 181.168C1317.2 177.448 1319.5 175.12 1322.79 175.12C1326.22 175.12 1328.33 177.352 1328.33 180.88C1328.33 181.192 1328.31 181.504 1328.26 181.984H1319.5C1319.6 184.096 1320.89 185.368 1322.96 185.368C1324.33 185.368 1325.29 184.744 1325.74 183.712H1328.12C1327.4 185.944 1325.62 187.336 1322.96 187.336ZM1319.5 180.16H1325.98V180.04C1325.98 178.264 1324.83 176.992 1322.79 176.992C1320.85 176.992 1319.6 178.288 1319.5 180.16ZM1336.08 187.336C1332.58 187.336 1330.13 184.888 1330.13 181.216C1330.13 177.568 1332.58 175.12 1336.08 175.12C1339.61 175.12 1342.03 177.568 1342.03 181.216C1342.03 184.888 1339.61 187.336 1336.08 187.336ZM1332.53 181.216C1332.53 183.616 1333.97 185.224 1336.08 185.224C1338.22 185.224 1339.63 183.616 1339.63 181.216C1339.63 178.84 1338.22 177.232 1336.08 177.232C1333.97 177.232 1332.53 178.84 1332.53 181.216Z" fill="#0D0D0D"/>
<rect x="129" y="255" width="190.8" height="264" rx="16" fill="#0D0D0D"/>
<path d="M193.742 491V488.088H200.782C203.982 488.088 205.838 486.584 205.838 484.088C205.838 481.784 204.046 480.344 200.942 480.344H197.582V477.752L204.078 471.512H193.422V468.6H208.174V471.512L201.422 477.816H201.838C206.254 477.816 209.07 480.312 209.07 484.056C209.07 488.248 205.742 491 200.782 491H193.742ZM219.736 468.152C224.76 468.152 228.28 471.576 228.28 478.488C228.28 486.168 225.304 491 217.784 491H213.496V488.088H217.784C222.968 488.088 224.856 485.464 225.112 480.536C224.12 482.104 222.072 483.224 219.256 483.224C214.744 483.224 211.576 480.088 211.576 475.768C211.576 471.384 214.904 468.152 219.736 468.152ZM214.808 475.672C214.808 478.456 216.888 480.376 219.832 480.376C222.776 480.376 224.824 478.488 224.824 475.672C224.824 472.888 222.776 470.968 219.832 470.968C216.888 470.968 214.808 472.888 214.808 475.672ZM235.905 467.832C237.483 467.832 238.678 468.461 239.489 469.72C240.299 470.957 240.705 472.707 240.705 474.968C240.705 477.229 240.31 479 239.521 480.28C238.753 481.539 237.547 482.168 235.905 482.168C234.902 482.168 234.049 481.88 233.345 481.304C232.641 480.728 232.107 479.907 231.745 478.84C231.403 477.752 231.233 476.461 231.233 474.968C231.233 472.707 231.606 470.957 232.353 469.72C233.099 468.461 234.283 467.832 235.905 467.832ZM235.905 469.816C235.094 469.816 234.497 470.253 234.113 471.128C233.75 471.981 233.569 473.261 233.569 474.968C233.569 476.675 233.75 477.965 234.113 478.84C234.497 479.715 235.094 480.152 235.905 480.152C236.737 480.152 237.355 479.725 237.761 478.872C238.166 477.997 238.369 476.696 238.369 474.968C238.369 473.261 238.166 471.981 237.761 471.128C237.355 470.253 236.737 469.816 235.905 469.816ZM250.529 468.152L237.857 491H235.393L248.065 468.152H250.529ZM249.889 476.984C250.934 476.984 251.809 477.272 252.513 477.848C253.217 478.403 253.75 479.213 254.113 480.28C254.497 481.325 254.689 482.605 254.689 484.12C254.689 486.381 254.294 488.152 253.505 489.432C252.737 490.691 251.531 491.32 249.889 491.32C248.886 491.32 248.033 491.032 247.329 490.456C246.625 489.88 246.091 489.059 245.729 487.992C245.387 486.904 245.217 485.613 245.217 484.12C245.217 481.859 245.59 480.109 246.337 478.872C247.083 477.613 248.267 476.984 249.889 476.984ZM249.889 479C249.078 479 248.481 479.427 248.097 480.28C247.734 481.133 247.553 482.413 247.553 484.12C247.553 485.848 247.734 487.149 248.097 488.024C248.481 488.877 249.078 489.304 249.889 489.304C250.721 489.304 251.339 488.877 251.745 488.024C252.15 487.171 252.353 485.869 252.353 484.12C252.353 482.413 252.15 481.133 251.745 480.28C251.339 479.427 250.721 479 249.889 479Z" fill="white"/>
<path d="M157.752 561.28C154.032 561.28 151.472 558.84 151.472 554.02C151.472 549.2 153.932 546.72 157.792 546.72C160.832 546.72 162.912 548.48 163.332 551.48H161.232C160.932 549.64 159.552 548.58 157.792 548.58C155.232 548.58 153.532 550.24 153.532 553.98C153.532 557.68 155.312 559.42 157.752 559.42C159.692 559.42 160.912 558.12 161.232 556.32H163.312C162.832 559.22 160.912 561.28 157.752 561.28ZM169.741 561.28C166.821 561.28 164.781 559.24 164.781 556.18C164.781 553.14 166.821 551.1 169.741 551.1C172.681 551.1 174.701 553.14 174.701 556.18C174.701 559.24 172.681 561.28 169.741 561.28ZM166.781 556.18C166.781 558.18 167.981 559.52 169.741 559.52C171.521 559.52 172.701 558.18 172.701 556.18C172.701 554.2 171.521 552.86 169.741 552.86C167.981 552.86 166.781 554.2 166.781 556.18ZM176.921 561V551.38H178.641V552.64C179.221 551.6 180.381 551.1 181.681 551.1C184.041 551.1 185.521 552.54 185.521 555.2V561H183.581V555.38C183.581 553.66 182.741 552.86 181.321 552.86C179.841 552.86 178.861 553.88 178.861 555.44V561H176.921ZM190.515 561L186.515 551.38H188.675L191.635 558.92L194.575 551.38H196.735L192.715 561H190.515ZM202.145 561.28C199.265 561.28 197.345 559.26 197.345 556.14C197.345 553.04 199.265 551.1 202.005 551.1C204.865 551.1 206.625 552.96 206.625 555.9C206.625 556.16 206.605 556.42 206.565 556.82H199.265C199.345 558.58 200.425 559.64 202.145 559.64C203.285 559.64 204.085 559.12 204.465 558.26H206.445C205.845 560.12 204.365 561.28 202.145 561.28ZM199.265 555.3H204.665V555.2C204.665 553.72 203.705 552.66 202.005 552.66C200.385 552.66 199.345 553.74 199.265 555.3ZM208.762 561V551.38H210.482V552.94C210.722 551.98 211.442 551.38 212.582 551.38H214.422V553.08H212.402C211.202 553.08 210.702 553.76 210.702 555.06V561H208.762ZM219.227 561.28C216.627 561.28 215.087 560.24 214.987 558.26H216.987C217.087 559.22 217.867 559.7 219.267 559.7C220.547 559.7 221.327 559.16 221.327 558.28C221.327 557.56 220.787 557.14 219.787 557.04L218.247 556.88C216.447 556.7 215.307 555.7 215.307 554.1C215.307 552.26 216.847 551.1 219.207 551.1C221.607 551.1 223.087 552.1 223.207 554.06H221.267C221.207 553.14 220.447 552.68 219.187 552.68C217.987 552.68 217.227 553.18 217.227 554C217.227 554.7 217.747 555.08 218.867 555.22L220.427 555.4C222.247 555.6 223.287 556.62 223.287 558.2C223.287 560.08 221.707 561.28 219.227 561.28ZM225.394 561V551.38H227.334V561H225.394ZM225.274 549.44V547.14H227.434V549.44H225.274ZM234.494 561.28C231.574 561.28 229.534 559.24 229.534 556.18C229.534 553.14 231.574 551.1 234.494 551.1C237.434 551.1 239.454 553.14 239.454 556.18C239.454 559.24 237.434 561.28 234.494 561.28ZM231.534 556.18C231.534 558.18 232.734 559.52 234.494 559.52C236.274 559.52 237.454 558.18 237.454 556.18C237.454 554.2 236.274 552.86 234.494 552.86C232.734 552.86 231.534 554.2 231.534 556.18ZM241.673 561V551.38H243.393V552.64C243.973 551.6 245.133 551.1 246.433 551.1C248.793 551.1 250.273 552.54 250.273 555.2V561H248.333V555.38C248.333 553.66 247.493 552.86 246.073 552.86C244.593 552.86 243.613 553.88 243.613 555.44V561H241.673ZM258.134 561V547H264.134C267.054 547 268.774 548.52 268.774 551.02C268.774 553.42 267.214 554.92 264.554 555.06L269.174 561H266.674L262.074 555.04H260.134V561H258.134ZM260.134 553.22H264.134C265.794 553.22 266.734 552.42 266.734 551.02C266.734 549.66 265.794 548.88 264.134 548.88H260.134V553.22ZM273.892 561.28C271.672 561.28 270.272 560.12 270.272 558.28C270.272 556.56 271.432 555.32 273.792 555.18L276.712 555.02V554.48C276.712 553.22 276.092 552.7 274.772 552.7C273.492 552.7 272.852 553.04 272.692 554.06H270.752C270.972 552.08 272.332 551.1 274.912 551.1C277.212 551.1 278.552 552.26 278.552 554.38V559.08C278.552 559.3 278.652 559.4 278.872 559.4H279.692V561H278.132C277.472 561 277.092 560.64 277.092 560V559.72C276.532 560.7 275.392 561.28 273.892 561.28ZM272.212 558.22C272.212 559.1 272.932 559.68 274.112 559.68C275.672 559.68 276.712 558.78 276.712 557.14V556.52L274.032 556.72C272.792 556.8 272.212 557.44 272.212 558.22ZM284.842 561C283.182 561 282.462 560.34 282.462 558.68V553.08H279.942V551.38H282.462V548.5H284.402V551.38H287.422V553.08H284.402V558.3C284.402 559 284.682 559.3 285.422 559.3H287.422V561H284.842ZM293.231 561.28C290.351 561.28 288.431 559.26 288.431 556.14C288.431 553.04 290.351 551.1 293.091 551.1C295.951 551.1 297.711 552.96 297.711 555.9C297.711 556.16 297.691 556.42 297.651 556.82H290.351C290.431 558.58 291.511 559.64 293.231 559.64C294.371 559.64 295.171 559.12 295.551 558.26H297.531C296.931 560.12 295.451 561.28 293.231 561.28ZM290.351 555.3H295.751V555.2C295.751 553.72 294.791 552.66 293.091 552.66C291.471 552.66 290.431 553.74 290.351 555.3Z" fill="#0D0D0D"/>
<rect x="191.898" y="575.5" width="65" height="20" rx="10" stroke="#0B8900"/>
<path d="M202.43 584.568H205.216V585.562H202.43V588.446H201.422V585.562H198.636V584.568H201.422V581.67H202.43V584.568ZM206.423 590V588.726H208.985V581.502H207.207V580.2H210.343V588.726H212.863V590H206.423ZM214.49 590V588.082H216.17V590H214.49ZM217.992 590V588.726H221.072C222.472 588.726 223.284 588.068 223.284 586.976C223.284 585.968 222.5 585.338 221.142 585.338H219.672V584.204L222.514 581.474H217.852V580.2H224.306V581.474L221.352 584.232H221.534C223.466 584.232 224.698 585.324 224.698 586.962C224.698 588.796 223.242 590 221.072 590H217.992ZM229.504 580.004C231.702 580.004 233.242 581.502 233.242 584.526C233.242 587.886 231.94 590 228.65 590H226.774V588.726H228.65C230.918 588.726 231.744 587.578 231.856 585.422C231.422 586.108 230.526 586.598 229.294 586.598C227.32 586.598 225.934 585.226 225.934 583.336C225.934 581.418 227.39 580.004 229.504 580.004ZM227.348 583.294C227.348 584.512 228.258 585.352 229.546 585.352C230.834 585.352 231.73 584.526 231.73 583.294C231.73 582.076 230.834 581.236 229.546 581.236C228.258 581.236 227.348 582.076 227.348 583.294ZM234.198 590L236.816 586.528L234.338 583.266H235.99L237.698 585.59L239.392 583.266H241.044L238.566 586.528L241.184 590H239.532L237.698 587.536L235.85 590H234.198Z" fill="#0B8900"/>
<path fill-rule="evenodd" clip-rule="evenodd" d="M244.398 585.625L247.898 580L251.398 585.625H248.505V590H247.292V585.625H244.398Z" fill="#0B8900"/>
<rect x="359.801" y="255" width="1" height="264" rx="0.5" fill="#B5B2B0"/>
<rect x="400.801" y="255" width="190.8" height="264" rx="16" fill="#0D0D0D"/>
<path d="M465.543 491V488.088H472.583C475.783 488.088 477.639 486.584 477.639 484.088C477.639 481.784 475.847 480.344 472.743 480.344H469.383V477.752L475.879 471.512H465.223V468.6H479.975V471.512L473.223 477.816H473.639C478.055 477.816 480.871 480.312 480.871 484.056C480.871 488.248 477.543 491 472.583 491H465.543ZM491.536 468.152C496.56 468.152 500.08 471.576 500.08 478.488C500.08 486.168 497.104 491 489.584 491H485.296V488.088H489.584C494.768 488.088 496.656 485.464 496.912 480.536C495.92 482.104 493.872 483.224 491.056 483.224C486.544 483.224 483.376 480.088 483.376 475.768C483.376 471.384 486.704 468.152 491.536 468.152ZM486.608 475.672C486.608 478.456 488.688 480.376 491.632 480.376C494.576 480.376 496.624 478.488 496.624 475.672C496.624 472.888 494.576 470.968 491.632 470.968C488.688 470.968 486.608 472.888 486.608 475.672ZM507.705 467.832C509.284 467.832 510.479 468.461 511.289 469.72C512.1 470.957 512.505 472.707 512.505 474.968C512.505 477.229 512.111 479 511.321 480.28C510.553 481.539 509.348 482.168 507.705 482.168C506.703 482.168 505.849 481.88 505.145 481.304C504.441 480.728 503.908 479.907 503.545 478.84C503.204 477.752 503.033 476.461 503.033 474.968C503.033 472.707 503.407 470.957 504.153 469.72C504.9 468.461 506.084 467.832 507.705 467.832ZM507.705 469.816C506.895 469.816 506.297 470.253 505.913 471.128C505.551 471.981 505.369 473.261 505.369 474.968C505.369 476.675 505.551 477.965 505.913 478.84C506.297 479.715 506.895 480.152 507.705 480.152C508.537 480.152 509.156 479.725 509.561 478.872C509.967 477.997 510.169 476.696 510.169 474.968C510.169 473.261 509.967 471.981 509.561 471.128C509.156 470.253 508.537 469.816 507.705 469.816ZM522.329 468.152L509.657 491H507.193L519.865 468.152H522.329ZM521.689 476.984C522.735 476.984 523.609 477.272 524.313 477.848C525.017 478.403 525.551 479.213 525.913 480.28C526.297 481.325 526.489 482.605 526.489 484.12C526.489 486.381 526.095 488.152 525.305 489.432C524.537 490.691 523.332 491.32 521.689 491.32C520.687 491.32 519.833 491.032 519.129 490.456C518.425 489.88 517.892 489.059 517.529 487.992C517.188 486.904 517.017 485.613 517.017 484.12C517.017 481.859 517.391 480.109 518.137 478.872C518.884 477.613 520.068 476.984 521.689 476.984ZM521.689 479C520.879 479 520.281 479.427 519.897 480.28C519.535 481.133 519.353 482.413 519.353 484.12C519.353 485.848 519.535 487.149 519.897 488.024C520.281 488.877 520.879 489.304 521.689 489.304C522.521 489.304 523.14 488.877 523.545 488.024C523.951 487.171 524.153 485.869 524.153 484.12C524.153 482.413 523.951 481.133 523.545 480.28C523.14 479.427 522.521 479 521.689 479Z" fill="white"/>
<path d="M429.553 561.28C425.833 561.28 423.273 558.84 423.273 554.02C423.273 549.2 425.733 546.72 429.593 546.72C432.633 546.72 434.713 548.48 435.133 551.48H433.033C432.733 549.64 431.353 548.58 429.593 548.58C427.033 548.58 425.333 550.24 425.333 553.98C425.333 557.68 427.113 559.42 429.553 559.42C431.493 559.42 432.713 558.12 433.033 556.32H435.113C434.633 559.22 432.713 561.28 429.553 561.28ZM441.542 561.28C438.622 561.28 436.582 559.24 436.582 556.18C436.582 553.14 438.622 551.1 441.542 551.1C444.482 551.1 446.502 553.14 446.502 556.18C446.502 559.24 444.482 561.28 441.542 561.28ZM438.582 556.18C438.582 558.18 439.782 559.52 441.542 559.52C443.322 559.52 444.502 558.18 444.502 556.18C444.502 554.2 443.322 552.86 441.542 552.86C439.782 552.86 438.582 554.2 438.582 556.18ZM448.722 561V551.38H450.442V552.64C451.022 551.6 452.182 551.1 453.482 551.1C455.842 551.1 457.322 552.54 457.322 555.2V561H455.382V555.38C455.382 553.66 454.542 552.86 453.122 552.86C451.642 552.86 450.662 553.88 450.662 555.44V561H448.722ZM462.315 561L458.315 551.38H460.475L463.435 558.92L466.375 551.38H468.535L464.515 561H462.315ZM473.946 561.28C471.066 561.28 469.146 559.26 469.146 556.14C469.146 553.04 471.066 551.1 473.806 551.1C476.666 551.1 478.426 552.96 478.426 555.9C478.426 556.16 478.406 556.42 478.366 556.82H471.066C471.146 558.58 472.226 559.64 473.946 559.64C475.086 559.64 475.886 559.12 476.266 558.26H478.246C477.646 560.12 476.166 561.28 473.946 561.28ZM471.066 555.3H476.466V555.2C476.466 553.72 475.506 552.66 473.806 552.66C472.186 552.66 471.146 553.74 471.066 555.3ZM480.563 561V551.38H482.283V552.94C482.523 551.98 483.243 551.38 484.383 551.38H486.223V553.08H484.203C483.003 553.08 482.503 553.76 482.503 555.06V561H480.563ZM491.027 561.28C488.427 561.28 486.887 560.24 486.787 558.26H488.787C488.887 559.22 489.667 559.7 491.067 559.7C492.347 559.7 493.127 559.16 493.127 558.28C493.127 557.56 492.587 557.14 491.587 557.04L490.047 556.88C488.247 556.7 487.107 555.7 487.107 554.1C487.107 552.26 488.647 551.1 491.007 551.1C493.407 551.1 494.887 552.1 495.007 554.06H493.067C493.007 553.14 492.247 552.68 490.987 552.68C489.787 552.68 489.027 553.18 489.027 554C489.027 554.7 489.547 555.08 490.667 555.22L492.227 555.4C494.047 555.6 495.087 556.62 495.087 558.2C495.087 560.08 493.507 561.28 491.027 561.28ZM497.194 561V551.38H499.134V561H497.194ZM497.074 549.44V547.14H499.234V549.44H497.074ZM506.294 561.28C503.374 561.28 501.334 559.24 501.334 556.18C501.334 553.14 503.374 551.1 506.294 551.1C509.234 551.1 511.254 553.14 511.254 556.18C511.254 559.24 509.234 561.28 506.294 561.28ZM503.334 556.18C503.334 558.18 504.534 559.52 506.294 559.52C508.074 559.52 509.254 558.18 509.254 556.18C509.254 554.2 508.074 552.86 506.294 552.86C504.534 552.86 503.334 554.2 503.334 556.18ZM513.474 561V551.38H515.194V552.64C515.774 551.6 516.934 551.1 518.234 551.1C520.594 551.1 522.074 552.54 522.074 555.2V561H520.134V555.38C520.134 553.66 519.294 552.86 517.874 552.86C516.394 552.86 515.414 553.88 515.414 555.44V561H513.474ZM529.935 561V547H535.935C538.855 547 540.575 548.52 540.575 551.02C540.575 553.42 539.015 554.92 536.355 555.06L540.975 561H538.475L533.875 555.04H531.935V561H529.935ZM531.935 553.22H535.935C537.595 553.22 538.535 552.42 538.535 551.02C538.535 549.66 537.595 548.88 535.935 548.88H531.935V553.22ZM545.693 561.28C543.473 561.28 542.073 560.12 542.073 558.28C542.073 556.56 543.233 555.32 545.593 555.18L548.513 555.02V554.48C548.513 553.22 547.893 552.7 546.573 552.7C545.293 552.7 544.653 553.04 544.493 554.06H542.553C542.773 552.08 544.133 551.1 546.713 551.1C549.013 551.1 550.353 552.26 550.353 554.38V559.08C550.353 559.3 550.453 559.4 550.673 559.4H551.493V561H549.933C549.273 561 548.893 560.64 548.893 560V559.72C548.333 560.7 547.193 561.28 545.693 561.28ZM544.013 558.22C544.013 559.1 544.733 559.68 545.913 559.68C547.473 559.68 548.513 558.78 548.513 557.14V556.52L545.833 556.72C544.593 556.8 544.013 557.44 544.013 558.22ZM556.643 561C554.983 561 554.263 560.34 554.263 558.68V553.08H551.743V551.38H554.263V548.5H556.203V551.38H559.223V553.08H556.203V558.3C556.203 559 556.483 559.3 557.223 559.3H559.223V561H556.643ZM565.032 561.28C562.152 561.28 560.232 559.26 560.232 556.14C560.232 553.04 562.152 551.1 564.892 551.1C567.752 551.1 569.512 552.96 569.512 555.9C569.512 556.16 569.492 556.42 569.452 556.82H562.152C562.232 558.58 563.312 559.64 565.032 559.64C566.172 559.64 566.972 559.12 567.352 558.26H569.332C568.732 560.12 567.252 561.28 565.032 561.28ZM562.152 555.3H567.552V555.2C567.552 553.72 566.592 552.66 564.892 552.66C563.272 552.66 562.232 553.74 562.152 555.3Z" fill="#0D0D0D"/>
<rect x="463.699" y="575.5" width="65" height="20" rx="10" stroke="#0B8900"/>
<path d="M474.23 584.568H477.016V585.562H474.23V588.446H473.222V585.562H470.436V584.568H473.222V581.67H474.23V584.568ZM478.224 590V588.726H480.786V581.502H479.008V580.2H482.144V588.726H484.664V590H478.224ZM486.291 590V588.082H487.971V590H486.291ZM489.793 590V588.726H492.873C494.273 588.726 495.085 588.068 495.085 586.976C495.085 585.968 494.301 585.338 492.943 585.338H491.473V584.204L494.315 581.474H489.653V580.2H496.107V581.474L493.153 584.232H493.335C495.267 584.232 496.499 585.324 496.499 586.962C496.499 588.796 495.043 590 492.873 590H489.793ZM501.305 580.004C503.503 580.004 505.043 581.502 505.043 584.526C505.043 587.886 503.741 590 500.451 590H498.575V588.726H500.451C502.719 588.726 503.545 587.578 503.657 585.422C503.223 586.108 502.327 586.598 501.095 586.598C499.121 586.598 497.735 585.226 497.735 583.336C497.735 581.418 499.191 580.004 501.305 580.004ZM499.149 583.294C499.149 584.512 500.059 585.352 501.347 585.352C502.635 585.352 503.531 584.526 503.531 583.294C503.531 582.076 502.635 581.236 501.347 581.236C500.059 581.236 499.149 582.076 499.149 583.294ZM505.999 590L508.617 586.528L506.139 583.266H507.791L509.499 585.59L511.193 583.266H512.845L510.367 586.528L512.985 590H511.333L509.499 587.536L507.651 590H505.999Z" fill="#0B8900"/>
<path fill-rule="evenodd" clip-rule="evenodd" d="M516.199 585.625L519.699 580L523.199 585.625H520.305V590H519.093V585.625H516.199Z" fill="#0B8900"/>
<rect x="631.602" y="255" width="1" height="264" rx="0.5" fill="#B5B2B0"/>
<rect x="672.602" y="303" width="190.8" height="216" rx="16" fill="#0D0D0D"/>
<path d="M737.844 491V488.088H744.884C748.084 488.088 749.94 486.584 749.94 484.088C749.94 481.784 748.148 480.344 745.044 480.344H741.684V477.752L748.18 471.512H737.524V468.6H752.276V471.512L745.524 477.816H745.94C750.356 477.816 753.172 480.312 753.172 484.056C753.172 488.248 749.844 491 744.884 491H737.844ZM756.34 487.064C756.34 482.936 758.26 481.016 761.844 479.992L764.98 479.096C767.444 478.392 768.596 477.208 768.596 475.192C768.596 472.984 767.028 471.512 764.628 471.512H757.428V468.6H764.628C768.884 468.6 771.828 471.192 771.828 475.192C771.828 478.424 769.652 480.632 766.516 481.592L762.676 482.744C760.468 483.416 759.572 484.504 759.572 486.52V488.088H771.636V491H756.34V487.064ZM779.1 467.832C780.679 467.832 781.873 468.461 782.684 469.72C783.495 470.957 783.9 472.707 783.9 474.968C783.9 477.229 783.505 479 782.716 480.28C781.948 481.539 780.743 482.168 779.1 482.168C778.097 482.168 777.244 481.88 776.54 481.304C775.836 480.728 775.303 479.907 774.94 478.84C774.599 477.752 774.428 476.461 774.428 474.968C774.428 472.707 774.801 470.957 775.548 469.72C776.295 468.461 777.479 467.832 779.1 467.832ZM779.1 469.816C778.289 469.816 777.692 470.253 777.308 471.128C776.945 471.981 776.764 473.261 776.764 474.968C776.764 476.675 776.945 477.965 777.308 478.84C777.692 479.715 778.289 480.152 779.1 480.152C779.932 480.152 780.551 479.725 780.956 478.872C781.361 477.997 781.564 476.696 781.564 474.968C781.564 473.261 781.361 471.981 780.956 471.128C780.551 470.253 779.932 469.816 779.1 469.816ZM793.724 468.152L781.052 491H778.588L791.26 468.152H793.724ZM793.084 476.984C794.129 476.984 795.004 477.272 795.708 477.848C796.412 478.403 796.945 479.213 797.308 480.28C797.692 481.325 797.884 482.605 797.884 484.12C797.884 486.381 797.489 488.152 796.7 489.432C795.932 490.691 794.727 491.32 793.084 491.32C792.081 491.32 791.228 491.032 790.524 490.456C789.82 489.88 789.287 489.059 788.924 487.992C788.583 486.904 788.412 485.613 788.412 484.12C788.412 481.859 788.785 480.109 789.532 478.872C790.279 477.613 791.463 476.984 793.084 476.984ZM793.084 479C792.273 479 791.676 479.427 791.292 480.28C790.929 481.133 790.748 482.413 790.748 484.12C790.748 485.848 790.929 487.149 791.292 488.024C791.676 488.877 792.273 489.304 793.084 489.304C793.916 489.304 794.535 488.877 794.94 488.024C795.345 487.171 795.548 485.869 795.548 484.12C795.548 482.413 795.345 481.133 794.94 480.28C794.535 479.427 793.916 479 793.084 479Z" fill="white"/>
<path d="M701.353 561.28C697.633 561.28 695.073 558.84 695.073 554.02C695.073 549.2 697.533 546.72 701.393 546.72C704.433 546.72 706.513 548.48 706.933 551.48H704.833C704.533 549.64 703.153 548.58 701.393 548.58C698.833 548.58 697.133 550.24 697.133 553.98C697.133 557.68 698.913 559.42 701.353 559.42C703.293 559.42 704.513 558.12 704.833 556.32H706.913C706.433 559.22 704.513 561.28 701.353 561.28ZM713.343 561.28C710.423 561.28 708.383 559.24 708.383 556.18C708.383 553.14 710.423 551.1 713.343 551.1C716.283 551.1 718.303 553.14 718.303 556.18C718.303 559.24 716.283 561.28 713.343 561.28ZM710.383 556.18C710.383 558.18 711.583 559.52 713.343 559.52C715.123 559.52 716.303 558.18 716.303 556.18C716.303 554.2 715.123 552.86 713.343 552.86C711.583 552.86 710.383 554.2 710.383 556.18ZM720.523 561V551.38H722.243V552.64C722.823 551.6 723.983 551.1 725.283 551.1C727.643 551.1 729.123 552.54 729.123 555.2V561H727.183V555.38C727.183 553.66 726.343 552.86 724.923 552.86C723.443 552.86 722.463 553.88 722.463 555.44V561H720.523ZM734.116 561L730.116 551.38H732.276L735.236 558.92L738.176 551.38H740.336L736.316 561H734.116ZM745.747 561.28C742.867 561.28 740.947 559.26 740.947 556.14C740.947 553.04 742.867 551.1 745.607 551.1C748.467 551.1 750.227 552.96 750.227 555.9C750.227 556.16 750.207 556.42 750.167 556.82H742.867C742.947 558.58 744.027 559.64 745.747 559.64C746.887 559.64 747.687 559.12 748.067 558.26H750.047C749.447 560.12 747.967 561.28 745.747 561.28ZM742.867 555.3H748.267V555.2C748.267 553.72 747.307 552.66 745.607 552.66C743.987 552.66 742.947 553.74 742.867 555.3ZM752.364 561V551.38H754.084V552.94C754.324 551.98 755.044 551.38 756.184 551.38H758.024V553.08H756.004C754.804 553.08 754.304 553.76 754.304 555.06V561H752.364ZM762.828 561.28C760.228 561.28 758.688 560.24 758.588 558.26H760.588C760.688 559.22 761.468 559.7 762.868 559.7C764.148 559.7 764.928 559.16 764.928 558.28C764.928 557.56 764.388 557.14 763.388 557.04L761.848 556.88C760.048 556.7 758.908 555.7 758.908 554.1C758.908 552.26 760.448 551.1 762.808 551.1C765.208 551.1 766.688 552.1 766.808 554.06H764.868C764.808 553.14 764.048 552.68 762.788 552.68C761.588 552.68 760.828 553.18 760.828 554C760.828 554.7 761.348 555.08 762.468 555.22L764.028 555.4C765.848 555.6 766.888 556.62 766.888 558.2C766.888 560.08 765.308 561.28 762.828 561.28ZM768.995 561V551.38H770.935V561H768.995ZM768.875 549.44V547.14H771.035V549.44H768.875ZM778.095 561.28C775.175 561.28 773.135 559.24 773.135 556.18C773.135 553.14 775.175 551.1 778.095 551.1C781.035 551.1 783.055 553.14 783.055 556.18C783.055 559.24 781.035 561.28 778.095 561.28ZM775.135 556.18C775.135 558.18 776.335 559.52 778.095 559.52C779.875 559.52 781.055 558.18 781.055 556.18C781.055 554.2 779.875 552.86 778.095 552.86C776.335 552.86 775.135 554.2 775.135 556.18ZM785.275 561V551.38H786.995V552.64C787.575 551.6 788.735 551.1 790.035 551.1C792.395 551.1 793.875 552.54 793.875 555.2V561H791.935V555.38C791.935 553.66 791.095 552.86 789.675 552.86C788.195 552.86 787.215 553.88 787.215 555.44V561H785.275ZM801.736 561V547H807.736C810.656 547 812.376 548.52 812.376 551.02C812.376 553.42 810.816 554.92 808.156 555.06L812.776 561H810.276L805.676 555.04H803.736V561H801.736ZM803.736 553.22H807.736C809.396 553.22 810.336 552.42 810.336 551.02C810.336 549.66 809.396 548.88 807.736 548.88H803.736V553.22ZM817.494 561.28C815.274 561.28 813.874 560.12 813.874 558.28C813.874 556.56 815.034 555.32 817.394 555.18L820.314 555.02V554.48C820.314 553.22 819.694 552.7 818.374 552.7C817.094 552.7 816.454 553.04 816.294 554.06H814.354C814.574 552.08 815.934 551.1 818.514 551.1C820.814 551.1 822.154 552.26 822.154 554.38V559.08C822.154 559.3 822.254 559.4 822.474 559.4H823.294V561H821.734C821.074 561 820.694 560.64 820.694 560V559.72C820.134 560.7 818.994 561.28 817.494 561.28ZM815.814 558.22C815.814 559.1 816.534 559.68 817.714 559.68C819.274 559.68 820.314 558.78 820.314 557.14V556.52L817.634 556.72C816.394 556.8 815.814 557.44 815.814 558.22ZM828.444 561C826.784 561 826.064 560.34 826.064 558.68V553.08H823.544V551.38H826.064V548.5H828.004V551.38H831.024V553.08H828.004V558.3C828.004 559 828.284 559.3 829.024 559.3H831.024V561H828.444ZM836.833 561.28C833.953 561.28 832.033 559.26 832.033 556.14C832.033 553.04 833.953 551.1 836.693 551.1C839.553 551.1 841.313 552.96 841.313 555.9C841.313 556.16 841.293 556.42 841.253 556.82H833.953C834.033 558.58 835.113 559.64 836.833 559.64C837.973 559.64 838.773 559.12 839.153 558.26H841.133C840.533 560.12 839.053 561.28 836.833 561.28ZM833.953 555.3H839.353V555.2C839.353 553.72 838.393 552.66 836.693 552.66C835.073 552.66 834.033 553.74 833.953 555.3Z" fill="#0D0D0D"/>
<rect x="735.5" y="575.5" width="65" height="20" rx="10" stroke="#0B8900"/>
<path d="M746.428 584.568H749.214V585.562H746.428V588.446H745.42V585.562H742.634V584.568H745.42V581.67H746.428V584.568ZM750.421 590V588.726H752.983V581.502H751.205V580.2H754.341V588.726H756.861V590H750.421ZM758.488 590V588.082H760.168V590H758.488ZM761.99 590V588.726H765.07C766.47 588.726 767.282 588.068 767.282 586.976C767.282 585.968 766.498 585.338 765.14 585.338H763.67V584.204L766.512 581.474H761.85V580.2H768.304V581.474L765.35 584.232H765.532C767.464 584.232 768.696 585.324 768.696 586.962C768.696 588.796 767.24 590 765.07 590H761.99ZM770.222 588.278C770.222 586.472 771.062 585.632 772.63 585.184L774.002 584.792C775.08 584.484 775.584 583.966 775.584 583.084C775.584 582.118 774.898 581.474 773.848 581.474H770.698V580.2H773.848C775.71 580.2 776.998 581.334 776.998 583.084C776.998 584.498 776.046 585.464 774.674 585.884L772.994 586.388C772.028 586.682 771.636 587.158 771.636 588.04V588.726H776.914V590H770.222V588.278ZM777.8 590L780.418 586.528L777.94 583.266H779.592L781.3 585.59L782.994 583.266H784.646L782.168 586.528L784.786 590H783.134L781.3 587.536L779.452 590H777.8Z" fill="#0B8900"/>
<path fill-rule="evenodd" clip-rule="evenodd" d="M788 585.625L791.5 580L795 585.625H792.106V590H790.894V585.625H788Z" fill="#0B8900"/>
<rect x="903.398" y="255" width="1" height="264" rx="0.5" fill="#B5B2B0"/>
<rect x="944.398" y="364" width="190.8" height="155" rx="16" fill="#0D0D0D"/>
<path d="M1009.77 487.064C1009.77 482.936 1011.69 481.016 1015.27 479.992L1018.41 479.096C1020.87 478.392 1022.02 477.208 1022.02 475.192C1022.02 472.984 1020.46 471.512 1018.06 471.512H1010.86V468.6H1018.06C1022.31 468.6 1025.26 471.192 1025.26 475.192C1025.26 478.424 1023.08 480.632 1019.94 481.592L1016.1 482.744C1013.9 483.416 1013 484.504 1013 486.52V488.088H1025.06V491H1009.77V487.064ZM1027.88 491V488.088H1034.92C1038.12 488.088 1039.98 486.584 1039.98 484.088C1039.98 481.784 1038.19 480.344 1035.08 480.344H1031.72V477.752L1038.22 471.512H1027.56V468.6H1042.32V471.512L1035.56 477.816H1035.98C1040.4 477.816 1043.21 480.312 1043.21 484.056C1043.21 488.248 1039.88 491 1034.92 491H1027.88ZM1050.8 467.832C1052.38 467.832 1053.58 468.461 1054.39 469.72C1055.2 470.957 1055.6 472.707 1055.6 474.968C1055.6 477.229 1055.21 479 1054.42 480.28C1053.65 481.539 1052.45 482.168 1050.8 482.168C1049.8 482.168 1048.95 481.88 1048.24 481.304C1047.54 480.728 1047.01 479.907 1046.64 478.84C1046.3 477.752 1046.13 476.461 1046.13 474.968C1046.13 472.707 1046.5 470.957 1047.25 469.72C1048 468.461 1049.18 467.832 1050.8 467.832ZM1050.8 469.816C1049.99 469.816 1049.4 470.253 1049.01 471.128C1048.65 471.981 1048.47 473.261 1048.47 474.968C1048.47 476.675 1048.65 477.965 1049.01 478.84C1049.4 479.715 1049.99 480.152 1050.8 480.152C1051.64 480.152 1052.25 479.725 1052.66 478.872C1053.06 477.997 1053.27 476.696 1053.27 474.968C1053.27 473.261 1053.06 471.981 1052.66 471.128C1052.25 470.253 1051.64 469.816 1050.8 469.816ZM1065.43 468.152L1052.76 491H1050.29L1062.96 468.152H1065.43ZM1064.79 476.984C1065.83 476.984 1066.71 477.272 1067.41 477.848C1068.12 478.403 1068.65 479.213 1069.01 480.28C1069.4 481.325 1069.59 482.605 1069.59 484.12C1069.59 486.381 1069.19 488.152 1068.4 489.432C1067.64 490.691 1066.43 491.32 1064.79 491.32C1063.78 491.32 1062.93 491.032 1062.23 490.456C1061.52 489.88 1060.99 489.059 1060.63 487.992C1060.29 486.904 1060.12 485.613 1060.12 484.12C1060.12 481.859 1060.49 480.109 1061.24 478.872C1061.98 477.613 1063.17 476.984 1064.79 476.984ZM1064.79 479C1063.98 479 1063.38 479.427 1063 480.28C1062.63 481.133 1062.45 482.413 1062.45 484.12C1062.45 485.848 1062.63 487.149 1063 488.024C1063.38 488.877 1063.98 489.304 1064.79 489.304C1065.62 489.304 1066.24 488.877 1066.64 488.024C1067.05 487.171 1067.25 485.869 1067.25 484.12C1067.25 482.413 1067.05 481.133 1066.64 480.28C1066.24 479.427 1065.62 479 1064.79 479Z" fill="white"/>
<path d="M973.15 561.28C969.43 561.28 966.87 558.84 966.87 554.02C966.87 549.2 969.33 546.72 973.19 546.72C976.23 546.72 978.31 548.48 978.73 551.48H976.63C976.33 549.64 974.95 548.58 973.19 548.58C970.63 548.58 968.93 550.24 968.93 553.98C968.93 557.68 970.71 559.42 973.15 559.42C975.09 559.42 976.31 558.12 976.63 556.32H978.71C978.23 559.22 976.31 561.28 973.15 561.28ZM985.14 561.28C982.22 561.28 980.18 559.24 980.18 556.18C980.18 553.14 982.22 551.1 985.14 551.1C988.08 551.1 990.1 553.14 990.1 556.18C990.1 559.24 988.08 561.28 985.14 561.28ZM982.18 556.18C982.18 558.18 983.38 559.52 985.14 559.52C986.92 559.52 988.1 558.18 988.1 556.18C988.1 554.2 986.92 552.86 985.14 552.86C983.38 552.86 982.18 554.2 982.18 556.18ZM992.319 561V551.38H994.039V552.64C994.619 551.6 995.779 551.1 997.079 551.1C999.439 551.1 1000.92 552.54 1000.92 555.2V561H998.979V555.38C998.979 553.66 998.139 552.86 996.719 552.86C995.239 552.86 994.259 553.88 994.259 555.44V561H992.319ZM1005.91 561L1001.91 551.38H1004.07L1007.03 558.92L1009.97 551.38H1012.13L1008.11 561H1005.91ZM1017.54 561.28C1014.66 561.28 1012.74 559.26 1012.74 556.14C1012.74 553.04 1014.66 551.1 1017.4 551.1C1020.26 551.1 1022.02 552.96 1022.02 555.9C1022.02 556.16 1022 556.42 1021.96 556.82H1014.66C1014.74 558.58 1015.82 559.64 1017.54 559.64C1018.68 559.64 1019.48 559.12 1019.86 558.26H1021.84C1021.24 560.12 1019.76 561.28 1017.54 561.28ZM1014.66 555.3H1020.06V555.2C1020.06 553.72 1019.1 552.66 1017.4 552.66C1015.78 552.66 1014.74 553.74 1014.66 555.3ZM1024.16 561V551.38H1025.88V552.94C1026.12 551.98 1026.84 551.38 1027.98 551.38H1029.82V553.08H1027.8C1026.6 553.08 1026.1 553.76 1026.1 555.06V561H1024.16ZM1034.63 561.28C1032.03 561.28 1030.49 560.24 1030.39 558.26H1032.39C1032.49 559.22 1033.27 559.7 1034.67 559.7C1035.95 559.7 1036.73 559.16 1036.73 558.28C1036.73 557.56 1036.19 557.14 1035.19 557.04L1033.65 556.88C1031.85 556.7 1030.71 555.7 1030.71 554.1C1030.71 552.26 1032.25 551.1 1034.61 551.1C1037.01 551.1 1038.49 552.1 1038.61 554.06H1036.67C1036.61 553.14 1035.85 552.68 1034.59 552.68C1033.39 552.68 1032.63 553.18 1032.63 554C1032.63 554.7 1033.15 555.08 1034.27 555.22L1035.83 555.4C1037.65 555.6 1038.69 556.62 1038.69 558.2C1038.69 560.08 1037.11 561.28 1034.63 561.28ZM1040.79 561V551.38H1042.73V561H1040.79ZM1040.67 549.44V547.14H1042.83V549.44H1040.67ZM1049.89 561.28C1046.97 561.28 1044.93 559.24 1044.93 556.18C1044.93 553.14 1046.97 551.1 1049.89 551.1C1052.83 551.1 1054.85 553.14 1054.85 556.18C1054.85 559.24 1052.83 561.28 1049.89 561.28ZM1046.93 556.18C1046.93 558.18 1048.13 559.52 1049.89 559.52C1051.67 559.52 1052.85 558.18 1052.85 556.18C1052.85 554.2 1051.67 552.86 1049.89 552.86C1048.13 552.86 1046.93 554.2 1046.93 556.18ZM1057.07 561V551.38H1058.79V552.64C1059.37 551.6 1060.53 551.1 1061.83 551.1C1064.19 551.1 1065.67 552.54 1065.67 555.2V561H1063.73V555.38C1063.73 553.66 1062.89 552.86 1061.47 552.86C1059.99 552.86 1059.01 553.88 1059.01 555.44V561H1057.07ZM1073.53 561V547H1079.53C1082.45 547 1084.17 548.52 1084.17 551.02C1084.17 553.42 1082.61 554.92 1079.95 555.06L1084.57 561H1082.07L1077.47 555.04H1075.53V561H1073.53ZM1075.53 553.22H1079.53C1081.19 553.22 1082.13 552.42 1082.13 551.02C1082.13 549.66 1081.19 548.88 1079.53 548.88H1075.53V553.22ZM1089.29 561.28C1087.07 561.28 1085.67 560.12 1085.67 558.28C1085.67 556.56 1086.83 555.32 1089.19 555.18L1092.11 555.02V554.48C1092.11 553.22 1091.49 552.7 1090.17 552.7C1088.89 552.7 1088.25 553.04 1088.09 554.06H1086.15C1086.37 552.08 1087.73 551.1 1090.31 551.1C1092.61 551.1 1093.95 552.26 1093.95 554.38V559.08C1093.95 559.3 1094.05 559.4 1094.27 559.4H1095.09V561H1093.53C1092.87 561 1092.49 560.64 1092.49 560V559.72C1091.93 560.7 1090.79 561.28 1089.29 561.28ZM1087.61 558.22C1087.61 559.1 1088.33 559.68 1089.51 559.68C1091.07 559.68 1092.11 558.78 1092.11 557.14V556.52L1089.43 556.72C1088.19 556.8 1087.61 557.44 1087.61 558.22ZM1100.24 561C1098.58 561 1097.86 560.34 1097.86 558.68V553.08H1095.34V551.38H1097.86V548.5H1099.8V551.38H1102.82V553.08H1099.8V558.3C1099.8 559 1100.08 559.3 1100.82 559.3H1102.82V561H1100.24ZM1108.63 561.28C1105.75 561.28 1103.83 559.26 1103.83 556.14C1103.83 553.04 1105.75 551.1 1108.49 551.1C1111.35 551.1 1113.11 552.96 1113.11 555.9C1113.11 556.16 1113.09 556.42 1113.05 556.82H1105.75C1105.83 558.58 1106.91 559.64 1108.63 559.64C1109.77 559.64 1110.57 559.12 1110.95 558.26H1112.93C1112.33 560.12 1110.85 561.28 1108.63 561.28ZM1105.75 555.3H1111.15V555.2C1111.15 553.72 1110.19 552.66 1108.49 552.66C1106.87 552.66 1105.83 553.74 1105.75 555.3Z" fill="#0D0D0D"/>
<rect x="1007.3" y="575.5" width="65" height="20" rx="10" stroke="#0B8900"/>
<path d="M1018.1 584.568H1020.89V585.562H1018.1V588.446H1017.09V585.562H1014.31V584.568H1017.09V581.67H1018.1V584.568ZM1022.1 590V588.726H1024.66V581.502H1022.88V580.2H1026.02V588.726H1028.54V590H1022.1ZM1030.16 590V588.082H1031.84V590H1030.16ZM1034.2 588.278C1034.2 586.472 1035.04 585.632 1036.61 585.184L1037.98 584.792C1039.06 584.484 1039.56 583.966 1039.56 583.084C1039.56 582.118 1038.87 581.474 1037.82 581.474H1034.67V580.2H1037.82C1039.69 580.2 1040.97 581.334 1040.97 583.084C1040.97 584.498 1040.02 585.464 1038.65 585.884L1036.97 586.388C1036 586.682 1035.61 587.158 1035.61 588.04V588.726H1040.89V590H1034.2V588.278ZM1042.26 590V588.726H1045.34C1046.74 588.726 1047.56 588.068 1047.56 586.976C1047.56 585.968 1046.77 585.338 1045.41 585.338H1043.94V584.204L1046.79 581.474H1042.12V580.2H1048.58V581.474L1045.62 584.232H1045.81C1047.74 584.232 1048.97 585.324 1048.97 586.962C1048.97 588.796 1047.51 590 1045.34 590H1042.26ZM1049.6 590L1052.21 586.528L1049.74 583.266H1051.39L1053.1 585.59L1054.79 583.266H1056.44L1053.96 586.528L1056.58 590H1054.93L1053.1 587.536L1051.25 590H1049.6Z" fill="#0B8900"/>
<path fill-rule="evenodd" clip-rule="evenodd" d="M1059.8 585.625L1063.3 580L1066.8 585.625H1063.9V590H1062.69V585.625H1059.8Z" fill="#0B8900"/>
<rect x="1175.2" y="255" width="1" height="264" rx="0.5" fill="#B5B2B0"/>
<rect x="1216.2" y="404" width="190.8" height="115" rx="16" fill="#0D0D0D"/>
<path d="M1283.19 491V488.088H1289.04V471.576H1284.98V468.6H1292.15V488.088H1297.91V491H1283.19ZM1302.73 485.848C1302.73 480.824 1303.53 477.528 1307.34 473.88L1309.8 471.512H1297.74V468.6H1314V471.512L1310.06 475.224C1307.05 478.136 1305.96 480.6 1305.96 485.688V491H1302.73V485.848ZM1320.7 467.832C1322.28 467.832 1323.47 468.461 1324.28 469.72C1325.09 470.957 1325.5 472.707 1325.5 474.968C1325.5 477.229 1325.1 479 1324.31 480.28C1323.55 481.539 1322.34 482.168 1320.7 482.168C1319.69 482.168 1318.84 481.88 1318.14 481.304C1317.43 480.728 1316.9 479.907 1316.54 478.84C1316.2 477.752 1316.03 476.461 1316.03 474.968C1316.03 472.707 1316.4 470.957 1317.15 469.72C1317.89 468.461 1319.08 467.832 1320.7 467.832ZM1320.7 469.816C1319.89 469.816 1319.29 470.253 1318.91 471.128C1318.54 471.981 1318.36 473.261 1318.36 474.968C1318.36 476.675 1318.54 477.965 1318.91 478.84C1319.29 479.715 1319.89 480.152 1320.7 480.152C1321.53 480.152 1322.15 479.725 1322.55 478.872C1322.96 477.997 1323.16 476.696 1323.16 474.968C1323.16 473.261 1322.96 471.981 1322.55 471.128C1322.15 470.253 1321.53 469.816 1320.7 469.816ZM1335.32 468.152L1322.65 491H1320.19L1332.86 468.152H1335.32ZM1334.68 476.984C1335.73 476.984 1336.6 477.272 1337.31 477.848C1338.01 478.403 1338.54 479.213 1338.91 480.28C1339.29 481.325 1339.48 482.605 1339.48 484.12C1339.48 486.381 1339.09 488.152 1338.3 489.432C1337.53 490.691 1336.32 491.32 1334.68 491.32C1333.68 491.32 1332.83 491.032 1332.12 490.456C1331.42 489.88 1330.88 489.059 1330.52 487.992C1330.18 486.904 1330.01 485.613 1330.01 484.12C1330.01 481.859 1330.38 480.109 1331.13 478.872C1331.88 477.613 1333.06 476.984 1334.68 476.984ZM1334.68 479C1333.87 479 1333.27 479.427 1332.89 480.28C1332.53 481.133 1332.35 482.413 1332.35 484.12C1332.35 485.848 1332.53 487.149 1332.89 488.024C1333.27 488.877 1333.87 489.304 1334.68 489.304C1335.51 489.304 1336.13 488.877 1336.54 488.024C1336.94 487.171 1337.15 485.869 1337.15 484.12C1337.15 482.413 1336.94 481.133 1336.54 480.28C1336.13 479.427 1335.51 479 1334.68 479Z" fill="white"/>
<path d="M1244.95 561.28C1241.23 561.28 1238.67 558.84 1238.67 554.02C1238.67 549.2 1241.13 546.72 1244.99 546.72C1248.03 546.72 1250.11 548.48 1250.53 551.48H1248.43C1248.13 549.64 1246.75 548.58 1244.99 548.58C1242.43 548.58 1240.73 550.24 1240.73 553.98C1240.73 557.68 1242.51 559.42 1244.95 559.42C1246.89 559.42 1248.11 558.12 1248.43 556.32H1250.51C1250.03 559.22 1248.11 561.28 1244.95 561.28ZM1256.94 561.28C1254.02 561.28 1251.98 559.24 1251.98 556.18C1251.98 553.14 1254.02 551.1 1256.94 551.1C1259.88 551.1 1261.9 553.14 1261.9 556.18C1261.9 559.24 1259.88 561.28 1256.94 561.28ZM1253.98 556.18C1253.98 558.18 1255.18 559.52 1256.94 559.52C1258.72 559.52 1259.9 558.18 1259.9 556.18C1259.9 554.2 1258.72 552.86 1256.94 552.86C1255.18 552.86 1253.98 554.2 1253.98 556.18ZM1264.12 561V551.38H1265.84V552.64C1266.42 551.6 1267.58 551.1 1268.88 551.1C1271.24 551.1 1272.72 552.54 1272.72 555.2V561H1270.78V555.38C1270.78 553.66 1269.94 552.86 1268.52 552.86C1267.04 552.86 1266.06 553.88 1266.06 555.44V561H1264.12ZM1277.71 561L1273.71 551.38H1275.87L1278.83 558.92L1281.77 551.38H1283.93L1279.91 561H1277.71ZM1289.34 561.28C1286.46 561.28 1284.54 559.26 1284.54 556.14C1284.54 553.04 1286.46 551.1 1289.2 551.1C1292.06 551.1 1293.82 552.96 1293.82 555.9C1293.82 556.16 1293.8 556.42 1293.76 556.82H1286.46C1286.54 558.58 1287.62 559.64 1289.34 559.64C1290.48 559.64 1291.28 559.12 1291.66 558.26H1293.64C1293.04 560.12 1291.56 561.28 1289.34 561.28ZM1286.46 555.3H1291.86V555.2C1291.86 553.72 1290.9 552.66 1289.2 552.66C1287.58 552.66 1286.54 553.74 1286.46 555.3ZM1295.96 561V551.38H1297.68V552.94C1297.92 551.98 1298.64 551.38 1299.78 551.38H1301.62V553.08H1299.6C1298.4 553.08 1297.9 553.76 1297.9 555.06V561H1295.96ZM1306.43 561.28C1303.83 561.28 1302.29 560.24 1302.19 558.26H1304.19C1304.29 559.22 1305.07 559.7 1306.47 559.7C1307.75 559.7 1308.53 559.16 1308.53 558.28C1308.53 557.56 1307.99 557.14 1306.99 557.04L1305.45 556.88C1303.65 556.7 1302.51 555.7 1302.51 554.1C1302.51 552.26 1304.05 551.1 1306.41 551.1C1308.81 551.1 1310.29 552.1 1310.41 554.06H1308.47C1308.41 553.14 1307.65 552.68 1306.39 552.68C1305.19 552.68 1304.43 553.18 1304.43 554C1304.43 554.7 1304.95 555.08 1306.07 555.22L1307.63 555.4C1309.45 555.6 1310.49 556.62 1310.49 558.2C1310.49 560.08 1308.91 561.28 1306.43 561.28ZM1312.59 561V551.38H1314.53V561H1312.59ZM1312.47 549.44V547.14H1314.63V549.44H1312.47ZM1321.69 561.28C1318.77 561.28 1316.73 559.24 1316.73 556.18C1316.73 553.14 1318.77 551.1 1321.69 551.1C1324.63 551.1 1326.65 553.14 1326.65 556.18C1326.65 559.24 1324.63 561.28 1321.69 561.28ZM1318.73 556.18C1318.73 558.18 1319.93 559.52 1321.69 559.52C1323.47 559.52 1324.65 558.18 1324.65 556.18C1324.65 554.2 1323.47 552.86 1321.69 552.86C1319.93 552.86 1318.73 554.2 1318.73 556.18ZM1328.87 561V551.38H1330.59V552.64C1331.17 551.6 1332.33 551.1 1333.63 551.1C1335.99 551.1 1337.47 552.54 1337.47 555.2V561H1335.53V555.38C1335.53 553.66 1334.69 552.86 1333.27 552.86C1331.79 552.86 1330.81 553.88 1330.81 555.44V561H1328.87ZM1345.33 561V547H1351.33C1354.25 547 1355.97 548.52 1355.97 551.02C1355.97 553.42 1354.41 554.92 1351.75 555.06L1356.37 561H1353.87L1349.27 555.04H1347.33V561H1345.33ZM1347.33 553.22H1351.33C1352.99 553.22 1353.93 552.42 1353.93 551.02C1353.93 549.66 1352.99 548.88 1351.33 548.88H1347.33V553.22ZM1361.09 561.28C1358.87 561.28 1357.47 560.12 1357.47 558.28C1357.47 556.56 1358.63 555.32 1360.99 555.18L1363.91 555.02V554.48C1363.91 553.22 1363.29 552.7 1361.97 552.7C1360.69 552.7 1360.05 553.04 1359.89 554.06H1357.95C1358.17 552.08 1359.53 551.1 1362.11 551.1C1364.41 551.1 1365.75 552.26 1365.75 554.38V559.08C1365.75 559.3 1365.85 559.4 1366.07 559.4H1366.89V561H1365.33C1364.67 561 1364.29 560.64 1364.29 560V559.72C1363.73 560.7 1362.59 561.28 1361.09 561.28ZM1359.41 558.22C1359.41 559.1 1360.13 559.68 1361.31 559.68C1362.87 559.68 1363.91 558.78 1363.91 557.14V556.52L1361.23 556.72C1359.99 556.8 1359.41 557.44 1359.41 558.22ZM1372.04 561C1370.38 561 1369.66 560.34 1369.66 558.68V553.08H1367.14V551.38H1369.66V548.5H1371.6V551.38H1374.62V553.08H1371.6V558.3C1371.6 559 1371.88 559.3 1372.62 559.3H1374.62V561H1372.04ZM1380.43 561.28C1377.55 561.28 1375.63 559.26 1375.63 556.14C1375.63 553.04 1377.55 551.1 1380.29 551.1C1383.15 551.1 1384.91 552.96 1384.91 555.9C1384.91 556.16 1384.89 556.42 1384.85 556.82H1377.55C1377.63 558.58 1378.71 559.64 1380.43 559.64C1381.57 559.64 1382.37 559.12 1382.75 558.26H1384.73C1384.13 560.12 1382.65 561.28 1380.43 561.28ZM1377.55 555.3H1382.95V555.2C1382.95 553.72 1381.99 552.66 1380.29 552.66C1378.67 552.66 1377.63 553.74 1377.55 555.3Z" fill="#0D0D0D"/>
<rect x="1280.6" y="575.5" width="62" height="20" rx="10" stroke="#0B8900"/>
<path d="M1290.85 584.568H1293.64V585.562H1290.85V588.446H1289.84V585.562H1287.06V584.568H1289.84V581.67H1290.85V584.568ZM1294.84 590V588.726H1297.41V581.502H1295.63V580.2H1298.76V588.726H1301.28V590H1294.84ZM1302.91 590V588.082H1304.59V590H1302.91ZM1306.31 590V588.726H1308.88V581.502H1307.1V580.2H1310.23V588.726H1312.75V590H1306.31ZM1315.01 587.746C1315.01 585.548 1315.36 584.106 1317.02 582.51L1318.1 581.474H1312.82V580.2H1319.93V581.474L1318.21 583.098C1316.9 584.372 1316.42 585.45 1316.42 587.676V590H1315.01V587.746ZM1319.9 590L1322.52 586.528L1320.04 583.266H1321.69L1323.4 585.59L1325.09 583.266H1326.74L1324.27 586.528L1326.88 590H1325.23L1323.4 587.536L1321.55 590H1319.9Z" fill="#0B8900"/>
<path fill-rule="evenodd" clip-rule="evenodd" d="M1330.1 585.625L1333.6 580L1337.1 585.625H1334.2V590H1332.99V585.625H1330.1Z" fill="#0B8900"/>
</g>
<defs>
<clipPath id="clip0_4638_121815">
<rect width="1278" height="432" fill="white" transform="translate(129 164)"/>
</clipPath>
</defs>
</svg>
