<svg width="1536" height="760" viewBox="0 0 1536 760" fill="none" xmlns="http://www.w3.org/2000/svg">
<g clip-path="url(#clip0_3920_20737)">
<path d="M668.545 187.336C664.081 187.336 661.009 184.408 661.009 178.624C661.009 172.84 663.961 169.864 668.593 169.864C672.241 169.864 674.737 171.976 675.241 175.576H672.721C672.361 173.368 670.705 172.096 668.593 172.096C665.521 172.096 663.481 174.088 663.481 178.576C663.481 183.016 665.617 185.104 668.545 185.104C670.873 185.104 672.337 183.544 672.721 181.384H675.217C674.641 184.864 672.337 187.336 668.545 187.336ZM678.084 187V170.2H685.284C688.788 170.2 690.852 172.024 690.852 175.024C690.852 177.904 688.98 179.704 685.788 179.872L691.332 187H688.332L682.812 179.848H680.484V187H678.084ZM680.484 177.664H685.284C687.276 177.664 688.404 176.704 688.404 175.024C688.404 173.392 687.276 172.456 685.284 172.456H680.484V177.664ZM698.881 181.504V179.632H708.961V181.504H698.881ZM723.262 187.336C719.11 187.336 716.614 185.248 716.59 181.864H719.062C719.086 183.904 720.67 185.2 723.262 185.2C725.566 185.2 727.03 184 727.03 182.176C727.03 180.712 726.094 179.824 724.174 179.56L721.966 179.248C718.75 178.816 717.142 177.232 717.142 174.712C717.142 171.76 719.518 169.864 723.142 169.864C726.91 169.864 729.214 171.688 729.286 174.616H726.814C726.742 172.984 725.35 171.976 723.142 171.976C721.03 171.976 719.638 172.984 719.638 174.568C719.638 175.936 720.622 176.704 722.686 176.992L724.774 177.28C727.894 177.712 729.526 179.32 729.526 182.032C729.526 185.248 727.15 187.336 723.262 187.336ZM735.643 187.336C732.979 187.336 731.299 185.944 731.299 183.736C731.299 181.672 732.691 180.184 735.523 180.016L739.027 179.824V179.176C739.027 177.664 738.283 177.04 736.699 177.04C735.163 177.04 734.395 177.448 734.203 178.672H731.875C732.139 176.296 733.771 175.12 736.867 175.12C739.627 175.12 741.235 176.512 741.235 179.056V184.696C741.235 184.96 741.355 185.08 741.619 185.08H742.603V187H740.731C739.939 187 739.483 186.568 739.483 185.8V185.464C738.811 186.64 737.443 187.336 735.643 187.336ZM733.627 183.664C733.627 184.72 734.491 185.416 735.907 185.416C737.779 185.416 739.027 184.336 739.027 182.368V181.624L735.811 181.864C734.323 181.96 733.627 182.728 733.627 183.664ZM747.471 187L742.671 175.456H745.263L748.815 184.504L752.343 175.456H754.935L750.111 187H747.471ZM756.764 187V175.456H759.092V187H756.764ZM756.62 173.128V170.368H759.212V173.128H756.62ZM762.477 187V175.456H764.541V176.968C765.237 175.72 766.629 175.12 768.189 175.12C771.021 175.12 772.797 176.848 772.797 180.04V187H770.469V180.256C770.469 178.192 769.461 177.232 767.757 177.232C765.981 177.232 764.805 178.456 764.805 180.328V187H762.477ZM778.538 191.32C775.97 191.32 774.818 190.12 774.818 188.44C774.818 187.456 775.346 186.568 776.33 186.088C775.682 185.656 775.274 184.96 775.274 184.216C775.274 183.184 775.922 182.344 777.266 182.008C776.186 181.288 775.73 180.16 775.73 179.08C775.73 176.824 777.458 175.12 780.338 175.12C782.186 175.12 783.674 176.056 784.154 177.256V176.896C784.154 175.744 784.778 175.456 785.594 175.456H787.298V177.496H785.45C785.09 177.496 784.946 177.64 784.946 178V179.224C784.946 181.624 783.074 183.184 780.458 183.184H778.466C777.794 183.184 777.338 183.496 777.338 184.12C777.338 184.744 777.866 185.056 778.466 185.056H782.666C784.874 185.056 786.29 186.112 786.29 188.008C786.29 189.904 785.162 191.32 782.522 191.32H778.538ZM777.05 188.224C777.05 188.968 777.53 189.544 778.802 189.544H782.378C783.29 189.544 784.058 189.112 784.058 188.08C784.058 187.288 783.434 186.832 782.498 186.832H778.874C777.578 186.832 777.05 187.48 777.05 188.224ZM777.962 179.152C777.962 180.496 778.85 181.36 780.338 181.36C781.85 181.36 782.714 180.496 782.714 179.152C782.714 177.808 781.826 176.944 780.338 176.944C778.826 176.944 777.962 177.808 777.962 179.152ZM798.445 187.336C795.781 187.336 794.101 185.944 794.101 183.736C794.101 181.672 795.493 180.184 798.325 180.016L801.829 179.824V179.176C801.829 177.664 801.085 177.04 799.501 177.04C797.965 177.04 797.197 177.448 797.005 178.672H794.677C794.941 176.296 796.573 175.12 799.669 175.12C802.429 175.12 804.037 176.512 804.037 179.056V184.696C804.037 184.96 804.157 185.08 804.421 185.08H805.405V187H803.533C802.741 187 802.285 186.568 802.285 185.8V185.464C801.613 186.64 800.245 187.336 798.445 187.336ZM796.429 183.664C796.429 184.72 797.293 185.416 798.709 185.416C800.581 185.416 801.829 184.336 801.829 182.368V181.624L798.613 181.864C797.125 181.96 796.429 182.728 796.429 183.664ZM813.496 191.32V175.456H815.56V177.088C816.304 175.84 817.768 175.12 819.568 175.12C822.856 175.12 825.112 177.568 825.112 181.216C825.112 184.888 822.856 187.336 819.568 187.336C817.912 187.336 816.568 186.712 815.824 185.584V191.32H813.496ZM815.776 181.216C815.776 183.616 817.144 185.224 819.232 185.224C821.32 185.224 822.712 183.616 822.712 181.216C822.712 178.84 821.32 177.232 819.232 177.232C817.144 177.232 815.776 178.84 815.776 181.216ZM827.811 187V170.2H830.139V176.584C830.907 175.6 832.131 175.12 833.523 175.12C836.355 175.12 838.131 176.848 838.131 180.04V187H835.803V180.256C835.803 178.192 834.795 177.232 833.091 177.232C831.315 177.232 830.139 178.456 830.139 180.328V187H827.811ZM846.559 187.336C843.055 187.336 840.607 184.888 840.607 181.216C840.607 177.568 843.055 175.12 846.559 175.12C850.087 175.12 852.511 177.568 852.511 181.216C852.511 184.888 850.087 187.336 846.559 187.336ZM843.007 181.216C843.007 183.616 844.447 185.224 846.559 185.224C848.695 185.224 850.111 183.616 850.111 181.216C850.111 178.84 848.695 177.232 846.559 177.232C844.447 177.232 843.007 178.84 843.007 181.216ZM859.14 187C857.148 187 856.284 186.208 856.284 184.216V177.496H853.26V175.456H856.284V172H858.612V175.456H862.236V177.496H858.612V183.76C858.612 184.6 858.948 184.96 859.836 184.96H862.236V187H859.14ZM869.352 187.336C865.848 187.336 863.4 184.888 863.4 181.216C863.4 177.568 865.848 175.12 869.352 175.12C872.88 175.12 875.304 177.568 875.304 181.216C875.304 184.888 872.88 187.336 869.352 187.336ZM865.8 181.216C865.8 183.616 867.24 185.224 869.352 185.224C871.488 185.224 872.904 183.616 872.904 181.216C872.904 178.84 871.488 177.232 869.352 177.232C867.24 177.232 865.8 178.84 865.8 181.216Z" fill="#0D0D0D"/>
<rect x="129" y="285" width="101.8" height="234" rx="16" fill="#0D0D0D" fill-opacity="0.08"/>
<rect x="129.5" y="285.5" width="100.8" height="233" rx="15.5" stroke="#0D0D0D" stroke-opacity="0.08"/>
<path d="M153.98 485.848C153.98 480.824 154.78 477.528 158.588 473.88L161.052 471.512H148.988V468.6H165.244V471.512L161.308 475.224C158.3 478.136 157.212 480.6 157.212 485.688V491H153.98V485.848ZM175.112 468.152C180.136 468.152 183.656 471.576 183.656 478.488C183.656 486.168 180.68 491 173.16 491H168.872V488.088H173.16C178.344 488.088 180.232 485.464 180.488 480.536C179.496 482.104 177.448 483.224 174.632 483.224C170.12 483.224 166.952 480.088 166.952 475.768C166.952 471.384 170.28 468.152 175.112 468.152ZM170.184 475.672C170.184 478.456 172.264 480.376 175.208 480.376C178.152 480.376 180.2 478.488 180.2 475.672C180.2 472.888 178.152 470.968 175.208 470.968C172.264 470.968 170.184 472.888 170.184 475.672ZM191.281 467.832C192.86 467.832 194.054 468.461 194.865 469.72C195.676 470.957 196.081 472.707 196.081 474.968C196.081 477.229 195.686 479 194.897 480.28C194.129 481.539 192.924 482.168 191.281 482.168C190.278 482.168 189.425 481.88 188.721 481.304C188.017 480.728 187.484 479.907 187.121 478.84C186.78 477.752 186.609 476.461 186.609 474.968C186.609 472.707 186.982 470.957 187.729 469.72C188.476 468.461 189.66 467.832 191.281 467.832ZM191.281 469.816C190.47 469.816 189.873 470.253 189.489 471.128C189.126 471.981 188.945 473.261 188.945 474.968C188.945 476.675 189.126 477.965 189.489 478.84C189.873 479.715 190.47 480.152 191.281 480.152C192.113 480.152 192.732 479.725 193.137 478.872C193.542 477.997 193.745 476.696 193.745 474.968C193.745 473.261 193.542 471.981 193.137 471.128C192.732 470.253 192.113 469.816 191.281 469.816ZM205.905 468.152L193.233 491H190.769L203.441 468.152H205.905ZM205.265 476.984C206.31 476.984 207.185 477.272 207.889 477.848C208.593 478.403 209.126 479.213 209.489 480.28C209.873 481.325 210.065 482.605 210.065 484.12C210.065 486.381 209.67 488.152 208.881 489.432C208.113 490.691 206.908 491.32 205.265 491.32C204.262 491.32 203.409 491.032 202.705 490.456C202.001 489.88 201.468 489.059 201.105 487.992C200.764 486.904 200.593 485.613 200.593 484.12C200.593 481.859 200.966 480.109 201.713 478.872C202.46 477.613 203.644 476.984 205.265 476.984ZM205.265 479C204.454 479 203.857 479.427 203.473 480.28C203.11 481.133 202.929 482.413 202.929 484.12C202.929 485.848 203.11 487.149 203.473 488.024C203.857 488.877 204.454 489.304 205.265 489.304C206.097 489.304 206.716 488.877 207.121 488.024C207.526 487.171 207.729 485.869 207.729 484.12C207.729 482.413 207.526 481.133 207.121 480.28C206.716 479.427 206.097 479 205.265 479Z" fill="#0D0D0D"/>
<rect x="250.8" y="255" width="101.8" height="264" rx="16" fill="#0D0D0D"/>
<path d="M278.376 491.448C272.968 491.448 269.864 488.632 269.864 484.664C269.864 482.072 271.496 479.896 273.992 479.096C271.752 478.328 270.504 476.344 270.504 474.2C270.504 470.648 273.608 468.152 278.376 468.152C283.176 468.152 286.28 470.648 286.28 474.2C286.28 476.344 285.032 478.328 282.792 479.096C285.288 479.896 286.92 482.072 286.92 484.664C286.92 488.632 283.816 491.448 278.376 491.448ZM273.064 484.568C273.064 487 274.952 488.76 278.376 488.76C281.832 488.76 283.72 487 283.72 484.568C283.72 482.104 281.704 480.472 278.376 480.472C275.08 480.472 273.064 482.104 273.064 484.568ZM273.704 474.392C273.704 476.472 275.496 477.848 278.376 477.848C281.256 477.848 283.08 476.472 283.08 474.392C283.08 472.312 281.352 470.84 278.376 470.84C275.432 470.84 273.704 472.312 273.704 474.392ZM297.912 468.152C302.936 468.152 306.456 471.576 306.456 478.488C306.456 486.168 303.48 491 295.96 491H291.672V488.088H295.96C301.144 488.088 303.032 485.464 303.288 480.536C302.296 482.104 300.248 483.224 297.432 483.224C292.92 483.224 289.752 480.088 289.752 475.768C289.752 471.384 293.08 468.152 297.912 468.152ZM292.984 475.672C292.984 478.456 295.064 480.376 298.008 480.376C300.952 480.376 303 478.488 303 475.672C303 472.888 300.952 470.968 298.008 470.968C295.064 470.968 292.984 472.888 292.984 475.672ZM314.081 467.832C315.66 467.832 316.855 468.461 317.665 469.72C318.476 470.957 318.881 472.707 318.881 474.968C318.881 477.229 318.487 479 317.697 480.28C316.929 481.539 315.724 482.168 314.081 482.168C313.079 482.168 312.225 481.88 311.521 481.304C310.817 480.728 310.284 479.907 309.921 478.84C309.58 477.752 309.409 476.461 309.409 474.968C309.409 472.707 309.783 470.957 310.529 469.72C311.276 468.461 312.46 467.832 314.081 467.832ZM314.081 469.816C313.271 469.816 312.673 470.253 312.289 471.128C311.927 471.981 311.745 473.261 311.745 474.968C311.745 476.675 311.927 477.965 312.289 478.84C312.673 479.715 313.271 480.152 314.081 480.152C314.913 480.152 315.532 479.725 315.937 478.872C316.343 477.997 316.545 476.696 316.545 474.968C316.545 473.261 316.343 471.981 315.937 471.128C315.532 470.253 314.913 469.816 314.081 469.816ZM328.705 468.152L316.033 491H313.569L326.241 468.152H328.705ZM328.065 476.984C329.111 476.984 329.985 477.272 330.689 477.848C331.393 478.403 331.927 479.213 332.289 480.28C332.673 481.325 332.865 482.605 332.865 484.12C332.865 486.381 332.471 488.152 331.681 489.432C330.913 490.691 329.708 491.32 328.065 491.32C327.063 491.32 326.209 491.032 325.505 490.456C324.801 489.88 324.268 489.059 323.905 487.992C323.564 486.904 323.393 485.613 323.393 484.12C323.393 481.859 323.767 480.109 324.513 478.872C325.26 477.613 326.444 476.984 328.065 476.984ZM328.065 479C327.255 479 326.657 479.427 326.273 480.28C325.911 481.133 325.729 482.413 325.729 484.12C325.729 485.848 325.911 487.149 326.273 488.024C326.657 488.877 327.255 489.304 328.065 489.304C328.897 489.304 329.516 488.877 329.921 488.024C330.327 487.171 330.529 485.869 330.529 484.12C330.529 482.413 330.327 481.133 329.921 480.28C329.516 479.427 328.897 479 328.065 479Z" fill="white"/>
<path d="M176.542 561L181.882 547H184.582L189.922 561H187.722L186.222 556.92H180.222L178.722 561H176.542ZM180.882 555.1H185.562L183.222 548.74L180.882 555.1ZM191.624 564.6V551.38H193.344V552.74C193.964 551.7 195.184 551.1 196.684 551.1C199.424 551.1 201.304 553.14 201.304 556.18C201.304 559.24 199.424 561.28 196.684 561.28C195.304 561.28 194.184 560.76 193.564 559.82V564.6H191.624ZM193.524 556.18C193.524 558.18 194.664 559.52 196.404 559.52C198.144 559.52 199.304 558.18 199.304 556.18C199.304 554.2 198.144 552.86 196.404 552.86C194.664 552.86 193.524 554.2 193.524 556.18ZM203.553 564.6V551.38H205.273V552.74C205.893 551.7 207.113 551.1 208.613 551.1C211.353 551.1 213.233 553.14 213.233 556.18C213.233 559.24 211.353 561.28 208.613 561.28C207.233 561.28 206.113 560.76 205.493 559.82V564.6H203.553ZM205.453 556.18C205.453 558.18 206.593 559.52 208.333 559.52C210.073 559.52 211.233 558.18 211.233 556.18C211.233 554.2 210.073 552.86 208.333 552.86C206.593 552.86 205.453 554.2 205.453 556.18ZM217.402 561C216.042 561 215.462 560.48 215.462 559.18V547H217.402V558.58C217.402 559.08 217.582 559.3 218.082 559.3H219.302V561H217.402ZM219.614 564.6V562.86H221.334C221.994 562.86 222.294 562.66 222.514 562.16L223.354 560.34L219.314 551.38H221.534L224.374 558.16L227.214 551.38H229.394L224.114 563.12C223.674 564.12 223.114 564.6 221.774 564.6H219.614ZM230.883 561V551.38H232.823V561H230.883ZM230.763 549.44V547.14H232.923V549.44H230.763ZM235.644 561V551.38H237.364V552.64C237.944 551.6 239.104 551.1 240.404 551.1C242.764 551.1 244.244 552.54 244.244 555.2V561H242.304V555.38C242.304 553.66 241.464 552.86 240.044 552.86C238.564 552.86 237.584 553.88 237.584 555.44V561H235.644ZM249.027 564.6C246.887 564.6 245.927 563.6 245.927 562.2C245.927 561.38 246.367 560.64 247.187 560.24C246.647 559.88 246.307 559.3 246.307 558.68C246.307 557.82 246.847 557.12 247.967 556.84C247.067 556.24 246.687 555.3 246.687 554.4C246.687 552.52 248.127 551.1 250.527 551.1C252.067 551.1 253.307 551.88 253.707 552.88V552.58C253.707 551.62 254.227 551.38 254.907 551.38H256.327V553.08H254.787C254.487 553.08 254.367 553.2 254.367 553.5V554.52C254.367 556.52 252.807 557.82 250.627 557.82H248.967C248.407 557.82 248.027 558.08 248.027 558.6C248.027 559.12 248.467 559.38 248.967 559.38H252.467C254.307 559.38 255.487 560.26 255.487 561.84C255.487 563.42 254.547 564.6 252.347 564.6H249.027ZM247.787 562.02C247.787 562.64 248.187 563.12 249.247 563.12H252.227C252.987 563.12 253.627 562.76 253.627 561.9C253.627 561.24 253.107 560.86 252.327 560.86H249.307C248.227 560.86 247.787 561.4 247.787 562.02ZM248.547 554.46C248.547 555.58 249.287 556.3 250.527 556.3C251.787 556.3 252.507 555.58 252.507 554.46C252.507 553.34 251.767 552.62 250.527 552.62C249.267 552.62 248.547 553.34 248.547 554.46ZM266.177 561.28C263.577 561.28 262.037 560.24 261.937 558.26H263.937C264.037 559.22 264.817 559.7 266.217 559.7C267.497 559.7 268.277 559.16 268.277 558.28C268.277 557.56 267.737 557.14 266.737 557.04L265.197 556.88C263.397 556.7 262.257 555.7 262.257 554.1C262.257 552.26 263.797 551.1 266.157 551.1C268.557 551.1 270.037 552.1 270.157 554.06H268.217C268.157 553.14 267.397 552.68 266.137 552.68C264.937 552.68 264.177 553.18 264.177 554C264.177 554.7 264.697 555.08 265.817 555.22L267.377 555.4C269.197 555.6 270.237 556.62 270.237 558.2C270.237 560.08 268.657 561.28 266.177 561.28ZM275.844 561C274.184 561 273.464 560.34 273.464 558.68V553.08H270.944V551.38H273.464V548.5H275.404V551.38H278.424V553.08H275.404V558.3C275.404 559 275.684 559.3 276.424 559.3H278.424V561H275.844ZM279.327 564.6V562.86H281.047C281.707 562.86 282.007 562.66 282.227 562.16L283.067 560.34L279.027 551.38H281.247L284.087 558.16L286.927 551.38H289.107L283.827 563.12C283.387 564.12 282.827 564.6 281.487 564.6H279.327ZM292.536 561C291.176 561 290.596 560.48 290.596 559.18V547H292.536V558.58C292.536 559.08 292.716 559.3 293.216 559.3H294.436V561H292.536ZM300.161 561.28C297.281 561.28 295.361 559.26 295.361 556.14C295.361 553.04 297.281 551.1 300.021 551.1C302.881 551.1 304.641 552.96 304.641 555.9C304.641 556.16 304.621 556.42 304.581 556.82H297.281C297.361 558.58 298.441 559.64 300.161 559.64C301.301 559.64 302.101 559.12 302.481 558.26H304.461C303.861 560.12 302.381 561.28 300.161 561.28ZM297.281 555.3H302.681V555.2C302.681 553.72 301.721 552.66 300.021 552.66C298.401 552.66 297.361 553.74 297.281 555.3Z" fill="#0D0D0D"/>
<rect x="208.8" y="575.5" width="64" height="20" rx="10" stroke="#0B8900"/>
<path d="M219.562 584.568H222.348V585.562H219.562V588.446H218.554V585.562H215.768V584.568H218.554V581.67H219.562V584.568ZM223.555 590V588.726H226.117V581.502H224.339V580.2H227.475V588.726H229.995V590H223.555ZM231.623 590V588.082H233.303V590H231.623ZM235.026 590V588.726H237.588V581.502H235.81V580.2H238.946V588.726H241.466V590H235.026ZM242.522 588.278C242.522 586.472 243.362 585.632 244.93 585.184L246.302 584.792C247.38 584.484 247.884 583.966 247.884 583.084C247.884 582.118 247.198 581.474 246.148 581.474H242.998V580.2H246.148C248.01 580.2 249.298 581.334 249.298 583.084C249.298 584.498 248.346 585.464 246.974 585.884L245.294 586.388C244.328 586.682 243.936 587.158 243.936 588.04V588.726H249.214V590H242.522V588.278ZM250.1 590L252.718 586.528L250.24 583.266H251.892L253.6 585.59L255.294 583.266H256.946L254.468 586.528L257.086 590H255.434L253.6 587.536L251.752 590H250.1Z" fill="#0B8900"/>
<path fill-rule="evenodd" clip-rule="evenodd" d="M260.3 585.625L263.8 580L267.3 585.625H264.406V590H263.194V585.625H260.3Z" fill="#0B8900"/>
<rect x="392.6" y="463" width="101.8" height="56" rx="16" fill="#0D0D0D" fill-opacity="0.08"/>
<rect x="393.1" y="463.5" width="100.8" height="55" rx="15.5" stroke="#0D0D0D" stroke-opacity="0.08"/>
<path d="M413.588 491V488.088H419.444V471.576H415.38V468.6H422.548V488.088H428.308V491H413.588ZM437.9 468.152C442.924 468.152 446.444 471.576 446.444 478.488C446.444 486.168 443.468 491 435.948 491H431.66V488.088H435.948C441.132 488.088 443.02 485.464 443.276 480.536C442.284 482.104 440.236 483.224 437.42 483.224C432.908 483.224 429.74 480.088 429.74 475.768C429.74 471.384 433.068 468.152 437.9 468.152ZM432.972 475.672C432.972 478.456 435.052 480.376 437.996 480.376C440.94 480.376 442.988 478.488 442.988 475.672C442.988 472.888 440.94 470.968 437.996 470.968C435.052 470.968 432.972 472.888 432.972 475.672ZM454.069 467.832C455.647 467.832 456.842 468.461 457.653 469.72C458.463 470.957 458.869 472.707 458.869 474.968C458.869 477.229 458.474 479 457.685 480.28C456.917 481.539 455.711 482.168 454.069 482.168C453.066 482.168 452.213 481.88 451.509 481.304C450.805 480.728 450.271 479.907 449.909 478.84C449.567 477.752 449.397 476.461 449.397 474.968C449.397 472.707 449.77 470.957 450.517 469.72C451.263 468.461 452.447 467.832 454.069 467.832ZM454.069 469.816C453.258 469.816 452.661 470.253 452.277 471.128C451.914 471.981 451.733 473.261 451.733 474.968C451.733 476.675 451.914 477.965 452.277 478.84C452.661 479.715 453.258 480.152 454.069 480.152C454.901 480.152 455.519 479.725 455.925 478.872C456.33 477.997 456.533 476.696 456.533 474.968C456.533 473.261 456.33 471.981 455.925 471.128C455.519 470.253 454.901 469.816 454.069 469.816ZM468.693 468.152L456.021 491H453.557L466.229 468.152H468.693ZM468.053 476.984C469.098 476.984 469.973 477.272 470.677 477.848C471.381 478.403 471.914 479.213 472.277 480.28C472.661 481.325 472.853 482.605 472.853 484.12C472.853 486.381 472.458 488.152 471.669 489.432C470.901 490.691 469.695 491.32 468.053 491.32C467.05 491.32 466.197 491.032 465.493 490.456C464.789 489.88 464.255 489.059 463.893 487.992C463.551 486.904 463.381 485.613 463.381 484.12C463.381 481.859 463.754 480.109 464.501 478.872C465.247 477.613 466.431 476.984 468.053 476.984ZM468.053 479C467.242 479 466.645 479.427 466.261 480.28C465.898 481.133 465.717 482.413 465.717 484.12C465.717 485.848 465.898 487.149 466.261 488.024C466.645 488.877 467.242 489.304 468.053 489.304C468.885 489.304 469.503 488.877 469.909 488.024C470.314 487.171 470.517 485.869 470.517 484.12C470.517 482.413 470.314 481.133 469.909 480.28C469.503 479.427 468.885 479 468.053 479Z" fill="#0D0D0D"/>
<rect x="514.4" y="395" width="101.8" height="124" rx="16" fill="#0D0D0D"/>
<path d="M545.664 491V484.344H533.664V481.528L544.448 468.6H548.768V481.528H552.448V484.344H548.768V491H545.664ZM537.12 481.528H545.664V471.288L537.12 481.528ZM554.421 487.064C554.421 482.936 556.341 481.016 559.925 479.992L563.061 479.096C565.525 478.392 566.677 477.208 566.677 475.192C566.677 472.984 565.109 471.512 562.709 471.512H555.509V468.6H562.709C566.965 468.6 569.909 471.192 569.909 475.192C569.909 478.424 567.733 480.632 564.597 481.592L560.757 482.744C558.549 483.416 557.653 484.504 557.653 486.52V488.088H569.717V491H554.421V487.064ZM577.181 467.832C578.76 467.832 579.955 468.461 580.765 469.72C581.576 470.957 581.981 472.707 581.981 474.968C581.981 477.229 581.587 479 580.797 480.28C580.029 481.539 578.824 482.168 577.181 482.168C576.179 482.168 575.325 481.88 574.621 481.304C573.917 480.728 573.384 479.907 573.021 478.84C572.68 477.752 572.509 476.461 572.509 474.968C572.509 472.707 572.883 470.957 573.629 469.72C574.376 468.461 575.56 467.832 577.181 467.832ZM577.181 469.816C576.371 469.816 575.773 470.253 575.389 471.128C575.027 471.981 574.845 473.261 574.845 474.968C574.845 476.675 575.027 477.965 575.389 478.84C575.773 479.715 576.371 480.152 577.181 480.152C578.013 480.152 578.632 479.725 579.037 478.872C579.443 477.997 579.645 476.696 579.645 474.968C579.645 473.261 579.443 471.981 579.037 471.128C578.632 470.253 578.013 469.816 577.181 469.816ZM591.805 468.152L579.133 491H576.669L589.341 468.152H591.805ZM591.165 476.984C592.211 476.984 593.085 477.272 593.789 477.848C594.493 478.403 595.027 479.213 595.389 480.28C595.773 481.325 595.965 482.605 595.965 484.12C595.965 486.381 595.571 488.152 594.781 489.432C594.013 490.691 592.808 491.32 591.165 491.32C590.163 491.32 589.309 491.032 588.605 490.456C587.901 489.88 587.368 489.059 587.005 487.992C586.664 486.904 586.493 485.613 586.493 484.12C586.493 481.859 586.867 480.109 587.613 478.872C588.36 477.613 589.544 476.984 591.165 476.984ZM591.165 479C590.355 479 589.757 479.427 589.373 480.28C589.011 481.133 588.829 482.413 588.829 484.12C588.829 485.848 589.011 487.149 589.373 488.024C589.757 488.877 590.355 489.304 591.165 489.304C591.997 489.304 592.616 488.877 593.021 488.024C593.427 487.171 593.629 485.869 593.629 484.12C593.629 482.413 593.427 481.133 593.021 480.28C592.616 479.427 591.997 479 591.165 479Z" fill="white"/>
<path d="M415.774 561.28C412.454 561.28 410.454 559.2 410.454 555.74V547H412.454V555.62C412.454 558.06 413.674 559.4 415.774 559.4C417.874 559.4 419.094 558.06 419.094 555.62V547H421.114V555.74C421.114 559.2 419.114 561.28 415.774 561.28ZM427.362 561.28C424.762 561.28 423.222 560.24 423.122 558.26H425.122C425.222 559.22 426.002 559.7 427.402 559.7C428.682 559.7 429.462 559.16 429.462 558.28C429.462 557.56 428.922 557.14 427.922 557.04L426.382 556.88C424.582 556.7 423.442 555.7 423.442 554.1C423.442 552.26 424.982 551.1 427.342 551.1C429.742 551.1 431.222 552.1 431.342 554.06H429.402C429.342 553.14 428.582 552.68 427.322 552.68C426.122 552.68 425.362 553.18 425.362 554C425.362 554.7 425.882 555.08 427.002 555.22L428.562 555.4C430.382 555.6 431.422 556.62 431.422 558.2C431.422 560.08 429.842 561.28 427.362 561.28ZM437.747 561.28C434.867 561.28 432.947 559.26 432.947 556.14C432.947 553.04 434.867 551.1 437.607 551.1C440.467 551.1 442.227 552.96 442.227 555.9C442.227 556.16 442.207 556.42 442.167 556.82H434.867C434.947 558.58 436.027 559.64 437.747 559.64C438.887 559.64 439.687 559.12 440.067 558.26H442.047C441.447 560.12 439.967 561.28 437.747 561.28ZM434.867 555.3H440.267V555.2C440.267 553.72 439.307 552.66 437.607 552.66C435.987 552.66 434.947 553.74 434.867 555.3ZM453.562 561.28C450.642 561.28 448.602 559.24 448.602 556.18C448.602 553.14 450.642 551.1 453.562 551.1C456.502 551.1 458.522 553.14 458.522 556.18C458.522 559.24 456.502 561.28 453.562 561.28ZM450.602 556.18C450.602 558.18 451.802 559.52 453.562 559.52C455.342 559.52 456.522 558.18 456.522 556.18C456.522 554.2 455.342 552.86 453.562 552.86C451.802 552.86 450.602 554.2 450.602 556.18ZM461.668 549.62C461.668 547.94 462.648 547 464.308 547H467.428V548.7H464.708C464.008 548.7 463.588 549.06 463.588 549.82V551.38H466.828V553.08H463.588V561H461.668V553.08H459.128V551.38H461.668V549.62ZM473.486 564.6V551.38H475.206V552.74C475.826 551.7 477.046 551.1 478.546 551.1C481.286 551.1 483.166 553.14 483.166 556.18C483.166 559.24 481.286 561.28 478.546 561.28C477.166 561.28 476.046 560.76 475.426 559.82V564.6H473.486ZM475.386 556.18C475.386 558.18 476.526 559.52 478.266 559.52C480.006 559.52 481.166 558.18 481.166 556.18C481.166 554.2 480.006 552.86 478.266 552.86C476.526 552.86 475.386 554.2 475.386 556.18ZM489.735 561.28C486.815 561.28 484.775 559.24 484.775 556.18C484.775 553.14 486.815 551.1 489.735 551.1C492.675 551.1 494.695 553.14 494.695 556.18C494.695 559.24 492.675 561.28 489.735 561.28ZM486.775 556.18C486.775 558.18 487.975 559.52 489.735 559.52C491.515 559.52 492.695 558.18 492.695 556.18C492.695 554.2 491.515 552.86 489.735 552.86C487.975 552.86 486.775 554.2 486.775 556.18ZM496.914 561V551.38H498.634V552.94C498.874 551.98 499.594 551.38 500.734 551.38H502.574V553.08H500.554C499.354 553.08 498.854 553.76 498.854 555.06V561H496.914ZM508.3 561C506.64 561 505.92 560.34 505.92 558.68V553.08H503.4V551.38H505.92V548.5H507.86V551.38H510.88V553.08H507.86V558.3C507.86 559 508.14 559.3 508.88 559.3H510.88V561H508.3ZM512.745 561V551.38H514.465V552.94C514.705 551.98 515.425 551.38 516.565 551.38H518.405V553.08H516.385C515.185 553.08 514.685 553.76 514.685 555.06V561H512.745ZM522.473 561.28C520.253 561.28 518.853 560.12 518.853 558.28C518.853 556.56 520.013 555.32 522.373 555.18L525.293 555.02V554.48C525.293 553.22 524.673 552.7 523.353 552.7C522.073 552.7 521.433 553.04 521.273 554.06H519.333C519.553 552.08 520.913 551.1 523.493 551.1C525.793 551.1 527.133 552.26 527.133 554.38V559.08C527.133 559.3 527.233 559.4 527.453 559.4H528.273V561H526.713C526.053 561 525.673 560.64 525.673 560V559.72C525.113 560.7 523.973 561.28 522.473 561.28ZM520.793 558.22C520.793 559.1 521.513 559.68 522.693 559.68C524.253 559.68 525.293 558.78 525.293 557.14V556.52L522.613 556.72C521.373 556.8 520.793 557.44 520.793 558.22ZM530.118 561V551.38H532.058V561H530.118ZM529.998 549.44V547.14H532.158V549.44H529.998ZM538.496 561C536.836 561 536.116 560.34 536.116 558.68V553.08H533.596V551.38H536.116V548.5H538.056V551.38H541.076V553.08H538.056V558.3C538.056 559 538.336 559.3 539.076 559.3H541.076V561H538.496ZM551.218 561.28C548.618 561.28 547.078 560.24 546.978 558.26H548.978C549.078 559.22 549.858 559.7 551.258 559.7C552.538 559.7 553.318 559.16 553.318 558.28C553.318 557.56 552.778 557.14 551.778 557.04L550.238 556.88C548.438 556.7 547.298 555.7 547.298 554.1C547.298 552.26 548.838 551.1 551.198 551.1C553.598 551.1 555.078 552.1 555.198 554.06H553.258C553.198 553.14 552.438 552.68 551.178 552.68C549.978 552.68 549.218 553.18 549.218 554C549.218 554.7 549.738 555.08 550.858 555.22L552.418 555.4C554.238 555.6 555.278 556.62 555.278 558.2C555.278 560.08 553.698 561.28 551.218 561.28ZM560.885 561C559.225 561 558.505 560.34 558.505 558.68V553.08H555.985V551.38H558.505V548.5H560.445V551.38H563.465V553.08H560.445V558.3C560.445 559 560.725 559.3 561.465 559.3H563.465V561H560.885ZM564.368 564.6V562.86H566.088C566.748 562.86 567.048 562.66 567.268 562.16L568.108 560.34L564.068 551.38H566.288L569.128 558.16L571.968 551.38H574.148L568.868 563.12C568.428 564.12 567.868 564.6 566.528 564.6H564.368ZM577.577 561C576.217 561 575.637 560.48 575.637 559.18V547H577.577V558.58C577.577 559.08 577.757 559.3 578.257 559.3H579.477V561H577.577ZM585.202 561.28C582.322 561.28 580.402 559.26 580.402 556.14C580.402 553.04 582.322 551.1 585.062 551.1C587.922 551.1 589.682 552.96 589.682 555.9C589.682 556.16 589.662 556.42 589.622 556.82H582.322C582.402 558.58 583.482 559.64 585.202 559.64C586.342 559.64 587.142 559.12 587.522 558.26H589.502C588.902 560.12 587.422 561.28 585.202 561.28ZM582.322 555.3H587.722V555.2C587.722 553.72 586.762 552.66 585.062 552.66C583.442 552.66 582.402 553.74 582.322 555.3ZM595.159 561.28C592.559 561.28 591.019 560.24 590.919 558.26H592.919C593.019 559.22 593.799 559.7 595.199 559.7C596.479 559.7 597.259 559.16 597.259 558.28C597.259 557.56 596.719 557.14 595.719 557.04L594.179 556.88C592.379 556.7 591.239 555.7 591.239 554.1C591.239 552.26 592.779 551.1 595.139 551.1C597.539 551.1 599.019 552.1 599.139 554.06H597.199C597.139 553.14 596.379 552.68 595.119 552.68C593.919 552.68 593.159 553.18 593.159 554C593.159 554.7 593.679 555.08 594.799 555.22L596.359 555.4C598.179 555.6 599.219 556.62 599.219 558.2C599.219 560.08 597.639 561.28 595.159 561.28Z" fill="#0D0D0D"/>
<rect x="471.9" y="575.5" width="65" height="20" rx="10" stroke="#0B8900"/>
<path d="M482.623 584.568H485.409V585.562H482.623V588.446H481.615V585.562H478.829V584.568H481.615V581.67H482.623V584.568ZM486.784 588.278C486.784 586.472 487.624 585.632 489.192 585.184L490.564 584.792C491.642 584.484 492.146 583.966 492.146 583.084C492.146 582.118 491.46 581.474 490.41 581.474H487.26V580.2H490.41C492.272 580.2 493.56 581.334 493.56 583.084C493.56 584.498 492.608 585.464 491.236 585.884L489.556 586.388C488.59 586.682 488.198 587.158 488.198 588.04V588.726H493.476V590H486.784V588.278ZM495.312 590V588.082H496.992V590H495.312ZM499.349 588.278C499.349 586.472 500.189 585.632 501.757 585.184L503.129 584.792C504.207 584.484 504.711 583.966 504.711 583.084C504.711 582.118 504.025 581.474 502.975 581.474H499.825V580.2H502.975C504.837 580.2 506.125 581.334 506.125 583.084C506.125 584.498 505.173 585.464 503.801 585.884L502.121 586.388C501.155 586.682 500.763 587.158 500.763 588.04V588.726H506.041V590H499.349V588.278ZM507.193 590V588.726H509.755V581.502H507.977V580.2H511.113V588.726H513.633V590H507.193ZM514.2 590L516.818 586.528L514.34 583.266H515.992L517.7 585.59L519.394 583.266H521.046L518.568 586.528L521.186 590H519.534L517.7 587.536L515.852 590H514.2Z" fill="#0B8900"/>
<path fill-rule="evenodd" clip-rule="evenodd" d="M524.4 585.625L527.9 580L531.4 585.625H528.506V590H527.294V585.625H524.4Z" fill="#0B8900"/>
<rect x="656.2" y="493" width="101.8" height="26" rx="13" fill="#0D0D0D" fill-opacity="0.08"/>
<rect x="656.7" y="493.5" width="100.8" height="25" rx="12.5" stroke="#0D0D0D" stroke-opacity="0.08"/>
<path d="M693.476 468.152C698.5 468.152 702.02 471.576 702.02 478.488C702.02 486.168 699.044 491 691.524 491H687.236V488.088H691.524C696.708 488.088 698.596 485.464 698.852 480.536C697.86 482.104 695.812 483.224 692.996 483.224C688.484 483.224 685.316 480.088 685.316 475.768C685.316 471.384 688.644 468.152 693.476 468.152ZM688.548 475.672C688.548 478.456 690.628 480.376 693.572 480.376C696.516 480.376 698.564 478.488 698.564 475.672C698.564 472.888 696.516 470.968 693.572 470.968C690.628 470.968 688.548 472.888 688.548 475.672ZM709.645 467.832C711.224 467.832 712.418 468.461 713.229 469.72C714.04 470.957 714.445 472.707 714.445 474.968C714.445 477.229 714.05 479 713.261 480.28C712.493 481.539 711.288 482.168 709.645 482.168C708.642 482.168 707.789 481.88 707.085 481.304C706.381 480.728 705.848 479.907 705.485 478.84C705.144 477.752 704.973 476.461 704.973 474.968C704.973 472.707 705.346 470.957 706.093 469.72C706.84 468.461 708.024 467.832 709.645 467.832ZM709.645 469.816C708.834 469.816 708.237 470.253 707.853 471.128C707.49 471.981 707.309 473.261 707.309 474.968C707.309 476.675 707.49 477.965 707.853 478.84C708.237 479.715 708.834 480.152 709.645 480.152C710.477 480.152 711.096 479.725 711.501 478.872C711.906 477.997 712.109 476.696 712.109 474.968C712.109 473.261 711.906 471.981 711.501 471.128C711.096 470.253 710.477 469.816 709.645 469.816ZM724.269 468.152L711.597 491H709.133L721.805 468.152H724.269ZM723.629 476.984C724.674 476.984 725.549 477.272 726.253 477.848C726.957 478.403 727.49 479.213 727.853 480.28C728.237 481.325 728.429 482.605 728.429 484.12C728.429 486.381 728.034 488.152 727.245 489.432C726.477 490.691 725.272 491.32 723.629 491.32C722.626 491.32 721.773 491.032 721.069 490.456C720.365 489.88 719.832 489.059 719.469 487.992C719.128 486.904 718.957 485.613 718.957 484.12C718.957 481.859 719.33 480.109 720.077 478.872C720.824 477.613 722.008 476.984 723.629 476.984ZM723.629 479C722.818 479 722.221 479.427 721.837 480.28C721.474 481.133 721.293 482.413 721.293 484.12C721.293 485.848 721.474 487.149 721.837 488.024C722.221 488.877 722.818 489.304 723.629 489.304C724.461 489.304 725.08 488.877 725.485 488.024C725.89 487.171 726.093 485.869 726.093 484.12C726.093 482.413 725.89 481.133 725.485 480.28C725.08 479.427 724.461 479 723.629 479Z" fill="#0D0D0D"/>
<rect x="778" y="463" width="101.8" height="56" rx="16" fill="#0D0D0D"/>
<g style="mix-blend-mode:difference">
<path d="M800.488 491V488.088H806.344V471.576H802.28V468.6H809.448V488.088H815.208V491H800.488ZM820.035 485.848C820.035 480.824 820.835 477.528 824.643 473.88L827.107 471.512H815.043V468.6H831.299V471.512L827.363 475.224C824.355 478.136 823.267 480.6 823.267 485.688V491H820.035V485.848ZM838 467.832C839.579 467.832 840.773 468.461 841.584 469.72C842.395 470.957 842.8 472.707 842.8 474.968C842.8 477.229 842.405 479 841.616 480.28C840.848 481.539 839.643 482.168 838 482.168C836.997 482.168 836.144 481.88 835.44 481.304C834.736 480.728 834.203 479.907 833.84 478.84C833.499 477.752 833.328 476.461 833.328 474.968C833.328 472.707 833.701 470.957 834.448 469.72C835.195 468.461 836.379 467.832 838 467.832ZM838 469.816C837.189 469.816 836.592 470.253 836.208 471.128C835.845 471.981 835.664 473.261 835.664 474.968C835.664 476.675 835.845 477.965 836.208 478.84C836.592 479.715 837.189 480.152 838 480.152C838.832 480.152 839.451 479.725 839.856 478.872C840.261 477.997 840.464 476.696 840.464 474.968C840.464 473.261 840.261 471.981 839.856 471.128C839.451 470.253 838.832 469.816 838 469.816ZM852.624 468.152L839.952 491H837.488L850.16 468.152H852.624ZM851.984 476.984C853.029 476.984 853.904 477.272 854.608 477.848C855.312 478.403 855.845 479.213 856.208 480.28C856.592 481.325 856.784 482.605 856.784 484.12C856.784 486.381 856.389 488.152 855.6 489.432C854.832 490.691 853.627 491.32 851.984 491.32C850.981 491.32 850.128 491.032 849.424 490.456C848.72 489.88 848.187 489.059 847.824 487.992C847.483 486.904 847.312 485.613 847.312 484.12C847.312 481.859 847.685 480.109 848.432 478.872C849.179 477.613 850.363 476.984 851.984 476.984ZM851.984 479C851.173 479 850.576 479.427 850.192 480.28C849.829 481.133 849.648 482.413 849.648 484.12C849.648 485.848 849.829 487.149 850.192 488.024C850.576 488.877 851.173 489.304 851.984 489.304C852.816 489.304 853.435 488.877 853.84 488.024C854.245 487.171 854.448 485.869 854.448 484.12C854.448 482.413 854.245 481.133 853.84 480.28C853.435 479.427 852.816 479 851.984 479Z" fill="white"/>
</g>
<path d="M712.468 561.28C709.148 561.28 707.148 559.2 707.148 555.74V547H709.148V555.62C709.148 558.06 710.368 559.4 712.468 559.4C714.568 559.4 715.788 558.06 715.788 555.62V547H717.808V555.74C717.808 559.2 715.808 561.28 712.468 561.28ZM724.056 561.28C721.456 561.28 719.916 560.24 719.816 558.26H721.816C721.916 559.22 722.696 559.7 724.096 559.7C725.376 559.7 726.156 559.16 726.156 558.28C726.156 557.56 725.616 557.14 724.616 557.04L723.076 556.88C721.276 556.7 720.136 555.7 720.136 554.1C720.136 552.26 721.676 551.1 724.036 551.1C726.436 551.1 727.916 552.1 728.036 554.06H726.096C726.036 553.14 725.276 552.68 724.016 552.68C722.816 552.68 722.056 553.18 722.056 554C722.056 554.7 722.576 555.08 723.696 555.22L725.256 555.4C727.076 555.6 728.116 556.62 728.116 558.2C728.116 560.08 726.536 561.28 724.056 561.28ZM734.442 561.28C731.562 561.28 729.642 559.26 729.642 556.14C729.642 553.04 731.562 551.1 734.302 551.1C737.162 551.1 738.922 552.96 738.922 555.9C738.922 556.16 738.902 556.42 738.862 556.82H731.562C731.642 558.58 732.722 559.64 734.442 559.64C735.582 559.64 736.382 559.12 736.762 558.26H738.742C738.142 560.12 736.662 561.28 734.442 561.28ZM731.562 555.3H736.962V555.2C736.962 553.72 736.002 552.66 734.302 552.66C732.682 552.66 731.642 553.74 731.562 555.3ZM750.256 561.28C747.336 561.28 745.296 559.24 745.296 556.18C745.296 553.14 747.336 551.1 750.256 551.1C753.196 551.1 755.216 553.14 755.216 556.18C755.216 559.24 753.196 561.28 750.256 561.28ZM747.296 556.18C747.296 558.18 748.496 559.52 750.256 559.52C752.036 559.52 753.216 558.18 753.216 556.18C753.216 554.2 752.036 552.86 750.256 552.86C748.496 552.86 747.296 554.2 747.296 556.18ZM758.362 549.62C758.362 547.94 759.342 547 761.002 547H764.122V548.7H761.402C760.702 548.7 760.282 549.06 760.282 549.82V551.38H763.522V553.08H760.282V561H758.362V553.08H755.822V551.38H758.362V549.62ZM771.361 549.62C771.361 547.94 772.341 547 774.001 547H777.121V548.7H774.401C773.701 548.7 773.281 549.06 773.281 549.82V551.38H776.521V553.08H773.281V561H771.361V553.08H768.821V551.38H771.361V549.62ZM778.047 561V551.38H779.767V552.94C780.007 551.98 780.727 551.38 781.867 551.38H783.707V553.08H781.687C780.487 553.08 779.987 553.76 779.987 555.06V561H778.047ZM787.775 561.28C785.555 561.28 784.155 560.12 784.155 558.28C784.155 556.56 785.315 555.32 787.675 555.18L790.595 555.02V554.48C790.595 553.22 789.975 552.7 788.655 552.7C787.375 552.7 786.735 553.04 786.575 554.06H784.635C784.855 552.08 786.215 551.1 788.795 551.1C791.095 551.1 792.435 552.26 792.435 554.38V559.08C792.435 559.3 792.535 559.4 792.755 559.4H793.575V561H792.015C791.355 561 790.975 560.64 790.975 560V559.72C790.415 560.7 789.275 561.28 787.775 561.28ZM786.095 558.22C786.095 559.1 786.815 559.68 787.995 559.68C789.555 559.68 790.595 558.78 790.595 557.14V556.52L787.915 556.72C786.675 556.8 786.095 557.44 786.095 558.22ZM795.42 561V551.38H797.14V552.56C797.7 551.56 798.58 551.1 799.76 551.1C801.08 551.1 802.06 551.74 802.52 552.82C803.14 551.66 804.14 551.1 805.4 551.1C807.62 551.1 808.84 552.44 808.84 554.84V561H806.92V554.94C806.92 553.6 806.28 552.86 805.06 552.86C803.92 552.86 803.1 553.74 803.1 555V561H801.16V554.94C801.16 553.6 800.52 552.86 799.34 552.86C798.18 552.86 797.36 553.74 797.36 555V561H795.42ZM815.708 561.28C812.828 561.28 810.908 559.26 810.908 556.14C810.908 553.04 812.828 551.1 815.568 551.1C818.428 551.1 820.188 552.96 820.188 555.9C820.188 556.16 820.168 556.42 820.128 556.82H812.828C812.908 558.58 813.988 559.64 815.708 559.64C816.848 559.64 817.648 559.12 818.028 558.26H820.008C819.408 560.12 817.928 561.28 815.708 561.28ZM812.828 555.3H818.228V555.2C818.228 553.72 817.268 552.66 815.568 552.66C813.948 552.66 812.908 553.74 812.828 555.3ZM825.665 561.28C823.065 561.28 821.525 560.24 821.425 558.26H823.425C823.525 559.22 824.305 559.7 825.705 559.7C826.985 559.7 827.765 559.16 827.765 558.28C827.765 557.56 827.225 557.14 826.225 557.04L824.685 556.88C822.885 556.7 821.745 555.7 821.745 554.1C821.745 552.26 823.285 551.1 825.645 551.1C828.045 551.1 829.525 552.1 829.645 554.06H827.705C827.645 553.14 826.885 552.68 825.625 552.68C824.425 552.68 823.665 553.18 823.665 554C823.665 554.7 824.185 555.08 825.305 555.22L826.865 555.4C828.685 555.6 829.725 556.62 829.725 558.2C829.725 560.08 828.145 561.28 825.665 561.28Z" fill="#0D0D0D"/>
<rect x="739.5" y="575.5" width="57" height="20" rx="10" stroke="#0B8900"/>
<path d="M750.398 584.568H753.184V585.562H750.398V588.446H749.39V585.562H746.604V584.568H749.39V581.67H750.398V584.568ZM754.392 590V588.726H756.954V581.502H755.176V580.2H758.312V588.726H760.832V590H754.392ZM762.459 590V588.082H764.139V590H762.459ZM769.106 580.004C771.304 580.004 772.844 581.502 772.844 584.526C772.844 587.886 771.542 590 768.252 590H766.376V588.726H768.252C770.52 588.726 771.346 587.578 771.458 585.422C771.024 586.108 770.128 586.598 768.896 586.598C766.922 586.598 765.536 585.226 765.536 583.336C765.536 581.418 766.992 580.004 769.106 580.004ZM766.95 583.294C766.95 584.512 767.86 585.352 769.148 585.352C770.436 585.352 771.332 584.526 771.332 583.294C771.332 582.076 770.436 581.236 769.148 581.236C767.86 581.236 766.95 582.076 766.95 583.294ZM773.8 590L776.418 586.528L773.94 583.266H775.592L777.3 585.59L778.994 583.266H780.646L778.168 586.528L780.786 590H779.134L777.3 587.536L775.452 590H773.8Z" fill="#0B8900"/>
<path fill-rule="evenodd" clip-rule="evenodd" d="M784 585.625L787.5 580L791 585.625H788.106V590H786.894V585.625H784Z" fill="#0B8900"/>
<rect x="919.8" y="368" width="101.8" height="151" rx="16" fill="#0D0D0D" fill-opacity="0.08"/>
<rect x="920.3" y="368.5" width="100.8" height="150" rx="15.5" stroke="#0D0D0D" stroke-opacity="0.08"/>
<path d="M941.8 491V488.088H948.84C951.592 488.088 953.48 486.424 953.48 483.96C953.48 481.528 951.752 479.864 948.84 479.864H942.344V468.6H955.72V471.512H945.448V477.048H949.192C953.736 477.048 956.712 479.768 956.712 483.832C956.712 488.088 953.576 491 948.84 491H941.8ZM958.655 491V488.088H964.511V471.576H960.447V468.6H967.615V488.088H973.375V491H958.655ZM980.112 467.832C981.691 467.832 982.886 468.461 983.696 469.72C984.507 470.957 984.912 472.707 984.912 474.968C984.912 477.229 984.518 479 983.728 480.28C982.96 481.539 981.755 482.168 980.112 482.168C979.11 482.168 978.256 481.88 977.552 481.304C976.848 480.728 976.315 479.907 975.952 478.84C975.611 477.752 975.44 476.461 975.44 474.968C975.44 472.707 975.814 470.957 976.56 469.72C977.307 468.461 978.491 467.832 980.112 467.832ZM980.112 469.816C979.302 469.816 978.704 470.253 978.32 471.128C977.958 471.981 977.776 473.261 977.776 474.968C977.776 476.675 977.958 477.965 978.32 478.84C978.704 479.715 979.302 480.152 980.112 480.152C980.944 480.152 981.563 479.725 981.968 478.872C982.374 477.997 982.576 476.696 982.576 474.968C982.576 473.261 982.374 471.981 981.968 471.128C981.563 470.253 980.944 469.816 980.112 469.816ZM994.736 468.152L982.064 491H979.6L992.272 468.152H994.736ZM994.096 476.984C995.142 476.984 996.016 477.272 996.72 477.848C997.424 478.403 997.958 479.213 998.32 480.28C998.704 481.325 998.896 482.605 998.896 484.12C998.896 486.381 998.502 488.152 997.712 489.432C996.944 490.691 995.739 491.32 994.096 491.32C993.094 491.32 992.24 491.032 991.536 490.456C990.832 489.88 990.299 489.059 989.936 487.992C989.595 486.904 989.424 485.613 989.424 484.12C989.424 481.859 989.798 480.109 990.544 478.872C991.291 477.613 992.475 476.984 994.096 476.984ZM994.096 479C993.286 479 992.688 479.427 992.304 480.28C991.942 481.133 991.76 482.413 991.76 484.12C991.76 485.848 991.942 487.149 992.304 488.024C992.688 488.877 993.286 489.304 994.096 489.304C994.928 489.304 995.547 488.877 995.952 488.024C996.358 487.171 996.56 485.869 996.56 484.12C996.56 482.413 996.358 481.133 995.952 480.28C995.547 479.427 994.928 479 994.096 479Z" fill="#0D0D0D"/>
<rect x="1041.6" y="315" width="101.8" height="204" rx="16" fill="#0D0D0D"/>
<path d="M1069.74 491.448C1064.72 491.448 1061.2 488.024 1061.2 481.112C1061.2 473.432 1064.17 468.6 1071.69 468.6H1075.98V471.512H1071.69C1066.51 471.512 1064.62 474.136 1064.36 479.064C1065.36 477.496 1067.4 476.376 1070.22 476.376C1074.73 476.376 1077.9 479.512 1077.9 483.832C1077.9 488.216 1074.57 491.448 1069.74 491.448ZM1064.65 483.928C1064.65 486.712 1066.7 488.632 1069.64 488.632C1072.59 488.632 1074.67 486.712 1074.67 483.928C1074.67 481.144 1072.59 479.224 1069.64 479.224C1066.7 479.224 1064.65 481.112 1064.65 483.928ZM1088.09 468.152C1093.11 468.152 1096.63 471.576 1096.63 478.488C1096.63 486.168 1093.65 491 1086.13 491H1081.85V488.088H1086.13C1091.32 488.088 1093.21 485.464 1093.46 480.536C1092.47 482.104 1090.42 483.224 1087.61 483.224C1083.09 483.224 1079.93 480.088 1079.93 475.768C1079.93 471.384 1083.25 468.152 1088.09 468.152ZM1083.16 475.672C1083.16 478.456 1085.24 480.376 1088.18 480.376C1091.13 480.376 1093.17 478.488 1093.17 475.672C1093.17 472.888 1091.13 470.968 1088.18 470.968C1085.24 470.968 1083.16 472.888 1083.16 475.672ZM1104.26 467.832C1105.83 467.832 1107.03 468.461 1107.84 469.72C1108.65 470.957 1109.06 472.707 1109.06 474.968C1109.06 477.229 1108.66 479 1107.87 480.28C1107.1 481.539 1105.9 482.168 1104.26 482.168C1103.25 482.168 1102.4 481.88 1101.7 481.304C1100.99 480.728 1100.46 479.907 1100.1 478.84C1099.75 477.752 1099.58 476.461 1099.58 474.968C1099.58 472.707 1099.96 470.957 1100.7 469.72C1101.45 468.461 1102.63 467.832 1104.26 467.832ZM1104.26 469.816C1103.45 469.816 1102.85 470.253 1102.46 471.128C1102.1 471.981 1101.92 473.261 1101.92 474.968C1101.92 476.675 1102.1 477.965 1102.46 478.84C1102.85 479.715 1103.45 480.152 1104.26 480.152C1105.09 480.152 1105.71 479.725 1106.11 478.872C1106.52 477.997 1106.72 476.696 1106.72 474.968C1106.72 473.261 1106.52 471.981 1106.11 471.128C1105.71 470.253 1105.09 469.816 1104.26 469.816ZM1118.88 468.152L1106.21 491H1103.74L1116.42 468.152H1118.88ZM1118.24 476.984C1119.29 476.984 1120.16 477.272 1120.86 477.848C1121.57 478.403 1122.1 479.213 1122.46 480.28C1122.85 481.325 1123.04 482.605 1123.04 484.12C1123.04 486.381 1122.65 488.152 1121.86 489.432C1121.09 490.691 1119.88 491.32 1118.24 491.32C1117.24 491.32 1116.38 491.032 1115.68 490.456C1114.98 489.88 1114.44 489.059 1114.08 487.992C1113.74 486.904 1113.57 485.613 1113.57 484.12C1113.57 481.859 1113.94 480.109 1114.69 478.872C1115.43 477.613 1116.62 476.984 1118.24 476.984ZM1118.24 479C1117.43 479 1116.83 479.427 1116.45 480.28C1116.09 481.133 1115.9 482.413 1115.9 484.12C1115.9 485.848 1116.09 487.149 1116.45 488.024C1116.83 488.877 1117.43 489.304 1118.24 489.304C1119.07 489.304 1119.69 488.877 1120.1 488.024C1120.5 487.171 1120.7 485.869 1120.7 484.12C1120.7 482.413 1120.5 481.133 1120.1 480.28C1119.69 479.427 1119.07 479 1118.24 479Z" fill="white"/>
<path d="M945.34 561.28C942.02 561.28 940.02 559.2 940.02 555.74V547H942.02V555.62C942.02 558.06 943.24 559.4 945.34 559.4C947.44 559.4 948.66 558.06 948.66 555.62V547H950.68V555.74C950.68 559.2 948.68 561.28 945.34 561.28ZM956.928 561.28C954.328 561.28 952.788 560.24 952.688 558.26H954.688C954.788 559.22 955.568 559.7 956.968 559.7C958.248 559.7 959.028 559.16 959.028 558.28C959.028 557.56 958.488 557.14 957.488 557.04L955.948 556.88C954.148 556.7 953.008 555.7 953.008 554.1C953.008 552.26 954.548 551.1 956.908 551.1C959.308 551.1 960.788 552.1 960.908 554.06H958.968C958.908 553.14 958.148 552.68 956.888 552.68C955.688 552.68 954.928 553.18 954.928 554C954.928 554.7 955.448 555.08 956.568 555.22L958.128 555.4C959.948 555.6 960.988 556.62 960.988 558.2C960.988 560.08 959.408 561.28 956.928 561.28ZM967.313 561.28C964.433 561.28 962.513 559.26 962.513 556.14C962.513 553.04 964.433 551.1 967.173 551.1C970.033 551.1 971.793 552.96 971.793 555.9C971.793 556.16 971.773 556.42 971.733 556.82H964.433C964.513 558.58 965.593 559.64 967.313 559.64C968.453 559.64 969.253 559.12 969.633 558.26H971.613C971.013 560.12 969.533 561.28 967.313 561.28ZM964.433 555.3H969.833V555.2C969.833 553.72 968.873 552.66 967.173 552.66C965.553 552.66 964.513 553.74 964.433 555.3ZM983.128 561.28C980.208 561.28 978.168 559.24 978.168 556.18C978.168 553.14 980.208 551.1 983.128 551.1C986.068 551.1 988.088 553.14 988.088 556.18C988.088 559.24 986.068 561.28 983.128 561.28ZM980.168 556.18C980.168 558.18 981.368 559.52 983.128 559.52C984.908 559.52 986.088 558.18 986.088 556.18C986.088 554.2 984.908 552.86 983.128 552.86C981.368 552.86 980.168 554.2 980.168 556.18ZM991.234 549.62C991.234 547.94 992.214 547 993.874 547H996.994V548.7H994.274C993.574 548.7 993.154 549.06 993.154 549.82V551.38H996.394V553.08H993.154V561H991.234V553.08H988.694V551.38H991.234V549.62ZM1006.39 561.28C1003.79 561.28 1002.25 560.24 1002.15 558.26H1004.15C1004.25 559.22 1005.03 559.7 1006.43 559.7C1007.71 559.7 1008.49 559.16 1008.49 558.28C1008.49 557.56 1007.95 557.14 1006.95 557.04L1005.41 556.88C1003.61 556.7 1002.47 555.7 1002.47 554.1C1002.47 552.26 1004.01 551.1 1006.37 551.1C1008.77 551.1 1010.25 552.1 1010.37 554.06H1008.43C1008.37 553.14 1007.61 552.68 1006.35 552.68C1005.15 552.68 1004.39 553.18 1004.39 554C1004.39 554.7 1004.91 555.08 1006.03 555.22L1007.59 555.4C1009.41 555.6 1010.45 556.62 1010.45 558.2C1010.45 560.08 1008.87 561.28 1006.39 561.28ZM1016.78 561.28C1013.9 561.28 1011.98 559.26 1011.98 556.14C1011.98 553.04 1013.9 551.1 1016.64 551.1C1019.5 551.1 1021.26 552.96 1021.26 555.9C1021.26 556.16 1021.24 556.42 1021.2 556.82H1013.9C1013.98 558.58 1015.06 559.64 1016.78 559.64C1017.92 559.64 1018.72 559.12 1019.1 558.26H1021.08C1020.48 560.12 1019 561.28 1016.78 561.28ZM1013.9 555.3H1019.3V555.2C1019.3 553.72 1018.34 552.66 1016.64 552.66C1015.02 552.66 1013.98 553.74 1013.9 555.3ZM1025.45 564.6C1023.31 564.6 1022.35 563.6 1022.35 562.2C1022.35 561.38 1022.79 560.64 1023.61 560.24C1023.07 559.88 1022.73 559.3 1022.73 558.68C1022.73 557.82 1023.27 557.12 1024.39 556.84C1023.49 556.24 1023.11 555.3 1023.11 554.4C1023.11 552.52 1024.55 551.1 1026.95 551.1C1028.49 551.1 1029.73 551.88 1030.13 552.88V552.58C1030.13 551.62 1030.65 551.38 1031.33 551.38H1032.75V553.08H1031.21C1030.91 553.08 1030.79 553.2 1030.79 553.5V554.52C1030.79 556.52 1029.23 557.82 1027.05 557.82H1025.39C1024.83 557.82 1024.45 558.08 1024.45 558.6C1024.45 559.12 1024.89 559.38 1025.39 559.38H1028.89C1030.73 559.38 1031.91 560.26 1031.91 561.84C1031.91 563.42 1030.97 564.6 1028.77 564.6H1025.45ZM1024.21 562.02C1024.21 562.64 1024.61 563.12 1025.67 563.12H1028.65C1029.41 563.12 1030.05 562.76 1030.05 561.9C1030.05 561.24 1029.53 560.86 1028.75 560.86H1025.73C1024.65 560.86 1024.21 561.4 1024.21 562.02ZM1024.97 554.46C1024.97 555.58 1025.71 556.3 1026.95 556.3C1028.21 556.3 1028.93 555.58 1028.93 554.46C1028.93 553.34 1028.19 552.62 1026.95 552.62C1025.69 552.62 1024.97 553.34 1024.97 554.46ZM1034.37 561V551.38H1036.09V552.56C1036.65 551.56 1037.53 551.1 1038.71 551.1C1040.03 551.1 1041.01 551.74 1041.47 552.82C1042.09 551.66 1043.09 551.1 1044.35 551.1C1046.57 551.1 1047.79 552.44 1047.79 554.84V561H1045.87V554.94C1045.87 553.6 1045.23 552.86 1044.01 552.86C1042.87 552.86 1042.05 553.74 1042.05 555V561H1040.11V554.94C1040.11 553.6 1039.47 552.86 1038.29 552.86C1037.13 552.86 1036.31 553.74 1036.31 555V561H1034.37ZM1054.65 561.28C1051.77 561.28 1049.85 559.26 1049.85 556.14C1049.85 553.04 1051.77 551.1 1054.51 551.1C1057.37 551.1 1059.13 552.96 1059.13 555.9C1059.13 556.16 1059.11 556.42 1059.07 556.82H1051.77C1051.85 558.58 1052.93 559.64 1054.65 559.64C1055.79 559.64 1056.59 559.12 1056.97 558.26H1058.95C1058.35 560.12 1056.87 561.28 1054.65 561.28ZM1051.77 555.3H1057.17V555.2C1057.17 553.72 1056.21 552.66 1054.51 552.66C1052.89 552.66 1051.85 553.74 1051.77 555.3ZM1061.27 561V551.38H1062.99V552.64C1063.57 551.6 1064.73 551.1 1066.03 551.1C1068.39 551.1 1069.87 552.54 1069.87 555.2V561H1067.93V555.38C1067.93 553.66 1067.09 552.86 1065.67 552.86C1064.19 552.86 1063.21 553.88 1063.21 555.44V561H1061.27ZM1075.9 561C1074.24 561 1073.52 560.34 1073.52 558.68V553.08H1071V551.38H1073.52V548.5H1075.46V551.38H1078.48V553.08H1075.46V558.3C1075.46 559 1075.74 559.3 1076.48 559.3H1078.48V561H1075.9ZM1083.16 561.28C1080.94 561.28 1079.54 560.12 1079.54 558.28C1079.54 556.56 1080.7 555.32 1083.06 555.18L1085.98 555.02V554.48C1085.98 553.22 1085.36 552.7 1084.04 552.7C1082.76 552.7 1082.12 553.04 1081.96 554.06H1080.02C1080.24 552.08 1081.6 551.1 1084.18 551.1C1086.48 551.1 1087.82 552.26 1087.82 554.38V559.08C1087.82 559.3 1087.92 559.4 1088.14 559.4H1088.96V561H1087.4C1086.74 561 1086.36 560.64 1086.36 560V559.72C1085.8 560.7 1084.66 561.28 1083.16 561.28ZM1081.48 558.22C1081.48 559.1 1082.2 559.68 1083.38 559.68C1084.94 559.68 1085.98 558.78 1085.98 557.14V556.52L1083.3 556.72C1082.06 556.8 1081.48 557.44 1081.48 558.22ZM1094.11 561C1092.45 561 1091.73 560.34 1091.73 558.68V553.08H1089.21V551.38H1091.73V548.5H1093.67V551.38H1096.69V553.08H1093.67V558.3C1093.67 559 1093.95 559.3 1094.69 559.3H1096.69V561H1094.11ZM1098.56 561V551.38H1100.5V561H1098.56ZM1098.44 549.44V547.14H1100.6V549.44H1098.44ZM1107.66 561.28C1104.74 561.28 1102.7 559.24 1102.7 556.18C1102.7 553.14 1104.74 551.1 1107.66 551.1C1110.6 551.1 1112.62 553.14 1112.62 556.18C1112.62 559.24 1110.6 561.28 1107.66 561.28ZM1104.7 556.18C1104.7 558.18 1105.9 559.52 1107.66 559.52C1109.44 559.52 1110.62 558.18 1110.62 556.18C1110.62 554.2 1109.44 552.86 1107.66 552.86C1105.9 552.86 1104.7 554.2 1104.7 556.18ZM1114.84 561V551.38H1116.56V552.64C1117.14 551.6 1118.3 551.1 1119.6 551.1C1121.96 551.1 1123.44 552.54 1123.44 555.2V561H1121.5V555.38C1121.5 553.66 1120.66 552.86 1119.24 552.86C1117.76 552.86 1116.78 553.88 1116.78 555.44V561H1114.84Z" fill="#0D0D0D"/>
<rect x="999.6" y="575.5" width="64" height="20" rx="10" stroke="#0B8900"/>
<path d="M1010.17 584.568H1012.96V585.562H1010.17V588.446H1009.16V585.562H1006.38V584.568H1009.16V581.67H1010.17V584.568ZM1014.16 590V588.726H1016.73V581.502H1014.95V580.2H1018.08V588.726H1020.6V590H1014.16ZM1022.23 590V588.082H1023.91V590H1022.23ZM1025.73 590V588.726H1028.81C1030.21 588.726 1031.02 588.068 1031.02 586.976C1031.02 585.968 1030.24 585.338 1028.88 585.338H1027.41V584.204L1030.25 581.474H1025.59V580.2H1032.05V581.474L1029.09 584.232H1029.27C1031.21 584.232 1032.44 585.324 1032.44 586.962C1032.44 588.796 1030.98 590 1028.81 590H1025.73ZM1033.76 590V588.726H1036.84C1038.04 588.726 1038.87 587.998 1038.87 586.92C1038.87 585.856 1038.11 585.128 1036.84 585.128H1034V580.2H1039.85V581.474H1035.36V583.896H1036.99C1038.98 583.896 1040.28 585.086 1040.28 586.864C1040.28 588.726 1038.91 590 1036.84 590H1033.76ZM1040.9 590L1043.52 586.528L1041.04 583.266H1042.69L1044.4 585.59L1046.09 583.266H1047.75L1045.27 586.528L1047.89 590H1046.23L1044.4 587.536L1042.55 590H1040.9Z" fill="#0B8900"/>
<path fill-rule="evenodd" clip-rule="evenodd" d="M1051.1 585.625L1054.6 580L1058.1 585.625H1055.21V590H1053.99V585.625H1051.1Z" fill="#0B8900"/>
<rect x="1183.4" y="380" width="101.8" height="139" rx="16" fill="#0D0D0D" fill-opacity="0.08"/>
<rect x="1183.9" y="380.5" width="100.8" height="138" rx="15.5" stroke="#0D0D0D" stroke-opacity="0.08"/>
<path d="M1215.16 491V484.344H1203.16V481.528L1213.95 468.6H1218.27V481.528H1221.95V484.344H1218.27V491H1215.16ZM1206.62 481.528H1215.16V471.288L1206.62 481.528ZM1227.31 485.848C1227.31 480.824 1228.11 477.528 1231.92 473.88L1234.38 471.512H1222.32V468.6H1238.57V471.512L1234.64 475.224C1231.63 478.136 1230.54 480.6 1230.54 485.688V491H1227.31V485.848ZM1245.27 467.832C1246.85 467.832 1248.05 468.461 1248.86 469.72C1249.67 470.957 1250.07 472.707 1250.07 474.968C1250.07 477.229 1249.68 479 1248.89 480.28C1248.12 481.539 1246.92 482.168 1245.27 482.168C1244.27 482.168 1243.42 481.88 1242.71 481.304C1242.01 480.728 1241.48 479.907 1241.11 478.84C1240.77 477.752 1240.6 476.461 1240.6 474.968C1240.6 472.707 1240.98 470.957 1241.72 469.72C1242.47 468.461 1243.65 467.832 1245.27 467.832ZM1245.27 469.816C1244.46 469.816 1243.87 470.253 1243.48 471.128C1243.12 471.981 1242.94 473.261 1242.94 474.968C1242.94 476.675 1243.12 477.965 1243.48 478.84C1243.87 479.715 1244.46 480.152 1245.27 480.152C1246.11 480.152 1246.73 479.725 1247.13 478.872C1247.54 477.997 1247.74 476.696 1247.74 474.968C1247.74 473.261 1247.54 471.981 1247.13 471.128C1246.73 470.253 1246.11 469.816 1245.27 469.816ZM1259.9 468.152L1247.23 491H1244.76L1257.43 468.152H1259.9ZM1259.26 476.984C1260.3 476.984 1261.18 477.272 1261.88 477.848C1262.59 478.403 1263.12 479.213 1263.48 480.28C1263.87 481.325 1264.06 482.605 1264.06 484.12C1264.06 486.381 1263.66 488.152 1262.87 489.432C1262.11 490.691 1260.9 491.32 1259.26 491.32C1258.26 491.32 1257.4 491.032 1256.7 490.456C1255.99 489.88 1255.46 489.059 1255.1 487.992C1254.76 486.904 1254.59 485.613 1254.59 484.12C1254.59 481.859 1254.96 480.109 1255.71 478.872C1256.45 477.613 1257.64 476.984 1259.26 476.984ZM1259.26 479C1258.45 479 1257.85 479.427 1257.47 480.28C1257.1 481.133 1256.92 482.413 1256.92 484.12C1256.92 485.848 1257.1 487.149 1257.47 488.024C1257.85 488.877 1258.45 489.304 1259.26 489.304C1260.09 489.304 1260.71 488.877 1261.11 488.024C1261.52 487.171 1261.72 485.869 1261.72 484.12C1261.72 482.413 1261.52 481.133 1261.11 480.28C1260.71 479.427 1260.09 479 1259.26 479Z" fill="#0D0D0D"/>
<rect x="1305.2" y="335" width="101.8" height="184" rx="16" fill="#0D0D0D"/>
<path d="M1333.84 491.448C1328.82 491.448 1325.3 488.024 1325.3 481.112C1325.3 473.432 1328.27 468.6 1335.79 468.6H1340.08V471.512H1335.79C1330.61 471.512 1328.72 474.136 1328.46 479.064C1329.46 477.496 1331.5 476.376 1334.32 476.376C1338.83 476.376 1342 479.512 1342 483.832C1342 488.216 1338.67 491.448 1333.84 491.448ZM1328.75 483.928C1328.75 486.712 1330.8 488.632 1333.74 488.632C1336.69 488.632 1338.77 486.712 1338.77 483.928C1338.77 481.144 1336.69 479.224 1333.74 479.224C1330.8 479.224 1328.75 481.112 1328.75 483.928ZM1344.78 487.064C1344.78 482.936 1346.7 481.016 1350.29 479.992L1353.42 479.096C1355.89 478.392 1357.04 477.208 1357.04 475.192C1357.04 472.984 1355.47 471.512 1353.07 471.512H1345.87V468.6H1353.07C1357.33 468.6 1360.27 471.192 1360.27 475.192C1360.27 478.424 1358.09 480.632 1354.96 481.592L1351.12 482.744C1348.91 483.416 1348.01 484.504 1348.01 486.52V488.088H1360.08V491H1344.78V487.064ZM1367.54 467.832C1369.12 467.832 1370.32 468.461 1371.13 469.72C1371.94 470.957 1372.34 472.707 1372.34 474.968C1372.34 477.229 1371.95 479 1371.16 480.28C1370.39 481.539 1369.19 482.168 1367.54 482.168C1366.54 482.168 1365.69 481.88 1364.98 481.304C1364.28 480.728 1363.75 479.907 1363.38 478.84C1363.04 477.752 1362.87 476.461 1362.87 474.968C1362.87 472.707 1363.24 470.957 1363.99 469.72C1364.74 468.461 1365.92 467.832 1367.54 467.832ZM1367.54 469.816C1366.73 469.816 1366.14 470.253 1365.75 471.128C1365.39 471.981 1365.21 473.261 1365.21 474.968C1365.21 476.675 1365.39 477.965 1365.75 478.84C1366.14 479.715 1366.73 480.152 1367.54 480.152C1368.38 480.152 1368.99 479.725 1369.4 478.872C1369.8 477.997 1370.01 476.696 1370.01 474.968C1370.01 473.261 1369.8 471.981 1369.4 471.128C1368.99 470.253 1368.38 469.816 1367.54 469.816ZM1382.17 468.152L1369.5 491H1367.03L1379.7 468.152H1382.17ZM1381.53 476.984C1382.57 476.984 1383.45 477.272 1384.15 477.848C1384.86 478.403 1385.39 479.213 1385.75 480.28C1386.14 481.325 1386.33 482.605 1386.33 484.12C1386.33 486.381 1385.93 488.152 1385.14 489.432C1384.38 490.691 1383.17 491.32 1381.53 491.32C1380.52 491.32 1379.67 491.032 1378.97 490.456C1378.26 489.88 1377.73 489.059 1377.37 487.992C1377.03 486.904 1376.86 485.613 1376.86 484.12C1376.86 481.859 1377.23 480.109 1377.98 478.872C1378.72 477.613 1379.91 476.984 1381.53 476.984ZM1381.53 479C1380.72 479 1380.12 479.427 1379.74 480.28C1379.37 481.133 1379.19 482.413 1379.19 484.12C1379.19 485.848 1379.37 487.149 1379.74 488.024C1380.12 488.877 1380.72 489.304 1381.53 489.304C1382.36 489.304 1382.98 488.877 1383.38 488.024C1383.79 487.171 1383.99 485.869 1383.99 484.12C1383.99 482.413 1383.79 481.133 1383.38 480.28C1382.98 479.427 1382.36 479 1381.53 479Z" fill="white"/>
<path d="M1246.25 561.28C1242.53 561.28 1239.97 558.84 1239.97 554.02C1239.97 549.2 1242.43 546.72 1246.29 546.72C1249.33 546.72 1251.41 548.48 1251.83 551.48H1249.73C1249.43 549.64 1248.05 548.58 1246.29 548.58C1243.73 548.58 1242.03 550.24 1242.03 553.98C1242.03 557.68 1243.81 559.42 1246.25 559.42C1248.19 559.42 1249.41 558.12 1249.73 556.32H1251.81C1251.33 559.22 1249.41 561.28 1246.25 561.28ZM1254.03 561V547H1255.97V552.32C1256.61 551.5 1257.63 551.1 1258.79 551.1C1261.15 551.1 1262.63 552.54 1262.63 555.2V561H1260.69V555.38C1260.69 553.66 1259.85 552.86 1258.43 552.86C1256.95 552.86 1255.97 553.88 1255.97 555.44V561H1254.03ZM1268.14 561.28C1265.92 561.28 1264.52 560.12 1264.52 558.28C1264.52 556.56 1265.68 555.32 1268.04 555.18L1270.96 555.02V554.48C1270.96 553.22 1270.34 552.7 1269.02 552.7C1267.74 552.7 1267.1 553.04 1266.94 554.06H1265C1265.22 552.08 1266.58 551.1 1269.16 551.1C1271.46 551.1 1272.8 552.26 1272.8 554.38V559.08C1272.8 559.3 1272.9 559.4 1273.12 559.4H1273.94V561H1272.38C1271.72 561 1271.34 560.64 1271.34 560V559.72C1270.78 560.7 1269.64 561.28 1268.14 561.28ZM1266.46 558.22C1266.46 559.1 1267.18 559.68 1268.36 559.68C1269.92 559.68 1270.96 558.78 1270.96 557.14V556.52L1268.28 556.72C1267.04 556.8 1266.46 557.44 1266.46 558.22ZM1275.78 561V551.38H1277.5V552.64C1278.08 551.6 1279.24 551.1 1280.54 551.1C1282.9 551.1 1284.38 552.54 1284.38 555.2V561H1282.44V555.38C1282.44 553.66 1281.6 552.86 1280.18 552.86C1278.7 552.86 1277.72 553.88 1277.72 555.44V561H1275.78ZM1289.17 564.6C1287.03 564.6 1286.07 563.6 1286.07 562.2C1286.07 561.38 1286.51 560.64 1287.33 560.24C1286.79 559.88 1286.45 559.3 1286.45 558.68C1286.45 557.82 1286.99 557.12 1288.11 556.84C1287.21 556.24 1286.83 555.3 1286.83 554.4C1286.83 552.52 1288.27 551.1 1290.67 551.1C1292.21 551.1 1293.45 551.88 1293.85 552.88V552.58C1293.85 551.62 1294.37 551.38 1295.05 551.38H1296.47V553.08H1294.93C1294.63 553.08 1294.51 553.2 1294.51 553.5V554.52C1294.51 556.52 1292.95 557.82 1290.77 557.82H1289.11C1288.55 557.82 1288.17 558.08 1288.17 558.6C1288.17 559.12 1288.61 559.38 1289.11 559.38H1292.61C1294.45 559.38 1295.63 560.26 1295.63 561.84C1295.63 563.42 1294.69 564.6 1292.49 564.6H1289.17ZM1287.93 562.02C1287.93 562.64 1288.33 563.12 1289.39 563.12H1292.37C1293.13 563.12 1293.77 562.76 1293.77 561.9C1293.77 561.24 1293.25 560.86 1292.47 560.86H1289.45C1288.37 560.86 1287.93 561.4 1287.93 562.02ZM1288.69 554.46C1288.69 555.58 1289.43 556.3 1290.67 556.3C1291.93 556.3 1292.65 555.58 1292.65 554.46C1292.65 553.34 1291.91 552.62 1290.67 552.62C1289.41 552.62 1288.69 553.34 1288.69 554.46ZM1298.08 561V551.38H1300.02V561H1298.08ZM1297.96 549.44V547.14H1300.12V549.44H1297.96ZM1302.84 561V551.38H1304.56V552.64C1305.14 551.6 1306.3 551.1 1307.6 551.1C1309.96 551.1 1311.44 552.54 1311.44 555.2V561H1309.5V555.38C1309.5 553.66 1308.66 552.86 1307.24 552.86C1305.76 552.86 1304.78 553.88 1304.78 555.44V561H1302.84ZM1316.22 564.6C1314.08 564.6 1313.12 563.6 1313.12 562.2C1313.12 561.38 1313.56 560.64 1314.38 560.24C1313.84 559.88 1313.5 559.3 1313.5 558.68C1313.5 557.82 1314.04 557.12 1315.16 556.84C1314.26 556.24 1313.88 555.3 1313.88 554.4C1313.88 552.52 1315.32 551.1 1317.72 551.1C1319.26 551.1 1320.5 551.88 1320.9 552.88V552.58C1320.9 551.62 1321.42 551.38 1322.1 551.38H1323.52V553.08H1321.98C1321.68 553.08 1321.56 553.2 1321.56 553.5V554.52C1321.56 556.52 1320 557.82 1317.82 557.82H1316.16C1315.6 557.82 1315.22 558.08 1315.22 558.6C1315.22 559.12 1315.66 559.38 1316.16 559.38H1319.66C1321.5 559.38 1322.68 560.26 1322.68 561.84C1322.68 563.42 1321.74 564.6 1319.54 564.6H1316.22ZM1314.98 562.02C1314.98 562.64 1315.38 563.12 1316.44 563.12H1319.42C1320.18 563.12 1320.82 562.76 1320.82 561.9C1320.82 561.24 1320.3 560.86 1319.52 560.86H1316.5C1315.42 560.86 1314.98 561.4 1314.98 562.02ZM1315.74 554.46C1315.74 555.58 1316.48 556.3 1317.72 556.3C1318.98 556.3 1319.7 555.58 1319.7 554.46C1319.7 553.34 1318.96 552.62 1317.72 552.62C1316.46 552.62 1315.74 553.34 1315.74 554.46ZM1335.09 561.28C1333.59 561.28 1332.37 560.68 1331.75 559.62V561H1330.03V547H1331.97V552.54C1332.59 551.62 1333.71 551.1 1335.09 551.1C1337.83 551.1 1339.71 553.14 1339.71 556.18C1339.71 559.24 1337.83 561.28 1335.09 561.28ZM1331.93 556.18C1331.93 558.18 1333.07 559.52 1334.81 559.52C1336.55 559.52 1337.71 558.18 1337.71 556.18C1337.71 554.2 1336.55 552.86 1334.81 552.86C1333.07 552.86 1331.93 554.2 1331.93 556.18ZM1344.04 564.6C1341.9 564.6 1340.94 563.6 1340.94 562.2C1340.94 561.38 1341.38 560.64 1342.2 560.24C1341.66 559.88 1341.32 559.3 1341.32 558.68C1341.32 557.82 1341.86 557.12 1342.98 556.84C1342.08 556.24 1341.7 555.3 1341.7 554.4C1341.7 552.52 1343.14 551.1 1345.54 551.1C1347.08 551.1 1348.32 551.88 1348.72 552.88V552.58C1348.72 551.62 1349.24 551.38 1349.92 551.38H1351.34V553.08H1349.8C1349.5 553.08 1349.38 553.2 1349.38 553.5V554.52C1349.38 556.52 1347.82 557.82 1345.64 557.82H1343.98C1343.42 557.82 1343.04 558.08 1343.04 558.6C1343.04 559.12 1343.48 559.38 1343.98 559.38H1347.48C1349.32 559.38 1350.5 560.26 1350.5 561.84C1350.5 563.42 1349.56 564.6 1347.36 564.6H1344.04ZM1342.8 562.02C1342.8 562.64 1343.2 563.12 1344.26 563.12H1347.24C1348 563.12 1348.64 562.76 1348.64 561.9C1348.64 561.24 1348.12 560.86 1347.34 560.86H1344.32C1343.24 560.86 1342.8 561.4 1342.8 562.02ZM1343.56 554.46C1343.56 555.58 1344.3 556.3 1345.54 556.3C1346.8 556.3 1347.52 555.58 1347.52 554.46C1347.52 553.34 1346.78 552.62 1345.54 552.62C1344.28 552.62 1343.56 553.34 1343.56 554.46Z" fill="#0D0D0D"/>
<rect x="1263.2" y="575.5" width="64" height="20" rx="10" stroke="#0B8900"/>
<path d="M1274.14 584.568H1276.93V585.562H1274.14V588.446H1273.13V585.562H1270.35V584.568H1273.13V581.67H1274.14V584.568ZM1278.13 590V588.726H1280.69V581.502H1278.92V580.2H1282.05V588.726H1284.57V590H1278.13ZM1286.2 590V588.082H1287.88V590H1286.2ZM1289.7 590V588.726H1292.78C1294.18 588.726 1294.99 588.068 1294.99 586.976C1294.99 585.968 1294.21 585.338 1292.85 585.338H1291.38V584.204L1294.22 581.474H1289.56V580.2H1296.02V581.474L1293.06 584.232H1293.24C1295.18 584.232 1296.41 585.324 1296.41 586.962C1296.41 588.796 1294.95 590 1292.78 590H1289.7ZM1297.49 590V588.726H1300.05V581.502H1298.28V580.2H1301.41V588.726H1303.93V590H1297.49ZM1304.5 590L1307.12 586.528L1304.64 583.266H1306.29L1308 585.59L1309.69 583.266H1311.35L1308.87 586.528L1311.49 590H1309.83L1308 587.536L1306.15 590H1304.5Z" fill="#0B8900"/>
<path fill-rule="evenodd" clip-rule="evenodd" d="M1314.7 585.625L1318.2 580L1321.7 585.625H1318.81V590H1317.59V585.625H1314.7Z" fill="#0B8900"/>
</g>
<defs>
<clipPath id="clip0_3920_20737">
<rect width="1278" height="432" fill="white" transform="translate(129 164)"/>
</clipPath>
</defs>
</svg>
