<svg width="1536" height="760" viewBox="0 0 1536 760" fill="none" xmlns="http://www.w3.org/2000/svg">
<g clip-path="url(#clip0_3920_20705)">
<path d="M351.368 187.336C346.904 187.336 343.832 184.408 343.832 178.624C343.832 172.84 346.784 169.864 351.416 169.864C355.064 169.864 357.56 171.976 358.064 175.576H355.544C355.184 173.368 353.528 172.096 351.416 172.096C348.344 172.096 346.304 174.088 346.304 178.576C346.304 183.016 348.44 185.104 351.368 185.104C353.696 185.104 355.16 183.544 355.544 181.384H358.04C357.464 184.864 355.16 187.336 351.368 187.336ZM365.755 187.336C362.251 187.336 359.803 184.888 359.803 181.216C359.803 177.568 362.251 175.12 365.755 175.12C369.283 175.12 371.707 177.568 371.707 181.216C371.707 184.888 369.283 187.336 365.755 187.336ZM362.203 181.216C362.203 183.616 363.643 185.224 365.755 185.224C367.891 185.224 369.307 183.616 369.307 181.216C369.307 178.84 367.891 177.232 365.755 177.232C363.643 177.232 362.203 178.84 362.203 181.216ZM374.371 187V175.456H376.435V176.968C377.131 175.72 378.523 175.12 380.083 175.12C382.915 175.12 384.691 176.848 384.691 180.04V187H382.363V180.256C382.363 178.192 381.355 177.232 379.651 177.232C377.875 177.232 376.699 178.456 376.699 180.328V187H374.371ZM390.683 187L385.883 175.456H388.475L392.027 184.504L395.555 175.456H398.147L393.323 187H390.683ZM404.64 187.336C401.184 187.336 398.88 184.912 398.88 181.168C398.88 177.448 401.184 175.12 404.472 175.12C407.904 175.12 410.016 177.352 410.016 180.88C410.016 181.192 409.992 181.504 409.944 181.984H401.184C401.28 184.096 402.576 185.368 404.64 185.368C406.008 185.368 406.968 184.744 407.424 183.712H409.8C409.08 185.944 407.304 187.336 404.64 187.336ZM401.184 180.16H407.664V180.04C407.664 178.264 406.512 176.992 404.472 176.992C402.528 176.992 401.28 178.288 401.184 180.16ZM412.58 187V175.456H414.644V177.328C414.932 176.176 415.796 175.456 417.164 175.456H419.372V177.496H416.948C415.508 177.496 414.908 178.312 414.908 179.872V187H412.58ZM425.138 187.336C422.018 187.336 420.17 186.088 420.05 183.712H422.45C422.57 184.864 423.506 185.44 425.186 185.44C426.722 185.44 427.658 184.792 427.658 183.736C427.658 182.872 427.01 182.368 425.81 182.248L423.962 182.056C421.802 181.84 420.434 180.64 420.434 178.72C420.434 176.512 422.282 175.12 425.114 175.12C427.994 175.12 429.77 176.32 429.914 178.672H427.586C427.514 177.568 426.602 177.016 425.09 177.016C423.65 177.016 422.738 177.616 422.738 178.6C422.738 179.44 423.362 179.896 424.706 180.064L426.578 180.28C428.762 180.52 430.01 181.744 430.01 183.64C430.01 185.896 428.114 187.336 425.138 187.336ZM432.538 187V175.456H434.866V187H432.538ZM432.394 173.128V170.368H434.986V173.128H432.394ZM443.458 187.336C439.954 187.336 437.506 184.888 437.506 181.216C437.506 177.568 439.954 175.12 443.458 175.12C446.986 175.12 449.41 177.568 449.41 181.216C449.41 184.888 446.986 187.336 443.458 187.336ZM439.906 181.216C439.906 183.616 441.346 185.224 443.458 185.224C445.594 185.224 447.01 183.616 447.01 181.216C447.01 178.84 445.594 177.232 443.458 177.232C441.346 177.232 439.906 178.84 439.906 181.216ZM452.074 187V175.456H454.138V176.968C454.834 175.72 456.226 175.12 457.786 175.12C460.618 175.12 462.394 176.848 462.394 180.04V187H460.066V180.256C460.066 178.192 459.058 177.232 457.354 177.232C455.578 177.232 454.402 178.456 454.402 180.328V187H452.074ZM471.827 187V170.2H479.027C482.531 170.2 484.595 172.024 484.595 175.024C484.595 177.904 482.723 179.704 479.531 179.872L485.075 187H482.075L476.555 179.848H474.227V187H471.827ZM474.227 177.664H479.027C481.019 177.664 482.147 176.704 482.147 175.024C482.147 173.392 481.019 172.456 479.027 172.456H474.227V177.664ZM490.736 187.336C488.072 187.336 486.392 185.944 486.392 183.736C486.392 181.672 487.784 180.184 490.616 180.016L494.12 179.824V179.176C494.12 177.664 493.376 177.04 491.792 177.04C490.256 177.04 489.488 177.448 489.296 178.672H486.968C487.232 176.296 488.864 175.12 491.96 175.12C494.72 175.12 496.328 176.512 496.328 179.056V184.696C496.328 184.96 496.448 185.08 496.712 185.08H497.696V187H495.824C495.032 187 494.576 186.568 494.576 185.8V185.464C493.904 186.64 492.536 187.336 490.736 187.336ZM488.72 183.664C488.72 184.72 489.584 185.416 491 185.416C492.872 185.416 494.12 184.336 494.12 182.368V181.624L490.904 181.864C489.416 181.96 488.72 182.728 488.72 183.664ZM503.876 187C501.884 187 501.02 186.208 501.02 184.216V177.496H497.996V175.456H501.02V172H503.348V175.456H506.972V177.496H503.348V183.76C503.348 184.6 503.684 184.96 504.572 184.96H506.972V187H503.876ZM513.943 187.336C510.487 187.336 508.183 184.912 508.183 181.168C508.183 177.448 510.487 175.12 513.775 175.12C517.207 175.12 519.319 177.352 519.319 180.88C519.319 181.192 519.295 181.504 519.247 181.984H510.487C510.583 184.096 511.879 185.368 513.943 185.368C515.311 185.368 516.271 184.744 516.727 183.712H519.103C518.383 185.944 516.607 187.336 513.943 187.336ZM510.487 180.16H516.967V180.04C516.967 178.264 515.815 176.992 513.775 176.992C511.831 176.992 510.583 178.288 510.487 180.16Z" fill="#0D0D0D"/>
<path d="M1037.55 187V170.2H1044.61C1047.65 170.2 1049.57 171.808 1049.57 174.352C1049.57 176.008 1048.66 177.424 1047.29 178.096C1048.95 178.696 1050.05 180.16 1050.05 182.152C1050.05 185.008 1048.16 187 1044.92 187H1037.55ZM1039.95 184.792H1044.58C1046.5 184.792 1047.61 183.736 1047.61 181.96C1047.61 180.184 1046.55 179.2 1044.58 179.2H1039.95V184.792ZM1039.95 177.136H1044.27C1046.09 177.136 1047.13 176.248 1047.13 174.736C1047.13 173.2 1046.07 172.408 1044.27 172.408H1039.95V177.136ZM1058.35 187.336C1054.85 187.336 1052.4 184.888 1052.4 181.216C1052.4 177.568 1054.85 175.12 1058.35 175.12C1061.88 175.12 1064.31 177.568 1064.31 181.216C1064.31 184.888 1061.88 187.336 1058.35 187.336ZM1054.8 181.216C1054.8 183.616 1056.24 185.224 1058.35 185.224C1060.49 185.224 1061.91 183.616 1061.91 181.216C1061.91 178.84 1060.49 177.232 1058.35 177.232C1056.24 177.232 1054.8 178.84 1054.8 181.216ZM1071.29 187.336C1068.48 187.336 1066.75 185.608 1066.75 182.416V175.456H1069.08V182.2C1069.08 184.264 1070.04 185.224 1071.72 185.224C1073.47 185.224 1074.6 183.976 1074.6 182.128V175.456H1076.93V187H1074.86V185.68C1074.1 186.808 1072.78 187.336 1071.29 187.336ZM1080.25 187V175.456H1082.32V176.968C1083.01 175.72 1084.4 175.12 1085.96 175.12C1088.8 175.12 1090.57 176.848 1090.57 180.04V187H1088.24V180.256C1088.24 178.192 1087.24 177.232 1085.53 177.232C1083.76 177.232 1082.58 178.456 1082.58 180.328V187H1080.25ZM1098.74 187.336C1095.28 187.336 1093.05 184.768 1093.05 181.264C1093.05 177.664 1095.4 175.12 1098.88 175.12C1101.81 175.12 1103.8 176.824 1104.06 179.248H1101.69C1101.47 178.168 1100.51 177.232 1098.86 177.232C1096.79 177.232 1095.45 178.792 1095.45 181.216C1095.45 183.688 1096.82 185.224 1098.81 185.224C1100.37 185.224 1101.5 184.312 1101.74 182.968H1104.11C1103.8 185.272 1101.88 187.336 1098.74 187.336ZM1111.39 187.336C1107.93 187.336 1105.63 184.912 1105.63 181.168C1105.63 177.448 1107.93 175.12 1111.22 175.12C1114.65 175.12 1116.76 177.352 1116.76 180.88C1116.76 181.192 1116.74 181.504 1116.69 181.984H1107.93C1108.03 184.096 1109.32 185.368 1111.39 185.368C1112.76 185.368 1113.72 184.744 1114.17 183.712H1116.55C1115.83 185.944 1114.05 187.336 1111.39 187.336ZM1107.93 180.16H1114.41V180.04C1114.41 178.264 1113.26 176.992 1111.22 176.992C1109.28 176.992 1108.03 178.288 1107.93 180.16ZM1125.49 187V170.2H1132.69C1136.2 170.2 1138.26 172.024 1138.26 175.024C1138.26 177.904 1136.39 179.704 1133.2 179.872L1138.74 187H1135.74L1130.22 179.848H1127.89V187H1125.49ZM1127.89 177.664H1132.69C1134.69 177.664 1135.81 176.704 1135.81 175.024C1135.81 173.392 1134.69 172.456 1132.69 172.456H1127.89V177.664ZM1144.4 187.336C1141.74 187.336 1140.06 185.944 1140.06 183.736C1140.06 181.672 1141.45 180.184 1144.28 180.016L1147.79 179.824V179.176C1147.79 177.664 1147.04 177.04 1145.46 177.04C1143.92 177.04 1143.16 177.448 1142.96 178.672H1140.64C1140.9 176.296 1142.53 175.12 1145.63 175.12C1148.39 175.12 1150 176.512 1150 179.056V184.696C1150 184.96 1150.12 185.08 1150.38 185.08H1151.36V187H1149.49C1148.7 187 1148.24 186.568 1148.24 185.8V185.464C1147.57 186.64 1146.2 187.336 1144.4 187.336ZM1142.39 183.664C1142.39 184.72 1143.25 185.416 1144.67 185.416C1146.54 185.416 1147.79 184.336 1147.79 182.368V181.624L1144.57 181.864C1143.08 181.96 1142.39 182.728 1142.39 183.664ZM1157.54 187C1155.55 187 1154.69 186.208 1154.69 184.216V177.496H1151.66V175.456H1154.69V172H1157.02V175.456H1160.64V177.496H1157.02V183.76C1157.02 184.6 1157.35 184.96 1158.24 184.96H1160.64V187H1157.54ZM1167.61 187.336C1164.15 187.336 1161.85 184.912 1161.85 181.168C1161.85 177.448 1164.15 175.12 1167.44 175.12C1170.87 175.12 1172.99 177.352 1172.99 180.88C1172.99 181.192 1172.96 181.504 1172.91 181.984H1164.15C1164.25 184.096 1165.55 185.368 1167.61 185.368C1168.98 185.368 1169.94 184.744 1170.39 183.712H1172.77C1172.05 185.944 1170.27 187.336 1167.61 187.336ZM1164.15 180.16H1170.63V180.04C1170.63 178.264 1169.48 176.992 1167.44 176.992C1165.5 176.992 1164.25 178.288 1164.15 180.16Z" fill="#0D0D0D"/>
<rect x="129" y="437" width="289.25" height="82" rx="16" fill="#0D0D0D" fill-opacity="0.08"/>
<rect x="129.5" y="437.5" width="288.25" height="81" rx="15.5" stroke="#0D0D0D" stroke-opacity="0.08"/>
<path d="M231.713 491V488.088H237.569V471.576H233.505V468.6H240.673V488.088H246.433V491H231.713ZM248.555 491V488.088H255.595C258.795 488.088 260.651 486.584 260.651 484.088C260.651 481.784 258.859 480.344 255.755 480.344H252.395V477.752L258.891 471.512H248.235V468.6H262.987V471.512L256.235 477.816H256.651C261.067 477.816 263.883 480.312 263.883 484.056C263.883 488.248 260.555 491 255.595 491H248.555ZM267.262 491V486.616H271.102V491H267.262ZM274.722 491V488.088H280.578V471.576H276.514V468.6H283.682V488.088H289.442V491H274.722ZM296.179 467.832C297.757 467.832 298.952 468.461 299.763 469.72C300.573 470.957 300.979 472.707 300.979 474.968C300.979 477.229 300.584 479 299.795 480.28C299.027 481.539 297.821 482.168 296.179 482.168C295.176 482.168 294.323 481.88 293.619 481.304C292.915 480.728 292.381 479.907 292.019 478.84C291.677 477.752 291.507 476.461 291.507 474.968C291.507 472.707 291.88 470.957 292.627 469.72C293.373 468.461 294.557 467.832 296.179 467.832ZM296.179 469.816C295.368 469.816 294.771 470.253 294.387 471.128C294.024 471.981 293.843 473.261 293.843 474.968C293.843 476.675 294.024 477.965 294.387 478.84C294.771 479.715 295.368 480.152 296.179 480.152C297.011 480.152 297.629 479.725 298.035 478.872C298.44 477.997 298.643 476.696 298.643 474.968C298.643 473.261 298.44 471.981 298.035 471.128C297.629 470.253 297.011 469.816 296.179 469.816ZM310.803 468.152L298.131 491H295.667L308.339 468.152H310.803ZM310.163 476.984C311.208 476.984 312.083 477.272 312.787 477.848C313.491 478.403 314.024 479.213 314.387 480.28C314.771 481.325 314.963 482.605 314.963 484.12C314.963 486.381 314.568 488.152 313.779 489.432C313.011 490.691 311.805 491.32 310.163 491.32C309.16 491.32 308.307 491.032 307.603 490.456C306.899 489.88 306.365 489.059 306.003 487.992C305.661 486.904 305.491 485.613 305.491 484.12C305.491 481.859 305.864 480.109 306.611 478.872C307.357 477.613 308.541 476.984 310.163 476.984ZM310.163 479C309.352 479 308.755 479.427 308.371 480.28C308.008 481.133 307.827 482.413 307.827 484.12C307.827 485.848 308.008 487.149 308.371 488.024C308.755 488.877 309.352 489.304 310.163 489.304C310.995 489.304 311.613 488.877 312.019 488.024C312.424 487.171 312.627 485.869 312.627 484.12C312.627 482.413 312.424 481.133 312.019 480.28C311.613 479.427 310.995 479 310.163 479Z" fill="#0D0D0D"/>
<rect x="438.25" y="407" width="289.25" height="112" rx="16" fill="#0D0D0D"/>
<path d="M541.463 491V488.088H547.319V471.576H543.255V468.6H550.423V488.088H556.183V491H541.463ZM561.01 485.848C561.01 480.824 561.81 477.528 565.618 473.88L568.082 471.512H556.018V468.6H572.274V471.512L568.338 475.224C565.33 478.136 564.242 480.6 564.242 485.688V491H561.01V485.848ZM571.762 491V486.616H575.602V491H571.762ZM587.904 491.448C582.496 491.448 579.392 488.632 579.392 484.664C579.392 482.072 581.024 479.896 583.52 479.096C581.28 478.328 580.032 476.344 580.032 474.2C580.032 470.648 583.136 468.152 587.904 468.152C592.704 468.152 595.808 470.648 595.808 474.2C595.808 476.344 594.56 478.328 592.32 479.096C594.816 479.896 596.448 482.072 596.448 484.664C596.448 488.632 593.344 491.448 587.904 491.448ZM582.592 484.568C582.592 487 584.48 488.76 587.904 488.76C591.36 488.76 593.248 487 593.248 484.568C593.248 482.104 591.232 480.472 587.904 480.472C584.608 480.472 582.592 482.104 582.592 484.568ZM583.232 474.392C583.232 476.472 585.024 477.848 587.904 477.848C590.784 477.848 592.608 476.472 592.608 474.392C592.608 472.312 590.88 470.84 587.904 470.84C584.96 470.84 583.232 472.312 583.232 474.392ZM604.023 467.832C605.601 467.832 606.796 468.461 607.607 469.72C608.417 470.957 608.823 472.707 608.823 474.968C608.823 477.229 608.428 479 607.639 480.28C606.871 481.539 605.665 482.168 604.023 482.168C603.02 482.168 602.167 481.88 601.463 481.304C600.759 480.728 600.225 479.907 599.863 478.84C599.521 477.752 599.351 476.461 599.351 474.968C599.351 472.707 599.724 470.957 600.471 469.72C601.217 468.461 602.401 467.832 604.023 467.832ZM604.023 469.816C603.212 469.816 602.615 470.253 602.231 471.128C601.868 471.981 601.687 473.261 601.687 474.968C601.687 476.675 601.868 477.965 602.231 478.84C602.615 479.715 603.212 480.152 604.023 480.152C604.855 480.152 605.473 479.725 605.879 478.872C606.284 477.997 606.487 476.696 606.487 474.968C606.487 473.261 606.284 471.981 605.879 471.128C605.473 470.253 604.855 469.816 604.023 469.816ZM618.647 468.152L605.975 491H603.511L616.183 468.152H618.647ZM618.007 476.984C619.052 476.984 619.927 477.272 620.631 477.848C621.335 478.403 621.868 479.213 622.231 480.28C622.615 481.325 622.807 482.605 622.807 484.12C622.807 486.381 622.412 488.152 621.623 489.432C620.855 490.691 619.649 491.32 618.007 491.32C617.004 491.32 616.151 491.032 615.447 490.456C614.743 489.88 614.209 489.059 613.847 487.992C613.505 486.904 613.335 485.613 613.335 484.12C613.335 481.859 613.708 480.109 614.455 478.872C615.201 477.613 616.385 476.984 618.007 476.984ZM618.007 479C617.196 479 616.599 479.427 616.215 480.28C615.852 481.133 615.671 482.413 615.671 484.12C615.671 485.848 615.852 487.149 616.215 488.024C616.599 488.877 617.196 489.304 618.007 489.304C618.839 489.304 619.457 488.877 619.863 488.024C620.268 487.171 620.471 485.869 620.471 484.12C620.471 482.413 620.268 481.133 619.863 480.28C619.457 479.427 618.839 479 618.007 479Z" fill="white"/>
<path d="M355.696 561V548.88H351.296V547H362.096V548.88H357.696V561H355.696ZM362.316 561V551.38H364.036V552.94C364.276 551.98 364.996 551.38 366.136 551.38H367.976V553.08H365.956C364.756 553.08 364.256 553.76 364.256 555.06V561H362.316ZM369.421 561V551.38H371.361V561H369.421ZM369.301 549.44V547.14H371.461V549.44H369.301ZM377.059 561.28C374.839 561.28 373.439 560.12 373.439 558.28C373.439 556.56 374.599 555.32 376.959 555.18L379.879 555.02V554.48C379.879 553.22 379.259 552.7 377.939 552.7C376.659 552.7 376.019 553.04 375.859 554.06H373.919C374.139 552.08 375.499 551.1 378.079 551.1C380.379 551.1 381.719 552.26 381.719 554.38V559.08C381.719 559.3 381.819 559.4 382.039 559.4H382.859V561H381.299C380.639 561 380.259 560.64 380.259 560V559.72C379.699 560.7 378.559 561.28 377.059 561.28ZM375.379 558.22C375.379 559.1 376.099 559.68 377.279 559.68C378.839 559.68 379.879 558.78 379.879 557.14V556.52L377.199 556.72C375.959 556.8 375.379 557.44 375.379 558.22ZM386.644 561C385.284 561 384.704 560.48 384.704 559.18V547H386.644V558.58C386.644 559.08 386.824 559.3 387.324 559.3H388.544V561H386.644ZM398.582 561.28C395.982 561.28 394.442 560.24 394.342 558.26H396.342C396.442 559.22 397.222 559.7 398.622 559.7C399.902 559.7 400.682 559.16 400.682 558.28C400.682 557.56 400.142 557.14 399.142 557.04L397.602 556.88C395.802 556.7 394.662 555.7 394.662 554.1C394.662 552.26 396.202 551.1 398.562 551.1C400.962 551.1 402.442 552.1 402.562 554.06H400.622C400.562 553.14 399.802 552.68 398.542 552.68C397.342 552.68 396.582 553.18 396.582 554C396.582 554.7 397.102 555.08 398.222 555.22L399.782 555.4C401.602 555.6 402.642 556.62 402.642 558.2C402.642 560.08 401.062 561.28 398.582 561.28ZM408.308 561.28C405.968 561.28 404.528 559.84 404.528 557.18V551.38H406.468V557C406.468 558.72 407.268 559.52 408.668 559.52C410.128 559.52 411.068 558.48 411.068 556.94V551.38H413.008V561H411.288V559.9C410.648 560.84 409.548 561.28 408.308 561.28ZM420.859 561.28C419.359 561.28 418.139 560.68 417.519 559.62V561H415.799V547H417.739V552.54C418.359 551.62 419.479 551.1 420.859 551.1C423.599 551.1 425.479 553.14 425.479 556.18C425.479 559.24 423.599 561.28 420.859 561.28ZM417.699 556.18C417.699 558.18 418.839 559.52 420.579 559.52C422.319 559.52 423.479 558.18 423.479 556.18C423.479 554.2 422.319 552.86 420.579 552.86C418.839 552.86 417.699 554.2 417.699 556.18ZM431.087 561.28C428.487 561.28 426.947 560.24 426.847 558.26H428.847C428.947 559.22 429.727 559.7 431.127 559.7C432.407 559.7 433.187 559.16 433.187 558.28C433.187 557.56 432.647 557.14 431.647 557.04L430.107 556.88C428.307 556.7 427.167 555.7 427.167 554.1C427.167 552.26 428.707 551.1 431.067 551.1C433.467 551.1 434.947 552.1 435.067 554.06H433.127C433.067 553.14 432.307 552.68 431.047 552.68C429.847 552.68 429.087 553.18 429.087 554C429.087 554.7 429.607 555.08 430.727 555.22L432.287 555.4C434.107 555.6 435.147 556.62 435.147 558.2C435.147 560.08 433.567 561.28 431.087 561.28ZM441.393 561.28C438.513 561.28 436.653 559.14 436.653 556.22C436.653 553.22 438.613 551.1 441.513 551.1C443.953 551.1 445.613 552.52 445.833 554.54H443.853C443.673 553.64 442.873 552.86 441.493 552.86C439.773 552.86 438.653 554.16 438.653 556.18C438.653 558.24 439.793 559.52 441.453 559.52C442.753 559.52 443.693 558.76 443.893 557.64H445.873C445.613 559.56 444.013 561.28 441.393 561.28ZM447.66 561V551.38H449.38V552.94C449.62 551.98 450.34 551.38 451.48 551.38H453.32V553.08H451.3C450.1 553.08 449.6 553.76 449.6 555.06V561H447.66ZM454.764 561V551.38H456.704V561H454.764ZM454.644 549.44V547.14H456.804V549.44H454.644ZM459.623 564.6V551.38H461.343V552.74C461.963 551.7 463.183 551.1 464.683 551.1C467.423 551.1 469.303 553.14 469.303 556.18C469.303 559.24 467.423 561.28 464.683 561.28C463.303 561.28 462.183 560.76 461.563 559.82V564.6H459.623ZM461.523 556.18C461.523 558.18 462.663 559.52 464.403 559.52C466.143 559.52 467.303 558.18 467.303 556.18C467.303 554.2 466.143 552.86 464.403 552.86C462.663 552.86 461.523 554.2 461.523 556.18ZM474.876 561C473.216 561 472.496 560.34 472.496 558.68V553.08H469.976V551.38H472.496V548.5H474.436V551.38H477.456V553.08H474.436V558.3C474.436 559 474.716 559.3 475.456 559.3H477.456V561H474.876ZM479.321 561V551.38H481.261V561H479.321ZM479.201 549.44V547.14H481.361V549.44H479.201ZM488.421 561.28C485.501 561.28 483.461 559.24 483.461 556.18C483.461 553.14 485.501 551.1 488.421 551.1C491.361 551.1 493.381 553.14 493.381 556.18C493.381 559.24 491.361 561.28 488.421 561.28ZM485.461 556.18C485.461 558.18 486.661 559.52 488.421 559.52C490.201 559.52 491.381 558.18 491.381 556.18C491.381 554.2 490.201 552.86 488.421 552.86C486.661 552.86 485.461 554.2 485.461 556.18ZM495.6 561V551.38H497.32V552.64C497.9 551.6 499.06 551.1 500.36 551.1C502.72 551.1 504.2 552.54 504.2 555.2V561H502.26V555.38C502.26 553.66 501.42 552.86 500 552.86C498.52 552.86 497.54 553.88 497.54 555.44V561H495.6Z" fill="#0D0D0D"/>
<rect x="396.25" y="575.5" width="64" height="20" rx="10" stroke="#0B8900"/>
<path d="M406.82 584.568H409.606V585.562H406.82V588.446H405.812V585.562H403.026V584.568H405.812V581.67H406.82V584.568ZM410.814 590V588.726H413.376V581.502H411.598V580.2H414.734V588.726H417.254V590H410.814ZM418.881 590V588.082H420.561V590H418.881ZM422.383 590V588.726H425.463C426.863 588.726 427.675 588.068 427.675 586.976C427.675 585.968 426.891 585.338 425.533 585.338H424.063V584.204L426.905 581.474H422.243V580.2H428.697V581.474L425.743 584.232H425.925C427.857 584.232 429.089 585.324 429.089 586.962C429.089 588.796 427.633 590 425.463 590H422.383ZM430.411 590V588.726H433.491C434.695 588.726 435.521 587.998 435.521 586.92C435.521 585.856 434.765 585.128 433.491 585.128H430.649V580.2H436.501V581.474H432.007V583.896H433.645C435.633 583.896 436.935 585.086 436.935 586.864C436.935 588.726 435.563 590 433.491 590H430.411ZM437.55 590L440.168 586.528L437.69 583.266H439.342L441.05 585.59L442.744 583.266H444.396L441.918 586.528L444.536 590H442.884L441.05 587.536L439.202 590H437.55Z" fill="#0B8900"/>
<path fill-rule="evenodd" clip-rule="evenodd" d="M447.75 585.625L451.25 580L454.75 585.625H451.856V590H450.644V585.625H447.75Z" fill="#0B8900"/>
<rect x="767.5" y="255" width="1" height="275" rx="0.5" fill="#0D0D0D" fill-opacity="0.2"/>
<rect x="808.5" y="255" width="289.25" height="264" rx="16" fill="#0D0D0D" fill-opacity="0.08"/>
<rect x="809" y="255.5" width="288.25" height="263" rx="15.5" stroke="#0D0D0D" stroke-opacity="0.08"/>
<path d="M933.489 491V484.344H921.489V481.528L932.273 468.6H936.593V481.528H940.273V484.344H936.593V491H933.489ZM924.945 481.528H933.489V471.288L924.945 481.528ZM942.246 487.064C942.246 482.936 944.166 481.016 947.75 479.992L950.886 479.096C953.35 478.392 954.502 477.208 954.502 475.192C954.502 472.984 952.934 471.512 950.534 471.512H943.334V468.6H950.534C954.79 468.6 957.734 471.192 957.734 475.192C957.734 478.424 955.558 480.632 952.422 481.592L948.582 482.744C946.374 483.416 945.478 484.504 945.478 486.52V488.088H957.542V491H942.246V487.064ZM965.006 467.832C966.585 467.832 967.78 468.461 968.59 469.72C969.401 470.957 969.806 472.707 969.806 474.968C969.806 477.229 969.412 479 968.622 480.28C967.854 481.539 966.649 482.168 965.006 482.168C964.004 482.168 963.15 481.88 962.446 481.304C961.742 480.728 961.209 479.907 960.846 478.84C960.505 477.752 960.334 476.461 960.334 474.968C960.334 472.707 960.708 470.957 961.454 469.72C962.201 468.461 963.385 467.832 965.006 467.832ZM965.006 469.816C964.196 469.816 963.598 470.253 963.214 471.128C962.852 471.981 962.67 473.261 962.67 474.968C962.67 476.675 962.852 477.965 963.214 478.84C963.598 479.715 964.196 480.152 965.006 480.152C965.838 480.152 966.457 479.725 966.862 478.872C967.268 477.997 967.47 476.696 967.47 474.968C967.47 473.261 967.268 471.981 966.862 471.128C966.457 470.253 965.838 469.816 965.006 469.816ZM979.63 468.152L966.958 491H964.494L977.166 468.152H979.63ZM978.99 476.984C980.036 476.984 980.91 477.272 981.614 477.848C982.318 478.403 982.852 479.213 983.214 480.28C983.598 481.325 983.79 482.605 983.79 484.12C983.79 486.381 983.396 488.152 982.606 489.432C981.838 490.691 980.633 491.32 978.99 491.32C977.988 491.32 977.134 491.032 976.43 490.456C975.726 489.88 975.193 489.059 974.83 487.992C974.489 486.904 974.318 485.613 974.318 484.12C974.318 481.859 974.692 480.109 975.438 478.872C976.185 477.613 977.369 476.984 978.99 476.984ZM978.99 479C978.18 479 977.582 479.427 977.198 480.28C976.836 481.133 976.654 482.413 976.654 484.12C976.654 485.848 976.836 487.149 977.198 488.024C977.582 488.877 978.18 489.304 978.99 489.304C979.822 489.304 980.441 488.877 980.846 488.024C981.252 487.171 981.454 485.869 981.454 484.12C981.454 482.413 981.252 481.133 980.846 480.28C980.441 479.427 979.822 479 978.99 479Z" fill="#0D0D0D"/>
<rect x="1117.75" y="315" width="289.25" height="204" rx="16" fill="#0D0D0D"/>
<path d="M1218.72 491V488.088H1225.76C1228.96 488.088 1230.82 486.584 1230.82 484.088C1230.82 481.784 1229.02 480.344 1225.92 480.344H1222.56V477.752L1229.06 471.512H1218.4V468.6H1233.15V471.512L1226.4 477.816H1226.82C1231.23 477.816 1234.05 480.312 1234.05 484.056C1234.05 488.248 1230.72 491 1225.76 491H1218.72ZM1237.21 487.064C1237.21 482.936 1239.13 481.016 1242.72 479.992L1245.85 479.096C1248.32 478.392 1249.47 477.208 1249.47 475.192C1249.47 472.984 1247.9 471.512 1245.5 471.512H1238.3V468.6H1245.5C1249.76 468.6 1252.7 471.192 1252.7 475.192C1252.7 478.424 1250.53 480.632 1247.39 481.592L1243.55 482.744C1241.34 483.416 1240.45 484.504 1240.45 486.52V488.088H1252.51V491H1237.21V487.064ZM1256.39 491V486.616H1260.23V491H1256.39ZM1264.14 491V488.088H1271.18C1273.93 488.088 1275.82 486.424 1275.82 483.96C1275.82 481.528 1274.09 479.864 1271.18 479.864H1264.68V468.6H1278.06V471.512H1267.79V477.048H1271.53C1276.08 477.048 1279.05 479.768 1279.05 483.832C1279.05 488.088 1275.92 491 1271.18 491H1264.14ZM1286.34 467.832C1287.91 467.832 1289.11 468.461 1289.92 469.72C1290.73 470.957 1291.14 472.707 1291.14 474.968C1291.14 477.229 1290.74 479 1289.95 480.28C1289.18 481.539 1287.98 482.168 1286.34 482.168C1285.33 482.168 1284.48 481.88 1283.78 481.304C1283.07 480.728 1282.54 479.907 1282.18 478.84C1281.83 477.752 1281.66 476.461 1281.66 474.968C1281.66 472.707 1282.04 470.957 1282.78 469.72C1283.53 468.461 1284.71 467.832 1286.34 467.832ZM1286.34 469.816C1285.52 469.816 1284.93 470.253 1284.54 471.128C1284.18 471.981 1284 473.261 1284 474.968C1284 476.675 1284.18 477.965 1284.54 478.84C1284.93 479.715 1285.52 480.152 1286.34 480.152C1287.17 480.152 1287.79 479.725 1288.19 478.872C1288.6 477.997 1288.8 476.696 1288.8 474.968C1288.8 473.261 1288.6 471.981 1288.19 471.128C1287.79 470.253 1287.17 469.816 1286.34 469.816ZM1300.96 468.152L1288.29 491H1285.82L1298.5 468.152H1300.96ZM1300.32 476.984C1301.36 476.984 1302.24 477.272 1302.94 477.848C1303.65 478.403 1304.18 479.213 1304.54 480.28C1304.93 481.325 1305.12 482.605 1305.12 484.12C1305.12 486.381 1304.72 488.152 1303.94 489.432C1303.17 490.691 1301.96 491.32 1300.32 491.32C1299.32 491.32 1298.46 491.032 1297.76 490.456C1297.06 489.88 1296.52 489.059 1296.16 487.992C1295.82 486.904 1295.65 485.613 1295.65 484.12C1295.65 481.859 1296.02 480.109 1296.77 478.872C1297.51 477.613 1298.7 476.984 1300.32 476.984ZM1300.32 479C1299.51 479 1298.91 479.427 1298.53 480.28C1298.16 481.133 1297.98 482.413 1297.98 484.12C1297.98 485.848 1298.16 487.149 1298.53 488.024C1298.91 488.877 1299.51 489.304 1300.32 489.304C1301.15 489.304 1301.77 488.877 1302.18 488.024C1302.58 487.171 1302.78 485.869 1302.78 484.12C1302.78 482.413 1302.58 481.133 1302.18 480.28C1301.77 479.427 1301.15 479 1300.32 479Z" fill="white"/>
<path d="M1035.2 561V548.88H1030.8V547H1041.6V548.88H1037.2V561H1035.2ZM1041.82 561V551.38H1043.54V552.94C1043.78 551.98 1044.5 551.38 1045.64 551.38H1047.48V553.08H1045.46C1044.26 553.08 1043.76 553.76 1043.76 555.06V561H1041.82ZM1048.92 561V551.38H1050.86V561H1048.92ZM1048.8 549.44V547.14H1050.96V549.44H1048.8ZM1056.56 561.28C1054.34 561.28 1052.94 560.12 1052.94 558.28C1052.94 556.56 1054.1 555.32 1056.46 555.18L1059.38 555.02V554.48C1059.38 553.22 1058.76 552.7 1057.44 552.7C1056.16 552.7 1055.52 553.04 1055.36 554.06H1053.42C1053.64 552.08 1055 551.1 1057.58 551.1C1059.88 551.1 1061.22 552.26 1061.22 554.38V559.08C1061.22 559.3 1061.32 559.4 1061.54 559.4H1062.36V561H1060.8C1060.14 561 1059.76 560.64 1059.76 560V559.72C1059.2 560.7 1058.06 561.28 1056.56 561.28ZM1054.88 558.22C1054.88 559.1 1055.6 559.68 1056.78 559.68C1058.34 559.68 1059.38 558.78 1059.38 557.14V556.52L1056.7 556.72C1055.46 556.8 1054.88 557.44 1054.88 558.22ZM1066.14 561C1064.78 561 1064.2 560.48 1064.2 559.18V547H1066.14V558.58C1066.14 559.08 1066.32 559.3 1066.82 559.3H1068.04V561H1066.14ZM1078.08 561.28C1075.48 561.28 1073.94 560.24 1073.84 558.26H1075.84C1075.94 559.22 1076.72 559.7 1078.12 559.7C1079.4 559.7 1080.18 559.16 1080.18 558.28C1080.18 557.56 1079.64 557.14 1078.64 557.04L1077.1 556.88C1075.3 556.7 1074.16 555.7 1074.16 554.1C1074.16 552.26 1075.7 551.1 1078.06 551.1C1080.46 551.1 1081.94 552.1 1082.06 554.06H1080.12C1080.06 553.14 1079.3 552.68 1078.04 552.68C1076.84 552.68 1076.08 553.18 1076.08 554C1076.08 554.7 1076.6 555.08 1077.72 555.22L1079.28 555.4C1081.1 555.6 1082.14 556.62 1082.14 558.2C1082.14 560.08 1080.56 561.28 1078.08 561.28ZM1087.81 561.28C1085.47 561.28 1084.03 559.84 1084.03 557.18V551.38H1085.97V557C1085.97 558.72 1086.77 559.52 1088.17 559.52C1089.63 559.52 1090.57 558.48 1090.57 556.94V551.38H1092.51V561H1090.79V559.9C1090.15 560.84 1089.05 561.28 1087.81 561.28ZM1100.36 561.28C1098.86 561.28 1097.64 560.68 1097.02 559.62V561H1095.3V547H1097.24V552.54C1097.86 551.62 1098.98 551.1 1100.36 551.1C1103.1 551.1 1104.98 553.14 1104.98 556.18C1104.98 559.24 1103.1 561.28 1100.36 561.28ZM1097.2 556.18C1097.2 558.18 1098.34 559.52 1100.08 559.52C1101.82 559.52 1102.98 558.18 1102.98 556.18C1102.98 554.2 1101.82 552.86 1100.08 552.86C1098.34 552.86 1097.2 554.2 1097.2 556.18ZM1110.59 561.28C1107.99 561.28 1106.45 560.24 1106.35 558.26H1108.35C1108.45 559.22 1109.23 559.7 1110.63 559.7C1111.91 559.7 1112.69 559.16 1112.69 558.28C1112.69 557.56 1112.15 557.14 1111.15 557.04L1109.61 556.88C1107.81 556.7 1106.67 555.7 1106.67 554.1C1106.67 552.26 1108.21 551.1 1110.57 551.1C1112.97 551.1 1114.45 552.1 1114.57 554.06H1112.63C1112.57 553.14 1111.81 552.68 1110.55 552.68C1109.35 552.68 1108.59 553.18 1108.59 554C1108.59 554.7 1109.11 555.08 1110.23 555.22L1111.79 555.4C1113.61 555.6 1114.65 556.62 1114.65 558.2C1114.65 560.08 1113.07 561.28 1110.59 561.28ZM1120.89 561.28C1118.01 561.28 1116.15 559.14 1116.15 556.22C1116.15 553.22 1118.11 551.1 1121.01 551.1C1123.45 551.1 1125.11 552.52 1125.33 554.54H1123.35C1123.17 553.64 1122.37 552.86 1120.99 552.86C1119.27 552.86 1118.15 554.16 1118.15 556.18C1118.15 558.24 1119.29 559.52 1120.95 559.52C1122.25 559.52 1123.19 558.76 1123.39 557.64H1125.37C1125.11 559.56 1123.51 561.28 1120.89 561.28ZM1127.16 561V551.38H1128.88V552.94C1129.12 551.98 1129.84 551.38 1130.98 551.38H1132.82V553.08H1130.8C1129.6 553.08 1129.1 553.76 1129.1 555.06V561H1127.16ZM1134.26 561V551.38H1136.2V561H1134.26ZM1134.14 549.44V547.14H1136.3V549.44H1134.14ZM1139.12 564.6V551.38H1140.84V552.74C1141.46 551.7 1142.68 551.1 1144.18 551.1C1146.92 551.1 1148.8 553.14 1148.8 556.18C1148.8 559.24 1146.92 561.28 1144.18 561.28C1142.8 561.28 1141.68 560.76 1141.06 559.82V564.6H1139.12ZM1141.02 556.18C1141.02 558.18 1142.16 559.52 1143.9 559.52C1145.64 559.52 1146.8 558.18 1146.8 556.18C1146.8 554.2 1145.64 552.86 1143.9 552.86C1142.16 552.86 1141.02 554.2 1141.02 556.18ZM1154.38 561C1152.72 561 1152 560.34 1152 558.68V553.08H1149.48V551.38H1152V548.5H1153.94V551.38H1156.96V553.08H1153.94V558.3C1153.94 559 1154.22 559.3 1154.96 559.3H1156.96V561H1154.38ZM1158.82 561V551.38H1160.76V561H1158.82ZM1158.7 549.44V547.14H1160.86V549.44H1158.7ZM1167.92 561.28C1165 561.28 1162.96 559.24 1162.96 556.18C1162.96 553.14 1165 551.1 1167.92 551.1C1170.86 551.1 1172.88 553.14 1172.88 556.18C1172.88 559.24 1170.86 561.28 1167.92 561.28ZM1164.96 556.18C1164.96 558.18 1166.16 559.52 1167.92 559.52C1169.7 559.52 1170.88 558.18 1170.88 556.18C1170.88 554.2 1169.7 552.86 1167.92 552.86C1166.16 552.86 1164.96 554.2 1164.96 556.18ZM1175.1 561V551.38H1176.82V552.64C1177.4 551.6 1178.56 551.1 1179.86 551.1C1182.22 551.1 1183.7 552.54 1183.7 555.2V561H1181.76V555.38C1181.76 553.66 1180.92 552.86 1179.5 552.86C1178.02 552.86 1177.04 553.88 1177.04 555.44V561H1175.1Z" fill="#0D0D0D"/>
<rect x="1076.25" y="575.5" width="63" height="20" rx="10" stroke="#0B8900"/>
<path d="M1083.12 587.004V585.702H1087.38V587.004H1083.12ZM1087.87 590V588.726H1090.43V581.502H1088.66V580.2H1091.79V588.726H1094.31V590H1087.87ZM1095.94 590V588.082H1097.62V590H1095.94ZM1099.98 588.278C1099.98 586.472 1100.82 585.632 1102.38 585.184L1103.76 584.792C1104.83 584.484 1105.34 583.966 1105.34 583.084C1105.34 582.118 1104.65 581.474 1103.6 581.474H1100.45V580.2H1103.6C1105.46 580.2 1106.75 581.334 1106.75 583.084C1106.75 584.498 1105.8 585.464 1104.43 585.884L1102.75 586.388C1101.78 586.682 1101.39 587.158 1101.39 588.04V588.726H1106.67V590H1099.98V588.278ZM1111.86 580.004C1114.05 580.004 1115.59 581.502 1115.59 584.526C1115.59 587.886 1114.29 590 1111 590H1109.13V588.726H1111C1113.27 588.726 1114.1 587.578 1114.21 585.422C1113.77 586.108 1112.88 586.598 1111.65 586.598C1109.67 586.598 1108.29 585.226 1108.29 583.336C1108.29 581.418 1109.74 580.004 1111.86 580.004ZM1109.7 583.294C1109.7 584.512 1110.61 585.352 1111.9 585.352C1113.19 585.352 1114.08 584.526 1114.08 583.294C1114.08 582.076 1113.19 581.236 1111.9 581.236C1110.61 581.236 1109.7 582.076 1109.7 583.294ZM1116.55 590L1119.17 586.528L1116.69 583.266H1118.34L1120.05 585.59L1121.74 583.266H1123.4L1120.92 586.528L1123.54 590H1121.88L1120.05 587.536L1118.2 590H1116.55Z" fill="#0B8900"/>
<path fill-rule="evenodd" clip-rule="evenodd" d="M1133.75 584.875L1130.25 590.5L1126.75 584.875H1129.64V580.5H1130.86V584.875H1133.75Z" fill="#0B8900"/>
</g>
<defs>
<clipPath id="clip0_3920_20705">
<rect width="1278" height="432" fill="white" transform="translate(129 164)"/>
</clipPath>
</defs>
</svg>
