<svg width="1278" height="432" viewBox="0 0 1278 432" fill="none" xmlns="http://www.w3.org/2000/svg">
<g clip-path="url(#clip0_6624_23653)">
<rect x="770" y="260.5" width="156" height="96" rx="12" fill="#D1D1D1"/>
<rect x="802" y="292.5" width="80" height="2" rx="1" fill="#0D0D0D"/>
<rect x="802" y="302.5" width="20" height="2" rx="1" fill="#0D0D0D"/>
<rect x="802" y="312.5" width="56" height="2" rx="1" fill="#0D0D0D"/>
<rect x="802" y="322.5" width="40" height="2" rx="1" fill="#0D0D0D"/>
<rect x="280" y="56.5" width="156" height="96" rx="12" fill="#D1D1D1"/>
<rect x="312" y="88.5" width="80" height="2" rx="1" fill="#0D0D0D"/>
<rect x="312" y="98.5" width="20" height="2" rx="1" fill="#0D0D0D"/>
<rect x="312" y="108.5" width="56" height="2" rx="1" fill="#0D0D0D"/>
<rect x="312" y="118.5" width="40" height="2" rx="1" fill="#0D0D0D"/>
<rect x="472" y="308.5" width="156" height="96" rx="12" fill="#D1D1D1"/>
<rect x="504" y="340.5" width="80" height="2" rx="1" fill="#0D0D0D"/>
<rect x="504" y="350.5" width="20" height="2" rx="1" fill="#0D0D0D"/>
<rect x="504" y="360.5" width="56" height="2" rx="1" fill="#0D0D0D"/>
<rect x="504" y="370.5" width="40" height="2" rx="1" fill="#0D0D0D"/>
<rect y="279.5" width="156" height="152" rx="12" fill="#AEAEAE"/>
<rect x="32" y="311.5" width="80" height="2" rx="1" fill="#0D0D0D"/>
<rect x="32" y="321.5" width="20" height="2" rx="1" fill="#0D0D0D"/>
<rect x="32" y="331.5" width="56" height="2" rx="1" fill="#0D0D0D"/>
<rect x="32" y="341.5" width="40" height="2" rx="1" fill="#0D0D0D"/>
<rect x="32" y="367.5" width="40" height="2" rx="1" fill="#0D0D0D"/>
<rect x="32" y="377.5" width="20" height="2" rx="1" fill="#0D0D0D"/>
<rect x="32" y="387.5" width="48" height="2" rx="1" fill="#0D0D0D"/>
<rect x="32" y="397.5" width="56" height="2" rx="1" fill="#0D0D0D"/>
<rect x="692" y="0.5" width="156" height="152" rx="12" fill="#AEAEAE"/>
<rect x="724" y="32.5" width="80" height="2" rx="1" fill="#0D0D0D"/>
<rect x="724" y="42.5" width="20" height="2" rx="1" fill="#0D0D0D"/>
<rect x="724" y="52.5" width="56" height="2" rx="1" fill="#0D0D0D"/>
<rect x="724" y="62.5" width="40" height="2" rx="1" fill="#0D0D0D"/>
<rect x="724" y="88.5" width="40" height="2" rx="1" fill="#0D0D0D"/>
<rect x="724" y="98.5" width="20" height="2" rx="1" fill="#0D0D0D"/>
<rect x="724" y="108.5" width="48" height="2" rx="1" fill="#0D0D0D"/>
<rect x="724" y="118.5" width="56" height="2" rx="1" fill="#0D0D0D"/>
<rect x="1122" y="139.5" width="156" height="152" rx="12" fill="#AEAEAE"/>
<rect x="1154" y="171.5" width="80" height="2" rx="1" fill="#0D0D0D"/>
<rect x="1154" y="181.5" width="20" height="2" rx="1" fill="#0D0D0D"/>
<rect x="1154" y="191.5" width="56" height="2" rx="1" fill="#0D0D0D"/>
<rect x="1154" y="201.5" width="40" height="2" rx="1" fill="#0D0D0D"/>
<rect x="1154" y="227.5" width="40" height="2" rx="1" fill="#0D0D0D"/>
<rect x="1154" y="237.5" width="20" height="2" rx="1" fill="#0D0D0D"/>
<rect x="1154" y="247.5" width="48" height="2" rx="1" fill="#0D0D0D"/>
<rect x="1154" y="257.5" width="56" height="2" rx="1" fill="#0D0D0D"/>
<rect x="544.5" y="273" width="11" height="11" rx="5.5" stroke="#0D0D0D"/>
<circle cx="550" cy="278.5" r="3.5" fill="#0D0D0D"/>
<rect x="842.5" y="380" width="11" height="11" rx="5.5" stroke="#0D0D0D"/>
<circle cx="848" cy="385.5" r="3.5" fill="#0D0D0D"/>
<rect x="352.5" y="177" width="11" height="11" rx="5.5" stroke="#0D0D0D"/>
<circle cx="358" cy="182.5" r="3.5" fill="#0D0D0D"/>
<path fill-rule="evenodd" clip-rule="evenodd" d="M1093 212.613L1098 215.5L1093 218.387V216L1040 216C1031.44 216 1024.5 222.94 1024.5 231.5V415.5C1024.5 424.613 1017.11 432 1008 432H864C854.887 432 847.5 424.613 847.5 415.5V397.5H848.5V415.5C848.5 424.06 855.44 431 864 431H1008C1016.56 431 1023.5 424.06 1023.5 415.5V231.5C1023.5 222.387 1030.89 215 1040 215L1093 215V212.613Z" fill="#0D0D0D"/>
<path d="M770 176.5L767.113 181.5H769.5V214.5C769.5 223.06 762.56 230 754 230H556V231H754C763.113 231 770.5 223.613 770.5 214.5V181.5H772.887L770 176.5Z" fill="#0D0D0D"/>
<path d="M544 231V230H374C365.44 230 358.5 223.06 358.5 214.5V194.5H357.5V214.5C357.5 223.613 364.887 231 374 231H544Z" fill="#0D0D0D"/>
<path fill-rule="evenodd" clip-rule="evenodd" d="M77.5 16.5C77.5 7.3873 84.8873 0 94 0L534 0C543.113 0 550.5 7.3873 550.5 16.5V266.5H549.5V16.5C549.5 7.93959 542.56 1 534 1L94 1C85.4396 1 78.5 7.93959 78.5 16.5L78.5 251.5H80.8868L78 256.5L75.1133 251.5H77.5L77.5 16.5Z" fill="#0D0D0D"/>
</g>
<defs>
<clipPath id="clip0_6624_23653">
<rect width="1278" height="432" fill="white"/>
</clipPath>
</defs>
</svg>
