<svg width="32" height="32" viewBox="0 0 32 32" fill="none" xmlns="http://www.w3.org/2000/svg">
<g clip-path="url(#clip0_3758_19547)">
<circle cx="16" cy="16" r="16" fill="#552D99"/>
<path d="M15.7629 7.39247C15.824 7.30072 15.8699 7.163 15.8699 6.94878C15.3957 6.94878 15.2886 7.16299 15.2886 7.34663H15.1968V6.27546H15.2886C15.2886 6.4591 15.3957 6.67332 15.8699 6.67332C15.8699 6.21422 15.6557 6.09182 15.4721 6.09182V6H16.5431V6.09182C16.3595 6.09182 16.1453 6.19897 16.1453 6.67324C16.6043 6.67324 16.7267 6.4591 16.7267 6.27546H16.8185V7.34656H16.7267C16.7267 7.163 16.6196 6.94878 16.1453 6.94878C16.1453 7.163 16.1912 7.30072 16.2525 7.39254C16.248 7.39254 16.2333 7.38996 16.2123 7.3863C16.1611 7.37734 16.0728 7.36188 16.0076 7.36188C15.8699 7.36188 15.7629 7.39247 15.7629 7.39247Z" fill="white"/>
<path d="M15.7629 7.39247V8.01987C15.4571 8.03446 15.2345 8.09054 15.1082 8.12236L15.1082 8.12237L15.1081 8.12238L15.0897 8.12702C15.1663 7.77507 15.4263 7.48429 15.7629 7.39247Z" fill="white"/>
<path d="M16.2525 7.39254L16.2524 7.39247C16.6043 7.48429 16.8644 7.75974 16.9255 8.12702C16.9193 8.12546 16.9128 8.12382 16.906 8.12211L16.9059 8.12209C16.7794 8.09029 16.5572 8.03442 16.2524 8.01987L16.2525 7.39254Z" fill="white"/>
<path d="M14.539 8.64728C14.4165 8.64728 14.3095 8.75443 14.3095 8.87683C14.3095 9.01456 14.4165 9.12163 14.539 9.10638C14.6614 9.10638 14.7685 9.01456 14.7685 8.87683C14.7685 8.75443 14.6614 8.64728 14.539 8.64728Z" fill="white"/>
<path d="M11.4945 10.2693C11.372 10.2693 11.265 10.3764 11.265 10.4988C11.265 10.6212 11.3721 10.7284 11.4945 10.7284C11.6169 10.7284 11.724 10.6366 11.724 10.4988C11.724 10.3764 11.6321 10.2693 11.4945 10.2693Z" fill="white"/>
<path d="M11.372 9.67255C11.2496 9.67255 11.1425 9.76437 11.1425 9.9021C11.1425 10.0398 11.2496 10.1469 11.372 10.1316C11.4944 10.1316 11.6015 10.0246 11.6015 9.9021C11.6015 9.77962 11.4944 9.67255 11.372 9.67255Z" fill="white"/>
<path d="M11.418 9.07572C11.2955 9.07572 11.1885 9.18287 11.1885 9.30527H11.1884C11.1884 9.42767 11.2955 9.53482 11.4179 9.53482C11.5403 9.53482 11.6474 9.42767 11.6474 9.30527C11.6474 9.18287 11.5556 9.07572 11.418 9.07572Z" fill="white"/>
<path d="M11.7392 8.55546C11.6169 8.55546 11.5097 8.66261 11.5097 8.78501C11.5097 8.92274 11.6169 9.02981 11.7392 9.01456C11.8616 9.01456 11.9687 8.90741 11.9687 8.78501C11.9687 8.66261 11.8769 8.55546 11.7392 8.55546Z" fill="white"/>
<path d="M12.2288 8.20351C12.1064 8.20351 11.9993 8.31066 11.9993 8.43306C11.9993 8.57079 12.1064 8.67786 12.2288 8.66261C12.3512 8.66261 12.4583 8.57079 12.4583 8.43306C12.4583 8.31066 12.3512 8.20351 12.2288 8.20351Z" fill="white"/>
<path d="M12.8255 8.09636C12.703 8.09636 12.596 8.20351 12.596 8.32591C12.596 8.46364 12.703 8.57079 12.8255 8.55546C12.9479 8.55546 13.055 8.44831 13.055 8.32591C13.055 8.20351 12.9631 8.09636 12.8255 8.09636Z" fill="white"/>
<path d="M13.4068 8.21884C13.2844 8.21884 13.1773 8.32591 13.1773 8.44839C13.1773 8.58604 13.2844 8.69319 13.4068 8.67794C13.5292 8.67794 13.6363 8.57087 13.6363 8.44839C13.6363 8.32591 13.5445 8.21884 13.4068 8.21884Z" fill="white"/>
<path d="M13.9729 8.44831C13.8505 8.44831 13.7434 8.55546 13.7434 8.67786C13.7434 8.80034 13.8506 8.90741 13.9729 8.90741C14.0953 8.90741 14.2024 8.81559 14.2024 8.67786C14.2024 8.55546 14.1105 8.44831 13.9729 8.44831Z" fill="white"/>
<path d="M17.4763 8.64728C17.5987 8.64728 17.7059 8.75443 17.7059 8.87683C17.7059 9.01456 17.5987 9.12163 17.4763 9.10638C17.354 9.10638 17.2468 9.01456 17.2468 8.87683C17.2468 8.75443 17.354 8.64728 17.4763 8.64728Z" fill="white"/>
<path d="M20.5208 10.2693C20.6432 10.2693 20.7503 10.3764 20.7503 10.4988C20.7503 10.6212 20.6432 10.7284 20.5208 10.7284C20.3985 10.7284 20.2913 10.6366 20.2913 10.4988C20.2913 10.3764 20.3831 10.2693 20.5208 10.2693Z" fill="white"/>
<path d="M20.6432 9.67255C20.7656 9.67255 20.8727 9.76437 20.8727 9.9021C20.8727 10.0398 20.7656 10.1469 20.6432 10.1316C20.5208 10.1316 20.4137 10.0246 20.4137 9.9021C20.4137 9.77962 20.5208 9.67255 20.6432 9.67255Z" fill="white"/>
<path d="M20.582 9.07572C20.7044 9.07572 20.8115 9.18287 20.8115 9.30527C20.8115 9.42767 20.7198 9.53482 20.582 9.53482C20.4596 9.53482 20.3525 9.42767 20.3525 9.30527C20.3525 9.18287 20.4444 9.07572 20.582 9.07572Z" fill="white"/>
<path d="M20.276 8.55546C20.3985 8.55546 20.5055 8.66261 20.5055 8.78501C20.5055 8.92274 20.3985 9.02981 20.276 9.01456C20.1536 9.01456 20.0465 8.90741 20.0465 8.78501C20.0465 8.66261 20.1536 8.55546 20.276 8.55546Z" fill="white"/>
<path d="M19.7864 8.20351C19.9089 8.20351 20.0159 8.31066 20.0159 8.43306C20.0159 8.57079 19.9089 8.67786 19.7864 8.66261C19.6641 8.66261 19.5569 8.57079 19.5569 8.43306C19.5569 8.31066 19.6488 8.20351 19.7864 8.20351Z" fill="white"/>
<path d="M19.1898 8.09636C19.3122 8.09636 19.4193 8.20351 19.4193 8.32591C19.4193 8.46364 19.3122 8.57079 19.1898 8.55546C19.0674 8.55546 18.9603 8.44831 18.9603 8.32591C18.9603 8.20351 19.0521 8.09636 19.1898 8.09636Z" fill="white"/>
<path d="M18.5931 8.21884C18.7156 8.21884 18.8226 8.32591 18.8226 8.44839C18.8226 8.58604 18.7309 8.69319 18.5931 8.67794C18.4707 8.67794 18.3636 8.57087 18.3636 8.44839C18.3636 8.32591 18.4555 8.21884 18.5931 8.21884Z" fill="white"/>
<path d="M18.0272 8.44831C18.1495 8.44831 18.2567 8.55546 18.2567 8.67786C18.2567 8.80034 18.1648 8.90741 18.0272 8.90741C17.9047 8.90741 17.7977 8.81559 17.7977 8.67786C17.7977 8.55546 17.9048 8.44831 18.0272 8.44831Z" fill="white"/>
<path d="M17.767 11.9985C17.9047 11.9985 18.0272 12.1209 18.0272 12.2586C18.0272 12.3963 17.9048 12.5187 17.7671 12.5187C17.6294 12.5187 17.5069 12.3965 17.5069 12.2587C17.5069 12.1209 17.6293 11.9985 17.767 11.9985Z" fill="white"/>
<path d="M15.6557 12.2586L16.0076 12.6105L16.3595 12.2586L16.0076 11.9066L15.6557 12.2586Z" fill="white"/>
<path d="M14.2483 11.9985C14.1105 11.9985 13.9882 12.1209 13.9882 12.2586C13.9882 12.3963 14.1105 12.5187 14.2482 12.5187C14.3859 12.5187 14.5083 12.3965 14.5083 12.2587C14.5083 12.1209 14.3861 11.9985 14.2483 11.9985Z" fill="white"/>
<path fill-rule="evenodd" clip-rule="evenodd" d="M18.7768 18.8539V18.9304C18.7768 18.9304 18.901 18.9304 18.9143 18.9192C18.9126 18.968 18.8825 19.0873 18.8379 19.2211C18.8225 19.2824 18.792 19.3895 18.7461 19.4813H18.4248C18.4095 19.466 18.3942 19.4201 18.3942 19.3895C18.3942 19.313 18.4554 19.2364 18.5472 19.2364C18.5931 19.2364 18.6389 19.2517 18.6696 19.2823C18.6772 19.2671 18.6848 19.2481 18.6924 19.2291C18.7001 19.2099 18.7078 19.1906 18.7155 19.1752C18.7155 19.1676 18.7193 19.1561 18.7232 19.1446C18.727 19.1331 18.7308 19.1217 18.7308 19.114H18.2106V19.1446L18.2718 19.2823L18.1341 19.3436L17.9199 19.4506H17.5681C17.5527 19.4354 17.5375 19.3895 17.5375 19.3588C17.5375 19.2823 17.5986 19.2058 17.6904 19.2058C17.7669 19.2058 17.8281 19.2517 17.8435 19.3282L18.0271 19.2517V19.0375L16.6195 19.4813H16.2983C16.2829 19.466 16.2676 19.4201 16.2676 19.3895C16.2676 19.313 16.3288 19.2364 16.4206 19.2364C16.4971 19.2364 16.5583 19.2823 16.5736 19.3436L16.8337 19.2671L16.2676 18.808V18.5326C16.2983 18.5173 16.3441 18.5019 16.3747 18.5019C16.4512 18.5019 16.5277 18.5632 16.5277 18.6549C16.5277 18.7008 16.5124 18.7467 16.4819 18.7774L16.849 19.0681V18.7315L16.6195 18.5019H17.5222L17.2928 18.7315V18.9151H18.5932C18.639 18.9151 18.6697 18.8844 18.6697 18.8385C18.6697 18.7927 18.6391 18.7621 18.5932 18.7621H17.4763L17.6752 18.5632C17.7058 18.5325 17.7364 18.5173 17.7823 18.5173C17.8588 18.5173 17.9353 18.5937 17.9353 18.6702H18.5932C18.7002 18.6702 18.7768 18.7467 18.7768 18.8539ZM16.9255 18.7926L17.0785 18.9457L17.2315 18.7926H16.9255Z" fill="white"/>
<path d="M18.9143 18.9151C18.9143 18.9164 18.9143 18.9178 18.9143 18.9192C18.9157 18.918 18.9159 18.9166 18.9143 18.9151Z" fill="white"/>
<path fill-rule="evenodd" clip-rule="evenodd" d="M18.8074 17.7215C18.8074 17.7521 18.8074 17.7674 18.792 17.798L18.9756 17.7827V18.3489H18.5778C18.5625 18.3183 18.5472 18.2725 18.5472 18.2418C18.5472 18.1653 18.6084 18.0887 18.7002 18.0887C18.7461 18.0887 18.792 18.1194 18.8225 18.1499V17.9817H18.1953L18.2871 18.0735L18.4248 18.1959L18.2565 18.257L17.9046 18.3642H17.5528C17.5375 18.3336 17.5222 18.2877 17.5222 18.257C17.5222 18.1806 17.5834 18.1041 17.6751 18.1041C17.7517 18.1041 17.8128 18.15 17.8281 18.2111L18.0117 18.15V17.9204L16.6042 18.3642H16.2829C16.2676 18.3336 16.2524 18.2877 16.2524 18.257C16.2524 18.1806 16.3135 18.1041 16.4053 18.1041C16.4819 18.1041 16.543 18.15 16.5583 18.2111L16.8184 18.1346L16.2676 17.6909V17.4155C16.2983 17.4002 16.3441 17.3848 16.3747 17.3848C16.4512 17.3848 16.5277 17.4461 16.5277 17.5379C16.5277 17.5685 16.5124 17.6144 16.4819 17.645L16.849 17.9358V17.5991L16.6195 17.3695H17.5222L17.2927 17.5991V17.7827H18.6391C18.6849 17.7827 18.7156 17.7521 18.7156 17.7062C18.7156 17.6603 18.685 17.6296 18.6391 17.6296H17.4763L17.6752 17.4308C17.7058 17.4002 17.7364 17.3848 17.7823 17.3848C17.8588 17.3848 17.9353 17.4613 17.9353 17.5379H18.6238C18.7309 17.5379 18.8074 17.6144 18.8074 17.7215ZM16.9255 17.6603L17.0786 17.8133L17.2316 17.6603H16.9255Z" fill="white"/>
<path fill-rule="evenodd" clip-rule="evenodd" d="M17.9353 19.7873H18.2107C18.3178 19.7873 18.3943 19.8791 18.3943 19.971C18.3943 20.078 18.3178 20.1545 18.2107 20.1545H18.1036V20.3535L18.0577 20.3994C18.0118 20.4453 17.9506 20.4911 17.9047 20.5218C17.8665 20.5448 17.832 20.5677 17.7976 20.5907L17.7975 20.5907C17.7631 20.6137 17.7287 20.6366 17.6905 20.6595L17.6902 20.6594C17.6597 20.6441 17.6293 20.6288 17.614 20.5983C17.614 20.5907 17.6102 20.5792 17.6064 20.5677C17.6026 20.5562 17.5987 20.5448 17.5987 20.5371V20.4759C17.614 20.4453 17.6446 20.3994 17.6752 20.3841C17.6979 20.3691 17.7245 20.3611 17.7517 20.3611C17.7789 20.3611 17.8055 20.3691 17.8282 20.3841C17.8405 20.3759 17.8517 20.3688 17.8621 20.3622C17.8905 20.3442 17.9129 20.33 17.9353 20.3076L17.7823 20.1699C17.7058 20.2463 17.614 20.3076 17.5069 20.3687V20.7819C17.4458 20.8126 17.3845 20.8431 17.3081 20.8738C17.3081 20.8738 17.2469 20.8891 17.1857 20.9197C17.1245 20.9502 17.0632 20.9656 17.0632 20.9656L17.0626 20.965C17.0475 20.9498 17.0324 20.9345 17.0173 20.9043C16.9868 20.8278 17.0327 20.7361 17.1091 20.7054C17.155 20.6901 17.2163 20.7054 17.2622 20.736L17.3539 20.6901L17.1857 20.5371C17.1551 20.5448 17.1283 20.5562 17.1015 20.5677C17.0747 20.5792 17.048 20.5907 17.0173 20.5983L16.6043 21.088C16.5636 21.0931 16.5279 21.0982 16.4961 21.1027C16.4327 21.1118 16.385 21.1186 16.3443 21.1186L16.3441 21.1184C16.3288 21.0878 16.3136 21.0573 16.3136 21.0268C16.2983 20.9502 16.3595 20.8738 16.4513 20.8584C16.482 20.8584 16.5278 20.8584 16.5584 20.8891L16.9256 20.4452L16.895 20.4759L16.3136 19.9403V19.6803C16.3443 19.6649 16.3901 19.6496 16.4207 19.6496C16.4972 19.6496 16.5737 19.7108 16.5737 19.8026C16.5737 19.8485 16.5432 19.8944 16.5125 19.9251L16.8797 20.2617V19.8791L16.6502 19.6496H17.5528L17.3233 19.8791V20.0321H18.226C18.2719 20.0321 18.3025 20.0015 18.3025 19.9556C18.3025 19.9097 18.2719 19.8791 18.226 19.8791H17.4763L17.6752 19.6802C17.7058 19.6496 17.7364 19.6343 17.7823 19.6343C17.8588 19.6343 17.9353 19.7108 17.9353 19.7873ZM16.9255 19.9251L17.0786 20.078L17.2316 19.9251H16.9255Z" fill="white"/>
<path d="M18.3943 14.8753L18.5166 14.7529L18.532 15.013C18.532 15.0589 18.5167 15.0895 18.4861 15.1201C18.4249 15.166 18.3484 15.166 18.2872 15.1201L18.226 15.1813C18.1954 15.1967 18.1801 15.2578 18.2107 15.2885L18.3484 15.4721C18.379 15.5179 18.379 15.5639 18.379 15.6098C18.3637 15.6557 18.3484 15.7015 18.3025 15.7322C18.2566 15.7628 18.2107 15.7628 18.1648 15.7628C18.119 15.7628 18.0886 15.7325 18.058 15.702L18.0577 15.7017L18.2107 15.9006H18.5167V16.3902H18.0577C18.0272 16.3596 18.0118 16.329 18.0118 16.2831V16.2372C18.0424 16.176 18.0882 16.1301 18.1648 16.1301C18.2413 16.1301 18.3025 16.176 18.3178 16.2372H18.3637V16.0689H17.9965L17.8894 15.9158L17.7976 15.7934H17.5528L17.6446 15.9158L17.7517 16.0689H16.9714C16.9408 16.0383 16.9255 16.0076 16.9255 15.9617V15.9158C16.9561 15.8546 17.0173 15.8087 17.0785 15.8087C17.155 15.8087 17.2162 15.8546 17.2315 15.9158H17.4457L17.3538 15.7934L17.1856 15.5639H17.614L17.5068 15.4109H16.8797C16.8644 15.3955 16.8491 15.3496 16.8491 15.3191C16.8491 15.3012 16.8543 15.2885 16.8587 15.278C16.8618 15.2705 16.8644 15.2642 16.8644 15.2578C16.8797 15.2119 16.941 15.166 17.0021 15.166C17.0632 15.166 17.1245 15.1967 17.1398 15.2578H17.4151L17.5529 15.1201H17.2927L16.9714 14.6611H16.9562V14.4009C16.9868 14.3856 17.0173 14.3703 17.048 14.3703C17.1245 14.3703 17.2009 14.4315 17.2009 14.5233C17.2009 14.5693 17.1857 14.6151 17.1551 14.6457L17.3846 14.9671H17.5835V14.7835C17.5987 14.7988 17.6294 14.7988 17.6446 14.7988C17.7058 14.7988 17.767 14.7376 17.767 14.6764C17.767 14.6152 17.7058 14.5539 17.6446 14.5539C17.6294 14.5539 17.5987 14.5539 17.5835 14.5693V14.4162L17.7211 14.2785H18.2872L18.1495 14.4162L18.2566 14.5233V14.7835L17.9353 15.0895V15.3496C17.9965 15.4415 18.1342 15.6251 18.1342 15.6251C18.1342 15.6404 18.1648 15.6557 18.1801 15.6557C18.2107 15.6557 18.226 15.6557 18.2412 15.6404C18.2566 15.6404 18.2719 15.6098 18.2719 15.5945C18.2719 15.5639 18.2719 15.5486 18.2566 15.5333L18.1189 15.3496C18.0577 15.2731 18.073 15.166 18.1495 15.1048L18.379 14.8906C18.379 14.8753 18.3943 14.8753 18.3943 14.8753Z" fill="white"/>
<path fill-rule="evenodd" clip-rule="evenodd" d="M16.5126 14.0031V16.6045H18.7769V14.0031H16.5126ZM18.6238 14.0796V14.1561H18.7002V15.1918C18.6956 15.1948 18.6903 15.1967 18.685 15.1967C18.6697 15.1967 18.6543 15.1813 18.6543 15.166L18.6697 15.1507L18.6543 15.1354C18.6238 15.1354 18.5932 15.1661 18.5932 15.1967C18.5932 15.2173 18.6072 15.238 18.6257 15.2493L18.5473 15.2884V15.3191L18.6391 15.365V15.3674C18.6144 15.3753 18.5932 15.4008 18.5932 15.4262C18.5932 15.4568 18.6238 15.4874 18.6543 15.4874L18.6697 15.4721V15.472L18.6543 15.4568C18.6543 15.4421 18.6684 15.4274 18.6831 15.4262H18.6869C18.6916 15.4266 18.6962 15.4283 18.7002 15.431V16.4514H18.6238V16.528H17.7719C17.7689 16.5233 17.767 16.5181 17.767 16.5128L17.767 16.5126L17.767 16.5125C17.7671 16.4972 17.7824 16.4821 17.7976 16.4821L17.8129 16.4973C17.8129 16.4897 17.8129 16.4859 17.8148 16.484C17.8167 16.4821 17.8206 16.4821 17.8282 16.4821C17.8282 16.4515 17.7975 16.4208 17.767 16.4208C17.7416 16.4208 17.7161 16.442 17.7083 16.4667H17.6993L17.6599 16.3749H17.6294L17.59 16.4667H17.581C17.5732 16.442 17.5477 16.4208 17.5222 16.4208C17.4915 16.4208 17.461 16.4515 17.461 16.4821C17.4687 16.4821 17.4725 16.4821 17.4744 16.484C17.4763 16.4859 17.4763 16.4897 17.4763 16.4973L17.4917 16.4821C17.5069 16.4821 17.5222 16.4973 17.5222 16.5126C17.5222 16.518 17.5204 16.5233 17.5173 16.528H16.6655V16.4514H16.589L16.589 15.4566C16.5891 15.442 16.6031 15.4274 16.6177 15.4262H16.6215C16.6362 15.4274 16.6502 15.4421 16.6502 15.4568L16.6349 15.472V15.4721C16.6349 15.4874 16.6502 15.4874 16.6502 15.4874C16.6808 15.4874 16.7114 15.4568 16.7114 15.4262C16.7114 15.3956 16.6808 15.365 16.6502 15.365C16.6493 15.365 16.6483 15.365 16.6474 15.3651L16.726 15.3257V15.2951L16.6513 15.2578C16.6815 15.2571 16.7114 15.2269 16.7114 15.1967C16.7114 15.1661 16.6808 15.1354 16.6502 15.1354C16.6502 15.1354 16.6349 15.1354 16.6349 15.1507L16.6502 15.166C16.6502 15.1813 16.6349 15.1967 16.6196 15.1967C16.6043 15.1967 16.5891 15.1814 16.589 15.1662L16.589 15.166L16.589 14.1561H16.6655V14.0796H17.4916C17.5069 14.0796 17.5222 14.0948 17.5222 14.1102C17.5222 14.1255 17.5069 14.1408 17.4917 14.1408L17.4763 14.1255C17.4763 14.1408 17.4763 14.1408 17.461 14.1408C17.461 14.1714 17.4915 14.202 17.5222 14.202C17.5528 14.202 17.5835 14.1714 17.5835 14.1408L17.6293 14.2326H17.6599L17.7058 14.1408C17.7058 14.1714 17.7365 14.202 17.767 14.202C17.7975 14.202 17.8282 14.1714 17.8282 14.1408C17.8129 14.1408 17.8129 14.1408 17.8129 14.1255L17.7976 14.1408C17.7823 14.1408 17.767 14.1255 17.767 14.1102C17.767 14.0948 17.7823 14.0796 17.7976 14.0796H18.6238ZM17.7058 14.1408C17.7058 14.1357 17.7067 14.1305 17.7083 14.1255H17.581C17.5826 14.1305 17.5835 14.1357 17.5835 14.1408H17.7058ZM17.7517 14.0796H17.767C17.7619 14.0796 17.7567 14.0804 17.7517 14.082V14.0796Z" fill="white"/>
<path fill-rule="evenodd" clip-rule="evenodd" d="M16.3289 13.743H16.3443C16.3443 13.697 16.3749 13.6664 16.4207 13.6664C16.4665 13.6664 16.4972 13.697 16.4972 13.7429V13.7735H16.482C16.4666 13.7582 16.4665 13.7582 16.4513 13.7582C16.4361 13.7582 16.4206 13.7735 16.4206 13.7888C16.4206 13.8041 16.4361 13.8194 16.4513 13.8194H17.5758L17.5375 13.743H17.7517L17.7135 13.8194H18.8379C18.8533 13.8194 18.8686 13.8041 18.8686 13.7888C18.8686 13.7735 18.8533 13.7582 18.8379 13.7582C18.8226 13.7582 18.8226 13.7582 18.8073 13.7735H18.792V13.7429C18.792 13.697 18.8227 13.6664 18.8685 13.6664C18.9143 13.6664 18.9451 13.697 18.9451 13.743H18.9603L19.098 13.6664L19.1133 13.6817L19.0369 13.8194L19.0369 13.8348C19.0827 13.8348 19.1133 13.8654 19.1133 13.9113C19.1133 13.9571 19.0828 13.9878 19.0369 13.9878H19.0062V13.9725C19.0215 13.9572 19.0215 13.9571 19.0215 13.9418C19.0215 13.9266 19.0063 13.9112 18.991 13.9112C18.9756 13.9112 18.9603 13.9266 18.9603 13.9418V15.2349L19.0369 15.1967V15.4109L18.9603 15.3726V16.6809L18.9603 16.6811C18.9604 16.6964 18.9757 16.7116 18.991 16.7116C19.0063 16.7116 19.0215 16.6963 19.0215 16.6809C19.0215 16.6744 19.0215 16.6707 19.0204 16.6673C19.0188 16.6628 19.015 16.6591 19.0062 16.6503V16.635H19.0369C19.0828 16.635 19.1133 16.6657 19.1133 16.7115C19.1133 16.7574 19.0827 16.7881 19.0369 16.7881L19.1133 16.9258L19.098 16.9564L18.9603 16.8646L18.9451 16.8646C18.9451 16.9104 18.9143 16.9411 18.8685 16.9411C18.8227 16.9411 18.792 16.9105 18.792 16.8646V16.834H18.8073C18.8226 16.8493 18.8226 16.8493 18.8379 16.8493C18.8533 16.8493 18.8686 16.834 18.8686 16.8187C18.8686 16.804 18.8545 16.7893 18.8399 16.7881H17.7058L17.7517 16.8799H17.5376L17.5834 16.7881H16.4494C16.4348 16.7893 16.4206 16.804 16.4206 16.8187C16.4206 16.834 16.4361 16.8493 16.4513 16.8493C16.4665 16.8493 16.4666 16.8493 16.482 16.834H16.4972V16.8646C16.4972 16.9105 16.4665 16.9411 16.4207 16.9411C16.3749 16.9411 16.3443 16.9104 16.3443 16.8646H16.3289L16.1912 16.9564L16.1759 16.9258L16.2524 16.7881C16.2065 16.7881 16.1759 16.7574 16.1759 16.7115C16.1759 16.6657 16.2065 16.635 16.2524 16.635H16.283V16.6503C16.2742 16.6591 16.2705 16.6628 16.2689 16.6673C16.2677 16.6707 16.2677 16.6744 16.2677 16.6809C16.2677 16.6963 16.2829 16.7116 16.2983 16.7116C16.3136 16.7116 16.3289 16.6963 16.3289 16.6809V15.3726L16.2524 15.4109V15.1967L16.3289 15.2349V13.9418C16.3289 13.9266 16.3136 13.9112 16.2983 13.9112C16.2829 13.9112 16.2677 13.9266 16.2677 13.9418C16.2677 13.9571 16.2677 13.9572 16.283 13.9725V13.9878H16.2524C16.2065 13.9878 16.1759 13.9571 16.1759 13.9113C16.1759 13.8654 16.2065 13.8348 16.2524 13.8348V13.8194L16.1759 13.6817L16.1912 13.6664L16.3289 13.743ZM16.4054 13.8194V13.8182C16.4103 13.819 16.4154 13.8194 16.4207 13.8194H16.4054ZM16.4054 15.3038V13.9113H18.8685L18.8838 16.7116H16.4054V15.3038ZM18.9603 13.9113C18.9603 13.9098 18.9604 13.9083 18.9604 13.9069L18.9603 13.9069V13.9113ZM18.8838 13.8182C18.879 13.819 18.8738 13.8194 18.8685 13.8194H18.8838V13.8182ZM18.9603 16.7159V16.7119C18.9603 16.7132 18.9604 16.7146 18.9604 16.7159L18.9603 16.7159ZM18.8838 16.7881V16.7893C18.879 16.7885 18.8738 16.7881 18.8685 16.7881H18.8838ZM16.3289 16.7115C16.3289 16.713 16.3289 16.7145 16.3288 16.7159L16.3289 16.7159V16.7115ZM16.4054 16.7893C16.4103 16.7885 16.4154 16.7881 16.4207 16.7881H16.4054V16.7893ZM16.3289 13.9069V13.9113C16.3289 13.9098 16.3289 13.9083 16.3288 13.9069L16.3289 13.9069Z" fill="white"/>
<path fill-rule="evenodd" clip-rule="evenodd" d="M15.5334 16.2372C15.5334 16.2678 15.5334 16.2831 15.518 16.3137L15.6864 16.3137V16.8799H15.2886L15.2885 16.8798C15.2732 16.8491 15.258 16.8186 15.258 16.7728C15.258 16.6963 15.3192 16.6198 15.411 16.6198C15.4569 16.6198 15.5027 16.6503 15.5334 16.6809V16.5126H14.9061L14.9979 16.6045L15.1356 16.7269L14.9673 16.7728L14.6154 16.8799H14.2942C14.2788 16.8493 14.2636 16.8187 14.2636 16.7728C14.2636 16.6963 14.3247 16.6198 14.4165 16.6198C14.4931 16.6198 14.5542 16.6656 14.5695 16.7269L14.7532 16.6657V16.4361L13.3457 16.8799H13.0244C13.009 16.8493 12.9938 16.8187 12.9938 16.7728C12.9938 16.6963 13.0549 16.6198 13.1467 16.6198C13.2232 16.6198 13.2844 16.6656 13.2997 16.7269L13.5598 16.6504L13.009 16.2066V15.9312C13.0396 15.9158 13.0703 15.9006 13.1162 15.9006C13.1926 15.9006 13.2691 15.9617 13.2691 16.0535C13.2691 16.0842 13.2539 16.13 13.2232 16.1607L13.5904 16.4514V16.1148L13.3609 15.8852H14.2636L14.0341 16.1148V16.2984H15.3651C15.4109 16.2984 15.4416 16.2678 15.4416 16.2219C15.4416 16.176 15.411 16.1454 15.3651 16.1454H14.2024L14.4013 15.9465C14.4318 15.9158 14.4624 15.9006 14.5083 15.9006C14.5848 15.9006 14.6613 15.977 14.6613 16.0535H15.3498C15.4569 16.0535 15.5334 16.1301 15.5334 16.2372ZM13.6363 16.176L13.7892 16.329L13.9423 16.176H13.6363Z" fill="white"/>
<path fill-rule="evenodd" clip-rule="evenodd" d="M15.5299 15.1967C15.5334 15.1824 15.5334 15.1694 15.5334 15.1507C15.5334 15.0436 15.4569 14.9671 15.3498 14.9671H14.6613C14.6613 14.8906 14.5848 14.8141 14.5083 14.8141C14.4624 14.8141 14.4318 14.8294 14.4013 14.86L14.2024 15.0589H15.3497C15.3956 15.0589 15.4262 15.0895 15.4262 15.1354C15.4262 15.1813 15.3956 15.2119 15.3497 15.2119H14.0188V15.0283L14.2483 14.7988H13.3456L13.5751 15.0283V15.365L13.2079 15.0743C13.2384 15.0436 13.2538 14.9977 13.2538 14.9671C13.2538 14.8753 13.1772 14.8141 13.1007 14.8141C13.0548 14.8141 13.0243 14.8294 12.9937 14.8447V15.1201L13.5444 15.5639L13.2843 15.6404C13.269 15.5792 13.2079 15.5333 13.1313 15.5333C13.0395 15.5333 12.9784 15.6098 12.9784 15.6863C12.9784 15.7169 12.9937 15.7628 13.009 15.7934H13.3302L14.7377 15.3496V15.5792L14.5541 15.6404C14.5389 15.5792 14.4777 15.5333 14.4012 15.5333C14.3094 15.5333 14.2482 15.6098 14.2482 15.6863C14.2482 15.7169 14.2635 15.7628 14.2788 15.7934H14.6154L14.9672 15.6863L15.1355 15.6251L14.9978 15.5027L14.906 15.4109H15.5333V15.5792C15.5026 15.5485 15.4568 15.5179 15.4109 15.5179C15.3191 15.5179 15.2579 15.5945 15.2579 15.671C15.2579 15.7017 15.2732 15.7475 15.2885 15.7782H15.6863V15.1967H15.5299ZM13.6363 15.0895L13.7892 15.2426L13.9423 15.0895H13.6363Z" fill="white"/>
<path fill-rule="evenodd" clip-rule="evenodd" d="M15.5334 14.049C15.5334 14.0796 15.5334 14.0948 15.518 14.1255L15.671 14.1102V14.6917H15.2732C15.2579 14.6611 15.2426 14.6305 15.2426 14.5846C15.2426 14.508 15.3038 14.4315 15.3956 14.4315C15.4415 14.4315 15.4874 14.4621 15.518 14.4928V14.3244H14.8908L14.9825 14.4162L15.1202 14.5387L14.9519 14.5846L14.6 14.6917H14.2788C14.2635 14.6611 14.2482 14.6305 14.2482 14.5846C14.2482 14.508 14.3094 14.4315 14.4012 14.4315C14.4777 14.4315 14.5389 14.4774 14.5541 14.5387L14.7377 14.4774V14.2479L13.3302 14.6917H13.009C12.9937 14.6611 12.9784 14.6305 12.9784 14.5846C12.9784 14.508 13.0395 14.4315 13.1313 14.4315C13.2079 14.4315 13.269 14.4774 13.2843 14.5387L13.5444 14.4621L12.9937 14.0183V13.743C13.0243 13.7276 13.0548 13.7123 13.1007 13.7123C13.1772 13.7123 13.2538 13.7735 13.2538 13.8654C13.2538 13.8959 13.2384 13.9418 13.2079 13.9724L13.5751 14.2632V13.9266L13.3456 13.697H14.2483L14.0188 13.9266V14.1102H15.3497C15.3956 14.1102 15.4262 14.0796 15.4262 14.0337C15.4262 13.9878 15.3956 13.9571 15.3497 13.9571H14.2024L14.4013 13.7582C14.4318 13.7276 14.4624 13.7123 14.5083 13.7123C14.5848 13.7123 14.6613 13.7889 14.6613 13.8654H15.3498C15.4569 13.8654 15.5334 13.9418 15.5334 14.049ZM13.6363 14.0031L13.7892 14.1561L13.9423 14.0031H13.6363Z" fill="white"/>
<path fill-rule="evenodd" clip-rule="evenodd" d="M15.2733 17.3848C15.4721 17.3848 15.6252 17.5379 15.6252 17.7369L15.5946 21.1186C15.5946 21.1186 15.3957 21.088 15.1815 21.0268C14.9673 20.9656 14.8295 20.9044 14.8295 20.9044L14.8909 20.4453C14.539 20.3076 14.2482 20.1087 14.0187 19.8791V19.8944C14.0187 19.9862 13.9423 20.0475 13.8658 20.0475C13.774 20.0475 13.7128 19.9862 13.7128 19.8944C13.7128 19.8026 13.7892 19.7414 13.8657 19.7414H13.8964C13.8199 19.6496 13.7587 19.5578 13.7128 19.466C13.6975 19.5272 13.6363 19.5884 13.5598 19.5884C13.468 19.5884 13.4068 19.5119 13.4068 19.4354C13.4068 19.3436 13.4833 19.2823 13.5598 19.2823C13.5904 19.2823 13.621 19.2823 13.6363 19.2976C13.6062 19.2223 13.5761 19.1321 13.5459 19.0417L13.5445 19.0375C13.5292 19.0223 13.5292 19.0069 13.5292 18.9916C13.5139 19.0374 13.4527 19.0681 13.4068 19.0681C13.315 19.0681 13.2539 18.9916 13.2539 18.9151C13.2539 18.8233 13.3303 18.7621 13.4068 18.7621C13.4371 18.7621 13.4675 18.7772 13.4979 18.7923L13.4986 18.7926C13.4833 18.6702 13.4833 18.5632 13.4833 18.4559C13.4527 18.4866 13.4068 18.5173 13.3609 18.5173C13.2691 18.5173 13.208 18.4407 13.208 18.3642C13.208 18.2725 13.2844 18.2111 13.3609 18.2111C13.4068 18.2111 13.4527 18.2265 13.4833 18.2725C13.4986 18.0735 13.5292 17.9051 13.5598 17.7827C13.4986 17.7521 13.4527 17.7215 13.4068 17.6756C13.4068 17.8133 13.315 17.9051 13.1926 17.9051C13.0703 17.9051 12.9785 17.8133 12.9785 17.6909C12.9787 17.6098 13.011 17.5321 13.0683 17.4748C13.1257 17.4174 13.2034 17.3851 13.2844 17.3848H15.2733ZM13.8505 17.9358C13.8351 17.9204 13.8198 17.9204 13.8198 17.9204C13.7281 18.4254 13.5904 19.5272 14.9367 20.1393L13.8505 17.9358ZM13.9728 17.9663L14.9673 19.971L15.0131 19.7108L14.1564 17.9817C14.0953 17.9817 14.0341 17.9817 13.9728 17.9663ZM14.2636 17.9663L15.0285 19.5272L15.0591 19.2517L14.4165 17.9357C14.3706 17.951 14.3247 17.9663 14.2636 17.9663ZM14.5083 17.9204L15.0897 19.0834L15.1203 18.808L14.646 17.8592C14.6001 17.8898 14.5542 17.9051 14.5083 17.9204ZM14.7378 17.8133L15.1509 18.6397L15.1815 18.3642L14.8602 17.7215C14.8296 17.7521 14.7837 17.7827 14.7378 17.8133ZM15.2121 18.2111L15.258 17.8745C15.2733 17.7521 15.1662 17.645 15.0438 17.6603C15.0132 17.6603 14.9827 17.6603 14.952 17.6756L15.2121 18.2111Z" fill="white"/>
<path d="M13.691 21.6396C13.8054 21.7121 13.9194 21.7843 13.9269 21.7919C13.9423 21.7613 14.2023 21.3634 14.2177 21.3634L14.3706 21.4552L13.7281 22.4652L13.5751 22.3734C13.5751 22.3734 13.8351 21.9603 13.8505 21.9449C13.8428 21.9372 13.7277 21.8643 13.6127 21.7915L13.6126 21.7914L13.6125 21.7914L13.6125 21.7913L13.6123 21.7912L13.6123 21.7912L13.6122 21.7911C13.4978 21.7187 13.3839 21.6465 13.3762 21.6389C13.361 21.6542 13.1008 22.0673 13.1008 22.0673L12.9479 21.9755L13.5751 20.9809V20.9656L13.7281 21.0574C13.7281 21.0574 13.468 21.4706 13.4527 21.4858C13.4603 21.4935 13.5759 21.5667 13.691 21.6396Z" fill="white"/>
<path fill-rule="evenodd" clip-rule="evenodd" d="M13.1773 20.5065C13.2691 20.6136 13.3303 20.7513 13.315 20.9043C13.2998 21.0727 13.2232 21.2257 13.1162 21.3482C12.8561 21.5777 12.4889 21.5624 12.2747 21.3175C12.1676 21.1951 12.1064 21.0574 12.1217 20.9043C12.1217 20.7513 12.1982 20.5983 12.3358 20.4759C12.5653 20.277 12.9172 20.2158 13.1773 20.5065ZM12.9784 21.2104C13.0703 21.1339 13.1314 21.0115 13.1314 20.9043C13.1314 20.7973 13.1008 20.7054 13.0397 20.6136C12.9784 20.5371 12.8866 20.4912 12.7795 20.4912C12.6725 20.4912 12.5501 20.5371 12.4583 20.6136C12.3665 20.7054 12.3053 20.8126 12.3053 20.9197C12.2899 21.0115 12.3206 21.1186 12.3971 21.1951C12.5501 21.3787 12.7948 21.3787 12.9784 21.2104Z" fill="white"/>
<path d="M11.8922 20.277C11.9534 20.2463 12.6877 19.9097 12.6877 19.9097L12.7489 20.0475L11.678 20.5524L11.6169 20.43C11.6169 20.43 12.0911 19.4965 12.1217 19.4354C12.0605 19.466 11.3261 19.8026 11.3261 19.8026L11.2496 19.6496L12.3206 19.1446H12.3358L12.3971 19.2823C12.3971 19.2823 11.9228 20.2158 11.8922 20.277Z" fill="white"/>
<path d="M12.3206 19.0069L11.1732 19.2976L11.1272 19.114L12.2747 18.8385L12.2899 18.8233L12.3206 19.0069Z" fill="white"/>
<path d="M11.6015 18.4101C11.6474 18.3948 11.6933 18.4101 11.7392 18.4407L11.7397 18.4412C11.7701 18.4717 11.8005 18.5022 11.8157 18.5632C11.8309 18.6702 11.7698 18.7621 11.6628 18.7774C11.6169 18.7926 11.571 18.7773 11.5251 18.7467C11.4792 18.7161 11.4485 18.6702 11.4485 18.6243C11.4333 18.5784 11.4486 18.5324 11.4792 18.4866C11.5097 18.4408 11.5556 18.4101 11.6015 18.4101Z" fill="white"/>
<path d="M11.6712 17.9698L11.6628 17.9817C11.6559 17.9908 11.6491 18 11.6422 18.0092C11.5569 18.124 11.4677 18.244 11.3261 18.2724C11.2343 18.2724 11.1578 18.2417 11.0966 18.1806C11.0355 18.1194 11.0049 18.0428 11.0049 17.9358C11.0049 17.8439 11.0354 17.7674 11.0967 17.6909H11.3262L11.2955 17.7062C11.2191 17.7675 11.1732 17.8592 11.1732 17.9358C11.1732 17.9817 11.1884 18.0276 11.2191 18.0581C11.2343 18.0735 11.2649 18.0887 11.2955 18.0887C11.3756 18.0887 11.4207 18.019 11.4715 17.9402L11.4716 17.9402L11.4716 17.9401L11.4717 17.94L11.4718 17.9398C11.4792 17.9284 11.4867 17.9167 11.4945 17.9051C11.5862 17.7675 11.678 17.6297 11.8922 17.6297C11.984 17.6297 12.0758 17.6603 12.137 17.7215C12.1828 17.7827 12.2135 17.8592 12.2135 17.9358C12.2135 18.0582 12.1829 18.15 12.1064 18.2418H11.8463L11.8769 18.2112C11.984 18.1346 12.0452 18.0428 12.0452 17.951C12.0452 17.9051 12.0299 17.8592 11.9993 17.8286C11.9687 17.798 11.9382 17.7828 11.9075 17.7828C11.8044 17.7828 11.7438 17.8679 11.6712 17.9698Z" fill="white"/>
<path fill-rule="evenodd" clip-rule="evenodd" d="M12.0605 17.4155C11.9228 17.492 11.7546 17.5226 11.5862 17.4767C11.4179 17.4461 11.2802 17.3389 11.1732 17.186C11.1273 17.1094 11.0966 17.0176 11.0966 16.9105C11.0966 16.8646 11.0966 16.8187 11.1119 16.7728C11.1885 16.4514 11.5097 16.2678 11.8464 16.3596C12.0145 16.3902 12.1676 16.4973 12.244 16.635C12.3206 16.7574 12.3358 16.9104 12.3053 17.0635C12.2747 17.2165 12.1829 17.3389 12.0605 17.4155ZM11.4791 16.5739C11.4027 16.635 11.3415 16.7115 11.3109 16.8187C11.2496 17.0482 11.3874 17.2471 11.6169 17.293C11.8616 17.3543 12.0758 17.2319 12.137 17.0176C12.1523 16.9105 12.137 16.8187 12.0911 16.7269C12.0452 16.635 11.9381 16.5586 11.8157 16.528C11.6933 16.4973 11.571 16.5126 11.4791 16.5739Z" fill="white"/>
<path fill-rule="evenodd" clip-rule="evenodd" d="M16.7419 23.3221C16.5278 23.3221 16.3443 23.1385 16.3443 22.9243V22.9242C16.3443 22.7101 16.5125 22.5417 16.742 22.5264C16.9562 22.5264 17.1398 22.7101 17.1398 22.9243C17.1398 23.1385 16.9561 23.3221 16.7419 23.3221ZM16.7419 22.7253C16.6349 22.7253 16.5431 22.8171 16.5431 22.9242L16.5432 22.9243C16.5432 23.0467 16.6196 23.1232 16.742 23.1232C16.8491 23.1232 16.9409 23.0313 16.9409 22.9242C16.9409 22.8171 16.849 22.7253 16.7419 22.7253Z" fill="white"/>
<path d="M20.429 16.6963C20.4596 16.7881 20.4137 16.8952 20.3067 16.9258C20.2149 16.9411 20.1078 16.8952 20.0772 16.8033C20.0618 16.7574 20.0618 16.7115 20.0925 16.6656C20.1077 16.6198 20.1536 16.5893 20.1995 16.5739C20.2454 16.5585 20.2913 16.5585 20.3372 16.5891C20.3831 16.6045 20.4137 16.6504 20.429 16.6963Z" fill="white"/>
<path d="M19.8019 17.5072L19.7712 17.3389C19.7712 17.3389 20.3831 17.2471 20.3831 17.2319C20.3985 17.2165 20.8727 16.7728 20.8727 16.7728L20.888 16.7574L20.9186 16.9717C20.9186 16.9717 20.5974 17.2624 20.5667 17.293L20.9951 17.5072L21.0257 17.7215C21.0257 17.7215 20.429 17.4155 20.4137 17.4155L19.8019 17.5072Z" fill="white"/>
<path d="M20.3067 18.0735C20.2608 18.0276 20.2454 17.9817 20.2454 17.9358C20.2454 17.8286 20.322 17.7368 20.429 17.7215C20.4903 17.7215 20.5361 17.752 20.5667 17.7827C20.6126 17.8286 20.628 17.8745 20.628 17.9205C20.628 17.9817 20.6126 18.0276 20.5821 18.0581C20.5362 18.1041 20.4903 18.1194 20.4444 18.1194C20.3831 18.1346 20.3373 18.1041 20.3067 18.0735Z" fill="white"/>
<path fill-rule="evenodd" clip-rule="evenodd" d="M19.8018 18.4101L19.8171 18.2418L21.0257 18.4101L20.9798 18.7467C20.9492 18.961 20.7962 19.0682 20.5821 19.0375C20.4749 19.0222 20.3985 18.9764 20.3526 18.9151C20.3067 18.8539 20.2913 18.7774 20.2913 18.7008V18.6243C20.2913 18.6243 20.3067 18.5019 20.3067 18.4866C20.2761 18.4713 19.8018 18.4101 19.8018 18.4101ZM20.7809 18.7161C20.7809 18.7161 20.7962 18.5632 20.7962 18.5478C20.7809 18.5325 20.4903 18.5019 20.4596 18.5173C20.4596 18.5478 20.4444 18.6702 20.4444 18.6702V18.7008C20.4444 18.7774 20.5055 18.8385 20.5973 18.8539C20.6432 18.8692 20.7656 18.8692 20.7809 18.7161Z" fill="white"/>
<path d="M19.5111 19.5119L19.71 18.9304L20.8421 19.313L20.6432 19.8944L20.4749 19.8332C20.4749 19.8332 20.5973 19.4507 20.6126 19.42C20.605 19.4124 20.532 19.3893 20.4592 19.3664C20.3867 19.3434 20.3143 19.3206 20.3067 19.313C20.2913 19.3282 20.169 19.7108 20.169 19.7108L20.0007 19.6495C20.0007 19.6495 20.1231 19.2824 20.1384 19.2517C20.1253 19.2452 20.0672 19.2274 20.0039 19.208C19.9195 19.1821 19.8259 19.1534 19.8171 19.1447C19.8171 19.1599 19.6794 19.5731 19.6794 19.5731L19.5111 19.5119Z" fill="white"/>
<path d="M19.404 19.7414L19.4805 19.619L20.5208 20.2311L20.4444 20.3535C20.4444 20.3535 19.4193 20.4606 19.3428 20.4606C19.404 20.5066 20.0772 20.935 20.0772 20.935L19.9854 21.0727L18.9756 20.43L19.0522 20.3076C19.0522 20.3076 20.0618 20.2158 20.1384 20.2158C20.0772 20.1699 19.404 19.7414 19.404 19.7414Z" fill="white"/>
<path d="M19.0303 21.0647C19.0474 21.0622 19.0649 21.0596 19.0827 21.0574C19.2203 21.0268 19.3887 20.9962 19.5264 21.1492C19.6028 21.2104 19.6335 21.3023 19.6335 21.3788C19.6335 21.4552 19.6029 21.5317 19.5264 21.6083C19.4651 21.6695 19.3887 21.7 19.2969 21.7154L19.1286 21.5471H19.1592C19.2663 21.5624 19.3428 21.5317 19.404 21.4706C19.4499 21.4247 19.4652 21.394 19.4652 21.3481C19.4652 21.3258 19.4571 21.3116 19.4467 21.2937C19.4429 21.2871 19.4388 21.2799 19.4346 21.2716C19.3581 21.2104 19.2663 21.2257 19.1592 21.2564C19.0062 21.2869 18.8379 21.3175 18.685 21.1645C18.6085 21.088 18.5779 21.0115 18.5779 20.9197C18.5779 20.8432 18.6084 20.7667 18.6697 20.7054C18.7461 20.6136 18.8379 20.583 18.9603 20.5677L19.1439 20.7514H19.098C18.9756 20.736 18.8686 20.7514 18.792 20.8278C18.7155 20.9043 18.7461 20.9961 18.7768 21.0267C18.8421 21.0922 18.9298 21.0793 19.0303 21.0647Z" fill="white"/>
<path d="M17.8435 21.3328L18.3484 20.9961L19.0062 22.0062L18.5014 22.3428L18.4096 22.1897C18.4096 22.1897 18.7615 21.9603 18.7768 21.9449C18.7614 21.9143 18.6084 21.6848 18.5932 21.6695C18.5779 21.6695 18.2413 21.899 18.2413 21.899L18.1495 21.746C18.1495 21.746 18.4861 21.5165 18.5014 21.5012C18.4937 21.4935 18.4515 21.4282 18.4093 21.3631L18.4093 21.363C18.3673 21.2981 18.3254 21.2333 18.3178 21.2257C18.2872 21.241 17.9353 21.4858 17.9353 21.4858L17.8435 21.3328Z" fill="white"/>
<path fill-rule="evenodd" clip-rule="evenodd" d="M21.5 17.9817C21.5 16.5126 20.9339 15.1354 19.8936 14.0949C19.7835 13.9848 19.6735 13.8871 19.5523 13.7795L19.5111 13.743V13.5287C19.7253 13.5134 19.9088 13.3298 19.9088 13.1155C19.909 13.0612 19.8985 13.0074 19.8778 12.9572C19.8572 12.9069 19.8268 12.8613 19.7884 12.8229C19.75 12.7845 19.7043 12.7541 19.6541 12.7334C19.6039 12.7127 19.5501 12.7021 19.4958 12.7024H19.4651L19.863 12.5187L19.71 12.1821L20.3067 10.7896L20.0465 10.6825L19.4346 12.1056L19.1133 12.2586L19.3275 12.7177H12.6877L12.902 12.2586L12.5653 12.1056L11.9534 10.6825L11.9381 10.6888V10.6825L12.4735 10.4529L12.5042 10.5448C12.3358 10.6212 12.1676 10.8202 12.3665 11.2792C12.8255 11.0803 12.8407 10.8201 12.7642 10.6519L12.8561 10.6212L13.3151 11.6618L13.2232 11.6925C13.1467 11.5241 12.9479 11.3558 12.4889 11.5547C12.6877 12.0138 13.0396 12.1974 13.315 12.1974C13.7892 12.1974 14.1259 11.9066 14.08 11.6159C14.0493 11.4017 13.8505 11.3251 13.774 11.3405C13.6822 11.3558 13.621 11.4629 13.6363 11.5241C13.6363 11.5318 13.6401 11.5395 13.644 11.5471C13.6478 11.5548 13.6516 11.5624 13.6516 11.57L13.6363 11.5853C13.5139 11.57 13.4068 11.4782 13.3761 11.3558C13.3457 11.2027 13.4527 11.0498 13.6056 11.0191C13.6975 11.0039 13.7892 11.0344 13.8658 11.0957L13.8965 11.0498C13.8046 11.0039 13.7434 10.9273 13.7281 10.8202C13.6822 10.5753 13.9576 10.3305 13.9728 10.3305C13.9881 10.3305 14.3247 10.4529 14.3706 10.6978C14.3859 10.8049 14.3554 10.8967 14.2941 10.9732L14.34 11.0039C14.3707 10.9273 14.4472 10.8508 14.5542 10.8355C14.7073 10.8049 14.8602 10.912 14.8909 11.0651C14.9214 11.1875 14.845 11.3251 14.7378 11.3711L14.7225 11.3558V11.3099C14.7073 11.2333 14.6154 11.1722 14.5236 11.1875C14.4472 11.2027 14.2941 11.3405 14.34 11.5547C14.4165 11.922 14.7225 12.1821 15.0897 12.1821C15.4569 12.1821 15.8547 11.8761 15.8547 11.417C15.3192 11.417 15.1968 11.6618 15.1968 11.8761H15.0897V10.6519H15.1968C15.1968 10.8508 15.3344 11.111 15.8547 11.111C15.8547 10.5753 15.6098 10.453 15.3957 10.453V10.3459H16.6043V10.4529C16.4055 10.4529 16.1453 10.5907 16.1453 11.1109C16.6808 11.1109 16.8032 10.8661 16.8032 10.6518H16.9103V11.8761H16.8338C16.8338 11.6772 16.6961 11.417 16.176 11.417C16.176 11.8761 16.5584 12.1821 16.9409 12.1821C17.3081 12.1821 17.6294 11.9219 17.6905 11.5548C17.7364 11.3405 17.5835 11.1875 17.5069 11.1875C17.4151 11.1722 17.3233 11.2333 17.3081 11.3099V11.3558L17.2927 11.3711C17.1857 11.3099 17.1091 11.1875 17.1398 11.065C17.1704 10.912 17.3233 10.8049 17.4763 10.8355C17.5681 10.8508 17.6446 10.912 17.6905 11.0039L17.7364 10.9732C17.6752 10.8967 17.6446 10.805 17.6599 10.6978C17.7058 10.4529 18.0576 10.3305 18.0576 10.3305C18.0576 10.3305 18.3485 10.5753 18.3025 10.8202C18.2872 10.9273 18.2107 11.0039 18.1343 11.0498L18.1648 11.0957C18.226 11.0344 18.3178 11.0039 18.4249 11.0191C18.5779 11.0498 18.685 11.2027 18.6544 11.3558C18.6238 11.4935 18.5166 11.5853 18.3943 11.5853L18.379 11.57C18.3943 11.5547 18.3943 11.5394 18.3943 11.5241C18.4096 11.4476 18.3484 11.3558 18.2566 11.3405C18.1801 11.3251 17.9812 11.4017 17.9506 11.6159C17.9047 11.9066 18.2566 12.1974 18.7156 12.1974C18.991 12.1974 19.3428 12.0138 19.5417 11.5547C19.0827 11.3558 18.8838 11.524 18.8074 11.6924L18.7156 11.6618L19.1746 10.6212L19.2663 10.6519C19.1898 10.8201 19.2051 11.0803 19.6641 11.2792C19.8629 10.8201 19.6947 10.6212 19.5264 10.5448L19.557 10.4529L20.0925 10.6825V10.6978C20.4137 9.9021 20.2761 9.42767 20.1077 9.16754C19.8936 8.84625 19.5417 8.70844 19.2817 8.70844C18.9144 8.70844 18.532 8.8615 18.1649 9.01456C17.7517 9.18279 17.3233 9.35118 16.895 9.3206C16.9409 9.16754 17.0021 9.01456 17.0786 8.89216L16.8184 8.76968C16.8644 8.67786 16.9103 8.57079 16.9255 8.44839C16.895 8.43306 16.5431 8.31066 15.977 8.31066C15.411 8.31066 15.0897 8.43306 15.059 8.44839C15.0744 8.57079 15.105 8.67794 15.1662 8.76968L14.9061 8.89216C14.9826 9.01456 15.0438 9.16754 15.0897 9.3206C14.6777 9.36476 14.2657 9.19655 13.8672 9.03387C13.8514 9.02742 13.8357 9.02098 13.8199 9.01456C13.4527 8.8615 13.0703 8.70852 12.703 8.70852C12.443 8.70852 12.0911 8.84625 11.8769 9.16762C11.7092 9.42683 11.5718 9.91418 11.9345 10.6903L11.6933 10.7896L12.2899 12.1821L12.137 12.5187L12.5347 12.7024H12.5194C12.4651 12.7021 12.4113 12.7127 12.3611 12.7334C12.3109 12.7541 12.2653 12.7845 12.2269 12.8229C12.1885 12.8613 12.1581 12.9069 12.1374 12.9572C12.1167 13.0074 12.1062 13.0612 12.1064 13.1155C12.1064 13.3298 12.2746 13.5133 12.4889 13.5287V13.743C12.3665 13.85 12.2287 13.9725 12.1064 14.0949C11.066 15.1354 10.5 16.5126 10.5 17.9817C10.5 19.114 10.8365 20.2004 11.4944 21.1339C12.137 22.0367 13.009 22.7253 14.0494 23.1078C14.0494 23.1078 14.1105 23.1232 14.2023 23.1692C14.2177 23.3221 14.3095 23.4599 14.4472 23.5058C14.6001 23.5669 14.7684 23.5058 14.8602 23.3986H14.8755V24.9595C14.8755 25.5409 15.3651 26 15.977 26C16.589 26 17.0785 25.5257 17.0785 24.9595V23.9189L19.7711 22.6336C19.8629 22.6029 19.9394 22.557 20.0159 22.4958C20.2301 22.2969 20.2607 21.9908 20.123 21.593C20.3677 21.3175 20.582 21.0268 20.7502 20.7054C21.2398 19.8791 21.4999 18.9457 21.4999 17.9817H21.5ZM18.639 12.9625L19.4346 13.1309L18.639 13.2991V12.9625ZM16.0842 21.3175V17.186H19.2357V17.9663C19.2357 18.7315 19.098 19.2517 18.8992 19.6343C18.7309 19.9097 18.532 20.1699 18.2872 20.3994L18.2413 20.4453C17.66 20.9961 16.8797 21.3022 16.0842 21.3175ZM17.0327 21.4552C16.9714 21.593 16.9255 21.746 16.895 21.9143C16.5947 21.8092 16.3093 21.7041 16.024 21.599L16.0076 21.593C16.3595 21.6083 16.7114 21.5471 17.0327 21.4552ZM16.0842 17.0482V13.544H19.2357V17.0482H16.0842ZM17.1857 12.9625L17.9813 13.1309L17.1857 13.2991V12.9625ZM15.717 12.9625L16.5125 13.1309L15.717 13.2991V12.9625ZM14.2329 12.9625L15.0285 13.1309L14.2329 13.2991V12.9625ZM12.7948 12.9625L13.5904 13.1309L12.7948 13.2991V12.9625ZM12.7948 13.544H15.9465V17.0482H12.7948V13.544ZM12.7948 17.186H15.9465V21.3175C15.3011 21.3029 14.6738 21.1008 14.1411 20.736C14.1335 20.7284 14.1221 20.7208 14.1106 20.7131C14.0991 20.7055 14.0876 20.6978 14.08 20.6901L14.0646 20.6749C14.057 20.6672 14.0494 20.6634 14.0417 20.6595C14.0341 20.6557 14.0264 20.6519 14.0187 20.6442C14.0034 20.6289 13.9882 20.6136 13.9728 20.6136L13.9576 20.5983C13.621 20.3382 13.3303 20.0015 13.1162 19.619C12.9173 19.2364 12.7948 18.7161 12.7948 17.9663V17.186ZM14.2941 22.9089C14.2482 22.8936 14.2023 22.8783 14.1718 22.863C13.1926 22.4958 12.3512 21.8378 11.7546 20.9809C11.1425 20.1087 10.806 19.0681 10.806 17.9817C10.806 16.5891 11.3415 15.2884 12.3358 14.2938L12.3368 14.2928C12.3977 14.232 12.4586 14.1712 12.5194 14.1255V15.5486C12.3904 15.4564 12.2502 15.3642 12.1558 15.3021L12.1556 15.302C12.0935 15.2611 12.0513 15.2333 12.0452 15.2272C12.0605 15.2119 12.244 14.9212 12.244 14.9212L12.0911 14.8294V14.8447L11.6015 15.5792L11.7546 15.671C11.7546 15.671 11.9381 15.3955 11.9534 15.365C11.9587 15.3703 12.0008 15.3977 12.0631 15.4382C12.1805 15.5146 12.3696 15.6376 12.5194 15.7475V16.2525L11.5097 15.7934V15.8087L11.4333 15.9617L12.5194 16.4667V17.0788C12.443 17.3696 12.3971 17.6756 12.3971 17.997C12.3971 18.655 12.5807 19.2671 12.8867 19.8026C13.0855 20.1852 13.3457 20.4453 13.5904 20.6749L13.592 20.6762C13.6986 20.7676 13.8052 20.859 13.9269 20.9502C13.9346 20.9502 13.9384 20.9541 13.9423 20.9579C13.9461 20.9617 13.9499 20.9656 13.9576 20.9656C13.9652 20.9732 13.9729 20.9771 13.9806 20.9809C13.9882 20.9847 13.9958 20.9886 14.0035 20.9962C14.0112 21.0039 14.0188 21.0077 14.0265 21.0115C14.0341 21.0153 14.0417 21.0191 14.0494 21.0268L14.0646 21.0421C14.1564 21.1033 14.2482 21.1645 14.3554 21.2104C14.4086 21.2341 14.4688 21.2624 14.5349 21.2934L14.535 21.2935L14.5352 21.2935C14.6399 21.3427 14.7596 21.399 14.8909 21.4552L14.6614 22.0214L14.5542 21.9755C14.4931 21.9448 14.4165 21.9755 14.3859 22.0367C14.3554 22.098 14.3859 22.1745 14.4472 22.2051L14.5542 22.251L14.2941 22.9089ZM16.8338 24.9747C16.8338 25.0819 16.8032 25.189 16.7573 25.2808C16.7114 25.3573 16.6349 25.4033 16.5584 25.4033C16.4513 25.4033 16.3596 25.342 16.3289 25.2349C16.3289 25.2272 16.3251 25.212 16.3194 25.1891C16.3136 25.1661 16.3059 25.1355 16.2983 25.0972C16.3289 25.1125 16.3596 25.1125 16.3901 25.1125C16.5278 25.1125 16.6349 25.0054 16.6349 24.8829C16.6349 24.7453 16.5278 24.6534 16.3902 24.6534C16.3136 24.6534 16.2525 24.684 16.2066 24.7299C16.13 24.4239 16.0535 24.0872 16.0535 24.0872H15.9465C15.9465 24.0872 15.8699 24.4239 15.7934 24.7299C15.7475 24.684 15.6864 24.6534 15.6252 24.6534C15.4875 24.6534 15.3957 24.7605 15.3957 24.883C15.3957 25.0206 15.5028 25.1125 15.6252 25.1125C15.6558 25.1125 15.6864 25.1125 15.717 25.0972C15.7016 25.1584 15.6863 25.2196 15.6863 25.2349C15.6557 25.3267 15.5639 25.4033 15.4568 25.4033C15.3651 25.4033 15.2886 25.3573 15.2427 25.2808C15.1968 25.189 15.1815 25.0819 15.1815 24.9747V23.5058C15.6711 23.6588 16.283 23.8424 16.8491 23.9649L16.8338 24.9747ZM16.9562 23.6894C16.0995 23.5058 15.105 23.1844 14.5236 22.9854C14.5579 22.9084 14.6017 22.7977 14.6525 22.6696C14.6924 22.5689 14.7366 22.4573 14.7837 22.3428L14.9368 22.404V22.4346C14.9368 22.6488 15.1203 22.8324 15.3344 22.8324C15.5486 22.8324 15.7322 22.6488 15.7322 22.4346C15.7322 22.2204 15.5487 22.0367 15.3345 22.0367C15.2121 22.0367 15.1203 22.0827 15.0438 22.1745L14.8755 22.0979C14.9046 22.0253 14.9321 21.9542 14.9581 21.887C15.0142 21.742 15.0632 21.6155 15.105 21.5317C15.6864 21.7766 16.4361 22.0673 17.155 22.2969C17.92 22.5264 18.5321 22.6642 18.991 22.7101C18.3901 23.0048 17.5961 23.3836 17.2002 23.5726C17.0618 23.6386 16.972 23.6814 16.9561 23.6893L16.9562 23.6894ZM19.8477 22.2815C19.7712 22.3581 19.5876 22.4346 19.2051 22.4346C19.4652 22.251 19.6947 22.0521 19.9089 21.8225C19.9701 22.0367 19.9548 22.1897 19.8477 22.2816V22.2815ZM17.2316 22.0367C17.8894 22.2356 18.3942 22.3581 18.7614 22.404C19.4958 21.9449 20.1078 21.3175 20.5361 20.5371C20.9951 19.7567 21.2246 18.8539 21.2246 17.951C21.2246 16.5585 20.6739 15.2426 19.6947 14.2632C19.6642 14.2327 19.6337 14.206 19.6032 14.1793C19.5725 14.1524 19.5418 14.1256 19.5111 14.0948V15.2426L20.1231 15.1048H20.1383L20.1996 15.2119L19.5111 16.1913V16.2678L20.5362 15.8546H20.5514L20.6126 16.023C20.6126 16.023 19.6947 16.3902 19.6641 16.4056C19.6641 16.4208 19.8324 16.834 19.8324 16.834L19.6641 16.8952L19.4958 16.4667V17.0481C19.5724 17.339 19.6182 17.6603 19.6182 17.9663C19.6182 18.6243 19.4347 19.2517 19.1287 19.7873C18.9451 20.1545 18.7002 20.4147 18.4555 20.6289C18.1801 20.8891 17.8741 21.1033 17.5375 21.2564C17.3233 21.3788 17.2009 21.6236 17.1398 22.0061C17.1551 22.0138 17.1704 22.0176 17.1857 22.0214C17.201 22.0253 17.2163 22.0291 17.2316 22.0367ZM19.5724 15.8393L19.511 15.9311V15.7475L19.5724 15.8393ZM19.5265 15.4415C19.557 15.4415 19.863 15.365 19.9089 15.3496C19.8782 15.3955 19.6947 15.6557 19.6794 15.671C19.6641 15.6557 19.5417 15.4722 19.5265 15.4415ZM14.6001 10.1928C14.7225 9.97859 14.9367 9.84086 15.1968 9.84086C15.2121 9.84086 15.2274 9.84086 15.2427 9.82561C15.2351 9.78018 15.2276 9.73852 15.22 9.69691C15.2123 9.65434 15.2045 9.61183 15.1968 9.5654C14.6925 9.63963 14.2314 9.45488 13.7855 9.2762L13.7847 9.27591C13.771 9.27038 13.7572 9.26486 13.7434 9.25936L13.6972 9.24126C13.362 9.10982 13.0408 8.9839 12.7336 8.9839C12.6113 8.9839 12.3207 9.06047 12.1523 9.3206C11.984 9.58073 11.984 9.94801 12.1523 10.3918C12.244 10.1162 12.5042 9.91735 12.8102 9.91735C13.0549 9.91735 13.2691 10.0398 13.3916 10.2387C13.468 10.0551 13.6516 9.9021 13.8658 9.85619C14.1564 9.79503 14.4624 9.94801 14.6001 10.1928ZM16.283 8.66261C16.2678 8.52488 16.1453 8.41773 16.0076 8.41773C15.8699 8.41773 15.7475 8.52488 15.7322 8.66261C15.8088 8.60137 15.9005 8.55546 16.0076 8.55546C16.1147 8.55546 16.2065 8.60137 16.283 8.66261ZM16.283 8.92274C16.2678 8.78501 16.1453 8.67794 16.0076 8.67794C15.8699 8.67794 15.7475 8.78501 15.7322 8.92274C15.8088 8.8615 15.9005 8.81559 16.0076 8.81559C16.1147 8.81559 16.2065 8.8615 16.283 8.92274ZM15.7322 9.94801C15.7322 10.101 15.8547 10.2234 16.0076 10.2234C16.1606 10.2234 16.283 10.1011 16.283 9.94801C16.283 9.79495 16.1606 9.67255 16.0076 9.67255C15.8547 9.67255 15.7322 9.79503 15.7322 9.94801ZM16.0076 9.53482C16.1023 9.53489 16.194 9.56729 16.2678 9.62664C16.283 9.59621 16.283 9.56579 16.283 9.53529V9.53482C16.283 9.38176 16.1606 9.25936 16.0076 9.25936C15.8547 9.25936 15.7322 9.38176 15.7322 9.53482C15.7322 9.5654 15.7322 9.59598 15.7475 9.62664C15.824 9.56548 15.9006 9.53482 16.0076 9.53482ZM16.0076 9.13696C16.1147 9.13696 16.2065 9.18279 16.283 9.24411V9.22878C16.283 9.07572 16.1606 8.95332 16.0076 8.95332C15.8547 8.95332 15.7322 9.07572 15.7322 9.22878V9.24411C15.8088 9.18287 15.9005 9.13696 16.0076 9.13696ZM19.2051 9.91735C19.5111 9.91735 19.7712 10.1163 19.863 10.3918C20.0313 9.94801 20.0313 9.58073 19.863 9.33585C19.6947 9.07572 19.404 8.99923 19.2816 8.99923C18.9744 8.99923 18.653 9.12525 18.3177 9.25675L18.3171 9.25697C18.3021 9.26287 18.287 9.26878 18.2719 9.27469C18.2583 9.28013 18.2447 9.28559 18.231 9.29105L18.2303 9.29134C17.7842 9.47008 17.323 9.65491 16.8185 9.58065C16.8033 9.67255 16.7879 9.76437 16.7726 9.84086H16.8185C17.0786 9.84086 17.2927 9.99392 17.4151 10.1928C17.5528 9.93268 17.8435 9.79495 18.1495 9.85619C18.3636 9.9021 18.532 10.0551 18.6238 10.2387C18.7461 10.0398 18.9603 9.91735 19.2051 9.91735Z" fill="white"/>
</g>
<defs>
<clipPath id="clip0_3758_19547">
<rect width="32" height="32" fill="white"/>
</clipPath>
</defs>
</svg>
