<svg width="32" height="32" viewBox="0 0 32 32" fill="none" xmlns="http://www.w3.org/2000/svg">
<g clip-path="url(#clip0_3758_19546)">
<circle cx="16" cy="16" r="16" fill="#FE5E00"/>
<path d="M23.9644 16.8C24 16.5333 24 16.2667 24 15.9822C24 15.6978 23.9822 15.4311 23.9644 15.1644H20.1023L23.6796 13.6889C23.5195 13.1733 23.3237 12.6578 23.0567 12.1778L19.4794 13.6711L22.2202 10.9333C21.8821 10.5244 21.4905 10.1156 21.0634 9.77778L18.3226 12.5156L19.7998 8.94222C19.337 8.69333 18.8209 8.48 18.287 8.32L16.8098 11.8933V8.03556C16.5428 8 16.2759 8 15.9911 8C15.7063 8 15.4394 8.01778 15.1724 8.03556V11.8933L13.6952 8.32C13.1791 8.48 12.663 8.67555 12.1824 8.94222L13.6596 12.5156L10.9544 9.77778C10.545 10.1156 10.1357 10.5067 9.79755 10.9333L12.5384 13.6711L8.96107 12.1956C8.7119 12.6578 8.49833 13.1733 8.33815 13.7067L11.9155 15.1822H8.0356C8 15.4489 8 15.7156 8 16C8 16.2844 8.0178 16.5511 8.0356 16.8178H11.8977L8.32036 18.2933C8.48053 18.8089 8.67631 19.3244 8.94327 19.8044L12.5206 18.3289L9.79755 21.0667C10.1357 21.4756 10.5273 21.8844 10.9544 22.2222L13.6952 19.4844L12.218 23.0578C12.6808 23.3067 13.1969 23.52 13.7308 23.68L15.208 20.1067V23.9644C15.475 24 15.7419 24 16.0267 24C16.3115 24 16.5784 23.9822 16.8454 23.9644V20.1067L18.3226 23.68C18.8387 23.52 19.3548 23.3244 19.8354 23.0578L18.3582 19.4844L21.0812 22.1867C21.4905 21.8489 21.8999 21.4578 22.238 21.0311L19.4972 18.2933L23.0745 19.7689C23.3237 19.3067 23.5373 18.7911 23.6974 18.2578L20.1201 16.7822H23.9644V16.8ZM16.0089 18.9156C14.3893 18.9156 13.0723 17.6 13.0723 15.9822C13.0723 14.3644 14.3893 13.0489 16.0089 13.0489C17.6285 13.0489 18.9455 14.3467 18.9455 15.9644C18.9455 17.6 17.6285 18.9156 16.0089 18.9156Z" fill="white"/>
</g>
<defs>
<clipPath id="clip0_3758_19546">
<rect width="32" height="32" fill="white"/>
</clipPath>
</defs>
</svg>
