<svg width="32" height="32" viewBox="0 0 32 32" fill="none" xmlns="http://www.w3.org/2000/svg">
<g clip-path="url(#clip0_4076_56079)">
<path d="M32 16C32 24.8366 24.8366 32 16 32C7.16344 32 0 24.8366 0 16C0 7.16344 7.16344 0 16 0C24.8366 0 32 7.16344 32 16Z" fill="black"/>
<path fill-rule="evenodd" clip-rule="evenodd" d="M8.90309 17.8713C9.24463 18.6273 9.93265 19.3153 11.3087 20.6913C12.6847 22.0673 13.3727 22.7554 14.1287 23.0969C15.3183 23.6344 16.6816 23.6344 17.8713 23.0969C18.6273 22.7554 19.3153 22.0673 20.6913 20.6913C22.0673 19.3153 22.7554 18.6273 23.0969 17.8713C23.6344 16.6816 23.6344 15.3184 23.0969 14.1287C22.7554 13.3727 22.0673 12.6847 20.6913 11.3087C19.3153 9.93265 18.6273 9.24464 17.8713 8.90309C16.6816 8.36564 15.3183 8.36564 14.1287 8.90309C13.3727 9.24463 12.6847 9.93265 11.3087 11.3087L11.3087 11.3087L11.3087 11.3087C9.93265 12.6847 9.24463 13.3727 8.90309 14.1287C8.36564 15.3184 8.36564 16.6816 8.90309 17.8713ZM11.5793 16.7023C11.7479 17.2211 12.1978 17.6711 13.0978 18.5711L13.4288 18.9021C14.3288 19.8021 14.7788 20.2521 15.2977 20.4207C15.7541 20.569 16.2457 20.569 16.7022 20.4207C17.221 20.2521 17.671 19.8021 18.571 18.9021L18.902 18.5711C19.802 17.6711 20.252 17.2211 20.4206 16.7023C20.5689 16.2458 20.5689 15.7542 20.4206 15.2977C20.252 14.7789 19.802 14.3289 18.902 13.4289L18.571 13.0979C17.671 12.1979 17.221 11.7479 16.7022 11.5793C16.2457 11.431 15.7541 11.431 15.2977 11.5793C14.7788 11.7479 14.3288 12.1979 13.4288 13.0979L13.0978 13.4289C12.1978 14.3289 11.7479 14.7789 11.5793 15.2977C11.431 15.7542 11.431 16.2458 11.5793 16.7023Z" fill="white"/>
</g>
<defs>
<clipPath id="clip0_4076_56079">
<rect width="32" height="32" fill="white"/>
</clipPath>
</defs>
</svg>
