<svg width="32" height="32" viewBox="0 0 32 32" fill="none" xmlns="http://www.w3.org/2000/svg">
<g clip-path="url(#clip0_3758_19548)">
<circle cx="16" cy="16" r="16" fill="#181818"/>
<path d="M19.9474 10C18.8137 10 17.8947 10.8954 17.8947 12V19.9632C17.8945 19.9753 17.8944 19.9875 17.8944 19.9997V21.9997H19.91C19.9224 21.9999 19.9349 22 19.9474 22C21.081 22 22 21.1046 22 20V10.0003H19.9848C19.9723 10.0001 19.9599 10 19.9474 10Z" fill="white"/>
<path d="M11.7372 12.0007C11.7372 10.8961 12.6562 10.0007 13.7898 10.0007H15.8424V12.0007C15.8424 12.7285 15.8421 13.2728 15.8421 14.0007C15.8421 15.1052 14.9231 16.0007 13.7895 16.0007H11.7368V14.0007C11.7368 13.2728 11.7372 12.7285 11.7372 12.0007Z" fill="white"/>
<path d="M11.0526 17.9997C9.91899 17.9997 9 18.8951 9 19.9997V21.9997H11.0526C12.1323 21.9997 12.7104 22 13.79 22C14.9236 22 15.8426 21.1046 15.8426 20V18H13.79C12.7104 18 12.1323 17.9997 11.0526 17.9997Z" fill="white"/>
</g>
<defs>
<clipPath id="clip0_3758_19548">
<rect width="32" height="32" fill="white"/>
</clipPath>
</defs>
</svg>
