<svg width="32" height="32" viewBox="0 0 32 32" fill="none" xmlns="http://www.w3.org/2000/svg">
<g clip-path="url(#clip0_3758_19552)">
<path d="M32 16C32 24.8366 24.8366 32 16 32C7.16344 32 0 24.8366 0 16C0 7.16344 7.16344 0 16 0C24.8366 0 32 7.16344 32 16Z" fill="white"/>
<path fill-rule="evenodd" clip-rule="evenodd" d="M16 30.8C24.1738 30.8 30.8 24.1738 30.8 16C30.8 7.82619 24.1738 1.2 16 1.2C7.82619 1.2 1.2 7.82619 1.2 16C1.2 24.1738 7.82619 30.8 16 30.8ZM16 32C24.8366 32 32 24.8366 32 16C32 7.16344 24.8366 0 16 0C7.16344 0 0 7.16344 0 16C0 24.8366 7.16344 32 16 32Z" fill="#0D0D0D" fill-opacity="0.2"/>
<path fill-rule="evenodd" clip-rule="evenodd" d="M22.3073 16.8765L18.9706 11.1219C17.3303 8.29314 14.6697 8.29225 13.029 11.1219L9.69227 16.8765C8.05205 19.7052 9.42603 22 12.7623 22H19.2373C22.5748 22 23.948 19.7061 22.3073 16.8765ZM15.1153 13.6578C15.6183 12.8358 16.4124 12.8501 16.9053 13.7003L18.9563 17.2382L18.9794 17.2793C19.4442 18.1251 19.0239 18.804 18.0216 18.804H13.9736L13.9256 18.8035C12.9431 18.7817 12.5457 18.0892 13.039 17.2382L15.0899 13.7003L15.1153 13.6578Z" fill="black"/>
</g>
<defs>
<clipPath id="clip0_3758_19552">
<rect width="32" height="32" fill="white"/>
</clipPath>
</defs>
</svg>
